<?xml version="1.0" standalone="no"?>
<!DOCTYPE svg PUBLIC "-//W3C//DTD SVG 1.1//EN" "http://www.w3.org/Graphics/SVG/1.1/DTD/svg11.dtd" >
<svg xmlns="http://www.w3.org/2000/svg" xmlns:xlink="http://www.w3.org/1999/xlink" version="1.1">
<metadata>
Created by FontForge 20141024 at Fri Jan  8 12:56:07 2016
 By Jimmy Warting
Copyright (c) 2009 by CastleType. All rights reserved.
</metadata>
<defs>
<font id="ShangoSansRegular" horiz-adv-x="446" >
  <font-face 
    font-family="ShangoSansRegular"
    font-weight="400"
    font-stretch="normal"
    units-per-em="1000"
    panose-1="2 0 6 3 8 0 0 2 0 4"
    ascent="816"
    descent="-184"
    x-height="700"
    cap-height="700"
    bbox="-557 -219.002 1876 878"
    underline-thickness="20"
    underline-position="-180"
    unicode-range="U+0020-FB04"
  />
<missing-glyph horiz-adv-x="604" 
d="M60 605h484v-605h-484v605zM514 30v545h-424v-545h424z" />
    <glyph glyph-name="ff" unicode="ff" horiz-adv-x="766" 
d="M64 500c0 12 -0.164062 27.335 -0.49707 46.002l-1 57l-1 55.5c-0.333008 17.667 -0.833008 31.5 -1.5 41.5h47h97c26 0 47.667 0.166992 65 0.5s31.666 0.833008 42.999 1.5s21.666 1.33398 30.999 2.00098v-62c-9.33301 0.666992 -19.5 1.33398 -30.5 2.00098
s-24.667 1.16699 -41 1.5s-36.333 0.5 -60 0.5h-87.5v-241c32.667 0 60.334 0.166992 83.001 0.5s42 0.666016 58 0.999023s29.5 0.666016 40.5 0.999023s21.5 0.833008 31.5 1.5v-62c-10 0.666992 -20.333 1.16699 -31 1.5s-23.834 0.666016 -39.501 0.999023
s-34.834 0.666016 -57.501 0.999023s-51 0.5 -85 0.5v-151c0 -12 0.166992 -27.333 0.5 -46l1 -57l1 -55.5c0.333008 -17.667 0.833008 -31.5 1.5 -41.5h-68c0.666992 10 1.16699 23.833 1.5 41.5l1 55.5l1 57c0.333008 18.667 0.5 34 0.5 46v300zM447.003 500.002
c0 12 -0.164062 27.335 -0.49707 46.002l-1 57l-1 55.5c-0.333008 17.667 -0.833008 31.5 -1.5 41.5h47h97c26 0 47.667 0.166992 65 0.5s31.666 0.833008 42.999 1.5s21.666 1.33398 30.999 2.00098v-62c-9.33301 0.666992 -19.5 1.33398 -30.5 2.00098
s-24.667 1.16699 -41 1.5s-36.333 0.5 -60 0.5h-87.5v-241c32.667 0 60.334 0.166992 83.001 0.5s42 0.666016 58 0.999023s29.5 0.666016 40.5 0.999023s21.5 0.833008 31.5 1.5v-62c-10 0.666992 -20.333 1.16699 -31 1.5s-23.834 0.666016 -39.501 0.999023
s-34.834 0.666016 -57.501 0.999023s-51 0.5 -85 0.5v-151c0 -12 0.166992 -27.333 0.5 -46l1 -57l1 -55.5c0.333008 -17.667 0.833008 -31.5 1.5 -41.5h-68c0.666992 10 1.16699 23.833 1.5 41.5l1 55.5l1 57c0.333008 18.667 0.5 34 0.5 46v300z" />
    <glyph glyph-name="fi" unicode="fi" horiz-adv-x="571" 
d="M64 500c0 12 -0.164062 27.335 -0.49707 46.002l-1 57l-1 55.5c-0.333008 17.667 -0.833008 31.5 -1.5 41.5h47h97c26 0 47.667 0.166992 65 0.5s31.666 0.833008 42.999 1.5s21.666 1.33398 30.999 2.00098v-62c-9.33301 0.666992 -19.5 1.33398 -30.5 2.00098
s-24.667 1.16699 -41 1.5s-36.333 0.5 -60 0.5h-87.5v-241c32.667 0 60.334 0.166992 83.001 0.5s42 0.666016 58 0.999023s29.5 0.666016 40.5 0.999023s21.5 0.833008 31.5 1.5v-62c-10 0.666992 -20.333 1.16699 -31 1.5s-23.834 0.666016 -39.501 0.999023
s-34.834 0.666016 -57.501 0.999023s-51 0.5 -85 0.5v-151c0 -12 0.166992 -27.333 0.5 -46l1 -57l1 -55.5c0.333008 -17.667 0.833008 -31.5 1.5 -41.5h-68c0.666992 10 1.16699 23.833 1.5 41.5l1 55.5l1 57c0.333008 18.667 0.5 34 0.5 46v300zM447.003 500.002
c0 14 -0.168945 30.333 -0.501953 49l-1 56.5c-0.333008 19 -0.666016 37 -0.999023 54s-0.833008 30.5 -1.5 40.5h68c-0.666992 -10 -1.16699 -23.5 -1.5 -40.5s-0.666016 -35 -0.999023 -54l-1 -56.5c-0.333008 -18.667 -0.5 -35 -0.5 -49v-300
c0 -12 0.166992 -27.333 0.5 -46l1 -57l1 -55.5c0.333008 -17.667 0.833008 -31.5 1.5 -41.5h-68c0.666992 10 1.16699 23.833 1.5 41.5l1 55.5l1 57c0.333008 18.667 0.5 34 0.5 46v300z" />
    <glyph glyph-name="fl" unicode="fl" horiz-adv-x="829" 
d="M64 500c0 12 -0.164062 27.335 -0.49707 46.002l-1 57l-1 55.5c-0.333008 17.667 -0.833008 31.5 -1.5 41.5h47h97c26 0 47.667 0.166992 65 0.5s31.666 0.833008 42.999 1.5s21.666 1.33398 30.999 2.00098v-62c-9.33301 0.666992 -19.5 1.33398 -30.5 2.00098
s-24.667 1.16699 -41 1.5s-36.333 0.5 -60 0.5h-87.5v-241c32.667 0 60.334 0.166992 83.001 0.5s42 0.666016 58 0.999023s29.5 0.666016 40.5 0.999023s21.5 0.833008 31.5 1.5v-62c-10 0.666992 -20.333 1.16699 -31 1.5s-23.834 0.666016 -39.501 0.999023
s-34.834 0.666016 -57.501 0.999023s-51 0.5 -85 0.5v-151c0 -12 0.166992 -27.333 0.5 -46l1 -57l1 -55.5c0.333008 -17.667 0.833008 -31.5 1.5 -41.5h-68c0.666992 10 1.16699 23.833 1.5 41.5l1 55.5l1 57c0.333008 18.667 0.5 34 0.5 46v300zM447.003 500.002
c0 12 -0.166992 27.335 -0.5 46.002l-1 57l-1 55.5c-0.333008 17.667 -0.833008 31.5 -1.5 41.5h68c-0.666992 -10 -1.16699 -23.833 -1.5 -41.5l-1 -55.5l-1 -57c-0.333008 -18.667 -0.5 -34 -0.5 -46v-446h50c14 0 32.5 0.166992 55.5 0.5l71 1
c24.333 0.333008 47.166 0.666016 68.499 0.999023s37 0.833008 47 1.5v-62c-10 0.666992 -25.667 1.16699 -47 1.5s-44.166 0.666016 -68.499 0.999023l-71 1c-23 0.333008 -41.5 0.5 -55.5 0.5h-114c0.666992 10 1.16699 23.833 1.5 41.5l1 55.5l1 57
c0.333008 18.667 0.5 34 0.5 46v300z" />
    <glyph glyph-name="f_f_i" unicode="ffi" horiz-adv-x="954" 
d="M64 500c0 12 -0.164062 27.335 -0.49707 46.002l-1 57l-1 55.5c-0.333008 17.667 -0.833008 31.5 -1.5 41.5h47h97c26 0 47.667 0.166992 65 0.5s31.666 0.833008 42.999 1.5s21.666 1.33398 30.999 2.00098v-62c-9.33301 0.666992 -19.5 1.33398 -30.5 2.00098
s-24.667 1.16699 -41 1.5s-36.333 0.5 -60 0.5h-87.5v-241c32.667 0 60.334 0.166992 83.001 0.5s42 0.666016 58 0.999023s29.5 0.666016 40.5 0.999023s21.5 0.833008 31.5 1.5v-62c-10 0.666992 -20.333 1.16699 -31 1.5s-23.834 0.666016 -39.501 0.999023
s-34.834 0.666016 -57.501 0.999023s-51 0.5 -85 0.5v-151c0 -12 0.166992 -27.333 0.5 -46l1 -57l1 -55.5c0.333008 -17.667 0.833008 -31.5 1.5 -41.5h-68c0.666992 10 1.16699 23.833 1.5 41.5l1 55.5l1 57c0.333008 18.667 0.5 34 0.5 46v300zM447.003 500.002
c0 12 -0.164062 27.335 -0.49707 46.002l-1 57l-1 55.5c-0.333008 17.667 -0.833008 31.5 -1.5 41.5h47h97c26 0 47.667 0.166992 65 0.5s31.666 0.833008 42.999 1.5s21.666 1.33398 30.999 2.00098v-62c-9.33301 0.666992 -19.5 1.33398 -30.5 2.00098
s-24.667 1.16699 -41 1.5s-36.333 0.5 -60 0.5h-87.5v-241c32.667 0 60.334 0.166992 83.001 0.5s42 0.666016 58 0.999023s29.5 0.666016 40.5 0.999023s21.5 0.833008 31.5 1.5v-62c-10 0.666992 -20.333 1.16699 -31 1.5s-23.834 0.666016 -39.501 0.999023
s-34.834 0.666016 -57.501 0.999023s-51 0.5 -85 0.5v-151c0 -12 0.166992 -27.333 0.5 -46l1 -57l1 -55.5c0.333008 -17.667 0.833008 -31.5 1.5 -41.5h-68c0.666992 10 1.16699 23.833 1.5 41.5l1 55.5l1 57c0.333008 18.667 0.5 34 0.5 46v300zM830.006 500.004
c0 14 -0.168945 30.333 -0.501953 49l-1 56.5c-0.333008 19 -0.666016 37 -0.999023 54s-0.833008 30.5 -1.5 40.5h68c-0.666992 -10 -1.16699 -23.5 -1.5 -40.5s-0.666016 -35 -0.999023 -54l-1 -56.5c-0.333008 -18.667 -0.5 -35 -0.5 -49v-300
c0 -12 0.166992 -27.333 0.5 -46l1 -57l1 -55.5c0.333008 -17.667 0.833008 -31.5 1.5 -41.5h-68c0.666992 10 1.16699 23.833 1.5 41.5l1 55.5l1 57c0.333008 18.667 0.5 34 0.5 46v300z" />
    <glyph glyph-name="f_f_l" unicode="ffl" horiz-adv-x="1212" 
d="M64 500c0 12 -0.164062 27.335 -0.49707 46.002l-1 57l-1 55.5c-0.333008 17.667 -0.833008 31.5 -1.5 41.5h47h97c26 0 47.667 0.166992 65 0.5s31.666 0.833008 42.999 1.5s21.666 1.33398 30.999 2.00098v-62c-9.33301 0.666992 -19.5 1.33398 -30.5 2.00098
s-24.667 1.16699 -41 1.5s-36.333 0.5 -60 0.5h-87.5v-241c32.667 0 60.334 0.166992 83.001 0.5s42 0.666016 58 0.999023s29.5 0.666016 40.5 0.999023s21.5 0.833008 31.5 1.5v-62c-10 0.666992 -20.333 1.16699 -31 1.5s-23.834 0.666016 -39.501 0.999023
s-34.834 0.666016 -57.501 0.999023s-51 0.5 -85 0.5v-151c0 -12 0.166992 -27.333 0.5 -46l1 -57l1 -55.5c0.333008 -17.667 0.833008 -31.5 1.5 -41.5h-68c0.666992 10 1.16699 23.833 1.5 41.5l1 55.5l1 57c0.333008 18.667 0.5 34 0.5 46v300zM447.003 500.002
c0 12 -0.164062 27.335 -0.49707 46.002l-1 57l-1 55.5c-0.333008 17.667 -0.833008 31.5 -1.5 41.5h47h97c26 0 47.667 0.166992 65 0.5s31.666 0.833008 42.999 1.5s21.666 1.33398 30.999 2.00098v-62c-9.33301 0.666992 -19.5 1.33398 -30.5 2.00098
s-24.667 1.16699 -41 1.5s-36.333 0.5 -60 0.5h-87.5v-241c32.667 0 60.334 0.166992 83.001 0.5s42 0.666016 58 0.999023s29.5 0.666016 40.5 0.999023s21.5 0.833008 31.5 1.5v-62c-10 0.666992 -20.333 1.16699 -31 1.5s-23.834 0.666016 -39.501 0.999023
s-34.834 0.666016 -57.501 0.999023s-51 0.5 -85 0.5v-151c0 -12 0.166992 -27.333 0.5 -46l1 -57l1 -55.5c0.333008 -17.667 0.833008 -31.5 1.5 -41.5h-68c0.666992 10 1.16699 23.833 1.5 41.5l1 55.5l1 57c0.333008 18.667 0.5 34 0.5 46v300zM830.006 500.004
c0 12 -0.166992 27.335 -0.5 46.002l-1 57l-1 55.5c-0.333008 17.667 -0.833008 31.5 -1.5 41.5h68c-0.666992 -10 -1.16699 -23.833 -1.5 -41.5l-1 -55.5l-1 -57c-0.333008 -18.667 -0.5 -34 -0.5 -46v-446h50c14 0 32.5 0.166992 55.5 0.5l71 1
c24.333 0.333008 47.166 0.666016 68.499 0.999023s37 0.833008 47 1.5v-62c-10 0.666992 -25.667 1.16699 -47 1.5s-44.166 0.666016 -68.499 0.999023l-71 1c-23 0.333008 -41.5 0.5 -55.5 0.5h-114c0.666992 10 1.16699 23.833 1.5 41.5l1 55.5l1 57
c0.333008 18.667 0.5 34 0.5 46v300z" />
    <glyph glyph-name=".notdef" horiz-adv-x="604" 
d="M60 605h484v-605h-484v605zM514 30v545h-424v-545h424z" />
    <glyph glyph-name="space" unicode=" " horiz-adv-x="300" 
 />
    <glyph glyph-name="exclam" unicode="!" horiz-adv-x="200" 
d="M71 502c-2 92.667 -4 158.668 -6 198.001h70c-1.33301 -19.333 -2.33301 -45.833 -3 -79.5s-1.66699 -73.834 -3 -120.501l-7 -341h-44zM60 30.001c0 11.333 3.83301 20.833 11.5 28.5s17.167 11.5 28.5 11.5s20.833 -3.83301 28.5 -11.5s11.5 -17.167 11.5 -28.5
s-3.83301 -20.833 -11.5 -28.5s-17.167 -11.5 -28.5 -11.5s-20.833 3.83301 -28.5 11.5s-11.5 17.167 -11.5 28.5z" />
    <glyph glyph-name="quotedbl" unicode="&#x22;" horiz-adv-x="312" 
d="M131 658c0 -5.33301 -0.666992 -13.832 -2 -25.499s-3.33301 -25.834 -6 -42.501l-18 -116h-20l-18 122c-2 13.333 -3.66699 25.833 -5 37.5s-2 20.167 -2 25.5c0 16 2.33301 28.5 7 37.5s14 13.5 28 13.5s23.5 -4.5 28.5 -13.5s7.5 -21.833 7.5 -38.5zM252 658.001
c0 -5.33301 -0.666992 -13.832 -2 -25.499s-3.33301 -25.834 -6 -42.501l-18 -116h-20l-18 122c-2 13.333 -3.66699 25.833 -5 37.5s-2 20.167 -2 25.5c0 16 2.33301 28.5 7 37.5s14 13.5 28 13.5s23.5 -4.5 28.5 -13.5s7.5 -21.833 7.5 -38.5z" />
    <glyph glyph-name="numbersign" unicode="#" horiz-adv-x="533" 
d="M229 482h118l33 222h48l-32 -222h107v-53h-115l-22 -153h107v-53h-114l-32 -223h-49l32 223h-120l-33 -223h-49l33 223h-111v53h119l23 153h-112v53h120l34 222h49zM198 276h120l22 153h-119z" />
    <glyph glyph-name="dollar" unicode="$" horiz-adv-x="404" 
d="M175 2c-29.333 0 -55.3271 3.00586 -77.9941 9.00586s-41.334 12 -56.001 18v71c4 -2 10.167 -5.5 18.5 -10.5s18.5 -9.83301 30.5 -14.5s25.5 -8.83398 40.5 -12.501s30.833 -5.5 47.5 -5.5c41.333 0 73.333 10.167 96 30.5s34 51.166 34 92.499
c0 25.333 -7 48.166 -21 68.499s-32.333 39.166 -55 56.499l-92 68c-29.333 21.333 -54.166 45 -74.499 71s-30.5 57 -30.5 93c0 42 12.667 77.333 38 106s59.333 45.667 102 51v75h60v-75c28 -3.33301 50.667 -8.5 68 -15.5s30.666 -13.167 39.999 -18.5v-70
c-4.66699 4 -11.667 9 -21 15s-20.333 11.833 -33 17.5s-26.334 10.5 -41.001 14.5s-29.334 6 -44.001 6c-18.667 0 -34.834 -3 -48.501 -9s-24.834 -13.833 -33.501 -23.5s-15.167 -20.834 -19.5 -33.501s-6.5 -25.334 -6.5 -38.001c0 -24 7.66699 -45.333 23 -64
s33.666 -35.667 54.999 -51l93 -67c28 -20 52 -44.167 72 -72.5s30 -62.833 30 -103.5c0 -50 -12.167 -89.167 -36.5 -117.5s-56.833 -46.833 -97.5 -55.5v-76h-60v70z" />
    <glyph glyph-name="percent" unicode="%" horiz-adv-x="806" 
d="M79 494c0 -24.667 2.66797 -47.5029 8.00098 -68.5029s12.666 -39 21.999 -54s20.5 -26.833 33.5 -35.5s27.167 -13 42.5 -13c14 0 27.167 4.33301 39.5 13s23.333 20.834 33 36.501s17.167 33.834 22.5 54.501s8 43 8 67c0 24.667 -2.66699 47.5 -8 68.5
s-12.833 39.333 -22.5 55s-20.667 27.834 -33 36.501s-25.5 13 -39.5 13c-14.667 0 -28.5 -4.5 -41.5 -13.5s-24.167 -21.333 -33.5 -37s-16.833 -34 -22.5 -55s-8.5 -43.5 -8.5 -67.5zM337.001 500.997c0 -34 -4.16699 -64.8311 -12.5 -92.498s-19.5 -51 -33.5 -70
s-30.167 -33.667 -48.5 -44s-37.5 -15.5 -57.5 -15.5c-22 0 -42.5 5.16699 -61.5 15.5s-35.333 25 -49 44s-24.5 42.167 -32.5 69.5s-12 58.333 -12 93c0 30.667 4.33301 58.834 13 84.501s20.167 47.667 34.5 66s30.833 32.666 49.5 42.999s38 15.5 58 15.5
c20.667 0 40.167 -5.33301 58.5 -16s34.5 -25.334 48.5 -44.001s25 -40.834 33 -66.501s12 -53.167 12 -82.5zM210.001 -10.001h-52l438 720h53zM519.001 202.999c0 -24.667 2.66992 -47.502 8.00293 -68.502s12.666 -39 21.999 -54s20.333 -26.833 33 -35.5
s26.667 -13 42 -13c14 0 27.333 4.33301 40 13s23.667 20.834 33 36.501s16.666 33.834 21.999 54.501s8 43 8 67c0 24.667 -2.66699 47.667 -8 69s-12.666 39.666 -21.999 54.999s-20.333 27.333 -33 36s-26 13 -40 13c-14.667 0 -28.334 -4.5 -41.001 -13.5
s-23.834 -21.167 -33.501 -36.5s-17.167 -33.666 -22.5 -54.999s-8 -44 -8 -68zM776.004 209.997c0 -34 -4.16602 -64.835 -12.499 -92.502s-19.5 -51 -33.5 -70s-30.167 -33.667 -48.5 -44s-37.166 -15.5 -56.499 -15.5c-22 0 -42.5 5.16699 -61.5 15.5s-35.333 25 -49 44
s-24.334 42.167 -32.001 69.5s-11.5 58.333 -11.5 93c0 30.667 4.33301 58.834 13 84.501s20.167 47.834 34.5 66.501s30.666 33.167 48.999 43.5s37.5 15.5 57.5 15.5c20.667 0 40.167 -5.33301 58.5 -16s34.333 -25.5 48 -44.5s24.5 -41.333 32.5 -67s12 -53.167 12 -82.5
z" />
    <glyph glyph-name="ampersand" unicode="&#x26;" horiz-adv-x="746" 
d="M638 0c-5.33301 5.33301 -13.832 12.8379 -25.499 22.5049l-39.5 33.5l-54 47c-16 -17.333 -34 -33.5 -54 -48.5s-41.167 -28 -63.5 -39s-46 -19.667 -71 -26s-50.5 -9.5 -76.5 -9.5c-32.667 0 -62.667 4.33301 -90 13s-51 21 -71 37s-35.5 35.167 -46.5 57.5
s-16.5 47.5 -16.5 75.5c0 29.333 4.66699 55.166 14 77.499s21.833 42 37.5 59s33.334 32.167 53.001 45.5s39.834 26 60.501 38c-22 20.667 -39.833 38.5 -53.5 53.5s-24.334 29 -32.001 42s-13 25.833 -16 38.5s-4.5 27 -4.5 43c0 20 3.83301 39.5 11.5 58.5
s18.667 35.833 33 50.5s31.666 26.5 51.999 35.5s43.5 13.5 69.5 13.5c24 0 46 -4.33301 66 -13s37.167 -20.334 51.5 -35.001s25.333 -31.667 33 -51s11.5 -39.333 11.5 -60c0 -22.667 -3.5 -42.834 -10.5 -60.501s-16.167 -33.667 -27.5 -48s-24.833 -27.333 -40.5 -39
s-31.834 -22.834 -48.501 -33.501l222 -191c36 50.667 61.5 104.167 76.5 160.5s23.833 120.166 26.5 191.499h68c-2.66699 -72 -14.667 -139.333 -36 -202s-52 -125 -92 -187l81 -69l54.5 -46c17 -14 32.167 -25.667 45.5 -35h-98zM253.001 35.0049
c42 0 82.167 9.83301 120.5 29.5s72.166 45.167 101.499 76.5l-238 205c-18.667 -11.333 -36.667 -23 -54 -35s-32.666 -25 -45.999 -39s-24 -29.833 -32 -47.5s-12 -37.5 -12 -59.5c0 -20 4.5 -38 13.5 -54s21 -29.667 36 -41s32.167 -20 51.5 -26s39 -9 59 -9z
M153.001 561.005c0 -11.333 0.829102 -21.502 2.49609 -30.502s5.66699 -18.833 12 -29.5s16 -22.667 29 -36s30.5 -30.333 52.5 -51c14.667 8.66699 28.334 17.834 41.001 27.501s23.834 20 33.501 31s17.334 23.333 23.001 37s8.5 28.834 8.5 45.501c0 18.667 -3 35 -9 49
s-13.667 25.5 -23 34.5s-20.166 15.667 -32.499 20s-24.5 6.5 -36.5 6.5c-11.333 0 -23 -2.33301 -35 -7s-22.833 -11.5 -32.5 -20.5s-17.667 -20 -24 -33s-9.5 -27.5 -9.5 -43.5z" />
    <glyph glyph-name="quotesingle" unicode="'" horiz-adv-x="171" 
d="M121 658c0 -5.33301 -0.666992 -13.832 -2 -25.499s-3.33301 -25.834 -6 -42.501l-18 -116h-20l-18 122c-2 13.333 -3.66699 25.833 -5 37.5s-2 20.167 -2 25.5c0 16 2.33301 28.5 7 37.5s14 13.5 28 13.5s23.5 -4.5 28.5 -13.5s7.5 -21.833 7.5 -38.5z" />
    <glyph glyph-name="parenleft" unicode="(" horiz-adv-x="268" 
d="M204 -159c-46.667 66.667 -84 141.666 -112 224.999s-42 178 -42 284c0 99.333 13.333 191.5 40 276.5s64.667 162.167 114 231.5l34 -21c-20 -32.667 -37.667 -68.5 -53 -107.5s-28 -79.5 -38 -121.5s-17.667 -85 -23 -129s-8 -87.333 -8 -130
c0 -42 2.66699 -84.833 8 -128.5s13 -86.667 23 -129s22.667 -83.166 38 -122.499s33 -75 53 -107z" />
    <glyph glyph-name="parenright" unicode=")" horiz-adv-x="268" 
d="M30 -138c20 32 37.667 67.668 53 107.001s28 80.166 38 122.499s17.667 85.333 23 129s8 86.5 8 128.5c0 42.667 -2.66699 86 -8 130s-13 87 -23 129s-22.667 82.5 -38 121.5s-33 74.833 -53 107.5l34 21c49.333 -69.333 87.333 -146.5 114 -231.5s40 -177.167 40 -276.5
c0 -106 -14 -200.667 -42 -284s-65.333 -158.333 -112 -225z" />
    <glyph glyph-name="asterisk" unicode="*" horiz-adv-x="398" 
d="M336 623c0 -8.66699 -2.66504 -15.1709 -7.99805 -19.5039s-12.666 -8.16602 -21.999 -11.499l-84 -31l93 -43c13.333 -6 20 -14 20 -24c0 -8 -2.5 -14.167 -7.5 -18.5s-10.833 -6.5 -17.5 -6.5c-8.66699 0 -16.667 3.33301 -24 10l-76 60l11 -105
c0 -1.33301 0.166992 -2.33301 0.5 -3s0.5 -1.66699 0.5 -3c0 -8 -2.33301 -14.333 -7 -19s-10.667 -7 -18 -7c-6.66699 0 -12.334 2.16699 -17.001 6.5s-7 9.83301 -7 16.5v5.5c0 2.33301 0.333008 4.5 1 6.5l14 102l-84 -63c-6.66699 -5.33301 -13 -8 -19 -8
c-6.66699 0 -12.167 2.5 -16.5 7.5s-6.5 11.167 -6.5 18.5c0 8.66699 2.66699 14.834 8 18.501s12.666 7.5 21.999 11.5l85 34l-94 40c-13.333 5.33301 -20 13.333 -20 24c0 8 2.66699 14.333 8 19s11.666 7 18.999 7s14.666 -3.33301 21.999 -10l76 -60l-8 81
c-2 14 -3 24 -3 30c0 8 2.33301 14.167 7 18.5s10.334 6.5 17.001 6.5s12.334 -2.16699 17.001 -6.5s7 -9.83301 7 -16.5c0 -3.33301 -0.333008 -8.16602 -1 -14.499s-1.33398 -12.166 -2.00098 -17.499l-10 -83l82 64c6.66699 5.33301 13 8 19 8
c6.66699 0 12.167 -2.33301 16.5 -7s6.5 -10.667 6.5 -18z" />
    <glyph glyph-name="plus" unicode="+" horiz-adv-x="495" 
d="M274 373h181v-51h-181v-182h-53v182h-181v51h181v183h53v-183z" />
    <glyph glyph-name="comma" unicode="," horiz-adv-x="160" 
d="M117 70c2 -16 3.00098 -31.666 3.00098 -46.999c0 -31.333 -4.33301 -59.5 -13 -84.5s-20.334 -51.167 -35.001 -78.5h-41c8 21.333 15.167 43.666 21.5 66.999s9.5 49 9.5 77c0 22.667 -2.33301 44.667 -7 66h62z" />
    <glyph glyph-name="hyphen" unicode="-" horiz-adv-x="317" 
d="M38 324v54h239v-54h-239z" />
    <glyph glyph-name="period" unicode="." horiz-adv-x="160" 
d="M40 30c0 11.333 3.83301 20.833 11.5 28.5s17.167 11.5 28.5 11.5s20.833 -3.83301 28.5 -11.5s11.5 -17.167 11.5 -28.5s-3.83301 -20.833 -11.5 -28.5s-17.167 -11.5 -28.5 -11.5s-20.833 3.83301 -28.5 11.5s-11.5 17.167 -11.5 28.5z" />
    <glyph glyph-name="slash" unicode="/" horiz-adv-x="316" 
d="M78 -50h-58l217 800h59z" />
    <glyph glyph-name="zero" unicode="0" horiz-adv-x="582" 
d="M103 349c0 -45.333 4.83203 -87.001 14.499 -125.001s22.834 -71 39.501 -99s36.5 -49.833 59.5 -65.5s48.167 -23.5 75.5 -23.5c25.333 0 49.333 8.16699 72 24.5s42.5 38.5 59.5 66.5s30.5 61 40.5 99s15 79 15 123c0 44.667 -5 86.334 -15 125.001s-23.5 72 -40.5 100
s-36.833 50 -59.5 66s-46.667 24 -72 24c-26 0 -50.5 -8.16699 -73.5 -24.5s-43 -38.833 -60 -67.5s-30.5 -62 -40.5 -100s-15 -79 -15 -123zM541.999 359.999c0 -58.667 -7 -111.335 -21 -158.002s-32.5 -86.5 -55.5 -119.5s-49.5 -58.333 -79.5 -76s-61 -26.5 -93 -26.5
c-36.667 0 -70.5 8.83301 -101.5 26.5s-57.667 42.834 -80 75.501s-39.833 72.5 -52.5 119.5s-19 99.833 -19 158.5c0 52.667 7 101 21 145s32.833 82 56.5 114s50.667 56.833 81 74.5s61.833 26.5 94.5 26.5c34 0 66.167 -9.16699 96.5 -27.5s56.833 -43.666 79.5 -75.999
s40.5 -70.5 53.5 -114.5s19.5 -91.333 19.5 -142z" />
    <glyph glyph-name="one" unicode="1" horiz-adv-x="269" 
d="M209 725c-0.666992 -10 -1.16797 -24.833 -1.50098 -44.5s-0.666016 -40.5 -0.999023 -62.5l-1 -65c-0.333008 -21.333 -0.5 -39 -0.5 -53v-300c0 -12 0.166992 -27.333 0.5 -46l1 -57l1 -55.5c0.333008 -17.667 0.833008 -31.5 1.5 -41.5h-68
c0.666992 10 1.16699 23.833 1.5 41.5l1 55.5l1 57c0.333008 18.667 0.5 34 0.5 46v388l-22 -22l-20.5 -20.5l-20.5 -21.5l-42 42l71 64.5z" />
    <glyph glyph-name="two" unicode="2" horiz-adv-x="455" 
d="M30 0l127.502 164.003c38.333 50.667 71.166 98 98.499 142s48.666 84.667 63.999 122s23 72 23 104c0 24 -3.16699 44.333 -9.5 61s-15 30.167 -26 40.5s-23.5 18 -37.5 23s-28.667 7.5 -44 7.5c-32.667 0 -61 -5 -85 -15s-43 -20 -57 -30v69
c18 7.33301 37.833 14.5 59.5 21.5s49.834 10.5 84.501 10.5c54 0 97.167 -15.667 129.5 -47s48.5 -78.333 48.5 -141c0 -33.333 -6.83301 -68.5 -20.5 -105.5s-32.5 -75.667 -56.5 -116s-51.833 -82 -83.5 -125l-101.5 -133.5c14 0 34.5 0.166992 61.5 0.5l84.5 1
c29.333 0.333008 56.666 0.666016 81.999 0.999023s43 0.833008 53 1.5v-60c-10 0.666992 -28.333 1.16699 -55 1.5s-58.167 0.666016 -94.5 0.999023s-75.833 0.666016 -118.5 0.999023s-85 0.5 -127 0.5z" />
    <glyph glyph-name="three" unicode="3" horiz-adv-x="443" 
d="M403 189c0 -35.333 -6.33691 -66.1689 -19.0039 -92.502s-29 -48.166 -49 -65.499s-42.5 -30.166 -67.5 -38.499s-49.833 -12.5 -74.5 -12.5c-18 0 -34 0.666992 -48 2s-27 3.16602 -39 5.49902s-23.167 5.33301 -33.5 9l-32.5 11.5v75
c4 -3.33301 10.5 -7.66602 19.5 -12.999s20 -10.5 33 -15.5s27.833 -9.33301 44.5 -13s35 -5.5 55 -5.5s39 3.5 57 10.5s33.833 17 47.5 30s24.334 28.5 32.001 46.5s11.5 38.333 11.5 61c0 34 -6.16699 62 -18.5 84s-28.166 39.5 -47.499 52.5s-40.5 22.167 -63.5 27.5
s-44.833 8 -65.5 8v48c20.667 0 40.667 3.5 60 10.5s36.333 16.833 51 29.5s26.334 28 35.001 46s13 38.333 13 61c0 19.333 -3 36 -9 50s-13.833 25.667 -23.5 35s-20.834 16.333 -33.501 21s-26 7 -40 7c-16 0 -31.167 -2.5 -45.5 -7.5s-27.166 -11.167 -38.499 -18.5
s-21.166 -14.833 -29.499 -22.5s-14.833 -14.5 -19.5 -20.5v73c22.667 19.333 46.167 32.833 70.5 40.5s48.166 11.5 71.499 11.5c14.667 0 31.334 -3 50.001 -9s36.167 -15.5 52.5 -28.5s30 -29.833 41 -50.5s16.5 -46 16.5 -76c0 -43.333 -10 -78.333 -30 -105
s-44 -48.334 -72 -65.001c16.667 -5.33301 33.167 -13.166 49.5 -23.499s31 -23.833 44 -40.5s23.667 -36 32 -58s12.5 -47 12.5 -75z" />
    <glyph glyph-name="four" unicode="4" horiz-adv-x="578" 
d="M375 568l-236 -329h236v329zM435 188c0 -12 0.166992 -26.667 0.5 -44l1 -53l1 -51.5c0.333008 -16.333 0.833008 -29.5 1.5 -39.5h-68c0.666992 10 1.16699 23.167 1.5 39.5l1 51.5l1 53c0.333008 17.333 0.5 32 0.5 44h-335l395 553v-502
c19.333 0 36.5 0.333008 51.5 1s32.167 1.66699 51.5 3v-59c-20 1.33301 -37.333 2.33301 -52 3s-31.667 1 -51 1z" />
    <glyph glyph-name="five" unicode="5" horiz-adv-x="491" 
d="M131 700c66.667 0 122.164 0.334961 166.497 1.00195s76.166 1.66699 95.499 3v-63c-10 0.666992 -20.333 1.16699 -31 1.5s-23.667 0.666016 -39 0.999023s-34.5 0.666016 -57.5 0.999023s-51.5 0.5 -85.5 0.5l-30 -204c13.333 6 27.833 10.5 43.5 13.5
s29.5 4.5 41.5 4.5c30 0 58.167 -4.5 84.5 -13.5s49.333 -22.167 69 -39.5s35 -38.833 46 -64.5s16.5 -55.167 16.5 -88.5c0 -36 -5.5 -70.5 -16.5 -103.5s-27.5 -62 -49.5 -87s-49.333 -45 -82 -60s-71 -22.5 -115 -22.5c-32 0 -61.667 2.33301 -89 7s-47 8.66699 -59 12
v70c12.667 -6.66699 32.334 -13.834 59.001 -21.501s57.334 -11.5 92.001 -11.5c30.667 0 58.334 5.5 83.001 16.5s45.334 26.333 62.001 46s29.5 42.667 38.5 69s13.5 54.833 13.5 85.5c0 24 -4 45.333 -12 64s-19 34.334 -33 47.001s-30.333 22.167 -49 28.5
s-38.667 9.5 -60 9.5c-30 0 -57.5 -5.16699 -82.5 -15.5s-46.167 -22.5 -63.5 -36.5l-10 7z" />
    <glyph glyph-name="six" unicode="6" horiz-adv-x="501" 
d="M40 236c0 77.333 12.168 143.998 36.501 199.998s55.666 103 93.999 141s81.5 68 129.5 90s96 38 144 48l17 -55c-27.333 -6.66699 -57.666 -15.667 -90.999 -27s-65.666 -26.833 -96.999 -46.5s-60.333 -44.834 -87 -75.501s-47 -69 -61 -115
c12.667 14.667 30.334 28.334 53.001 41.001s46.667 19 72 19c32.667 0 62 -6.33301 88 -19s48 -29.667 66 -51s31.833 -45.666 41.5 -72.999s14.5 -56 14.5 -86c0 -38 -5 -72.167 -15 -102.5s-24.333 -56.166 -43 -77.499s-40.834 -37.833 -66.501 -49.5
s-54.167 -17.5 -85.5 -17.5c-30 0 -57.833 5.83301 -83.5 17.5s-47.834 28.5 -66.501 50.5s-33.334 48.833 -44.001 80.5s-16 67.5 -16 107.5zM250.001 399.998c-22 0 -42 -4.5 -60 -13.5s-33.5 -21.167 -46.5 -36.5s-23 -33.666 -30 -54.999s-10.5 -44 -10.5 -68
c0 -32 4.16699 -60 12.5 -84s19.5 -43.833 33.5 -59.5s29.833 -27.5 47.5 -35.5s35.5 -12 53.5 -12c18.667 0 36.834 3.66699 54.501 11s33.334 18.666 47.001 33.999s24.667 35 33 59s12.5 53 12.5 87c0 28.667 -4.16699 53.667 -12.5 75s-19.333 39.333 -33 54
s-29.334 25.667 -47.001 33s-35.834 11 -54.501 11z" />
    <glyph glyph-name="seven" unicode="7" horiz-adv-x="510" 
d="M58 -20l332 665.001h-194c-10 0 -23.5 -0.166992 -40.5 -0.5l-51 -1c-17 -0.333008 -32.5 -0.833008 -46.5 -1.5s-23.333 -1.33398 -28 -2.00098v64c30 -1.33301 57.833 -2.33301 83.5 -3s53.167 -1 82.5 -1h284l-350 -720h-72z" />
    <glyph glyph-name="eight" unicode="8" horiz-adv-x="478" 
d="M40 178c0 25.333 4.16895 47.8311 12.502 67.498s19.5 37.5 33.5 53.5s30 30.333 48 43s36.667 25 56 37c-16 10 -31 20.667 -45 32s-26.5 23.833 -37.5 37.5s-19.667 28.834 -26 45.501s-9.5 35.667 -9.5 57c0 24 4.33301 46.333 13 67s20.5 38.5 35.5 53.5
s32.667 26.833 53 35.5s42.166 13 65.499 13s45.166 -4.33301 65.499 -13s38 -20.5 53 -35.5s26.833 -32.833 35.5 -53.5s13 -43 13 -67c0 -21.333 -3.16699 -40.166 -9.5 -56.499s-15 -31.333 -26 -45s-23.667 -26 -38 -37s-29.5 -21.5 -45.5 -31.5
c18.667 -12 37.167 -24.667 55.5 -38s34.5 -28 48.5 -44s25.333 -33.833 34 -53.5s13 -42.167 13 -67.5c0 -29.333 -4.66699 -56 -14 -80s-22.833 -44.833 -40.5 -62.5s-38.667 -31.334 -63 -41.001s-51.5 -14.5 -81.5 -14.5s-57.167 4.83301 -81.5 14.5
s-45.333 23.334 -63 41.001s-31.167 38.5 -40.5 62.5s-14 50.667 -14 80zM239.002 35.998c18.667 0 36.335 2.83105 53.002 8.49805s31.167 14.167 43.5 25.5s22 26 29 44s10.5 39 10.5 63c0 22 -3.83301 41.333 -11.5 58s-18 31.834 -31 45.501s-27.667 26 -44 37
s-33.5 21.833 -51.5 32.5c-17.333 -10.667 -34 -21.667 -50 -33s-30.333 -23.666 -43 -36.999s-22.667 -28.5 -30 -45.5s-11 -36.167 -11 -57.5c0 -24 3.5 -45 10.5 -63s16.667 -32.667 29 -44s26.666 -19.833 42.999 -25.5s34.166 -8.5 53.499 -8.5zM239.003 663.996
c-14 0 -27.6709 -2.5 -41.0039 -7.5s-25.166 -12.5 -35.499 -22.5s-18.666 -22.167 -24.999 -36.5s-9.5 -30.5 -9.5 -48.5c0 -15.333 3 -29.5 9 -42.5s14 -25 24 -36s21.833 -21.5 35.5 -31.5s28.167 -19.667 43.5 -29c14.667 9.33301 28.667 19 42 29s25 20.5 35 31.5
s18 22.833 24 35.5s9 27 9 43c0 18 -3.16699 34.167 -9.5 48.5s-14.666 26.5 -24.999 36.5s-22.166 17.5 -35.499 22.5s-27 7.5 -41 7.5z" />
    <glyph glyph-name="nine" unicode="9" horiz-adv-x="499" 
d="M459 457c0 -79.333 -11.6689 -146.167 -35.002 -200.5s-54 -99.5 -92 -135.5s-81.167 -64.833 -129.5 -86.5s-97.5 -39.5 -147.5 -53.5l-16 61c26 6.66699 55.5 15.667 88.5 27s65.5 26.666 97.5 45.999s61.5 44.166 88.5 74.499s47.5 68.5 61.5 114.5
c-15.333 -17.333 -34.5 -31.666 -57.5 -42.999s-45.167 -17 -66.5 -17c-32.667 0 -61.667 6.5 -87 19.5s-46.666 30.333 -63.999 52s-30.5 46.334 -39.5 74.001s-13.5 56.5 -13.5 86.5c0 34.667 4.83301 66.834 14.5 96.501s23.334 55.5 41.001 77.5s39 39.167 64 51.5
s53.167 18.5 84.5 18.5c30 0 57.667 -6.16699 83 -18.5s47.333 -29.833 66 -52.5s33.167 -50.334 43.5 -83.001s15.5 -69 15.5 -109zM250.998 299.999c44 0 79.166 15.666 105.499 46.999s39.5 74 39.5 128c0 32 -4.16699 59.833 -12.5 83.5s-19.166 43.334 -32.499 59.001
s-28.833 27.334 -46.5 35.001s-35.5 11.5 -53.5 11.5c-18.667 0 -36.5 -3.83301 -53.5 -11.5s-32 -19.167 -45 -34.5s-23.333 -34.833 -31 -58.5s-11.5 -51.5 -11.5 -83.5c0 -28.667 3.83301 -53.834 11.5 -75.501s18 -40 31 -55s28 -26.333 45 -34s34.833 -11.5 53.5 -11.5
z" />
    <glyph glyph-name="colon" unicode=":" horiz-adv-x="160" 
d="M40 350c0 11.333 3.83301 20.833 11.5 28.5s17.167 11.5 28.5 11.5s20.833 -3.83301 28.5 -11.5s11.5 -17.167 11.5 -28.5s-3.83301 -20.833 -11.5 -28.5s-17.167 -11.5 -28.5 -11.5s-20.833 3.83301 -28.5 11.5s-11.5 17.167 -11.5 28.5zM40 30
c0 11.333 3.83301 20.833 11.5 28.5s17.167 11.5 28.5 11.5s20.833 -3.83301 28.5 -11.5s11.5 -17.167 11.5 -28.5s-3.83301 -20.833 -11.5 -28.5s-17.167 -11.5 -28.5 -11.5s-20.833 3.83301 -28.5 11.5s-11.5 17.167 -11.5 28.5z" />
    <glyph glyph-name="semicolon" unicode=";" horiz-adv-x="168" 
d="M48 350c0 11.333 3.83301 20.833 11.5 28.5s17.167 11.5 28.5 11.5s20.833 -3.83301 28.5 -11.5s11.5 -17.167 11.5 -28.5s-3.83301 -20.833 -11.5 -28.5s-17.167 -11.5 -28.5 -11.5s-20.833 3.83301 -28.5 11.5s-11.5 17.167 -11.5 28.5zM117 70
c2 -16 3.00098 -31.666 3.00098 -46.999c0 -31.333 -4.33301 -59.5 -13 -84.5s-20.334 -51.167 -35.001 -78.5h-41c8 21.333 15.167 43.666 21.5 66.999s9.5 49 9.5 77c0 22.667 -2.33301 44.667 -7 66h62z" />
    <glyph glyph-name="less" unicode="&#x3c;" horiz-adv-x="495" 
d="M40 322v54l415 170v-58l-351 -139l175.5 -69.5l175.5 -70.5v-57z" />
    <glyph glyph-name="equal" unicode="=" horiz-adv-x="495" 
d="M40 410v50h415v-50h-415zM40 244v51h415v-51h-415z" />
    <glyph glyph-name="greater" unicode="&#x3e;" horiz-adv-x="495" 
d="M40 152v57l351 140l-351 139v58l415 -170v-54z" />
    <glyph glyph-name="question" unicode="?" horiz-adv-x="400" 
d="M370 565c0 -28.667 -5.66602 -52.5 -16.999 -71.5s-25.5 -35 -42.5 -48s-35.5 -24.333 -55.5 -34s-38.5 -19.834 -55.5 -30.501s-31.167 -22.834 -42.5 -36.501s-17 -31.167 -17 -52.5c0 -26 5.16699 -47 15.5 -63s20.166 -26.667 29.499 -32l-20 -26
c-18 10.667 -35 27 -51 49s-24 50 -24 84c0 24.667 5.5 45.334 16.5 62.001s24.5 31.167 40.5 43.5s33.667 23.333 53 33s37 20 53 31s29.5 23.333 40.5 37s16.5 30.5 16.5 50.5c0 30.667 -10.333 55.5 -31 74.5s-49 28.5 -85 28.5c-19.333 0 -36.833 -1.5 -52.5 -4.5
s-29.5 -6.5 -41.5 -10.5s-22.167 -8.16699 -30.5 -12.5s-14.833 -7.83301 -19.5 -10.5v64c14.667 6.66699 34.667 13.334 60 20.001s53.333 10 84 10c26.667 0 50.834 -3.83301 72.501 -11.5s40.167 -18.5 55.5 -32.5s27.166 -30.5 35.499 -49.5s12.5 -39.5 12.5 -61.5z
M139.001 30c0 11.333 3.83301 20.833 11.5 28.5s17.167 11.5 28.5 11.5s20.833 -3.83301 28.5 -11.5s11.5 -17.167 11.5 -28.5s-3.83301 -20.833 -11.5 -28.5s-17.167 -11.5 -28.5 -11.5s-20.833 3.83301 -28.5 11.5s-11.5 17.167 -11.5 28.5z" />
    <glyph glyph-name="at" unicode="@" horiz-adv-x="841" 
d="M786 440c0 -31.333 -5.82617 -63.165 -17.4932 -95.498s-28.167 -61.5 -49.5 -87.5s-46.833 -47.333 -76.5 -64s-62.167 -25 -97.5 -25c-16.667 0 -30 3.33301 -40 10s-17.833 15.667 -23.5 27s-9.33398 24 -11.001 38s-2.5 28.667 -2.5 44
c-15.333 -20.667 -29 -38.167 -41 -52.5s-24 -26.166 -36 -35.499s-24.333 -16.166 -37 -20.499s-27 -6.5 -43 -6.5c-14 0 -28.167 7.66699 -42.5 23s-21.5 37.666 -21.5 66.999c0 42.667 6.66699 81.334 20 116.001s30.666 64.167 51.999 88.5s45.166 43.166 71.499 56.499
s52.5 20 78.5 20c19.333 0 36.666 -3 51.999 -9s31 -13.333 47 -22c-6.66699 -15.333 -12.834 -32.166 -18.501 -50.499s-10.5 -37 -14.5 -56s-7 -37.667 -9 -56s-3 -35.5 -3 -51.5c0 -22 3 -39.833 9 -53.5s16.667 -20.5 32 -20.5c16.667 0 34.667 5.16699 54 15.5
s37.166 25 53.499 44s29.833 41.667 40.5 68s16 55.5 16 87.5c0 32.667 -5.16699 62.5 -15.5 89.5s-25.833 50 -46.5 69s-46.834 33.833 -78.501 44.5s-68.5 16 -110.5 16c-45.333 0 -89.333 -9.83301 -132 -29.5s-80.667 -46.334 -114 -80.001
s-60.166 -73.167 -80.499 -118.5s-30.5 -94 -30.5 -146c0 -42.667 6.83301 -80 20.5 -112s32.334 -58.833 56.001 -80.5s51.667 -37.834 84 -48.501s67.5 -16 105.5 -16c97.333 0 180 26 248 78l24 -31c-32 -26 -72.667 -48.167 -122 -66.5s-104.333 -27.5 -165 -27.5
c-42 0 -81.833 6 -119.5 18s-70.667 30.5 -99 55.5s-50.833 56.333 -67.5 94s-25 82.5 -25 134.5c0 56 11.333 109.833 34 161.5s53.167 97.167 91.5 136.5s83 70.666 134 93.999s104.5 35 160.5 35c51.333 0 96.166 -6.83301 134.499 -20.5s70.166 -32.5 95.499 -56.5
s44.333 -52.333 57 -85s19 -68.334 19 -107.001zM472.007 360.001l5.49609 32.999c1.66699 10 3.83398 19.833 6.50098 29.5s5.5 19.334 8.5 29.001s6.83301 20.167 11.5 31.5c-6 3.33301 -12.833 5.83301 -20.5 7.5s-15.167 2.5 -22.5 2.5
c-23.333 0 -44.666 -6.83301 -63.999 -20.5s-35.666 -31 -48.999 -52s-23.666 -43.833 -30.999 -68.5s-11 -48 -11 -70c0 -16 2.83301 -28.333 8.5 -37s12.834 -13 21.501 -13c7.33301 0 17 4.16699 29 12.5s24.667 18.833 38 31.5s26.166 26.5 38.499 41.5
s22.5 28.833 30.5 41.5v1z" />
    <glyph glyph-name="A" unicode="A" horiz-adv-x="727" 
d="M547 194l-369.001 0.000976562l-42 -93l-11.5 -26l-8.5 -19.5l-9.5 -22l-14.5 -33.5h-82c5.33301 8.66699 12.833 22.167 22.5 40.5l30 58.5l29.5 58.5c9.33301 18.333 16 32.166 20 41.499l253 526l250 -525l25 -51.5l30 -60.5l28 -54.5
c8.66699 -16.333 15 -27.5 19 -33.5h-87c-7.33301 20 -14.666 38.833 -21.999 56.5l-21 49.5zM201.999 246.001h322l-161 349z" />
    <glyph glyph-name="B" unicode="B" horiz-adv-x="468" 
d="M326 538c0 34 -11.666 60.5 -34.999 79.5s-60.333 28.5 -111 28.5h-56v-240h71c20 0 38 3.5 54 10.5s29.667 16.5 41 28.5s20.166 26 26.499 42s9.5 33 9.5 51zM124.001 355l0.000976562 -301h71c26.667 0 51 2.33301 73 7s41 12.667 57 24s28.333 26.333 37 45
s13 42 13 70c0 48 -14.333 85.833 -43 113.5s-68.334 41.5 -119.001 41.5h-89zM60.002 0c0.666992 10 1.16797 23.834 1.50098 41.501l1 55.5l1 57c0.333008 18.667 0.5 34 0.5 46v300c0 14 -0.166992 30.333 -0.5 49l-1 56.5c-0.333008 19 -0.666016 37 -0.999023 54
s-0.833008 30.5 -1.5 40.5h120c68 0 119.5 -14.167 154.5 -42.5s52.5 -68.166 52.5 -119.499c0 -19.333 -2.5 -36.833 -7.5 -52.5s-11.667 -29.834 -20 -42.501s-17.833 -23.5 -28.5 -32.5s-21.334 -16.167 -32.001 -21.5c19.333 -5.33301 37.5 -13.5 54.5 -24.5
s31.667 -24.667 44 -41s22.166 -34.833 29.499 -55.5s11 -43.334 11 -68.001c0 -35.333 -5.66699 -65.5 -17 -90.5s-27.5 -45.667 -48.5 -62s-46.5 -28.333 -76.5 -36s-63.667 -11.5 -101 -11.5h-135z" />
    <glyph glyph-name="C" unicode="C" horiz-adv-x="690" 
d="M640 34c-7.33301 -4 -18.5029 -8.99805 -33.5029 -14.998s-32.5 -12 -52.5 -18s-42.167 -11 -66.5 -15s-49.833 -6 -76.5 -6c-56 0 -106.833 9.33301 -152.5 28s-84.667 44.5 -117 77.5s-57.333 72.167 -75 117.5s-26.5 94.666 -26.5 147.999
c0 52 9.16699 100.5 27.5 145.5s44 84 77 117s72.167 59 117.5 78s95 28.5 149 28.5c26.667 0 50.834 -1.83301 72.501 -5.5s41.334 -8.16699 59.001 -13.5s33.667 -10.833 48 -16.5l38.5 -15.5v-74c-9.33301 6 -21.333 12.833 -36 20.5s-31.5 15.167 -50.5 22.5
s-39.667 13.5 -62 18.5s-45.5 7.5 -69.5 7.5c-41.333 0 -80.666 -7.16699 -117.999 -21.5s-70 -34.833 -98 -61.5s-50.333 -59.5 -67 -98.5s-25 -82.833 -25 -131.5c0 -46 7.33301 -88.333 22 -127s35.5 -72 62.5 -100s59.5 -49.667 97.5 -65s80 -23 126 -23
c28 0 54.5 3 79.5 9s47.5 13.167 67.5 21.5s37.167 16.666 51.5 24.999s24.5 14.5 30.5 18.5v-76z" />
    <glyph glyph-name="D" unicode="D" horiz-adv-x="671" 
d="M568 347c0 48.667 -9 91.667 -27 129s-42.167 68.5 -72.5 93.5s-65.333 44 -105 57s-81.5 19.5 -125.5 19.5h-114v-592h115c44 0 85.833 6 125.5 18s74.5 30.167 104.5 54.5s54 54.833 72 91.5s27 79.667 27 129zM631 347c0 -52 -9.33594 -99.1631 -28.0029 -141.496
s-45 -78.833 -79 -109.5s-75.167 -54.334 -123.5 -71.001s-102.166 -25 -161.499 -25h-179c0.666992 14 1.16699 32.333 1.5 55s0.833008 44.667 1.5 66c0.666992 25.333 1 51.666 1 78.999v300c0 30 -0.333008 58.333 -1 85c-0.666992 22.667 -1.16699 45 -1.5 67
s-0.833008 38 -1.5 48h178c46.667 0 93.334 -6.83301 140.001 -20.5s88.834 -34.834 126.501 -63.501s68.167 -65.334 91.5 -110.001s35 -97.667 35 -159z" />
    <glyph glyph-name="E" unicode="E" 
d="M64 500c0 12 -0.166016 27.3379 -0.499023 46.0049l-1 57l-1 55.5c-0.333008 17.667 -0.833008 31.5 -1.5 41.5h47h88.5c25 0 46.833 0.166992 65.5 0.5s34.667 0.833008 48 1.5s24.666 1.33398 33.999 2.00098v-62c-18.667 1.33301 -45.334 2.33301 -80.001 3
s-81 1 -139 1v-253c32.667 0 60.334 0.166992 83.001 0.5s42 0.666016 58 0.999023s29.5 0.666016 40.5 0.999023s21.5 0.833008 31.5 1.5v-62c-10 0.666992 -20.333 1.16699 -31 1.5s-23.667 0.666016 -39 0.999023s-34.5 0.666016 -57.5 0.999023s-51.5 0.5 -85.5 0.5
v-285h120c14 0 28.833 0.166992 44.5 0.5l47 1c15.667 0.333008 30.5 0.666016 44.5 0.999023s26 0.833008 36 1.5v-62c-10 0.666992 -22 1.16699 -36 1.5s-28.833 0.666016 -44.5 0.999023l-47 1c-15.667 0.333008 -30.5 0.5 -44.5 0.5h-184
c0.666992 10 1.16699 23.833 1.5 41.5l1 55.5l1 57c0.333008 18.667 0.5 34 0.5 46v300z" />
    <glyph glyph-name="F" unicode="F" horiz-adv-x="383" 
d="M64 500c0 12 -0.164062 27.335 -0.49707 46.002l-1 57l-1 55.5c-0.333008 17.667 -0.833008 31.5 -1.5 41.5h47h97c26 0 47.667 0.166992 65 0.5s31.666 0.833008 42.999 1.5s21.666 1.33398 30.999 2.00098v-62c-9.33301 0.666992 -19.5 1.33398 -30.5 2.00098
s-24.667 1.16699 -41 1.5s-36.333 0.5 -60 0.5h-87.5v-241c32.667 0 60.334 0.166992 83.001 0.5s42 0.666016 58 0.999023s29.5 0.666016 40.5 0.999023s21.5 0.833008 31.5 1.5v-62c-10 0.666992 -20.333 1.16699 -31 1.5s-23.834 0.666016 -39.501 0.999023
s-34.834 0.666016 -57.501 0.999023s-51 0.5 -85 0.5v-151c0 -12 0.166992 -27.333 0.5 -46l1 -57l1 -55.5c0.333008 -17.667 0.833008 -31.5 1.5 -41.5h-68c0.666992 10 1.16699 23.833 1.5 41.5l1 55.5l1 57c0.333008 18.667 0.5 34 0.5 46v300z" />
    <glyph glyph-name="G" unicode="G" horiz-adv-x="709" 
d="M650 3c-6 -1.33301 -14.6689 -3.16602 -26.002 -5.49902s-26 -4.83301 -44 -7.5s-39.833 -5 -65.5 -7s-56.167 -3 -91.5 -3c-59.333 0 -112.666 9.33301 -159.999 28s-87.5 44.5 -120.5 77.5s-58.333 72.167 -76 117.5s-26.5 94.666 -26.5 147.999
c0 52 9.16699 100.5 27.5 145.5s44 84 77 117s72.167 59 117.5 78s95 28.5 149 28.5c26.667 0 51 -1.83301 73 -5.5s42 -8.16699 60 -13.5s34 -10.833 48 -16.5l37 -15.5v-74c-9.33301 6 -21.333 12.833 -36 20.5s-31.5 15.167 -50.5 22.5s-39.667 13.5 -62 18.5
s-45.5 7.5 -69.5 7.5c-41.333 0 -80.666 -7.16699 -117.999 -21.5s-70 -34.833 -98 -61.5s-50.333 -59.5 -67 -98.5s-25 -82.833 -25 -131.5c0 -46 7.66699 -88.333 23 -127s37 -72 65 -100s61.667 -49.667 101 -65s83 -23 131 -23c35.333 0 66.5 1.66699 93.5 5
s51.5 7.66602 73.5 12.999v101c0 25.333 -0.5 49 -1.5 71s-1.83301 38.333 -2.5 49h68c-0.666992 -9.33301 -1.5 -25.166 -2.5 -47.499s-1.5 -46.5 -1.5 -72.5v-152z" />
    <glyph glyph-name="H" unicode="H" horiz-adv-x="670" 
d="M546 354h-422.004v-154c0 -12 0.166992 -27.333 0.5 -46l1 -57l1 -55.5c0.333008 -17.667 0.833008 -31.5 1.5 -41.5h-68c0.666992 10 1.16699 23.833 1.5 41.5l1 55.5l1 57c0.333008 18.667 0.5 34 0.5 46v300c0 14 -0.166992 30.333 -0.5 49l-1 56.5
c-0.333008 19 -0.666016 37 -0.999023 54s-0.833008 30.5 -1.5 40.5h68c-0.666992 -10 -1.16699 -23.5 -1.5 -40.5s-0.666016 -35 -0.999023 -54l-1 -56.5c-0.333008 -18.667 -0.5 -35 -0.5 -49v-92h422v92c0 14 -0.166992 30.333 -0.5 49l-1 56.5
c-0.333008 19 -0.666016 37 -0.999023 54s-0.833008 30.5 -1.5 40.5h68c-0.666992 -10 -1.16699 -23.5 -1.5 -40.5s-0.666016 -35 -0.999023 -54l-1 -56.5c-0.333008 -18.667 -0.5 -35 -0.5 -49v-300c0 -12 0.166992 -27.333 0.5 -46l1 -57l1 -55.5
c0.333008 -17.667 0.833008 -31.5 1.5 -41.5h-68c0.666992 10 1.16699 23.833 1.5 41.5l1 55.5l1 57c0.333008 18.667 0.5 34 0.5 46v154z" />
    <glyph glyph-name="I" unicode="I" horiz-adv-x="188" 
d="M64 500c0 14 -0.168945 30.333 -0.501953 49l-1 56.5c-0.333008 19 -0.666016 37 -0.999023 54s-0.833008 30.5 -1.5 40.5h68c-0.666992 -10 -1.16699 -23.5 -1.5 -40.5s-0.666016 -35 -0.999023 -54l-1 -56.5c-0.333008 -18.667 -0.5 -35 -0.5 -49v-300
c0 -12 0.166992 -27.333 0.5 -46l1 -57l1 -55.5c0.333008 -17.667 0.833008 -31.5 1.5 -41.5h-68c0.666992 10 1.16699 23.833 1.5 41.5l1 55.5l1 57c0.333008 18.667 0.5 34 0.5 46v300z" />
    <glyph glyph-name="J" unicode="J" horiz-adv-x="188" 
d="M124 -6c0 -25.333 -2.50195 -46.668 -7.50195 -64.001s-11.833 -32.166 -20.5 -44.499s-19 -22.333 -31 -30s-25.333 -13.834 -40 -18.501l-47 42c10 2.66699 20.167 6 30.5 10s19.5 10 27.5 18s14.667 18.833 20 32.5s8 31.834 8 54.501v506
c0 14 -0.166992 30.333 -0.5 49l-1 56.5c-0.333008 19 -0.666016 37 -0.999023 54s-0.833008 30.5 -1.5 40.5h68c-0.666992 -10 -1.16699 -23.5 -1.5 -40.5s-0.666016 -35 -0.999023 -54l-1 -56.5c-0.333008 -18.667 -0.5 -35 -0.5 -49v-506z" />
    <glyph glyph-name="K" unicode="K" horiz-adv-x="610" 
d="M332 574c34 32 59.833 57.666 77.5 76.999l43.5 49h84l-61.5 -56.5l-72.5 -69.5l-186 -185l143 -144l38 -39l47 -48.5l50 -51.5l46.5 -48l37 -37.5c10.333 -10.333 17.5 -17.166 21.5 -20.499h-88l-29.5 31l-49 52l-57.5 60.5l-54 56.5l-182 189zM64 499.999
c0 14 -0.168945 30.333 -0.501953 49l-1 56.5c-0.333008 19 -0.666016 37 -0.999023 54s-0.833008 30.5 -1.5 40.5h68c-0.666992 -10 -1.16699 -23.5 -1.5 -40.5s-0.666016 -35 -0.999023 -54l-1 -56.5c-0.333008 -18.667 -0.5 -35 -0.5 -49v-300
c0 -12 0.166992 -27.333 0.5 -46l1 -57l1 -55.5c0.333008 -17.667 0.833008 -31.5 1.5 -41.5h-68c0.666992 10 1.16699 23.833 1.5 41.5l1 55.5l1 57c0.333008 18.667 0.5 34 0.5 46v300z" />
    <glyph glyph-name="L" unicode="L" 
d="M64 500c0 12 -0.166992 27.335 -0.5 46.002l-1 57l-1 55.5c-0.333008 17.667 -0.833008 31.5 -1.5 41.5h68c-0.666992 -10 -1.16699 -23.833 -1.5 -41.5l-1 -55.5l-1 -57c-0.333008 -18.667 -0.5 -34 -0.5 -46v-446h50c14 0 32.5 0.166992 55.5 0.5l71 1
c24.333 0.333008 47.166 0.666016 68.499 0.999023s37 0.833008 47 1.5v-62c-10 0.666992 -25.667 1.16699 -47 1.5s-44.166 0.666016 -68.499 0.999023l-71 1c-23 0.333008 -41.5 0.5 -55.5 0.5h-114c0.666992 10 1.16699 23.833 1.5 41.5l1 55.5l1 57
c0.333008 18.667 0.5 34 0.5 46v300z" />
    <glyph glyph-name="M" unicode="M" horiz-adv-x="949" 
d="M470 -16l-262.997 603.004l-66 -387c-7.33301 -41.333 -13.5 -80.333 -18.5 -117s-8.16699 -64.334 -9.5 -83.001h-73c8 28 14.667 57.167 20 87.5l20 112.5l61 345l14 87c4 25.333 7 48 9 68h68c2.66699 -10 6.5 -22.167 11.5 -36.5s10.333 -28.833 16 -43.5l16.5 -42
c5.33301 -13.333 10 -24.333 14 -33l129 -301l22 -52.5c6.66699 -15.667 12.667 -29.167 18 -40.5c6 -13.333 11 -25.333 15 -36l16 38l18.5 41.5l24.5 52.5l141 299c16 34 29.167 63.167 39.5 87.5s18.5 46.5 24.5 66.5h68c0 -6 0.5 -16.5 1.5 -31.5
s2.16699 -30.833 3.5 -47.5s2.66602 -32.334 3.99902 -47.001s2.33301 -24.334 3 -29.001l42 -345c1.33301 -12.667 3.16602 -27.667 5.49902 -45l7 -53.5c2.33301 -18.333 5 -36.333 8 -54s5.83301 -33.5 8.5 -47.5h-71c-0.666992 14 -1.83398 29.833 -3.50098 47.5l-5 54
c-1.66699 18.333 -3.5 36.166 -5.5 53.499s-3.66699 32.333 -5 45l-45 384z" />
    <glyph glyph-name="N" unicode="N" horiz-adv-x="704" 
d="M122 600c0 -26 0.333008 -52.667 1 -80c0 -24 0.166992 -50.833 0.5 -80.5s0.5 -59.5 0.5 -89.5v-150c0 -12 0.166992 -27.333 0.5 -46l1 -57l1 -55.5c0.333008 -17.667 0.833008 -31.5 1.5 -41.5h-68c0.666992 10 1.16699 23.833 1.5 41.5l1 55.5l1 57
c0.333008 18.667 0.5 34 0.5 46v299c0 44 -0.333008 83.5 -1 118.5s-1.66699 62.5 -3 82.5h63l459 -600c-0.666992 21.333 -1 45.333 -1 72c-0.666992 22.667 -1 49 -1 79v98v151c0 12 -0.166992 27.333 -0.5 46l-1 57l-1 55.5c-0.333008 17.667 -0.833008 31.5 -1.5 41.5
h68c-0.666992 -10 -1.16699 -23.833 -1.5 -41.5l-1 -55.5l-1 -57c-0.333008 -18.667 -0.5 -34 -0.5 -46v-299c0 -44 0.333008 -83.5 1 -118.5s1.66699 -62.5 3 -82.5h-63z" />
    <glyph glyph-name="O" unicode="O" horiz-adv-x="795" 
d="M40 350c0 52 9.16797 100.666 27.501 145.999s43.5 84.5 75.5 117.5s69.667 59 113 78s90.333 28.5 141 28.5c52 0 99.833 -9.16699 143.5 -27.5s81.334 -44 113.001 -77s56.5 -72.167 74.5 -117.5s27 -94.666 27 -147.999c0 -52 -9.16699 -100.667 -27.5 -146
s-43.5 -84.5 -75.5 -117.5s-69.833 -59 -113.5 -78s-90.834 -28.5 -141.501 -28.5c-51.333 0 -98.833 9.33301 -142.5 28s-81.334 44.5 -113.001 77.5s-56.5 72 -74.5 117s-27 94.167 -27 147.5zM103.001 349.999c0 -46 7.33203 -88.333 21.999 -127s35 -71.834 61 -99.501
s57 -49.167 93 -64.5s75.333 -23 118 -23c42 0 80.833 7.83301 116.5 23.5s66.834 37.5 93.501 65.5s47.5 61.167 62.5 99.5s22.5 80.166 22.5 125.499c0 46 -7.33301 88.333 -22 127s-35 71.834 -61 99.501s-57.167 49.167 -93.5 64.5s-75.833 23 -118.5 23
c-41.333 0 -80 -7.83301 -116 -23.5s-67.167 -37.5 -93.5 -65.5s-47 -61.167 -62 -99.5s-22.5 -80.166 -22.5 -125.499z" />
    <glyph glyph-name="P" unicode="P" horiz-adv-x="444" 
d="M64 500c0 14 -0.170898 30.333 -0.503906 49l-1 56.5c-0.333008 19 -0.666016 37 -0.999023 54s-0.833008 30.5 -1.5 40.5h144c30 0 57.833 -4.33301 83.5 -13s47.834 -21.167 66.501 -37.5s33.334 -36 44.001 -59s16 -48.5 16 -76.5
c0 -32.667 -5.16699 -61.167 -15.5 -85.5s-24.666 -44.5 -42.999 -60.5s-40.5 -28 -66.5 -36s-55 -12 -87 -12h-78v-120c0 -12 0.166992 -27.333 0.5 -46l1 -57l1 -55.5c0.333008 -17.667 0.833008 -31.5 1.5 -41.5h-68c0.666992 10 1.16699 23.833 1.5 41.5l1 55.5l1 57
c0.333008 18.667 0.5 34 0.5 46v300zM353.996 514c0 45.333 -14.5 78.666 -43.5 99.999s-65.5 32 -109.5 32h-77v-272h78c22.667 0 43.334 2.33301 62.001 7s34.667 12.334 48 23.001s23.666 25 30.999 43s11 40.333 11 67z" />
    <glyph glyph-name="Q" unicode="Q" horiz-adv-x="795" 
d="M40 350c0 52 9.16602 100.666 27.499 145.999s43.5 84.5 75.5 117.5s69.667 59 113 78s90.333 28.5 141 28.5c52 0 99.833 -9.16699 143.5 -27.5s81.334 -44 113.001 -77s56.5 -72.167 74.5 -117.5s27 -94.666 27 -147.999c0 -68 -15 -129.167 -45 -183.5
s-70 -97.833 -120 -130.5l188 -112l-61 -29l-187 110c-19.333 -8 -40.666 -14.167 -63.999 -18.5s-46.333 -6.5 -69 -6.5c-51.333 0 -98.833 9.33301 -142.5 28s-81.334 44.5 -113.001 77.5s-56.5 72 -74.5 117s-27 94.167 -27 147.5zM102.999 349.999
c0 -46 7.33203 -88.333 21.999 -127s35 -71.834 61 -99.501s57 -49.167 93 -64.5s75.333 -23 118 -23c42 0 80.833 7.83301 116.5 23.5s66.834 37.5 93.501 65.5s47.5 61.167 62.5 99.5s22.5 80.166 22.5 125.499c0 46 -7.33301 88.333 -22 127s-35 71.834 -61 99.501
s-57.167 49.167 -93.5 64.5s-75.833 23 -118.5 23c-41.333 0 -80 -7.83301 -116 -23.5s-67.167 -37.5 -93.5 -65.5s-47 -61.167 -62 -99.5s-22.5 -80.166 -22.5 -125.499z" />
    <glyph glyph-name="R" unicode="R" horiz-adv-x="558" 
d="M64 500c0 14 -0.168945 30.334 -0.501953 49.001l-1 56.5c-0.333008 19 -0.666016 37 -0.999023 54s-0.833008 30.5 -1.5 40.5h147c26.667 0 52.334 -3.83301 77.001 -11.5s46.667 -19.167 66 -34.5s34.833 -34.666 46.5 -57.999s17.5 -50.333 17.5 -81
c0 -24.667 -3.16699 -46.667 -9.5 -66s-14.5 -36.333 -24.5 -51s-21.167 -26.834 -33.5 -36.501s-24.5 -16.834 -36.5 -21.501l97 -140l35 -50.5l39.5 -56.5l37 -53c11.667 -16.667 21.5 -30 29.5 -40h-85c-6 10 -14.333 23.167 -25 39.5l-34 53l-36.5 56.5l-33.5 51
l-79 121h-131v-121c0 -12 0.166992 -27.333 0.5 -46l1 -57l1 -55.5c0.333008 -17.667 0.833008 -31.5 1.5 -41.5h-68c0.666992 10 1.16699 23.833 1.5 41.5l1 55.5l1 57c0.333008 18.667 0.5 34 0.5 46v300zM123.998 646.001v-272.003h84c21.333 0 40.833 2.33301 58.5 7
s33 12.5 46 23.5s23.167 25.333 30.5 43s11 39.834 11 66.501c0 24 -4 44.333 -12 61s-18.833 30.334 -32.5 41.001s-29.667 18.334 -48 23.001s-37.5 7 -57.5 7h-80z" />
    <glyph glyph-name="S" unicode="S" horiz-adv-x="420" 
d="M277 356c14.667 -11.333 28.5029 -23.335 41.5029 -36.002s24.5 -26.5 34.5 -41.5s17.833 -31.5 23.5 -49.5s8.5 -37.333 8.5 -58c0 -32 -4.83301 -59.667 -14.5 -83s-23.334 -42.666 -41.001 -57.999s-38.834 -26.833 -63.501 -34.5s-51.667 -11.5 -81 -11.5
c-30.667 0 -58.334 3.16699 -83.001 9.5s-44.667 12.5 -60 18.5v70l17.5 -10.5c8.33301 -5 18.833 -10 31.5 -15s27 -9.5 43 -13.5s33 -6 51 -6c44 0 78.333 11.167 103 33.5s37 55.5 37 99.5c0 28 -7.66699 53 -23 75s-35 42 -59 60l-98 72
c-32 23.333 -58.333 48.333 -79 75s-31 59 -31 97c0 24 4.16699 46.333 12.5 67s20 38.334 35 53.001s33.167 26.167 54.5 34.5s45 12.5 71 12.5c40 0 72 -4.83301 96 -14.5s41.667 -17.5 53 -23.5v-68c-4.66699 4 -11.834 9 -21.501 15s-21.167 12 -34.5 18
s-27.666 11 -42.999 15s-30.666 6 -45.999 6c-20 0 -37.5 -3.16699 -52.5 -9.5s-27.167 -14.833 -36.5 -25.5s-16.333 -22.834 -21 -36.501s-7 -27.5 -7 -41.5c0 -26.667 8.16699 -49.667 24.5 -69s36.166 -37.666 59.499 -54.999z" />
    <glyph glyph-name="T" unicode="T" horiz-adv-x="604" 
d="M332 648v-448.002c0 -12 0.166992 -27.333 0.5 -46l1 -57l1 -55.5c0.333008 -17.667 0.833008 -31.5 1.5 -41.5h-68c0.666992 10 1.16699 23.833 1.5 41.5l1 55.5l1 57c0.333008 18.667 0.5 34 0.5 46v448h-50c-14 0 -30 -0.166992 -48 -0.5l-54 -1
c-18 -0.333008 -35 -0.666016 -51 -0.999023s-29 -0.833008 -39 -1.5v60c10 -0.666992 23 -1.16699 39 -1.5s33 -0.666016 51 -0.999023l54 -1c18 -0.333008 34 -0.5 48 -0.5h156c12 0 27 0.166992 45 0.5l55.5 1l54.5 1c17.333 0.333008 31 0.833008 41 1.5v-60
c-10 0.666992 -23.667 1.16699 -41 1.5l-54.5 1l-55.5 1c-18 0.333008 -33 0.5 -45 0.5h-46z" />
    <glyph glyph-name="U" unicode="U" horiz-adv-x="678" 
d="M554 500c0 14 -0.168945 30.335 -0.501953 49.002l-1 56.5c-0.333008 19 -0.666016 37 -0.999023 54s-0.833008 30.5 -1.5 40.5h68c-0.666992 -10 -1.16699 -23.5 -1.5 -40.5s-0.666016 -35 -0.999023 -54l-1 -56.5c-0.333008 -18.667 -0.5 -35 -0.5 -49v-300
c0 -12 0.166992 -27.333 0.5 -46l1 -57l1 -55.5c0.333008 -17.667 0.833008 -31.5 1.5 -41.5h-66c0.666992 9.33301 1 21.666 1 36.999s0.333008 31.666 1 48.999c-12 -10 -26.167 -20.833 -42.5 -32.5s-34.833 -22.167 -55.5 -31.5s-43.334 -17.166 -68.001 -23.499
s-51 -9.5 -79 -9.5c-36.667 0 -70.334 6.16699 -101.001 18.5s-57 30.333 -79 54s-39.167 52.667 -51.5 87s-18.5 73.5 -18.5 117.5v234c0 14 -0.166992 30.333 -0.5 49l-1 56.5c-0.333008 19 -0.666016 37 -0.999023 54s-0.833008 30.5 -1.5 40.5h68
c-0.666992 -10 -1.16699 -23.5 -1.5 -40.5s-0.666016 -35 -0.999023 -54l-1 -56.5c-0.333008 -18.667 -0.5 -35 -0.5 -49v-218c0 -41.333 5 -76.833 15 -106.5s23.5 -54.334 40.5 -74.001s37 -34.167 60 -43.5s47.833 -14 74.5 -14c36 0 68.333 4.66699 97 14
s53.167 20 73.5 32s36.833 24 49.5 36s21 20.667 25 26v48v300z" />
    <glyph glyph-name="V" unicode="V" horiz-adv-x="709" 
d="M344 118l186 382c4.66699 10.667 11.5 25.167 20.5 43.5l27.5 57.5l26.5 57c8.33301 18 14.5 32 18.5 42h76c-6 -10 -13.833 -24.333 -23.5 -43l-29.5 -58.5l-28.5 -58c-9 -18.333 -15.833 -31.833 -20.5 -40.5l-259 -515l-234 515l-23 49.5l-26 57l-25 53.5
c-8 16.667 -14.667 30 -20 40h76l16.5 -40l22.5 -53.5l24.5 -56.5l22.5 -50z" />
    <glyph glyph-name="W" unicode="W" horiz-adv-x="1011" 
d="M502 382l60 118l23.5 46l28.5 57.5l27 55.5c8.66699 17.333 15 31 19 41h72l-23.5 -41l-29.5 -54.5l-29.5 -57l-24.5 -47.5l-93 -179l103 -204l196 383l24.5 49l28.5 56.5l26 54c8 17 14 30.5 18 40.5h73c-6 -10 -13.667 -23.833 -23 -41.5l-30 -56l-30.5 -57
l-23.5 -45.5l-264 -513l-135 270l-139 -270l-245 513l-25 50.5l-28 57l-26.5 53c-8.33301 16.333 -15.5 29.5 -21.5 39.5h75c4 -10 9.83301 -23 17.5 -39l24.5 -52l26.5 -56.5l25.5 -52.5l182 -383l104 201l-90 182l-26.5 53l-29 56.5l-27 51.5l-20.5 39h75
c4 -10 9.66699 -22.833 17 -38.5l24.5 -51l27.5 -56.5l27 -54z" />
    <glyph glyph-name="X" unicode="X" horiz-adv-x="677" 
d="M336 307l-87 -107l-43 -53l-45 -56.5l-41 -51.5l-30 -39h-75l34.5 41l45 55l46 57l37.5 47l124 154l-109 146l-37 49.5l-42 57l-40.5 53.5l-31.5 40h80c6.66699 -10 15.667 -22.667 27 -38l36.5 -50l41 -56l41.5 -56l76 -102l82 102l44 56l44.5 56l39.5 50l29 38h79
l-33 -39.5l-43 -52.5l-46.5 -56.5l-41.5 -51.5l-120 -149l112 -151l32.5 -44.5l42 -57l42 -56.5l32.5 -42h-77c-6.66699 10 -16.5 24 -29.5 42l-41 56.5l-42 57l-32.5 44.5z" />
    <glyph glyph-name="Y" unicode="Y" horiz-adv-x="706" 
d="M189 -150c6.66699 11.333 16.168 28.5 28.501 51.5l36.5 69.5l44 87l-194 442l-38 85l-32 67c-10.667 22 -18.667 38 -24 48h77c3.33301 -10 9.66602 -26 18.999 -48l28 -67l37 -85l166 -376l190 376l42 85l33 67c10.667 22 18 38 22 48h72c-6 -10 -15 -26 -27 -48
l-35 -67l-43 -85l-264 -520c-8.66699 -16 -16.667 -32 -24 -48l-20.5 -42.5l-18.5 -39.5h-75z" />
    <glyph glyph-name="Z" unicode="Z" horiz-adv-x="675" 
d="M277 646c-14 0 -30 -0.169922 -48 -0.50293l-54 -1c-18 -0.333008 -35 -0.666016 -51 -0.999023s-29 -0.833008 -39 -1.5v62c10 -0.666992 23 -1.16699 39 -1.5s33 -0.666016 51 -0.999023l54 -1c18 -0.333008 34 -0.5 48 -0.5h349l-492 -646h269
c14 0 32.5 0.166992 55.5 0.5s46.667 0.833008 71 1.5s47.166 1.33398 68.499 2.00098s37 1.33398 47 2.00098v-64c-10 0.666992 -25.667 1.16699 -47 1.5s-44.166 0.666016 -68.499 0.999023l-71 1c-23 0.333008 -41.5 0.5 -55.5 0.5h-383l494 646h-237z" />
    <glyph glyph-name="bracketleft" unicode="[" horiz-adv-x="247" 
d="M50 -150v1000h137v-58h-77v-884h77v-58h-137z" />
    <glyph glyph-name="backslash" unicode="\" horiz-adv-x="316" 
d="M19 750h61l217 -800h-60z" />
    <glyph glyph-name="bracketright" unicode="]" horiz-adv-x="247" 
d="M60 -150v58h77v884h-77v58h137v-1000h-137z" />
    <glyph glyph-name="asciicircum" unicode="^" horiz-adv-x="605" 
d="M269 656h54l190 -415h-58l-159 351l-160 -351h-57z" />
    <glyph glyph-name="underscore" unicode="_" horiz-adv-x="450" 
d="M0 -200v24h450v-24h-450z" />
    <glyph glyph-name="grave" unicode="`" horiz-adv-x="249" 
d="M118 850l101 -100h-60l-129 100h88z" />
    <glyph glyph-name="a" unicode="a" horiz-adv-x="747" 
d="M557 194l-369.001 0.000976562l-42 -93l-11.5 -26l-8.5 -19.5l-9.5 -22l-14.5 -33.5h-82c5.33301 8.66699 12.833 22.167 22.5 40.5l30 58.5l29.5 58.5c9.33301 18.333 16 32.166 20 41.499l253 526l250 -525l25 -51.5l30 -60.5l28 -54.5
c8.66699 -16.333 15 -27.5 19 -33.5h-87c-7.33301 20 -14.666 38.833 -21.999 56.5l-21 49.5zM211.999 246.001h322l-161 349z" />
    <glyph glyph-name="b" unicode="b" horiz-adv-x="468" 
d="M326 538c0 34 -11.666 60.5 -34.999 79.5s-60.333 28.5 -111 28.5h-56v-240h71c20 0 38 3.5 54 10.5s29.667 16.5 41 28.5s20.166 26 26.499 42s9.5 33 9.5 51zM124.001 355l0.000976562 -301h71c26.667 0 51 2.33301 73 7s41 12.667 57 24s28.333 26.333 37 45
s13 42 13 70c0 48 -14.333 85.833 -43 113.5s-68.334 41.5 -119.001 41.5h-89zM60.002 0c0.666992 10 1.16797 23.834 1.50098 41.501l1 55.5l1 57c0.333008 18.667 0.5 34 0.5 46v300c0 14 -0.166992 30.333 -0.5 49l-1 56.5c-0.333008 19 -0.666016 37 -0.999023 54
s-0.833008 30.5 -1.5 40.5h120c68 0 119.5 -14.167 154.5 -42.5s52.5 -68.166 52.5 -119.499c0 -19.333 -2.5 -36.833 -7.5 -52.5s-11.667 -29.834 -20 -42.501s-17.833 -23.5 -28.5 -32.5s-21.334 -16.167 -32.001 -21.5c19.333 -5.33301 37.5 -13.5 54.5 -24.5
s31.667 -24.667 44 -41s22.166 -34.833 29.499 -55.5s11 -43.334 11 -68.001c0 -35.333 -5.66699 -65.5 -17 -90.5s-27.5 -45.667 -48.5 -62s-46.5 -28.333 -76.5 -36s-63.667 -11.5 -101 -11.5h-135z" />
    <glyph glyph-name="c" unicode="c" horiz-adv-x="690" 
d="M640 34c-7.33301 -4 -18.5029 -8.99805 -33.5029 -14.998s-32.5 -12 -52.5 -18s-42.167 -11 -66.5 -15s-49.833 -6 -76.5 -6c-56 0 -106.833 9.33301 -152.5 28s-84.667 44.5 -117 77.5s-57.333 72.167 -75 117.5s-26.5 94.666 -26.5 147.999
c0 52 9.16699 100.5 27.5 145.5s44 84 77 117s72.167 59 117.5 78s95 28.5 149 28.5c26.667 0 50.834 -1.83301 72.501 -5.5s41.334 -8.16699 59.001 -13.5s33.667 -10.833 48 -16.5l38.5 -15.5v-74c-9.33301 6 -21.333 12.833 -36 20.5s-31.5 15.167 -50.5 22.5
s-39.667 13.5 -62 18.5s-45.5 7.5 -69.5 7.5c-41.333 0 -80.666 -7.16699 -117.999 -21.5s-70 -34.833 -98 -61.5s-50.333 -59.5 -67 -98.5s-25 -82.833 -25 -131.5c0 -46 7.33301 -88.333 22 -127s35.5 -72 62.5 -100s59.5 -49.667 97.5 -65s80 -23 126 -23
c28 0 54.5 3 79.5 9s47.5 13.167 67.5 21.5s37.167 16.666 51.5 24.999s24.5 14.5 30.5 18.5v-76z" />
    <glyph glyph-name="d" unicode="d" horiz-adv-x="671" 
d="M568 347c0 48.667 -9 91.667 -27 129s-42.167 68.5 -72.5 93.5s-65.333 44 -105 57s-81.5 19.5 -125.5 19.5h-114v-592h115c44 0 85.833 6 125.5 18s74.5 30.167 104.5 54.5s54 54.833 72 91.5s27 79.667 27 129zM631 347c0 -52 -9.33594 -99.1631 -28.0029 -141.496
s-45 -78.833 -79 -109.5s-75.167 -54.334 -123.5 -71.001s-102.166 -25 -161.499 -25h-179c0.666992 14 1.16699 32.333 1.5 55s0.833008 44.667 1.5 66c0.666992 25.333 1 51.666 1 78.999v300c0 30 -0.333008 58.333 -1 85c-0.666992 22.667 -1.16699 45 -1.5 67
s-0.833008 38 -1.5 48h178c46.667 0 93.334 -6.83301 140.001 -20.5s88.834 -34.834 126.501 -63.501s68.167 -65.334 91.5 -110.001s35 -97.667 35 -159z" />
    <glyph glyph-name="e" unicode="e" 
d="M64 500c0 12 -0.166016 27.3379 -0.499023 46.0049l-1 57l-1 55.5c-0.333008 17.667 -0.833008 31.5 -1.5 41.5h47h88.5c25 0 46.833 0.166992 65.5 0.5s34.667 0.833008 48 1.5s24.666 1.33398 33.999 2.00098v-62c-18.667 1.33301 -45.334 2.33301 -80.001 3
s-81 1 -139 1v-253c32.667 0 60.334 0.166992 83.001 0.5s42 0.666016 58 0.999023s29.5 0.666016 40.5 0.999023s21.5 0.833008 31.5 1.5v-62c-10 0.666992 -20.333 1.16699 -31 1.5s-23.667 0.666016 -39 0.999023s-34.5 0.666016 -57.5 0.999023s-51.5 0.5 -85.5 0.5
v-285h120c14 0 28.833 0.166992 44.5 0.5l47 1c15.667 0.333008 30.5 0.666016 44.5 0.999023s26 0.833008 36 1.5v-62c-10 0.666992 -22 1.16699 -36 1.5s-28.833 0.666016 -44.5 0.999023l-47 1c-15.667 0.333008 -30.5 0.5 -44.5 0.5h-184
c0.666992 10 1.16699 23.833 1.5 41.5l1 55.5l1 57c0.333008 18.667 0.5 34 0.5 46v300z" />
    <glyph glyph-name="f" unicode="f" horiz-adv-x="383" 
d="M64 500c0 12 -0.164062 27.335 -0.49707 46.002l-1 57l-1 55.5c-0.333008 17.667 -0.833008 31.5 -1.5 41.5h47h97c26 0 47.667 0.166992 65 0.5s31.666 0.833008 42.999 1.5s21.666 1.33398 30.999 2.00098v-62c-9.33301 0.666992 -19.5 1.33398 -30.5 2.00098
s-24.667 1.16699 -41 1.5s-36.333 0.5 -60 0.5h-87.5v-241c32.667 0 60.334 0.166992 83.001 0.5s42 0.666016 58 0.999023s29.5 0.666016 40.5 0.999023s21.5 0.833008 31.5 1.5v-62c-10 0.666992 -20.333 1.16699 -31 1.5s-23.834 0.666016 -39.501 0.999023
s-34.834 0.666016 -57.501 0.999023s-51 0.5 -85 0.5v-151c0 -12 0.166992 -27.333 0.5 -46l1 -57l1 -55.5c0.333008 -17.667 0.833008 -31.5 1.5 -41.5h-68c0.666992 10 1.16699 23.833 1.5 41.5l1 55.5l1 57c0.333008 18.667 0.5 34 0.5 46v300z" />
    <glyph glyph-name="g" unicode="g" horiz-adv-x="709" 
d="M650 3c-6 -1.33301 -14.6689 -3.16602 -26.002 -5.49902s-26 -4.83301 -44 -7.5s-39.833 -5 -65.5 -7s-56.167 -3 -91.5 -3c-59.333 0 -112.666 9.33301 -159.999 28s-87.5 44.5 -120.5 77.5s-58.333 72.167 -76 117.5s-26.5 94.666 -26.5 147.999
c0 52 9.16699 100.5 27.5 145.5s44 84 77 117s72.167 59 117.5 78s95 28.5 149 28.5c26.667 0 51 -1.83301 73 -5.5s42 -8.16699 60 -13.5s34 -10.833 48 -16.5l37 -15.5v-74c-9.33301 6 -21.333 12.833 -36 20.5s-31.5 15.167 -50.5 22.5s-39.667 13.5 -62 18.5
s-45.5 7.5 -69.5 7.5c-41.333 0 -80.666 -7.16699 -117.999 -21.5s-70 -34.833 -98 -61.5s-50.333 -59.5 -67 -98.5s-25 -82.833 -25 -131.5c0 -46 7.66699 -88.333 23 -127s37 -72 65 -100s61.667 -49.667 101 -65s83 -23 131 -23c35.333 0 66.5 1.66699 93.5 5
s51.5 7.66602 73.5 12.999v101c0 25.333 -0.5 49 -1.5 71s-1.83301 38.333 -2.5 49h68c-0.666992 -9.33301 -1.5 -25.166 -2.5 -47.499s-1.5 -46.5 -1.5 -72.5v-152z" />
    <glyph glyph-name="h" unicode="h" horiz-adv-x="670" 
d="M546 354h-422.004v-154c0 -12 0.166992 -27.333 0.5 -46l1 -57l1 -55.5c0.333008 -17.667 0.833008 -31.5 1.5 -41.5h-68c0.666992 10 1.16699 23.833 1.5 41.5l1 55.5l1 57c0.333008 18.667 0.5 34 0.5 46v300c0 14 -0.166992 30.333 -0.5 49l-1 56.5
c-0.333008 19 -0.666016 37 -0.999023 54s-0.833008 30.5 -1.5 40.5h68c-0.666992 -10 -1.16699 -23.5 -1.5 -40.5s-0.666016 -35 -0.999023 -54l-1 -56.5c-0.333008 -18.667 -0.5 -35 -0.5 -49v-92h422v92c0 14 -0.166992 30.333 -0.5 49l-1 56.5
c-0.333008 19 -0.666016 37 -0.999023 54s-0.833008 30.5 -1.5 40.5h68c-0.666992 -10 -1.16699 -23.5 -1.5 -40.5s-0.666016 -35 -0.999023 -54l-1 -56.5c-0.333008 -18.667 -0.5 -35 -0.5 -49v-300c0 -12 0.166992 -27.333 0.5 -46l1 -57l1 -55.5
c0.333008 -17.667 0.833008 -31.5 1.5 -41.5h-68c0.666992 10 1.16699 23.833 1.5 41.5l1 55.5l1 57c0.333008 18.667 0.5 34 0.5 46v154z" />
    <glyph glyph-name="i" unicode="i" horiz-adv-x="188" 
d="M64 500c0 14 -0.168945 30.333 -0.501953 49l-1 56.5c-0.333008 19 -0.666016 37 -0.999023 54s-0.833008 30.5 -1.5 40.5h68c-0.666992 -10 -1.16699 -23.5 -1.5 -40.5s-0.666016 -35 -0.999023 -54l-1 -56.5c-0.333008 -18.667 -0.5 -35 -0.5 -49v-300
c0 -12 0.166992 -27.333 0.5 -46l1 -57l1 -55.5c0.333008 -17.667 0.833008 -31.5 1.5 -41.5h-68c0.666992 10 1.16699 23.833 1.5 41.5l1 55.5l1 57c0.333008 18.667 0.5 34 0.5 46v300z" />
    <glyph glyph-name="j" unicode="j" horiz-adv-x="188" 
d="M124 -6c0 -25.333 -2.50195 -46.668 -7.50195 -64.001s-11.833 -32.166 -20.5 -44.499s-19 -22.333 -31 -30s-25.333 -13.834 -40 -18.501l-47 42c10 2.66699 20.167 6 30.5 10s19.5 10 27.5 18s14.667 18.833 20 32.5s8 31.834 8 54.501v506
c0 14 -0.166992 30.333 -0.5 49l-1 56.5c-0.333008 19 -0.666016 37 -0.999023 54s-0.833008 30.5 -1.5 40.5h68c-0.666992 -10 -1.16699 -23.5 -1.5 -40.5s-0.666016 -35 -0.999023 -54l-1 -56.5c-0.333008 -18.667 -0.5 -35 -0.5 -49v-506z" />
    <glyph glyph-name="k" unicode="k" horiz-adv-x="610" 
d="M332 574c34 32 59.833 57.666 77.5 76.999l43.5 49h84l-61.5 -56.5l-72.5 -69.5l-186 -185l143 -144l38 -39l47 -48.5l50 -51.5l46.5 -48l37 -37.5c10.333 -10.333 17.5 -17.166 21.5 -20.499h-88l-29.5 31l-49 52l-57.5 60.5l-54 56.5l-182 189zM64 499.999
c0 14 -0.168945 30.333 -0.501953 49l-1 56.5c-0.333008 19 -0.666016 37 -0.999023 54s-0.833008 30.5 -1.5 40.5h68c-0.666992 -10 -1.16699 -23.5 -1.5 -40.5s-0.666016 -35 -0.999023 -54l-1 -56.5c-0.333008 -18.667 -0.5 -35 -0.5 -49v-300
c0 -12 0.166992 -27.333 0.5 -46l1 -57l1 -55.5c0.333008 -17.667 0.833008 -31.5 1.5 -41.5h-68c0.666992 10 1.16699 23.833 1.5 41.5l1 55.5l1 57c0.333008 18.667 0.5 34 0.5 46v300z" />
    <glyph glyph-name="l" unicode="l" 
d="M64 500c0 12 -0.166992 27.335 -0.5 46.002l-1 57l-1 55.5c-0.333008 17.667 -0.833008 31.5 -1.5 41.5h68c-0.666992 -10 -1.16699 -23.833 -1.5 -41.5l-1 -55.5l-1 -57c-0.333008 -18.667 -0.5 -34 -0.5 -46v-446h50c14 0 32.5 0.166992 55.5 0.5l71 1
c24.333 0.333008 47.166 0.666016 68.499 0.999023s37 0.833008 47 1.5v-62c-10 0.666992 -25.667 1.16699 -47 1.5s-44.166 0.666016 -68.499 0.999023l-71 1c-23 0.333008 -41.5 0.5 -55.5 0.5h-114c0.666992 10 1.16699 23.833 1.5 41.5l1 55.5l1 57
c0.333008 18.667 0.5 34 0.5 46v300z" />
    <glyph glyph-name="m" unicode="m" horiz-adv-x="949" 
d="M470 -16l-262.997 603.004l-66 -387c-7.33301 -41.333 -13.5 -80.333 -18.5 -117s-8.16699 -64.334 -9.5 -83.001h-73c8 28 14.667 57.167 20 87.5l20 112.5l61 345l14 87c4 25.333 7 48 9 68h68c2.66699 -10 6.5 -22.167 11.5 -36.5s10.333 -28.833 16 -43.5l16.5 -42
c5.33301 -13.333 10 -24.333 14 -33l129 -301l22 -52.5c6.66699 -15.667 12.667 -29.167 18 -40.5c6 -13.333 11 -25.333 15 -36l16 38l18.5 41.5l24.5 52.5l141 299c16 34 29.167 63.167 39.5 87.5s18.5 46.5 24.5 66.5h68c0 -6 0.5 -16.5 1.5 -31.5
s2.16699 -30.833 3.5 -47.5s2.66602 -32.334 3.99902 -47.001s2.33301 -24.334 3 -29.001l42 -345c1.33301 -12.667 3.16602 -27.667 5.49902 -45l7 -53.5c2.33301 -18.333 5 -36.333 8 -54s5.83301 -33.5 8.5 -47.5h-71c-0.666992 14 -1.83398 29.833 -3.50098 47.5l-5 54
c-1.66699 18.333 -3.5 36.166 -5.5 53.499s-3.66699 32.333 -5 45l-45 384z" />
    <glyph glyph-name="n" unicode="n" horiz-adv-x="704" 
d="M122 600c0 -26 0.333008 -52.667 1 -80c0 -24 0.166992 -50.833 0.5 -80.5s0.5 -59.5 0.5 -89.5v-150c0 -12 0.166992 -27.333 0.5 -46l1 -57l1 -55.5c0.333008 -17.667 0.833008 -31.5 1.5 -41.5h-68c0.666992 10 1.16699 23.833 1.5 41.5l1 55.5l1 57
c0.333008 18.667 0.5 34 0.5 46v299c0 44 -0.333008 83.5 -1 118.5s-1.66699 62.5 -3 82.5h63l459 -600c-0.666992 21.333 -1 45.333 -1 72c-0.666992 22.667 -1 49 -1 79v98v151c0 12 -0.166992 27.333 -0.5 46l-1 57l-1 55.5c-0.333008 17.667 -0.833008 31.5 -1.5 41.5
h68c-0.666992 -10 -1.16699 -23.833 -1.5 -41.5l-1 -55.5l-1 -57c-0.333008 -18.667 -0.5 -34 -0.5 -46v-299c0 -44 0.333008 -83.5 1 -118.5s1.66699 -62.5 3 -82.5h-63z" />
    <glyph glyph-name="o" unicode="o" horiz-adv-x="795" 
d="M40 350c0 52 9.16797 100.666 27.501 145.999s43.5 84.5 75.5 117.5s69.667 59 113 78s90.333 28.5 141 28.5c52 0 99.833 -9.16699 143.5 -27.5s81.334 -44 113.001 -77s56.5 -72.167 74.5 -117.5s27 -94.666 27 -147.999c0 -52 -9.16699 -100.667 -27.5 -146
s-43.5 -84.5 -75.5 -117.5s-69.833 -59 -113.5 -78s-90.834 -28.5 -141.501 -28.5c-51.333 0 -98.833 9.33301 -142.5 28s-81.334 44.5 -113.001 77.5s-56.5 72 -74.5 117s-27 94.167 -27 147.5zM103.001 349.999c0 -46 7.33203 -88.333 21.999 -127s35 -71.834 61 -99.501
s57 -49.167 93 -64.5s75.333 -23 118 -23c42 0 80.833 7.83301 116.5 23.5s66.834 37.5 93.501 65.5s47.5 61.167 62.5 99.5s22.5 80.166 22.5 125.499c0 46 -7.33301 88.333 -22 127s-35 71.834 -61 99.501s-57.167 49.167 -93.5 64.5s-75.833 23 -118.5 23
c-41.333 0 -80 -7.83301 -116 -23.5s-67.167 -37.5 -93.5 -65.5s-47 -61.167 -62 -99.5s-22.5 -80.166 -22.5 -125.499z" />
    <glyph glyph-name="p" unicode="p" horiz-adv-x="444" 
d="M64 500c0 14 -0.170898 30.333 -0.503906 49l-1 56.5c-0.333008 19 -0.666016 37 -0.999023 54s-0.833008 30.5 -1.5 40.5h144c30 0 57.833 -4.33301 83.5 -13s47.834 -21.167 66.501 -37.5s33.334 -36 44.001 -59s16 -48.5 16 -76.5
c0 -32.667 -5.16699 -61.167 -15.5 -85.5s-24.666 -44.5 -42.999 -60.5s-40.5 -28 -66.5 -36s-55 -12 -87 -12h-78v-120c0 -12 0.166992 -27.333 0.5 -46l1 -57l1 -55.5c0.333008 -17.667 0.833008 -31.5 1.5 -41.5h-68c0.666992 10 1.16699 23.833 1.5 41.5l1 55.5l1 57
c0.333008 18.667 0.5 34 0.5 46v300zM353.996 514c0 45.333 -14.5 78.666 -43.5 99.999s-65.5 32 -109.5 32h-77v-272h78c22.667 0 43.334 2.33301 62.001 7s34.667 12.334 48 23.001s23.666 25 30.999 43s11 40.333 11 67z" />
    <glyph glyph-name="q" unicode="q" horiz-adv-x="795" 
d="M40 350c0 52 9.16602 100.666 27.499 145.999s43.5 84.5 75.5 117.5s69.667 59 113 78s90.333 28.5 141 28.5c52 0 99.833 -9.16699 143.5 -27.5s81.334 -44 113.001 -77s56.5 -72.167 74.5 -117.5s27 -94.666 27 -147.999c0 -68 -15 -129.167 -45 -183.5
s-70 -97.833 -120 -130.5l188 -112l-61 -29l-187 110c-19.333 -8 -40.666 -14.167 -63.999 -18.5s-46.333 -6.5 -69 -6.5c-51.333 0 -98.833 9.33301 -142.5 28s-81.334 44.5 -113.001 77.5s-56.5 72 -74.5 117s-27 94.167 -27 147.5zM102.999 349.999
c0 -46 7.33203 -88.333 21.999 -127s35 -71.834 61 -99.501s57 -49.167 93 -64.5s75.333 -23 118 -23c42 0 80.833 7.83301 116.5 23.5s66.834 37.5 93.501 65.5s47.5 61.167 62.5 99.5s22.5 80.166 22.5 125.499c0 46 -7.33301 88.333 -22 127s-35 71.834 -61 99.501
s-57.167 49.167 -93.5 64.5s-75.833 23 -118.5 23c-41.333 0 -80 -7.83301 -116 -23.5s-67.167 -37.5 -93.5 -65.5s-47 -61.167 -62 -99.5s-22.5 -80.166 -22.5 -125.499z" />
    <glyph glyph-name="r" unicode="r" horiz-adv-x="558" 
d="M64 500c0 14 -0.168945 30.334 -0.501953 49.001l-1 56.5c-0.333008 19 -0.666016 37 -0.999023 54s-0.833008 30.5 -1.5 40.5h147c26.667 0 52.334 -3.83301 77.001 -11.5s46.667 -19.167 66 -34.5s34.833 -34.666 46.5 -57.999s17.5 -50.333 17.5 -81
c0 -24.667 -3.16699 -46.667 -9.5 -66s-14.5 -36.333 -24.5 -51s-21.167 -26.834 -33.5 -36.501s-24.5 -16.834 -36.5 -21.501l97 -140l35 -50.5l39.5 -56.5l37 -53c11.667 -16.667 21.5 -30 29.5 -40h-85c-6 10 -14.333 23.167 -25 39.5l-34 53l-36.5 56.5l-33.5 51
l-79 121h-131v-121c0 -12 0.166992 -27.333 0.5 -46l1 -57l1 -55.5c0.333008 -17.667 0.833008 -31.5 1.5 -41.5h-68c0.666992 10 1.16699 23.833 1.5 41.5l1 55.5l1 57c0.333008 18.667 0.5 34 0.5 46v300zM123.998 646.001v-272.003h84c21.333 0 40.833 2.33301 58.5 7
s33 12.5 46 23.5s23.167 25.333 30.5 43s11 39.834 11 66.501c0 24 -4 44.333 -12 61s-18.833 30.334 -32.5 41.001s-29.667 18.334 -48 23.001s-37.5 7 -57.5 7h-80z" />
    <glyph glyph-name="s" unicode="s" horiz-adv-x="420" 
d="M277 356c14.667 -11.333 28.5029 -23.335 41.5029 -36.002s24.5 -26.5 34.5 -41.5s17.833 -31.5 23.5 -49.5s8.5 -37.333 8.5 -58c0 -32 -4.83301 -59.667 -14.5 -83s-23.334 -42.666 -41.001 -57.999s-38.834 -26.833 -63.501 -34.5s-51.667 -11.5 -81 -11.5
c-30.667 0 -58.334 3.16699 -83.001 9.5s-44.667 12.5 -60 18.5v70l17.5 -10.5c8.33301 -5 18.833 -10 31.5 -15s27 -9.5 43 -13.5s33 -6 51 -6c44 0 78.333 11.167 103 33.5s37 55.5 37 99.5c0 28 -7.66699 53 -23 75s-35 42 -59 60l-98 72
c-32 23.333 -58.333 48.333 -79 75s-31 59 -31 97c0 24 4.16699 46.333 12.5 67s20 38.334 35 53.001s33.167 26.167 54.5 34.5s45 12.5 71 12.5c40 0 72 -4.83301 96 -14.5s41.667 -17.5 53 -23.5v-68c-4.66699 4 -11.834 9 -21.501 15s-21.167 12 -34.5 18
s-27.666 11 -42.999 15s-30.666 6 -45.999 6c-20 0 -37.5 -3.16699 -52.5 -9.5s-27.167 -14.833 -36.5 -25.5s-16.333 -22.834 -21 -36.501s-7 -27.5 -7 -41.5c0 -26.667 8.16699 -49.667 24.5 -69s36.166 -37.666 59.499 -54.999z" />
    <glyph glyph-name="t" unicode="t" horiz-adv-x="604" 
d="M332 648v-448.002c0 -12 0.166992 -27.333 0.5 -46l1 -57l1 -55.5c0.333008 -17.667 0.833008 -31.5 1.5 -41.5h-68c0.666992 10 1.16699 23.833 1.5 41.5l1 55.5l1 57c0.333008 18.667 0.5 34 0.5 46v448h-50c-14 0 -30 -0.166992 -48 -0.5l-54 -1
c-18 -0.333008 -35 -0.666016 -51 -0.999023s-29 -0.833008 -39 -1.5v60c10 -0.666992 23 -1.16699 39 -1.5s33 -0.666016 51 -0.999023l54 -1c18 -0.333008 34 -0.5 48 -0.5h156c12 0 27 0.166992 45 0.5l55.5 1l54.5 1c17.333 0.333008 31 0.833008 41 1.5v-60
c-10 0.666992 -23.667 1.16699 -41 1.5l-54.5 1l-55.5 1c-18 0.333008 -33 0.5 -45 0.5h-46z" />
    <glyph glyph-name="u" unicode="u" horiz-adv-x="678" 
d="M554 500c0 14 -0.168945 30.335 -0.501953 49.002l-1 56.5c-0.333008 19 -0.666016 37 -0.999023 54s-0.833008 30.5 -1.5 40.5h68c-0.666992 -10 -1.16699 -23.5 -1.5 -40.5s-0.666016 -35 -0.999023 -54l-1 -56.5c-0.333008 -18.667 -0.5 -35 -0.5 -49v-300
c0 -12 0.166992 -27.333 0.5 -46l1 -57l1 -55.5c0.333008 -17.667 0.833008 -31.5 1.5 -41.5h-66c0.666992 9.33301 1 21.666 1 36.999s0.333008 31.666 1 48.999c-12 -10 -26.167 -20.833 -42.5 -32.5s-34.833 -22.167 -55.5 -31.5s-43.334 -17.166 -68.001 -23.499
s-51 -9.5 -79 -9.5c-36.667 0 -70.334 6.16699 -101.001 18.5s-57 30.333 -79 54s-39.167 52.667 -51.5 87s-18.5 73.5 -18.5 117.5v234c0 14 -0.166992 30.333 -0.5 49l-1 56.5c-0.333008 19 -0.666016 37 -0.999023 54s-0.833008 30.5 -1.5 40.5h68
c-0.666992 -10 -1.16699 -23.5 -1.5 -40.5s-0.666016 -35 -0.999023 -54l-1 -56.5c-0.333008 -18.667 -0.5 -35 -0.5 -49v-218c0 -41.333 5 -76.833 15 -106.5s23.5 -54.334 40.5 -74.001s37 -34.167 60 -43.5s47.833 -14 74.5 -14c36 0 68.333 4.66699 97 14
s53.167 20 73.5 32s36.833 24 49.5 36s21 20.667 25 26v48v300z" />
    <glyph glyph-name="v" unicode="v" horiz-adv-x="709" 
d="M344 118l186 382c4.66699 10.667 11.5 25.167 20.5 43.5l27.5 57.5l26.5 57c8.33301 18 14.5 32 18.5 42h76c-6 -10 -13.833 -24.333 -23.5 -43l-29.5 -58.5l-28.5 -58c-9 -18.333 -15.833 -31.833 -20.5 -40.5l-259 -515l-234 515l-23 49.5l-26 57l-25 53.5
c-8 16.667 -14.667 30 -20 40h76l16.5 -40l22.5 -53.5l24.5 -56.5l22.5 -50z" />
    <glyph glyph-name="w" unicode="w" horiz-adv-x="1011" 
d="M502 382l60 118l23.5 46l28.5 57.5l27 55.5c8.66699 17.333 15 31 19 41h72l-23.5 -41l-29.5 -54.5l-29.5 -57l-24.5 -47.5l-93 -179l103 -204l196 383l24.5 49l28.5 56.5l26 54c8 17 14 30.5 18 40.5h73c-6 -10 -13.667 -23.833 -23 -41.5l-30 -56l-30.5 -57
l-23.5 -45.5l-264 -513l-135 270l-139 -270l-245 513l-25 50.5l-28 57l-26.5 53c-8.33301 16.333 -15.5 29.5 -21.5 39.5h75c4 -10 9.83301 -23 17.5 -39l24.5 -52l26.5 -56.5l25.5 -52.5l182 -383l104 201l-90 182l-26.5 53l-29 56.5l-27 51.5l-20.5 39h75
c4 -10 9.66699 -22.833 17 -38.5l24.5 -51l27.5 -56.5l27 -54z" />
    <glyph glyph-name="x" unicode="x" horiz-adv-x="667" 
d="M332 307l-87 -107l-43 -53l-45 -56.5l-41 -51.5l-30 -39h-75l34.5 41l45 55l46 57l37.5 47l124 154l-109 146l-37 49.5l-42 57l-40.5 53.5l-31.5 40h80c6.66699 -10 15.667 -22.667 27 -38l36.5 -50l41 -56l41.5 -56l76 -102l82 102l44 56l44.5 56l39.5 50l29 38h79
l-33 -39.5l-43 -52.5l-46.5 -56.5l-41.5 -51.5l-120 -149l112 -151l32.5 -44.5l42 -57l42 -56.5l32.5 -42h-77c-6.66699 10 -16.5 24 -29.5 42l-41 56.5l-42 57l-32.5 44.5z" />
    <glyph glyph-name="y" unicode="y" horiz-adv-x="706" 
d="M189 -150c6.66699 11.333 16.168 28.5 28.501 51.5l36.5 69.5l44 87l-194 442l-38 85l-32 67c-10.667 22 -18.667 38 -24 48h77c3.33301 -10 9.66602 -26 18.999 -48l28 -67l37 -85l166 -376l190 376l42 85l33 67c10.667 22 18 38 22 48h72c-6 -10 -15 -26 -27 -48
l-35 -67l-43 -85l-264 -520c-8.66699 -16 -16.667 -32 -24 -48l-20.5 -42.5l-18.5 -39.5h-75z" />
    <glyph glyph-name="z" unicode="z" horiz-adv-x="675" 
d="M277 646c-14 0 -30 -0.169922 -48 -0.50293l-54 -1c-18 -0.333008 -35 -0.666016 -51 -0.999023s-29 -0.833008 -39 -1.5v62c10 -0.666992 23 -1.16699 39 -1.5s33 -0.666016 51 -0.999023l54 -1c18 -0.333008 34 -0.5 48 -0.5h349l-492 -646h269
c14 0 32.5 0.166992 55.5 0.5s46.667 0.833008 71 1.5s47.166 1.33398 68.499 2.00098s37 1.33398 47 2.00098v-64c-10 0.666992 -25.667 1.16699 -47 1.5s-44.166 0.666016 -68.499 0.999023l-71 1c-23 0.333008 -41.5 0.5 -55.5 0.5h-383l494 646h-237z" />
    <glyph glyph-name="braceleft" unicode="{" horiz-adv-x="308" 
d="M258 -150c-34 0 -60.333 4.66504 -79 13.998s-32.334 22.833 -41.001 40.5s-13.667 39.334 -15 65.001s-2 54.834 -2 87.501v131c0 25.333 -0.333008 46.833 -1 64.5s-3.33398 32.167 -8.00098 43.5s-11.667 19.666 -21 24.999s-23 8 -41 8v41c18 0 31.667 2.66699 41 8
s16.333 13.666 21 24.999s7.33398 26 8.00098 44s1 39.667 1 65v156c0 32 1 59.5 3 82.5s7.5 41.833 16.5 56.5s22.667 25.5 41 32.5s43.833 10.5 76.5 10.5v-49c-19.333 0 -34.166 -2 -44.499 -6s-17.833 -10.5 -22.5 -19.5s-7.5 -21.333 -8.5 -37s-1.5 -35.167 -1.5 -58.5
v-144c0 -31.333 -0.666992 -58.166 -2 -80.499s-4.16602 -40.833 -8.49902 -55.5s-10.666 -26.167 -18.999 -34.5s-19.5 -13.833 -33.5 -16.5c14.667 -2.66699 26.167 -8 34.5 -16s14.666 -19.167 18.999 -33.5s7 -32.666 8 -54.999s1.5 -49.5 1.5 -81.5v-120
c0 -23.333 0.5 -44 1.5 -62s3.83301 -33 8.5 -45s12.167 -21.167 22.5 -27.5s25.166 -9.5 44.499 -9.5v-49v0z" />
    <glyph glyph-name="bar" unicode="|" horiz-adv-x="220" 
d="M80 -138v911h60v-911h-60z" />
    <glyph glyph-name="braceright" unicode="}" horiz-adv-x="308" 
d="M50 -101c18.667 0 33.334 3.16895 44.001 9.50195s18.334 15.5 23.001 27.5s7.5 27 8.5 45s1.5 38.667 1.5 62v120c0 32 0.5 59.167 1.5 81.5s3.66699 40.666 8 54.999s10.666 25.5 18.999 33.5s19.833 13.333 34.5 16c-14 2.66699 -25.167 8.16699 -33.5 16.5
s-14.666 19.833 -18.999 34.5s-7.16602 33.167 -8.49902 55.5s-2 49.166 -2 80.499v144c0 23.333 -0.5 42.833 -1.5 58.5s-3.83301 28 -8.5 37s-12.334 15.5 -23.001 19.5s-25.334 6 -44.001 6v49c32.667 0 58.167 -3.5 76.5 -10.5s32 -17.833 41 -32.5
s14.5 -33.5 16.5 -56.5s3 -50.5 3 -82.5v-156c0 -25.333 0.333008 -47 1 -65s3.33398 -32.667 8.00098 -44s11.667 -19.666 21 -24.999s23 -8 41 -8v-41c-18 0 -31.667 -2.66699 -41 -8s-16.333 -13.666 -21 -24.999s-7.33398 -25.833 -8.00098 -43.5s-1 -39.167 -1 -64.5
v-131c0 -32.667 -0.666992 -61.834 -2 -87.501s-6.33301 -47.334 -15 -65.001s-22.334 -31.167 -41.001 -40.5s-45 -14 -79 -14v49z" />
    <glyph glyph-name="asciitilde" unicode="~" horiz-adv-x="495" 
d="M456 388c-10 -35.333 -23.8359 -60.999 -41.5029 -76.999s-42.167 -24 -73.5 -24c-20.667 0 -38.667 3 -54 9s-29.666 13 -42.999 21l-42 25c-13.333 8 -27.666 12 -42.999 12c-9.33301 0 -17.833 -0.833008 -25.5 -2.5s-14.667 -4.83398 -21 -9.50098
s-12.166 -11.5 -17.499 -20.5s-11 -20.5 -17 -34.5l-39 18c8 22 17 39.5 27 52.5s20.5 23 31.5 30s21.833 11.5 32.5 13.5s20.667 3 30 3c21.333 0 40 -4 56 -12s31.333 -16.667 46 -26c12 -8 24.333 -14.833 37 -20.5s27 -8.5 43 -8.5c9.33301 0 17.5 0.833008 24.5 2.5
s13.167 5 18.5 10s10.333 11.833 15 20.5s9.66699 20 15 34z" />
    <glyph glyph-name="uni00A0" unicode="&#xa0;" horiz-adv-x="280" 
 />
    <glyph glyph-name="exclamdown" unicode="&#xa1;" horiz-adv-x="200" 
d="M129 188c2 -92.667 4 -158.668 6 -198.001h-70c1.33301 19.333 2.33301 45.833 3 79.5s1.66699 73.834 3 120.501l7 341h44zM140 659.999c0 -11.333 -3.83301 -20.833 -11.5 -28.5s-17.167 -11.5 -28.5 -11.5s-20.833 3.83301 -28.5 11.5s-11.5 17.167 -11.5 28.5
s3.83301 20.833 11.5 28.5s17.167 11.5 28.5 11.5s20.833 -3.83301 28.5 -11.5s11.5 -17.167 11.5 -28.5z" />
    <glyph glyph-name="cent" unicode="&#xa2;" horiz-adv-x="547" 
d="M507 98c-6 -3.33301 -14.165 -7.16797 -24.498 -11.501s-22.333 -8.83301 -36 -13.5s-28.834 -8.66699 -45.501 -12s-34 -5.66602 -52 -6.99902v-122h-60v122c-40 4 -76.333 14 -109 30s-60.5 37 -83.5 63s-40.667 56.167 -53 90.5s-18.5 71.5 -18.5 111.5
c0 38.667 6.5 75 19.5 109s31.167 63.833 54.5 89.5s51.166 46.667 83.499 63s67.833 26.5 106.5 30.5v128h60v-127c30 -2 56 -6.5 78 -13.5s40.667 -13.833 56 -20.5l16 -6v-72l-31 17.5c-12.667 7 -26.667 13.5 -42 19.5s-32 11.167 -50 15.5s-36 6.5 -54 6.5
c-32 0 -62.167 -5.5 -90.5 -16.5s-53.333 -26.667 -75 -47s-38.834 -45.333 -51.501 -75s-19 -63.5 -19 -101.5c0 -35.333 5.66699 -67.833 17 -97.5s27.5 -55.167 48.5 -76.5s45.833 -38 74.5 -50s60.667 -18 96 -18c21.333 0 42 2.5 62 7.5s38.333 11 55 18
s30.834 14 42.501 21s20.167 12.5 25.5 16.5v-72z" />
    <glyph glyph-name="sterling" unicode="&#xa3;" horiz-adv-x="474" 
d="M20 0c8 6.66699 18.502 17.6689 31.502 33.002s25.5 33.666 37.5 54.999s22.5 45.5 31.5 72.5s13.5 55.833 13.5 86.5c0 12 -0.666992 24.167 -2 36.5s-3 24.5 -5 36.5h-89v54h78c-5.33301 22.667 -10 45.5 -14 68.5s-6 47.167 -6 72.5c0 34.667 5.33301 65 16 91
s24.5 47.333 41.5 64s36.5 29.167 58.5 37.5s44.667 12.5 68 12.5c35.333 0 64.5 -4 87.5 -12s42.167 -15.333 57.5 -22v-70c-13.333 13.333 -31.333 25.833 -54 37.5s-51.667 17.5 -87 17.5c-16.667 0 -32.5 -3.16699 -47.5 -9.5s-28.333 -15.5 -40 -27.5
s-20.834 -27.167 -27.501 -45.5s-10 -39.5 -10 -63.5c0 -25.333 2.33301 -50.5 7 -75.5s9.66699 -50.167 15 -75.5h137v-54h-127l4 -34.5c1.33301 -11.667 2 -23.167 2 -34.5c0 -19.333 -1.83301 -38.666 -5.5 -57.999s-8.5 -37.833 -14.5 -55.5s-12.667 -33.667 -20 -48
s-14.333 -26.166 -21 -35.499h56c14 0 32.5 0.166992 55.5 0.5l71 1c24.333 0.333008 47.166 0.666016 68.499 0.999023s37 0.833008 47 1.5v-62c-6.66699 0 -18.167 0.166992 -34.5 0.5s-35.333 0.666016 -57 0.999023s-44.667 0.666016 -69 0.999023l-70.5 1
c-22.667 0.333008 -43 0.5 -61 0.5h-41h-81z" />
    <glyph glyph-name="currency" unicode="&#xa4;" horiz-adv-x="745" 
d="M177 266c8 -34.667 20.8291 -66.165 38.4961 -94.498s39.334 -52.5 65.001 -72.5s55 -35.5 88 -46.5s68.833 -16.5 107.5 -16.5c28 0 54.5 3 79.5 9s47.5 13.167 67.5 21.5s37.167 16.666 51.5 24.999s24.5 14.5 30.5 18.5v-76c-7.33301 -4 -18.5 -9 -33.5 -15
s-32.5 -12 -52.5 -18s-42.167 -11 -66.5 -15s-49.833 -6 -76.5 -6c-48.667 0 -93.334 7 -134.001 21s-76.667 33.5 -108 58.5s-57.333 55 -78 90s-35 73.833 -43 116.5h-88l21 54h60c-0.666992 5.33301 -1 10.5 -1 15.5v15.5v14c0 4.66699 0.333008 9.66699 1 15h-81l21 54
h67c8.66699 41.333 23.834 79.5 45.501 114.5s48.167 65.167 79.5 90.5s67.166 45.166 107.499 59.499s83.833 21.5 130.5 21.5c26.667 0 50.834 -1.83301 72.501 -5.5s41.334 -8.16699 59.001 -13.5s33.667 -10.833 48 -16.5l38.5 -15.5v-74
c-9.33301 6 -21.333 12.833 -36 20.5s-31.5 15.167 -50.5 22.5s-39.667 13.5 -62 18.5s-45.5 7.5 -69.5 7.5c-35.333 0 -69.166 -5.16699 -101.499 -15.5s-61.666 -25.333 -87.999 -45s-49 -43.834 -68 -72.501s-32.833 -61 -41.5 -97h456l-21 -54h-443
c-0.666992 -5.33301 -1 -10.166 -1 -14.499v-14.5v-15.5c0 -5 0.333008 -10.167 1 -15.5h420l-21 -54h-391z" />
    <glyph glyph-name="yen" unicode="&#xa5;" horiz-adv-x="556" 
d="M310 126l0.000976562 -29.5c0 -11.667 0.166992 -23.667 0.5 -36s0.666016 -24 0.999023 -35s0.5 -19.5 0.5 -25.5h-67c0 17.333 0.333008 34.333 1 51c0.666992 14 1.16699 28 1.5 42s0.5 25 0.5 33h-122v54h123v60h-123v54h123v55l-132 197l-25 37.5l-29 43l-29 41.5
c-9.33301 13.333 -17.333 24.333 -24 33h76l42 -67c14.667 -24 27.667 -44.333 39 -61l114 -167l112 166c11.333 16.667 24.333 37 39 61l42 67h72c-7.33301 -8.66699 -15.5 -19.667 -24.5 -33l-28.5 -41.5l-29 -43l-25 -37.5l-130 -193v-58h127v-54h-127v-60h127v-54h-126z
" />
    <glyph glyph-name="brokenbar" unicode="&#xa6;" horiz-adv-x="220" 
d="M80 400v400h60v-400h-60zM140 300v-400h-60v400h60z" />
    <glyph glyph-name="section" unicode="&#xa7;" horiz-adv-x="428" 
d="M61 587c0 22 3.83691 42.666 11.5039 61.999s18.5 36 32.5 50s30.667 25 50 33s40.333 12 63 12c10 0 19.167 -0.333008 27.5 -1s17.333 -2.16699 27 -4.5s20.5 -5.66602 32.5 -9.99902s26.333 -9.83301 43 -16.5v-78c-4.66699 4.66699 -10.834 10.5 -18.501 17.5
s-16.834 13.667 -27.501 20s-22.834 11.666 -36.501 15.999s-28.834 6.5 -45.501 6.5c-17.333 0 -32.333 -3 -45 -9s-23 -13.833 -31 -23.5s-14 -20.667 -18 -33s-6 -24.5 -6 -36.5c0 -13.333 3.16699 -26.166 9.5 -38.499s14.666 -24 24.999 -35s22 -21.5 35 -31.5
l39.5 -29c17.333 -12.667 34.833 -26.167 52.5 -40.5s33.667 -30 48 -47s26 -35.333 35 -55s13.5 -40.5 13.5 -62.5c0 -36 -8.5 -65 -25.5 -87s-38.167 -39.333 -63.5 -52c24.667 -19.333 45.5 -41.166 62.5 -65.499s25.5 -52.833 25.5 -85.5
c0 -29.333 -4.5 -54.833 -13.5 -76.5s-21.5 -39.667 -37.5 -54s-35 -25 -57 -32s-46 -10.5 -72 -10.5c-39.333 0 -80 6 -122 18v68c9.33301 -6.66699 24.333 -14.334 45 -23.001s46 -13 76 -13c39.333 0 69.5 10.333 90.5 31s31.5 51.334 31.5 92.001
c0 20.667 -6.66699 39.667 -20 57s-29.833 34.166 -49.5 50.499s-41.167 32.5 -64.5 48.5s-44.833 32.833 -64.5 50.5s-36.167 36.834 -49.5 57.501s-20 44 -20 70c0 34 8.83301 64 26.5 90s41.5 44.667 71.5 56c-23.333 19.333 -43.666 40.666 -60.999 63.999
s-26 50 -26 80zM319.004 252.999c0 16 -3.49805 30.834 -10.498 44.501s-16 26.667 -27 39s-23.5 24.166 -37.5 35.499s-28 22 -42 32c-16 -1.33301 -29.833 -5 -41.5 -11s-21.334 -13.667 -29.001 -23s-13.334 -19.833 -17.001 -31.5s-5.5 -23.834 -5.5 -36.501
c0 -16 3.83301 -30.833 11.5 -44.5s17.667 -26.667 30 -39s26.5 -24.166 42.5 -35.499l49 -34c22 7.33301 40.333 19.5 55 36.5s22 39.5 22 67.5z" />
    <glyph glyph-name="dieresis" unicode="&#xa8;" horiz-adv-x="263" 
d="M30 788c0 11.333 3.5 20.666 10.5 27.999s16.167 11 27.5 11s20.666 -3.66699 27.999 -11s11 -16.666 11 -27.999s-3.66699 -20.5 -11 -27.5s-16.666 -10.5 -27.999 -10.5s-20.5 3.33301 -27.5 10s-10.5 16 -10.5 28zM156 788c0 11.333 3.5 20.666 10.5 27.999
s16.167 11 27.5 11s20.666 -3.66699 27.999 -11s11 -16.666 11 -27.999s-3.66699 -20.5 -11 -27.5s-16.666 -10.5 -27.999 -10.5s-20.5 3.33301 -27.5 10s-10.5 16 -10.5 28z" />
    <glyph glyph-name="copyright" unicode="&#xa9;" horiz-adv-x="801" 
d="M555 158c-5.33301 -3.33301 -13.0039 -7.16699 -23.0039 -11.5s-21.667 -8.5 -35 -12.5s-28.166 -7.5 -44.499 -10.5s-33.166 -4.5 -50.499 -4.5c-36.667 0 -70 6.16699 -100 18.5s-55.5 29.166 -76.5 50.499s-37.167 46.833 -48.5 76.5s-17 61.834 -17 96.501
c0 34 6 65.5 18 94.5s28.833 54.167 50.5 75.5s47.167 38.166 76.5 50.499s61.666 18.5 96.999 18.5c32 0 60.333 -3.33301 85 -10s45.334 -14.667 62.001 -24v-65c-7.33301 4.66699 -16.333 9.83398 -27 15.501s-22.5 11.167 -35.5 16.5s-26.667 9.83301 -41 13.5
s-28.833 5.5 -43.5 5.5c-25.333 0 -49.166 -4.33301 -71.499 -13s-42 -21.167 -59 -37.5s-30.5 -36.333 -40.5 -60s-15 -50.5 -15 -80.5c0 -28.667 4.5 -54.667 13.5 -78s21.667 -43.5 38 -60.5s36 -30.167 59 -39.5s48.167 -14 75.5 -14c17.333 0 34.333 2.16699 51 6.5
s31.834 9.5 45.501 15.5s25.5 11.833 35.5 17.5s17 10.167 21 13.5v-64zM395.996 -11.001c-50.667 0 -98.1689 10.0039 -142.502 30.0039s-83 47.167 -116 81.5s-59.167 74.166 -78.5 119.499s-29 93.333 -29 144c0 51.333 9.5 99.666 28.5 144.999s45 85 78 119
s71.833 60.833 116.5 80.5s92.667 29.5 144 29.5c52 0 100.667 -9.66699 146 -29s84.833 -45.833 118.5 -79.5s60.334 -73.167 80.001 -118.5s29.5 -94.333 29.5 -147s-10 -101.834 -30 -147.501s-47 -85.334 -81 -119.001s-73.667 -60.167 -119 -79.5
s-93.666 -29 -144.999 -29zM402.994 38.0029c44 0 85.332 8.66699 123.999 26s72.5 41 101.5 71s51.833 64.667 68.5 104s25 81 25 125c0 45.333 -8.5 87.833 -25.5 127.5s-40.333 74.167 -70 103.5s-64.167 52.5 -103.5 69.5s-81.333 25.5 -126 25.5
c-43.333 0 -84.166 -8.66699 -122.499 -26s-72 -41 -101 -71s-52 -64.667 -69 -104s-25.5 -81 -25.5 -125c0 -45.333 8.5 -87.833 25.5 -127.5s40.333 -74.167 70 -103.5s64.167 -52.5 103.5 -69.5s81 -25.5 125 -25.5z" />
    <glyph glyph-name="ordfeminine" unicode="&#xaa;" horiz-adv-x="464" 
d="M325 400l-189.001 0.000976562l-21 -47l-12.5 -27c-4.33301 -9.33301 -8.5 -19.666 -12.5 -30.999h-60l14 25l18 33.5l17 33c5.33301 10.333 9 17.833 11 22.5l142 296l141 -296l14 -27.5l16.5 -32l16.5 -31c5.33301 -9.66699 10 -17.5 14 -23.5h-65
c-5.33301 15.333 -10.166 27.666 -14.499 36.999s-7.5 16.666 -9.5 21.999zM152.999 437.001h156c-13.333 30 -26.333 57.833 -39 83.5s-25.667 53.5 -39 83.5zM29.999 200.001v43h404v-43h-404z" />
    <glyph glyph-name="uni00AB" unicode="&#xab;" horiz-adv-x="358" 
d="M166 178l-136 172l136 171l16 -10l-86 -161l86 -162zM312 178l-136 172l136 171l16 -10l-86 -161l86 -162z" />
    <glyph glyph-name="logicalnot" unicode="&#xac;" horiz-adv-x="495" 
d="M405 177v150h-365v51h415v-201h-50z" />
    <glyph glyph-name="uni00AD" unicode="&#xad;" horiz-adv-x="317" 
d="M38 324v54h239v-54h-239z" />
    <glyph glyph-name="registered" unicode="&#xae;" horiz-adv-x="801" 
d="M266 473l0.000976562 31.999c0 12.667 -0.166992 25.334 -0.5 38.001s-0.666016 24.667 -0.999023 36s-0.833008 20 -1.5 26h104c18 0 35 -2.5 51 -7.5s30.333 -12.5 43 -22.5s22.667 -22.667 30 -38s11 -33.333 11 -54c0 -30 -6.5 -54.5 -19.5 -73.5
s-27.5 -32.5 -43.5 -40.5l29.5 -42.5l28.5 -41.5l62 -90c14.667 -20.667 26 -36 34 -46h-70l-16 26l-22 34l-24.5 36.5l-22.5 33.5l-49 75h-71v-72v-30.5c0 -12.333 0.166992 -25 0.5 -38s0.666016 -25.333 0.999023 -37s0.833008 -20.834 1.5 -27.501h-58
c0.666992 6.66699 1.16699 15.834 1.5 27.501s0.666016 24 0.999023 37s0.5 25.667 0.5 38v30.5v191zM318.001 564.999v-169h47c25.333 0 45.833 6.5 61.5 19.5s23.5 35.5 23.5 67.5c0 28.667 -8.33301 49.5 -25 62.5s-36.667 19.5 -60 19.5h-47zM396.001 -11.001
c-50.667 0 -98.1689 10.0039 -142.502 30.0039s-83 47.167 -116 81.5s-59.167 74.166 -78.5 119.499s-29 93.333 -29 144c0 51.333 9.5 99.666 28.5 144.999s45 85 78 119s71.833 60.833 116.5 80.5s92.667 29.5 144 29.5c52 0 100.667 -9.66699 146 -29
s84.833 -45.833 118.5 -79.5s60.334 -73.167 80.001 -118.5s29.5 -94.333 29.5 -147s-10 -101.834 -30 -147.501s-47 -85.334 -81 -119.001s-73.667 -60.167 -119 -79.5s-93.666 -29 -144.999 -29zM402.999 38.0029c44 0 85.332 8.66699 123.999 26s72.5 41 101.5 71
s51.833 64.667 68.5 104s25 81 25 125c0 45.333 -8.5 87.833 -25.5 127.5s-40.333 74.167 -70 103.5s-64.167 52.5 -103.5 69.5s-81.333 25.5 -126 25.5c-43.333 0 -84.166 -8.66699 -122.499 -26s-72 -41 -101 -71s-52 -64.667 -69 -104s-25.5 -81 -25.5 -125
c0 -45.333 8.5 -87.833 25.5 -127.5s40.333 -74.167 70 -103.5s64.167 -52.5 103.5 -69.5s81 -25.5 125 -25.5z" />
    <glyph glyph-name="macron" unicode="&#xaf;" horiz-adv-x="272" 
d="M30 816h212v-56h-212v56z" />
    <glyph glyph-name="degree" unicode="&#xb0;" horiz-adv-x="360" 
d="M330 575c0 -20.667 -4 -40.167 -12 -58.5s-18.833 -34.166 -32.5 -47.499s-29.5 -24 -47.5 -32s-37.333 -12 -58 -12s-40.167 4 -58.5 12s-34.166 18.667 -47.499 32s-24 29.166 -32 47.499s-12 37.833 -12 58.5s4 40 12 58s18.667 33.833 32 47.5
s29.166 24.5 47.499 32.5s37.833 12 58.5 12s40 -4 58 -12s33.833 -18.833 47.5 -32.5s24.5 -29.5 32.5 -47.5s12 -37.333 12 -58zM82 575c0 -28 9.33301 -51.333 28 -70s42 -28 70 -28c27.333 0 50.5 9.33301 69.5 28s28.5 42 28.5 70c0 27.333 -9.5 50.5 -28.5 69.5
s-42.5 28.5 -70.5 28.5c-27.333 0 -50.333 -9.5 -69 -28.5s-28 -42.167 -28 -69.5z" />
    <glyph glyph-name="plusminus" unicode="&#xb1;" horiz-adv-x="495" 
d="M274 492h181v-50h-181v-183h-53v183h-181v50h181v183h53v-183zM40 144v50h415v-50h-415z" />
    <glyph glyph-name="twosuperior" unicode="&#xb2;" horiz-adv-x="302" 
d="M23 290c58.667 71.333 105.002 131.834 139.002 181.501s51 91.834 51 126.501c0 25.333 -6.33301 43 -19 53s-27.334 15 -44.001 15c-18.667 0 -35.834 -2.83301 -51.501 -8.5s-28.167 -11.167 -37.5 -16.5v49c11.333 5.33301 23.833 10 37.5 14s31.167 6 52.5 6
c34 0 61 -9.33301 81 -28s30 -46.667 30 -84c0 -18.667 -3.83301 -38.334 -11.5 -59.001s-18.334 -42.167 -32.001 -64.5s-29.5 -45.333 -47.5 -69l-57 -73.5h37.5c15.667 0 31.5 0.166992 47.5 0.5s30.833 0.666016 44.5 0.999023s23.167 0.5 28.5 0.5v-45
c-6 0 -17.667 0.166992 -35 0.5s-37.666 0.5 -60.999 0.5h-75.5h-77.5z" />
    <glyph glyph-name="threesuperior" unicode="&#xb3;" horiz-adv-x="284" 
d="M255 404c0 -21.333 -3.83105 -39.833 -11.498 -55.5s-17.834 -28.667 -30.501 -39s-26.667 -18 -42 -23s-30.333 -7.5 -45 -7.5c-23.333 0 -41.666 1.66699 -54.999 5s-27 7.66602 -41 12.999v59c2.66699 -2 7.16699 -5 13.5 -9s13.666 -7.66699 21.999 -11
s17.5 -6.33301 27.5 -9s20.667 -4 32 -4c22.667 0 41.834 7.16699 57.501 21.5s23.5 33.166 23.5 56.499c0 18.667 -3.83301 34 -11.5 46s-17.167 21.5 -28.5 28.5s-23.666 11.833 -36.999 14.5s-25.666 4 -36.999 4v35c24 0 45.333 7.33301 64 22s28 34 28 58
c0 19.333 -5.5 33.833 -16.5 43.5s-23.833 14.5 -38.5 14.5c-8.66699 0 -17.334 -1.83301 -26.001 -5.5s-16.834 -8 -24.501 -13s-14.334 -10.5 -20.001 -16.5s-10.167 -11 -13.5 -15v61c14.667 11.333 29.667 19.666 45 24.999s30 8 44 8
c9.33301 0 19.666 -1.83301 30.999 -5.5s22 -9.5 32 -17.5s18.5 -18.333 25.5 -31s10.5 -28 10.5 -46c0 -22.667 -5.33301 -41.834 -16 -57.501s-23.667 -28.167 -39 -37.5c9.33301 -3.33301 18.5 -8.16602 27.5 -14.499s17.167 -14.166 24.5 -23.499
s13.333 -20.166 18 -32.499s7 -26.166 7 -41.499z" />
    <glyph glyph-name="acute" unicode="&#xb4;" horiz-adv-x="249" 
d="M219 850l-129 -100h-60l101 100h88z" />
    <glyph glyph-name="uni00B5" unicode="&#xb5;" horiz-adv-x="949" 
d="M470 -16l-262.997 603.004l-66 -387c-7.33301 -41.333 -13.5 -80.333 -18.5 -117s-8.16699 -64.334 -9.5 -83.001h-73c8 28 14.667 57.167 20 87.5l20 112.5l61 345l14 87c4 25.333 7 48 9 68h68c2.66699 -10 6.5 -22.167 11.5 -36.5s10.333 -28.833 16 -43.5l16.5 -42
c5.33301 -13.333 10 -24.333 14 -33l129 -301l22 -52.5c6.66699 -15.667 12.667 -29.167 18 -40.5c6 -13.333 11 -25.333 15 -36l16 38l18.5 41.5l24.5 52.5l141 299c16 34 29.167 63.167 39.5 87.5s18.5 46.5 24.5 66.5h68c0 -6 0.5 -16.5 1.5 -31.5
s2.16699 -30.833 3.5 -47.5s2.66602 -32.334 3.99902 -47.001s2.33301 -24.334 3 -29.001l42 -345c1.33301 -12.667 3.16602 -27.667 5.49902 -45l7 -53.5c2.33301 -18.333 5 -36.333 8 -54s5.83301 -33.5 8.5 -47.5h-71c-0.666992 14 -1.83398 29.833 -3.50098 47.5l-5 54
c-1.66699 18.333 -3.5 36.166 -5.5 53.499s-3.66699 32.333 -5 45l-45 384z" />
    <glyph glyph-name="paragraph" unicode="&#xb6;" horiz-adv-x="482" 
d="M418 65c0 -12 0.166016 -27.332 0.499023 -45.999l1 -57l1 -55.5c0.333008 -17.667 0.833008 -31.5 1.5 -41.5h-68c0.666992 10 1.16699 23.833 1.5 41.5l1 55.5l1 57c0.333008 18.667 0.5 34 0.5 46v581h-119v-581c0 -12 0.166992 -27.333 0.5 -46l1 -57l1 -55.5
c0.333008 -17.667 0.833008 -31.5 1.5 -41.5h-68c0.666992 10 1.16699 23.833 1.5 41.5l1 55.5l1 57c0.333008 18.667 0.5 34 0.5 46v258c-17.333 2 -34.666 7 -51.999 15s-32.833 19.667 -46.5 35s-24.667 34.5 -33 57.5s-12.5 51.167 -12.5 84.5
c0 58.667 19 104.167 57 136.5s92.667 48.5 164 48.5h164c-0.666992 -12.667 -1 -25.334 -1 -38.001c-0.666992 -11.333 -1 -23.333 -1 -36v-36v-525z" />
    <glyph glyph-name="periodcentered" unicode="&#xb7;" horiz-adv-x="219" 
d="M159 385c0 -14 -4.83301 -25.667 -14.5 -35s-21.167 -14 -34.5 -14s-25 4.66699 -35 14s-15 21 -15 35c0 13.333 4.83301 24.833 14.5 34.5s21.5 14.5 35.5 14.5c13.333 0 24.833 -4.83301 34.5 -14.5s14.5 -21.167 14.5 -34.5z" />
    <glyph glyph-name="cedilla" unicode="&#xb8;" horiz-adv-x="201" 
d="M41 -37c6 2.66699 13.1689 4.50098 21.502 5.50098s16.166 1.5 23.499 1.5c22 0 41.667 -6 59 -18s26 -31 26 -57c0 -22.667 -8.83301 -40.5 -26.5 -53.5s-38.5 -19.5 -62.5 -19.5c-13.333 0 -24.333 1.16699 -33 3.5s-15 4.16602 -19 5.49902v40
c12 -10 28.667 -15 50 -15c13.333 0 24.5 3.5 33.5 10.5s13.5 16.833 13.5 29.5c0 13.333 -5 23.5 -15 30.5s-23 10.5 -39 10.5c-12.667 0 -23.334 -2 -32.001 -6v32z" />
    <glyph glyph-name="onesuperior" unicode="&#xb9;" horiz-adv-x="173" 
d="M143 716c0 -5.33301 -0.166992 -13.499 -0.5 -24.499s-0.666016 -22.833 -0.999023 -35.5s-0.5 -25.167 -0.5 -37.5v-30.5v-169c0 -7.33301 0.166992 -16.5 0.5 -27.5l1 -34.5c0.333008 -12 0.666016 -23.167 0.999023 -33.5s0.5 -18.5 0.5 -24.5h-54
c0.666992 8 1.33398 17.5 2.00098 28.5s1.16699 22.167 1.5 33.5s0.5 22.166 0.5 32.499v25.5v207l-31 -32l-33 34c11.333 8.66699 26.166 21.167 44.499 37.5l58.5 54.5z" />
    <glyph glyph-name="ordmasculine" unicode="&#xba;" horiz-adv-x="456" 
d="M30 500c0 28.667 5 55.501 15 80.501s24 46.833 42 65.5s39 33.167 63 43.5s50 15.5 78 15.5c28.667 0 55 -5.16699 79 -15.5s44.833 -24.5 62.5 -42.5s31.5 -39.5 41.5 -64.5s15 -52.5 15 -82.5c0 -28.667 -5.16699 -55.5 -15.5 -80.5s-24.333 -46.667 -42 -65
s-38.5 -32.833 -62.5 -43.5s-50 -16 -78 -16c-28.667 0 -55 5.16699 -79 15.5s-44.833 24.666 -62.5 42.999s-31.5 40 -41.5 65s-15 52.167 -15 81.5zM78 500.001c0 -24 3.66699 -45.833 11 -65.5s17.666 -36.5 30.999 -50.5s29.166 -25 47.499 -33s38.5 -12 60.5 -12
c21.333 0 41.166 4 59.499 12s34.166 19.167 47.499 33.5s23.833 31.333 31.5 51s11.5 41.167 11.5 64.5c0 24 -3.66699 46 -11 66s-17.666 37 -30.999 51s-29.166 25 -47.499 33s-38.5 12 -60.5 12c-21.333 0 -41.166 -4 -59.499 -12s-34.166 -19.167 -47.499 -33.5
s-23.833 -31.5 -31.5 -51.5s-11.5 -41.667 -11.5 -65zM30 190.001v43h396v-43h-396z" />
    <glyph glyph-name="uni00BB" unicode="&#xbb;" horiz-adv-x="358" 
d="M176 188l86 162l-86 161l16 10l136 -171l-136 -172zM30 188l86 162l-86 161l16 10l136 -171l-136 -172z" />
    <glyph glyph-name="onequarter" unicode="&#xbc;" horiz-adv-x="638" 
d="M143 716c0 -5.33301 -0.166992 -13.499 -0.5 -24.499s-0.666016 -22.833 -0.999023 -35.5s-0.5 -25.167 -0.5 -37.5v-30.5v-169c0 -7.33301 0.166992 -16.5 0.5 -27.5l1 -34.5c0.333008 -12 0.666016 -23.167 0.999023 -33.5s0.5 -18.5 0.5 -24.5h-54
c0.666992 8 1.33398 17.5 2.00098 28.5s1.16699 22.167 1.5 33.5s0.5 22.166 0.5 32.499v25.5v207l-31 -32l-33 34c11.333 8.66699 26.166 21.167 44.499 37.5l58.5 54.5zM108 -9.99902h-52l438 720h53zM501 309.001l-120 -162h120v162zM608 104.001
c-5.33301 0.666992 -11.499 1.16797 -18.499 1.50098s-13.5 0.5 -19.5 0.5h-22v-26c0 -10 0.166992 -20 0.5 -30s0.666016 -19.5 0.999023 -28.5s0.5 -16.167 0.5 -21.5h-51c0 5.33301 0.166992 12.666 0.5 21.999l1 29c0.333008 10 0.5 20 0.5 30v25h-202l249 338v-297
c9.33301 0 18.833 0.166992 28.5 0.5s20.167 0.833008 31.5 1.5v-45z" />
    <glyph glyph-name="onehalf" unicode="&#xbd;" horiz-adv-x="699" 
d="M143 716c0 -5.33301 -0.166992 -13.499 -0.5 -24.499s-0.666016 -22.833 -0.999023 -35.5s-0.5 -25.167 -0.5 -37.5v-30.5v-169c0 -7.33301 0.166992 -16.5 0.5 -27.5l1 -34.5c0.333008 -12 0.666016 -23.167 0.999023 -33.5s0.5 -18.5 0.5 -24.5h-54
c0.666992 8 1.33398 17.5 2.00098 28.5s1.16699 22.167 1.5 33.5s0.5 22.166 0.5 32.499v25.5v207l-31 -32l-33 34c11.333 8.66699 26.166 21.167 44.499 37.5l58.5 54.5zM108 -9.99902h-52l438 720h53zM420 0.000976562c58.667 71.333 105.002 131.834 139.002 181.501
s51 91.834 51 126.501c0 25.333 -6.33301 43 -19 53s-27.334 15 -44.001 15c-18.667 0 -35.834 -2.83301 -51.501 -8.5s-28.167 -11.167 -37.5 -16.5v49c11.333 5.33301 23.833 10 37.5 14s31.167 6 52.5 6c34 0 61 -9.33301 81 -28s30 -46.667 30 -84
c0 -18.667 -3.83301 -38.334 -11.5 -59.001s-18.334 -42.167 -32.001 -64.5s-29.5 -45.333 -47.5 -69l-57 -73.5h37.5c15.667 0 31.5 0.166992 47.5 0.5s30.833 0.666016 44.5 0.999023s23.167 0.5 28.5 0.5v-45c-6 0 -17.667 0.166992 -35 0.5s-37.666 0.5 -60.999 0.5
h-75.5h-77.5z" />
    <glyph glyph-name="threequarters" unicode="&#xbe;" horiz-adv-x="707" 
d="M255 404c0 -21.333 -3.83105 -39.833 -11.498 -55.5s-17.834 -28.667 -30.501 -39s-26.667 -18 -42 -23s-30.333 -7.5 -45 -7.5c-23.333 0 -41.666 1.66699 -54.999 5s-27 7.66602 -41 12.999v59c2.66699 -2 7.16699 -5 13.5 -9s13.666 -7.66699 21.999 -11
s17.5 -6.33301 27.5 -9s20.667 -4 32 -4c22.667 0 41.834 7.16699 57.501 21.5s23.5 33.166 23.5 56.499c0 18.667 -3.83301 34 -11.5 46s-17.167 21.5 -28.5 28.5s-23.666 11.833 -36.999 14.5s-25.666 4 -36.999 4v35c24 0 45.333 7.33301 64 22s28 34 28 58
c0 19.333 -5.5 33.833 -16.5 43.5s-23.833 14.5 -38.5 14.5c-8.66699 0 -17.334 -1.83301 -26.001 -5.5s-16.834 -8 -24.501 -13s-14.334 -10.5 -20.001 -16.5s-10.167 -11 -13.5 -15v61c14.667 11.333 29.667 19.666 45 24.999s30 8 44 8
c9.33301 0 19.666 -1.83301 30.999 -5.5s22 -9.5 32 -17.5s18.5 -18.333 25.5 -31s10.5 -28 10.5 -46c0 -22.667 -5.33301 -41.834 -16 -57.501s-23.667 -28.167 -39 -37.5c9.33301 -3.33301 18.5 -8.16602 27.5 -14.499s17.167 -14.166 24.5 -23.499
s13.333 -20.166 18 -32.499s7 -26.166 7 -41.499zM178.002 -10h-52l438 720h53zM570.002 309l-120 -162h120v162zM677.002 104c-5.33301 0.666992 -11.499 1.16797 -18.499 1.50098s-13.5 0.5 -19.5 0.5h-22v-26c0 -10 0.166992 -20 0.5 -30s0.666016 -19.5 0.999023 -28.5
s0.5 -16.167 0.5 -21.5h-51c0 5.33301 0.166992 12.666 0.5 21.999l1 29c0.333008 10 0.5 20 0.5 30v25h-202l249 338v-297c9.33301 0 18.833 0.166992 28.5 0.5s20.167 0.833008 31.5 1.5v-45z" />
    <glyph glyph-name="questiondown" unicode="&#xbf;" horiz-adv-x="400" 
d="M30 145c0 28.667 5.66602 52.5 16.999 71.5s25.5 35 42.5 48s35.5 24.333 55.5 34s38.5 19.834 55.5 30.501s31.167 22.834 42.5 36.501s17 31.167 17 52.5c0 26 -5.16699 47 -15.5 63s-20.166 26.667 -29.499 32l20 26c18 -10.667 35 -27 51 -49s24 -50 24 -84
c0 -24.667 -5.5 -45.334 -16.5 -62.001s-24.5 -31.167 -40.5 -43.5s-33.667 -23.333 -53 -33s-37 -20 -53 -31s-29.5 -23.333 -40.5 -37s-16.5 -30.5 -16.5 -50.5c0 -30.667 10.333 -55.5 31 -74.5s49 -28.5 85 -28.5c19.333 0 36.833 1.5 52.5 4.5s29.5 6.5 41.5 10.5
s22.167 8.16699 30.5 12.5s14.833 7.83301 19.5 10.5v-64c-14.667 -6.66699 -34.667 -13.334 -60 -20.001s-53.333 -10 -84 -10c-26.667 0 -50.834 3.83301 -72.501 11.5s-40.167 18.5 -55.5 32.5s-27.166 30.5 -35.499 49.5s-12.5 39.5 -12.5 61.5zM260.999 680
c0 -11.333 -3.83301 -20.833 -11.5 -28.5s-17.167 -11.5 -28.5 -11.5s-20.833 3.83301 -28.5 11.5s-11.5 17.167 -11.5 28.5s3.83301 20.833 11.5 28.5s17.167 11.5 28.5 11.5s20.833 -3.83301 28.5 -11.5s11.5 -17.167 11.5 -28.5z" />
    <glyph glyph-name="Agrave" unicode="&#xc0;" horiz-adv-x="727" 
d="M547 194l-369.001 0.000976562l-42 -93l-11.5 -26l-8.5 -19.5l-9.5 -22l-14.5 -33.5h-82c5.33301 8.66699 12.833 22.167 22.5 40.5l30 58.5l29.5 58.5c9.33301 18.333 16 32.166 20 41.499l253 526l250 -525l25 -51.5l30 -60.5l28 -54.5
c8.66699 -16.333 15 -27.5 19 -33.5h-87c-7.33301 20 -14.666 38.833 -21.999 56.5l-21 49.5zM201.999 246.001h322l-161 349zM296.999 850.001l101 -100h-60l-129 100h88z" />
    <glyph glyph-name="Aacute" unicode="&#xc1;" horiz-adv-x="727" 
d="M547 194l-369.001 0.000976562l-42 -93l-11.5 -26l-8.5 -19.5l-9.5 -22l-14.5 -33.5h-82c5.33301 8.66699 12.833 22.167 22.5 40.5l30 58.5l29.5 58.5c9.33301 18.333 16 32.166 20 41.499l253 526l250 -525l25 -51.5l30 -60.5l28 -54.5
c8.66699 -16.333 15 -27.5 19 -33.5h-87c-7.33301 20 -14.666 38.833 -21.999 56.5l-21 49.5zM201.999 246.001h322l-161 349zM517.999 850.001l-129 -100h-60l101 100h88z" />
    <glyph glyph-name="Acircumflex" unicode="&#xc2;" horiz-adv-x="727" 
d="M547 194l-369.001 0.000976562l-42 -93l-11.5 -26l-8.5 -19.5l-9.5 -22l-14.5 -33.5h-82c5.33301 8.66699 12.833 22.167 22.5 40.5l30 58.5l29.5 58.5c9.33301 18.333 16 32.166 20 41.499l253 526l250 -525l25 -51.5l30 -60.5l28 -54.5
c8.66699 -16.333 15 -27.5 19 -33.5h-87c-7.33301 20 -14.666 38.833 -21.999 56.5l-21 49.5zM201.999 246.001h322l-161 349zM397.999 850.001l90 -100h-60l-65 59l-64 -59h-60l89 100h70z" />
    <glyph glyph-name="Atilde" unicode="&#xc3;" horiz-adv-x="727" 
d="M547 194l-369.001 0.000976562l-42 -93l-11.5 -26l-8.5 -19.5l-9.5 -22l-14.5 -33.5h-82c5.33301 8.66699 12.833 22.167 22.5 40.5l30 58.5l29.5 58.5c9.33301 18.333 16 32.166 20 41.499l253 526l250 -525l25 -51.5l30 -60.5l28 -54.5
c8.66699 -16.333 15 -27.5 19 -33.5h-87c-7.33301 20 -14.666 38.833 -21.999 56.5l-21 49.5zM201.999 246.001h322l-161 349zM315.999 827.001c8.66699 0 17.333 -1.5 26 -4.5s17.167 -6.16699 25.5 -9.5l23.5 -9.5c7.33301 -3 13.666 -4.5 18.999 -4.5
c7.33301 0 13.5 1.66699 18.5 5s7.5 11 7.5 23h37c0 -28.667 -6 -48.667 -18 -60s-26.667 -17 -44 -17c-8 0 -16.333 1.5 -25 4.5s-17.167 6.33301 -25.5 10l-23 10c-7 3 -13.167 4.5 -18.5 4.5c-8 0 -14.667 -2.5 -20 -7.5s-8 -12.167 -8 -21.5h-38
c0 26.667 6.83301 46.167 20.5 58.5s27.834 18.5 42.501 18.5z" />
    <glyph glyph-name="Adieresis" unicode="&#xc4;" horiz-adv-x="727" 
d="M547 194l-369.001 0.000976562l-42 -93l-11.5 -26l-8.5 -19.5l-9.5 -22l-14.5 -33.5h-82c5.33301 8.66699 12.833 22.167 22.5 40.5l30 58.5l29.5 58.5c9.33301 18.333 16 32.166 20 41.499l253 526l250 -525l25 -51.5l30 -60.5l28 -54.5
c8.66699 -16.333 15 -27.5 19 -33.5h-87c-7.33301 20 -14.666 38.833 -21.999 56.5l-21 49.5zM201.999 246.001h322l-161 349zM261.999 788.001c0 11.333 3.5 20.666 10.5 27.999s16.167 11 27.5 11s20.666 -3.66699 27.999 -11s11 -16.666 11 -27.999
s-3.66699 -20.5 -11 -27.5s-16.666 -10.5 -27.999 -10.5s-20.5 3.33301 -27.5 10s-10.5 16 -10.5 28zM387.999 788.001c0 11.333 3.5 20.666 10.5 27.999s16.167 11 27.5 11s20.666 -3.66699 27.999 -11s11 -16.666 11 -27.999s-3.66699 -20.5 -11 -27.5
s-16.666 -10.5 -27.999 -10.5s-20.5 3.33301 -27.5 10s-10.5 16 -10.5 28z" />
    <glyph glyph-name="Aring" unicode="&#xc5;" horiz-adv-x="727" 
d="M292 798c0 20.667 7 37.667 21 51s31.333 20 52 20s38.167 -6.5 52.5 -19.5s21.5 -30.167 21.5 -51.5c0 -20.667 -7.16699 -37.667 -21.5 -51s-31.833 -20 -52.5 -20s-38 6.5 -52 19.5s-21 30.167 -21 51.5zM324 798c0 -11.333 4 -21 12 -29s17.667 -12 29 -12
s21.166 4 29.499 12s12.5 17.667 12.5 29s-4.16699 20.833 -12.5 28.5s-18.166 11.5 -29.499 11.5s-21 -3.83301 -29 -11.5s-12 -17.167 -12 -28.5zM547 194l-369.001 0.000976562l-42 -93l-11.5 -26l-8.5 -19.5l-9.5 -22l-14.5 -33.5h-82
c5.33301 8.66699 12.833 22.167 22.5 40.5l30 58.5l29.5 58.5c9.33301 18.333 16 32.166 20 41.499l253 526l250 -525l25 -51.5l30 -60.5l28 -54.5c8.66699 -16.333 15 -27.5 19 -33.5h-87c-7.33301 20 -14.666 38.833 -21.999 56.5l-21 49.5zM201.999 246.001h322l-161 349
z" />
    <glyph glyph-name="AE" unicode="&#xc6;" horiz-adv-x="861" 
d="M475 0c0.666992 9.33301 1.16895 22.3369 1.50195 39.0039s0.666016 34.334 0.999023 53.001l1 55.5c0.333008 18.333 0.5 33.833 0.5 46.5h-268l-59 -93l-17.5 -28c-5 -8 -9.66699 -15.833 -14 -23.5l-13.5 -23l-16 -26.5h-81l29.5 41.5l38.5 56l38.5 57l29.5 44.5
l329 501h47h88.5c25 0 46.833 0.166992 65.5 0.5s34.667 0.833008 48 1.5s24.666 1.33398 33.999 2.00098v-62c-18.667 1.33301 -45.334 2.33301 -80.001 3s-81 1 -139 1v-253c32.667 0 60.334 0.166992 83.001 0.5s42 0.666016 58 0.999023s29.5 0.666016 40.5 0.999023
s21.5 0.833008 31.5 1.5v-62c-10 0.666992 -20.333 1.16699 -31 1.5s-23.667 0.666016 -39 0.999023s-34.5 0.666016 -57.5 0.999023s-51.5 0.5 -85.5 0.5v-285h120c14 0 28.833 0.166992 44.5 0.5l47 1c15.667 0.333008 30.5 0.666016 44.5 0.999023s26 0.833008 36 1.5
v-62c-10 0.666992 -22 1.16699 -36 1.5s-28.833 0.666016 -44.5 0.999023l-47 1c-15.667 0.333008 -30.5 0.5 -44.5 0.5h-184zM479.002 535.004c0 2 -0.166992 10.168 -0.5 24.501s-0.833008 29.166 -1.5 44.499l-233 -358h235v289z" />
    <glyph glyph-name="Ccedilla" unicode="&#xc7;" horiz-adv-x="690" 
d="M640 34c-7.33301 -4 -18.5029 -8.99805 -33.5029 -14.998s-32.5 -12 -52.5 -18s-42.167 -11 -66.5 -15s-49.833 -6 -76.5 -6c-56 0 -106.833 9.33301 -152.5 28s-84.667 44.5 -117 77.5s-57.333 72.167 -75 117.5s-26.5 94.666 -26.5 147.999
c0 52 9.16699 100.5 27.5 145.5s44 84 77 117s72.167 59 117.5 78s95 28.5 149 28.5c26.667 0 50.834 -1.83301 72.501 -5.5s41.334 -8.16699 59.001 -13.5s33.667 -10.833 48 -16.5l38.5 -15.5v-74c-9.33301 6 -21.333 12.833 -36 20.5s-31.5 15.167 -50.5 22.5
s-39.667 13.5 -62 18.5s-45.5 7.5 -69.5 7.5c-41.333 0 -80.666 -7.16699 -117.999 -21.5s-70 -34.833 -98 -61.5s-50.333 -59.5 -67 -98.5s-25 -82.833 -25 -131.5c0 -46 7.33301 -88.333 22 -127s35.5 -72 62.5 -100s59.5 -49.667 97.5 -65s80 -23 126 -23
c28 0 54.5 3 79.5 9s47.5 13.167 67.5 21.5s37.167 16.666 51.5 24.999s24.5 14.5 30.5 18.5v-76zM343.997 -57.998c6 2.66699 13.1689 4.50098 21.502 5.50098s16.166 1.5 23.499 1.5c22 0 41.667 -6 59 -18s26 -31 26 -57c0 -22.667 -8.83301 -40.5 -26.5 -53.5
s-38.5 -19.5 -62.5 -19.5c-13.333 0 -24.333 1.16699 -33 3.5s-15 4.16602 -19 5.49902v40c12 -10 28.667 -15 50 -15c13.333 0 24.5 3.5 33.5 10.5s13.5 16.833 13.5 29.5c0 13.333 -5 23.5 -15 30.5s-23 10.5 -39 10.5c-12.667 0 -23.334 -2 -32.001 -6v32z" />
    <glyph glyph-name="Egrave" unicode="&#xc8;" 
d="M64 500c0 12 -0.166016 27.3379 -0.499023 46.0049l-1 57l-1 55.5c-0.333008 17.667 -0.833008 31.5 -1.5 41.5h47h88.5c25 0 46.833 0.166992 65.5 0.5s34.667 0.833008 48 1.5s24.666 1.33398 33.999 2.00098v-62c-18.667 1.33301 -45.334 2.33301 -80.001 3
s-81 1 -139 1v-253c32.667 0 60.334 0.166992 83.001 0.5s42 0.666016 58 0.999023s29.5 0.666016 40.5 0.999023s21.5 0.833008 31.5 1.5v-62c-10 0.666992 -20.333 1.16699 -31 1.5s-23.667 0.666016 -39 0.999023s-34.5 0.666016 -57.5 0.999023s-51.5 0.5 -85.5 0.5
v-285h120c14 0 28.833 0.166992 44.5 0.5l47 1c15.667 0.333008 30.5 0.666016 44.5 0.999023s26 0.833008 36 1.5v-62c-10 0.666992 -22 1.16699 -36 1.5s-28.833 0.666016 -44.5 0.999023l-47 1c-15.667 0.333008 -30.5 0.5 -44.5 0.5h-184
c0.666992 10 1.16699 23.833 1.5 41.5l1 55.5l1 57c0.333008 18.667 0.5 34 0.5 46v300zM156.001 850.005l101 -100h-60l-129 100h88z" />
    <glyph glyph-name="Eacute" unicode="&#xc9;" 
d="M64 500c0 12 -0.166016 27.3379 -0.499023 46.0049l-1 57l-1 55.5c-0.333008 17.667 -0.833008 31.5 -1.5 41.5h47h88.5c25 0 46.833 0.166992 65.5 0.5s34.667 0.833008 48 1.5s24.666 1.33398 33.999 2.00098v-62c-18.667 1.33301 -45.334 2.33301 -80.001 3
s-81 1 -139 1v-253c32.667 0 60.334 0.166992 83.001 0.5s42 0.666016 58 0.999023s29.5 0.666016 40.5 0.999023s21.5 0.833008 31.5 1.5v-62c-10 0.666992 -20.333 1.16699 -31 1.5s-23.667 0.666016 -39 0.999023s-34.5 0.666016 -57.5 0.999023s-51.5 0.5 -85.5 0.5
v-285h120c14 0 28.833 0.166992 44.5 0.5l47 1c15.667 0.333008 30.5 0.666016 44.5 0.999023s26 0.833008 36 1.5v-62c-10 0.666992 -22 1.16699 -36 1.5s-28.833 0.666016 -44.5 0.999023l-47 1c-15.667 0.333008 -30.5 0.5 -44.5 0.5h-184
c0.666992 10 1.16699 23.833 1.5 41.5l1 55.5l1 57c0.333008 18.667 0.5 34 0.5 46v300zM377.001 850.005l-129 -100h-60l101 100h88z" />
    <glyph glyph-name="Ecircumflex" unicode="&#xca;" 
d="M64 500c0 12 -0.166016 27.3379 -0.499023 46.0049l-1 57l-1 55.5c-0.333008 17.667 -0.833008 31.5 -1.5 41.5h47h88.5c25 0 46.833 0.166992 65.5 0.5s34.667 0.833008 48 1.5s24.666 1.33398 33.999 2.00098v-62c-18.667 1.33301 -45.334 2.33301 -80.001 3
s-81 1 -139 1v-253c32.667 0 60.334 0.166992 83.001 0.5s42 0.666016 58 0.999023s29.5 0.666016 40.5 0.999023s21.5 0.833008 31.5 1.5v-62c-10 0.666992 -20.333 1.16699 -31 1.5s-23.667 0.666016 -39 0.999023s-34.5 0.666016 -57.5 0.999023s-51.5 0.5 -85.5 0.5
v-285h120c14 0 28.833 0.166992 44.5 0.5l47 1c15.667 0.333008 30.5 0.666016 44.5 0.999023s26 0.833008 36 1.5v-62c-10 0.666992 -22 1.16699 -36 1.5s-28.833 0.666016 -44.5 0.999023l-47 1c-15.667 0.333008 -30.5 0.5 -44.5 0.5h-184
c0.666992 10 1.16699 23.833 1.5 41.5l1 55.5l1 57c0.333008 18.667 0.5 34 0.5 46v300zM237.001 850.005l90 -100h-60l-65 59l-64 -59h-60l89 100h70z" />
    <glyph glyph-name="Edieresis" unicode="&#xcb;" 
d="M64 500c0 12 -0.166016 27.3379 -0.499023 46.0049l-1 57l-1 55.5c-0.333008 17.667 -0.833008 31.5 -1.5 41.5h47h88.5c25 0 46.833 0.166992 65.5 0.5s34.667 0.833008 48 1.5s24.666 1.33398 33.999 2.00098v-62c-18.667 1.33301 -45.334 2.33301 -80.001 3
s-81 1 -139 1v-253c32.667 0 60.334 0.166992 83.001 0.5s42 0.666016 58 0.999023s29.5 0.666016 40.5 0.999023s21.5 0.833008 31.5 1.5v-62c-10 0.666992 -20.333 1.16699 -31 1.5s-23.667 0.666016 -39 0.999023s-34.5 0.666016 -57.5 0.999023s-51.5 0.5 -85.5 0.5
v-285h120c14 0 28.833 0.166992 44.5 0.5l47 1c15.667 0.333008 30.5 0.666016 44.5 0.999023s26 0.833008 36 1.5v-62c-10 0.666992 -22 1.16699 -36 1.5s-28.833 0.666016 -44.5 0.999023l-47 1c-15.667 0.333008 -30.5 0.5 -44.5 0.5h-184
c0.666992 10 1.16699 23.833 1.5 41.5l1 55.5l1 57c0.333008 18.667 0.5 34 0.5 46v300zM101.001 788.005c0 11.333 3.5 20.666 10.5 27.999s16.167 11 27.5 11s20.666 -3.66699 27.999 -11s11 -16.666 11 -27.999s-3.66699 -20.5 -11 -27.5s-16.666 -10.5 -27.999 -10.5
s-20.5 3.33301 -27.5 10s-10.5 16 -10.5 28zM227.001 788.005c0 11.333 3.5 20.666 10.5 27.999s16.167 11 27.5 11s20.666 -3.66699 27.999 -11s11 -16.666 11 -27.999s-3.66699 -20.5 -11 -27.5s-16.666 -10.5 -27.999 -10.5s-20.5 3.33301 -27.5 10s-10.5 16 -10.5 28z
" />
    <glyph glyph-name="Igrave" unicode="&#xcc;" horiz-adv-x="188" 
d="M64 500c0 14 -0.168945 30.333 -0.501953 49l-1 56.5c-0.333008 19 -0.666016 37 -0.999023 54s-0.833008 30.5 -1.5 40.5h68c-0.666992 -10 -1.16699 -23.5 -1.5 -40.5s-0.666016 -35 -0.999023 -54l-1 -56.5c-0.333008 -18.667 -0.5 -35 -0.5 -49v-300
c0 -12 0.166992 -27.333 0.5 -46l1 -57l1 -55.5c0.333008 -17.667 0.833008 -31.5 1.5 -41.5h-68c0.666992 10 1.16699 23.833 1.5 41.5l1 55.5l1 57c0.333008 18.667 0.5 34 0.5 46v300zM25.998 850l101 -100h-60l-129 100h88z" />
    <glyph glyph-name="Iacute" unicode="&#xcd;" horiz-adv-x="188" 
d="M64 500c0 14 -0.168945 30.333 -0.501953 49l-1 56.5c-0.333008 19 -0.666016 37 -0.999023 54s-0.833008 30.5 -1.5 40.5h68c-0.666992 -10 -1.16699 -23.5 -1.5 -40.5s-0.666016 -35 -0.999023 -54l-1 -56.5c-0.333008 -18.667 -0.5 -35 -0.5 -49v-300
c0 -12 0.166992 -27.333 0.5 -46l1 -57l1 -55.5c0.333008 -17.667 0.833008 -31.5 1.5 -41.5h-68c0.666992 10 1.16699 23.833 1.5 41.5l1 55.5l1 57c0.333008 18.667 0.5 34 0.5 46v300zM251.998 850l-129 -100h-60l101 100h88z" />
    <glyph glyph-name="Icircumflex" unicode="&#xce;" horiz-adv-x="188" 
d="M64 500c0 14 -0.168945 30.333 -0.501953 49l-1 56.5c-0.333008 19 -0.666016 37 -0.999023 54s-0.833008 30.5 -1.5 40.5h68c-0.666992 -10 -1.16699 -23.5 -1.5 -40.5s-0.666016 -35 -0.999023 -54l-1 -56.5c-0.333008 -18.667 -0.5 -35 -0.5 -49v-300
c0 -12 0.166992 -27.333 0.5 -46l1 -57l1 -55.5c0.333008 -17.667 0.833008 -31.5 1.5 -41.5h-68c0.666992 10 1.16699 23.833 1.5 41.5l1 55.5l1 57c0.333008 18.667 0.5 34 0.5 46v300zM129.998 850l90 -100h-60l-65 59l-64 -59h-60l89 100h70z" />
    <glyph glyph-name="Idieresis" unicode="&#xcf;" horiz-adv-x="188" 
d="M64 500c0 14 -0.168945 30.333 -0.501953 49l-1 56.5c-0.333008 19 -0.666016 37 -0.999023 54s-0.833008 30.5 -1.5 40.5h68c-0.666992 -10 -1.16699 -23.5 -1.5 -40.5s-0.666016 -35 -0.999023 -54l-1 -56.5c-0.333008 -18.667 -0.5 -35 -0.5 -49v-300
c0 -12 0.166992 -27.333 0.5 -46l1 -57l1 -55.5c0.333008 -17.667 0.833008 -31.5 1.5 -41.5h-68c0.666992 10 1.16699 23.833 1.5 41.5l1 55.5l1 57c0.333008 18.667 0.5 34 0.5 46v300zM-6.00195 788c0 11.333 3.5 20.666 10.5 27.999s16.167 11 27.5 11
s20.666 -3.66699 27.999 -11s11 -16.666 11 -27.999s-3.66699 -20.5 -11 -27.5s-16.666 -10.5 -27.999 -10.5s-20.5 3.33301 -27.5 10s-10.5 16 -10.5 28zM119.998 788c0 11.333 3.5 20.666 10.5 27.999s16.167 11 27.5 11s20.666 -3.66699 27.999 -11
s11 -16.666 11 -27.999s-3.66699 -20.5 -11 -27.5s-16.666 -10.5 -27.999 -10.5s-20.5 3.33301 -27.5 10s-10.5 16 -10.5 28z" />
    <glyph glyph-name="Eth" unicode="&#xd0;" horiz-adv-x="721" 
d="M681 347c0 -52 -9.33594 -99.1631 -28.0029 -141.496s-45 -78.833 -79 -109.5s-75.167 -54.334 -123.5 -71.001s-102.166 -25 -161.499 -25h-179c0.666992 14 1.16699 32.333 1.5 55s0.833008 44.667 1.5 66c0.666992 25.333 1 51.666 1 78.999v132h-94v54h94v114
c0 30 -0.333008 58.333 -1 85c-0.666992 22.667 -1.16699 45 -1.5 67s-0.833008 38 -1.5 48h178c46.667 0 93.334 -6.83301 140.001 -20.5s88.834 -34.834 126.501 -63.501s68.167 -65.334 91.5 -110.001s35 -97.667 35 -159zM617.997 347.004c0 48.667 -9 91.667 -27 129
s-42.167 68.5 -72.5 93.5s-65.333 44 -105 57s-81.5 19.5 -125.5 19.5h-114v-260h218v-54h-218v-278h115c44 0 85.833 6 125.5 18s74.5 30.167 104.5 54.5s54 54.833 72 91.5s27 79.667 27 129z" />
    <glyph glyph-name="Ntilde" unicode="&#xd1;" horiz-adv-x="704" 
d="M122 600c0 -26 0.333008 -52.667 1 -80c0 -24 0.166992 -50.833 0.5 -80.5s0.5 -59.5 0.5 -89.5v-150c0 -12 0.166992 -27.333 0.5 -46l1 -57l1 -55.5c0.333008 -17.667 0.833008 -31.5 1.5 -41.5h-68c0.666992 10 1.16699 23.833 1.5 41.5l1 55.5l1 57
c0.333008 18.667 0.5 34 0.5 46v299c0 44 -0.333008 83.5 -1 118.5s-1.66699 62.5 -3 82.5h63l459 -600c-0.666992 21.333 -1 45.333 -1 72c-0.666992 22.667 -1 49 -1 79v98v151c0 12 -0.166992 27.333 -0.5 46l-1 57l-1 55.5c-0.333008 17.667 -0.833008 31.5 -1.5 41.5
h68c-0.666992 -10 -1.16699 -23.833 -1.5 -41.5l-1 -55.5l-1 -57c-0.333008 -18.667 -0.5 -34 -0.5 -46v-299c0 -44 0.333008 -83.5 1 -118.5s1.66699 -62.5 3 -82.5h-63zM305 827c8.66699 0 17.333 -1.5 26 -4.5s17.167 -6.16699 25.5 -9.5l23.5 -9.5
c7.33301 -3 13.666 -4.5 18.999 -4.5c7.33301 0 13.5 1.66699 18.5 5s7.5 11 7.5 23h37c0 -28.667 -6 -48.667 -18 -60s-26.667 -17 -44 -17c-8 0 -16.333 1.5 -25 4.5s-17.167 6.33301 -25.5 10l-23 10c-7 3 -13.167 4.5 -18.5 4.5c-8 0 -14.667 -2.5 -20 -7.5
s-8 -12.167 -8 -21.5h-38c0 26.667 6.83301 46.167 20.5 58.5s27.834 18.5 42.501 18.5z" />
    <glyph glyph-name="Ograve" unicode="&#xd2;" horiz-adv-x="795" 
d="M40 350c0 52 9.16797 100.666 27.501 145.999s43.5 84.5 75.5 117.5s69.667 59 113 78s90.333 28.5 141 28.5c52 0 99.833 -9.16699 143.5 -27.5s81.334 -44 113.001 -77s56.5 -72.167 74.5 -117.5s27 -94.666 27 -147.999c0 -52 -9.16699 -100.667 -27.5 -146
s-43.5 -84.5 -75.5 -117.5s-69.833 -59 -113.5 -78s-90.834 -28.5 -141.501 -28.5c-51.333 0 -98.833 9.33301 -142.5 28s-81.334 44.5 -113.001 77.5s-56.5 72 -74.5 117s-27 94.167 -27 147.5zM103.001 349.999c0 -46 7.33203 -88.333 21.999 -127s35 -71.834 61 -99.501
s57 -49.167 93 -64.5s75.333 -23 118 -23c42 0 80.833 7.83301 116.5 23.5s66.834 37.5 93.501 65.5s47.5 61.167 62.5 99.5s22.5 80.166 22.5 125.499c0 46 -7.33301 88.333 -22 127s-35 71.834 -61 99.501s-57.167 49.167 -93.5 64.5s-75.833 23 -118.5 23
c-41.333 0 -80 -7.83301 -116 -23.5s-67.167 -37.5 -93.5 -65.5s-47 -61.167 -62 -99.5s-22.5 -80.166 -22.5 -125.499zM331 849.999l101 -100h-60l-129 100h88z" />
    <glyph glyph-name="Oacute" unicode="&#xd3;" horiz-adv-x="795" 
d="M40 350c0 52 9.16797 100.666 27.501 145.999s43.5 84.5 75.5 117.5s69.667 59 113 78s90.333 28.5 141 28.5c52 0 99.833 -9.16699 143.5 -27.5s81.334 -44 113.001 -77s56.5 -72.167 74.5 -117.5s27 -94.666 27 -147.999c0 -52 -9.16699 -100.667 -27.5 -146
s-43.5 -84.5 -75.5 -117.5s-69.833 -59 -113.5 -78s-90.834 -28.5 -141.501 -28.5c-51.333 0 -98.833 9.33301 -142.5 28s-81.334 44.5 -113.001 77.5s-56.5 72 -74.5 117s-27 94.167 -27 147.5zM103.001 349.999c0 -46 7.33203 -88.333 21.999 -127s35 -71.834 61 -99.501
s57 -49.167 93 -64.5s75.333 -23 118 -23c42 0 80.833 7.83301 116.5 23.5s66.834 37.5 93.501 65.5s47.5 61.167 62.5 99.5s22.5 80.166 22.5 125.499c0 46 -7.33301 88.333 -22 127s-35 71.834 -61 99.501s-57.167 49.167 -93.5 64.5s-75.833 23 -118.5 23
c-41.333 0 -80 -7.83301 -116 -23.5s-67.167 -37.5 -93.5 -65.5s-47 -61.167 -62 -99.5s-22.5 -80.166 -22.5 -125.499zM552 849.999l-129 -100h-60l101 100h88z" />
    <glyph glyph-name="Ocircumflex" unicode="&#xd4;" horiz-adv-x="795" 
d="M40 350c0 52 9.16797 100.666 27.501 145.999s43.5 84.5 75.5 117.5s69.667 59 113 78s90.333 28.5 141 28.5c52 0 99.833 -9.16699 143.5 -27.5s81.334 -44 113.001 -77s56.5 -72.167 74.5 -117.5s27 -94.666 27 -147.999c0 -52 -9.16699 -100.667 -27.5 -146
s-43.5 -84.5 -75.5 -117.5s-69.833 -59 -113.5 -78s-90.834 -28.5 -141.501 -28.5c-51.333 0 -98.833 9.33301 -142.5 28s-81.334 44.5 -113.001 77.5s-56.5 72 -74.5 117s-27 94.167 -27 147.5zM103.001 349.999c0 -46 7.33203 -88.333 21.999 -127s35 -71.834 61 -99.501
s57 -49.167 93 -64.5s75.333 -23 118 -23c42 0 80.833 7.83301 116.5 23.5s66.834 37.5 93.501 65.5s47.5 61.167 62.5 99.5s22.5 80.166 22.5 125.499c0 46 -7.33301 88.333 -22 127s-35 71.834 -61 99.501s-57.167 49.167 -93.5 64.5s-75.833 23 -118.5 23
c-41.333 0 -80 -7.83301 -116 -23.5s-67.167 -37.5 -93.5 -65.5s-47 -61.167 -62 -99.5s-22.5 -80.166 -22.5 -125.499zM432 849.999l90 -100h-60l-65 59l-64 -59h-60l89 100h70z" />
    <glyph glyph-name="Otilde" unicode="&#xd5;" horiz-adv-x="795" 
d="M40 350c0 52 9.16797 100.666 27.501 145.999s43.5 84.5 75.5 117.5s69.667 59 113 78s90.333 28.5 141 28.5c52 0 99.833 -9.16699 143.5 -27.5s81.334 -44 113.001 -77s56.5 -72.167 74.5 -117.5s27 -94.666 27 -147.999c0 -52 -9.16699 -100.667 -27.5 -146
s-43.5 -84.5 -75.5 -117.5s-69.833 -59 -113.5 -78s-90.834 -28.5 -141.501 -28.5c-51.333 0 -98.833 9.33301 -142.5 28s-81.334 44.5 -113.001 77.5s-56.5 72 -74.5 117s-27 94.167 -27 147.5zM103.001 349.999c0 -46 7.33203 -88.333 21.999 -127s35 -71.834 61 -99.501
s57 -49.167 93 -64.5s75.333 -23 118 -23c42 0 80.833 7.83301 116.5 23.5s66.834 37.5 93.501 65.5s47.5 61.167 62.5 99.5s22.5 80.166 22.5 125.499c0 46 -7.33301 88.333 -22 127s-35 71.834 -61 99.501s-57.167 49.167 -93.5 64.5s-75.833 23 -118.5 23
c-41.333 0 -80 -7.83301 -116 -23.5s-67.167 -37.5 -93.5 -65.5s-47 -61.167 -62 -99.5s-22.5 -80.166 -22.5 -125.499zM350 826.999c8.66699 0 17.333 -1.5 26 -4.5s17.167 -6.16699 25.5 -9.5l23.5 -9.5c7.33301 -3 13.666 -4.5 18.999 -4.5
c7.33301 0 13.5 1.66699 18.5 5s7.5 11 7.5 23h37c0 -28.667 -6 -48.667 -18 -60s-26.667 -17 -44 -17c-8 0 -16.333 1.5 -25 4.5s-17.167 6.33301 -25.5 10l-23 10c-7 3 -13.167 4.5 -18.5 4.5c-8 0 -14.667 -2.5 -20 -7.5s-8 -12.167 -8 -21.5h-38
c0 26.667 6.83301 46.167 20.5 58.5s27.834 18.5 42.501 18.5z" />
    <glyph glyph-name="Odieresis" unicode="&#xd6;" horiz-adv-x="795" 
d="M40 350c0 52 9.16797 100.666 27.501 145.999s43.5 84.5 75.5 117.5s69.667 59 113 78s90.333 28.5 141 28.5c52 0 99.833 -9.16699 143.5 -27.5s81.334 -44 113.001 -77s56.5 -72.167 74.5 -117.5s27 -94.666 27 -147.999c0 -52 -9.16699 -100.667 -27.5 -146
s-43.5 -84.5 -75.5 -117.5s-69.833 -59 -113.5 -78s-90.834 -28.5 -141.501 -28.5c-51.333 0 -98.833 9.33301 -142.5 28s-81.334 44.5 -113.001 77.5s-56.5 72 -74.5 117s-27 94.167 -27 147.5zM103.001 349.999c0 -46 7.33203 -88.333 21.999 -127s35 -71.834 61 -99.501
s57 -49.167 93 -64.5s75.333 -23 118 -23c42 0 80.833 7.83301 116.5 23.5s66.834 37.5 93.501 65.5s47.5 61.167 62.5 99.5s22.5 80.166 22.5 125.499c0 46 -7.33301 88.333 -22 127s-35 71.834 -61 99.501s-57.167 49.167 -93.5 64.5s-75.833 23 -118.5 23
c-41.333 0 -80 -7.83301 -116 -23.5s-67.167 -37.5 -93.5 -65.5s-47 -61.167 -62 -99.5s-22.5 -80.166 -22.5 -125.499zM296 787.999c0 11.333 3.5 20.666 10.5 27.999s16.167 11 27.5 11s20.666 -3.66699 27.999 -11s11 -16.666 11 -27.999s-3.66699 -20.5 -11 -27.5
s-16.666 -10.5 -27.999 -10.5s-20.5 3.33301 -27.5 10s-10.5 16 -10.5 28zM422 787.999c0 11.333 3.5 20.666 10.5 27.999s16.167 11 27.5 11s20.666 -3.66699 27.999 -11s11 -16.666 11 -27.999s-3.66699 -20.5 -11 -27.5s-16.666 -10.5 -27.999 -10.5
s-20.5 3.33301 -27.5 10s-10.5 16 -10.5 28z" />
    <glyph glyph-name="multiply" unicode="&#xd7;" horiz-adv-x="495" 
d="M247 382l130 129l35 -34l-130 -130l130 -129l-35 -34l-130 128l-129 -128l-35 34l129 129l-129 130l35 34z" />
    <glyph glyph-name="Oslash" unicode="&#xd8;" horiz-adv-x="795" 
d="M614 650c44 -32.667 78.501 -74.832 103.501 -126.499s37.5 -109.5 37.5 -173.5c0 -52 -9.16699 -100.667 -27.5 -146s-43.5 -84.5 -75.5 -117.5s-69.833 -59 -113.5 -78s-90.834 -28.5 -141.501 -28.5c-36.667 0 -71.167 4.66699 -103.5 14
s-62.166 22.666 -89.499 39.999l-56 -84h-58l75 113c-39.333 33.333 -70 74.5 -92 123.5s-33 103.5 -33 163.5c0 52 9.16699 100.667 27.5 146s43.5 84.5 75.5 117.5s69.667 59 113 78s90.333 28.5 141 28.5c32.667 0 63.667 -3.83301 93 -11.5s56.666 -18.167 81.999 -31.5
l49 73h59zM692.001 350.002c0 54 -9.83301 102.334 -29.5 145.001s-46.834 78 -81.501 106l-345 -519c46 -30.667 99.667 -46 161 -46c42 0 80.833 7.83301 116.5 23.5s66.834 37.5 93.501 65.5s47.5 61.167 62.5 99.5s22.5 80.166 22.5 125.499zM103.001 350.003
c0 -50 8.16699 -95.168 24.5 -135.501s39.5 -74.5 69.5 -102.5l343 517c-20.667 11.333 -43 20 -67 26s-49.333 9 -76 9c-41.333 0 -80 -7.83301 -116 -23.5s-67.167 -37.5 -93.5 -65.5s-47 -61.167 -62 -99.5s-22.5 -80.166 -22.5 -125.499z" />
    <glyph glyph-name="Ugrave" unicode="&#xd9;" horiz-adv-x="678" 
d="M554 500c0 14 -0.168945 30.335 -0.501953 49.002l-1 56.5c-0.333008 19 -0.666016 37 -0.999023 54s-0.833008 30.5 -1.5 40.5h68c-0.666992 -10 -1.16699 -23.5 -1.5 -40.5s-0.666016 -35 -0.999023 -54l-1 -56.5c-0.333008 -18.667 -0.5 -35 -0.5 -49v-300
c0 -12 0.166992 -27.333 0.5 -46l1 -57l1 -55.5c0.333008 -17.667 0.833008 -31.5 1.5 -41.5h-66c0.666992 9.33301 1 21.666 1 36.999s0.333008 31.666 1 48.999c-12 -10 -26.167 -20.833 -42.5 -32.5s-34.833 -22.167 -55.5 -31.5s-43.334 -17.166 -68.001 -23.499
s-51 -9.5 -79 -9.5c-36.667 0 -70.334 6.16699 -101.001 18.5s-57 30.333 -79 54s-39.167 52.667 -51.5 87s-18.5 73.5 -18.5 117.5v234c0 14 -0.166992 30.333 -0.5 49l-1 56.5c-0.333008 19 -0.666016 37 -0.999023 54s-0.833008 30.5 -1.5 40.5h68
c-0.666992 -10 -1.16699 -23.5 -1.5 -40.5s-0.666016 -35 -0.999023 -54l-1 -56.5c-0.333008 -18.667 -0.5 -35 -0.5 -49v-218c0 -41.333 5 -76.833 15 -106.5s23.5 -54.334 40.5 -74.001s37 -34.167 60 -43.5s47.833 -14 74.5 -14c36 0 68.333 4.66699 97 14
s53.167 20 73.5 32s36.833 24 49.5 36s21 20.667 25 26v48v300zM271.998 850.002l101 -100h-60l-129 100h88z" />
    <glyph glyph-name="Uacute" unicode="&#xda;" horiz-adv-x="678" 
d="M554 500c0 14 -0.168945 30.335 -0.501953 49.002l-1 56.5c-0.333008 19 -0.666016 37 -0.999023 54s-0.833008 30.5 -1.5 40.5h68c-0.666992 -10 -1.16699 -23.5 -1.5 -40.5s-0.666016 -35 -0.999023 -54l-1 -56.5c-0.333008 -18.667 -0.5 -35 -0.5 -49v-300
c0 -12 0.166992 -27.333 0.5 -46l1 -57l1 -55.5c0.333008 -17.667 0.833008 -31.5 1.5 -41.5h-66c0.666992 9.33301 1 21.666 1 36.999s0.333008 31.666 1 48.999c-12 -10 -26.167 -20.833 -42.5 -32.5s-34.833 -22.167 -55.5 -31.5s-43.334 -17.166 -68.001 -23.499
s-51 -9.5 -79 -9.5c-36.667 0 -70.334 6.16699 -101.001 18.5s-57 30.333 -79 54s-39.167 52.667 -51.5 87s-18.5 73.5 -18.5 117.5v234c0 14 -0.166992 30.333 -0.5 49l-1 56.5c-0.333008 19 -0.666016 37 -0.999023 54s-0.833008 30.5 -1.5 40.5h68
c-0.666992 -10 -1.16699 -23.5 -1.5 -40.5s-0.666016 -35 -0.999023 -54l-1 -56.5c-0.333008 -18.667 -0.5 -35 -0.5 -49v-218c0 -41.333 5 -76.833 15 -106.5s23.5 -54.334 40.5 -74.001s37 -34.167 60 -43.5s47.833 -14 74.5 -14c36 0 68.333 4.66699 97 14
s53.167 20 73.5 32s36.833 24 49.5 36s21 20.667 25 26v48v300zM492.998 850.002l-129 -100h-60l101 100h88z" />
    <glyph glyph-name="Ucircumflex" unicode="&#xdb;" horiz-adv-x="678" 
d="M554 500c0 14 -0.168945 30.335 -0.501953 49.002l-1 56.5c-0.333008 19 -0.666016 37 -0.999023 54s-0.833008 30.5 -1.5 40.5h68c-0.666992 -10 -1.16699 -23.5 -1.5 -40.5s-0.666016 -35 -0.999023 -54l-1 -56.5c-0.333008 -18.667 -0.5 -35 -0.5 -49v-300
c0 -12 0.166992 -27.333 0.5 -46l1 -57l1 -55.5c0.333008 -17.667 0.833008 -31.5 1.5 -41.5h-66c0.666992 9.33301 1 21.666 1 36.999s0.333008 31.666 1 48.999c-12 -10 -26.167 -20.833 -42.5 -32.5s-34.833 -22.167 -55.5 -31.5s-43.334 -17.166 -68.001 -23.499
s-51 -9.5 -79 -9.5c-36.667 0 -70.334 6.16699 -101.001 18.5s-57 30.333 -79 54s-39.167 52.667 -51.5 87s-18.5 73.5 -18.5 117.5v234c0 14 -0.166992 30.333 -0.5 49l-1 56.5c-0.333008 19 -0.666016 37 -0.999023 54s-0.833008 30.5 -1.5 40.5h68
c-0.666992 -10 -1.16699 -23.5 -1.5 -40.5s-0.666016 -35 -0.999023 -54l-1 -56.5c-0.333008 -18.667 -0.5 -35 -0.5 -49v-218c0 -41.333 5 -76.833 15 -106.5s23.5 -54.334 40.5 -74.001s37 -34.167 60 -43.5s47.833 -14 74.5 -14c36 0 68.333 4.66699 97 14
s53.167 20 73.5 32s36.833 24 49.5 36s21 20.667 25 26v48v300zM372.998 850.002l90 -100h-60l-65 59l-64 -59h-60l89 100h70z" />
    <glyph glyph-name="Udieresis" unicode="&#xdc;" horiz-adv-x="678" 
d="M554 500c0 14 -0.168945 30.335 -0.501953 49.002l-1 56.5c-0.333008 19 -0.666016 37 -0.999023 54s-0.833008 30.5 -1.5 40.5h68c-0.666992 -10 -1.16699 -23.5 -1.5 -40.5s-0.666016 -35 -0.999023 -54l-1 -56.5c-0.333008 -18.667 -0.5 -35 -0.5 -49v-300
c0 -12 0.166992 -27.333 0.5 -46l1 -57l1 -55.5c0.333008 -17.667 0.833008 -31.5 1.5 -41.5h-66c0.666992 9.33301 1 21.666 1 36.999s0.333008 31.666 1 48.999c-12 -10 -26.167 -20.833 -42.5 -32.5s-34.833 -22.167 -55.5 -31.5s-43.334 -17.166 -68.001 -23.499
s-51 -9.5 -79 -9.5c-36.667 0 -70.334 6.16699 -101.001 18.5s-57 30.333 -79 54s-39.167 52.667 -51.5 87s-18.5 73.5 -18.5 117.5v234c0 14 -0.166992 30.333 -0.5 49l-1 56.5c-0.333008 19 -0.666016 37 -0.999023 54s-0.833008 30.5 -1.5 40.5h68
c-0.666992 -10 -1.16699 -23.5 -1.5 -40.5s-0.666016 -35 -0.999023 -54l-1 -56.5c-0.333008 -18.667 -0.5 -35 -0.5 -49v-218c0 -41.333 5 -76.833 15 -106.5s23.5 -54.334 40.5 -74.001s37 -34.167 60 -43.5s47.833 -14 74.5 -14c36 0 68.333 4.66699 97 14
s53.167 20 73.5 32s36.833 24 49.5 36s21 20.667 25 26v48v300zM236.998 788.002c0 11.333 3.5 20.666 10.5 27.999s16.167 11 27.5 11s20.666 -3.66699 27.999 -11s11 -16.666 11 -27.999s-3.66699 -20.5 -11 -27.5s-16.666 -10.5 -27.999 -10.5s-20.5 3.33301 -27.5 10
s-10.5 16 -10.5 28zM362.998 788.002c0 11.333 3.5 20.666 10.5 27.999s16.167 11 27.5 11s20.666 -3.66699 27.999 -11s11 -16.666 11 -27.999s-3.66699 -20.5 -11 -27.5s-16.666 -10.5 -27.999 -10.5s-20.5 3.33301 -27.5 10s-10.5 16 -10.5 28z" />
    <glyph glyph-name="Yacute" unicode="&#xdd;" horiz-adv-x="706" 
d="M189 -150c6.66699 11.333 16.168 28.5 28.501 51.5l36.5 69.5l44 87l-194 442l-38 85l-32 67c-10.667 22 -18.667 38 -24 48h77c3.33301 -10 9.66602 -26 18.999 -48l28 -67l37 -85l166 -376l190 376l42 85l33 67c10.667 22 18 38 22 48h72c-6 -10 -15 -26 -27 -48
l-35 -67l-43 -85l-264 -520c-8.66699 -16 -16.667 -32 -24 -48l-20.5 -42.5l-18.5 -39.5h-75zM497.001 850l-129 -100h-60l101 100h88z" />
    <glyph glyph-name="Thorn" unicode="&#xde;" horiz-adv-x="444" 
d="M64 500c0 14 -0.169922 30.332 -0.50293 48.999l-1 56.5c-0.333008 19 -0.666016 37 -0.999023 54s-0.833008 30.5 -1.5 40.5h68c-1.33301 -15.333 -2.33301 -37.333 -3 -66s-1 -56.667 -1 -84h80c30 0 57.833 -4.33301 83.5 -13s47.834 -21.167 66.501 -37.5
s33.334 -36 44.001 -59s16 -48.5 16 -76.5c0 -32.667 -5.16699 -61.167 -15.5 -85.5s-24.666 -44.5 -42.999 -60.5s-40.5 -28 -66.5 -36s-55 -12 -87 -12h-78c0 -14 0.166992 -29.167 0.5 -45.5l1 -48c0.333008 -15.667 0.666016 -30.334 0.999023 -44.001
s0.833008 -24.5 1.5 -32.5h-68l2 58c0.666992 16.667 1.16699 34.334 1.5 53.001s0.5 36.334 0.5 53.001v336zM353.997 363.999c0 45.333 -14.5 79.501 -43.5 102.501s-65.5 34.5 -109.5 34.5h-77v-281h78c22.667 0 43.334 2.5 62.001 7.5s34.667 13.167 48 24.5
s23.666 26.166 30.999 44.499s11 40.833 11 67.5z" />
    <glyph glyph-name="germandbls" unicode="&#xdf;" horiz-adv-x="840" 
d="M277 356c14.667 -11.333 28.5029 -23.335 41.5029 -36.002s24.5 -26.5 34.5 -41.5s17.833 -31.5 23.5 -49.5s8.5 -37.333 8.5 -58c0 -32 -4.83301 -59.667 -14.5 -83s-23.334 -42.666 -41.001 -57.999s-38.834 -26.833 -63.501 -34.5s-51.667 -11.5 -81 -11.5
c-30.667 0 -58.334 3.16699 -83.001 9.5s-44.667 12.5 -60 18.5v70l17.5 -10.5c8.33301 -5 18.833 -10 31.5 -15s27 -9.5 43 -13.5s33 -6 51 -6c44 0 78.333 11.167 103 33.5s37 55.5 37 99.5c0 28 -7.66699 53 -23 75s-35 42 -59 60l-98 72
c-32 23.333 -58.333 48.333 -79 75s-31 59 -31 97c0 24 4.16699 46.333 12.5 67s20 38.334 35 53.001s33.167 26.167 54.5 34.5s45 12.5 71 12.5c40 0 72 -4.83301 96 -14.5s41.667 -17.5 53 -23.5v-68c-4.66699 4 -11.834 9 -21.501 15s-21.167 12 -34.5 18
s-27.666 11 -42.999 15s-30.666 6 -45.999 6c-20 0 -37.5 -3.16699 -52.5 -9.5s-27.167 -14.833 -36.5 -25.5s-16.333 -22.834 -21 -36.501s-7 -27.5 -7 -41.5c0 -26.667 8.16699 -49.667 24.5 -69s36.166 -37.666 59.499 -54.999zM697.003 355.998
c14.667 -11.333 28.5029 -23.335 41.5029 -36.002s24.5 -26.5 34.5 -41.5s17.833 -31.5 23.5 -49.5s8.5 -37.333 8.5 -58c0 -32 -4.83301 -59.667 -14.5 -83s-23.334 -42.666 -41.001 -57.999s-38.834 -26.833 -63.501 -34.5s-51.667 -11.5 -81 -11.5
c-30.667 0 -58.334 3.16699 -83.001 9.5s-44.667 12.5 -60 18.5v70l17.5 -10.5c8.33301 -5 18.833 -10 31.5 -15s27 -9.5 43 -13.5s33 -6 51 -6c44 0 78.333 11.167 103 33.5s37 55.5 37 99.5c0 28 -7.66699 53 -23 75s-35 42 -59 60l-98 72
c-32 23.333 -58.333 48.333 -79 75s-31 59 -31 97c0 24 4.16699 46.333 12.5 67s20 38.334 35 53.001s33.167 26.167 54.5 34.5s45 12.5 71 12.5c40 0 72 -4.83301 96 -14.5s41.667 -17.5 53 -23.5v-68c-4.66699 4 -11.834 9 -21.501 15s-21.167 12 -34.5 18
s-27.666 11 -42.999 15s-30.666 6 -45.999 6c-20 0 -37.5 -3.16699 -52.5 -9.5s-27.167 -14.833 -36.5 -25.5s-16.333 -22.834 -21 -36.501s-7 -27.5 -7 -41.5c0 -26.667 8.16699 -49.667 24.5 -69s36.166 -37.666 59.499 -54.999z" />
    <glyph glyph-name="agrave" unicode="&#xe0;" horiz-adv-x="727" 
d="M547 194l-369.001 0.000976562l-42 -93l-11.5 -26l-8.5 -19.5l-9.5 -22l-14.5 -33.5h-82c5.33301 8.66699 12.833 22.167 22.5 40.5l30 58.5l29.5 58.5c9.33301 18.333 16 32.166 20 41.499l253 526l250 -525l25 -51.5l30 -60.5l28 -54.5
c8.66699 -16.333 15 -27.5 19 -33.5h-87c-7.33301 20 -14.666 38.833 -21.999 56.5l-21 49.5zM201.999 246.001h322l-161 349zM296.999 850.001l101 -100h-60l-129 100h88z" />
    <glyph glyph-name="aacute" unicode="&#xe1;" horiz-adv-x="727" 
d="M547 194l-369.001 0.000976562l-42 -93l-11.5 -26l-8.5 -19.5l-9.5 -22l-14.5 -33.5h-82c5.33301 8.66699 12.833 22.167 22.5 40.5l30 58.5l29.5 58.5c9.33301 18.333 16 32.166 20 41.499l253 526l250 -525l25 -51.5l30 -60.5l28 -54.5
c8.66699 -16.333 15 -27.5 19 -33.5h-87c-7.33301 20 -14.666 38.833 -21.999 56.5l-21 49.5zM201.999 246.001h322l-161 349zM517.999 850.001l-129 -100h-60l101 100h88z" />
    <glyph glyph-name="acircumflex" unicode="&#xe2;" horiz-adv-x="727" 
d="M547 194l-369.001 0.000976562l-42 -93l-11.5 -26l-8.5 -19.5l-9.5 -22l-14.5 -33.5h-82c5.33301 8.66699 12.833 22.167 22.5 40.5l30 58.5l29.5 58.5c9.33301 18.333 16 32.166 20 41.499l253 526l250 -525l25 -51.5l30 -60.5l28 -54.5
c8.66699 -16.333 15 -27.5 19 -33.5h-87c-7.33301 20 -14.666 38.833 -21.999 56.5l-21 49.5zM201.999 246.001h322l-161 349zM397.999 850.001l90 -100h-60l-65 59l-64 -59h-60l89 100h70z" />
    <glyph glyph-name="atilde" unicode="&#xe3;" horiz-adv-x="727" 
d="M547 194l-369.001 0.000976562l-42 -93l-11.5 -26l-8.5 -19.5l-9.5 -22l-14.5 -33.5h-82c5.33301 8.66699 12.833 22.167 22.5 40.5l30 58.5l29.5 58.5c9.33301 18.333 16 32.166 20 41.499l253 526l250 -525l25 -51.5l30 -60.5l28 -54.5
c8.66699 -16.333 15 -27.5 19 -33.5h-87c-7.33301 20 -14.666 38.833 -21.999 56.5l-21 49.5zM201.999 246.001h322l-161 349zM315.999 827.001c8.66699 0 17.333 -1.5 26 -4.5s17.167 -6.16699 25.5 -9.5l23.5 -9.5c7.33301 -3 13.666 -4.5 18.999 -4.5
c7.33301 0 13.5 1.66699 18.5 5s7.5 11 7.5 23h37c0 -28.667 -6 -48.667 -18 -60s-26.667 -17 -44 -17c-8 0 -16.333 1.5 -25 4.5s-17.167 6.33301 -25.5 10l-23 10c-7 3 -13.167 4.5 -18.5 4.5c-8 0 -14.667 -2.5 -20 -7.5s-8 -12.167 -8 -21.5h-38
c0 26.667 6.83301 46.167 20.5 58.5s27.834 18.5 42.501 18.5z" />
    <glyph glyph-name="adieresis" unicode="&#xe4;" horiz-adv-x="727" 
d="M547 194l-369.001 0.000976562l-42 -93l-11.5 -26l-8.5 -19.5l-9.5 -22l-14.5 -33.5h-82c5.33301 8.66699 12.833 22.167 22.5 40.5l30 58.5l29.5 58.5c9.33301 18.333 16 32.166 20 41.499l253 526l250 -525l25 -51.5l30 -60.5l28 -54.5
c8.66699 -16.333 15 -27.5 19 -33.5h-87c-7.33301 20 -14.666 38.833 -21.999 56.5l-21 49.5zM201.999 246.001h322l-161 349zM261.999 788.001c0 11.333 3.5 20.666 10.5 27.999s16.167 11 27.5 11s20.666 -3.66699 27.999 -11s11 -16.666 11 -27.999
s-3.66699 -20.5 -11 -27.5s-16.666 -10.5 -27.999 -10.5s-20.5 3.33301 -27.5 10s-10.5 16 -10.5 28zM387.999 788.001c0 11.333 3.5 20.666 10.5 27.999s16.167 11 27.5 11s20.666 -3.66699 27.999 -11s11 -16.666 11 -27.999s-3.66699 -20.5 -11 -27.5
s-16.666 -10.5 -27.999 -10.5s-20.5 3.33301 -27.5 10s-10.5 16 -10.5 28z" />
    <glyph glyph-name="aring" unicode="&#xe5;" horiz-adv-x="727" 
d="M292 798c0 20.667 7 37.667 21 51s31.333 20 52 20s38.167 -6.5 52.5 -19.5s21.5 -30.167 21.5 -51.5c0 -20.667 -7.16699 -37.667 -21.5 -51s-31.833 -20 -52.5 -20s-38 6.5 -52 19.5s-21 30.167 -21 51.5zM324 798c0 -11.333 4 -21 12 -29s17.667 -12 29 -12
s21.166 4 29.499 12s12.5 17.667 12.5 29s-4.16699 20.833 -12.5 28.5s-18.166 11.5 -29.499 11.5s-21 -3.83301 -29 -11.5s-12 -17.167 -12 -28.5zM547 194l-369.001 0.000976562l-42 -93l-11.5 -26l-8.5 -19.5l-9.5 -22l-14.5 -33.5h-82
c5.33301 8.66699 12.833 22.167 22.5 40.5l30 58.5l29.5 58.5c9.33301 18.333 16 32.166 20 41.499l253 526l250 -525l25 -51.5l30 -60.5l28 -54.5c8.66699 -16.333 15 -27.5 19 -33.5h-87c-7.33301 20 -14.666 38.833 -21.999 56.5l-21 49.5zM201.999 246.001h322l-161 349
z" />
    <glyph glyph-name="ae" unicode="&#xe6;" horiz-adv-x="861" 
d="M475 0c0.666992 9.33301 1.16895 22.3369 1.50195 39.0039s0.666016 34.334 0.999023 53.001l1 55.5c0.333008 18.333 0.5 33.833 0.5 46.5h-268l-59 -93l-17.5 -28c-5 -8 -9.66699 -15.833 -14 -23.5l-13.5 -23l-16 -26.5h-81l29.5 41.5l38.5 56l38.5 57l29.5 44.5
l329 501h47h88.5c25 0 46.833 0.166992 65.5 0.5s34.667 0.833008 48 1.5s24.666 1.33398 33.999 2.00098v-62c-18.667 1.33301 -45.334 2.33301 -80.001 3s-81 1 -139 1v-253c32.667 0 60.334 0.166992 83.001 0.5s42 0.666016 58 0.999023s29.5 0.666016 40.5 0.999023
s21.5 0.833008 31.5 1.5v-62c-10 0.666992 -20.333 1.16699 -31 1.5s-23.667 0.666016 -39 0.999023s-34.5 0.666016 -57.5 0.999023s-51.5 0.5 -85.5 0.5v-285h120c14 0 28.833 0.166992 44.5 0.5l47 1c15.667 0.333008 30.5 0.666016 44.5 0.999023s26 0.833008 36 1.5
v-62c-10 0.666992 -22 1.16699 -36 1.5s-28.833 0.666016 -44.5 0.999023l-47 1c-15.667 0.333008 -30.5 0.5 -44.5 0.5h-184zM479.002 535.004c0 2 -0.166992 10.168 -0.5 24.501s-0.833008 29.166 -1.5 44.499l-233 -358h235v289z" />
    <glyph glyph-name="ccedilla" unicode="&#xe7;" horiz-adv-x="690" 
d="M640 34c-7.33301 -4 -18.5029 -8.99805 -33.5029 -14.998s-32.5 -12 -52.5 -18s-42.167 -11 -66.5 -15s-49.833 -6 -76.5 -6c-56 0 -106.833 9.33301 -152.5 28s-84.667 44.5 -117 77.5s-57.333 72.167 -75 117.5s-26.5 94.666 -26.5 147.999
c0 52 9.16699 100.5 27.5 145.5s44 84 77 117s72.167 59 117.5 78s95 28.5 149 28.5c26.667 0 50.834 -1.83301 72.501 -5.5s41.334 -8.16699 59.001 -13.5s33.667 -10.833 48 -16.5l38.5 -15.5v-74c-9.33301 6 -21.333 12.833 -36 20.5s-31.5 15.167 -50.5 22.5
s-39.667 13.5 -62 18.5s-45.5 7.5 -69.5 7.5c-41.333 0 -80.666 -7.16699 -117.999 -21.5s-70 -34.833 -98 -61.5s-50.333 -59.5 -67 -98.5s-25 -82.833 -25 -131.5c0 -46 7.33301 -88.333 22 -127s35.5 -72 62.5 -100s59.5 -49.667 97.5 -65s80 -23 126 -23
c28 0 54.5 3 79.5 9s47.5 13.167 67.5 21.5s37.167 16.666 51.5 24.999s24.5 14.5 30.5 18.5v-76zM355.997 -57.998c6 2.66699 13.1689 4.50098 21.502 5.50098s16.166 1.5 23.499 1.5c22 0 41.667 -6 59 -18s26 -31 26 -57c0 -22.667 -8.83301 -40.5 -26.5 -53.5
s-38.5 -19.5 -62.5 -19.5c-13.333 0 -24.333 1.16699 -33 3.5s-15 4.16602 -19 5.49902v40c12 -10 28.667 -15 50 -15c13.333 0 24.5 3.5 33.5 10.5s13.5 16.833 13.5 29.5c0 13.333 -5 23.5 -15 30.5s-23 10.5 -39 10.5c-12.667 0 -23.334 -2 -32.001 -6v32z" />
    <glyph glyph-name="egrave" unicode="&#xe8;" 
d="M64 500c0 12 -0.166016 27.3379 -0.499023 46.0049l-1 57l-1 55.5c-0.333008 17.667 -0.833008 31.5 -1.5 41.5h47h88.5c25 0 46.833 0.166992 65.5 0.5s34.667 0.833008 48 1.5s24.666 1.33398 33.999 2.00098v-62c-18.667 1.33301 -45.334 2.33301 -80.001 3
s-81 1 -139 1v-253c32.667 0 60.334 0.166992 83.001 0.5s42 0.666016 58 0.999023s29.5 0.666016 40.5 0.999023s21.5 0.833008 31.5 1.5v-62c-10 0.666992 -20.333 1.16699 -31 1.5s-23.667 0.666016 -39 0.999023s-34.5 0.666016 -57.5 0.999023s-51.5 0.5 -85.5 0.5
v-285h120c14 0 28.833 0.166992 44.5 0.5l47 1c15.667 0.333008 30.5 0.666016 44.5 0.999023s26 0.833008 36 1.5v-62c-10 0.666992 -22 1.16699 -36 1.5s-28.833 0.666016 -44.5 0.999023l-47 1c-15.667 0.333008 -30.5 0.5 -44.5 0.5h-184
c0.666992 10 1.16699 23.833 1.5 41.5l1 55.5l1 57c0.333008 18.667 0.5 34 0.5 46v300zM156.001 850.005l101 -100h-60l-129 100h88z" />
    <glyph glyph-name="eacute" unicode="&#xe9;" 
d="M64 500c0 12 -0.166016 27.3379 -0.499023 46.0049l-1 57l-1 55.5c-0.333008 17.667 -0.833008 31.5 -1.5 41.5h47h88.5c25 0 46.833 0.166992 65.5 0.5s34.667 0.833008 48 1.5s24.666 1.33398 33.999 2.00098v-62c-18.667 1.33301 -45.334 2.33301 -80.001 3
s-81 1 -139 1v-253c32.667 0 60.334 0.166992 83.001 0.5s42 0.666016 58 0.999023s29.5 0.666016 40.5 0.999023s21.5 0.833008 31.5 1.5v-62c-10 0.666992 -20.333 1.16699 -31 1.5s-23.667 0.666016 -39 0.999023s-34.5 0.666016 -57.5 0.999023s-51.5 0.5 -85.5 0.5
v-285h120c14 0 28.833 0.166992 44.5 0.5l47 1c15.667 0.333008 30.5 0.666016 44.5 0.999023s26 0.833008 36 1.5v-62c-10 0.666992 -22 1.16699 -36 1.5s-28.833 0.666016 -44.5 0.999023l-47 1c-15.667 0.333008 -30.5 0.5 -44.5 0.5h-184
c0.666992 10 1.16699 23.833 1.5 41.5l1 55.5l1 57c0.333008 18.667 0.5 34 0.5 46v300zM377.001 850.005l-129 -100h-60l101 100h88z" />
    <glyph glyph-name="ecircumflex" unicode="&#xea;" 
d="M64 500c0 12 -0.166016 27.3379 -0.499023 46.0049l-1 57l-1 55.5c-0.333008 17.667 -0.833008 31.5 -1.5 41.5h47h88.5c25 0 46.833 0.166992 65.5 0.5s34.667 0.833008 48 1.5s24.666 1.33398 33.999 2.00098v-62c-18.667 1.33301 -45.334 2.33301 -80.001 3
s-81 1 -139 1v-253c32.667 0 60.334 0.166992 83.001 0.5s42 0.666016 58 0.999023s29.5 0.666016 40.5 0.999023s21.5 0.833008 31.5 1.5v-62c-10 0.666992 -20.333 1.16699 -31 1.5s-23.667 0.666016 -39 0.999023s-34.5 0.666016 -57.5 0.999023s-51.5 0.5 -85.5 0.5
v-285h120c14 0 28.833 0.166992 44.5 0.5l47 1c15.667 0.333008 30.5 0.666016 44.5 0.999023s26 0.833008 36 1.5v-62c-10 0.666992 -22 1.16699 -36 1.5s-28.833 0.666016 -44.5 0.999023l-47 1c-15.667 0.333008 -30.5 0.5 -44.5 0.5h-184
c0.666992 10 1.16699 23.833 1.5 41.5l1 55.5l1 57c0.333008 18.667 0.5 34 0.5 46v300zM237.001 850.005l90 -100h-60l-65 59l-64 -59h-60l89 100h70z" />
    <glyph glyph-name="edieresis" unicode="&#xeb;" 
d="M64 500c0 12 -0.166016 27.3379 -0.499023 46.0049l-1 57l-1 55.5c-0.333008 17.667 -0.833008 31.5 -1.5 41.5h47h88.5c25 0 46.833 0.166992 65.5 0.5s34.667 0.833008 48 1.5s24.666 1.33398 33.999 2.00098v-62c-18.667 1.33301 -45.334 2.33301 -80.001 3
s-81 1 -139 1v-253c32.667 0 60.334 0.166992 83.001 0.5s42 0.666016 58 0.999023s29.5 0.666016 40.5 0.999023s21.5 0.833008 31.5 1.5v-62c-10 0.666992 -20.333 1.16699 -31 1.5s-23.667 0.666016 -39 0.999023s-34.5 0.666016 -57.5 0.999023s-51.5 0.5 -85.5 0.5
v-285h120c14 0 28.833 0.166992 44.5 0.5l47 1c15.667 0.333008 30.5 0.666016 44.5 0.999023s26 0.833008 36 1.5v-62c-10 0.666992 -22 1.16699 -36 1.5s-28.833 0.666016 -44.5 0.999023l-47 1c-15.667 0.333008 -30.5 0.5 -44.5 0.5h-184
c0.666992 10 1.16699 23.833 1.5 41.5l1 55.5l1 57c0.333008 18.667 0.5 34 0.5 46v300zM101.001 788.005c0 11.333 3.5 20.666 10.5 27.999s16.167 11 27.5 11s20.666 -3.66699 27.999 -11s11 -16.666 11 -27.999s-3.66699 -20.5 -11 -27.5s-16.666 -10.5 -27.999 -10.5
s-20.5 3.33301 -27.5 10s-10.5 16 -10.5 28zM227.001 788.005c0 11.333 3.5 20.666 10.5 27.999s16.167 11 27.5 11s20.666 -3.66699 27.999 -11s11 -16.666 11 -27.999s-3.66699 -20.5 -11 -27.5s-16.666 -10.5 -27.999 -10.5s-20.5 3.33301 -27.5 10s-10.5 16 -10.5 28z
" />
    <glyph glyph-name="igrave" unicode="&#xec;" horiz-adv-x="188" 
d="M64 500c0 14 -0.168945 30.333 -0.501953 49l-1 56.5c-0.333008 19 -0.666016 37 -0.999023 54s-0.833008 30.5 -1.5 40.5h68c-0.666992 -10 -1.16699 -23.5 -1.5 -40.5s-0.666016 -35 -0.999023 -54l-1 -56.5c-0.333008 -18.667 -0.5 -35 -0.5 -49v-300
c0 -12 0.166992 -27.333 0.5 -46l1 -57l1 -55.5c0.333008 -17.667 0.833008 -31.5 1.5 -41.5h-68c0.666992 10 1.16699 23.833 1.5 41.5l1 55.5l1 57c0.333008 18.667 0.5 34 0.5 46v300zM25.998 850l101 -100h-60l-129 100h88z" />
    <glyph glyph-name="iacute" unicode="&#xed;" horiz-adv-x="188" 
d="M64 500c0 14 -0.168945 30.333 -0.501953 49l-1 56.5c-0.333008 19 -0.666016 37 -0.999023 54s-0.833008 30.5 -1.5 40.5h68c-0.666992 -10 -1.16699 -23.5 -1.5 -40.5s-0.666016 -35 -0.999023 -54l-1 -56.5c-0.333008 -18.667 -0.5 -35 -0.5 -49v-300
c0 -12 0.166992 -27.333 0.5 -46l1 -57l1 -55.5c0.333008 -17.667 0.833008 -31.5 1.5 -41.5h-68c0.666992 10 1.16699 23.833 1.5 41.5l1 55.5l1 57c0.333008 18.667 0.5 34 0.5 46v300zM251.998 850l-129 -100h-60l101 100h88z" />
    <glyph glyph-name="icircumflex" unicode="&#xee;" horiz-adv-x="188" 
d="M64 500c0 14 -0.168945 30.333 -0.501953 49l-1 56.5c-0.333008 19 -0.666016 37 -0.999023 54s-0.833008 30.5 -1.5 40.5h68c-0.666992 -10 -1.16699 -23.5 -1.5 -40.5s-0.666016 -35 -0.999023 -54l-1 -56.5c-0.333008 -18.667 -0.5 -35 -0.5 -49v-300
c0 -12 0.166992 -27.333 0.5 -46l1 -57l1 -55.5c0.333008 -17.667 0.833008 -31.5 1.5 -41.5h-68c0.666992 10 1.16699 23.833 1.5 41.5l1 55.5l1 57c0.333008 18.667 0.5 34 0.5 46v300zM129.998 850l90 -100h-60l-65 59l-64 -59h-60l89 100h70z" />
    <glyph glyph-name="idieresis" unicode="&#xef;" horiz-adv-x="188" 
d="M64 500c0 14 -0.168945 30.333 -0.501953 49l-1 56.5c-0.333008 19 -0.666016 37 -0.999023 54s-0.833008 30.5 -1.5 40.5h68c-0.666992 -10 -1.16699 -23.5 -1.5 -40.5s-0.666016 -35 -0.999023 -54l-1 -56.5c-0.333008 -18.667 -0.5 -35 -0.5 -49v-300
c0 -12 0.166992 -27.333 0.5 -46l1 -57l1 -55.5c0.333008 -17.667 0.833008 -31.5 1.5 -41.5h-68c0.666992 10 1.16699 23.833 1.5 41.5l1 55.5l1 57c0.333008 18.667 0.5 34 0.5 46v300zM-6.00195 788c0 11.333 3.5 20.666 10.5 27.999s16.167 11 27.5 11
s20.666 -3.66699 27.999 -11s11 -16.666 11 -27.999s-3.66699 -20.5 -11 -27.5s-16.666 -10.5 -27.999 -10.5s-20.5 3.33301 -27.5 10s-10.5 16 -10.5 28zM119.998 788c0 11.333 3.5 20.666 10.5 27.999s16.167 11 27.5 11s20.666 -3.66699 27.999 -11
s11 -16.666 11 -27.999s-3.66699 -20.5 -11 -27.5s-16.666 -10.5 -27.999 -10.5s-20.5 3.33301 -27.5 10s-10.5 16 -10.5 28z" />
    <glyph glyph-name="eth" unicode="&#xf0;" horiz-adv-x="721" 
d="M681 347c0 -52 -9.33594 -99.1631 -28.0029 -141.496s-45 -78.833 -79 -109.5s-75.167 -54.334 -123.5 -71.001s-102.166 -25 -161.499 -25h-179c0.666992 14 1.16699 32.333 1.5 55s0.833008 44.667 1.5 66c0.666992 25.333 1 51.666 1 78.999v132h-94v54h94v114
c0 30 -0.333008 58.333 -1 85c-0.666992 22.667 -1.16699 45 -1.5 67s-0.833008 38 -1.5 48h178c46.667 0 93.334 -6.83301 140.001 -20.5s88.834 -34.834 126.501 -63.501s68.167 -65.334 91.5 -110.001s35 -97.667 35 -159zM617.997 347.004c0 48.667 -9 91.667 -27 129
s-42.167 68.5 -72.5 93.5s-65.333 44 -105 57s-81.5 19.5 -125.5 19.5h-114v-260h218v-54h-218v-278h115c44 0 85.833 6 125.5 18s74.5 30.167 104.5 54.5s54 54.833 72 91.5s27 79.667 27 129z" />
    <glyph glyph-name="ntilde" unicode="&#xf1;" horiz-adv-x="704" 
d="M122 600c0 -26 0.333008 -52.667 1 -80c0 -24 0.166992 -50.833 0.5 -80.5s0.5 -59.5 0.5 -89.5v-150c0 -12 0.166992 -27.333 0.5 -46l1 -57l1 -55.5c0.333008 -17.667 0.833008 -31.5 1.5 -41.5h-68c0.666992 10 1.16699 23.833 1.5 41.5l1 55.5l1 57
c0.333008 18.667 0.5 34 0.5 46v299c0 44 -0.333008 83.5 -1 118.5s-1.66699 62.5 -3 82.5h63l459 -600c-0.666992 21.333 -1 45.333 -1 72c-0.666992 22.667 -1 49 -1 79v98v151c0 12 -0.166992 27.333 -0.5 46l-1 57l-1 55.5c-0.333008 17.667 -0.833008 31.5 -1.5 41.5
h68c-0.666992 -10 -1.16699 -23.833 -1.5 -41.5l-1 -55.5l-1 -57c-0.333008 -18.667 -0.5 -34 -0.5 -46v-299c0 -44 0.333008 -83.5 1 -118.5s1.66699 -62.5 3 -82.5h-63zM305 827c8.66699 0 17.333 -1.5 26 -4.5s17.167 -6.16699 25.5 -9.5l23.5 -9.5
c7.33301 -3 13.666 -4.5 18.999 -4.5c7.33301 0 13.5 1.66699 18.5 5s7.5 11 7.5 23h37c0 -28.667 -6 -48.667 -18 -60s-26.667 -17 -44 -17c-8 0 -16.333 1.5 -25 4.5s-17.167 6.33301 -25.5 10l-23 10c-7 3 -13.167 4.5 -18.5 4.5c-8 0 -14.667 -2.5 -20 -7.5
s-8 -12.167 -8 -21.5h-38c0 26.667 6.83301 46.167 20.5 58.5s27.834 18.5 42.501 18.5z" />
    <glyph glyph-name="ograve" unicode="&#xf2;" horiz-adv-x="795" 
d="M40 350c0 52 9.16797 100.666 27.501 145.999s43.5 84.5 75.5 117.5s69.667 59 113 78s90.333 28.5 141 28.5c52 0 99.833 -9.16699 143.5 -27.5s81.334 -44 113.001 -77s56.5 -72.167 74.5 -117.5s27 -94.666 27 -147.999c0 -52 -9.16699 -100.667 -27.5 -146
s-43.5 -84.5 -75.5 -117.5s-69.833 -59 -113.5 -78s-90.834 -28.5 -141.501 -28.5c-51.333 0 -98.833 9.33301 -142.5 28s-81.334 44.5 -113.001 77.5s-56.5 72 -74.5 117s-27 94.167 -27 147.5zM103.001 349.999c0 -46 7.33203 -88.333 21.999 -127s35 -71.834 61 -99.501
s57 -49.167 93 -64.5s75.333 -23 118 -23c42 0 80.833 7.83301 116.5 23.5s66.834 37.5 93.501 65.5s47.5 61.167 62.5 99.5s22.5 80.166 22.5 125.499c0 46 -7.33301 88.333 -22 127s-35 71.834 -61 99.501s-57.167 49.167 -93.5 64.5s-75.833 23 -118.5 23
c-41.333 0 -80 -7.83301 -116 -23.5s-67.167 -37.5 -93.5 -65.5s-47 -61.167 -62 -99.5s-22.5 -80.166 -22.5 -125.499zM331 849.999l101 -100h-60l-129 100h88z" />
    <glyph glyph-name="oacute" unicode="&#xf3;" horiz-adv-x="795" 
d="M40 350c0 52 9.16797 100.666 27.501 145.999s43.5 84.5 75.5 117.5s69.667 59 113 78s90.333 28.5 141 28.5c52 0 99.833 -9.16699 143.5 -27.5s81.334 -44 113.001 -77s56.5 -72.167 74.5 -117.5s27 -94.666 27 -147.999c0 -52 -9.16699 -100.667 -27.5 -146
s-43.5 -84.5 -75.5 -117.5s-69.833 -59 -113.5 -78s-90.834 -28.5 -141.501 -28.5c-51.333 0 -98.833 9.33301 -142.5 28s-81.334 44.5 -113.001 77.5s-56.5 72 -74.5 117s-27 94.167 -27 147.5zM103.001 349.999c0 -46 7.33203 -88.333 21.999 -127s35 -71.834 61 -99.501
s57 -49.167 93 -64.5s75.333 -23 118 -23c42 0 80.833 7.83301 116.5 23.5s66.834 37.5 93.501 65.5s47.5 61.167 62.5 99.5s22.5 80.166 22.5 125.499c0 46 -7.33301 88.333 -22 127s-35 71.834 -61 99.501s-57.167 49.167 -93.5 64.5s-75.833 23 -118.5 23
c-41.333 0 -80 -7.83301 -116 -23.5s-67.167 -37.5 -93.5 -65.5s-47 -61.167 -62 -99.5s-22.5 -80.166 -22.5 -125.499zM552 849.999l-129 -100h-60l101 100h88z" />
    <glyph glyph-name="ocircumflex" unicode="&#xf4;" horiz-adv-x="795" 
d="M40 350c0 52 9.16797 100.666 27.501 145.999s43.5 84.5 75.5 117.5s69.667 59 113 78s90.333 28.5 141 28.5c52 0 99.833 -9.16699 143.5 -27.5s81.334 -44 113.001 -77s56.5 -72.167 74.5 -117.5s27 -94.666 27 -147.999c0 -52 -9.16699 -100.667 -27.5 -146
s-43.5 -84.5 -75.5 -117.5s-69.833 -59 -113.5 -78s-90.834 -28.5 -141.501 -28.5c-51.333 0 -98.833 9.33301 -142.5 28s-81.334 44.5 -113.001 77.5s-56.5 72 -74.5 117s-27 94.167 -27 147.5zM103.001 349.999c0 -46 7.33203 -88.333 21.999 -127s35 -71.834 61 -99.501
s57 -49.167 93 -64.5s75.333 -23 118 -23c42 0 80.833 7.83301 116.5 23.5s66.834 37.5 93.501 65.5s47.5 61.167 62.5 99.5s22.5 80.166 22.5 125.499c0 46 -7.33301 88.333 -22 127s-35 71.834 -61 99.501s-57.167 49.167 -93.5 64.5s-75.833 23 -118.5 23
c-41.333 0 -80 -7.83301 -116 -23.5s-67.167 -37.5 -93.5 -65.5s-47 -61.167 -62 -99.5s-22.5 -80.166 -22.5 -125.499zM432 849.999l90 -100h-60l-65 59l-64 -59h-60l89 100h70z" />
    <glyph glyph-name="otilde" unicode="&#xf5;" horiz-adv-x="795" 
d="M40 350c0 52 9.16797 100.666 27.501 145.999s43.5 84.5 75.5 117.5s69.667 59 113 78s90.333 28.5 141 28.5c52 0 99.833 -9.16699 143.5 -27.5s81.334 -44 113.001 -77s56.5 -72.167 74.5 -117.5s27 -94.666 27 -147.999c0 -52 -9.16699 -100.667 -27.5 -146
s-43.5 -84.5 -75.5 -117.5s-69.833 -59 -113.5 -78s-90.834 -28.5 -141.501 -28.5c-51.333 0 -98.833 9.33301 -142.5 28s-81.334 44.5 -113.001 77.5s-56.5 72 -74.5 117s-27 94.167 -27 147.5zM103.001 349.999c0 -46 7.33203 -88.333 21.999 -127s35 -71.834 61 -99.501
s57 -49.167 93 -64.5s75.333 -23 118 -23c42 0 80.833 7.83301 116.5 23.5s66.834 37.5 93.501 65.5s47.5 61.167 62.5 99.5s22.5 80.166 22.5 125.499c0 46 -7.33301 88.333 -22 127s-35 71.834 -61 99.501s-57.167 49.167 -93.5 64.5s-75.833 23 -118.5 23
c-41.333 0 -80 -7.83301 -116 -23.5s-67.167 -37.5 -93.5 -65.5s-47 -61.167 -62 -99.5s-22.5 -80.166 -22.5 -125.499zM350 826.999c8.66699 0 17.333 -1.5 26 -4.5s17.167 -6.16699 25.5 -9.5l23.5 -9.5c7.33301 -3 13.666 -4.5 18.999 -4.5
c7.33301 0 13.5 1.66699 18.5 5s7.5 11 7.5 23h37c0 -28.667 -6 -48.667 -18 -60s-26.667 -17 -44 -17c-8 0 -16.333 1.5 -25 4.5s-17.167 6.33301 -25.5 10l-23 10c-7 3 -13.167 4.5 -18.5 4.5c-8 0 -14.667 -2.5 -20 -7.5s-8 -12.167 -8 -21.5h-38
c0 26.667 6.83301 46.167 20.5 58.5s27.834 18.5 42.501 18.5z" />
    <glyph glyph-name="odieresis" unicode="&#xf6;" horiz-adv-x="795" 
d="M40 350c0 52 9.16797 100.666 27.501 145.999s43.5 84.5 75.5 117.5s69.667 59 113 78s90.333 28.5 141 28.5c52 0 99.833 -9.16699 143.5 -27.5s81.334 -44 113.001 -77s56.5 -72.167 74.5 -117.5s27 -94.666 27 -147.999c0 -52 -9.16699 -100.667 -27.5 -146
s-43.5 -84.5 -75.5 -117.5s-69.833 -59 -113.5 -78s-90.834 -28.5 -141.501 -28.5c-51.333 0 -98.833 9.33301 -142.5 28s-81.334 44.5 -113.001 77.5s-56.5 72 -74.5 117s-27 94.167 -27 147.5zM103.001 349.999c0 -46 7.33203 -88.333 21.999 -127s35 -71.834 61 -99.501
s57 -49.167 93 -64.5s75.333 -23 118 -23c42 0 80.833 7.83301 116.5 23.5s66.834 37.5 93.501 65.5s47.5 61.167 62.5 99.5s22.5 80.166 22.5 125.499c0 46 -7.33301 88.333 -22 127s-35 71.834 -61 99.501s-57.167 49.167 -93.5 64.5s-75.833 23 -118.5 23
c-41.333 0 -80 -7.83301 -116 -23.5s-67.167 -37.5 -93.5 -65.5s-47 -61.167 -62 -99.5s-22.5 -80.166 -22.5 -125.499zM296 787.999c0 11.333 3.5 20.666 10.5 27.999s16.167 11 27.5 11s20.666 -3.66699 27.999 -11s11 -16.666 11 -27.999s-3.66699 -20.5 -11 -27.5
s-16.666 -10.5 -27.999 -10.5s-20.5 3.33301 -27.5 10s-10.5 16 -10.5 28zM422 787.999c0 11.333 3.5 20.666 10.5 27.999s16.167 11 27.5 11s20.666 -3.66699 27.999 -11s11 -16.666 11 -27.999s-3.66699 -20.5 -11 -27.5s-16.666 -10.5 -27.999 -10.5
s-20.5 3.33301 -27.5 10s-10.5 16 -10.5 28z" />
    <glyph glyph-name="divide" unicode="&#xf7;" horiz-adv-x="495" 
d="M40 322v51h415v-51h-415zM296 200c0 -13.333 -4.66699 -24.333 -14 -33s-20.333 -13 -33 -13c-13.333 0 -24.5 4.33301 -33.5 13s-13.5 19.667 -13.5 33c0 12.667 4.5 23.667 13.5 33s20.167 14 33.5 14c12.667 0 23.667 -4.66699 33 -14s14 -20.333 14 -33zM296 487
c0 -13.333 -4.66699 -24.333 -14 -33s-20.333 -13 -33 -13c-13.333 0 -24.5 4.33301 -33.5 13s-13.5 19.667 -13.5 33c0 12.667 4.5 23.667 13.5 33s20.167 14 33.5 14c12.667 0 23.667 -4.66699 33 -14s14 -20.333 14 -33z" />
    <glyph glyph-name="oslash" unicode="&#xf8;" horiz-adv-x="775" 
d="M614 650c44 -32.667 78.501 -74.832 103.501 -126.499s37.5 -109.5 37.5 -173.5c0 -52 -9.16699 -100.667 -27.5 -146s-43.5 -84.5 -75.5 -117.5s-69.833 -59 -113.5 -78s-90.834 -28.5 -141.501 -28.5c-36.667 0 -71.167 4.66699 -103.5 14
s-62.166 22.666 -89.499 39.999l-56 -84h-58l75 113c-39.333 33.333 -70 74.5 -92 123.5s-33 103.5 -33 163.5c0 52 9.16699 100.667 27.5 146s43.5 84.5 75.5 117.5s69.667 59 113 78s90.333 28.5 141 28.5c32.667 0 63.667 -3.83301 93 -11.5s56.666 -18.167 81.999 -31.5
l49 73h59zM692.001 350.002c0 54 -9.83301 102.334 -29.5 145.001s-46.834 78 -81.501 106l-345 -519c46 -30.667 99.667 -46 161 -46c42 0 80.833 7.83301 116.5 23.5s66.834 37.5 93.501 65.5s47.5 61.167 62.5 99.5s22.5 80.166 22.5 125.499zM103.001 350.003
c0 -50 8.16699 -95.168 24.5 -135.501s39.5 -74.5 69.5 -102.5l343 517c-20.667 11.333 -43 20 -67 26s-49.333 9 -76 9c-41.333 0 -80 -7.83301 -116 -23.5s-67.167 -37.5 -93.5 -65.5s-47 -61.167 -62 -99.5s-22.5 -80.166 -22.5 -125.499z" />
    <glyph glyph-name="ugrave" unicode="&#xf9;" horiz-adv-x="678" 
d="M554 500c0 14 -0.168945 30.335 -0.501953 49.002l-1 56.5c-0.333008 19 -0.666016 37 -0.999023 54s-0.833008 30.5 -1.5 40.5h68c-0.666992 -10 -1.16699 -23.5 -1.5 -40.5s-0.666016 -35 -0.999023 -54l-1 -56.5c-0.333008 -18.667 -0.5 -35 -0.5 -49v-300
c0 -12 0.166992 -27.333 0.5 -46l1 -57l1 -55.5c0.333008 -17.667 0.833008 -31.5 1.5 -41.5h-66c0.666992 9.33301 1 21.666 1 36.999s0.333008 31.666 1 48.999c-12 -10 -26.167 -20.833 -42.5 -32.5s-34.833 -22.167 -55.5 -31.5s-43.334 -17.166 -68.001 -23.499
s-51 -9.5 -79 -9.5c-36.667 0 -70.334 6.16699 -101.001 18.5s-57 30.333 -79 54s-39.167 52.667 -51.5 87s-18.5 73.5 -18.5 117.5v234c0 14 -0.166992 30.333 -0.5 49l-1 56.5c-0.333008 19 -0.666016 37 -0.999023 54s-0.833008 30.5 -1.5 40.5h68
c-0.666992 -10 -1.16699 -23.5 -1.5 -40.5s-0.666016 -35 -0.999023 -54l-1 -56.5c-0.333008 -18.667 -0.5 -35 -0.5 -49v-218c0 -41.333 5 -76.833 15 -106.5s23.5 -54.334 40.5 -74.001s37 -34.167 60 -43.5s47.833 -14 74.5 -14c36 0 68.333 4.66699 97 14
s53.167 20 73.5 32s36.833 24 49.5 36s21 20.667 25 26v48v300zM271.998 850.002l101 -100h-60l-129 100h88z" />
    <glyph glyph-name="uacute" unicode="&#xfa;" horiz-adv-x="678" 
d="M554 500c0 14 -0.168945 30.335 -0.501953 49.002l-1 56.5c-0.333008 19 -0.666016 37 -0.999023 54s-0.833008 30.5 -1.5 40.5h68c-0.666992 -10 -1.16699 -23.5 -1.5 -40.5s-0.666016 -35 -0.999023 -54l-1 -56.5c-0.333008 -18.667 -0.5 -35 -0.5 -49v-300
c0 -12 0.166992 -27.333 0.5 -46l1 -57l1 -55.5c0.333008 -17.667 0.833008 -31.5 1.5 -41.5h-66c0.666992 9.33301 1 21.666 1 36.999s0.333008 31.666 1 48.999c-12 -10 -26.167 -20.833 -42.5 -32.5s-34.833 -22.167 -55.5 -31.5s-43.334 -17.166 -68.001 -23.499
s-51 -9.5 -79 -9.5c-36.667 0 -70.334 6.16699 -101.001 18.5s-57 30.333 -79 54s-39.167 52.667 -51.5 87s-18.5 73.5 -18.5 117.5v234c0 14 -0.166992 30.333 -0.5 49l-1 56.5c-0.333008 19 -0.666016 37 -0.999023 54s-0.833008 30.5 -1.5 40.5h68
c-0.666992 -10 -1.16699 -23.5 -1.5 -40.5s-0.666016 -35 -0.999023 -54l-1 -56.5c-0.333008 -18.667 -0.5 -35 -0.5 -49v-218c0 -41.333 5 -76.833 15 -106.5s23.5 -54.334 40.5 -74.001s37 -34.167 60 -43.5s47.833 -14 74.5 -14c36 0 68.333 4.66699 97 14
s53.167 20 73.5 32s36.833 24 49.5 36s21 20.667 25 26v48v300zM492.998 850.002l-129 -100h-60l101 100h88z" />
    <glyph glyph-name="ucircumflex" unicode="&#xfb;" horiz-adv-x="678" 
d="M554 500c0 14 -0.168945 30.335 -0.501953 49.002l-1 56.5c-0.333008 19 -0.666016 37 -0.999023 54s-0.833008 30.5 -1.5 40.5h68c-0.666992 -10 -1.16699 -23.5 -1.5 -40.5s-0.666016 -35 -0.999023 -54l-1 -56.5c-0.333008 -18.667 -0.5 -35 -0.5 -49v-300
c0 -12 0.166992 -27.333 0.5 -46l1 -57l1 -55.5c0.333008 -17.667 0.833008 -31.5 1.5 -41.5h-66c0.666992 9.33301 1 21.666 1 36.999s0.333008 31.666 1 48.999c-12 -10 -26.167 -20.833 -42.5 -32.5s-34.833 -22.167 -55.5 -31.5s-43.334 -17.166 -68.001 -23.499
s-51 -9.5 -79 -9.5c-36.667 0 -70.334 6.16699 -101.001 18.5s-57 30.333 -79 54s-39.167 52.667 -51.5 87s-18.5 73.5 -18.5 117.5v234c0 14 -0.166992 30.333 -0.5 49l-1 56.5c-0.333008 19 -0.666016 37 -0.999023 54s-0.833008 30.5 -1.5 40.5h68
c-0.666992 -10 -1.16699 -23.5 -1.5 -40.5s-0.666016 -35 -0.999023 -54l-1 -56.5c-0.333008 -18.667 -0.5 -35 -0.5 -49v-218c0 -41.333 5 -76.833 15 -106.5s23.5 -54.334 40.5 -74.001s37 -34.167 60 -43.5s47.833 -14 74.5 -14c36 0 68.333 4.66699 97 14
s53.167 20 73.5 32s36.833 24 49.5 36s21 20.667 25 26v48v300zM372.998 850.002l90 -100h-60l-65 59l-64 -59h-60l89 100h70z" />
    <glyph glyph-name="udieresis" unicode="&#xfc;" horiz-adv-x="678" 
d="M554 500c0 14 -0.168945 30.335 -0.501953 49.002l-1 56.5c-0.333008 19 -0.666016 37 -0.999023 54s-0.833008 30.5 -1.5 40.5h68c-0.666992 -10 -1.16699 -23.5 -1.5 -40.5s-0.666016 -35 -0.999023 -54l-1 -56.5c-0.333008 -18.667 -0.5 -35 -0.5 -49v-300
c0 -12 0.166992 -27.333 0.5 -46l1 -57l1 -55.5c0.333008 -17.667 0.833008 -31.5 1.5 -41.5h-66c0.666992 9.33301 1 21.666 1 36.999s0.333008 31.666 1 48.999c-12 -10 -26.167 -20.833 -42.5 -32.5s-34.833 -22.167 -55.5 -31.5s-43.334 -17.166 -68.001 -23.499
s-51 -9.5 -79 -9.5c-36.667 0 -70.334 6.16699 -101.001 18.5s-57 30.333 -79 54s-39.167 52.667 -51.5 87s-18.5 73.5 -18.5 117.5v234c0 14 -0.166992 30.333 -0.5 49l-1 56.5c-0.333008 19 -0.666016 37 -0.999023 54s-0.833008 30.5 -1.5 40.5h68
c-0.666992 -10 -1.16699 -23.5 -1.5 -40.5s-0.666016 -35 -0.999023 -54l-1 -56.5c-0.333008 -18.667 -0.5 -35 -0.5 -49v-218c0 -41.333 5 -76.833 15 -106.5s23.5 -54.334 40.5 -74.001s37 -34.167 60 -43.5s47.833 -14 74.5 -14c36 0 68.333 4.66699 97 14
s53.167 20 73.5 32s36.833 24 49.5 36s21 20.667 25 26v48v300zM236.998 788.002c0 11.333 3.5 20.666 10.5 27.999s16.167 11 27.5 11s20.666 -3.66699 27.999 -11s11 -16.666 11 -27.999s-3.66699 -20.5 -11 -27.5s-16.666 -10.5 -27.999 -10.5s-20.5 3.33301 -27.5 10
s-10.5 16 -10.5 28zM362.998 788.002c0 11.333 3.5 20.666 10.5 27.999s16.167 11 27.5 11s20.666 -3.66699 27.999 -11s11 -16.666 11 -27.999s-3.66699 -20.5 -11 -27.5s-16.666 -10.5 -27.999 -10.5s-20.5 3.33301 -27.5 10s-10.5 16 -10.5 28z" />
    <glyph glyph-name="yacute" unicode="&#xfd;" horiz-adv-x="706" 
d="M189 -150c6.66699 11.333 16.168 28.5 28.501 51.5l36.5 69.5l44 87l-194 442l-38 85l-32 67c-10.667 22 -18.667 38 -24 48h77c3.33301 -10 9.66602 -26 18.999 -48l28 -67l37 -85l166 -376l190 376l42 85l33 67c10.667 22 18 38 22 48h72c-6 -10 -15 -26 -27 -48
l-35 -67l-43 -85l-264 -520c-8.66699 -16 -16.667 -32 -24 -48l-20.5 -42.5l-18.5 -39.5h-75zM497.001 850l-129 -100h-60l101 100h88z" />
    <glyph glyph-name="thorn" unicode="&#xfe;" horiz-adv-x="444" 
d="M64 500c0 14 -0.169922 30.332 -0.50293 48.999l-1 56.5c-0.333008 19 -0.666016 37 -0.999023 54s-0.833008 30.5 -1.5 40.5h68c-1.33301 -15.333 -2.33301 -37.333 -3 -66s-1 -56.667 -1 -84h80c30 0 57.833 -4.33301 83.5 -13s47.834 -21.167 66.501 -37.5
s33.334 -36 44.001 -59s16 -48.5 16 -76.5c0 -32.667 -5.16699 -61.167 -15.5 -85.5s-24.666 -44.5 -42.999 -60.5s-40.5 -28 -66.5 -36s-55 -12 -87 -12h-78c0 -14 0.166992 -29.167 0.5 -45.5l1 -48c0.333008 -15.667 0.666016 -30.334 0.999023 -44.001
s0.833008 -24.5 1.5 -32.5h-68l2 58c0.666992 16.667 1.16699 34.334 1.5 53.001s0.5 36.334 0.5 53.001v336zM353.997 363.999c0 45.333 -14.5 79.501 -43.5 102.501s-65.5 34.5 -109.5 34.5h-77v-281h78c22.667 0 43.334 2.5 62.001 7.5s34.667 13.167 48 24.5
s23.666 26.166 30.999 44.499s11 40.833 11 67.5z" />
    <glyph glyph-name="ydieresis" unicode="&#xff;" horiz-adv-x="706" 
d="M189 -150c6.66699 11.333 16.168 28.5 28.501 51.5l36.5 69.5l44 87l-194 442l-38 85l-32 67c-10.667 22 -18.667 38 -24 48h77c3.33301 -10 9.66602 -26 18.999 -48l28 -67l37 -85l166 -376l190 376l42 85l33 67c10.667 22 18 38 22 48h72c-6 -10 -15 -26 -27 -48
l-35 -67l-43 -85l-264 -520c-8.66699 -16 -16.667 -32 -24 -48l-20.5 -42.5l-18.5 -39.5h-75zM252.001 759c0 11.333 3.5 20.666 10.5 27.999s16.167 11 27.5 11s20.666 -3.66699 27.999 -11s11 -16.666 11 -27.999s-3.66699 -20.5 -11 -27.5s-16.666 -10.5 -27.999 -10.5
s-20.5 3.33301 -27.5 10s-10.5 16 -10.5 28zM378.001 759c0 11.333 3.5 20.666 10.5 27.999s16.167 11 27.5 11s20.666 -3.66699 27.999 -11s11 -16.666 11 -27.999s-3.66699 -20.5 -11 -27.5s-16.666 -10.5 -27.999 -10.5s-20.5 3.33301 -27.5 10s-10.5 16 -10.5 28z" />
    <glyph glyph-name="Amacron" unicode="&#x100;" horiz-adv-x="727" 
d="M547 194l-369.001 0.000976562l-42 -93l-11.5 -26l-8.5 -19.5l-9.5 -22l-14.5 -33.5h-82c5.33301 8.66699 12.833 22.167 22.5 40.5l30 58.5l29.5 58.5c9.33301 18.333 16 32.166 20 41.499l253 526l250 -525l25 -51.5l30 -60.5l28 -54.5
c8.66699 -16.333 15 -27.5 19 -33.5h-87c-7.33301 20 -14.666 38.833 -21.999 56.5l-21 49.5zM201.999 246.001h322l-161 349zM257.999 816.001h212v-56h-212v56z" />
    <glyph glyph-name="amacron" unicode="&#x101;" horiz-adv-x="727" 
d="M547 194l-369.001 0.000976562l-42 -93l-11.5 -26l-8.5 -19.5l-9.5 -22l-14.5 -33.5h-82c5.33301 8.66699 12.833 22.167 22.5 40.5l30 58.5l29.5 58.5c9.33301 18.333 16 32.166 20 41.499l253 526l250 -525l25 -51.5l30 -60.5l28 -54.5
c8.66699 -16.333 15 -27.5 19 -33.5h-87c-7.33301 20 -14.666 38.833 -21.999 56.5l-21 49.5zM201.999 246.001h322l-161 349zM257.999 816.001h212v-56h-212v56z" />
    <glyph glyph-name="Abreve" unicode="&#x102;" horiz-adv-x="727" 
d="M547 194l-369.001 0.000976562l-42 -93l-11.5 -26l-8.5 -19.5l-9.5 -22l-14.5 -33.5h-82c5.33301 8.66699 12.833 22.167 22.5 40.5l30 58.5l29.5 58.5c9.33301 18.333 16 32.166 20 41.499l253 526l250 -525l25 -51.5l30 -60.5l28 -54.5
c8.66699 -16.333 15 -27.5 19 -33.5h-87c-7.33301 20 -14.666 38.833 -21.999 56.5l-21 49.5zM201.999 246.001h322l-161 349zM475.999 833.001c-2.66699 -10.667 -6.66992 -20.999 -12.0029 -30.999s-12.166 -18.833 -20.499 -26.5s-18.666 -13.834 -30.999 -18.501
s-26.5 -7 -42.5 -7c-32 0 -56.333 8.5 -73 25.5s-27.667 36.167 -33 57.5h50c3.33301 -10.667 8.33301 -20 15 -28s20.334 -12 41.001 -12s34.5 4.16699 41.5 12.5s12.167 17.5 15.5 27.5h49z" />
    <glyph glyph-name="abreve" unicode="&#x103;" horiz-adv-x="727" 
d="M547 194l-369.001 0.000976562l-42 -93l-11.5 -26l-8.5 -19.5l-9.5 -22l-14.5 -33.5h-82c5.33301 8.66699 12.833 22.167 22.5 40.5l30 58.5l29.5 58.5c9.33301 18.333 16 32.166 20 41.499l253 526l250 -525l25 -51.5l30 -60.5l28 -54.5
c8.66699 -16.333 15 -27.5 19 -33.5h-87c-7.33301 20 -14.666 38.833 -21.999 56.5l-21 49.5zM201.999 246.001h322l-161 349zM475.999 833.001c-2.66699 -10.667 -6.66992 -20.999 -12.0029 -30.999s-12.166 -18.833 -20.499 -26.5s-18.666 -13.834 -30.999 -18.501
s-26.5 -7 -42.5 -7c-32 0 -56.333 8.5 -73 25.5s-27.667 36.167 -33 57.5h50c3.33301 -10.667 8.33301 -20 15 -28s20.334 -12 41.001 -12s34.5 4.16699 41.5 12.5s12.167 17.5 15.5 27.5h49z" />
    <glyph glyph-name="Aogonek" unicode="&#x104;" horiz-adv-x="737" 
d="M727 -166c-9.33301 -4 -19.665 -7.33008 -30.998 -9.99707s-26 -4 -44 -4c-12.667 0 -25 1.16699 -37 3.5s-22.667 6.16602 -32 11.499s-16.833 12.333 -22.5 21s-8.5 19.334 -8.5 32.001c0 23.333 6.16699 44.166 18.5 62.499s31.5 36.166 57.5 53.499
c-14.667 39.333 -28.334 73.333 -41.001 102l-40 88h-369l-42 -93l-11.5 -26l-8.5 -19.5l-9.5 -22l-14.5 -33.5h-82c5.33301 8.66699 12.833 22.167 22.5 40.5l30 58.5l29.5 58.5c9.33301 18.333 16 32.166 20 41.499l253 526l250 -525l25 -51.5l30 -60.5l28 -54.5
c8.66699 -16.333 15 -27.5 19 -33.5h-50c-6.66699 -6 -13.5 -12.5 -20.5 -19.5s-13.5 -14.5 -19.5 -22.5s-10.833 -16.167 -14.5 -24.5s-5.5 -16.833 -5.5 -25.5c0 -18.667 5.66699 -31.167 17 -37.5s24.666 -9.5 39.999 -9.5c10.667 0 21.5 1.33301 32.5 4
s21.167 5.66699 30.5 9v-40zM202.001 246.003h322l-161 349z" />
    <glyph glyph-name="aogonek" unicode="&#x105;" horiz-adv-x="737" 
d="M727 -166c-9.33301 -4 -19.665 -7.33008 -30.998 -9.99707s-26 -4 -44 -4c-12.667 0 -25 1.16699 -37 3.5s-22.667 6.16602 -32 11.499s-16.833 12.333 -22.5 21s-8.5 19.334 -8.5 32.001c0 23.333 6.16699 44.166 18.5 62.499s31.5 36.166 57.5 53.499
c-14.667 39.333 -28.334 73.333 -41.001 102l-40 88h-369l-42 -93l-11.5 -26l-8.5 -19.5l-9.5 -22l-14.5 -33.5h-82c5.33301 8.66699 12.833 22.167 22.5 40.5l30 58.5l29.5 58.5c9.33301 18.333 16 32.166 20 41.499l253 526l250 -525l25 -51.5l30 -60.5l28 -54.5
c8.66699 -16.333 15 -27.5 19 -33.5h-50c-6.66699 -6 -13.5 -12.5 -20.5 -19.5s-13.5 -14.5 -19.5 -22.5s-10.833 -16.167 -14.5 -24.5s-5.5 -16.833 -5.5 -25.5c0 -18.667 5.66699 -31.167 17 -37.5s24.666 -9.5 39.999 -9.5c10.667 0 21.5 1.33301 32.5 4
s21.167 5.66699 30.5 9v-40zM202.001 246.003h322l-161 349z" />
    <glyph glyph-name="Cacute" unicode="&#x106;" horiz-adv-x="690" 
d="M640 34c-7.33301 -4 -18.5029 -8.99805 -33.5029 -14.998s-32.5 -12 -52.5 -18s-42.167 -11 -66.5 -15s-49.833 -6 -76.5 -6c-56 0 -106.833 9.33301 -152.5 28s-84.667 44.5 -117 77.5s-57.333 72.167 -75 117.5s-26.5 94.666 -26.5 147.999
c0 52 9.16699 100.5 27.5 145.5s44 84 77 117s72.167 59 117.5 78s95 28.5 149 28.5c26.667 0 50.834 -1.83301 72.501 -5.5s41.334 -8.16699 59.001 -13.5s33.667 -10.833 48 -16.5l38.5 -15.5v-74c-9.33301 6 -21.333 12.833 -36 20.5s-31.5 15.167 -50.5 22.5
s-39.667 13.5 -62 18.5s-45.5 7.5 -69.5 7.5c-41.333 0 -80.666 -7.16699 -117.999 -21.5s-70 -34.833 -98 -61.5s-50.333 -59.5 -67 -98.5s-25 -82.833 -25 -131.5c0 -46 7.33301 -88.333 22 -127s35.5 -72 62.5 -100s59.5 -49.667 97.5 -65s80 -23 126 -23
c28 0 54.5 3 79.5 9s47.5 13.167 67.5 21.5s37.167 16.666 51.5 24.999s24.5 14.5 30.5 18.5v-76zM553.997 860.002l-129 -100h-60l101 100h88z" />
    <glyph glyph-name="cacute" unicode="&#x107;" horiz-adv-x="690" 
d="M640 34c-7.33301 -4 -18.5029 -8.99805 -33.5029 -14.998s-32.5 -12 -52.5 -18s-42.167 -11 -66.5 -15s-49.833 -6 -76.5 -6c-56 0 -106.833 9.33301 -152.5 28s-84.667 44.5 -117 77.5s-57.333 72.167 -75 117.5s-26.5 94.666 -26.5 147.999
c0 52 9.16699 100.5 27.5 145.5s44 84 77 117s72.167 59 117.5 78s95 28.5 149 28.5c26.667 0 50.834 -1.83301 72.501 -5.5s41.334 -8.16699 59.001 -13.5s33.667 -10.833 48 -16.5l38.5 -15.5v-74c-9.33301 6 -21.333 12.833 -36 20.5s-31.5 15.167 -50.5 22.5
s-39.667 13.5 -62 18.5s-45.5 7.5 -69.5 7.5c-41.333 0 -80.666 -7.16699 -117.999 -21.5s-70 -34.833 -98 -61.5s-50.333 -59.5 -67 -98.5s-25 -82.833 -25 -131.5c0 -46 7.33301 -88.333 22 -127s35.5 -72 62.5 -100s59.5 -49.667 97.5 -65s80 -23 126 -23
c28 0 54.5 3 79.5 9s47.5 13.167 67.5 21.5s37.167 16.666 51.5 24.999s24.5 14.5 30.5 18.5v-76zM553.997 860.002l-129 -100h-60l101 100h88z" />
    <glyph glyph-name="Ccircumflex" unicode="&#x108;" horiz-adv-x="690" 
d="M640 34c-7.33301 -4 -18.5029 -8.99805 -33.5029 -14.998s-32.5 -12 -52.5 -18s-42.167 -11 -66.5 -15s-49.833 -6 -76.5 -6c-56 0 -106.833 9.33301 -152.5 28s-84.667 44.5 -117 77.5s-57.333 72.167 -75 117.5s-26.5 94.666 -26.5 147.999
c0 52 9.16699 100.5 27.5 145.5s44 84 77 117s72.167 59 117.5 78s95 28.5 149 28.5c26.667 0 50.834 -1.83301 72.501 -5.5s41.334 -8.16699 59.001 -13.5s33.667 -10.833 48 -16.5l38.5 -15.5v-74c-9.33301 6 -21.333 12.833 -36 20.5s-31.5 15.167 -50.5 22.5
s-39.667 13.5 -62 18.5s-45.5 7.5 -69.5 7.5c-41.333 0 -80.666 -7.16699 -117.999 -21.5s-70 -34.833 -98 -61.5s-50.333 -59.5 -67 -98.5s-25 -82.833 -25 -131.5c0 -46 7.33301 -88.333 22 -127s35.5 -72 62.5 -100s59.5 -49.667 97.5 -65s80 -23 126 -23
c28 0 54.5 3 79.5 9s47.5 13.167 67.5 21.5s37.167 16.666 51.5 24.999s24.5 14.5 30.5 18.5v-76zM449.997 850.002l90 -100h-60l-65 59l-64 -59h-60l89 100h70z" />
    <glyph glyph-name="ccircumflex" unicode="&#x109;" horiz-adv-x="690" 
d="M640 34c-7.33301 -4 -18.5029 -8.99805 -33.5029 -14.998s-32.5 -12 -52.5 -18s-42.167 -11 -66.5 -15s-49.833 -6 -76.5 -6c-56 0 -106.833 9.33301 -152.5 28s-84.667 44.5 -117 77.5s-57.333 72.167 -75 117.5s-26.5 94.666 -26.5 147.999
c0 52 9.16699 100.5 27.5 145.5s44 84 77 117s72.167 59 117.5 78s95 28.5 149 28.5c26.667 0 50.834 -1.83301 72.501 -5.5s41.334 -8.16699 59.001 -13.5s33.667 -10.833 48 -16.5l38.5 -15.5v-74c-9.33301 6 -21.333 12.833 -36 20.5s-31.5 15.167 -50.5 22.5
s-39.667 13.5 -62 18.5s-45.5 7.5 -69.5 7.5c-41.333 0 -80.666 -7.16699 -117.999 -21.5s-70 -34.833 -98 -61.5s-50.333 -59.5 -67 -98.5s-25 -82.833 -25 -131.5c0 -46 7.33301 -88.333 22 -127s35.5 -72 62.5 -100s59.5 -49.667 97.5 -65s80 -23 126 -23
c28 0 54.5 3 79.5 9s47.5 13.167 67.5 21.5s37.167 16.666 51.5 24.999s24.5 14.5 30.5 18.5v-76zM449.997 850.002l90 -100h-60l-65 59l-64 -59h-60l89 100h70z" />
    <glyph glyph-name="Cdotaccent" unicode="&#x10a;" horiz-adv-x="690" 
d="M640 34c-7.33301 -4 -18.5029 -8.99805 -33.5029 -14.998s-32.5 -12 -52.5 -18s-42.167 -11 -66.5 -15s-49.833 -6 -76.5 -6c-56 0 -106.833 9.33301 -152.5 28s-84.667 44.5 -117 77.5s-57.333 72.167 -75 117.5s-26.5 94.666 -26.5 147.999
c0 52 9.16699 100.5 27.5 145.5s44 84 77 117s72.167 59 117.5 78s95 28.5 149 28.5c26.667 0 50.834 -1.83301 72.501 -5.5s41.334 -8.16699 59.001 -13.5s33.667 -10.833 48 -16.5l38.5 -15.5v-74c-9.33301 6 -21.333 12.833 -36 20.5s-31.5 15.167 -50.5 22.5
s-39.667 13.5 -62 18.5s-45.5 7.5 -69.5 7.5c-41.333 0 -80.666 -7.16699 -117.999 -21.5s-70 -34.833 -98 -61.5s-50.333 -59.5 -67 -98.5s-25 -82.833 -25 -131.5c0 -46 7.33301 -88.333 22 -127s35.5 -72 62.5 -100s59.5 -49.667 97.5 -65s80 -23 126 -23
c28 0 54.5 3 79.5 9s47.5 13.167 67.5 21.5s37.167 16.666 51.5 24.999s24.5 14.5 30.5 18.5v-76zM357.997 796.002c0 11.333 3.5 20.666 10.5 27.999s16.167 11 27.5 11s20.666 -3.66699 27.999 -11s11 -16.666 11 -27.999s-3.66699 -20.5 -11 -27.5
s-16.666 -10.5 -27.999 -10.5s-20.5 3.33301 -27.5 10s-10.5 16 -10.5 28z" />
    <glyph glyph-name="cdotaccent" unicode="&#x10b;" horiz-adv-x="690" 
d="M640 34c-7.33301 -4 -18.5029 -8.99805 -33.5029 -14.998s-32.5 -12 -52.5 -18s-42.167 -11 -66.5 -15s-49.833 -6 -76.5 -6c-56 0 -106.833 9.33301 -152.5 28s-84.667 44.5 -117 77.5s-57.333 72.167 -75 117.5s-26.5 94.666 -26.5 147.999
c0 52 9.16699 100.5 27.5 145.5s44 84 77 117s72.167 59 117.5 78s95 28.5 149 28.5c26.667 0 50.834 -1.83301 72.501 -5.5s41.334 -8.16699 59.001 -13.5s33.667 -10.833 48 -16.5l38.5 -15.5v-74c-9.33301 6 -21.333 12.833 -36 20.5s-31.5 15.167 -50.5 22.5
s-39.667 13.5 -62 18.5s-45.5 7.5 -69.5 7.5c-41.333 0 -80.666 -7.16699 -117.999 -21.5s-70 -34.833 -98 -61.5s-50.333 -59.5 -67 -98.5s-25 -82.833 -25 -131.5c0 -46 7.33301 -88.333 22 -127s35.5 -72 62.5 -100s59.5 -49.667 97.5 -65s80 -23 126 -23
c28 0 54.5 3 79.5 9s47.5 13.167 67.5 21.5s37.167 16.666 51.5 24.999s24.5 14.5 30.5 18.5v-76zM357.997 796.002c0 11.333 3.5 20.666 10.5 27.999s16.167 11 27.5 11s20.666 -3.66699 27.999 -11s11 -16.666 11 -27.999s-3.66699 -20.5 -11 -27.5
s-16.666 -10.5 -27.999 -10.5s-20.5 3.33301 -27.5 10s-10.5 16 -10.5 28z" />
    <glyph glyph-name="Ccaron" unicode="&#x10c;" horiz-adv-x="690" 
d="M640 34c-7.33301 -4 -18.5029 -8.99805 -33.5029 -14.998s-32.5 -12 -52.5 -18s-42.167 -11 -66.5 -15s-49.833 -6 -76.5 -6c-56 0 -106.833 9.33301 -152.5 28s-84.667 44.5 -117 77.5s-57.333 72.167 -75 117.5s-26.5 94.666 -26.5 147.999
c0 52 9.16699 100.5 27.5 145.5s44 84 77 117s72.167 59 117.5 78s95 28.5 149 28.5c26.667 0 50.834 -1.83301 72.501 -5.5s41.334 -8.16699 59.001 -13.5s33.667 -10.833 48 -16.5l38.5 -15.5v-74c-9.33301 6 -21.333 12.833 -36 20.5s-31.5 15.167 -50.5 22.5
s-39.667 13.5 -62 18.5s-45.5 7.5 -69.5 7.5c-41.333 0 -80.666 -7.16699 -117.999 -21.5s-70 -34.833 -98 -61.5s-50.333 -59.5 -67 -98.5s-25 -82.833 -25 -131.5c0 -46 7.33301 -88.333 22 -127s35.5 -72 62.5 -100s59.5 -49.667 97.5 -65s80 -23 126 -23
c28 0 54.5 3 79.5 9s47.5 13.167 67.5 21.5s37.167 16.666 51.5 24.999s24.5 14.5 30.5 18.5v-76zM360.997 760.002l-90 100h60l65 -59l64 59h60l-89 -100h-70z" />
    <glyph glyph-name="ccaron" unicode="&#x10d;" horiz-adv-x="690" 
d="M640 34c-7.33301 -4 -18.5029 -8.99805 -33.5029 -14.998s-32.5 -12 -52.5 -18s-42.167 -11 -66.5 -15s-49.833 -6 -76.5 -6c-56 0 -106.833 9.33301 -152.5 28s-84.667 44.5 -117 77.5s-57.333 72.167 -75 117.5s-26.5 94.666 -26.5 147.999
c0 52 9.16699 100.5 27.5 145.5s44 84 77 117s72.167 59 117.5 78s95 28.5 149 28.5c26.667 0 50.834 -1.83301 72.501 -5.5s41.334 -8.16699 59.001 -13.5s33.667 -10.833 48 -16.5l38.5 -15.5v-74c-9.33301 6 -21.333 12.833 -36 20.5s-31.5 15.167 -50.5 22.5
s-39.667 13.5 -62 18.5s-45.5 7.5 -69.5 7.5c-41.333 0 -80.666 -7.16699 -117.999 -21.5s-70 -34.833 -98 -61.5s-50.333 -59.5 -67 -98.5s-25 -82.833 -25 -131.5c0 -46 7.33301 -88.333 22 -127s35.5 -72 62.5 -100s59.5 -49.667 97.5 -65s80 -23 126 -23
c28 0 54.5 3 79.5 9s47.5 13.167 67.5 21.5s37.167 16.666 51.5 24.999s24.5 14.5 30.5 18.5v-76zM360.997 760.002l-90 100h60l65 -59l64 59h60l-89 -100h-70z" />
    <glyph glyph-name="Dcaron" unicode="&#x10e;" horiz-adv-x="671" 
d="M568 347c0 48.667 -9 91.667 -27 129s-42.167 68.5 -72.5 93.5s-65.333 44 -105 57s-81.5 19.5 -125.5 19.5h-114v-592h115c44 0 85.833 6 125.5 18s74.5 30.167 104.5 54.5s54 54.833 72 91.5s27 79.667 27 129zM631 347c0 -52 -9.33594 -99.1631 -28.0029 -141.496
s-45 -78.833 -79 -109.5s-75.167 -54.334 -123.5 -71.001s-102.166 -25 -161.499 -25h-179c0.666992 14 1.16699 32.333 1.5 55s0.833008 44.667 1.5 66c0.666992 25.333 1 51.666 1 78.999v300c0 30 -0.333008 58.333 -1 85c-0.666992 22.667 -1.16699 45 -1.5 67
s-0.833008 38 -1.5 48h178c46.667 0 93.334 -6.83301 140.001 -20.5s88.834 -34.834 126.501 -63.501s68.167 -65.334 91.5 -110.001s35 -97.667 35 -159zM274.997 750.004l-90 100h60l65 -59l64 59h60l-89 -100h-70z" />
    <glyph glyph-name="dcaron" unicode="&#x10f;" horiz-adv-x="671" 
d="M568 347c0 48.667 -9 91.667 -27 129s-42.167 68.5 -72.5 93.5s-65.333 44 -105 57s-81.5 19.5 -125.5 19.5h-114v-592h115c44 0 85.833 6 125.5 18s74.5 30.167 104.5 54.5s54 54.833 72 91.5s27 79.667 27 129zM631 347c0 -52 -9.33594 -99.1631 -28.0029 -141.496
s-45 -78.833 -79 -109.5s-75.167 -54.334 -123.5 -71.001s-102.166 -25 -161.499 -25h-179c0.666992 14 1.16699 32.333 1.5 55s0.833008 44.667 1.5 66c0.666992 25.333 1 51.666 1 78.999v300c0 30 -0.333008 58.333 -1 85c-0.666992 22.667 -1.16699 45 -1.5 67
s-0.833008 38 -1.5 48h178c46.667 0 93.334 -6.83301 140.001 -20.5s88.834 -34.834 126.501 -63.501s68.167 -65.334 91.5 -110.001s35 -97.667 35 -159zM274.997 750.004l-90 100h60l65 -59l64 59h60l-89 -100h-70z" />
    <glyph glyph-name="Dcroat" unicode="&#x110;" horiz-adv-x="721" 
d="M681 347c0 -52 -9.33594 -99.1631 -28.0029 -141.496s-45 -78.833 -79 -109.5s-75.167 -54.334 -123.5 -71.001s-102.166 -25 -161.499 -25h-179c0.666992 14 1.16699 32.333 1.5 55s0.833008 44.667 1.5 66c0.666992 25.333 1 51.666 1 78.999v132h-94v54h94v114
c0 30 -0.333008 58.333 -1 85c-0.666992 22.667 -1.16699 45 -1.5 67s-0.833008 38 -1.5 48h178c46.667 0 93.334 -6.83301 140.001 -20.5s88.834 -34.834 126.501 -63.501s68.167 -65.334 91.5 -110.001s35 -97.667 35 -159zM617.997 347.004c0 48.667 -9 91.667 -27 129
s-42.167 68.5 -72.5 93.5s-65.333 44 -105 57s-81.5 19.5 -125.5 19.5h-114v-260h218v-54h-218v-278h115c44 0 85.833 6 125.5 18s74.5 30.167 104.5 54.5s54 54.833 72 91.5s27 79.667 27 129z" />
    <glyph glyph-name="dcroat" unicode="&#x111;" horiz-adv-x="721" 
d="M681 347c0 -52 -9.33594 -99.1631 -28.0029 -141.496s-45 -78.833 -79 -109.5s-75.167 -54.334 -123.5 -71.001s-102.166 -25 -161.499 -25h-179c0.666992 14 1.16699 32.333 1.5 55s0.833008 44.667 1.5 66c0.666992 25.333 1 51.666 1 78.999v132h-94v54h94v114
c0 30 -0.333008 58.333 -1 85c-0.666992 22.667 -1.16699 45 -1.5 67s-0.833008 38 -1.5 48h178c46.667 0 93.334 -6.83301 140.001 -20.5s88.834 -34.834 126.501 -63.501s68.167 -65.334 91.5 -110.001s35 -97.667 35 -159zM617.997 347.004c0 48.667 -9 91.667 -27 129
s-42.167 68.5 -72.5 93.5s-65.333 44 -105 57s-81.5 19.5 -125.5 19.5h-114v-260h218v-54h-218v-278h115c44 0 85.833 6 125.5 18s74.5 30.167 104.5 54.5s54 54.833 72 91.5s27 79.667 27 129z" />
    <glyph glyph-name="Emacron" unicode="&#x112;" 
d="M64 500c0 12 -0.166016 27.3379 -0.499023 46.0049l-1 57l-1 55.5c-0.333008 17.667 -0.833008 31.5 -1.5 41.5h47h88.5c25 0 46.833 0.166992 65.5 0.5s34.667 0.833008 48 1.5s24.666 1.33398 33.999 2.00098v-62c-18.667 1.33301 -45.334 2.33301 -80.001 3
s-81 1 -139 1v-253c32.667 0 60.334 0.166992 83.001 0.5s42 0.666016 58 0.999023s29.5 0.666016 40.5 0.999023s21.5 0.833008 31.5 1.5v-62c-10 0.666992 -20.333 1.16699 -31 1.5s-23.667 0.666016 -39 0.999023s-34.5 0.666016 -57.5 0.999023s-51.5 0.5 -85.5 0.5
v-285h120c14 0 28.833 0.166992 44.5 0.5l47 1c15.667 0.333008 30.5 0.666016 44.5 0.999023s26 0.833008 36 1.5v-62c-10 0.666992 -22 1.16699 -36 1.5s-28.833 0.666016 -44.5 0.999023l-47 1c-15.667 0.333008 -30.5 0.5 -44.5 0.5h-184
c0.666992 10 1.16699 23.833 1.5 41.5l1 55.5l1 57c0.333008 18.667 0.5 34 0.5 46v300zM101.001 816.005h212v-56h-212v56z" />
    <glyph glyph-name="emacron" unicode="&#x113;" 
d="M64 500c0 12 -0.166016 27.3379 -0.499023 46.0049l-1 57l-1 55.5c-0.333008 17.667 -0.833008 31.5 -1.5 41.5h47h88.5c25 0 46.833 0.166992 65.5 0.5s34.667 0.833008 48 1.5s24.666 1.33398 33.999 2.00098v-62c-18.667 1.33301 -45.334 2.33301 -80.001 3
s-81 1 -139 1v-253c32.667 0 60.334 0.166992 83.001 0.5s42 0.666016 58 0.999023s29.5 0.666016 40.5 0.999023s21.5 0.833008 31.5 1.5v-62c-10 0.666992 -20.333 1.16699 -31 1.5s-23.667 0.666016 -39 0.999023s-34.5 0.666016 -57.5 0.999023s-51.5 0.5 -85.5 0.5
v-285h120c14 0 28.833 0.166992 44.5 0.5l47 1c15.667 0.333008 30.5 0.666016 44.5 0.999023s26 0.833008 36 1.5v-62c-10 0.666992 -22 1.16699 -36 1.5s-28.833 0.666016 -44.5 0.999023l-47 1c-15.667 0.333008 -30.5 0.5 -44.5 0.5h-184
c0.666992 10 1.16699 23.833 1.5 41.5l1 55.5l1 57c0.333008 18.667 0.5 34 0.5 46v300zM101.001 816.005h212v-56h-212v56z" />
    <glyph glyph-name="Ebreve" unicode="&#x114;" 
d="M64 500c0 12 -0.166016 27.3379 -0.499023 46.0049l-1 57l-1 55.5c-0.333008 17.667 -0.833008 31.5 -1.5 41.5h47h88.5c25 0 46.833 0.166992 65.5 0.5s34.667 0.833008 48 1.5s24.666 1.33398 33.999 2.00098v-62c-18.667 1.33301 -45.334 2.33301 -80.001 3
s-81 1 -139 1v-253c32.667 0 60.334 0.166992 83.001 0.5s42 0.666016 58 0.999023s29.5 0.666016 40.5 0.999023s21.5 0.833008 31.5 1.5v-62c-10 0.666992 -20.333 1.16699 -31 1.5s-23.667 0.666016 -39 0.999023s-34.5 0.666016 -57.5 0.999023s-51.5 0.5 -85.5 0.5
v-285h120c14 0 28.833 0.166992 44.5 0.5l47 1c15.667 0.333008 30.5 0.666016 44.5 0.999023s26 0.833008 36 1.5v-62c-10 0.666992 -22 1.16699 -36 1.5s-28.833 0.666016 -44.5 0.999023l-47 1c-15.667 0.333008 -30.5 0.5 -44.5 0.5h-184
c0.666992 10 1.16699 23.833 1.5 41.5l1 55.5l1 57c0.333008 18.667 0.5 34 0.5 46v300zM316.001 833.005c-2.66699 -10.667 -6.66992 -20.999 -12.0029 -30.999s-12.166 -18.833 -20.499 -26.5s-18.666 -13.834 -30.999 -18.501s-26.5 -7 -42.5 -7
c-32 0 -56.333 8.5 -73 25.5s-27.667 36.167 -33 57.5h50c3.33301 -10.667 8.33301 -20 15 -28s20.334 -12 41.001 -12s34.5 4.16699 41.5 12.5s12.167 17.5 15.5 27.5h49z" />
    <glyph glyph-name="ebreve" unicode="&#x115;" 
d="M64 500c0 12 -0.166016 27.3379 -0.499023 46.0049l-1 57l-1 55.5c-0.333008 17.667 -0.833008 31.5 -1.5 41.5h47h88.5c25 0 46.833 0.166992 65.5 0.5s34.667 0.833008 48 1.5s24.666 1.33398 33.999 2.00098v-62c-18.667 1.33301 -45.334 2.33301 -80.001 3
s-81 1 -139 1v-253c32.667 0 60.334 0.166992 83.001 0.5s42 0.666016 58 0.999023s29.5 0.666016 40.5 0.999023s21.5 0.833008 31.5 1.5v-62c-10 0.666992 -20.333 1.16699 -31 1.5s-23.667 0.666016 -39 0.999023s-34.5 0.666016 -57.5 0.999023s-51.5 0.5 -85.5 0.5
v-285h120c14 0 28.833 0.166992 44.5 0.5l47 1c15.667 0.333008 30.5 0.666016 44.5 0.999023s26 0.833008 36 1.5v-62c-10 0.666992 -22 1.16699 -36 1.5s-28.833 0.666016 -44.5 0.999023l-47 1c-15.667 0.333008 -30.5 0.5 -44.5 0.5h-184
c0.666992 10 1.16699 23.833 1.5 41.5l1 55.5l1 57c0.333008 18.667 0.5 34 0.5 46v300zM316.001 833.005c-2.66699 -10.667 -6.66992 -20.999 -12.0029 -30.999s-12.166 -18.833 -20.499 -26.5s-18.666 -13.834 -30.999 -18.501s-26.5 -7 -42.5 -7
c-32 0 -56.333 8.5 -73 25.5s-27.667 36.167 -33 57.5h50c3.33301 -10.667 8.33301 -20 15 -28s20.334 -12 41.001 -12s34.5 4.16699 41.5 12.5s12.167 17.5 15.5 27.5h49z" />
    <glyph glyph-name="Edotaccent" unicode="&#x116;" 
d="M64 500c0 12 -0.166016 27.3379 -0.499023 46.0049l-1 57l-1 55.5c-0.333008 17.667 -0.833008 31.5 -1.5 41.5h47h88.5c25 0 46.833 0.166992 65.5 0.5s34.667 0.833008 48 1.5s24.666 1.33398 33.999 2.00098v-62c-18.667 1.33301 -45.334 2.33301 -80.001 3
s-81 1 -139 1v-253c32.667 0 60.334 0.166992 83.001 0.5s42 0.666016 58 0.999023s29.5 0.666016 40.5 0.999023s21.5 0.833008 31.5 1.5v-62c-10 0.666992 -20.333 1.16699 -31 1.5s-23.667 0.666016 -39 0.999023s-34.5 0.666016 -57.5 0.999023s-51.5 0.5 -85.5 0.5
v-285h120c14 0 28.833 0.166992 44.5 0.5l47 1c15.667 0.333008 30.5 0.666016 44.5 0.999023s26 0.833008 36 1.5v-62c-10 0.666992 -22 1.16699 -36 1.5s-28.833 0.666016 -44.5 0.999023l-47 1c-15.667 0.333008 -30.5 0.5 -44.5 0.5h-184
c0.666992 10 1.16699 23.833 1.5 41.5l1 55.5l1 57c0.333008 18.667 0.5 34 0.5 46v300zM164.001 796.005c0 11.333 3.5 20.666 10.5 27.999s16.167 11 27.5 11s20.666 -3.66699 27.999 -11s11 -16.666 11 -27.999s-3.66699 -20.5 -11 -27.5s-16.666 -10.5 -27.999 -10.5
s-20.5 3.33301 -27.5 10s-10.5 16 -10.5 28z" />
    <glyph glyph-name="edotaccent" unicode="&#x117;" 
d="M64 500c0 12 -0.166016 27.3379 -0.499023 46.0049l-1 57l-1 55.5c-0.333008 17.667 -0.833008 31.5 -1.5 41.5h47h88.5c25 0 46.833 0.166992 65.5 0.5s34.667 0.833008 48 1.5s24.666 1.33398 33.999 2.00098v-62c-18.667 1.33301 -45.334 2.33301 -80.001 3
s-81 1 -139 1v-253c32.667 0 60.334 0.166992 83.001 0.5s42 0.666016 58 0.999023s29.5 0.666016 40.5 0.999023s21.5 0.833008 31.5 1.5v-62c-10 0.666992 -20.333 1.16699 -31 1.5s-23.667 0.666016 -39 0.999023s-34.5 0.666016 -57.5 0.999023s-51.5 0.5 -85.5 0.5
v-285h120c14 0 28.833 0.166992 44.5 0.5l47 1c15.667 0.333008 30.5 0.666016 44.5 0.999023s26 0.833008 36 1.5v-62c-10 0.666992 -22 1.16699 -36 1.5s-28.833 0.666016 -44.5 0.999023l-47 1c-15.667 0.333008 -30.5 0.5 -44.5 0.5h-184
c0.666992 10 1.16699 23.833 1.5 41.5l1 55.5l1 57c0.333008 18.667 0.5 34 0.5 46v300zM164.001 796.005c0 11.333 3.5 20.666 10.5 27.999s16.167 11 27.5 11s20.666 -3.66699 27.999 -11s11 -16.666 11 -27.999s-3.66699 -20.5 -11 -27.5s-16.666 -10.5 -27.999 -10.5
s-20.5 3.33301 -27.5 10s-10.5 16 -10.5 28z" />
    <glyph glyph-name="Eogonek" unicode="&#x118;" 
d="M416 -165c-10 -4.66699 -20.666 -8.3291 -31.999 -10.9961s-26.666 -4 -45.999 -4c-12.667 0 -25 1.16699 -37 3.5s-22.667 6.16602 -32 11.499s-16.833 12.333 -22.5 21s-8.5 19.334 -8.5 32.001c0 22 5.5 41.833 16.5 59.5s28.5 35.167 52.5 52.5h-247
c0.666992 10 1.16699 23.833 1.5 41.5l1 55.5l1 57c0.333008 18.667 0.5 34 0.5 46v300c0 12 -0.166992 27.333 -0.5 46l-1 57l-1 55.5c-0.333008 17.667 -0.833008 31.5 -1.5 41.5h47h88.5c25 0 46.833 0.166992 65.5 0.5s34.667 0.833008 48 1.5
s24.666 1.33398 33.999 2.00098v-62c-18.667 1.33301 -45.334 2.33301 -80.001 3s-81 1 -139 1v-253c32.667 0 60.334 0.166992 83.001 0.5s42 0.666016 58 0.999023s29.5 0.666016 40.5 0.999023s21.5 0.833008 31.5 1.5v-62c-10 0.666992 -20.333 1.16699 -31 1.5
s-23.667 0.666016 -39 0.999023s-34.5 0.666016 -57.5 0.999023s-51.5 0.5 -85.5 0.5v-285h120c14 0 28.833 0.166992 44.5 0.5l47 1c15.667 0.333008 30.5 0.666016 44.5 0.999023s26 0.833008 36 1.5v-62l-64 3c-13.333 -12 -26.5 -26 -39.5 -42s-19.5 -32.333 -19.5 -49
c0 -18.667 5.66699 -31.167 17 -37.5s24.666 -9.5 39.999 -9.5c11.333 0 22.833 1.33301 34.5 4s22.167 6 31.5 10v-40z" />
    <glyph glyph-name="eogonek" unicode="&#x119;" 
d="M416 -165c-10 -4.66699 -20.666 -8.3291 -31.999 -10.9961s-26.666 -4 -45.999 -4c-12.667 0 -25 1.16699 -37 3.5s-22.667 6.16602 -32 11.499s-16.833 12.333 -22.5 21s-8.5 19.334 -8.5 32.001c0 22 5.5 41.833 16.5 59.5s28.5 35.167 52.5 52.5h-247
c0.666992 10 1.16699 23.833 1.5 41.5l1 55.5l1 57c0.333008 18.667 0.5 34 0.5 46v300c0 12 -0.166992 27.333 -0.5 46l-1 57l-1 55.5c-0.333008 17.667 -0.833008 31.5 -1.5 41.5h47h88.5c25 0 46.833 0.166992 65.5 0.5s34.667 0.833008 48 1.5
s24.666 1.33398 33.999 2.00098v-62c-18.667 1.33301 -45.334 2.33301 -80.001 3s-81 1 -139 1v-253c32.667 0 60.334 0.166992 83.001 0.5s42 0.666016 58 0.999023s29.5 0.666016 40.5 0.999023s21.5 0.833008 31.5 1.5v-62c-10 0.666992 -20.333 1.16699 -31 1.5
s-23.667 0.666016 -39 0.999023s-34.5 0.666016 -57.5 0.999023s-51.5 0.5 -85.5 0.5v-285h120c14 0 28.833 0.166992 44.5 0.5l47 1c15.667 0.333008 30.5 0.666016 44.5 0.999023s26 0.833008 36 1.5v-62l-64 3c-13.333 -12 -26.5 -26 -39.5 -42s-19.5 -32.333 -19.5 -49
c0 -18.667 5.66699 -31.167 17 -37.5s24.666 -9.5 39.999 -9.5c11.333 0 22.833 1.33301 34.5 4s22.167 6 31.5 10v-40z" />
    <glyph glyph-name="Ecaron" unicode="&#x11a;" 
d="M64 500c0 12 -0.166016 27.3379 -0.499023 46.0049l-1 57l-1 55.5c-0.333008 17.667 -0.833008 31.5 -1.5 41.5h47h88.5c25 0 46.833 0.166992 65.5 0.5s34.667 0.833008 48 1.5s24.666 1.33398 33.999 2.00098v-62c-18.667 1.33301 -45.334 2.33301 -80.001 3
s-81 1 -139 1v-253c32.667 0 60.334 0.166992 83.001 0.5s42 0.666016 58 0.999023s29.5 0.666016 40.5 0.999023s21.5 0.833008 31.5 1.5v-62c-10 0.666992 -20.333 1.16699 -31 1.5s-23.667 0.666016 -39 0.999023s-34.5 0.666016 -57.5 0.999023s-51.5 0.5 -85.5 0.5
v-285h120c14 0 28.833 0.166992 44.5 0.5l47 1c15.667 0.333008 30.5 0.666016 44.5 0.999023s26 0.833008 36 1.5v-62c-10 0.666992 -22 1.16699 -36 1.5s-28.833 0.666016 -44.5 0.999023l-47 1c-15.667 0.333008 -30.5 0.5 -44.5 0.5h-184
c0.666992 10 1.16699 23.833 1.5 41.5l1 55.5l1 57c0.333008 18.667 0.5 34 0.5 46v300zM177.001 750.005l-90 100h60l65 -59l64 59h60l-89 -100h-70z" />
    <glyph glyph-name="ecaron" unicode="&#x11b;" 
d="M64 500c0 12 -0.166016 27.3379 -0.499023 46.0049l-1 57l-1 55.5c-0.333008 17.667 -0.833008 31.5 -1.5 41.5h47h88.5c25 0 46.833 0.166992 65.5 0.5s34.667 0.833008 48 1.5s24.666 1.33398 33.999 2.00098v-62c-18.667 1.33301 -45.334 2.33301 -80.001 3
s-81 1 -139 1v-253c32.667 0 60.334 0.166992 83.001 0.5s42 0.666016 58 0.999023s29.5 0.666016 40.5 0.999023s21.5 0.833008 31.5 1.5v-62c-10 0.666992 -20.333 1.16699 -31 1.5s-23.667 0.666016 -39 0.999023s-34.5 0.666016 -57.5 0.999023s-51.5 0.5 -85.5 0.5
v-285h120c14 0 28.833 0.166992 44.5 0.5l47 1c15.667 0.333008 30.5 0.666016 44.5 0.999023s26 0.833008 36 1.5v-62c-10 0.666992 -22 1.16699 -36 1.5s-28.833 0.666016 -44.5 0.999023l-47 1c-15.667 0.333008 -30.5 0.5 -44.5 0.5h-184
c0.666992 10 1.16699 23.833 1.5 41.5l1 55.5l1 57c0.333008 18.667 0.5 34 0.5 46v300zM177.001 750.005l-90 100h60l65 -59l64 59h60l-89 -100h-70z" />
    <glyph glyph-name="Gcircumflex" unicode="&#x11c;" horiz-adv-x="709" 
d="M650 3c-6 -1.33301 -14.6689 -3.16602 -26.002 -5.49902s-26 -4.83301 -44 -7.5s-39.833 -5 -65.5 -7s-56.167 -3 -91.5 -3c-59.333 0 -112.666 9.33301 -159.999 28s-87.5 44.5 -120.5 77.5s-58.333 72.167 -76 117.5s-26.5 94.666 -26.5 147.999
c0 52 9.16699 100.5 27.5 145.5s44 84 77 117s72.167 59 117.5 78s95 28.5 149 28.5c26.667 0 51 -1.83301 73 -5.5s42 -8.16699 60 -13.5s34 -10.833 48 -16.5l37 -15.5v-74c-9.33301 6 -21.333 12.833 -36 20.5s-31.5 15.167 -50.5 22.5s-39.667 13.5 -62 18.5
s-45.5 7.5 -69.5 7.5c-41.333 0 -80.666 -7.16699 -117.999 -21.5s-70 -34.833 -98 -61.5s-50.333 -59.5 -67 -98.5s-25 -82.833 -25 -131.5c0 -46 7.66699 -88.333 23 -127s37 -72 65 -100s61.667 -49.667 101 -65s83 -23 131 -23c35.333 0 66.5 1.66699 93.5 5
s51.5 7.66602 73.5 12.999v101c0 25.333 -0.5 49 -1.5 71s-1.83301 38.333 -2.5 49h68c-0.666992 -9.33301 -1.5 -25.166 -2.5 -47.499s-1.5 -46.5 -1.5 -72.5v-152zM439.998 850l90 -100h-60l-65 59l-64 -59h-60l89 100h70z" />
    <glyph glyph-name="gcircumflex" unicode="&#x11d;" horiz-adv-x="709" 
d="M650 3c-6 -1.33301 -14.6689 -3.16602 -26.002 -5.49902s-26 -4.83301 -44 -7.5s-39.833 -5 -65.5 -7s-56.167 -3 -91.5 -3c-59.333 0 -112.666 9.33301 -159.999 28s-87.5 44.5 -120.5 77.5s-58.333 72.167 -76 117.5s-26.5 94.666 -26.5 147.999
c0 52 9.16699 100.5 27.5 145.5s44 84 77 117s72.167 59 117.5 78s95 28.5 149 28.5c26.667 0 51 -1.83301 73 -5.5s42 -8.16699 60 -13.5s34 -10.833 48 -16.5l37 -15.5v-74c-9.33301 6 -21.333 12.833 -36 20.5s-31.5 15.167 -50.5 22.5s-39.667 13.5 -62 18.5
s-45.5 7.5 -69.5 7.5c-41.333 0 -80.666 -7.16699 -117.999 -21.5s-70 -34.833 -98 -61.5s-50.333 -59.5 -67 -98.5s-25 -82.833 -25 -131.5c0 -46 7.66699 -88.333 23 -127s37 -72 65 -100s61.667 -49.667 101 -65s83 -23 131 -23c35.333 0 66.5 1.66699 93.5 5
s51.5 7.66602 73.5 12.999v101c0 25.333 -0.5 49 -1.5 71s-1.83301 38.333 -2.5 49h68c-0.666992 -9.33301 -1.5 -25.166 -2.5 -47.499s-1.5 -46.5 -1.5 -72.5v-152zM439.998 850l90 -100h-60l-65 59l-64 -59h-60l89 100h70z" />
    <glyph glyph-name="Gbreve" unicode="&#x11e;" horiz-adv-x="709" 
d="M650 3c-6 -1.33301 -14.6689 -3.16602 -26.002 -5.49902s-26 -4.83301 -44 -7.5s-39.833 -5 -65.5 -7s-56.167 -3 -91.5 -3c-59.333 0 -112.666 9.33301 -159.999 28s-87.5 44.5 -120.5 77.5s-58.333 72.167 -76 117.5s-26.5 94.666 -26.5 147.999
c0 52 9.16699 100.5 27.5 145.5s44 84 77 117s72.167 59 117.5 78s95 28.5 149 28.5c26.667 0 51 -1.83301 73 -5.5s42 -8.16699 60 -13.5s34 -10.833 48 -16.5l37 -15.5v-74c-9.33301 6 -21.333 12.833 -36 20.5s-31.5 15.167 -50.5 22.5s-39.667 13.5 -62 18.5
s-45.5 7.5 -69.5 7.5c-41.333 0 -80.666 -7.16699 -117.999 -21.5s-70 -34.833 -98 -61.5s-50.333 -59.5 -67 -98.5s-25 -82.833 -25 -131.5c0 -46 7.66699 -88.333 23 -127s37 -72 65 -100s61.667 -49.667 101 -65s83 -23 131 -23c35.333 0 66.5 1.66699 93.5 5
s51.5 7.66602 73.5 12.999v101c0 25.333 -0.5 49 -1.5 71s-1.83301 38.333 -2.5 49h68c-0.666992 -9.33301 -1.5 -25.166 -2.5 -47.499s-1.5 -46.5 -1.5 -72.5v-152zM509.998 833c-2.66699 -10.667 -6.66992 -20.999 -12.0029 -30.999s-12.166 -18.833 -20.499 -26.5
s-18.666 -13.834 -30.999 -18.501s-26.5 -7 -42.5 -7c-32 0 -56.333 8.5 -73 25.5s-27.667 36.167 -33 57.5h50c3.33301 -10.667 8.33301 -20 15 -28s20.334 -12 41.001 -12s34.5 4.16699 41.5 12.5s12.167 17.5 15.5 27.5h49z" />
    <glyph glyph-name="gbreve" unicode="&#x11f;" horiz-adv-x="709" 
d="M650 3c-6 -1.33301 -14.6689 -3.16602 -26.002 -5.49902s-26 -4.83301 -44 -7.5s-39.833 -5 -65.5 -7s-56.167 -3 -91.5 -3c-59.333 0 -112.666 9.33301 -159.999 28s-87.5 44.5 -120.5 77.5s-58.333 72.167 -76 117.5s-26.5 94.666 -26.5 147.999
c0 52 9.16699 100.5 27.5 145.5s44 84 77 117s72.167 59 117.5 78s95 28.5 149 28.5c26.667 0 51 -1.83301 73 -5.5s42 -8.16699 60 -13.5s34 -10.833 48 -16.5l37 -15.5v-74c-9.33301 6 -21.333 12.833 -36 20.5s-31.5 15.167 -50.5 22.5s-39.667 13.5 -62 18.5
s-45.5 7.5 -69.5 7.5c-41.333 0 -80.666 -7.16699 -117.999 -21.5s-70 -34.833 -98 -61.5s-50.333 -59.5 -67 -98.5s-25 -82.833 -25 -131.5c0 -46 7.66699 -88.333 23 -127s37 -72 65 -100s61.667 -49.667 101 -65s83 -23 131 -23c35.333 0 66.5 1.66699 93.5 5
s51.5 7.66602 73.5 12.999v101c0 25.333 -0.5 49 -1.5 71s-1.83301 38.333 -2.5 49h68c-0.666992 -9.33301 -1.5 -25.166 -2.5 -47.499s-1.5 -46.5 -1.5 -72.5v-152zM509.998 833c-2.66699 -10.667 -6.66992 -20.999 -12.0029 -30.999s-12.166 -18.833 -20.499 -26.5
s-18.666 -13.834 -30.999 -18.501s-26.5 -7 -42.5 -7c-32 0 -56.333 8.5 -73 25.5s-27.667 36.167 -33 57.5h50c3.33301 -10.667 8.33301 -20 15 -28s20.334 -12 41.001 -12s34.5 4.16699 41.5 12.5s12.167 17.5 15.5 27.5h49z" />
    <glyph glyph-name="Gdotaccent" unicode="&#x120;" horiz-adv-x="709" 
d="M650 3c-6 -1.33301 -14.6689 -3.16602 -26.002 -5.49902s-26 -4.83301 -44 -7.5s-39.833 -5 -65.5 -7s-56.167 -3 -91.5 -3c-59.333 0 -112.666 9.33301 -159.999 28s-87.5 44.5 -120.5 77.5s-58.333 72.167 -76 117.5s-26.5 94.666 -26.5 147.999
c0 52 9.16699 100.5 27.5 145.5s44 84 77 117s72.167 59 117.5 78s95 28.5 149 28.5c26.667 0 51 -1.83301 73 -5.5s42 -8.16699 60 -13.5s34 -10.833 48 -16.5l37 -15.5v-74c-9.33301 6 -21.333 12.833 -36 20.5s-31.5 15.167 -50.5 22.5s-39.667 13.5 -62 18.5
s-45.5 7.5 -69.5 7.5c-41.333 0 -80.666 -7.16699 -117.999 -21.5s-70 -34.833 -98 -61.5s-50.333 -59.5 -67 -98.5s-25 -82.833 -25 -131.5c0 -46 7.66699 -88.333 23 -127s37 -72 65 -100s61.667 -49.667 101 -65s83 -23 131 -23c35.333 0 66.5 1.66699 93.5 5
s51.5 7.66602 73.5 12.999v101c0 25.333 -0.5 49 -1.5 71s-1.83301 38.333 -2.5 49h68c-0.666992 -9.33301 -1.5 -25.166 -2.5 -47.499s-1.5 -46.5 -1.5 -72.5v-152zM367.998 796c0 11.333 3.5 20.666 10.5 27.999s16.167 11 27.5 11s20.666 -3.66699 27.999 -11
s11 -16.666 11 -27.999s-3.66699 -20.5 -11 -27.5s-16.666 -10.5 -27.999 -10.5s-20.5 3.33301 -27.5 10s-10.5 16 -10.5 28z" />
    <glyph glyph-name="gdotaccent" unicode="&#x121;" horiz-adv-x="709" 
d="M650 3c-6 -1.33301 -14.6689 -3.16602 -26.002 -5.49902s-26 -4.83301 -44 -7.5s-39.833 -5 -65.5 -7s-56.167 -3 -91.5 -3c-59.333 0 -112.666 9.33301 -159.999 28s-87.5 44.5 -120.5 77.5s-58.333 72.167 -76 117.5s-26.5 94.666 -26.5 147.999
c0 52 9.16699 100.5 27.5 145.5s44 84 77 117s72.167 59 117.5 78s95 28.5 149 28.5c26.667 0 51 -1.83301 73 -5.5s42 -8.16699 60 -13.5s34 -10.833 48 -16.5l37 -15.5v-74c-9.33301 6 -21.333 12.833 -36 20.5s-31.5 15.167 -50.5 22.5s-39.667 13.5 -62 18.5
s-45.5 7.5 -69.5 7.5c-41.333 0 -80.666 -7.16699 -117.999 -21.5s-70 -34.833 -98 -61.5s-50.333 -59.5 -67 -98.5s-25 -82.833 -25 -131.5c0 -46 7.66699 -88.333 23 -127s37 -72 65 -100s61.667 -49.667 101 -65s83 -23 131 -23c35.333 0 66.5 1.66699 93.5 5
s51.5 7.66602 73.5 12.999v101c0 25.333 -0.5 49 -1.5 71s-1.83301 38.333 -2.5 49h68c-0.666992 -9.33301 -1.5 -25.166 -2.5 -47.499s-1.5 -46.5 -1.5 -72.5v-152zM367.998 796c0 11.333 3.5 20.666 10.5 27.999s16.167 11 27.5 11s20.666 -3.66699 27.999 -11
s11 -16.666 11 -27.999s-3.66699 -20.5 -11 -27.5s-16.666 -10.5 -27.999 -10.5s-20.5 3.33301 -27.5 10s-10.5 16 -10.5 28z" />
    <glyph glyph-name="Gcommaaccent" unicode="&#x122;" horiz-adv-x="709" 
d="M650 3c-6 -1.33301 -14.6689 -3.16602 -26.002 -5.49902s-26 -4.83301 -44 -7.5s-39.833 -5 -65.5 -7s-56.167 -3 -91.5 -3c-59.333 0 -112.666 9.33301 -159.999 28s-87.5 44.5 -120.5 77.5s-58.333 72.167 -76 117.5s-26.5 94.666 -26.5 147.999
c0 52 9.16699 100.5 27.5 145.5s44 84 77 117s72.167 59 117.5 78s95 28.5 149 28.5c26.667 0 51 -1.83301 73 -5.5s42 -8.16699 60 -13.5s34 -10.833 48 -16.5l37 -15.5v-74c-9.33301 6 -21.333 12.833 -36 20.5s-31.5 15.167 -50.5 22.5s-39.667 13.5 -62 18.5
s-45.5 7.5 -69.5 7.5c-41.333 0 -80.666 -7.16699 -117.999 -21.5s-70 -34.833 -98 -61.5s-50.333 -59.5 -67 -98.5s-25 -82.833 -25 -131.5c0 -46 7.66699 -88.333 23 -127s37 -72 65 -100s61.667 -49.667 101 -65s83 -23 131 -23c35.333 0 66.5 1.66699 93.5 5
s51.5 7.66602 73.5 12.999v101c0 25.333 -0.5 49 -1.5 71s-1.83301 38.333 -2.5 49h68c-0.666992 -9.33301 -1.5 -25.166 -2.5 -47.499s-1.5 -46.5 -1.5 -72.5v-152zM397.998 -219c5.33301 15.333 9.66797 31.168 13.001 47.501s5 34.166 5 53.499
c0 9.33301 -0.333008 19 -1 29s-2.33398 20 -5.00098 30h56c2 -14 3 -28 3 -42c0 -21.333 -2.66699 -41.833 -8 -61.5s-12.333 -38.5 -21 -56.5h-42z" />
    <glyph glyph-name="gcommaaccent" unicode="&#x123;" horiz-adv-x="709" 
d="M650 3c-6 -1.33301 -14.6689 -3.16602 -26.002 -5.49902s-26 -4.83301 -44 -7.5s-39.833 -5 -65.5 -7s-56.167 -3 -91.5 -3c-59.333 0 -112.666 9.33301 -159.999 28s-87.5 44.5 -120.5 77.5s-58.333 72.167 -76 117.5s-26.5 94.666 -26.5 147.999
c0 52 9.16699 100.5 27.5 145.5s44 84 77 117s72.167 59 117.5 78s95 28.5 149 28.5c26.667 0 51 -1.83301 73 -5.5s42 -8.16699 60 -13.5s34 -10.833 48 -16.5l37 -15.5v-74c-9.33301 6 -21.333 12.833 -36 20.5s-31.5 15.167 -50.5 22.5s-39.667 13.5 -62 18.5
s-45.5 7.5 -69.5 7.5c-41.333 0 -80.666 -7.16699 -117.999 -21.5s-70 -34.833 -98 -61.5s-50.333 -59.5 -67 -98.5s-25 -82.833 -25 -131.5c0 -46 7.66699 -88.333 23 -127s37 -72 65 -100s61.667 -49.667 101 -65s83 -23 131 -23c35.333 0 66.5 1.66699 93.5 5
s51.5 7.66602 73.5 12.999v101c0 25.333 -0.5 49 -1.5 71s-1.83301 38.333 -2.5 49h68c-0.666992 -9.33301 -1.5 -25.166 -2.5 -47.499s-1.5 -46.5 -1.5 -72.5v-152zM397.998 -219c5.33301 15.333 9.66797 31.168 13.001 47.501s5 34.166 5 53.499
c0 9.33301 -0.333008 19 -1 29s-2.33398 20 -5.00098 30h56c2 -14 3 -28 3 -42c0 -21.333 -2.66699 -41.833 -8 -61.5s-12.333 -38.5 -21 -56.5h-42z" />
    <glyph glyph-name="Hcircumflex" unicode="&#x124;" horiz-adv-x="670" 
d="M546 354h-422.004v-154c0 -12 0.166992 -27.333 0.5 -46l1 -57l1 -55.5c0.333008 -17.667 0.833008 -31.5 1.5 -41.5h-68c0.666992 10 1.16699 23.833 1.5 41.5l1 55.5l1 57c0.333008 18.667 0.5 34 0.5 46v300c0 14 -0.166992 30.333 -0.5 49l-1 56.5
c-0.333008 19 -0.666016 37 -0.999023 54s-0.833008 30.5 -1.5 40.5h68c-0.666992 -10 -1.16699 -23.5 -1.5 -40.5s-0.666016 -35 -0.999023 -54l-1 -56.5c-0.333008 -18.667 -0.5 -35 -0.5 -49v-92h422v92c0 14 -0.166992 30.333 -0.5 49l-1 56.5
c-0.333008 19 -0.666016 37 -0.999023 54s-0.833008 30.5 -1.5 40.5h68c-0.666992 -10 -1.16699 -23.5 -1.5 -40.5s-0.666016 -35 -0.999023 -54l-1 -56.5c-0.333008 -18.667 -0.5 -35 -0.5 -49v-300c0 -12 0.166992 -27.333 0.5 -46l1 -57l1 -55.5
c0.333008 -17.667 0.833008 -31.5 1.5 -41.5h-68c0.666992 10 1.16699 23.833 1.5 41.5l1 55.5l1 57c0.333008 18.667 0.5 34 0.5 46v154zM368.996 850l90 -100h-60l-65 59l-64 -59h-60l89 100h70z" />
    <glyph glyph-name="hcircumflex" unicode="&#x125;" horiz-adv-x="670" 
d="M546 354h-422.004v-154c0 -12 0.166992 -27.333 0.5 -46l1 -57l1 -55.5c0.333008 -17.667 0.833008 -31.5 1.5 -41.5h-68c0.666992 10 1.16699 23.833 1.5 41.5l1 55.5l1 57c0.333008 18.667 0.5 34 0.5 46v300c0 14 -0.166992 30.333 -0.5 49l-1 56.5
c-0.333008 19 -0.666016 37 -0.999023 54s-0.833008 30.5 -1.5 40.5h68c-0.666992 -10 -1.16699 -23.5 -1.5 -40.5s-0.666016 -35 -0.999023 -54l-1 -56.5c-0.333008 -18.667 -0.5 -35 -0.5 -49v-92h422v92c0 14 -0.166992 30.333 -0.5 49l-1 56.5
c-0.333008 19 -0.666016 37 -0.999023 54s-0.833008 30.5 -1.5 40.5h68c-0.666992 -10 -1.16699 -23.5 -1.5 -40.5s-0.666016 -35 -0.999023 -54l-1 -56.5c-0.333008 -18.667 -0.5 -35 -0.5 -49v-300c0 -12 0.166992 -27.333 0.5 -46l1 -57l1 -55.5
c0.333008 -17.667 0.833008 -31.5 1.5 -41.5h-68c0.666992 10 1.16699 23.833 1.5 41.5l1 55.5l1 57c0.333008 18.667 0.5 34 0.5 46v154zM368.996 850l90 -100h-60l-65 59l-64 -59h-60l89 100h70z" />
    <glyph glyph-name="Hbar" unicode="&#x126;" horiz-adv-x="682" 
d="M552 354l-421.999 0.000976562v-154c0 -12 0.166992 -27.333 0.5 -46l1 -57l1 -55.5c0.333008 -17.667 0.833008 -31.5 1.5 -41.5h-68c0.666992 10 1.16699 23.833 1.5 41.5l1 55.5l1 57c0.333008 18.667 0.5 34 0.5 46v324h-40v54c5.33301 -0.666992 11.333 -1 18 -1h21
c0 8 -0.166992 18.833 -0.5 32.5s-0.833008 27.167 -1.5 40.5c-0.666992 16 -1 32.667 -1 50h68c-1.33301 -12.667 -2.33301 -30.5 -3 -53.5s-1 -46.167 -1 -69.5c20 0 40.833 -0.166992 62.5 -0.5s42 -0.5 61 -0.5h51h34.5h39h53c19.333 0 39.333 0.166992 60 0.5
s40.667 0.5 60 0.5c0 6 -0.166992 15.833 -0.5 29.5s-0.833008 27.5 -1.5 41.5c-0.666992 16.667 -1 34 -1 52h68c-0.666992 -12.667 -1.33398 -30.334 -2.00098 -53.001l-2 -70c8 0 15.5 0.166992 22.5 0.5s12.833 0.5 17.5 0.5v-54h-40v-324
c0 -12 0.166992 -27.333 0.5 -46l1 -57l1 -55.5c0.333008 -17.667 0.833008 -31.5 1.5 -41.5h-68c0.666992 10 1.16699 23.833 1.5 41.5l1 55.5l1 57c0.333008 18.667 0.5 34 0.5 46v154zM130.001 525.001v-117h422v117h-214h-208z" />
    <glyph glyph-name="hbar" unicode="&#x127;" horiz-adv-x="682" 
d="M552 354l-421.999 0.000976562v-154c0 -12 0.166992 -27.333 0.5 -46l1 -57l1 -55.5c0.333008 -17.667 0.833008 -31.5 1.5 -41.5h-68c0.666992 10 1.16699 23.833 1.5 41.5l1 55.5l1 57c0.333008 18.667 0.5 34 0.5 46v324h-40v54c5.33301 -0.666992 11.333 -1 18 -1h21
c0 8 -0.166992 18.833 -0.5 32.5s-0.833008 27.167 -1.5 40.5c-0.666992 16 -1 32.667 -1 50h68c-1.33301 -12.667 -2.33301 -30.5 -3 -53.5s-1 -46.167 -1 -69.5c20 0 40.833 -0.166992 62.5 -0.5s42 -0.5 61 -0.5h51h34.5h39h53c19.333 0 39.333 0.166992 60 0.5
s40.667 0.5 60 0.5c0 6 -0.166992 15.833 -0.5 29.5s-0.833008 27.5 -1.5 41.5c-0.666992 16.667 -1 34 -1 52h68c-0.666992 -12.667 -1.33398 -30.334 -2.00098 -53.001l-2 -70c8 0 15.5 0.166992 22.5 0.5s12.833 0.5 17.5 0.5v-54h-40v-324
c0 -12 0.166992 -27.333 0.5 -46l1 -57l1 -55.5c0.333008 -17.667 0.833008 -31.5 1.5 -41.5h-68c0.666992 10 1.16699 23.833 1.5 41.5l1 55.5l1 57c0.333008 18.667 0.5 34 0.5 46v154zM130.001 525.001v-117h422v117h-214h-208z" />
    <glyph glyph-name="Itilde" unicode="&#x128;" horiz-adv-x="220" 
d="M80 500c0 14 -0.168945 30.333 -0.501953 49l-1 56.5c-0.333008 19 -0.666016 37 -0.999023 54s-0.833008 30.5 -1.5 40.5h68c-0.666992 -10 -1.16699 -23.5 -1.5 -40.5s-0.666016 -35 -0.999023 -54l-1 -56.5c-0.333008 -18.667 -0.5 -35 -0.5 -49v-300
c0 -12 0.166992 -27.333 0.5 -46l1 -57l1 -55.5c0.333008 -17.667 0.833008 -31.5 1.5 -41.5h-68c0.666992 10 1.16699 23.833 1.5 41.5l1 55.5l1 57c0.333008 18.667 0.5 34 0.5 46v300zM63.998 827c8.66699 0 17.333 -1.5 26 -4.5s17.167 -6.16699 25.5 -9.5l23.5 -9.5
c7.33301 -3 13.666 -4.5 18.999 -4.5c7.33301 0 13.5 1.66699 18.5 5s7.5 11 7.5 23h37c0 -28.667 -6 -48.667 -18 -60s-26.667 -17 -44 -17c-8 0 -16.333 1.5 -25 4.5s-17.167 6.33301 -25.5 10l-23 10c-7 3 -13.167 4.5 -18.5 4.5c-8 0 -14.667 -2.5 -20 -7.5
s-8 -12.167 -8 -21.5h-38c0 26.667 6.83301 46.167 20.5 58.5s27.834 18.5 42.501 18.5z" />
    <glyph glyph-name="itilde" unicode="&#x129;" horiz-adv-x="220" 
d="M80 500c0 14 -0.168945 30.333 -0.501953 49l-1 56.5c-0.333008 19 -0.666016 37 -0.999023 54s-0.833008 30.5 -1.5 40.5h68c-0.666992 -10 -1.16699 -23.5 -1.5 -40.5s-0.666016 -35 -0.999023 -54l-1 -56.5c-0.333008 -18.667 -0.5 -35 -0.5 -49v-300
c0 -12 0.166992 -27.333 0.5 -46l1 -57l1 -55.5c0.333008 -17.667 0.833008 -31.5 1.5 -41.5h-68c0.666992 10 1.16699 23.833 1.5 41.5l1 55.5l1 57c0.333008 18.667 0.5 34 0.5 46v300zM63.998 827c8.66699 0 17.333 -1.5 26 -4.5s17.167 -6.16699 25.5 -9.5l23.5 -9.5
c7.33301 -3 13.666 -4.5 18.999 -4.5c7.33301 0 13.5 1.66699 18.5 5s7.5 11 7.5 23h37c0 -28.667 -6 -48.667 -18 -60s-26.667 -17 -44 -17c-8 0 -16.333 1.5 -25 4.5s-17.167 6.33301 -25.5 10l-23 10c-7 3 -13.167 4.5 -18.5 4.5c-8 0 -14.667 -2.5 -20 -7.5
s-8 -12.167 -8 -21.5h-38c0 26.667 6.83301 46.167 20.5 58.5s27.834 18.5 42.501 18.5z" />
    <glyph glyph-name="Imacron" unicode="&#x12a;" horiz-adv-x="220" 
d="M80 500c0 14 -0.168945 30.333 -0.501953 49l-1 56.5c-0.333008 19 -0.666016 37 -0.999023 54s-0.833008 30.5 -1.5 40.5h68c-0.666992 -10 -1.16699 -23.5 -1.5 -40.5s-0.666016 -35 -0.999023 -54l-1 -56.5c-0.333008 -18.667 -0.5 -35 -0.5 -49v-300
c0 -12 0.166992 -27.333 0.5 -46l1 -57l1 -55.5c0.333008 -17.667 0.833008 -31.5 1.5 -41.5h-68c0.666992 10 1.16699 23.833 1.5 41.5l1 55.5l1 57c0.333008 18.667 0.5 34 0.5 46v300zM4.99805 816h212v-56h-212v56z" />
    <glyph glyph-name="imacron" unicode="&#x12b;" horiz-adv-x="220" 
d="M80 500c0 14 -0.168945 30.333 -0.501953 49l-1 56.5c-0.333008 19 -0.666016 37 -0.999023 54s-0.833008 30.5 -1.5 40.5h68c-0.666992 -10 -1.16699 -23.5 -1.5 -40.5s-0.666016 -35 -0.999023 -54l-1 -56.5c-0.333008 -18.667 -0.5 -35 -0.5 -49v-300
c0 -12 0.166992 -27.333 0.5 -46l1 -57l1 -55.5c0.333008 -17.667 0.833008 -31.5 1.5 -41.5h-68c0.666992 10 1.16699 23.833 1.5 41.5l1 55.5l1 57c0.333008 18.667 0.5 34 0.5 46v300zM4.99805 816h212v-56h-212v56z" />
    <glyph glyph-name="Ibreve" unicode="&#x12c;" horiz-adv-x="220" 
d="M80 500c0 14 -0.168945 30.333 -0.501953 49l-1 56.5c-0.333008 19 -0.666016 37 -0.999023 54s-0.833008 30.5 -1.5 40.5h68c-0.666992 -10 -1.16699 -23.5 -1.5 -40.5s-0.666016 -35 -0.999023 -54l-1 -56.5c-0.333008 -18.667 -0.5 -35 -0.5 -49v-300
c0 -12 0.166992 -27.333 0.5 -46l1 -57l1 -55.5c0.333008 -17.667 0.833008 -31.5 1.5 -41.5h-68c0.666992 10 1.16699 23.833 1.5 41.5l1 55.5l1 57c0.333008 18.667 0.5 34 0.5 46v300zM216.998 833c-2.66699 -10.667 -6.66992 -20.999 -12.0029 -30.999
s-12.166 -18.833 -20.499 -26.5s-18.666 -13.834 -30.999 -18.501s-26.5 -7 -42.5 -7c-32 0 -56.333 8.5 -73 25.5s-27.667 36.167 -33 57.5h50c3.33301 -10.667 8.33301 -20 15 -28s20.334 -12 41.001 -12s34.5 4.16699 41.5 12.5s12.167 17.5 15.5 27.5h49z" />
    <glyph glyph-name="ibreve" unicode="&#x12d;" horiz-adv-x="220" 
d="M80 500c0 14 -0.168945 30.333 -0.501953 49l-1 56.5c-0.333008 19 -0.666016 37 -0.999023 54s-0.833008 30.5 -1.5 40.5h68c-0.666992 -10 -1.16699 -23.5 -1.5 -40.5s-0.666016 -35 -0.999023 -54l-1 -56.5c-0.333008 -18.667 -0.5 -35 -0.5 -49v-300
c0 -12 0.166992 -27.333 0.5 -46l1 -57l1 -55.5c0.333008 -17.667 0.833008 -31.5 1.5 -41.5h-68c0.666992 10 1.16699 23.833 1.5 41.5l1 55.5l1 57c0.333008 18.667 0.5 34 0.5 46v300zM216.998 833c-2.66699 -10.667 -6.66992 -20.999 -12.0029 -30.999
s-12.166 -18.833 -20.499 -26.5s-18.666 -13.834 -30.999 -18.501s-26.5 -7 -42.5 -7c-32 0 -56.333 8.5 -73 25.5s-27.667 36.167 -33 57.5h50c3.33301 -10.667 8.33301 -20 15 -28s20.334 -12 41.001 -12s34.5 4.16699 41.5 12.5s12.167 17.5 15.5 27.5h49z" />
    <glyph glyph-name="Iogonek" unicode="&#x12e;" horiz-adv-x="188" 
d="M178 -165c-10 -4.66699 -20.6689 -8.33301 -32.002 -11s-26.666 -4 -45.999 -4c-12.667 0 -25 1.16699 -37 3.5s-22.667 6.16602 -32 11.499s-16.833 12.333 -22.5 21s-8.5 19.334 -8.5 32.001c0 22 5.5 41.833 16.5 59.5s28.5 35.167 52.5 52.5h-9
c0.666992 10 1.16699 23.833 1.5 41.5l1 55.5l1 57c0.333008 18.667 0.5 34 0.5 46v300c0 14 -0.166992 30.333 -0.5 49l-1 56.5c-0.333008 19 -0.666016 37 -0.999023 54s-0.833008 30.5 -1.5 40.5h68c-0.666992 -10 -1.16699 -23.5 -1.5 -40.5
s-0.666016 -35 -0.999023 -54l-1 -56.5c-0.333008 -18.667 -0.5 -35 -0.5 -49v-300c0 -12 0.166992 -27.333 0.5 -46l1 -57l1 -55.5c0.333008 -17.667 0.833008 -31.5 1.5 -41.5h-13c-6.66699 -6 -13.5 -12.5 -20.5 -19.5s-13.5 -14.5 -19.5 -22.5
s-10.833 -16.167 -14.5 -24.5s-5.5 -16.833 -5.5 -25.5c0 -18.667 5.66699 -31.167 17 -37.5s24.666 -9.5 39.999 -9.5c11.333 0 22.833 1.33301 34.5 4s22.167 6 31.5 10v-40z" />
    <glyph glyph-name="iogonek" unicode="&#x12f;" horiz-adv-x="188" 
d="M178 -165c-10 -4.66699 -20.6689 -8.33301 -32.002 -11s-26.666 -4 -45.999 -4c-12.667 0 -25 1.16699 -37 3.5s-22.667 6.16602 -32 11.499s-16.833 12.333 -22.5 21s-8.5 19.334 -8.5 32.001c0 22 5.5 41.833 16.5 59.5s28.5 35.167 52.5 52.5h-9
c0.666992 10 1.16699 23.833 1.5 41.5l1 55.5l1 57c0.333008 18.667 0.5 34 0.5 46v300c0 14 -0.166992 30.333 -0.5 49l-1 56.5c-0.333008 19 -0.666016 37 -0.999023 54s-0.833008 30.5 -1.5 40.5h68c-0.666992 -10 -1.16699 -23.5 -1.5 -40.5
s-0.666016 -35 -0.999023 -54l-1 -56.5c-0.333008 -18.667 -0.5 -35 -0.5 -49v-300c0 -12 0.166992 -27.333 0.5 -46l1 -57l1 -55.5c0.333008 -17.667 0.833008 -31.5 1.5 -41.5h-13c-6.66699 -6 -13.5 -12.5 -20.5 -19.5s-13.5 -14.5 -19.5 -22.5
s-10.833 -16.167 -14.5 -24.5s-5.5 -16.833 -5.5 -25.5c0 -18.667 5.66699 -31.167 17 -37.5s24.666 -9.5 39.999 -9.5c11.333 0 22.833 1.33301 34.5 4s22.167 6 31.5 10v-40z" />
    <glyph glyph-name="Idotaccent" unicode="&#x130;" horiz-adv-x="220" 
d="M80 500c0 14 -0.168945 30.333 -0.501953 49l-1 56.5c-0.333008 19 -0.666016 37 -0.999023 54s-0.833008 30.5 -1.5 40.5h68c-0.666992 -10 -1.16699 -23.5 -1.5 -40.5s-0.666016 -35 -0.999023 -54l-1 -56.5c-0.333008 -18.667 -0.5 -35 -0.5 -49v-300
c0 -12 0.166992 -27.333 0.5 -46l1 -57l1 -55.5c0.333008 -17.667 0.833008 -31.5 1.5 -41.5h-68c0.666992 10 1.16699 23.833 1.5 41.5l1 55.5l1 57c0.333008 18.667 0.5 34 0.5 46v300zM70.998 796c0 11.333 3.5 20.666 10.5 27.999s16.167 11 27.5 11
s20.666 -3.66699 27.999 -11s11 -16.666 11 -27.999s-3.66699 -20.5 -11 -27.5s-16.666 -10.5 -27.999 -10.5s-20.5 3.33301 -27.5 10s-10.5 16 -10.5 28z" />
    <glyph glyph-name="dotlessi" unicode="&#x131;" horiz-adv-x="188" 
d="M64 500c0 14 -0.168945 30.333 -0.501953 49l-1 56.5c-0.333008 19 -0.666016 37 -0.999023 54s-0.833008 30.5 -1.5 40.5h68c-0.666992 -10 -1.16699 -23.5 -1.5 -40.5s-0.666016 -35 -0.999023 -54l-1 -56.5c-0.333008 -18.667 -0.5 -35 -0.5 -49v-300
c0 -12 0.166992 -27.333 0.5 -46l1 -57l1 -55.5c0.333008 -17.667 0.833008 -31.5 1.5 -41.5h-68c0.666992 10 1.16699 23.833 1.5 41.5l1 55.5l1 57c0.333008 18.667 0.5 34 0.5 46v300z" />
    <glyph glyph-name="IJ" unicode="&#x132;" horiz-adv-x="376" 
d="M64 500c0 14 -0.168945 30.333 -0.501953 49l-1 56.5c-0.333008 19 -0.666016 37 -0.999023 54s-0.833008 30.5 -1.5 40.5h68c-0.666992 -10 -1.16699 -23.5 -1.5 -40.5s-0.666016 -35 -0.999023 -54l-1 -56.5c-0.333008 -18.667 -0.5 -35 -0.5 -49v-300
c0 -12 0.166992 -27.333 0.5 -46l1 -57l1 -55.5c0.333008 -17.667 0.833008 -31.5 1.5 -41.5h-68c0.666992 10 1.16699 23.833 1.5 41.5l1 55.5l1 57c0.333008 18.667 0.5 34 0.5 46v300zM311.998 -6c0 -25.333 -2.50195 -46.668 -7.50195 -64.001
s-11.833 -32.166 -20.5 -44.499s-19 -22.333 -31 -30s-25.333 -13.834 -40 -18.501l-47 42c10 2.66699 20.167 6 30.5 10s19.5 10 27.5 18s14.667 18.833 20 32.5s8 31.834 8 54.501v506c0 14 -0.166992 30.333 -0.5 49l-1 56.5c-0.333008 19 -0.666016 37 -0.999023 54
s-0.833008 30.5 -1.5 40.5h68c-0.666992 -10 -1.16699 -23.5 -1.5 -40.5s-0.666016 -35 -0.999023 -54l-1 -56.5c-0.333008 -18.667 -0.5 -35 -0.5 -49v-506z" />
    <glyph glyph-name="ij" unicode="&#x133;" horiz-adv-x="376" 
d="M64 500c0 14 -0.168945 30.333 -0.501953 49l-1 56.5c-0.333008 19 -0.666016 37 -0.999023 54s-0.833008 30.5 -1.5 40.5h68c-0.666992 -10 -1.16699 -23.5 -1.5 -40.5s-0.666016 -35 -0.999023 -54l-1 -56.5c-0.333008 -18.667 -0.5 -35 -0.5 -49v-300
c0 -12 0.166992 -27.333 0.5 -46l1 -57l1 -55.5c0.333008 -17.667 0.833008 -31.5 1.5 -41.5h-68c0.666992 10 1.16699 23.833 1.5 41.5l1 55.5l1 57c0.333008 18.667 0.5 34 0.5 46v300zM311.998 -6c0 -25.333 -2.50195 -46.668 -7.50195 -64.001
s-11.833 -32.166 -20.5 -44.499s-19 -22.333 -31 -30s-25.333 -13.834 -40 -18.501l-47 42c10 2.66699 20.167 6 30.5 10s19.5 10 27.5 18s14.667 18.833 20 32.5s8 31.834 8 54.501v506c0 14 -0.166992 30.333 -0.5 49l-1 56.5c-0.333008 19 -0.666016 37 -0.999023 54
s-0.833008 30.5 -1.5 40.5h68c-0.666992 -10 -1.16699 -23.5 -1.5 -40.5s-0.666016 -35 -0.999023 -54l-1 -56.5c-0.333008 -18.667 -0.5 -35 -0.5 -49v-506z" />
    <glyph glyph-name="Jcircumflex" unicode="&#x134;" horiz-adv-x="188" 
d="M124 -6c0 -25.333 -2.50195 -46.668 -7.50195 -64.001s-11.833 -32.166 -20.5 -44.499s-19 -22.333 -31 -30s-25.333 -13.834 -40 -18.501l-47 42c10 2.66699 20.167 6 30.5 10s19.5 10 27.5 18s14.667 18.833 20 32.5s8 31.834 8 54.501v506
c0 14 -0.166992 30.333 -0.5 49l-1 56.5c-0.333008 19 -0.666016 37 -0.999023 54s-0.833008 30.5 -1.5 40.5h68c-0.666992 -10 -1.16699 -23.5 -1.5 -40.5s-0.666016 -35 -0.999023 -54l-1 -56.5c-0.333008 -18.667 -0.5 -35 -0.5 -49v-506zM129.998 849.998l90 -100h-60
l-65 59l-64 -59h-60l89 100h70z" />
    </font>
</defs>
</svg>
