<?xml version="1.0" standalone="no"?>
<!DOCTYPE svg PUBLIC "-//W3C//DTD SVG 1.1//EN" "http://www.w3.org/Graphics/SVG/1.1/DTD/svg11.dtd" >
<svg>
<metadata>
Created by FontForge 20110222 at Thu Sep 17 12:00:31 2015
 By www-data
Stem is a geometric sans-serif with semi-closed aperture and large x-height. 12 faces of it, including upright and true italic faces of different weights, are intended primarily for large point sizes. The Stem family will be supplemented with faces for text and caption setting. Design -- Alexandra Korolkova with the assistance of Maria Selezeneva and Isabella Chaeva. Released by ParaType in 2014.
</metadata>
<defs>
<font id="Stem-ExtraLight" horiz-adv-x="588" >
  <font-face 
    font-family="Stem Extra Light"
    font-weight="300"
    font-stretch="normal"
    units-per-em="1000"
    panose-1="2 11 4 3 2 2 3 2 2 4"
    ascent="778"
    descent="-222"
    x-height="520"
    cap-height="700"
    bbox="-486 -242 1209 908"
    underline-thickness="50"
    underline-position="-50"
    stemh="47"
    stemv="53"
    unicode-range="U+0020-FEFF"
  />
<missing-glyph horiz-adv-x="300" 
 />
    <glyph glyph-name="uniF350.var.accented" unicode="&#xf350;`" horiz-adv-x="571" 
d="M3 0l261 562h43l261 -562h-53l-75 158h-313l-73 -158h-51zM283 496l-135 -292h273zM408 764l-116 -144l-30 21l108 151z" />
    <glyph glyph-name="uniF355.var.accented" unicode="&#xf355;`" horiz-adv-x="541" 
d="M67 0v560h419v-47h-369v-205h345v-47h-345v-214h378v-47h-428zM398 764l-116 -144l-30 21l108 151z" />
    <glyph glyph-name="uniF358.var.accented" unicode="&#xf358;`" horiz-adv-x="625" 
d="M111 0h-44v560h50v-480l396 480h45v-560h-50v480zM418 764l-116 -144l-30 21l108 151z" />
    <glyph glyph-name="uniF35E.var.accented" unicode="&#xf35e;`" horiz-adv-x="667" 
d="M34 280c0 162 131 287 300 287c166 0 299 -120 299 -287c0 -165 -133 -287 -299 -287c-167 0 -300 120 -300 287zM86 280c0 -137 112 -240 248 -240c140 0 247 103 247 240c0 139 -112 240 -247 240c-137 0 -248 -101 -248 -240zM448 764l-116 -144l-30 21l108 151z" />
    <glyph glyph-name="uniF363.var.accented" unicode="&#xf363;`" horiz-adv-x="567" 
d="M162 15l28 39c9 -5 14 -8 20 -8c30 0 55 28 74 65l11 21l-295 428h58l262 -376l196 376h50l-225 -434c-48 -92 -79 -126 -129 -126c-22 0 -37 6 -50 15zM408 764l-116 -144l-30 21l108 151z" />
    <glyph glyph-name="uniF36B.var.accented" unicode="&#xf36b;`" horiz-adv-x="712" 
d="M595 0v560h50v-560h-50zM266 295h-149v-248h147c119 0 187 41 187 130c0 78 -67 118 -185 118zM117 560v-218h152c158 0 234 -62 234 -165c0 -117 -90 -177 -243 -177h-193v560h50zM448 764l-116 -144l-30 21l108 151z" />
    <glyph glyph-name="uniF36D.var.accented" unicode="&#xf36d;`" horiz-adv-x="587" 
d="M167 262v47h334c-11 129 -103 212 -251 212c-72 0 -154 -37 -199 -92l-35 31c55 69 153 107 240 107c183 0 297 -110 297 -285c0 -166 -111 -289 -305 -289c-84 0 -178 31 -231 101l36 29c40 -50 123 -84 200 -84c145 0 239 94 248 223h-334zM368 764l-116 -144l-30 21
l108 151z" />
    <glyph glyph-name="uniF36E.var.accented" unicode="&#xf36e;`" horiz-adv-x="838" 
d="M67 0v560h50v-251h119c15 145 126 258 283 258c167 0 285 -120 285 -287c0 -165 -119 -287 -285 -287c-164 0 -271 116 -284 269h-118v-262h-50zM288 280c0 -137 98 -240 232 -240c140 0 232 103 232 240c0 139 -97 240 -232 240s-232 -101 -232 -240zM508 764l-116 -144
l-30 21l108 151z" />
    <glyph glyph-name="uniF36F.var.accented" unicode="&#xf36f;`" horiz-adv-x="572" 
d="M455 0v217h-189l-195 -217h-63l202 224c-101 15 -164 77 -164 159c0 100 71 177 228 177h231v-560h-50zM248 264h207v250h-189c-119 0 -168 -57 -168 -130c0 -61 54 -111 150 -120zM418 764l-116 -144l-30 21l108 151z" />
    <glyph glyph-name="uniF371.var.accented" unicode="&#xf371;`" horiz-adv-x="541" 
d="M137 695c0 20 16 34 33 34s35 -14 35 -34c0 -22 -18 -36 -35 -36s-33 14 -33 36zM381 695c0 20 17 34 36 34c15 0 34 -14 34 -34c0 -22 -19 -36 -34 -36c-19 0 -36 14 -36 36zM378 764l-116 -144l-30 21l108 151zM67 0v560h419v-47h-369v-205h345v-47h-345v-214h378v-47
h-428z" />
    <glyph glyph-name="afii10017.var.accented" unicode="&#x410;`" horiz-adv-x="669" 
d="M4 0l307 703h47l307 -703h-56l-91 205h-372l-88 -205h-54zM332 636l-163 -381h329zM490 855l-178 -87l-15 30l173 100z" />
    <glyph glyph-name="afii10022.var.accented" unicode="&#x415;`" horiz-adv-x="636" 
d="M80 0v700h491v-50h-438v-269h409v-50h-409v-281h448v-50h-501zM470 855l-178 -87l-15 30l173 100z" />
    <glyph glyph-name="afii10026.var.accented" unicode="&#x418;`" horiz-adv-x="735" 
d="M127 0h-47v700h53v-615l474 615h48v-700h-53v615zM500 855l-178 -87l-15 30l173 100z" />
    <glyph glyph-name="afii10032.var.accented" unicode="&#x41e;`" horiz-adv-x="784" 
d="M40 350c0 203 154 359 352 359c196 0 352 -150 352 -359c0 -206 -156 -359 -352 -359s-352 150 -352 359zM95 350c0 -176 134 -310 297 -310c169 0 297 134 297 310c0 178 -134 310 -297 310c-164 0 -297 -132 -297 -310zM520 855l-178 -87l-15 30l173 100z" />
    <glyph glyph-name="afii10037.var.accented" unicode="&#x423;`" horiz-adv-x="663" 
d="M186 17l24 44c9 -6 22 -10 35 -10c37 0 68 46 102 116l-347 533h61l315 -477l230 477h57l-267 -543c-48 -101 -92 -157 -156 -157c-20 0 -38 6 -54 17zM470 855l-178 -87l-15 30l173 100z" />
    <glyph glyph-name="afii10045.var.accented" unicode="&#x42b;`" horiz-adv-x="836" 
d="M703 0v700h53v-700h-53zM313 374h-180v-324h177c143 0 226 55 226 170c0 101 -82 154 -223 154zM133 700v-276h183c185 0 275 -77 275 -204c0 -145 -106 -220 -285 -220h-226v700h53zM550 855l-178 -87l-15 30l173 100z" />
    <glyph glyph-name="afii10047.var.accented" unicode="&#x42d;`" horiz-adv-x="689" 
d="M197 332v50h398c-13 169 -123 278 -302 278c-86 0 -183 -49 -236 -118l-37 33c64 85 179 134 280 134c216 0 349 -138 349 -356c0 -208 -130 -362 -358 -362c-99 0 -208 40 -269 124l38 31c47 -62 145 -106 237 -106c174 0 287 123 298 292h-398zM440 855l-178 -87
l-15 30l173 100z" />
    <glyph glyph-name="afii10048.var.accented" unicode="&#x42e;`" horiz-adv-x="984" 
d="M80 0v700h53v-318h145c17 183 147 327 332 327c195 0 334 -150 334 -359c0 -206 -139 -359 -334 -359c-193 0 -319 149 -333 341h-144v-332h-53zM332 350c0 -176 119 -309 279 -309c168 0 278 133 278 309c0 178 -116 309 -278 309c-161 0 -279 -131 -279 -309zM720 855
l-178 -87l-15 30l173 100z" />
    <glyph glyph-name="afii10049.var.accented" unicode="&#x42f;`" horiz-adv-x="671" 
d="M538 0v275h-228l-233 -275h-67l239 282c-119 17 -194 96 -194 207c0 115 82 211 266 211h270v-700h-53zM289 325h249v326h-226c-144 0 -202 -75 -202 -165c0 -84 64 -149 179 -161zM510 855l-178 -87l-15 30l173 100z" />
    <glyph glyph-name="afii10023.var.accented" unicode="&#x401;`" horiz-adv-x="636" 
d="M139 802c0 19 16 32 38 32c16 0 34 -13 34 -32c0 -21 -18 -32 -34 -32c-22 0 -38 11 -38 32zM448 802c0 19 16 32 37 32c18 0 34 -12 34 -32c0 -21 -16 -32 -34 -32c-21 0 -37 11 -37 32zM412 880l-116 -144l-30 21l108 151zM80 0v700h491v-50h-438v-269h409v-50h-409
v-281h448v-50h-501z" />
    <glyph glyph-name="afii10065.var.accented" unicode="&#x430;`" horiz-adv-x="533" 
d="M92 423l-28 39c48 42 129 71 195 71c143 0 214 -76 214 -208v-325h-49v94c-35 -54 -100 -101 -207 -101c-111 0 -187 60 -187 152c0 109 90 155 256 155c41 0 110 -8 138 -16c0 118 -31 202 -171 202c-61 0 -117 -27 -161 -63zM232 40c109 0 173 80 192 127v70
c-32 10 -80 16 -130 16c-132 0 -211 -25 -211 -103c0 -70 62 -110 149 -110zM378 764l-116 -144l-30 21l108 151z" />
    <glyph glyph-name="afii10070.var.accented" unicode="&#x435;`" horiz-adv-x="570" 
d="M481 129l35 -29c-45 -74 -122 -110 -205 -110c-164 0 -275 106 -275 271c0 153 91 272 262 272c135 0 236 -92 236 -235c0 -18 -1 -36 -3 -50h-442c0 -133 95 -211 225 -211c71 0 136 43 167 92zM292 486c-122 0 -196 -83 -206 -191h395c-1 118 -73 191 -189 191z
M413 764l-116 -144l-30 21l108 151z" />
    <glyph glyph-name="afii10074.var.accented" unicode="&#x438;`" horiz-adv-x="605" 
d="M121 0h-51v520h49v-451l365 451h51v-520h-49v450zM418 764l-116 -144l-30 21l108 151z" />
    <glyph glyph-name="afii10080.var.accented" unicode="&#x43e;`" horiz-adv-x="617" 
d="M36 261c0 158 110 272 272 272s273 -114 273 -272c0 -157 -111 -271 -273 -271s-272 114 -272 271zM89 261c0 -131 91 -224 219 -224c129 0 220 92 220 224s-93 225 -220 225s-219 -92 -219 -225zM423 764l-116 -144l-30 21l108 151z" />
    <glyph glyph-name="afii10085.var.accented" unicode="&#x443;`" horiz-adv-x="531" 
d="M87 -201l21 47c8 -4 15 -6 24 -6c49 0 77 27 125 135l13 29l-270 516h59l236 -449l180 449h56l-212 -522c-72 -177 -119 -208 -187 -208c-15 0 -31 3 -45 9zM398 764l-116 -144l-30 21l108 151z" />
    <glyph glyph-name="afii10093.var.accented" unicode="&#x44b;`" horiz-adv-x="683" 
d="M70 0v520h49v-176h139c159 0 205 -78 205 -171c0 -91 -52 -173 -214 -173h-179zM248 297h-129v-250h128c121 0 163 48 163 125s-44 125 -162 125zM564 0v520h49v-520h-49zM428 764l-116 -144l-30 21l108 151z" />
    <glyph glyph-name="afii10095.var.accented" unicode="&#x44d;`" horiz-adv-x="538" 
d="M170 243v47h278c-12 128 -94 196 -210 196c-79 0 -145 -30 -186 -92l-40 27c44 64 124 112 219 112c168 0 271 -105 271 -272c0 -154 -98 -271 -264 -271c-100 0 -175 33 -224 100l38 30c35 -48 90 -83 184 -83c126 0 209 90 213 206h-279zM361 764l-116 -144l-30 21
l108 151z" />
    <glyph glyph-name="afii10096.var.accented" unicode="&#x44e;`" horiz-adv-x="818" 
d="M70 0v520h49v-226h133c15 140 121 239 266 239c156 0 264 -114 264 -272c0 -157 -109 -271 -264 -271c-150 0 -257 104 -267 251h-132v-241h-49zM304 261c0 -131 95 -220 215 -220c121 0 210 89 210 220c0 130 -87 221 -210 221c-120 0 -215 -91 -215 -221zM508 764
l-116 -144l-30 21l108 151z" />
    <glyph glyph-name="afii10097.var.accented" unicode="&#x44f;`" horiz-adv-x="536" 
d="M263 520h203v-520h-49v200h-161l-182 -200h-64l186 206c-85 9 -150 71 -150 153c0 86 55 161 217 161zM99 359c0 -63 59 -112 153 -112h165v226h-164c-111 0 -154 -49 -154 -114zM428 764l-116 -144l-30 21l108 151z" />
    <glyph glyph-name="afii10071.var.accented" unicode="&#x451;`" horiz-adv-x="570" 
d="M137 695c0 20 16 34 33 34s35 -14 35 -34c0 -22 -18 -36 -35 -36s-33 14 -33 36zM381 695c0 20 17 34 36 34c15 0 34 -14 34 -34c0 -22 -19 -36 -34 -36c-19 0 -36 14 -36 36zM378 764l-116 -144l-30 21l108 151zM481 129l35 -29c-45 -74 -122 -110 -205 -110
c-164 0 -275 106 -275 271c0 153 91 272 262 272c135 0 236 -92 236 -235c0 -18 -1 -36 -3 -50h-442c0 -133 95 -211 225 -211c71 0 136 43 167 92zM292 486c-122 0 -196 -83 -206 -191h395c-1 118 -73 191 -189 191z" />
    <glyph glyph-name="fi" unicode="fi" horiz-adv-x="546" 
d="M0 473v47h110v32c0 145 91 186 165 186c30 0 56 -6 69 -18l-22 -40c-14 10 -32 11 -46 11c-64 0 -117 -33 -117 -150v-21h179v-47h-179v-473h-49v473h-110zM415 0v520h49v-520h-49zM403 692c0 20 18 35 37 35c18 0 36 -15 36 -35c0 -23 -18 -39 -36 -39
c-19 0 -37 16 -37 39z" />
    <glyph glyph-name="fl" unicode="fl" horiz-adv-x="482" 
d="M363 0v649c-19 26 -49 42 -87 42c-64 0 -117 -33 -117 -150v-21h129v-47h-129v-473h-49v473h-110v47h110v32c0 145 91 186 165 186c36 0 69 -13 94 -32l43 24v-730h-49z" />
    <glyph glyph-name=".notdef" horiz-adv-x="300" 
 />
    <glyph glyph-name="space" unicode=" " horiz-adv-x="300" 
 />
    <glyph glyph-name="exclam" unicode="!" horiz-adv-x="310" 
d="M129 191v509h52v-509h-52zM117 36c0 17 15 35 38 35c20 0 35 -18 35 -35c0 -20 -15 -38 -35 -38c-23 0 -38 18 -38 38z" />
    <glyph glyph-name="quotedbl" unicode="&#x22;" horiz-adv-x="400" 
d="M100 494v206h50v-206h-50zM250 494v206h50v-206h-50z" />
    <glyph glyph-name="numbersign" unicode="#" horiz-adv-x="686" 
d="M321 5l75 203h-214l-80 -217l-39 14l75 203h-98v44h115c24 65 49 131 73 196h-188v44h204c27 72 54 145 81 217l39 -14l-76 -203h214l80 217l39 -13l-76 -204h102v-44h-118c-24 -65 -49 -131 -73 -196h191v-44h-207l-80 -217zM272 448l-73 -196h214l72 196h-213z" />
    <glyph glyph-name="dollar" unicode="$" horiz-adv-x="615" 
d="M510 181c0 208 -456 83 -456 344c0 95 88 176 230 183v82h49v-82c91 -5 171 -35 216 -90l-33 -34c-43 41 -112 75 -210 75c-74 0 -197 -32 -197 -131c0 -210 456 -87 456 -343c0 -111 -99 -188 -232 -194v-91h-49v93c-109 9 -201 63 -244 127l39 36
c38 -51 123 -115 245 -115c92 0 186 52 186 140z" />
    <glyph glyph-name="percent" unicode="%" horiz-adv-x="847" 
d="M51 541c0 96 74 162 171 162s171 -66 171 -162c0 -95 -74 -162 -171 -162s-171 67 -171 162zM98 541c0 -73 60 -121 124 -121c67 0 124 48 124 121s-58 121 -124 121s-124 -48 -124 -121zM147 12l520 702l35 -25l-519 -698zM454 158c0 96 74 162 171 162
s171 -66 171 -162c0 -95 -74 -162 -171 -162s-171 67 -171 162zM501 158c0 -73 60 -121 124 -121c67 0 124 48 124 121s-58 121 -124 121s-124 -48 -124 -121z" />
    <glyph glyph-name="ampersand" unicode="&#x26;" horiz-adv-x="783" 
d="M753 0h-76c-39 28 -73 65 -109 99c-48 -67 -147 -108 -232 -108c-148 0 -256 83 -256 199c0 117 130 185 212 240c-40 51 -71 102 -71 163c0 73 57 116 125 116c77 0 126 -46 126 -120c0 -68 -57 -122 -121 -168c45 -70 136 -171 215 -256c41 72 75 186 75 285h49
c0 -111 -36 -232 -91 -315c47 -52 94 -90 154 -135zM339 38c66 0 150 31 194 89c-81 86 -171 203 -221 268c-78 -56 -180 -107 -180 -205c0 -86 84 -152 207 -152zM268 586c0 -53 31 -88 60 -131c57 42 98 86 98 134c0 43 -27 79 -80 79c-43 0 -78 -28 -78 -82z" />
    <glyph glyph-name="quotesingle" unicode="'" horiz-adv-x="250" 
d="M100 494v206h50v-206h-50z" />
    <glyph glyph-name="parenleft" unicode="(" horiz-adv-x="284" 
d="M274 -179l-32 -27c-152 131 -202 314 -202 461s50 323 203 461l31 -27c-136 -127 -185 -287 -185 -434c0 -158 71 -322 185 -434z" />
    <glyph glyph-name="parenright" unicode=")" horiz-adv-x="284" 
d="M42 -206l-32 27c127 111 185 287 185 434s-49 307 -185 434l31 27c153 -138 203 -314 203 -461s-50 -330 -202 -461z" />
    <glyph glyph-name="asterisk" unicode="*" horiz-adv-x="502" 
d="M279 700l-6 -152l140 52l17 -51l-145 -41l94 -119l-44 -32l-84 126l-85 -127l-44 32l95 121l-145 41l17 51l142 -52l-6 151h54z" />
    <glyph glyph-name="plus" unicode="+" 
d="M72 338v44h198v200h46v-200h201v-44h-201v-202h-46v202h-198z" />
    <glyph glyph-name="comma" unicode="," horiz-adv-x="212" 
d="M95 0c-14 0 -34 14 -34 36c0 32 24 47 49 47c29 0 55 -25 55 -78c0 -85 -50 -137 -103 -152l-14 25c43 12 78 57 78 103c0 14 2 24 -6 31c-3 -7 -18 -12 -25 -12z" />
    <glyph glyph-name="hyphen" unicode="-" horiz-adv-x="400" 
d="M86 248v47h228v-47h-228z" />
    <glyph glyph-name="period" unicode="." horiz-adv-x="193" 
d="M54 42c0 20 17 41 44 41c24 0 41 -21 41 -41c0 -23 -17 -44 -41 -44c-27 0 -44 21 -44 44z" />
    <glyph glyph-name="slash" unicode="/" horiz-adv-x="315" 
d="M-30 -193l336 902l39 -14l-335 -903z" />
    <glyph glyph-name="zero" unicode="0" horiz-adv-x="681" 
d="M50 350c0 207 102 358 290 358c189 0 291 -151 291 -358s-100 -358 -289 -358c-188 0 -292 151 -292 358zM102 350c0 -188 101 -312 240 -312c146 0 237 124 237 312c0 189 -91 312 -239 312c-152 0 -238 -125 -238 -312z" />
    <glyph glyph-name="one" unicode="1" horiz-adv-x="394" 
d="M5 589l245 117h34v-706h-49v645l-211 -99z" />
    <glyph glyph-name="two" unicode="2" horiz-adv-x="586" 
d="M93 506l-43 21c26 84 111 181 246 181c140 0 229 -78 229 -200c0 -159 -149 -283 -292 -383l-113 -79h426v-46h-506v41l167 122c117 94 266 210 266 340c0 94 -71 156 -178 156c-102 0 -178 -78 -202 -153z" />
    <glyph glyph-name="three" unicode="3" horiz-adv-x="584" 
d="M89 557l-41 20c44 82 125 132 236 132c140 0 232 -68 232 -176c0 -100 -63 -143 -126 -167c74 -16 144 -56 144 -173c0 -137 -108 -202 -253 -202c-114 0 -218 57 -258 149l45 20c49 -80 122 -119 220 -119c107 0 194 53 194 150c0 108 -89 143 -184 143h-111v49h91
c95 0 186 61 186 144c0 89 -83 132 -174 132c-95 0 -156 -31 -201 -102z" />
    <glyph glyph-name="four" unicode="4" horiz-adv-x="638" 
d="M440 0v156h-425v33l425 511h50v-495h133v-49h-133v-156h-50zM86 205h354v419z" />
    <glyph glyph-name="five" unicode="5" horiz-adv-x="584" 
d="M67 339l44 361h422v-49h-380l-32 -250c24 12 91 28 159 28c159 0 254 -84 254 -213c0 -137 -113 -225 -251 -225c-112 0 -199 39 -253 125l43 27c30 -59 112 -103 205 -103c123 0 204 74 204 174c0 112 -87 170 -203 170c-91 0 -176 -30 -212 -45z" />
    <glyph glyph-name="six" unicode="6" horiz-adv-x="645" 
d="M50 331c0 252 153 378 317 378c85 0 160 -26 198 -67l-29 -35c-38 33 -93 53 -175 53c-117 0 -264 -94 -260 -333c45 90 153 134 247 134c175 0 257 -87 257 -228c0 -139 -114 -242 -259 -242c-183 0 -296 120 -296 340zM109 264c0 -107 85 -224 236 -224
c119 0 208 84 208 193c0 126 -80 181 -216 181c-116 0 -213 -90 -228 -150z" />
    <glyph glyph-name="seven" unicode="7" horiz-adv-x="553" 
d="M25 651v49h503v-34l-347 -666h-55l340 651h-441z" />
    <glyph glyph-name="eight" unicode="8" horiz-adv-x="667" 
d="M318 385h32c88 0 181 58 181 137c0 88 -73 138 -199 138c-115 0 -196 -51 -196 -138c0 -79 95 -137 182 -137zM348 335h-26c-109 0 -210 -56 -210 -146c0 -87 89 -149 221 -149c129 0 222 61 222 149c0 93 -109 146 -207 146zM334 -9c-162 0 -274 71 -274 190
c0 105 76 162 165 180c-86 24 -141 78 -141 166c0 110 91 182 249 182c163 0 250 -72 250 -182c0 -88 -66 -147 -144 -165c94 -12 168 -78 168 -177c0 -123 -120 -194 -273 -194z" />
    <glyph glyph-name="nine" unicode="9" horiz-adv-x="643" 
d="M593 369c0 -265 -123 -378 -287 -378c-85 0 -173 31 -220 84l32 34c56 -47 108 -69 194 -69c122 0 235 84 230 333c-44 -100 -153 -134 -247 -134c-168 0 -255 90 -255 228c0 149 130 242 270 242c186 0 283 -120 283 -340zM534 436c0 107 -73 224 -222 224
c-120 0 -220 -74 -220 -192c0 -127 86 -182 202 -182s205 62 240 150z" />
    <glyph glyph-name="colon" unicode=":" horiz-adv-x="322" 
d="M117 479c0 20 17 41 44 41c24 0 41 -21 41 -41c0 -23 -17 -44 -41 -44c-27 0 -44 21 -44 44zM118 42c0 20 17 41 44 41c24 0 41 -21 41 -41c0 -23 -17 -44 -41 -44c-27 0 -44 21 -44 44z" />
    <glyph glyph-name="semicolon" unicode=";" horiz-adv-x="325" 
d="M117 479c0 20 17 41 44 41c24 0 41 -21 41 -41c0 -23 -17 -44 -41 -44c-27 0 -44 21 -44 44zM150 0c-14 0 -34 14 -34 36c0 32 24 47 49 47c29 0 55 -25 55 -78c0 -85 -50 -137 -103 -152l-14 25c43 12 78 57 78 103c0 14 2 24 -6 31c-3 -7 -18 -12 -25 -12z" />
    <glyph glyph-name="less" unicode="&#x3c;" 
d="M482 90l-417 262v20l417 260v-54l-348 -216l348 -218v-54z" />
    <glyph glyph-name="equal" unicode="=" 
d="M72 252v44h445v-44h-445zM72 424v44h445v-44h-445z" />
    <glyph glyph-name="greater" unicode="&#x3e;" 
d="M523 352l-417 -262v54l349 218l-349 216v54l417 -260v-20z" />
    <glyph glyph-name="question" unicode="?" horiz-adv-x="603" 
d="M491 529c0 74 -66 131 -187 131c-109 0 -176 -63 -204 -120l-40 25c30 71 116 144 248 144c151 0 235 -78 235 -170c0 -210 -244 -183 -244 -317c0 -13 1 -17 4 -33h-45c-5 22 -4 38 -4 49c0 143 237 127 237 291zM242 36c0 17 15 35 38 35c20 0 35 -18 35 -35
c0 -20 -15 -38 -35 -38c-23 0 -38 18 -38 38z" />
    <glyph glyph-name="at" unicode="@" horiz-adv-x="1015" 
d="M655 0v50c-34 -37 -93 -59 -153 -59c-136 0 -224 92 -224 234c0 131 106 234 249 234c67 0 132 -19 178 -49v-364c129 0 192 99 192 221c0 199 -157 347 -380 347c-228 0 -399 -166 -399 -389c0 -219 170 -389 399 -389c38 0 74 4 108 12l5 -46c-36 -8 -74 -13 -113 -13
c-259 0 -445 191 -445 436c0 242 186 436 445 436c244 0 426 -161 426 -392c0 -134 -75 -269 -238 -269h-50zM509 37c60 0 120 38 146 71v271c-43 24 -88 34 -129 34c-112 0 -196 -84 -196 -190c0 -115 72 -186 179 -186z" />
    <glyph glyph-name="A" unicode="A" horiz-adv-x="669" 
d="M4 0l307 703h47l307 -703h-56l-91 205h-372l-88 -205h-54zM332 636l-163 -381h329z" />
    <glyph glyph-name="B" unicode="B" horiz-adv-x="670" 
d="M80 0v700h264c195 0 250 -73 250 -171c0 -81 -41 -143 -117 -166c88 -9 143 -72 143 -168c0 -139 -107 -195 -278 -195h-262zM360 333h-227v-283h217c146 0 217 46 217 148c0 88 -66 135 -207 135zM348 650h-215v-267h230c105 0 178 50 178 137c0 86 -50 130 -193 130z
" />
    <glyph glyph-name="C" unicode="C" horiz-adv-x="684" 
d="M630 138l29 -35c-47 -63 -148 -112 -257 -112c-222 0 -362 141 -362 359c0 201 132 359 349 359c125 0 216 -54 260 -107l-31 -35c-61 56 -120 92 -233 92c-184 0 -290 -131 -290 -309c0 -186 122 -309 309 -309c109 0 179 46 226 97z" />
    <glyph glyph-name="D" unicode="D" horiz-adv-x="708" 
d="M80 0v700h212c275 0 376 -158 376 -340c0 -200 -121 -360 -384 -360h-204zM290 650h-157v-600h153c229 0 327 134 327 310c0 163 -88 290 -323 290z" />
    <glyph glyph-name="E" unicode="E" horiz-adv-x="636" 
d="M80 0v700h491v-50h-438v-269h409v-50h-409v-281h448v-50h-501z" />
    <glyph glyph-name="F" unicode="F" horiz-adv-x="606" 
d="M80 0v700h486v-50h-433v-291h403v-50h-403v-309h-53z" />
    <glyph glyph-name="G" unicode="G" horiz-adv-x="704" 
d="M411 288v50h253v-248c-58 -63 -170 -99 -263 -99c-208 0 -361 141 -361 359c0 201 157 359 354 359c116 0 195 -34 253 -96l-28 -38c-43 47 -115 85 -219 85c-179 0 -305 -130 -305 -310c0 -187 129 -310 308 -310c72 0 152 23 211 74v174h-203z" />
    <glyph glyph-name="H" unicode="H" horiz-adv-x="745" 
d="M612 0v332h-479v-332h-53v700h53v-318h479v318h53v-700h-53z" />
    <glyph glyph-name="I" unicode="I" horiz-adv-x="233" 
d="M90 0v700h53v-700h-53z" />
    <glyph glyph-name="J" unicode="J" horiz-adv-x="485" 
d="M405 700v-495c0 -139 -83 -214 -206 -214c-106 0 -173 69 -199 123l41 30c28 -54 86 -105 156 -104c94 2 155 46 155 173v487h53z" />
    <glyph glyph-name="K" unicode="K" horiz-adv-x="639" 
d="M80 0v700h53v-376l404 376h71l-346 -321l373 -379h-71l-340 344l-91 -83v-261h-53z" />
    <glyph glyph-name="L" unicode="L" horiz-adv-x="579" 
d="M80 0v700h53v-650h436v-50h-489z" />
    <glyph glyph-name="M" unicode="M" horiz-adv-x="829" 
d="M80 0v700h54l287 -385l276 385h52v-700h-53v616l-273 -378h-11l-279 375v-613h-53z" />
    <glyph glyph-name="N" unicode="N" horiz-adv-x="736" 
d="M656 0h-43l-482 604v-604h-51v700h44l481 -606v606h51v-700z" />
    <glyph glyph-name="O" unicode="O" horiz-adv-x="784" 
d="M40 350c0 203 154 359 352 359c196 0 352 -150 352 -359c0 -206 -156 -359 -352 -359s-352 150 -352 359zM95 350c0 -176 134 -310 297 -310c169 0 297 134 297 310c0 178 -134 310 -297 310c-164 0 -297 -132 -297 -310z" />
    <glyph glyph-name="P" unicode="P" horiz-adv-x="649" 
d="M133 0h-53v700h248c232 0 281 -105 281 -208c0 -109 -72 -212 -282 -212h-194v-280zM333 651h-200v-321l192 -1c160 -1 229 67 229 164c0 92 -59 158 -221 158z" />
    <glyph glyph-name="Q" unicode="Q" horiz-adv-x="784" 
d="M40 350c0 203 154 359 352 359c196 0 352 -150 352 -359c0 -102 -44 -198 -121 -274l76 -90l-35 -31l-78 93c-56 -36 -122 -57 -194 -57c-196 0 -352 150 -352 359zM95 350c0 -176 134 -310 297 -310c56 0 110 16 161 47l-65 79l34 32l68 -82c60 56 99 139 99 234
c0 178 -134 310 -297 310c-164 0 -297 -132 -297 -310z" />
    <glyph glyph-name="R" unicode="R" horiz-adv-x="672" 
d="M133 0h-53v700h259c207 0 263 -93 263 -199s-80 -180 -191 -195l241 -306h-66l-230 295h-223v-295zM336 650h-203v-305h209c123 0 205 62 205 156c0 86 -53 149 -211 149z" />
    <glyph glyph-name="S" unicode="S" horiz-adv-x="615" 
d="M510 181c0 208 -456 83 -456 344c0 100 97 184 251 184c103 0 195 -30 244 -91l-33 -34c-43 41 -112 75 -210 75c-74 0 -197 -32 -197 -131c0 -210 456 -87 456 -343c0 -115 -106 -194 -247 -194c-123 0 -230 59 -278 129l39 36c38 -51 123 -115 245 -115
c92 0 186 52 186 140z" />
    <glyph glyph-name="T" unicode="T" horiz-adv-x="571" 
d="M4 650v50h563v-50h-255v-650h-53v650h-255z" />
    <glyph glyph-name="U" unicode="U" horiz-adv-x="717" 
d="M647 700v-407c0 -214 -141 -301 -279 -301c-160 0 -298 103 -298 308v400h53v-391c0 -185 119 -267 245 -267c148 0 226 98 226 262v396h53z" />
    <glyph glyph-name="V" unicode="V" horiz-adv-x="705" 
d="M705 700l-324 -700h-42l-339 700h56l307 -629l288 629h54z" />
    <glyph glyph-name="W" unicode="W" horiz-adv-x="960" 
d="M956 700l-208 -700h-50l-214 615l-211 -615h-51l-218 700h57l190 -610l209 610h49l214 -610l181 610h52z" />
    <glyph glyph-name="X" unicode="X" horiz-adv-x="632" 
d="M603 700l-253 -344l262 -356h-63l-233 315l-233 -315h-63l262 356l-251 344h62l224 -303l223 303h63z" />
    <glyph glyph-name="Y" unicode="Y" horiz-adv-x="612" 
d="M612 700l-281 -393v-307h-53v307l-278 393h63l244 -345l247 345h58z" />
    <glyph glyph-name="Z" unicode="Z" horiz-adv-x="628" 
d="M34 650v50h564v-37l-509 -613h519v-50h-593v37l507 613h-488z" />
    <glyph glyph-name="bracketleft" unicode="[" horiz-adv-x="294" 
d="M60 -200v910h228v-46h-179v-818h179v-46h-228z" />
    <glyph glyph-name="backslash" unicode="\" horiz-adv-x="315" 
d="M9 709l336 -902l-40 -15l-335 903z" />
    <glyph glyph-name="bracketright" unicode="]" horiz-adv-x="294" 
d="M234 710v-910h-228v46h178v818h-178v46h228z" />
    <glyph glyph-name="asciicircum" unicode="^" horiz-adv-x="479" 
d="M49 450l175 258h32l174 -258h-54l-136 206l-137 -206h-54z" />
    <glyph glyph-name="underscore" unicode="_" horiz-adv-x="285" 
d="M0 -200v49h285v-49h-285z" />
    <glyph glyph-name="grave" unicode="`" horiz-adv-x="374" 
d="M344 621l-116 142l38 29l108 -149z" />
    <glyph glyph-name="a" unicode="a" horiz-adv-x="533" 
d="M92 423l-28 39c48 42 129 71 195 71c143 0 214 -76 214 -208v-325h-49v94c-35 -54 -100 -101 -207 -101c-111 0 -187 60 -187 152c0 109 90 155 256 155c41 0 110 -8 138 -16c0 118 -31 202 -171 202c-61 0 -117 -27 -161 -63zM232 40c109 0 173 80 192 127v70
c-32 10 -80 16 -130 16c-132 0 -211 -25 -211 -103c0 -70 62 -110 149 -110z" />
    <glyph glyph-name="b" unicode="b" horiz-adv-x="594" 
d="M70 89v641h49v-293c52 68 120 96 198 96c148 0 241 -109 241 -263c0 -173 -101 -280 -265 -280c-94 0 -182 47 -223 99zM313 486c-91 0 -159 -58 -194 -125v-250c44 -49 118 -74 183 -74c117 0 203 86 203 227c0 137 -81 222 -192 222z" />
    <glyph glyph-name="c" unicode="c" horiz-adv-x="525" 
d="M480 123l33 -31c-36 -66 -127 -102 -201 -102c-164 0 -276 106 -276 271c0 153 107 272 272 272c76 0 159 -35 195 -92l-39 -29c-39 51 -88 74 -158 74c-124 0 -217 -95 -217 -225c0 -138 92 -224 226 -224c68 0 130 35 165 86z" />
    <glyph glyph-name="d" unicode="d" horiz-adv-x="597" 
d="M478 0v88c-19 -35 -81 -97 -179 -97c-157 0 -263 105 -263 268c0 162 120 274 269 274c76 0 135 -24 173 -66v263h49v-730h-49zM300 38c103 0 159 80 178 122v234c-40 62 -98 92 -176 92c-113 0 -213 -90 -213 -225c0 -138 88 -223 211 -223z" />
    <glyph glyph-name="e" unicode="e" horiz-adv-x="570" 
d="M481 129l35 -29c-45 -74 -122 -110 -205 -110c-164 0 -275 106 -275 271c0 153 91 272 262 272c135 0 236 -92 236 -235c0 -18 -1 -36 -3 -50h-442c0 -133 95 -211 225 -211c71 0 136 43 167 92zM292 486c-122 0 -196 -83 -206 -191h395c-1 118 -73 191 -189 191z" />
    <glyph glyph-name="f" unicode="f" horiz-adv-x="333" 
d="M0 473v47h110v32c0 145 91 186 165 186c53 0 99 -27 121 -61l-33 -28c-19 26 -49 42 -87 42c-64 0 -117 -33 -117 -150v-21h179v-47h-179v-473h-49v473h-110z" />
    <glyph glyph-name="g" unicode="g" horiz-adv-x="599" 
d="M529 520v-483c0 -177 -103 -246 -224 -246c-110 0 -200 47 -226 116l44 22c22 -45 80 -91 182 -91c111 0 175 73 175 192v51c-27 -44 -79 -91 -181 -91c-160 0 -263 106 -263 271c0 167 113 272 265 272c86 0 155 -37 179 -73v60h49zM306 37c91 0 153 60 174 122v230
c-29 54 -91 97 -175 97c-116 0 -216 -80 -216 -227c0 -137 87 -222 217 -222z" />
    <glyph glyph-name="h" unicode="h" horiz-adv-x="593" 
d="M70 0v730h49v-298c43 64 103 100 196 100c141 0 218 -72 218 -235v-297h-49v289c0 131 -60 196 -182 196c-93 0 -156 -62 -183 -135v-350h-49z" />
    <glyph glyph-name="i" unicode="i" horiz-adv-x="213" 
d="M82 0v520h49v-520h-49zM70 692c0 20 18 35 37 35c18 0 36 -15 36 -35c0 -23 -18 -39 -36 -39c-19 0 -37 16 -37 39z" />
    <glyph glyph-name="j" unicode="j" horiz-adv-x="214" 
d="M133 520v-527c0 -127 -46 -202 -149 -202c-56 0 -105 27 -124 60l37 31c17 -19 34 -44 87 -44c66 0 100 59 100 158v524h49zM72 692c0 20 17 35 37 35c18 0 35 -15 35 -35c0 -23 -17 -39 -35 -39c-20 0 -37 16 -37 39z" />
    <glyph glyph-name="k" unicode="k" horiz-adv-x="519" 
d="M70 0v730h49v-474l304 264h69l-266 -233l289 -287h-68l-262 256l-66 -54v-202h-49z" />
    <glyph glyph-name="l" unicode="l" horiz-adv-x="189" 
d="M70 0v730h49v-730h-49z" />
    <glyph glyph-name="m" unicode="m" horiz-adv-x="892" 
d="M832 344v-344h-49v328c0 91 -36 157 -131 157c-90 0 -147 -52 -177 -114v-371h-49v356c0 76 -49 129 -134 129c-91 0 -152 -78 -173 -128v-357h-49v520h49v-90c29 55 96 102 178 102c80 0 143 -36 165 -96c40 60 113 96 191 96c98 0 179 -46 179 -188z" />
    <glyph glyph-name="n" unicode="n" horiz-adv-x="593" 
d="M70 0v520h49v-86c40 66 121 98 199 98c138 0 215 -70 215 -234v-298h-49v288c0 133 -60 197 -182 197c-74 0 -150 -52 -183 -125v-360h-49z" />
    <glyph glyph-name="o" unicode="o" horiz-adv-x="617" 
d="M36 261c0 158 110 272 272 272s273 -114 273 -272c0 -157 -111 -271 -273 -271s-272 114 -272 271zM89 261c0 -131 91 -224 219 -224c129 0 220 92 220 224s-93 225 -220 225s-219 -92 -219 -225z" />
    <glyph glyph-name="p" unicode="p" horiz-adv-x="599" 
d="M70 -200v720h49v-87c45 74 124 100 199 100c152 0 245 -109 245 -263c0 -160 -107 -280 -259 -280c-74 0 -149 29 -185 77v-267h-49zM314 486c-102 0 -172 -72 -195 -137v-209c42 -77 114 -103 186 -103c117 0 205 96 205 230c0 129 -75 219 -196 219z" />
    <glyph glyph-name="q" unicode="q" horiz-adv-x="599" 
d="M480 -200v274c-29 -44 -92 -84 -181 -84c-160 0 -263 106 -263 271c0 153 122 272 274 272c87 0 146 -28 170 -60v47h49v-720h-49zM300 37c90 0 152 48 180 112v256c-36 58 -96 81 -171 81c-120 0 -220 -100 -220 -227c0 -133 87 -222 211 -222z" />
    <glyph glyph-name="r" unicode="r" horiz-adv-x="344" 
d="M70 0v520h49v-62c22 50 79 74 123 74c46 0 84 -19 107 -48l-36 -30c-16 18 -35 31 -75 31c-58 0 -107 -51 -119 -111v-374h-49z" />
    <glyph glyph-name="s" unicode="s" horiz-adv-x="497" 
d="M408 135c0 133 -358 69 -358 256c0 88 76 142 195 142c79 0 162 -36 198 -88l-36 -31c-25 39 -96 72 -161 72c-73 0 -143 -20 -143 -94c0 -138 358 -75 358 -256c0 -101 -93 -146 -202 -146c-95 0 -189 44 -227 121l40 29c32 -65 111 -103 188 -103c60 0 148 23 148 98z
" />
    <glyph glyph-name="t" unicode="t" horiz-adv-x="388" 
d="M0 473v47h109v120h49v-120h191v-47h-191v-265c0 -127 36 -168 115 -168c42 0 75 25 90 44l30 -31c-25 -32 -74 -60 -131 -60c-106 0 -153 72 -153 205v275h-109z" />
    <glyph glyph-name="u" unicode="u" horiz-adv-x="585" 
d="M515 523v-523h-49v98c-41 -67 -109 -108 -195 -108c-139 0 -211 71 -211 229v304h49v-291c0 -105 35 -195 165 -195c84 0 157 55 192 142v344h49z" />
    <glyph glyph-name="v" unicode="v" horiz-adv-x="503" 
d="M509 520l-236 -520h-33l-246 520h58l207 -442l198 442h52z" />
    <glyph glyph-name="w" unicode="w" horiz-adv-x="770" 
d="M770 520l-170 -520h-40l-172 453l-173 -453h-38l-177 520h52l147 -443l169 443h41l171 -447l141 447h49z" />
    <glyph glyph-name="x" unicode="x" horiz-adv-x="511" 
d="M489 520l-198 -250l210 -270h-62l-185 238l-187 -238h-57l209 268l-197 252h61l174 -221l173 221h59z" />
    <glyph glyph-name="y" unicode="y" horiz-adv-x="531" 
d="M87 -201l21 47c8 -4 15 -6 24 -6c49 0 77 27 125 135l13 29l-270 516h59l236 -449l180 449h56l-212 -522c-72 -177 -119 -208 -187 -208c-15 0 -31 3 -45 9z" />
    <glyph glyph-name="z" unicode="z" horiz-adv-x="485" 
d="M37 473v47h428v-32l-370 -441h364v-47h-439v33l369 440h-352z" />
    <glyph glyph-name="braceleft" unicode="{" horiz-adv-x="311" 
d="M110 -74v209c0 54 -29 98 -90 98v44c36 0 90 21 90 110v193c0 80 31 130 121 130h60v-46h-50c-58 0 -82 -40 -82 -99v-195c0 -65 -30 -108 -75 -114c42 -5 75 -37 75 -114v-198c0 -77 28 -98 88 -98h44v-46h-60c-79 0 -121 37 -121 126z" />
    <glyph glyph-name="bar" unicode="|" horiz-adv-x="321" 
d="M136 0v700h49v-700h-49z" />
    <glyph glyph-name="braceright" unicode="}" horiz-adv-x="311" 
d="M201 135v-209c0 -89 -42 -126 -121 -126h-60v46h44c60 0 88 21 88 98v198c0 77 33 109 75 114c-45 6 -75 49 -75 114v195c0 59 -24 99 -82 99h-50v46h60c90 0 121 -50 121 -130v-193c0 -89 54 -110 90 -110v-44c-61 0 -90 -44 -90 -98z" />
    <glyph glyph-name="asciitilde" unicode="~" 
d="M82 324l-24 32c36 35 80 63 130 63c10 0 20 -1 31 -4c67 -16 124 -69 196 -69c31 0 64 16 94 46l21 -34c-38 -36 -78 -56 -116 -56c-82 0 -145 73 -228 73c-36 0 -72 -19 -104 -51z" />
    <glyph glyph-name="uni00A0" unicode="&#xa0;" horiz-adv-x="300" 
 />
    <glyph glyph-name="exclamdown" unicode="&#xa1;" horiz-adv-x="310" 
d="M129 -182v509h52v-509h-52zM117 482c0 20 15 38 38 38c20 0 35 -18 35 -38c0 -17 -15 -35 -35 -35c-23 0 -38 18 -38 35z" />
    <glyph glyph-name="cent" unicode="&#xa2;" horiz-adv-x="525" 
d="M480 123l33 -31c-35 -65 -123 -100 -196 -102v-190h-49v193c-140 17 -232 118 -232 268c0 140 90 252 232 269v170h49v-167c73 -3 151 -38 186 -92l-39 -29c-37 48 -83 71 -147 74v-449c67 0 128 35 163 86zM89 261c0 -121 71 -202 179 -220v441
c-105 -17 -179 -105 -179 -221z" />
    <glyph glyph-name="sterling" unicode="&#xa3;" 
d="M81 284v41h79c-21 56 -56 99 -56 189c0 100 78 194 207 194c79 0 147 -28 187 -73l-28 -38c-42 42 -97 62 -159 62c-80 0 -152 -61 -152 -147c0 -70 36 -122 57 -187h173v-41h-164c2 -12 3 -24 3 -38c0 -67 -21 -122 -42 -149c78 0 146 -52 227 -52c47 0 72 14 111 51
l23 -41c-42 -41 -90 -59 -136 -59c-77 0 -146 52 -228 52c-39 0 -78 -18 -116 -55l-22 39c25 26 51 43 78 53c30 39 53 88 53 154c0 16 -2 31 -5 45h-90z" />
    <glyph glyph-name="currency" unicode="&#xa4;" 
d="M71 347c0 53 17 104 48 145l-90 91l31 31l90 -90c37 31 86 50 145 50c58 0 107 -19 144 -50l96 94l31 -30l-96 -97c32 -40 49 -91 49 -144s-17 -104 -48 -144l91 -92l-30 -31l-92 91c-37 -31 -86 -51 -145 -51s-109 19 -146 51l-96 -96l-30 31l96 97
c-31 40 -48 91 -48 144zM117 347c0 -97 67 -183 178 -183c112 0 177 86 177 183c0 100 -66 184 -177 184c-110 0 -178 -85 -178 -184z" />
    <glyph glyph-name="yen" unicode="&#xa5;" horiz-adv-x="612" 
d="M83 305v44h165l-248 351h63l244 -345l247 345h58l-251 -351h167v-44h-197v-128h197v-44h-197v-133h-53v133h-195v44h195v128h-195z" />
    <glyph glyph-name="brokenbar" unicode="&#xa6;" horiz-adv-x="321" 
d="M185 440h-49v260h49v-260zM136 260h49v-260h-49v260z" />
    <glyph glyph-name="section" unicode="&#xa7;" horiz-adv-x="524" 
d="M72 249c0 89 61 158 127 173c-36 17 -78 61 -78 133c0 86 62 145 153 145c71 0 115 -34 136 -61l-37 -33c-19 21 -42 48 -99 48c-58 0 -103 -45 -103 -101c0 -63 52 -101 104 -123c106 -6 177 -81 177 -181c0 -89 -60 -155 -131 -174c45 -20 80 -70 80 -125
c0 -87 -51 -150 -153 -150c-71 0 -113 29 -134 56l35 38c19 -21 42 -48 99 -48c55 0 103 43 103 101c0 63 -52 100 -104 121c-113 7 -175 82 -175 181zM121 249c0 -78 64 -137 141 -137c80 0 141 59 141 137c0 79 -63 138 -141 138s-141 -59 -141 -138z" />
    <glyph glyph-name="dieresis" unicode="&#xa8;" horiz-adv-x="461" 
d="M147 695c0 20 16 34 33 34s35 -14 35 -34c0 -22 -18 -36 -35 -36s-33 14 -33 36zM391 695c0 20 17 34 36 34c15 0 34 -14 34 -34c0 -22 -19 -36 -34 -36c-19 0 -36 14 -36 36z" />
    <glyph glyph-name="copyright" unicode="&#xa9;" horiz-adv-x="1018" 
d="M77 221c0 240 185 432 432 432s432 -192 432 -432s-185 -432 -432 -432s-432 192 -432 432zM121 221c0 -214 165 -388 388 -388s388 174 388 388s-165 388 -388 388s-388 -174 -388 -388zM663 100l24 -36c-38 -48 -104 -73 -169 -73c-140 0 -238 92 -238 234
c0 131 96 234 224 234c69 0 130 -15 174 -56l-24 -39c-36 32 -86 50 -136 50c-21 0 -43 -3 -63 -10c-78 -26 -123 -101 -123 -181c0 -20 3 -42 9 -62c23 -78 94 -124 180 -124c58 0 110 26 142 63z" />
    <glyph glyph-name="ordfeminine" unicode="&#xaa;" horiz-adv-x="436" 
d="M94 539l-20 38c34 25 92 43 139 43c102 0 153 -46 153 -126v-194h-42v53c-25 -32 -64 -59 -141 -59c-79 0 -133 37 -133 92c0 66 60 103 168 103c44 0 86 -5 106 -10c0 72 -35 99 -115 99c-43 0 -83 -17 -115 -39zM194 337c70 0 116 46 130 75v25c-20 4 -65 12 -114 12
c-66 0 -114 -20 -114 -59c0 -32 36 -53 98 -53z" />
    <glyph glyph-name="guillemotleft" unicode="&#xab;" horiz-adv-x="503" 
d="M231 38l-179 210v4l181 208l32 -28l-157 -182l156 -182zM403 38l-179 210v4l181 208l32 -28l-157 -182l156 -182z" />
    <glyph glyph-name="logicalnot" unicode="&#xac;" 
d="M66 338v44h456v-175h-43v131h-413z" />
    <glyph glyph-name="uni00AD" unicode="&#xad;" horiz-adv-x="400" 
d="M86 248v47h228v-47h-228z" />
    <glyph glyph-name="registered" unicode="&#xae;" horiz-adv-x="578" 
d="M54 497c0 129 105 234 236 234c129 0 234 -105 234 -234c0 -131 -105 -236 -234 -236c-131 0 -236 105 -236 236zM95 496c0 -107 87 -194 194 -194s194 87 194 194s-87 194 -194 194s-194 -87 -194 -194zM237 360h-35v280h82c78 0 102 -38 102 -82c0 -39 -28 -69 -66 -80
l88 -118h-43l-81 112h-47v-112zM348 554c0 48 -26 59 -68 59h-43v-114h48c26 0 63 18 63 55z" />
    <glyph glyph-name="macron" unicode="&#xaf;" horiz-adv-x="444" 
d="M190 655v46h254v-46h-254z" />
    <glyph glyph-name="degree" unicode="&#xb0;" horiz-adv-x="397" 
d="M54 569c0 82 65 145 144 145c80 0 144 -61 144 -143c0 -80 -64 -145 -144 -145c-79 0 -144 63 -144 143zM98 570c0 -55 45 -100 100 -100s101 45 101 100s-46 100 -101 100s-100 -45 -100 -100z" />
    <glyph glyph-name="plusminus" unicode="&#xb1;" 
d="M72 417v44h198v199h46v-199h201v-44h-201v-141h-46v141h-198zM72 174v44h445v-44h-445z" />
    <glyph glyph-name="twosuperior" unicode="&#xb2;" horiz-adv-x="413" 
d="M81 606l-37 17c22 56 88 102 160 102c89 0 147 -42 147 -119c0 -91 -82 -163 -162 -215l-76 -49h260v-42h-333v39l110 75c82 57 155 116 155 188c0 56 -40 81 -100 81c-65 0 -102 -39 -124 -77z" />
    <glyph glyph-name="threesuperior" unicode="&#xb3;" horiz-adv-x="422" 
d="M91 623l-36 22c30 49 90 80 168 80c86 0 141 -40 141 -105c0 -50 -28 -85 -72 -99c39 -8 85 -35 85 -105c0 -82 -79 -121 -163 -121c-66 0 -146 34 -174 89l37 27c23 -46 84 -74 137 -74c70 0 116 28 116 78c0 64 -55 79 -111 79h-64v42h50c66 0 113 30 113 80
c0 46 -36 67 -97 67s-98 -17 -130 -60z" />
    <glyph glyph-name="acute" unicode="&#xb4;" horiz-adv-x="433" 
d="M418 764l-116 -144l-30 21l108 151z" />
    <glyph glyph-name="mu" unicode="&#xb5;" horiz-adv-x="595" 
d="M525 520v-520h-50v79c-43 -53 -121 -89 -206 -89c-61 0 -112 18 -149 58v-248h-50v720h50v-288c0 -128 49 -195 169 -195c78 0 152 51 186 97v386h50z" />
    <glyph glyph-name="mu" unicode="&#x3bc;" horiz-adv-x="595" 
d="M525 520v-520h-50v79c-43 -53 -121 -89 -206 -89c-61 0 -112 18 -149 58v-248h-50v720h50v-288c0 -128 49 -195 169 -195c78 0 152 51 186 97v386h50z" />
    <glyph glyph-name="paragraph" unicode="&#xb6;" horiz-adv-x="435" 
d="M52 481c0 136 80 219 207 219h141v-46h-94v-622c0 -103 4 -240 -145 -240c-41 0 -78 16 -99 34l21 37c16 -12 44 -25 74 -25c83 0 100 62 100 191v234c-114 1 -205 81 -205 218z" />
    <glyph glyph-name="periodcentered" unicode="&#xb7;" horiz-adv-x="236" 
d="M81 296c0 17 15 35 38 35c20 0 35 -18 35 -35c0 -20 -15 -38 -35 -38c-23 0 -38 18 -38 38z" />
    <glyph glyph-name="cedilla" unicode="&#xb8;" horiz-adv-x="408" 
d="M209 -176l15 38c27 -13 53 -19 74 -19c52 0 60 15 60 37c0 28 -21 36 -60 36h-26v84h40v-44c69 -1 96 -35 96 -76s-32 -80 -110 -80c-27 0 -63 7 -89 24z" />
    <glyph glyph-name="onesuperior" unicode="&#xb9;" horiz-adv-x="286" 
d="M10 653l163 71h33v-424h-44v376l-138 -59z" />
    <glyph glyph-name="ordmasculine" unicode="&#xba;" horiz-adv-x="461" 
d="M60 457c0 96 73 163 170 163c98 0 171 -67 171 -163c0 -95 -73 -163 -171 -163c-97 0 -170 68 -170 163zM106 457c0 -73 60 -121 124 -121c67 0 125 48 125 121s-59 121 -125 121c-65 0 -124 -48 -124 -121z" />
    <glyph glyph-name="guillemotright" unicode="&#xbb;" horiz-adv-x="503" 
d="M437 248l-179 -210l-33 30l156 182l-157 182l32 28l181 -208v-4zM265 248l-179 -210l-33 30l156 182l-157 182l32 28l181 -208v-4z" />
    <glyph glyph-name="onequarter" unicode="&#xbc;" horiz-adv-x="861" 
d="M90 25l546 676l33 -26l-544 -678zM40 653l163 71h33v-424h-44v376l-138 -59zM682 0v100h-287v32l287 288h46v-278h93v-42h-93v-100h-46zM462 142h220v218z" />
    <glyph glyph-name="onehalf" unicode="&#xbd;" horiz-adv-x="883" 
d="M90 25l546 676l33 -26l-544 -678zM40 653l163 71h33v-424h-44v376l-138 -59zM531 306l-37 17c22 56 88 102 160 102c89 0 147 -42 147 -119c0 -91 -82 -163 -162 -215l-76 -49h260v-42h-333v39l110 75c82 57 155 116 155 188c0 56 -40 81 -100 81
c-65 0 -102 -39 -124 -77z" />
    <glyph glyph-name="threequarters" unicode="&#xbe;" horiz-adv-x="951" 
d="M180 25l546 676l33 -26l-544 -678zM772 0v100h-287v32l287 288h46v-278h93v-42h-93v-100h-46zM552 142h220v218zM91 623l-36 22c30 49 90 80 168 80c86 0 141 -40 141 -105c0 -50 -28 -85 -72 -99c39 -8 85 -35 85 -105c0 -82 -79 -121 -163 -121c-66 0 -146 34 -174 89
l37 27c23 -46 84 -74 137 -74c70 0 116 28 116 78c0 64 -55 79 -111 79h-64v42h50c66 0 113 30 113 80c0 46 -36 67 -97 67s-98 -17 -130 -60z" />
    <glyph glyph-name="questiondown" unicode="&#xbf;" horiz-adv-x="603" 
d="M112 -11c0 -74 66 -131 187 -131c109 0 176 63 204 120l40 -25c-30 -71 -116 -144 -248 -144c-151 0 -235 78 -235 170c0 210 244 183 244 317c0 13 -1 17 -4 33h45c5 -22 4 -38 4 -49c0 -143 -237 -127 -237 -291zM361 482c0 -17 -15 -35 -38 -35c-20 0 -35 18 -35 35
c0 20 15 38 35 38c23 0 38 -18 38 -38z" />
    <glyph glyph-name="Agrave" unicode="&#xc0;" horiz-adv-x="669" 
d="M4 0l307 703h47l307 -703h-56l-91 205h-372l-88 -205h-54zM332 636l-163 -381h329zM365 768l-178 87l20 43l173 -100z" />
    <glyph glyph-name="Aacute" unicode="&#xc1;" horiz-adv-x="669" 
d="M4 0l307 703h47l307 -703h-56l-91 205h-372l-88 -205h-54zM332 636l-163 -381h329zM500 855l-178 -87l-15 30l173 100z" />
    <glyph glyph-name="Acircumflex" unicode="&#xc2;" horiz-adv-x="669" 
d="M4 0l307 703h47l307 -703h-56l-91 205h-372l-88 -205h-54zM332 636l-163 -381h329zM332 897l182 -100l-24 -35l-160 87l-158 -87l-18 35l174 100h4z" />
    <glyph glyph-name="Atilde" unicode="&#xc3;" horiz-adv-x="669" 
d="M4 0l307 703h47l307 -703h-56l-91 205h-372l-88 -205h-54zM332 636l-163 -381h329zM176 806l-17 27c29 27 73 42 96 42c60 0 111 -50 165 -50c23 0 47 8 72 35l18 -27c-28 -35 -75 -50 -100 -50c-57 0 -111 50 -168 50c-21 0 -43 -8 -66 -27z" />
    <glyph glyph-name="Adieresis" unicode="&#xc4;" horiz-adv-x="669" 
d="M4 0l307 703h47l307 -703h-56l-91 205h-372l-88 -205h-54zM332 636l-163 -381h329zM184 822c0 19 16 32 38 32c16 0 34 -13 34 -32c0 -21 -18 -32 -34 -32c-22 0 -38 11 -38 32zM413 822c0 19 16 32 37 32c18 0 34 -12 34 -32c0 -21 -16 -32 -34 -32c-21 0 -37 11 -37 32
z" />
    <glyph glyph-name="Aring" unicode="&#xc5;" horiz-adv-x="669" 
d="M4 0l307 703h47l307 -703h-56l-91 205h-372l-88 -205h-54zM332 636l-163 -381h329zM232 817c0 57 51 90 102 90s103 -31 103 -90c0 -54 -42 -93 -103 -93c-62 0 -102 36 -102 93zM272 817c0 -28 21 -53 62 -53c44 0 63 23 63 53c0 28 -24 50 -63 50
c-41 0 -62 -24 -62 -50z" />
    <glyph glyph-name="AE" unicode="&#xc6;" horiz-adv-x="1091" 
d="M535 0v205h-328l-150 -205h-57l506 700h520v-50h-438v-269h409v-50h-409v-281h448v-50h-501zM241 255h294v404z" />
    <glyph glyph-name="Ccedilla" unicode="&#xc7;" horiz-adv-x="684" 
d="M298 -176l15 38c27 -13 53 -19 74 -19c52 0 60 15 60 37c0 28 -21 36 -60 36h-26v77c-198 16 -321 153 -321 357c0 201 132 359 349 359c125 0 216 -54 260 -107l-31 -35c-61 56 -120 92 -233 92c-184 0 -290 -131 -290 -309c0 -186 122 -309 309 -309
c109 0 179 46 226 97l29 -35c-47 -63 -148 -112 -257 -112h-1v-35c69 -1 96 -35 96 -76s-32 -80 -110 -80c-27 0 -63 7 -89 24z" />
    <glyph glyph-name="Egrave" unicode="&#xc8;" horiz-adv-x="636" 
d="M80 0v700h491v-50h-438v-269h409v-50h-409v-281h448v-50h-501zM355 768l-178 87l20 43l173 -100z" />
    <glyph glyph-name="Eacute" unicode="&#xc9;" horiz-adv-x="636" 
d="M80 0v700h491v-50h-438v-269h409v-50h-409v-281h448v-50h-501zM470 855l-178 -87l-15 30l173 100z" />
    <glyph glyph-name="Ecircumflex" unicode="&#xca;" horiz-adv-x="636" 
d="M80 0v700h491v-50h-438v-269h409v-50h-409v-281h448v-50h-501zM332 897l182 -100l-24 -35l-160 87l-158 -87l-18 35l174 100h4z" />
    <glyph glyph-name="Edieresis" unicode="&#xcb;" horiz-adv-x="636" 
d="M80 0v700h491v-50h-438v-269h409v-50h-409v-281h448v-50h-501zM179 822c0 19 16 32 38 32c16 0 34 -13 34 -32c0 -21 -18 -32 -34 -32c-22 0 -38 11 -38 32zM408 822c0 19 16 32 37 32c18 0 34 -12 34 -32c0 -21 -16 -32 -34 -32c-21 0 -37 11 -37 32z" />
    <glyph glyph-name="Igrave" unicode="&#xcc;" horiz-adv-x="233" 
d="M90 0v700h53v-700h-53zM135 768l-178 87l20 43l173 -100z" />
    <glyph glyph-name="Iacute" unicode="&#xcd;" horiz-adv-x="233" 
d="M90 0v700h53v-700h-53zM280 855l-178 -87l-15 30l173 100z" />
    <glyph glyph-name="Icircumflex" unicode="&#xce;" horiz-adv-x="233" 
d="M90 0v700h53v-700h-53zM114 897l182 -100l-24 -35l-160 87l-158 -87l-18 35l174 100h4z" />
    <glyph glyph-name="Idieresis" unicode="&#xcf;" horiz-adv-x="233" 
d="M90 0v700h53v-700h-53zM-34 822c0 19 16 32 38 32c16 0 34 -13 34 -32c0 -21 -18 -32 -34 -32c-22 0 -38 11 -38 32zM195 822c0 19 16 32 37 32c18 0 34 -12 34 -32c0 -21 -16 -32 -34 -32c-21 0 -37 11 -37 32z" />
    <glyph glyph-name="Eth" unicode="&#xd0;" horiz-adv-x="761" 
d="M6 323v47h127v330h212c275 0 376 -158 376 -340c0 -200 -121 -360 -384 -360h-204v323h-127zM343 650h-157v-280h208v-47h-208v-273h153c229 0 327 134 327 310c0 163 -88 290 -323 290z" />
    <glyph glyph-name="Ntilde" unicode="&#xd1;" horiz-adv-x="736" 
d="M656 0h-43l-482 604v-604h-51v700h44l481 -606v606h51v-700zM210 806l-17 27c29 27 73 42 96 42c60 0 111 -50 165 -50c23 0 47 8 72 35l18 -27c-28 -35 -75 -50 -100 -50c-57 0 -111 50 -168 50c-21 0 -43 -8 -66 -27z" />
    <glyph glyph-name="Ograve" unicode="&#xd2;" horiz-adv-x="784" 
d="M40 350c0 203 154 359 352 359c196 0 352 -150 352 -359c0 -206 -156 -359 -352 -359s-352 150 -352 359zM95 350c0 -176 134 -310 297 -310c169 0 297 134 297 310c0 178 -134 310 -297 310c-164 0 -297 -132 -297 -310zM425 768l-178 87l20 43l173 -100z" />
    <glyph glyph-name="Oacute" unicode="&#xd3;" horiz-adv-x="784" 
d="M40 350c0 203 154 359 352 359c196 0 352 -150 352 -359c0 -206 -156 -359 -352 -359s-352 150 -352 359zM95 350c0 -176 134 -310 297 -310c169 0 297 134 297 310c0 178 -134 310 -297 310c-164 0 -297 -132 -297 -310zM540 855l-178 -87l-15 30l173 100z" />
    <glyph glyph-name="Ocircumflex" unicode="&#xd4;" horiz-adv-x="784" 
d="M40 350c0 203 154 359 352 359c196 0 352 -150 352 -359c0 -206 -156 -359 -352 -359s-352 150 -352 359zM95 350c0 -176 134 -310 297 -310c169 0 297 134 297 310c0 178 -134 310 -297 310c-164 0 -297 -132 -297 -310zM390 897l182 -100l-24 -35l-160 87l-158 -87
l-18 35l174 100h4z" />
    <glyph glyph-name="Otilde" unicode="&#xd5;" horiz-adv-x="784" 
d="M40 350c0 203 154 359 352 359c196 0 352 -150 352 -359c0 -206 -156 -359 -352 -359s-352 150 -352 359zM95 350c0 -176 134 -310 297 -310c169 0 297 134 297 310c0 178 -134 310 -297 310c-164 0 -297 -132 -297 -310zM234 806l-17 27c29 27 73 42 96 42
c60 0 111 -50 165 -50c23 0 47 8 72 35l18 -27c-28 -35 -75 -50 -100 -50c-57 0 -111 50 -168 50c-21 0 -43 -8 -66 -27z" />
    <glyph glyph-name="Odieresis" unicode="&#xd6;" horiz-adv-x="784" 
d="M40 350c0 203 154 359 352 359c196 0 352 -150 352 -359c0 -206 -156 -359 -352 -359s-352 150 -352 359zM95 350c0 -176 134 -310 297 -310c169 0 297 134 297 310c0 178 -134 310 -297 310c-164 0 -297 -132 -297 -310zM242 822c0 19 16 32 38 32c16 0 34 -13 34 -32
c0 -21 -18 -32 -34 -32c-22 0 -38 11 -38 32zM471 822c0 19 16 32 37 32c18 0 34 -12 34 -32c0 -21 -16 -32 -34 -32c-21 0 -37 11 -37 32z" />
    <glyph glyph-name="multiply" unicode="&#xd7;" 
d="M120 500l32 32l141 -141l142 141l32 -32l-142 -141l142 -142l-32 -32l-142 142l-141 -142l-32 32l142 142z" />
    <glyph glyph-name="Oslash" unicode="&#xd8;" horiz-adv-x="784" 
d="M100 23l50 62c-68 64 -110 156 -110 265c0 203 154 359 352 359c78 0 151 -24 209 -66l45 56l33 -26l-46 -57c68 -64 111 -157 111 -266c0 -206 -156 -359 -352 -359c-78 0 -150 23 -208 65l-49 -61zM689 350c0 90 -35 168 -90 224l-382 -476c49 -37 110 -58 175 -58
c169 0 297 134 297 310zM95 350c0 -89 34 -167 89 -223l383 474c-49 37 -110 59 -175 59c-164 0 -297 -132 -297 -310z" />
    <glyph glyph-name="Ugrave" unicode="&#xd9;" horiz-adv-x="717" 
d="M647 700v-407c0 -214 -141 -301 -279 -301c-160 0 -298 103 -298 308v400h53v-391c0 -185 119 -267 245 -267c148 0 226 98 226 262v396h53zM395 768l-178 87l20 43l173 -100z" />
    <glyph glyph-name="Uacute" unicode="&#xda;" horiz-adv-x="717" 
d="M647 700v-407c0 -214 -141 -301 -279 -301c-160 0 -298 103 -298 308v400h53v-391c0 -185 119 -267 245 -267c148 0 226 98 226 262v396h53zM510 855l-178 -87l-15 30l173 100z" />
    <glyph glyph-name="Ucircumflex" unicode="&#xdb;" horiz-adv-x="717" 
d="M647 700v-407c0 -214 -141 -301 -279 -301c-160 0 -298 103 -298 308v400h53v-391c0 -185 119 -267 245 -267c148 0 226 98 226 262v396h53zM356 897l182 -100l-24 -35l-160 87l-158 -87l-18 35l174 100h4z" />
    <glyph glyph-name="Udieresis" unicode="&#xdc;" horiz-adv-x="717" 
d="M647 700v-407c0 -214 -141 -301 -279 -301c-160 0 -298 103 -298 308v400h53v-391c0 -185 119 -267 245 -267c148 0 226 98 226 262v396h53zM208 822c0 19 16 32 38 32c16 0 34 -13 34 -32c0 -21 -18 -32 -34 -32c-22 0 -38 11 -38 32zM437 822c0 19 16 32 37 32
c18 0 34 -12 34 -32c0 -21 -16 -32 -34 -32c-21 0 -37 11 -37 32z" />
    <glyph glyph-name="Yacute" unicode="&#xdd;" horiz-adv-x="612" 
d="M612 700l-281 -393v-307h-53v307l-278 393h63l244 -345l247 345h58zM460 855l-178 -87l-15 30l173 100z" />
    <glyph glyph-name="Thorn" unicode="&#xde;" horiz-adv-x="649" 
d="M133 0h-53v700h53v-120h195c232 0 281 -105 281 -208c0 -109 -72 -212 -282 -212h-194v-160zM333 531h-200v-321l192 -1c160 -1 229 67 229 164c0 92 -59 158 -221 158z" />
    <glyph glyph-name="germandbls" unicode="&#xdf;" horiz-adv-x="550" 
d="M268 738c138 0 206 -75 206 -201c0 -71 -44 -140 -111 -169c96 -16 147 -89 147 -179c0 -132 -81 -198 -224 -198c-53 0 -95 9 -121 23l18 48c26 -13 61 -21 109 -21c98 0 163 50 163 149c0 78 -45 143 -197 143h-52v50h46c102 0 167 77 167 160c0 92 -53 148 -147 148
c-80 0 -153 -33 -153 -196v-495h-49v512c0 185 111 226 198 226z" />
    <glyph glyph-name="agrave" unicode="&#xe0;" horiz-adv-x="533" 
d="M92 423l-28 39c48 42 129 71 195 71c143 0 214 -76 214 -208v-325h-49v94c-35 -54 -100 -101 -207 -101c-111 0 -187 60 -187 152c0 109 90 155 256 155c41 0 110 -8 138 -16c0 118 -31 202 -171 202c-61 0 -117 -27 -161 -63zM232 40c109 0 173 80 192 127v70
c-32 10 -80 16 -130 16c-132 0 -211 -25 -211 -103c0 -70 62 -110 149 -110zM270 621l-116 142l38 29l108 -149z" />
    <glyph glyph-name="aacute" unicode="&#xe1;" horiz-adv-x="533" 
d="M92 423l-28 39c48 42 129 71 195 71c143 0 214 -76 214 -208v-325h-49v94c-35 -54 -100 -101 -207 -101c-111 0 -187 60 -187 152c0 109 90 155 256 155c41 0 110 -8 138 -16c0 118 -31 202 -171 202c-61 0 -117 -27 -161 -63zM232 40c109 0 173 80 192 127v70
c-32 10 -80 16 -130 16c-132 0 -211 -25 -211 -103c0 -70 62 -110 149 -110zM380 764l-116 -144l-30 21l108 151z" />
    <glyph glyph-name="acircumflex" unicode="&#xe2;" horiz-adv-x="533" 
d="M92 423l-28 39c48 42 129 71 195 71c143 0 214 -76 214 -208v-325h-49v94c-35 -54 -100 -101 -207 -101c-111 0 -187 60 -187 152c0 109 90 155 256 155c41 0 110 -8 138 -16c0 118 -31 202 -171 202c-61 0 -117 -27 -161 -63zM232 40c109 0 173 80 192 127v70
c-32 10 -80 16 -130 16c-132 0 -211 -25 -211 -103c0 -70 62 -110 149 -110zM267 778l139 -121l-29 -32l-111 100l-117 -97l-22 30l136 120h4z" />
    <glyph glyph-name="atilde" unicode="&#xe3;" horiz-adv-x="533" 
d="M92 423l-28 39c48 42 129 71 195 71c143 0 214 -76 214 -208v-325h-49v94c-35 -54 -100 -101 -207 -101c-111 0 -187 60 -187 152c0 109 90 155 256 155c41 0 110 -8 138 -16c0 118 -31 202 -171 202c-61 0 -117 -27 -161 -63zM232 40c109 0 173 80 192 127v70
c-32 10 -80 16 -130 16c-132 0 -211 -25 -211 -103c0 -70 62 -110 149 -110zM135 639l-25 25c34 31 70 55 102 55c47 0 80 -52 122 -52c20 0 46 12 68 36l21 -24c-33 -43 -67 -54 -93 -54c-56 0 -83 52 -119 52c-26 0 -49 -15 -76 -38z" />
    <glyph glyph-name="adieresis" unicode="&#xe4;" horiz-adv-x="533" 
d="M92 423l-28 39c48 42 129 71 195 71c143 0 214 -76 214 -208v-325h-49v94c-35 -54 -100 -101 -207 -101c-111 0 -187 60 -187 152c0 109 90 155 256 155c41 0 110 -8 138 -16c0 118 -31 202 -171 202c-61 0 -117 -27 -161 -63zM232 40c109 0 173 80 192 127v70
c-32 10 -80 16 -130 16c-132 0 -211 -25 -211 -103c0 -70 62 -110 149 -110zM100 695c0 20 16 34 33 34s35 -14 35 -34c0 -22 -18 -36 -35 -36s-33 14 -33 36zM344 695c0 20 17 34 36 34c15 0 34 -14 34 -34c0 -22 -19 -36 -34 -36c-19 0 -36 14 -36 36z" />
    <glyph glyph-name="aring" unicode="&#xe5;" horiz-adv-x="533" 
d="M92 423l-28 39c48 42 129 71 195 71c143 0 214 -76 214 -208v-325h-49v94c-35 -54 -100 -101 -207 -101c-111 0 -187 60 -187 152c0 109 90 155 256 155c41 0 110 -8 138 -16c0 118 -31 202 -171 202c-61 0 -117 -27 -161 -63zM232 40c109 0 173 80 192 127v70
c-32 10 -80 16 -130 16c-132 0 -211 -25 -211 -103c0 -70 62 -110 149 -110zM174 701c0 51 41 93 92 93s93 -42 93 -93s-42 -92 -93 -92s-92 41 -92 92zM214 701c0 -29 22 -52 52 -52c29 0 53 17 53 52c0 34 -22 53 -53 53c-30 0 -52 -22 -52 -53z" />
    <glyph glyph-name="ae" unicode="&#xe6;" horiz-adv-x="958" 
d="M869 129l35 -29c-45 -74 -122 -110 -205 -110c-114 0 -202 50 -245 136c-48 -87 -127 -133 -237 -133c-111 0 -187 65 -187 152c0 109 90 155 256 155c41 0 110 -8 138 -16c0 118 -31 202 -171 202c-61 0 -117 -27 -161 -63l-28 39c48 42 129 71 195 71
c108 0 175 -44 201 -122c41 74 117 122 226 122c135 0 236 -92 236 -235c0 -18 -1 -36 -3 -50h-442c0 -133 95 -211 225 -211c71 0 136 43 167 92zM680 486c-122 0 -196 -83 -206 -191h395c-1 118 -73 191 -189 191zM232 40c117 0 173 80 192 127v70c-32 10 -80 16 -130 16
c-132 0 -211 -25 -211 -103c0 -70 62 -110 149 -110z" />
    <glyph glyph-name="ccedilla" unicode="&#xe7;" horiz-adv-x="525" 
d="M213 -176l15 38c27 -13 53 -19 74 -19c52 0 60 15 60 37c0 28 -21 36 -60 36h-26v76c-144 14 -240 116 -240 269s107 272 272 272c76 0 159 -35 195 -92l-39 -29c-39 51 -88 74 -158 74c-124 0 -217 -95 -217 -225c0 -138 92 -224 226 -224c68 0 130 35 165 86l33 -31
c-36 -65 -124 -100 -197 -102v-34c69 -1 96 -35 96 -76s-32 -80 -110 -80c-27 0 -63 7 -89 24z" />
    <glyph glyph-name="egrave" unicode="&#xe8;" horiz-adv-x="570" 
d="M481 129l35 -29c-45 -74 -122 -110 -205 -110c-164 0 -275 106 -275 271c0 153 91 272 262 272c135 0 236 -92 236 -235c0 -18 -1 -36 -3 -50h-442c0 -133 95 -211 225 -211c71 0 136 43 167 92zM292 486c-122 0 -196 -83 -206 -191h395c-1 118 -73 191 -189 191z
M308 621l-116 142l38 29l108 -149z" />
    <glyph glyph-name="eacute" unicode="&#xe9;" horiz-adv-x="570" 
d="M481 129l35 -29c-45 -74 -122 -110 -205 -110c-164 0 -275 106 -275 271c0 153 91 272 262 272c135 0 236 -92 236 -235c0 -18 -1 -36 -3 -50h-442c0 -133 95 -211 225 -211c71 0 136 43 167 92zM292 486c-122 0 -196 -83 -206 -191h395c-1 118 -73 191 -189 191z
M398 764l-116 -144l-30 21l108 151z" />
    <glyph glyph-name="ecircumflex" unicode="&#xea;" horiz-adv-x="570" 
d="M481 129l35 -29c-45 -74 -122 -110 -205 -110c-164 0 -275 106 -275 271c0 153 91 272 262 272c135 0 236 -92 236 -235c0 -18 -1 -36 -3 -50h-442c0 -133 95 -211 225 -211c71 0 136 43 167 92zM292 486c-122 0 -196 -83 -206 -191h395c-1 118 -73 191 -189 191z
M306 778l139 -121l-29 -32l-111 100l-117 -97l-22 30l136 120h4z" />
    <glyph glyph-name="edieresis" unicode="&#xeb;" horiz-adv-x="570" 
d="M481 129l35 -29c-45 -74 -122 -110 -205 -110c-164 0 -275 106 -275 271c0 153 91 272 262 272c135 0 236 -92 236 -235c0 -18 -1 -36 -3 -50h-442c0 -133 95 -211 225 -211c71 0 136 43 167 92zM292 486c-122 0 -196 -83 -206 -191h395c-1 118 -73 191 -189 191z
M128 695c0 20 16 34 33 34s35 -14 35 -34c0 -22 -18 -36 -35 -36s-33 14 -33 36zM372 695c0 20 17 34 36 34c15 0 34 -14 34 -34c0 -22 -19 -36 -34 -36c-19 0 -36 14 -36 36z" />
    <glyph glyph-name="igrave" unicode="&#xec;" horiz-adv-x="233" 
d="M92 0v520h49v-520h-49zM130 621l-116 142l38 29l108 -149z" />
    <glyph glyph-name="iacute" unicode="&#xed;" horiz-adv-x="233" 
d="M92 0v520h49v-520h-49zM220 764l-116 -144l-30 21l108 151z" />
    <glyph glyph-name="icircumflex" unicode="&#xee;" horiz-adv-x="233" 
d="M92 0v520h49v-520h-49zM117 778l139 -121l-29 -32l-111 100l-117 -97l-22 30l136 120h4z" />
    <glyph glyph-name="idieresis" unicode="&#xef;" horiz-adv-x="233" 
d="M92 0v520h49v-520h-49zM-40 695c0 20 16 34 33 34s35 -14 35 -34c0 -22 -18 -36 -35 -36s-33 14 -33 36zM204 695c0 20 17 34 36 34c15 0 34 -14 34 -34c0 -22 -19 -36 -34 -36c-19 0 -36 14 -36 36z" />
    <glyph glyph-name="eth" unicode="&#xf0;" horiz-adv-x="617" 
d="M317 788l39 -17l-29 -68c169 -67 254 -210 254 -417c0 -182 -111 -296 -273 -296s-272 114 -272 271c0 158 110 262 272 262c74 0 160 -25 207 -81c-33 95 -102 177 -205 221l-37 -85l-44 18l38 83c-35 11 -74 17 -115 19l9 43c45 -5 86 -13 123 -24zM88 261
c0 -131 92 -224 220 -224c140 0 221 92 221 252c0 33 -4 64 -14 86c-37 59 -114 101 -207 101c-127 0 -220 -82 -220 -215z" />
    <glyph glyph-name="ntilde" unicode="&#xf1;" horiz-adv-x="593" 
d="M70 0v520h49v-86c40 66 121 98 199 98c138 0 215 -70 215 -234v-298h-49v288c0 133 -60 197 -182 197c-74 0 -150 -52 -183 -125v-360h-49zM165 639l-25 25c34 31 70 55 102 55c47 0 80 -52 122 -52c20 0 46 12 68 36l21 -24c-33 -43 -67 -54 -93 -54
c-56 0 -83 52 -119 52c-26 0 -49 -15 -76 -38z" />
    <glyph glyph-name="ograve" unicode="&#xf2;" horiz-adv-x="617" 
d="M36 261c0 158 110 272 272 272s273 -114 273 -272c0 -157 -111 -271 -273 -271s-272 114 -272 271zM89 261c0 -131 91 -224 219 -224c129 0 220 92 220 224s-93 225 -220 225s-219 -92 -219 -225zM331 621l-116 142l38 29l108 -149z" />
    <glyph glyph-name="oacute" unicode="&#xf3;" horiz-adv-x="617" 
d="M36 261c0 158 110 272 272 272s273 -114 273 -272c0 -157 -111 -271 -273 -271s-272 114 -272 271zM89 261c0 -131 91 -224 219 -224c129 0 220 92 220 224s-93 225 -220 225s-219 -92 -219 -225zM402 764l-116 -144l-30 21l108 151z" />
    <glyph glyph-name="ocircumflex" unicode="&#xf4;" horiz-adv-x="617" 
d="M36 261c0 158 110 272 272 272s273 -114 273 -272c0 -157 -111 -271 -273 -271s-272 114 -272 271zM89 261c0 -131 91 -224 219 -224c129 0 220 92 220 224s-93 225 -220 225s-219 -92 -219 -225zM309 778l139 -121l-29 -32l-111 100l-117 -97l-22 30l136 120h4z" />
    <glyph glyph-name="otilde" unicode="&#xf5;" horiz-adv-x="617" 
d="M36 261c0 158 110 272 272 272s273 -114 273 -272c0 -157 -111 -271 -273 -271s-272 114 -272 271zM89 261c0 -131 91 -224 219 -224c129 0 220 92 220 224s-93 225 -220 225s-219 -92 -219 -225zM177 639l-25 25c34 31 70 55 102 55c47 0 80 -52 122 -52
c20 0 46 12 68 36l21 -24c-33 -43 -67 -54 -93 -54c-56 0 -83 52 -119 52c-26 0 -49 -15 -76 -38z" />
    <glyph glyph-name="odieresis" unicode="&#xf6;" horiz-adv-x="617" 
d="M36 261c0 158 110 272 272 272s273 -114 273 -272c0 -157 -111 -271 -273 -271s-272 114 -272 271zM89 261c0 -131 91 -224 219 -224c129 0 220 92 220 224s-93 225 -220 225s-219 -92 -219 -225zM151 695c0 20 16 34 33 34s35 -14 35 -34c0 -22 -18 -36 -35 -36
s-33 14 -33 36zM395 695c0 20 17 34 36 34c15 0 34 -14 34 -34c0 -22 -19 -36 -34 -36c-19 0 -36 14 -36 36z" />
    <glyph glyph-name="divide" unicode="&#xf7;" 
d="M261 571c0 15 13 32 34 32c19 0 32 -17 32 -32c0 -18 -13 -34 -32 -34c-21 0 -34 16 -34 34zM261 150c0 16 13 32 34 32c19 0 32 -16 32 -32c0 -18 -13 -34 -32 -34c-21 0 -34 16 -34 34zM72 338v44h445v-44h-445z" />
    <glyph glyph-name="oslash" unicode="&#xf8;" horiz-adv-x="617" 
d="M36 261c0 158 110 272 272 272c59 0 112 -15 155 -43l66 82l33 -26l-65 -82c53 -48 84 -120 84 -203c0 -157 -111 -271 -273 -271c-61 0 -114 16 -157 44l-56 -71l-35 28l56 70c-51 49 -80 118 -80 200zM528 261c0 66 -24 123 -64 163l-281 -351c34 -23 77 -36 125 -36
c129 0 220 92 220 224zM89 261c0 -65 22 -120 60 -160l282 350c-35 22 -77 35 -123 35c-127 0 -219 -92 -219 -225z" />
    <glyph glyph-name="ugrave" unicode="&#xf9;" horiz-adv-x="585" 
d="M515 523v-523h-49v98c-41 -67 -109 -108 -195 -108c-139 0 -211 71 -211 229v304h49v-291c0 -105 35 -195 165 -195c84 0 157 55 192 142v344h49zM316 621l-116 142l38 29l108 -149z" />
    <glyph glyph-name="uacute" unicode="&#xfa;" horiz-adv-x="585" 
d="M515 523v-523h-49v98c-41 -67 -109 -108 -195 -108c-139 0 -211 71 -211 229v304h49v-291c0 -105 35 -195 165 -195c84 0 157 55 192 142v344h49zM386 764l-116 -144l-30 21l108 151z" />
    <glyph glyph-name="ucircumflex" unicode="&#xfb;" horiz-adv-x="585" 
d="M515 523v-523h-49v98c-41 -67 -109 -108 -195 -108c-139 0 -211 71 -211 229v304h49v-291c0 -105 35 -195 165 -195c84 0 157 55 192 142v344h49zM293 778l139 -121l-29 -32l-111 100l-117 -97l-22 30l136 120h4z" />
    <glyph glyph-name="udieresis" unicode="&#xfc;" horiz-adv-x="585" 
d="M515 523v-523h-49v98c-41 -67 -109 -108 -195 -108c-139 0 -211 71 -211 229v304h49v-291c0 -105 35 -195 165 -195c84 0 157 55 192 142v344h49zM126 695c0 20 16 34 33 34s35 -14 35 -34c0 -22 -18 -36 -35 -36s-33 14 -33 36zM370 695c0 20 17 34 36 34
c15 0 34 -14 34 -34c0 -22 -19 -36 -34 -36c-19 0 -36 14 -36 36z" />
    <glyph glyph-name="yacute" unicode="&#xfd;" horiz-adv-x="531" 
d="M87 -201l21 47c8 -4 15 -6 24 -6c49 0 77 27 125 135l13 29l-270 516h59l236 -449l180 449h56l-212 -522c-72 -177 -119 -208 -187 -208c-15 0 -31 3 -45 9zM369 764l-116 -144l-30 21l108 151z" />
    <glyph glyph-name="thorn" unicode="&#xfe;" horiz-adv-x="599" 
d="M70 -200v930h49v-297c45 74 124 100 199 100c152 0 245 -109 245 -263c0 -160 -107 -280 -259 -280c-74 0 -149 29 -185 77v-267h-49zM314 486c-102 0 -172 -72 -195 -137v-209c42 -77 114 -103 186 -103c117 0 205 96 205 230c0 129 -75 219 -196 219z" />
    <glyph glyph-name="ydieresis" unicode="&#xff;" horiz-adv-x="531" 
d="M87 -201l21 47c8 -4 15 -6 24 -6c49 0 77 27 125 135l13 29l-270 516h59l236 -449l180 449h56l-212 -522c-72 -177 -119 -208 -187 -208c-15 0 -31 3 -45 9zM109 695c0 20 16 34 33 34s35 -14 35 -34c0 -22 -18 -36 -35 -36s-33 14 -33 36zM353 695c0 20 17 34 36 34
c15 0 34 -14 34 -34c0 -22 -19 -36 -34 -36c-19 0 -36 14 -36 36z" />
    <glyph glyph-name="Amacron" unicode="&#x100;" horiz-adv-x="669" 
d="M4 0l307 703h47l307 -703h-56l-91 205h-372l-88 -205h-54zM332 636l-163 -381h329zM187 800v46h294v-46h-294z" />
    <glyph glyph-name="amacron" unicode="&#x101;" horiz-adv-x="533" 
d="M92 423l-28 39c48 42 129 71 195 71c143 0 214 -76 214 -208v-325h-49v94c-35 -54 -100 -101 -207 -101c-111 0 -187 60 -187 152c0 109 90 155 256 155c41 0 110 -8 138 -16c0 118 -31 202 -171 202c-61 0 -117 -27 -161 -63zM232 40c109 0 173 80 192 127v70
c-32 10 -80 16 -130 16c-132 0 -211 -25 -211 -103c0 -70 62 -110 149 -110zM140 655v46h254v-46h-254z" />
    <glyph glyph-name="Abreve" unicode="&#x102;" horiz-adv-x="669" 
d="M4 0l307 703h47l307 -703h-56l-91 205h-372l-88 -205h-54zM332 636l-163 -381h329zM166 869l27 23c20 -25 67 -64 143 -64c66 0 113 30 140 64l26 -19c-31 -49 -95 -90 -166 -90c-94 0 -144 49 -170 86z" />
    <glyph glyph-name="abreve" unicode="&#x103;" horiz-adv-x="533" 
d="M92 423l-28 39c48 42 129 71 195 71c143 0 214 -76 214 -208v-325h-49v94c-35 -54 -100 -101 -207 -101c-111 0 -187 60 -187 152c0 109 90 155 256 155c41 0 110 -8 138 -16c0 118 -31 202 -171 202c-61 0 -117 -27 -161 -63zM232 40c109 0 173 80 192 127v70
c-32 10 -80 16 -130 16c-132 0 -211 -25 -211 -103c0 -70 62 -110 149 -110zM112 738l21 22c20 -25 76 -60 125 -60c56 0 98 25 125 59l18 -21c-31 -47 -82 -88 -143 -88c-73 0 -130 64 -146 88z" />
    <glyph glyph-name="Aogonek" unicode="&#x104;" horiz-adv-x="669" 
d="M646 -153l3 -37c-17 -7 -37 -10 -64 -10c-48 -2 -108 23 -108 90c0 61 47 110 125 126l-84 189h-372l-88 -205h-54l307 703h47l307 -703h-27c-53 -3 -121 -47 -121 -102c0 -47 37 -60 71 -60c21 0 41 3 58 9zM332 636l-163 -381h329z" />
    <glyph glyph-name="aogonek" unicode="&#x105;" horiz-adv-x="533" 
d="M467 -148l13 -39c-17 -7 -32 -13 -62 -13c-45 0 -100 29 -100 99c0 59 54 101 106 117v78c-35 -54 -100 -101 -207 -101c-111 0 -187 60 -187 152c0 109 90 155 256 155c41 0 110 -8 138 -16c0 118 -31 202 -171 202c-61 0 -117 -27 -161 -63l-28 39c48 42 129 71 195 71
c143 0 214 -76 214 -208v-325h-6c-34 0 -99 -39 -99 -97c0 -34 22 -60 51 -60c11 0 31 1 48 9zM232 40c109 0 173 80 192 127v70c-32 10 -80 16 -130 16c-132 0 -211 -25 -211 -103c0 -70 62 -110 149 -110z" />
    <glyph glyph-name="Cacute" unicode="&#x106;" horiz-adv-x="684" 
d="M630 138l29 -35c-47 -63 -148 -112 -257 -112c-222 0 -362 141 -362 359c0 201 132 359 349 359c125 0 216 -54 260 -107l-31 -35c-61 56 -120 92 -233 92c-184 0 -290 -131 -290 -309c0 -186 122 -309 309 -309c109 0 179 46 226 97zM520 855l-178 -87l-15 30l173 100z
" />
    <glyph glyph-name="cacute" unicode="&#x107;" horiz-adv-x="525" 
d="M480 123l33 -31c-36 -66 -127 -102 -201 -102c-164 0 -276 106 -276 271c0 153 107 272 272 272c76 0 159 -35 195 -92l-39 -29c-39 51 -88 74 -158 74c-124 0 -217 -95 -217 -225c0 -138 92 -224 226 -224c68 0 130 35 165 86zM406 764l-116 -144l-30 21l108 151z" />
    <glyph glyph-name="Ccircumflex" unicode="&#x108;" horiz-adv-x="684" 
d="M630 138l29 -35c-47 -63 -148 -112 -257 -112c-222 0 -362 141 -362 359c0 201 132 359 349 359c125 0 216 -54 260 -107l-31 -35c-61 56 -120 92 -233 92c-184 0 -290 -131 -290 -309c0 -186 122 -309 309 -309c109 0 179 46 226 97zM379 897l182 -100l-24 -35l-160 87
l-158 -87l-18 35l174 100h4z" />
    <glyph glyph-name="ccircumflex" unicode="&#x109;" horiz-adv-x="525" 
d="M480 123l33 -31c-36 -66 -127 -102 -201 -102c-164 0 -276 106 -276 271c0 153 107 272 272 272c76 0 159 -35 195 -92l-39 -29c-39 51 -88 74 -158 74c-124 0 -217 -95 -217 -225c0 -138 92 -224 226 -224c68 0 130 35 165 86zM293 778l139 -121l-29 -32l-111 100
l-117 -97l-22 30l136 120h4z" />
    <glyph glyph-name="Cdotaccent" unicode="&#x10a;" horiz-adv-x="684" 
d="M630 138l29 -35c-47 -63 -148 -112 -257 -112c-222 0 -362 141 -362 359c0 201 132 359 349 359c125 0 216 -54 260 -107l-31 -35c-61 56 -120 92 -233 92c-184 0 -290 -131 -290 -309c0 -186 122 -309 309 -309c109 0 179 46 226 97zM340 826c0 20 18 35 37 35
c18 0 36 -15 36 -35c0 -23 -18 -39 -36 -39c-19 0 -37 16 -37 39z" />
    <glyph glyph-name="cdotaccent" unicode="&#x10b;" horiz-adv-x="525" 
d="M480 123l33 -31c-36 -66 -127 -102 -201 -102c-164 0 -276 106 -276 271c0 153 107 272 272 272c76 0 159 -35 195 -92l-39 -29c-39 51 -88 74 -158 74c-124 0 -217 -95 -217 -225c0 -138 92 -224 226 -224c68 0 130 35 165 86zM256 696c0 20 18 35 37 35
c18 0 36 -15 36 -35c0 -23 -18 -39 -36 -39c-19 0 -37 16 -37 39z" />
    <glyph glyph-name="Ccaron" unicode="&#x10c;" horiz-adv-x="684" 
d="M630 138l29 -35c-47 -63 -148 -112 -257 -112c-222 0 -362 141 -362 359c0 201 132 359 349 359c125 0 216 -54 260 -107l-31 -35c-61 56 -120 92 -233 92c-184 0 -290 -131 -290 -309c0 -186 122 -309 309 -309c109 0 179 46 226 97zM375 763l-182 100l24 34l160 -87
l158 87l18 -34l-174 -100h-4z" />
    <glyph glyph-name="ccaron" unicode="&#x10d;" horiz-adv-x="525" 
d="M480 123l33 -31c-36 -66 -127 -102 -201 -102c-164 0 -276 106 -276 271c0 153 107 272 272 272c76 0 159 -35 195 -92l-39 -29c-39 51 -88 74 -158 74c-124 0 -217 -95 -217 -225c0 -138 92 -224 226 -224c68 0 130 35 165 86zM302 631l-139 121l29 32l111 -100l117 97
l22 -30l-136 -120h-4z" />
    <glyph glyph-name="Dcaron" unicode="&#x10e;" horiz-adv-x="708" 
d="M80 0v700h212c275 0 376 -158 376 -340c0 -200 -121 -360 -384 -360h-204zM290 650h-157v-600h153c229 0 327 134 327 310c0 163 -88 290 -323 290zM295 763l-182 100l24 34l160 -87l158 87l18 -34l-174 -100h-4z" />
    <glyph glyph-name="dcaron" unicode="&#x10f;" horiz-adv-x="597" 
d="M478 0v88c-19 -35 -81 -97 -179 -97c-157 0 -263 105 -263 268c0 162 120 274 269 274c76 0 135 -24 173 -66v263h49v-730h-49zM300 38c103 0 159 80 178 122v234c-40 62 -98 92 -176 92c-113 0 -213 -90 -213 -225c0 -138 88 -223 211 -223zM613 730h49
c6 -15 10 -30 10 -61c0 -60 -42 -111 -78 -133l-22 23c32 20 56 71 56 105c0 27 -7 55 -15 66z" />
    <glyph glyph-name="Dcroat" unicode="&#x110;" horiz-adv-x="761" 
d="M6 323v47h127v330h212c275 0 376 -158 376 -340c0 -200 -121 -360 -384 -360h-204v323h-127zM343 650h-157v-280h208v-47h-208v-273h153c229 0 327 134 327 310c0 163 -88 290 -323 290z" />
    <glyph glyph-name="dcroat" unicode="&#x111;" horiz-adv-x="597" 
d="M369 599v47h109v84h49v-84h70v-47h-70v-599h-49v88c-19 -35 -81 -97 -179 -97c-157 0 -263 105 -263 268c0 162 120 274 269 274c76 0 135 -24 173 -66v132h-109zM300 38c103 0 159 80 178 122v234c-40 62 -98 92 -176 92c-113 0 -213 -90 -213 -225
c0 -138 88 -223 211 -223z" />
    <glyph glyph-name="Emacron" unicode="&#x112;" horiz-adv-x="636" 
d="M80 0v700h491v-50h-438v-269h409v-50h-409v-281h448v-50h-501zM180 800v46h294v-46h-294z" />
    <glyph glyph-name="emacron" unicode="&#x113;" horiz-adv-x="570" 
d="M481 129l35 -29c-45 -74 -122 -110 -205 -110c-164 0 -275 106 -275 271c0 153 91 272 262 272c135 0 236 -92 236 -235c0 -18 -1 -36 -3 -50h-442c0 -133 95 -211 225 -211c71 0 136 43 167 92zM292 486c-122 0 -196 -83 -206 -191h395c-1 118 -73 191 -189 191z
M168 655v46h254v-46h-254z" />
    <glyph glyph-name="Edotaccent" unicode="&#x116;" horiz-adv-x="636" 
d="M80 0v700h491v-50h-438v-269h409v-50h-409v-281h448v-50h-501zM290 826c0 20 18 35 37 35c18 0 36 -15 36 -35c0 -23 -18 -39 -36 -39c-19 0 -37 16 -37 39z" />
    <glyph glyph-name="edotaccent" unicode="&#x117;" horiz-adv-x="570" 
d="M481 129l35 -29c-45 -74 -122 -110 -205 -110c-164 0 -275 106 -275 271c0 153 91 272 262 272c135 0 236 -92 236 -235c0 -18 -1 -36 -3 -50h-442c0 -133 95 -211 225 -211c71 0 136 43 167 92zM292 486c-122 0 -196 -83 -206 -191h395c-1 118 -73 191 -189 191z
M258 696c0 20 18 35 37 35c18 0 36 -15 36 -35c0 -23 -18 -39 -36 -39c-19 0 -37 16 -37 39z" />
    <glyph glyph-name="Eogonek" unicode="&#x118;" horiz-adv-x="636" 
d="M80 0v700h491v-50h-438v-269h409v-50h-409v-281h448v-50h-13c-53 -3 -121 -47 -121 -102c0 -47 37 -60 71 -60c21 0 41 3 58 9l3 -37c-17 -7 -37 -10 -64 -10c-48 -2 -108 23 -108 90c0 47 28 87 76 110h-403z" />
    <glyph glyph-name="eogonek" unicode="&#x119;" horiz-adv-x="570" 
d="M481 129l35 -29c-25 -41 -60 -70 -100 -88c-40 -28 -87 -64 -87 -109c0 -34 22 -60 51 -60c11 0 31 1 48 9l13 -39c-17 -7 -32 -13 -62 -13c-45 0 -100 29 -100 85c0 48 30 81 67 108c-11 -2 -23 -3 -35 -3c-164 0 -275 106 -275 271c0 153 91 272 262 272
c135 0 236 -92 236 -235c0 -18 -1 -36 -3 -50h-442c0 -133 95 -211 225 -211c71 0 136 43 167 92zM292 486c-122 0 -196 -83 -206 -191h395c-1 118 -73 191 -189 191z" />
    <glyph glyph-name="Ecaron" unicode="&#x11a;" horiz-adv-x="636" 
d="M80 0v700h491v-50h-438v-269h409v-50h-409v-281h448v-50h-501zM335 763l-182 100l24 34l160 -87l158 87l18 -34l-174 -100h-4z" />
    <glyph glyph-name="ecaron" unicode="&#x11b;" horiz-adv-x="570" 
d="M481 129l35 -29c-45 -74 -122 -110 -205 -110c-164 0 -275 106 -275 271c0 153 91 272 262 272c135 0 236 -92 236 -235c0 -18 -1 -36 -3 -50h-442c0 -133 95 -211 225 -211c71 0 136 43 167 92zM292 486c-122 0 -196 -83 -206 -191h395c-1 118 -73 191 -189 191z
M285 631l-139 121l29 32l111 -100l117 97l22 -30l-136 -120h-4z" />
    <glyph glyph-name="Gcircumflex" unicode="&#x11c;" horiz-adv-x="704" 
d="M411 288v50h253v-248c-58 -63 -170 -99 -263 -99c-208 0 -361 141 -361 359c0 201 157 359 354 359c116 0 195 -34 253 -96l-28 -38c-43 47 -115 85 -219 85c-179 0 -305 -130 -305 -310c0 -187 129 -310 308 -310c72 0 152 23 211 74v174h-203zM379 897l182 -100
l-24 -35l-160 87l-158 -87l-18 35l174 100h4z" />
    <glyph glyph-name="gcircumflex" unicode="&#x11d;" horiz-adv-x="599" 
d="M529 520v-483c0 -177 -103 -246 -224 -246c-110 0 -200 47 -226 116l44 22c22 -45 80 -91 182 -91c111 0 175 73 175 192v51c-27 -44 -79 -91 -181 -91c-160 0 -263 106 -263 271c0 167 113 272 265 272c86 0 155 -37 179 -73v60h49zM306 37c91 0 153 60 174 122v230
c-29 54 -91 97 -175 97c-116 0 -216 -80 -216 -227c0 -137 87 -222 217 -222zM300 778l139 -121l-29 -32l-111 100l-117 -97l-22 30l136 120h4z" />
    <glyph glyph-name="Gbreve" unicode="&#x11e;" horiz-adv-x="704" 
d="M411 288v50h253v-248c-58 -63 -170 -99 -263 -99c-208 0 -361 141 -361 359c0 201 157 359 354 359c116 0 195 -34 253 -96l-28 -38c-43 47 -115 85 -219 85c-179 0 -305 -130 -305 -310c0 -187 129 -310 308 -310c72 0 152 23 211 74v174h-203zM210 869l27 23
c20 -25 67 -64 143 -64c66 0 113 30 140 64l26 -19c-31 -49 -95 -90 -166 -90c-94 0 -144 49 -170 86z" />
    <glyph glyph-name="gbreve" unicode="&#x11f;" horiz-adv-x="599" 
d="M529 520v-483c0 -177 -103 -246 -224 -246c-110 0 -200 47 -226 116l44 22c22 -45 80 -91 182 -91c111 0 175 73 175 192v51c-27 -44 -79 -91 -181 -91c-160 0 -263 106 -263 271c0 167 113 272 265 272c86 0 155 -37 179 -73v60h49zM306 37c91 0 153 60 174 122v230
c-29 54 -91 97 -175 97c-116 0 -216 -80 -216 -227c0 -137 87 -222 217 -222zM155 738l21 22c20 -25 76 -60 125 -60c56 0 98 25 125 59l18 -21c-31 -47 -82 -88 -143 -88c-73 0 -130 64 -146 88z" />
    <glyph glyph-name="Gdotaccent" unicode="&#x120;" horiz-adv-x="704" 
d="M411 288v50h253v-248c-58 -63 -170 -99 -263 -99c-208 0 -361 141 -361 359c0 201 157 359 354 359c116 0 195 -34 253 -96l-28 -38c-43 47 -115 85 -219 85c-179 0 -305 -130 -305 -310c0 -187 129 -310 308 -310c72 0 152 23 211 74v174h-203zM350 826
c0 20 18 35 37 35c18 0 36 -15 36 -35c0 -23 -18 -39 -36 -39c-19 0 -37 16 -37 39z" />
    <glyph glyph-name="gdotaccent" unicode="&#x121;" horiz-adv-x="599" 
d="M529 520v-483c0 -177 -103 -246 -224 -246c-110 0 -200 47 -226 116l44 22c22 -45 80 -91 182 -91c111 0 175 73 175 192v51c-27 -44 -79 -91 -181 -91c-160 0 -263 106 -263 271c0 167 113 272 265 272c86 0 155 -37 179 -73v60h49zM306 37c91 0 153 60 174 122v230
c-29 54 -91 97 -175 97c-116 0 -216 -80 -216 -227c0 -137 87 -222 217 -222zM273 696c0 20 18 35 37 35c18 0 36 -15 36 -35c0 -23 -18 -39 -36 -39c-19 0 -37 16 -37 39z" />
    <glyph glyph-name="Gcommaaccent" unicode="&#x122;" horiz-adv-x="704" 
d="M411 288v50h253v-248c-58 -63 -170 -99 -263 -99c-208 0 -361 141 -361 359c0 201 157 359 354 359c116 0 195 -34 253 -96l-28 -38c-43 47 -115 85 -219 85c-179 0 -305 -130 -305 -310c0 -187 129 -310 308 -310c72 0 152 23 211 74v174h-203zM386 -81l40 28
c14 -15 32 -40 32 -71c0 -56 -40 -101 -68 -118l-22 23c22 20 43 50 43 84c0 27 -9 39 -25 54z" />
    <glyph glyph-name="gcommaaccent" unicode="&#x123;" horiz-adv-x="599" 
d="M330 636l-40 -28c-14 15 -32 40 -32 71c0 56 40 101 68 118l22 -23c-22 -20 -43 -50 -43 -84c0 -27 9 -39 25 -54zM529 520v-483c0 -177 -103 -246 -224 -246c-110 0 -200 47 -226 116l44 22c22 -45 80 -91 182 -91c111 0 175 73 175 192v51c-27 -44 -79 -91 -181 -91
c-160 0 -263 106 -263 271c0 167 113 272 265 272c86 0 155 -37 179 -73v60h49zM306 37c91 0 153 60 174 122v230c-29 54 -91 97 -175 97c-116 0 -216 -80 -216 -227c0 -137 87 -222 217 -222z" />
    <glyph glyph-name="Hcircumflex" unicode="&#x124;" horiz-adv-x="745" 
d="M612 0v332h-479v-332h-53v700h53v-318h479v318h53v-700h-53zM370 897l182 -100l-24 -35l-160 87l-158 -87l-18 35l174 100h4z" />
    <glyph glyph-name="hcircumflex" unicode="&#x125;" horiz-adv-x="593" 
d="M70 0v730h49v-298c43 64 103 100 196 100c141 0 218 -72 218 -235v-297h-49v289c0 131 -60 196 -182 196c-93 0 -156 -62 -183 -135v-350h-49zM103 866l182 -100l-24 -35l-160 87l-158 -87l-18 35l174 100h4z" />
    <glyph glyph-name="Hbar" unicode="&#x126;" horiz-adv-x="745" 
d="M0 523v46h80v131h53v-131h479v131h53v-131h80v-46h-80v-523h-53v332h-479v-332h-53v523h-80zM133 382h479v141h-479v-141z" />
    <glyph glyph-name="hbar" unicode="&#x127;" horiz-adv-x="593" 
d="M0 599v47h70v84h49v-84h109v-47h-109v-167c43 64 103 100 196 100c141 0 218 -72 218 -235v-297h-49v289c0 131 -60 196 -182 196c-93 0 -156 -62 -183 -135v-350h-49v599h-70z" />
    <glyph glyph-name="Imacron" unicode="&#x12a;" horiz-adv-x="233" 
d="M90 0v700h53v-700h-53zM-31 800v46h294v-46h-294z" />
    <glyph glyph-name="imacron" unicode="&#x12b;" horiz-adv-x="233" 
d="M92 0v520h49v-520h-49zM-10 655v46h254v-46h-254z" />
    <glyph glyph-name="Iogonek" unicode="&#x12e;" horiz-adv-x="233" 
d="M140 -153l3 -37c-17 -7 -37 -10 -64 -10c-48 -2 -108 23 -108 90c0 60 45 108 119 124v686h53v-700h-11c-53 -3 -121 -47 -121 -102c0 -47 37 -60 71 -60c21 0 41 3 58 9z" />
    <glyph glyph-name="iogonek" unicode="&#x12f;" horiz-adv-x="233" 
d="M137 -148l13 -39c-17 -7 -32 -13 -62 -13c-45 0 -100 29 -100 99c0 58 53 100 104 116v505h49v-520h-7c-34 -2 -96 -40 -96 -97c0 -34 22 -60 51 -60c11 0 31 1 48 9zM80 692c0 20 18 35 37 35c18 0 36 -15 36 -35c0 -23 -18 -39 -36 -39c-19 0 -37 16 -37 39z" />
    <glyph glyph-name="Idotaccent" unicode="&#x130;" horiz-adv-x="233" 
d="M90 0v700h53v-700h-53zM80 826c0 20 18 35 37 35c18 0 36 -15 36 -35c0 -23 -18 -39 -36 -39c-19 0 -37 16 -37 39z" />
    <glyph glyph-name="dotlessi" unicode="&#x131;" horiz-adv-x="233" 
d="M92 0v520h49v-520h-49z" />
    <glyph glyph-name="Jcircumflex" unicode="&#x134;" horiz-adv-x="485" 
d="M405 700v-495c0 -139 -83 -214 -206 -214c-106 0 -173 69 -199 123l41 30c28 -54 86 -105 156 -104c94 2 155 46 155 173v487h53zM369 897l182 -100l-24 -35l-160 87l-158 -87l-18 35l174 100h4z" />
    <glyph glyph-name="jcircumflex" unicode="&#x135;" horiz-adv-x="235" 
d="M144 520v-527c0 -127 -46 -202 -149 -202c-56 0 -105 27 -124 60l37 31c17 -19 34 -44 87 -44c66 0 100 59 100 158v524h49zM118 778l139 -121l-29 -32l-111 100l-117 -97l-22 30l136 120h4z" />
    <glyph glyph-name="Kcommaaccent" unicode="&#x136;" horiz-adv-x="639" 
d="M80 0v700h53v-376l404 376h71l-346 -321l373 -379h-71l-340 344l-91 -83v-261h-53zM286 -81l40 28c14 -15 32 -40 32 -71c0 -56 -40 -101 -68 -118l-22 23c22 20 43 50 43 84c0 27 -9 39 -25 54z" />
    <glyph glyph-name="kcommaaccent" unicode="&#x137;" horiz-adv-x="519" 
d="M70 0v730h49v-474l304 264h69l-266 -233l289 -287h-68l-262 256l-66 -54v-202h-49zM223 -81l40 28c14 -15 32 -40 32 -71c0 -56 -40 -101 -68 -118l-22 23c22 20 43 50 43 84c0 27 -9 39 -25 54z" />
    <glyph glyph-name="Lacute" unicode="&#x139;" horiz-adv-x="579" 
d="M80 0v700h53v-650h436v-50h-489zM430 855l-178 -87l-15 30l173 100z" />
    <glyph glyph-name="lacute" unicode="&#x13a;" horiz-adv-x="189" 
d="M70 0v730h49v-730h-49zM260 855l-178 -87l-15 30l173 100z" />
    <glyph glyph-name="Lcommaaccent" unicode="&#x13b;" horiz-adv-x="579" 
d="M80 0v700h53v-650h436v-50h-489zM286 -81l40 28c14 -15 32 -40 32 -71c0 -56 -40 -101 -68 -118l-22 23c22 20 43 50 43 84c0 27 -9 39 -25 54z" />
    <glyph glyph-name="lcommaaccent" unicode="&#x13c;" horiz-adv-x="189" 
d="M70 0v730h49v-730h-49zM68 -81l40 28c14 -15 32 -40 32 -71c0 -56 -40 -101 -68 -118l-22 23c22 20 43 50 43 84c0 27 -9 39 -25 54z" />
    <glyph glyph-name="Lcaron" unicode="&#x13d;" horiz-adv-x="579" 
d="M80 0v700h53v-650h436v-50h-489zM393 700h49c6 -15 10 -30 10 -61c0 -60 -42 -111 -78 -133l-22 23c32 20 56 71 56 105c0 27 -7 55 -15 66z" />
    <glyph glyph-name="lcaron" unicode="&#x13e;" horiz-adv-x="189" 
d="M70 0v730h49v-730h-49zM203 730h49c6 -15 10 -30 10 -61c0 -60 -42 -111 -78 -133l-22 23c32 20 56 71 56 105c0 27 -7 55 -15 66z" />
    <glyph glyph-name="Ldot" unicode="&#x13f;" horiz-adv-x="579" 
d="M80 0v700h53v-650h436v-50h-489zM358 371c0 17 15 35 38 35c20 0 35 -18 35 -35c0 -20 -15 -38 -35 -38c-23 0 -38 18 -38 38z" />
    <glyph glyph-name="ldot" unicode="&#x140;" horiz-adv-x="252" 
d="M70 0v730h49v-730h-49zM190 366c0 17 15 35 38 35c20 0 35 -18 35 -35c0 -20 -15 -38 -35 -38c-23 0 -38 18 -38 38z" />
    <glyph glyph-name="Lslash" unicode="&#x141;" horiz-adv-x="584" 
d="M0 165v57l85 63v415h53v-376l215 160v-57l-215 -160v-217h436v-50h-489v228z" />
    <glyph glyph-name="lslash" unicode="&#x142;" horiz-adv-x="262" 
d="M0 219v57l104 77v377h49v-340l109 81v-57l-109 -81v-333h-49v296z" />
    <glyph glyph-name="Nacute" unicode="&#x143;" horiz-adv-x="736" 
d="M656 0h-43l-482 604v-604h-51v700h44l481 -606v606h51v-700zM531 855l-178 -87l-15 30l173 100z" />
    <glyph glyph-name="nacute" unicode="&#x144;" horiz-adv-x="593" 
d="M70 0v520h49v-86c40 66 121 98 199 98c138 0 215 -70 215 -234v-298h-49v288c0 133 -60 197 -182 197c-74 0 -150 -52 -183 -125v-360h-49zM410 764l-116 -144l-30 21l108 151z" />
    <glyph glyph-name="Ncommaaccent" unicode="&#x145;" horiz-adv-x="736" 
d="M656 0h-43l-482 604v-604h-51v700h44l481 -606v606h51v-700zM347 -81l40 28c14 -15 32 -40 32 -71c0 -56 -40 -101 -68 -118l-22 23c22 20 43 50 43 84c0 27 -9 39 -25 54z" />
    <glyph glyph-name="ncommaaccent" unicode="&#x146;" horiz-adv-x="593" 
d="M70 0v520h49v-86c40 66 121 98 199 98c138 0 215 -70 215 -234v-298h-49v288c0 133 -60 197 -182 197c-74 0 -150 -52 -183 -125v-360h-49zM259 -81l40 28c14 -15 32 -40 32 -71c0 -56 -40 -101 -68 -118l-22 23c22 20 43 50 43 84c0 27 -9 39 -25 54z" />
    <glyph glyph-name="Ncaron" unicode="&#x147;" horiz-adv-x="736" 
d="M656 0h-43l-482 604v-604h-51v700h44l481 -606v606h51v-700zM370 763l-182 100l24 34l160 -87l158 87l18 -34l-174 -100h-4z" />
    <glyph glyph-name="ncaron" unicode="&#x148;" horiz-adv-x="593" 
d="M70 0v520h49v-86c40 66 121 98 199 98c138 0 215 -70 215 -234v-298h-49v288c0 133 -60 197 -182 197c-74 0 -150 -52 -183 -125v-360h-49zM296 631l-139 121l29 32l111 -100l117 97l22 -30l-136 -120h-4z" />
    <glyph glyph-name="Omacron" unicode="&#x14c;" horiz-adv-x="784" 
d="M40 350c0 203 154 359 352 359c196 0 352 -150 352 -359c0 -206 -156 -359 -352 -359s-352 150 -352 359zM95 350c0 -176 134 -310 297 -310c169 0 297 134 297 310c0 178 -134 310 -297 310c-164 0 -297 -132 -297 -310zM245 800v46h294v-46h-294z" />
    <glyph glyph-name="omacron" unicode="&#x14d;" horiz-adv-x="617" 
d="M36 261c0 158 110 272 272 272s273 -114 273 -272c0 -157 -111 -271 -273 -271s-272 114 -272 271zM89 261c0 -131 91 -224 219 -224c129 0 220 92 220 224s-93 225 -220 225s-219 -92 -219 -225zM182 655v46h254v-46h-254z" />
    <glyph glyph-name="Ohungarumlaut" unicode="&#x150;" horiz-adv-x="784" 
d="M40 350c0 203 154 359 352 359c196 0 352 -150 352 -359c0 -206 -156 -359 -352 -359s-352 150 -352 359zM95 350c0 -176 134 -310 297 -310c169 0 297 134 297 310c0 178 -134 310 -297 310c-164 0 -297 -132 -297 -310zM619 852l-154 -90l-18 31l152 99zM449 852
l-154 -90l-17 31l151 99z" />
    <glyph glyph-name="ohungarumlaut" unicode="&#x151;" horiz-adv-x="617" 
d="M36 261c0 158 110 272 272 272s273 -114 273 -272c0 -157 -111 -271 -273 -271s-272 114 -272 271zM89 261c0 -131 91 -224 219 -224c129 0 220 92 220 224s-93 225 -220 225s-219 -92 -219 -225zM499 784l-131 -164l-30 21l123 171zM359 784l-131 -164l-30 21l123 171z
" />
    <glyph glyph-name="OE" unicode="&#x152;" horiz-adv-x="1210" 
d="M654 0v115c-62 -76 -159 -124 -262 -124c-196 0 -352 150 -352 359c0 203 154 359 352 359c105 0 200 -41 262 -126v117h491v-50h-438v-269h409v-50h-409v-281h448v-50h-501zM392 40c116 0 212 63 262 159v299c-50 98 -149 162 -262 162c-164 0 -297 -132 -297 -310
c0 -176 134 -310 297 -310z" />
    <glyph glyph-name="oe" unicode="&#x153;" horiz-adv-x="987" 
d="M898 129l35 -29c-45 -74 -122 -110 -205 -110c-90 0 -164 32 -212 87c-48 -55 -121 -87 -208 -87c-162 0 -272 114 -272 271c0 158 110 272 272 272c85 0 158 -32 206 -86c44 53 111 86 201 86c135 0 236 -92 236 -235c0 -18 -1 -36 -3 -50h-442c0 -133 95 -211 225 -211
c71 0 136 43 167 92zM308 37c95 0 155 41 181 78c-23 40 -36 90 -36 146c0 54 12 105 34 147c-35 40 -89 78 -179 78c-127 0 -220 -92 -220 -225c0 -131 92 -224 220 -224zM709 486c-122 0 -196 -83 -206 -191h395c-1 118 -73 191 -189 191z" />
    <glyph glyph-name="Racute" unicode="&#x154;" horiz-adv-x="672" 
d="M133 0h-53v700h259c207 0 263 -93 263 -199s-80 -180 -191 -195l241 -306h-66l-230 295h-223v-295zM336 650h-203v-305h209c123 0 205 62 205 156c0 86 -53 149 -211 149zM440 855l-178 -87l-15 30l173 100z" />
    <glyph glyph-name="racute" unicode="&#x155;" horiz-adv-x="344" 
d="M70 0v520h49v-62c22 50 79 74 123 74c46 0 84 -19 107 -48l-36 -30c-16 18 -35 31 -75 31c-58 0 -107 -51 -119 -111v-374h-49zM305 764l-116 -144l-30 21l108 151z" />
    <glyph glyph-name="Rcommaaccent" unicode="&#x156;" horiz-adv-x="672" 
d="M133 0h-53v700h259c207 0 263 -93 263 -199s-80 -180 -191 -195l241 -306h-66l-230 295h-223v-295zM336 650h-203v-305h209c123 0 205 62 205 156c0 86 -53 149 -211 149zM306 -81l40 28c14 -15 32 -40 32 -71c0 -56 -40 -101 -68 -118l-22 23c22 20 43 50 43 84
c0 27 -9 39 -25 54z" />
    <glyph glyph-name="rcommaaccent" unicode="&#x157;" horiz-adv-x="344" 
d="M70 0v520h49v-62c22 50 79 74 123 74c46 0 84 -19 107 -48l-36 -30c-16 18 -35 31 -75 31c-58 0 -107 -51 -119 -111v-374h-49zM95 -81l40 28c14 -15 32 -40 32 -71c0 -56 -40 -101 -68 -118l-22 23c22 20 43 50 43 84c0 27 -9 39 -25 54z" />
    <glyph glyph-name="Rcaron" unicode="&#x158;" horiz-adv-x="672" 
d="M133 0h-53v700h259c207 0 263 -93 263 -199s-80 -180 -191 -195l241 -306h-66l-230 295h-223v-295zM336 650h-203v-305h209c123 0 205 62 205 156c0 86 -53 149 -211 149zM305 763l-182 100l24 34l160 -87l158 87l18 -34l-174 -100h-4z" />
    <glyph glyph-name="rcaron" unicode="&#x159;" horiz-adv-x="344" 
d="M70 0v520h49v-62c22 50 79 74 123 74c46 0 84 -19 107 -48l-36 -30c-16 18 -35 31 -75 31c-58 0 -107 -51 -119 -111v-374h-49zM202 631l-139 121l29 32l111 -100l117 97l22 -30l-136 -120h-4z" />
    <glyph glyph-name="Sacute" unicode="&#x15a;" horiz-adv-x="615" 
d="M510 181c0 208 -456 83 -456 344c0 100 97 184 251 184c103 0 195 -30 244 -91l-33 -34c-43 41 -112 75 -210 75c-74 0 -197 -32 -197 -131c0 -210 456 -87 456 -343c0 -115 -106 -194 -247 -194c-123 0 -230 59 -278 129l39 36c38 -51 123 -115 245 -115
c92 0 186 52 186 140zM460 855l-178 -87l-15 30l173 100z" />
    <glyph glyph-name="sacute" unicode="&#x15b;" horiz-adv-x="497" 
d="M408 135c0 133 -358 69 -358 256c0 88 76 142 195 142c79 0 162 -36 198 -88l-36 -31c-25 39 -96 72 -161 72c-73 0 -143 -20 -143 -94c0 -138 358 -75 358 -256c0 -101 -93 -146 -202 -146c-95 0 -189 44 -227 121l40 29c32 -65 111 -103 188 -103c60 0 148 23 148 98z
M362 764l-116 -144l-30 21l108 151z" />
    <glyph glyph-name="Scircumflex" unicode="&#x15c;" horiz-adv-x="615" 
d="M510 181c0 208 -456 83 -456 344c0 100 97 184 251 184c103 0 195 -30 244 -91l-33 -34c-43 41 -112 75 -210 75c-74 0 -197 -32 -197 -131c0 -210 456 -87 456 -343c0 -115 -106 -194 -247 -194c-123 0 -230 59 -278 129l39 36c38 -51 123 -115 245 -115
c92 0 186 52 186 140zM305 897l182 -100l-24 -35l-160 87l-158 -87l-18 35l174 100h4z" />
    <glyph glyph-name="scircumflex" unicode="&#x15d;" horiz-adv-x="497" 
d="M408 135c0 133 -358 69 -358 256c0 88 76 142 195 142c79 0 162 -36 198 -88l-36 -31c-25 39 -96 72 -161 72c-73 0 -143 -20 -143 -94c0 -138 358 -75 358 -256c0 -101 -93 -146 -202 -146c-95 0 -189 44 -227 121l40 29c32 -65 111 -103 188 -103c60 0 148 23 148 98z
M249 778l139 -121l-29 -32l-111 100l-117 -97l-22 30l136 120h4z" />
    <glyph glyph-name="Scedilla" unicode="&#x15e;" horiz-adv-x="615" 
d="M213 -176l15 38c27 -13 53 -19 74 -19c52 0 60 15 60 37c0 28 -21 36 -60 36h-26v77c-105 11 -194 65 -236 127l39 36c38 -51 123 -115 245 -115c92 0 186 52 186 140c0 208 -456 83 -456 344c0 100 97 184 251 184c103 0 195 -30 244 -91l-33 -34
c-43 41 -112 75 -210 75c-74 0 -197 -32 -197 -131c0 -210 456 -87 456 -343c0 -115 -106 -194 -247 -194h-2v-35c69 -1 96 -35 96 -76s-32 -80 -110 -80c-27 0 -63 7 -89 24z" />
    <glyph glyph-name="scedilla" unicode="&#x15f;" horiz-adv-x="497" 
d="M159 -176l15 38c27 -13 53 -19 74 -19c52 0 60 15 60 37c0 28 -21 36 -60 36h-26v76c-82 10 -157 52 -190 119l40 29c32 -65 111 -103 188 -103c60 0 148 23 148 98c0 133 -358 77 -358 256c0 88 76 142 195 142c79 0 162 -36 198 -88l-36 -31c-25 39 -96 72 -161 72
c-73 0 -143 -20 -143 -90c0 -128 358 -79 358 -260c0 -100 -92 -145 -199 -146v-34c69 -1 96 -35 96 -76s-32 -80 -110 -80c-27 0 -63 7 -89 24z" />
    <glyph glyph-name="Scaron" unicode="&#x160;" horiz-adv-x="615" 
d="M510 181c0 208 -456 83 -456 344c0 100 97 184 251 184c103 0 195 -30 244 -91l-33 -34c-43 41 -112 75 -210 75c-74 0 -197 -32 -197 -131c0 -210 456 -87 456 -343c0 -115 -106 -194 -247 -194c-123 0 -230 59 -278 129l39 36c38 -51 123 -115 245 -115
c92 0 186 52 186 140zM309 763l-182 100l24 34l160 -87l158 87l18 -34l-174 -100h-4z" />
    <glyph glyph-name="scaron" unicode="&#x161;" horiz-adv-x="497" 
d="M408 135c0 133 -358 69 -358 256c0 88 76 142 195 142c79 0 162 -36 198 -88l-36 -31c-25 39 -96 72 -161 72c-73 0 -143 -20 -143 -94c0 -138 358 -75 358 -256c0 -101 -93 -146 -202 -146c-95 0 -189 44 -227 121l40 29c32 -65 111 -103 188 -103c60 0 148 23 148 98z
M248 631l-139 121l29 32l111 -100l117 97l22 -30l-136 -120h-4z" />
    <glyph glyph-name="Tcedilla" unicode="&#x162;" horiz-adv-x="571" 
d="M4 650v50h563v-50h-255v-650h-6v-44c62 -1 89 -35 89 -76s-32 -80 -110 -80c-27 0 -63 7 -89 24l15 38c27 -13 53 -19 74 -19c52 0 60 15 60 37c0 28 -21 36 -60 36h-21v84h-5v650h-255z" />
    <glyph glyph-name="tcedilla" unicode="&#x163;" horiz-adv-x="388" 
d="M155 -176l15 38c27 -13 53 -19 74 -19c52 0 60 15 60 37c0 28 -21 36 -60 36h-26v82c-76 18 -109 87 -109 200v275h-109v47h109v120h49v-120h191v-47h-191v-265c0 -127 36 -168 115 -168c42 0 75 25 90 44l30 -31c-25 -32 -74 -60 -131 -60h-4v-37c69 -1 96 -35 96 -76
s-32 -80 -110 -80c-27 0 -63 7 -89 24z" />
    <glyph glyph-name="Tcaron" unicode="&#x164;" horiz-adv-x="571" 
d="M4 650v50h563v-50h-255v-650h-53v650h-255zM287 763l-182 100l24 34l160 -87l158 87l18 -34l-174 -100h-4z" />
    <glyph glyph-name="tcaron" unicode="&#x165;" horiz-adv-x="388" 
d="M0 473v47h109v120h49v-432c0 -127 36 -168 115 -168c42 0 75 25 90 44l30 -31c-25 -32 -74 -60 -131 -60c-106 0 -153 72 -153 205v275h-109zM263 730h49c6 -15 10 -30 10 -61c0 -60 -42 -111 -78 -133l-22 23c32 20 56 71 56 105c0 27 -7 55 -15 66z" />
    <glyph glyph-name="Umacron" unicode="&#x16a;" horiz-adv-x="717" 
d="M647 700v-407c0 -214 -141 -301 -279 -301c-160 0 -298 103 -298 308v400h53v-391c0 -185 119 -267 245 -267c148 0 226 98 226 262v396h53zM211 800v46h294v-46h-294z" />
    <glyph glyph-name="umacron" unicode="&#x16b;" horiz-adv-x="585" 
d="M515 523v-523h-49v98c-41 -67 -109 -108 -195 -108c-139 0 -211 71 -211 229v304h49v-291c0 -105 35 -195 165 -195c84 0 157 55 192 142v344h49zM166 655v46h254v-46h-254z" />
    <glyph glyph-name="Ubreve" unicode="&#x16c;" horiz-adv-x="717" 
d="M647 700v-407c0 -214 -141 -301 -279 -301c-160 0 -298 103 -298 308v400h53v-391c0 -185 119 -267 245 -267c148 0 226 98 226 262v396h53zM190 869l27 23c20 -25 67 -64 143 -64c66 0 113 30 140 64l26 -19c-31 -49 -95 -90 -166 -90c-94 0 -144 49 -170 86z" />
    <glyph glyph-name="ubreve" unicode="&#x16d;" horiz-adv-x="585" 
d="M515 523v-523h-49v98c-41 -67 -109 -108 -195 -108c-139 0 -211 71 -211 229v304h49v-291c0 -105 35 -195 165 -195c84 0 157 55 192 142v344h49zM138 738l21 22c20 -25 76 -60 125 -60c56 0 98 25 125 59l18 -21c-31 -47 -82 -88 -143 -88c-73 0 -130 64 -146 88z" />
    <glyph glyph-name="Uring" unicode="&#x16e;" horiz-adv-x="717" 
d="M647 700v-407c0 -214 -141 -301 -279 -301c-160 0 -298 103 -298 308v400h53v-391c0 -185 119 -267 245 -267c148 0 226 98 226 262v396h53zM256 817c0 57 51 90 102 90s103 -31 103 -90c0 -54 -42 -93 -103 -93c-62 0 -102 36 -102 93zM296 817c0 -28 21 -53 62 -53
c44 0 63 23 63 53c0 28 -24 50 -63 50c-41 0 -62 -24 -62 -50z" />
    <glyph glyph-name="uring" unicode="&#x16f;" horiz-adv-x="585" 
d="M515 523v-523h-49v98c-41 -67 -109 -108 -195 -108c-139 0 -211 71 -211 229v304h49v-291c0 -105 35 -195 165 -195c84 0 157 55 192 142v344h49zM200 701c0 51 41 93 92 93s93 -42 93 -93s-42 -92 -93 -92s-92 41 -92 92zM240 701c0 -29 22 -52 52 -52c29 0 53 17 53 52
c0 34 -22 53 -53 53c-30 0 -52 -22 -52 -53z" />
    <glyph glyph-name="Uhungarumlaut" unicode="&#x170;" horiz-adv-x="717" 
d="M647 700v-407c0 -214 -141 -301 -279 -301c-160 0 -298 103 -298 308v400h53v-391c0 -185 119 -267 245 -267c148 0 226 98 226 262v396h53zM589 852l-154 -90l-18 31l152 99zM419 852l-154 -90l-17 31l151 99z" />
    <glyph glyph-name="uhungarumlaut" unicode="&#x171;" horiz-adv-x="585" 
d="M515 523v-523h-49v98c-41 -67 -109 -108 -195 -108c-139 0 -211 71 -211 229v304h49v-291c0 -105 35 -195 165 -195c84 0 157 55 192 142v344h49zM483 784l-131 -164l-30 21l123 171zM343 784l-131 -164l-30 21l123 171z" />
    <glyph glyph-name="Uogonek" unicode="&#x172;" horiz-adv-x="717" 
d="M647 700v-407c0 -175 -94 -265 -203 -292v-1h-4l-34 -6c-46 -14 -91 -51 -91 -96c0 -47 37 -60 71 -60c21 0 41 3 58 9l3 -37c-17 -7 -37 -10 -64 -10c-48 -2 -108 23 -108 90c0 43 23 80 63 103c-147 12 -268 115 -268 307v400h53v-391c0 -185 119 -267 245 -267
c148 0 226 98 226 262v396h53z" />
    <glyph glyph-name="uogonek" unicode="&#x173;" horiz-adv-x="585" 
d="M510 -148l13 -39c-17 -7 -32 -13 -62 -13c-45 0 -100 29 -100 99c0 59 54 100 105 116v83c-41 -67 -109 -108 -195 -108c-139 0 -211 71 -211 229v304h49v-291c0 -105 35 -195 165 -195c84 0 157 55 192 142v344h49v-523h-8c-34 -2 -96 -40 -96 -97c0 -34 22 -60 51 -60
c11 0 31 1 48 9z" />
    <glyph glyph-name="Ydieresis" unicode="&#x178;" horiz-adv-x="612" 
d="M612 700l-281 -393v-307h-53v307l-278 393h63l244 -345l247 345h58zM156 822c0 19 16 32 38 32c16 0 34 -13 34 -32c0 -21 -18 -32 -34 -32c-22 0 -38 11 -38 32zM385 822c0 19 16 32 37 32c18 0 34 -12 34 -32c0 -21 -16 -32 -34 -32c-21 0 -37 11 -37 32z" />
    <glyph glyph-name="Zacute" unicode="&#x179;" horiz-adv-x="628" 
d="M34 650v50h564v-37l-509 -613h519v-50h-593v37l507 613h-488zM470 855l-178 -87l-15 30l173 100z" />
    <glyph glyph-name="zacute" unicode="&#x17a;" horiz-adv-x="485" 
d="M37 473v47h428v-32l-370 -441h364v-47h-439v33l369 440h-352zM346 764l-116 -144l-30 21l108 151z" />
    <glyph glyph-name="Zdotaccent" unicode="&#x17b;" horiz-adv-x="628" 
d="M34 650v50h564v-37l-509 -613h519v-50h-593v37l507 613h-488zM278 826c0 20 18 35 37 35c18 0 36 -15 36 -35c0 -23 -18 -39 -36 -39c-19 0 -37 16 -37 39z" />
    <glyph glyph-name="zdotaccent" unicode="&#x17c;" horiz-adv-x="485" 
d="M37 473v47h428v-32l-370 -441h364v-47h-439v33l369 440h-352zM206 696c0 20 18 35 37 35c18 0 36 -15 36 -35c0 -23 -18 -39 -36 -39c-19 0 -37 16 -37 39z" />
    <glyph glyph-name="Zcaron" unicode="&#x17d;" horiz-adv-x="628" 
d="M34 650v50h564v-37l-509 -613h519v-50h-593v37l507 613h-488zM316 763l-182 100l24 34l160 -87l158 87l18 -34l-174 -100h-4z" />
    <glyph glyph-name="zcaron" unicode="&#x17e;" horiz-adv-x="485" 
d="M37 473v47h428v-32l-370 -441h364v-47h-439v33l369 440h-352zM242 631l-139 121l29 32l111 -100l117 97l22 -30l-136 -120h-4z" />
    <glyph glyph-name="uni018F" unicode="&#x18f;" horiz-adv-x="750" 
d="M31 324c0 17 0 38 3 58h622c-13 169 -123 278 -302 278c-86 0 -183 -49 -236 -118l-37 33c64 85 179 134 280 134c216 0 349 -138 349 -356c0 -208 -130 -362 -346 -362c-235 0 -333 195 -333 333zM656 332h-575v-5c0 -152 106 -287 289 -287c162 0 286 120 286 292z" />
    <glyph glyph-name="florin" unicode="&#x192;" 
d="M355 514c-4 -21 -8 -43 -12 -64h167v-46h-175l-69 -388c-18 -102 -37 -224 -168 -224c-39 0 -73 13 -91 28l15 39c16 -11 40 -21 66 -21c73 0 105 48 120 134l77 432h-158v46h166l13 73c17 97 53 186 170 186c54 0 93 -18 116 -37l-18 -39c-23 18 -50 30 -90 30
c-74 0 -109 -44 -129 -149z" />
    <glyph glyph-name="uni01DD" unicode="&#x1dd;" horiz-adv-x="570" 
d="M89 394l-35 29c51 72 133 110 228 110c141 0 252 -106 252 -271c0 -153 -91 -272 -262 -272c-135 0 -236 99 -236 242c0 18 1 36 3 50h442c0 133 -95 204 -201 204c-95 0 -160 -43 -191 -92zM278 37c122 0 203 89 206 198h-395c0 -111 73 -198 189 -198z" />
    <glyph glyph-name="Scommaaccent" unicode="&#x218;" horiz-adv-x="615" 
d="M510 181c0 208 -456 83 -456 344c0 100 97 184 251 184c103 0 195 -30 244 -91l-33 -34c-43 41 -112 75 -210 75c-74 0 -197 -32 -197 -131c0 -210 456 -87 456 -343c0 -115 -106 -194 -247 -194c-123 0 -230 59 -278 129l39 36c38 -51 123 -115 245 -115
c92 0 186 52 186 140zM280 -81l40 28c14 -15 32 -40 32 -71c0 -56 -40 -101 -68 -118l-22 23c22 20 43 50 43 84c0 27 -9 39 -25 54z" />
    <glyph glyph-name="scommaaccent" unicode="&#x219;" horiz-adv-x="497" 
d="M408 135c0 133 -358 69 -358 256c0 88 76 142 195 142c79 0 162 -36 198 -88l-36 -31c-25 39 -96 72 -161 72c-73 0 -143 -20 -143 -94c0 -138 358 -75 358 -256c0 -101 -93 -146 -202 -146c-95 0 -189 44 -227 121l40 29c32 -65 111 -103 188 -103c60 0 148 23 148 98z
M222 -81l40 28c14 -15 32 -40 32 -71c0 -56 -40 -101 -68 -118l-22 23c22 20 43 50 43 84c0 27 -9 39 -25 54z" />
    <glyph glyph-name="Tcommaaccent" unicode="&#x21a;" horiz-adv-x="571" 
d="M4 650v50h563v-50h-255v-650h-53v650h-255zM258 -81l40 28c14 -15 32 -40 32 -71c0 -56 -40 -101 -68 -118l-22 23c22 20 43 50 43 84c0 27 -9 39 -25 54z" />
    <glyph glyph-name="tcommaaccent" unicode="&#x21b;" horiz-adv-x="388" 
d="M0 473v47h109v120h49v-120h191v-47h-191v-265c0 -127 36 -168 115 -168c42 0 75 25 90 44l30 -31c-25 -32 -74 -60 -131 -60c-106 0 -153 72 -153 205v275h-109zM197 -81l40 28c14 -15 32 -40 32 -71c0 -56 -40 -101 -68 -118l-22 23c22 20 43 50 43 84
c0 27 -9 39 -25 54z" />
    <glyph glyph-name="uni0237" unicode="&#x237;" horiz-adv-x="235" 
d="M144 520v-527c0 -127 -46 -202 -149 -202c-56 0 -105 27 -124 60l37 31c17 -19 34 -44 87 -44c66 0 100 59 100 158v524h49z" />
    <glyph glyph-name="uni0259" unicode="&#x259;" horiz-adv-x="570" 
d="M89 394l-35 29c51 72 133 110 228 110c141 0 252 -106 252 -271c0 -153 -91 -272 -262 -272c-135 0 -236 99 -236 242c0 18 1 36 3 50h442c0 133 -95 204 -201 204c-95 0 -160 -43 -191 -92zM278 37c122 0 203 89 206 198h-395c0 -111 73 -198 189 -198z" />
    <glyph glyph-name="afii57929" unicode="&#x2bc;" horiz-adv-x="162" 
d="M91 702l41 26c14 -15 30 -48 30 -79c0 -60 -42 -101 -78 -123l-22 23c32 20 53 55 53 89c0 27 -14 53 -24 64z" />
    <glyph glyph-name="circumflex" unicode="&#x2c6;" horiz-adv-x="448" 
d="M309 778l139 -121l-29 -32l-111 100l-117 -97l-22 30l136 120h4z" />
    <glyph glyph-name="caron" unicode="&#x2c7;" horiz-adv-x="445" 
d="M305 631l-139 121l29 32l111 -100l117 97l22 -30l-136 -120h-4z" />
    <glyph glyph-name="breve" unicode="&#x2d8;" horiz-adv-x="443" 
d="M154 738l21 22c20 -25 76 -60 125 -60c56 0 98 25 125 59l18 -21c-31 -47 -82 -88 -143 -88c-73 0 -130 64 -146 88z" />
    <glyph glyph-name="dotaccent" unicode="&#x2d9;" horiz-adv-x="250" 
d="M80 696c0 20 18 35 37 35c18 0 36 -15 36 -35c0 -23 -18 -39 -36 -39c-19 0 -37 16 -37 39z" />
    <glyph glyph-name="ring" unicode="&#x2da;" horiz-adv-x="403" 
d="M218 701c0 51 41 93 92 93s93 -42 93 -93s-42 -92 -93 -92s-92 41 -92 92zM258 701c0 -29 22 -52 52 -52c29 0 53 17 53 52c0 34 -22 53 -53 53c-30 0 -52 -22 -52 -53z" />
    <glyph glyph-name="ogonek" unicode="&#x2db;" horiz-adv-x="362" 
d="M349 -148l13 -39c-17 -7 -32 -13 -62 -13c-45 0 -100 29 -100 99c0 76 91 124 149 124v-23c-34 0 -99 -39 -99 -97c0 -34 22 -60 51 -60c11 0 31 1 48 9z" />
    <glyph glyph-name="tilde" unicode="&#x2dc;" horiz-adv-x="458" 
d="M170 639l-25 25c34 31 70 55 102 55c47 0 80 -52 122 -52c20 0 46 12 68 36l21 -24c-33 -43 -67 -54 -93 -54c-56 0 -83 52 -119 52c-26 0 -49 -15 -76 -38z" />
    <glyph glyph-name="hungarumlaut" unicode="&#x2dd;" horiz-adv-x="523" 
d="M523 784l-131 -164l-30 21l123 171zM383 784l-131 -164l-30 21l123 171z" />
    <glyph glyph-name="gravecomb" unicode="&#x300;" horiz-adv-x="0" 
d="M-287 621l-116 142l38 29l108 -149z" />
    <glyph glyph-name="acutecomb" unicode="&#x301;" horiz-adv-x="0" 
d="M-187 764l-116 -144l-30 21l108 151z" />
    <glyph glyph-name="uni0394" unicode="&#x394;" horiz-adv-x="713" 
d="M34 0l303 708h31l310 -708h-644zM352 619l-242 -570h490c-83 190 -165 380 -248 570z" />
    <glyph glyph-name="uni0394" unicode="&#x2206;" horiz-adv-x="713" 
d="M34 0l303 708h31l310 -708h-644zM352 619l-242 -570h490c-83 190 -165 380 -248 570z" />
    <glyph glyph-name="uni03A9" unicode="&#x3a9;" horiz-adv-x="804" 
d="M97 0v49h133c-84 32 -170 139 -170 301c0 203 149 358 342 358s342 -155 342 -358c0 -162 -87 -260 -179 -301h141v-49h-251v49c106 27 234 129 234 301c0 177 -133 309 -287 309c-151 0 -287 -128 -287 -309c0 -172 127 -285 233 -301v-49h-251z" />
    <glyph glyph-name="uni03A9" unicode="&#x2126;" horiz-adv-x="804" 
d="M97 0v49h133c-84 32 -170 139 -170 301c0 203 149 358 342 358s342 -155 342 -358c0 -162 -87 -260 -179 -301h141v-49h-251v49c106 27 234 129 234 301c0 177 -133 309 -287 309c-151 0 -287 -128 -287 -309c0 -172 127 -285 233 -301v-49h-251z" />
    <glyph glyph-name="pi" unicode="&#x3c0;" horiz-adv-x="713" 
d="M49 473v47h625v-47h-133v-331c0 -70 17 -98 66 -98c27 0 60 14 79 28l7 -46c-21 -16 -55 -29 -86 -29c-66 0 -115 32 -115 126v350h-261v-69c0 -330 -70 -404 -201 -404v48c94 0 152 47 152 345v80h-133z" />
    <glyph glyph-name="afii10023" unicode="&#x401;" horiz-adv-x="636" 
d="M80 0v700h491v-50h-438v-269h409v-50h-409v-281h448v-50h-501zM179 822c0 19 16 32 38 32c16 0 34 -13 34 -32c0 -21 -18 -32 -34 -32c-22 0 -38 11 -38 32zM408 822c0 19 16 32 37 32c18 0 34 -12 34 -32c0 -21 -16 -32 -34 -32c-21 0 -37 11 -37 32z" />
    <glyph glyph-name="afii10051" unicode="&#x402;" horiz-adv-x="727" 
d="M634 204c0 100 -43 168 -157 170c-59 1 -130 -34 -165 -89v-285h-53v651h-255v49h563v-49h-255v-302c31 38 97 74 179 74c113 0 196 -64 196 -219c0 -153 -69 -213 -166 -213c-42 0 -80 18 -99 49l37 31c14 -18 31 -31 58 -31c69 0 117 48 117 164z" />
    <glyph glyph-name="afii10052" unicode="&#x403;" horiz-adv-x="561" 
d="M80 0v700h481v-50h-428v-650h-53zM470 855l-178 -87l-15 30l173 100z" />
    <glyph glyph-name="afii10053" unicode="&#x404;" horiz-adv-x="681" 
d="M475 382v-50h-382c11 -189 145 -292 320 -292c75 0 163 34 207 106l36 -28c-48 -87 -159 -127 -248 -127c-221 0 -368 141 -368 359c0 208 141 359 360 359c87 0 195 -33 248 -113l-40 -32c-41 64 -136 96 -212 96c-167 0 -286 -116 -302 -278h381z" />
    <glyph glyph-name="afii10054" unicode="&#x405;" horiz-adv-x="615" 
d="M510 181c0 208 -456 83 -456 344c0 100 97 184 251 184c103 0 195 -30 244 -91l-33 -34c-43 41 -112 75 -210 75c-74 0 -197 -32 -197 -131c0 -210 456 -87 456 -343c0 -115 -106 -194 -247 -194c-123 0 -230 59 -278 129l39 36c38 -51 123 -115 245 -115
c92 0 186 52 186 140z" />
    <glyph glyph-name="afii10055" unicode="&#x406;" horiz-adv-x="233" 
d="M90 0v700h53v-700h-53z" />
    <glyph glyph-name="afii10056" unicode="&#x407;" horiz-adv-x="233" 
d="M13 803c0 18 14 31 32 31c17 0 32 -13 32 -31c0 -20 -15 -33 -32 -33c-18 0 -32 13 -32 33zM156 803c0 18 15 31 33 31c17 0 31 -13 31 -31c0 -20 -14 -33 -31 -33c-18 0 -33 13 -33 33zM90 0v700h53v-700h-53z" />
    <glyph glyph-name="afii10057" unicode="&#x408;" horiz-adv-x="485" 
d="M405 700v-495c0 -139 -83 -214 -206 -214c-106 0 -173 69 -199 123l41 30c28 -54 86 -105 156 -104c94 2 155 46 155 173v487h53z" />
    <glyph glyph-name="afii10058" unicode="&#x409;" horiz-adv-x="1034" 
d="M746 377h-151v-327h141c134 0 213 56 213 170c0 100 -70 157 -203 157zM595 700v-273h153c175 0 256 -80 256 -207c0 -145 -102 -220 -268 -220h-194v650h-316v-131c0 -418 -93 -526 -193 -526c-10 0 -25 2 -33 7v52c79 -26 173 40 173 447v201h422z" />
    <glyph glyph-name="afii10059" unicode="&#x40a;" horiz-adv-x="1046" 
d="M608 407h153c174 0 255 -70 255 -197c0 -145 -102 -210 -267 -210h-194v357h-422v-357h-53v700h53v-293h422v293h53v-293zM759 357h-151v-307h141c133 0 212 46 212 160c0 100 -70 147 -202 147z" />
    <glyph glyph-name="afii10060" unicode="&#x40b;" horiz-adv-x="728" 
d="M4 650v50h563v-50h-255v-298c39 36 97 71 179 71c113 0 197 -64 197 -224v-199h-53v188c0 117 -42 185 -158 185c-59 0 -129 -36 -165 -88v-285h-53v650h-255z" />
    <glyph glyph-name="afii10061" unicode="&#x40c;" horiz-adv-x="639" 
d="M80 0v700h53v-376l404 376h71l-346 -321l373 -379h-71l-340 344l-91 -83v-261h-53zM465 855l-178 -87l-15 30l173 100z" />
    <glyph glyph-name="afii10062" unicode="&#x40e;" horiz-adv-x="663" 
d="M186 17l24 44c9 -6 22 -10 35 -10c37 0 68 46 102 116l-347 533h61l315 -477l230 477h57l-267 -543c-48 -101 -92 -157 -156 -157c-20 0 -38 6 -54 17zM150 881l43 20c22 -55 71 -85 131 -85c69 0 115 39 129 83l40 -18c-16 -59 -89 -109 -169 -109
c-87 0 -149 44 -174 109z" />
    <glyph glyph-name="afii10145" unicode="&#x40f;" horiz-adv-x="710" 
d="M80 0v700h53v-651h444v651h53v-700h-251v-157h-50v157h-249z" />
    <glyph glyph-name="afii10017" unicode="&#x410;" horiz-adv-x="669" 
d="M4 0l307 703h47l307 -703h-56l-91 205h-372l-88 -205h-54zM332 636l-163 -381h329z" />
    <glyph glyph-name="afii10018" unicode="&#x411;" horiz-adv-x="657" 
d="M563 700v-50h-430v-252h227c167 0 257 -67 257 -191c0 -143 -106 -207 -272 -207h-265v700h483zM358 348h-225v-298h219c134 0 210 49 210 156c0 93 -67 142 -204 142z" />
    <glyph glyph-name="afii10019" unicode="&#x412;" horiz-adv-x="670" 
d="M80 0v700h264c195 0 250 -73 250 -171c0 -81 -41 -143 -117 -166c88 -9 143 -72 143 -168c0 -139 -107 -195 -278 -195h-262zM360 333h-227v-283h217c146 0 217 46 217 148c0 88 -66 135 -207 135zM348 650h-215v-267h230c105 0 178 50 178 137c0 86 -50 130 -193 130z
" />
    <glyph glyph-name="afii10020" unicode="&#x413;" horiz-adv-x="561" 
d="M80 0v700h481v-50h-428v-650h-53z" />
    <glyph glyph-name="afii10021" unicode="&#x414;" horiz-adv-x="732" 
d="M0 -134v183h73c55 68 107 207 107 511v140h449v-651h93v-183h-50v134h-622v-134h-50zM231 651v-128c0 -126 -31 -396 -99 -474h444v602h-345z" />
    <glyph glyph-name="afii10022" unicode="&#x415;" horiz-adv-x="636" 
d="M80 0v700h491v-50h-438v-269h409v-50h-409v-281h448v-50h-501z" />
    <glyph glyph-name="afii10024" unicode="&#x416;" horiz-adv-x="906" 
d="M332 381l-317 319h65l346 -345v345h53v-345l347 345h65l-320 -319l331 -381h-65l-306 348l-52 -50v-298h-53v301l-57 49l-301 -350h-64z" />
    <glyph glyph-name="afii10025" unicode="&#x417;" horiz-adv-x="640" 
d="M319 -9c-148 0 -259 67 -299 136l36 31c61 -73 142 -117 263 -117c123 0 216 60 216 159c0 78 -80 133 -197 133h-132v50h126c90 0 177 57 177 140c0 92 -95 136 -203 136c-116 0 -195 -63 -232 -116l-40 30c43 60 129 136 276 136c145 0 254 -66 254 -192
c0 -71 -54 -126 -121 -155c96 -16 147 -88 147 -163c0 -132 -121 -208 -271 -208z" />
    <glyph glyph-name="afii10026" unicode="&#x418;" horiz-adv-x="735" 
d="M127 0h-47v700h53v-615l474 615h48v-700h-53v615z" />
    <glyph glyph-name="afii10027" unicode="&#x419;" horiz-adv-x="735" 
d="M127 0h-47v700h53v-615l474 615h48v-700h-53v615zM195 881l43 20c22 -55 71 -85 131 -85c69 0 115 39 129 83l40 -18c-16 -59 -89 -109 -169 -109c-87 0 -149 44 -174 109z" />
    <glyph glyph-name="afii10028" unicode="&#x41a;" horiz-adv-x="639" 
d="M80 0v700h53v-376l404 376h71l-346 -321l373 -379h-71l-340 344l-91 -83v-261h-53z" />
    <glyph glyph-name="afii10029" unicode="&#x41b;" horiz-adv-x="699" 
d="M566 0v651h-340v-132c0 -418 -93 -523 -193 -523c-10 0 -25 -1 -33 4v52c83 -19 173 40 173 447v201h446v-700h-53z" />
    <glyph glyph-name="afii10030" unicode="&#x41c;" horiz-adv-x="829" 
d="M80 0v700h54l287 -385l276 385h52v-700h-53v616l-273 -378h-11l-279 375v-613h-53z" />
    <glyph glyph-name="afii10031" unicode="&#x41d;" horiz-adv-x="745" 
d="M612 0v332h-479v-332h-53v700h53v-318h479v318h53v-700h-53z" />
    <glyph glyph-name="afii10032" unicode="&#x41e;" horiz-adv-x="784" 
d="M40 350c0 203 154 359 352 359c196 0 352 -150 352 -359c0 -206 -156 -359 -352 -359s-352 150 -352 359zM95 350c0 -176 134 -310 297 -310c169 0 297 134 297 310c0 178 -134 310 -297 310c-164 0 -297 -132 -297 -310z" />
    <glyph glyph-name="afii10033" unicode="&#x41f;" horiz-adv-x="739" 
d="M606 0v650h-473v-650h-53v700h579v-700h-53z" />
    <glyph glyph-name="afii10034" unicode="&#x420;" horiz-adv-x="649" 
d="M133 0h-53v700h248c232 0 281 -105 281 -208c0 -109 -72 -212 -282 -212h-194v-280zM333 651h-200v-321l192 -1c160 -1 229 67 229 164c0 92 -59 158 -221 158z" />
    <glyph glyph-name="afii10035" unicode="&#x421;" horiz-adv-x="684" 
d="M630 138l29 -35c-47 -63 -148 -112 -257 -112c-222 0 -362 141 -362 359c0 201 132 359 349 359c125 0 216 -54 260 -107l-31 -35c-61 56 -120 92 -233 92c-184 0 -290 -131 -290 -309c0 -186 122 -309 309 -309c109 0 179 46 226 97z" />
    <glyph glyph-name="afii10036" unicode="&#x422;" horiz-adv-x="571" 
d="M4 650v50h563v-50h-255v-650h-53v650h-255z" />
    <glyph glyph-name="afii10037" unicode="&#x423;" horiz-adv-x="663" 
d="M186 17l24 44c9 -6 22 -10 35 -10c37 0 68 46 102 116l-347 533h61l315 -477l230 477h57l-267 -543c-48 -101 -92 -157 -156 -157c-20 0 -38 6 -54 17z" />
    <glyph glyph-name="afii10038" unicode="&#x424;" horiz-adv-x="829" 
d="M388 -15v88h-5c-217 0 -353 110 -353 287c0 189 148 287 358 287v68h52v-68c189 0 359 -92 359 -287c0 -176 -137 -287 -353 -287h-6v-88h-52zM443 599h-3v-478h6c182 0 298 87 298 239c0 147 -120 239 -301 239zM85 360c0 -150 116 -239 299 -239h4v478
c-161 0 -303 -73 -303 -239z" />
    <glyph glyph-name="afii10039" unicode="&#x425;" horiz-adv-x="632" 
d="M603 700l-253 -344l262 -356h-63l-233 315l-233 -315h-63l262 356l-251 344h62l224 -303l223 303h63z" />
    <glyph glyph-name="afii10040" unicode="&#x426;" horiz-adv-x="742" 
d="M80 0v700h53v-650h453v650h53v-650h93v-184h-50v134h-602z" />
    <glyph glyph-name="afii10041" unicode="&#x427;" horiz-adv-x="671" 
d="M591 700v-700h-53v319c-42 -28 -151 -57 -234 -57c-145 0 -254 65 -254 225v213h53v-202c0 -128 72 -186 214 -186c75 0 179 34 221 60v328h53z" />
    <glyph glyph-name="afii10042" unicode="&#x428;" horiz-adv-x="915" 
d="M80 0v700h53v-650h298v650h53v-650h298v650h53v-700h-755z" />
    <glyph glyph-name="afii10043" unicode="&#x429;" horiz-adv-x="938" 
d="M80 0v700h53v-650h298v650h53v-650h298v650h53v-650h93v-184h-50v134h-798z" />
    <glyph glyph-name="afii10044" unicode="&#x42a;" horiz-adv-x="746" 
d="M0 651v49h229v-276h211c185 0 276 -77 276 -204c0 -145 -106 -220 -286 -220h-254v651h-176zM438 374h-209v-324h205c143 0 227 55 227 170c0 101 -83 154 -223 154z" />
    <glyph glyph-name="afii10045" unicode="&#x42b;" horiz-adv-x="836" 
d="M703 0v700h53v-700h-53zM313 374h-180v-324h177c143 0 226 55 226 170c0 101 -82 154 -223 154zM133 700v-276h183c185 0 275 -77 275 -204c0 -145 -106 -220 -285 -220h-226v700h53z" />
    <glyph glyph-name="afii10046" unicode="&#x42c;" horiz-adv-x="650" 
d="M342 374h-209v-324h206c143 0 226 55 226 170c0 101 -82 154 -223 154zM133 700v-276h212c185 0 275 -77 275 -204c0 -145 -105 -220 -285 -220h-255v700h53z" />
    <glyph glyph-name="afii10047" unicode="&#x42d;" horiz-adv-x="689" 
d="M197 332v50h398c-13 169 -123 278 -302 278c-86 0 -183 -49 -236 -118l-37 33c64 85 179 134 280 134c216 0 349 -138 349 -356c0 -208 -130 -362 -358 -362c-99 0 -208 40 -269 124l38 31c47 -62 145 -106 237 -106c174 0 287 123 298 292h-398z" />
    <glyph glyph-name="afii10048" unicode="&#x42e;" horiz-adv-x="984" 
d="M80 0v700h53v-318h145c17 183 147 327 332 327c195 0 334 -150 334 -359c0 -206 -139 -359 -334 -359c-193 0 -319 149 -333 341h-144v-332h-53zM332 350c0 -176 119 -309 279 -309c168 0 278 133 278 309c0 178 -116 309 -278 309c-161 0 -279 -131 -279 -309z" />
    <glyph glyph-name="afii10049" unicode="&#x42f;" horiz-adv-x="671" 
d="M538 0v275h-228l-233 -275h-67l239 282c-119 17 -194 96 -194 207c0 115 82 211 266 211h270v-700h-53zM289 325h249v326h-226c-144 0 -202 -75 -202 -165c0 -84 64 -149 179 -161z" />
    <glyph glyph-name="afii10065" unicode="&#x430;" horiz-adv-x="533" 
d="M92 423l-28 39c48 42 129 71 195 71c143 0 214 -76 214 -208v-325h-49v94c-35 -54 -100 -101 -207 -101c-111 0 -187 60 -187 152c0 109 90 155 256 155c41 0 110 -8 138 -16c0 118 -31 202 -171 202c-61 0 -117 -27 -161 -63zM232 40c109 0 173 80 192 127v70
c-32 10 -80 16 -130 16c-132 0 -211 -25 -211 -103c0 -70 62 -110 149 -110z" />
    <glyph glyph-name="afii10066" unicode="&#x431;" horiz-adv-x="605" 
d="M502 743l8 -45c-90 -39 -211 -14 -302 -59c-99 -49 -115 -144 -124 -250l4 -1c51 89 137 122 232 122c155 0 249 -96 249 -254c0 -146 -111 -266 -264 -266c-164 0 -269 110 -269 312c0 189 17 311 154 380c93 47 226 25 312 61zM89 292v-1c0 -166 92 -254 215 -254
c122 0 212 97 212 217c0 128 -75 209 -209 209c-125 0 -202 -89 -218 -171z" />
    <glyph glyph-name="afii10067" unicode="&#x432;" horiz-adv-x="545" 
d="M70 0v520h210c138 0 205 -32 205 -127c0 -57 -27 -96 -78 -120c66 -16 98 -62 98 -131c0 -93 -75 -142 -221 -142h-214zM298 242h-179v-195h160c113 0 173 30 173 100c0 67 -53 95 -154 95zM277 473h-158v-184h186c78 0 127 35 127 96c0 74 -72 88 -155 88z" />
    <glyph glyph-name="afii10068" unicode="&#x433;" horiz-adv-x="434" 
d="M70 0v520h364v-47h-315v-473h-49z" />
    <glyph glyph-name="afii10069" unicode="&#x434;" horiz-adv-x="592" 
d="M4 -134v181h54c64 86 80 212 80 352v121h372v-473h78v-181h-47v134h-490v-134h-47zM187 473v-50c0 -169 -15 -288 -73 -376h347v426h-274z" />
    <glyph glyph-name="afii10070" unicode="&#x435;" horiz-adv-x="570" 
d="M481 129l35 -29c-45 -74 -122 -110 -205 -110c-164 0 -275 106 -275 271c0 153 91 272 262 272c135 0 236 -92 236 -235c0 -18 -1 -36 -3 -50h-442c0 -133 95 -211 225 -211c71 0 136 43 167 92zM292 486c-122 0 -196 -83 -206 -191h395c-1 118 -73 191 -189 191z" />
    <glyph glyph-name="afii10072" unicode="&#x436;" horiz-adv-x="749" 
d="M266 276l-250 244h63l269 -256v256h49v-256l269 256h63l-253 -241l268 -279h-62l-243 252l-42 -38v-214h-49v213l-49 32l-232 -245h-62z" />
    <glyph glyph-name="afii10073" unicode="&#x437;" horiz-adv-x="519" 
d="M250 -10c-114 0 -185 47 -227 112l40 29c29 -52 100 -94 187 -94c96 0 176 44 176 114c0 60 -47 91 -131 91h-129v47h123c57 0 117 36 117 99c0 64 -69 98 -161 98c-86 0 -135 -44 -164 -79l-38 25c26 44 102 101 212 101c126 0 204 -52 204 -135c0 -57 -29 -99 -76 -121
c76 -29 96 -69 96 -123c0 -106 -102 -164 -229 -164z" />
    <glyph glyph-name="afii10074" unicode="&#x438;" horiz-adv-x="605" 
d="M121 0h-51v520h49v-451l365 451h51v-520h-49v450z" />
    <glyph glyph-name="afii10075" unicode="&#x439;" horiz-adv-x="605" 
d="M121 0h-51v520h49v-451l365 451h51v-520h-49v450zM151 748h48c1 -58 42 -99 111 -99c66 0 107 41 108 99h47c-2 -80 -64 -142 -155 -142c-99 0 -158 61 -159 142z" />
    <glyph glyph-name="afii10076" unicode="&#x43a;" horiz-adv-x="519" 
d="M70 0v520h49v-261l304 261h74l-288 -243l306 -277h-77l-271 246l-48 -42v-204h-49z" />
    <glyph glyph-name="afii10077" unicode="&#x43b;" horiz-adv-x="583" 
d="M464 0v473h-273v-123c0 -291 -103 -364 -182 -353l-5 48c48 -9 137 36 137 314v161h372v-520h-49z" />
    <glyph glyph-name="afii10078" unicode="&#x43c;" horiz-adv-x="674" 
d="M70 0v520h47l224 -293l218 293h45v-520h-49v442l-214 -287l-222 286v-441h-49z" />
    <glyph glyph-name="afii10079" unicode="&#x43d;" horiz-adv-x="596" 
d="M477 0v242h-358v-242h-49v520h49v-231h358v231h49v-520h-49z" />
    <glyph glyph-name="afii10080" unicode="&#x43e;" horiz-adv-x="617" 
d="M36 261c0 158 110 272 272 272s273 -114 273 -272c0 -157 -111 -271 -273 -271s-272 114 -272 271zM89 261c0 -131 91 -224 219 -224c129 0 220 92 220 224s-93 225 -220 225s-219 -92 -219 -225z" />
    <glyph glyph-name="afii10081" unicode="&#x43f;" horiz-adv-x="590" 
d="M471 0v473h-352v-473h-49v520h450v-520h-49z" />
    <glyph glyph-name="afii10082" unicode="&#x440;" horiz-adv-x="599" 
d="M70 -200v720h49v-87c45 74 124 100 199 100c152 0 245 -109 245 -263c0 -160 -107 -280 -259 -280c-74 0 -149 29 -185 77v-267h-49zM314 486c-102 0 -172 -72 -195 -137v-209c42 -77 114 -103 186 -103c117 0 205 96 205 230c0 129 -75 219 -196 219z" />
    <glyph glyph-name="afii10083" unicode="&#x441;" horiz-adv-x="525" 
d="M480 123l33 -31c-36 -66 -127 -102 -201 -102c-164 0 -276 106 -276 271c0 153 107 272 272 272c76 0 159 -35 195 -92l-39 -29c-39 51 -88 74 -158 74c-124 0 -217 -95 -217 -225c0 -138 92 -224 226 -224c68 0 130 35 165 86z" />
    <glyph glyph-name="afii10084" unicode="&#x442;" horiz-adv-x="473" 
d="M0 473v47h473v-47h-213v-473h-49v473h-211z" />
    <glyph glyph-name="afii10085" unicode="&#x443;" horiz-adv-x="531" 
d="M87 -201l21 47c8 -4 15 -6 24 -6c49 0 77 27 125 135l13 29l-270 516h59l236 -449l180 449h56l-212 -522c-72 -177 -119 -208 -187 -208c-15 0 -31 3 -45 9z" />
    <glyph glyph-name="afii10086" unicode="&#x444;" horiz-adv-x="692" 
d="M321 -200v190h-6c-177 0 -279 114 -279 269c0 142 101 270 278 270h7v201h49v-201h8c170 0 278 -116 278 -270c0 -155 -102 -269 -280 -269h-6v-190h-49zM89 259c0 -129 77 -222 226 -222h6v445h-7c-144 0 -225 -98 -225 -223zM376 482h-6v-445h6c148 0 227 93 227 222
c0 118 -83 223 -227 223z" />
    <glyph glyph-name="afii10087" unicode="&#x445;" horiz-adv-x="511" 
d="M489 520l-198 -250l210 -270h-62l-185 238l-187 -238h-57l209 268l-197 252h61l174 -221l173 221h59z" />
    <glyph glyph-name="afii10088" unicode="&#x446;" horiz-adv-x="605" 
d="M70 0v520h49v-473h349v473h49v-473h78v-181h-47v134h-478z" />
    <glyph glyph-name="afii10089" unicode="&#x447;" horiz-adv-x="539" 
d="M469 520v-520h-49v242c-39 -43 -113 -73 -182 -73c-129 0 -198 70 -198 207v144h49v-141c0 -111 56 -163 154 -163c81 0 150 48 177 88v216h49z" />
    <glyph glyph-name="afii10090" unicode="&#x448;" horiz-adv-x="749" 
d="M70 0v520h49v-473h231v473h49v-473h231v473h49v-520h-609z" />
    <glyph glyph-name="afii10091" unicode="&#x449;" horiz-adv-x="767" 
d="M70 0v520h49v-473h231v473h49v-473h231v473h49v-473h78v-181h-46v134h-641z" />
    <glyph glyph-name="afii10092" unicode="&#x44a;" horiz-adv-x="590" 
d="M0 473v47h194v-176h161c159 0 205 -78 205 -171c0 -91 -51 -173 -212 -173h-203v473h-145zM345 297h-151v-250h150c120 0 163 48 163 125s-45 125 -162 125z" />
    <glyph glyph-name="afii10093" unicode="&#x44b;" horiz-adv-x="683" 
d="M70 0v520h49v-176h139c159 0 205 -78 205 -171c0 -91 -52 -173 -214 -173h-179zM248 297h-129v-250h128c121 0 163 48 163 125s-44 125 -162 125zM564 0v520h49v-520h-49z" />
    <glyph glyph-name="afii10094" unicode="&#x44c;" horiz-adv-x="516" 
d="M70 0v520h49v-176h162c159 0 205 -78 205 -171c0 -91 -52 -173 -213 -173h-203zM270 297h-151v-250h150c121 0 164 48 164 125s-46 125 -163 125z" />
    <glyph glyph-name="afii10095" unicode="&#x44d;" horiz-adv-x="538" 
d="M170 243v47h278c-12 128 -94 196 -210 196c-79 0 -145 -30 -186 -92l-40 27c44 64 124 112 219 112c168 0 271 -105 271 -272c0 -154 -98 -271 -264 -271c-100 0 -175 33 -224 100l38 30c35 -48 90 -83 184 -83c126 0 209 90 213 206h-279z" />
    <glyph glyph-name="afii10096" unicode="&#x44e;" horiz-adv-x="818" 
d="M70 0v520h49v-226h133c15 140 121 239 266 239c156 0 264 -114 264 -272c0 -157 -109 -271 -264 -271c-150 0 -257 104 -267 251h-132v-241h-49zM304 261c0 -131 95 -220 215 -220c121 0 210 89 210 220c0 130 -87 221 -210 221c-120 0 -215 -91 -215 -221z" />
    <glyph glyph-name="afii10097" unicode="&#x44f;" horiz-adv-x="536" 
d="M263 520h203v-520h-49v200h-161l-182 -200h-64l186 206c-85 9 -150 71 -150 153c0 86 55 161 217 161zM99 359c0 -63 59 -112 153 -112h165v226h-164c-111 0 -154 -49 -154 -114z" />
    <glyph glyph-name="afii10071" unicode="&#x451;" horiz-adv-x="570" 
d="M481 129l35 -29c-45 -74 -122 -110 -205 -110c-164 0 -275 106 -275 271c0 153 91 272 262 272c135 0 236 -92 236 -235c0 -18 -1 -36 -3 -50h-442c0 -133 95 -211 225 -211c71 0 136 43 167 92zM292 486c-122 0 -196 -83 -206 -191h395c-1 118 -73 191 -189 191z
M137 695c0 20 16 34 33 34s35 -14 35 -34c0 -22 -18 -36 -35 -36s-33 14 -33 36zM381 695c0 20 17 34 36 34c15 0 34 -14 34 -34c0 -22 -19 -36 -34 -36c-19 0 -36 14 -36 36z" />
    <glyph glyph-name="afii10099" unicode="&#x452;" horiz-adv-x="649" 
d="M0 520v47h146v163h49v-163h236v-47h-236v-214c50 65 124 96 196 96c142 0 218 -71 218 -234c0 -169 -71 -291 -226 -370l-25 40c135 62 202 171 202 315c0 117 -45 202 -182 202c-75 0 -161 -65 -183 -123v-232h-49v520h-146z" />
    <glyph glyph-name="afii10100" unicode="&#x453;" horiz-adv-x="434" 
d="M383 754l-131 -164l-30 21l123 171zM70 0v520h364v-47h-315v-473h-49z" />
    <glyph glyph-name="afii10101" unicode="&#x454;" horiz-adv-x="542" 
d="M367 290v-47h-278c8 -134 103 -206 225 -206c67 0 124 29 158 78l39 -26c-46 -64 -117 -99 -207 -99c-158 0 -268 112 -268 271c0 167 112 272 276 272c71 0 152 -28 197 -91l-35 -31c-32 48 -94 75 -163 75c-120 0 -209 -68 -221 -196h277z" />
    <glyph glyph-name="afii10102" unicode="&#x455;" horiz-adv-x="497" 
d="M408 135c0 133 -358 69 -358 256c0 88 76 142 195 142c79 0 162 -36 198 -88l-36 -31c-25 39 -96 72 -161 72c-73 0 -143 -20 -143 -94c0 -138 358 -75 358 -256c0 -101 -93 -146 -202 -146c-95 0 -189 44 -227 121l40 29c32 -65 111 -103 188 -103c60 0 148 23 148 98z
" />
    <glyph glyph-name="afii10103" unicode="&#x456;" horiz-adv-x="213" 
d="M82 0v520h49v-520h-49zM70 692c0 20 18 35 37 35c18 0 36 -15 36 -35c0 -23 -18 -39 -36 -39c-19 0 -37 16 -37 39z" />
    <glyph glyph-name="afii10104" unicode="&#x457;" horiz-adv-x="270" 
d="M109 0v520h49v-520h-49zM30 693c0 22 14 36 32 36c13 0 30 -10 30 -36c0 -27 -17 -37 -30 -37c-18 0 -32 14 -32 37zM181 693c0 26 14 36 30 36c15 0 29 -9 29 -36c0 -25 -14 -37 -29 -37c-16 0 -30 14 -30 37z" />
    <glyph glyph-name="afii10105" unicode="&#x458;" horiz-adv-x="214" 
d="M133 520v-527c0 -127 -46 -202 -149 -202c-56 0 -105 27 -124 60l37 31c17 -19 34 -44 87 -44c66 0 100 59 100 158v524h49zM72 692c0 20 17 35 37 35c18 0 35 -15 35 -35c0 -23 -17 -39 -35 -39c-20 0 -37 16 -37 39z" />
    <glyph glyph-name="afii10106" unicode="&#x459;" horiz-adv-x="840" 
d="M597 295h-84v-247h81c121 0 163 47 163 124s-44 123 -160 123zM513 520v-176h93c159 0 204 -78 204 -171c0 -91 -51 -173 -211 -173h-135v473h-273v-123c0 -291 -103 -364 -182 -353l-5 48c48 -9 137 36 137 314v161h372z" />
    <glyph glyph-name="afii10107" unicode="&#x45a;" horiz-adv-x="853" 
d="M70 0v520h49v-214h358v214h49v-214h92c160 0 205 -59 205 -151c0 -91 -52 -155 -213 -155h-133v259h-358v-259h-49zM609 260h-83v-213h82c121 0 162 38 162 107c0 77 -44 106 -161 106z" />
    <glyph glyph-name="afii10108" unicode="&#x45b;" horiz-adv-x="649" 
d="M0 520v47h146v163h49v-163h236v-47h-236v-208c48 66 124 90 196 90c142 0 218 -71 218 -235v-167h-49v158c0 132 -51 197 -182 197c-75 0 -153 -47 -183 -123v-232h-49v520h-146z" />
    <glyph glyph-name="afii10109" unicode="&#x45c;" horiz-adv-x="519" 
d="M70 0v520h49v-261l304 261h74l-288 -243l306 -277h-77l-271 246l-48 -42v-204h-49zM371 764l-116 -144l-30 21l108 151z" />
    <glyph glyph-name="afii10110" unicode="&#x45e;" horiz-adv-x="531" 
d="M87 -201l21 47c8 -4 15 -6 24 -6c49 0 77 27 125 135l13 29l-270 516h59l236 -449l180 449h56l-212 -522c-72 -177 -119 -208 -187 -208c-15 0 -31 3 -45 9zM119 748h48c1 -58 42 -99 111 -99c66 0 107 41 108 99h47c-2 -80 -64 -142 -155 -142c-99 0 -158 61 -159 142z
" />
    <glyph glyph-name="afii10193" unicode="&#x45f;" horiz-adv-x="579" 
d="M70 0v520h49v-473h341v473h49v-520h-196v-155h-47v155h-196z" />
    <glyph glyph-name="afii10146" unicode="&#x462;" horiz-adv-x="718" 
d="M1 536l-1 50h148v114h53v-114h250v-50h-250v-112h212c185 0 275 -77 275 -204c0 -145 -105 -220 -285 -220h-255v536h-147zM410 374h-209v-324h206c143 0 226 55 226 170c0 101 -82 154 -223 154z" />
    <glyph glyph-name="afii10194" unicode="&#x463;" horiz-adv-x="572" 
d="M371 478h-195v-134h161c159 0 205 -78 205 -171c0 -91 -52 -173 -213 -173h-202v478h-127v42h127v210h49v-210h195v-42zM326 295h-150v-247h149c121 0 164 47 164 124s-46 123 -163 123z" />
    <glyph glyph-name="afii10147" unicode="&#x472;" horiz-adv-x="784" 
d="M40 350c0 203 154 359 352 359c196 0 352 -150 352 -359c0 -206 -156 -359 -352 -359s-352 150 -352 359zM392 40c162 0 286 123 296 288h-593c11 -165 141 -288 297 -288zM392 660c-156 0 -283 -119 -296 -282h592c-13 163 -142 282 -296 282z" />
    <glyph glyph-name="afii10195" unicode="&#x473;" horiz-adv-x="617" 
d="M36 261c0 158 110 272 272 272s273 -114 273 -272c0 -157 -111 -271 -273 -271s-272 114 -272 271zM308 37c123 0 212 84 219 207h-438c8 -122 96 -207 219 -207zM308 486c-119 0 -207 -81 -218 -200h437c-11 118 -100 200 -219 200z" />
    <glyph glyph-name="afii10148" unicode="&#x474;" horiz-adv-x="769" 
d="M636 552l-255 -552h-42l-339 700h56l307 -629l235 513c42 92 82 122 132 122c21 0 39 -6 59 -20l-25 -37c-8 9 -18 12 -34 12c-36 0 -60 -36 -94 -109z" />
    <glyph glyph-name="afii10196" unicode="&#x475;" horiz-adv-x="563" 
d="M446 381l-173 -381h-33l-246 520h58l207 -442l145 324c35 77 74 120 121 119c23 0 40 -6 58 -25l-27 -36c-10 11 -21 14 -33 14c-21 0 -49 -30 -77 -93z" />
    <glyph glyph-name="afii10050" unicode="&#x490;" horiz-adv-x="561" 
d="M80 0v700h431v132h50v-181h-428v-651h-53z" />
    <glyph glyph-name="afii10098" unicode="&#x491;" horiz-adv-x="434" 
d="M70 0v520h316v112h48v-159h-315v-473h-49z" />
    <glyph glyph-name="uni1E9E" unicode="&#x1e9e;" horiz-adv-x="655" 
d="M322 708c138 0 207 -61 240 -138l-169 -189c170 -9 212 -102 211 -192c-1 -128 -81 -198 -224 -198c-53 0 -95 9 -121 23l18 50c26 -13 61 -21 109 -21c98 0 163 48 163 147c0 78 -45 141 -197 141h-32v40l175 203c-22 44 -87 85 -169 85c-97 0 -193 -41 -193 -204v-455
h-53v472c0 185 129 236 242 236z" />
    <glyph glyph-name="uni2010" unicode="&#x2010;" horiz-adv-x="400" 
d="M86 248v47h228v-47h-228z" />
    <glyph glyph-name="uni2011" unicode="&#x2011;" horiz-adv-x="400" 
d="M86 248v47h228v-47h-228z" />
    <glyph glyph-name="figuredash" unicode="&#x2012;" horiz-adv-x="590" 
d="M94 332v44h401v-44h-401z" />
    <glyph glyph-name="endash" unicode="&#x2013;" horiz-adv-x="590" 
d="M94 248v44h401v-44h-401z" />
    <glyph glyph-name="emdash" unicode="&#x2014;" horiz-adv-x="795" 
d="M94 248v44h607v-44h-607z" />
    <glyph glyph-name="quoteleft" unicode="&#x2018;" horiz-adv-x="238" 
d="M147 553l-41 -26c-14 15 -26 41 -26 72c0 68 33 108 74 130l22 -23c-32 -20 -49 -56 -49 -96c0 -27 10 -46 20 -57z" />
    <glyph glyph-name="quoteright" unicode="&#x2019;" horiz-adv-x="238" 
d="M91 702l41 26c14 -15 26 -41 26 -72c0 -68 -33 -108 -74 -130l-22 23c32 20 49 56 49 96c0 27 -10 46 -20 57z" />
    <glyph glyph-name="quotesinglbase" unicode="&#x201a;" horiz-adv-x="238" 
d="M91 37l41 26c14 -15 26 -41 26 -72c0 -68 -33 -108 -74 -130l-22 23c32 20 49 56 49 96c0 27 -10 46 -20 57z" />
    <glyph glyph-name="quotedblleft" unicode="&#x201c;" horiz-adv-x="368" 
d="M147 553l-41 -26c-14 15 -26 41 -26 72c0 68 33 108 74 130l22 -23c-32 -20 -49 -56 -49 -96c0 -27 10 -46 20 -57zM277 553l-41 -26c-14 15 -26 41 -26 72c0 68 33 108 74 130l22 -23c-32 -20 -49 -56 -49 -96c0 -27 10 -46 20 -57z" />
    <glyph glyph-name="quotedblright" unicode="&#x201d;" horiz-adv-x="368" 
d="M221 702l41 26c14 -15 26 -41 26 -72c0 -68 -33 -108 -74 -130l-22 23c32 20 49 56 49 96c0 27 -10 46 -20 57zM91 702l41 26c14 -15 26 -41 26 -72c0 -68 -33 -108 -74 -130l-22 23c32 20 49 56 49 96c0 27 -10 46 -20 57z" />
    <glyph glyph-name="quotedblbase" unicode="&#x201e;" horiz-adv-x="368" 
d="M221 37l41 26c14 -15 26 -41 26 -72c0 -68 -33 -108 -74 -130l-22 23c32 20 49 56 49 96c0 27 -10 46 -20 57zM91 37l41 26c14 -15 26 -41 26 -72c0 -68 -33 -108 -74 -130l-22 23c32 20 49 56 49 96c0 27 -10 46 -20 57z" />
    <glyph glyph-name="dagger" unicode="&#x2020;" horiz-adv-x="430" 
d="M40 423v44h152v233h46v-233h152v-44h-152v-523h-46v523h-152z" />
    <glyph glyph-name="daggerdbl" unicode="&#x2021;" horiz-adv-x="430" 
d="M40 423v44h152v233h46v-233h152v-44h-152v-216h152v-44h-152v-263h-46v263h-152v44h152v216h-152z" />
    <glyph glyph-name="bullet" unicode="&#x2022;" horiz-adv-x="256" 
d="M34 362c0 31 26 56 57 56c30 0 56 -25 56 -56s-26 -57 -56 -57c-31 0 -57 26 -57 57z" />
    <glyph glyph-name="ellipsis" unicode="&#x2026;" horiz-adv-x="839" 
d="M683 36c0 17 15 35 38 35c20 0 35 -18 35 -35c0 -20 -15 -38 -35 -38c-23 0 -38 18 -38 38zM383 36c0 17 15 35 38 35c20 0 35 -18 35 -35c0 -20 -15 -38 -35 -38c-23 0 -38 18 -38 38zM83 36c0 17 15 35 38 35c20 0 35 -18 35 -35c0 -20 -15 -38 -35 -38
c-23 0 -38 18 -38 38z" />
    <glyph glyph-name="perthousand" unicode="&#x2030;" horiz-adv-x="1260" 
d="M51 541c0 96 74 162 171 162s171 -66 171 -162c0 -95 -74 -162 -171 -162s-171 67 -171 162zM98 541c0 -73 60 -121 124 -121c67 0 124 48 124 121s-58 121 -124 121s-124 -48 -124 -121zM150 12l521 697l30 -21l-521 -697zM454 158c0 96 74 162 171 162
s171 -66 171 -162c0 -95 -74 -162 -171 -162s-171 67 -171 162zM501 158c0 -73 60 -121 124 -121c67 0 124 48 124 121s-58 121 -124 121s-124 -48 -124 -121zM867 158c0 96 74 162 171 162s171 -66 171 -162c0 -95 -74 -162 -171 -162s-171 67 -171 162zM914 158
c0 -73 60 -121 124 -121c67 0 124 48 124 121s-58 121 -124 121s-124 -48 -124 -121z" />
    <glyph glyph-name="guilsinglleft" unicode="&#x2039;" horiz-adv-x="331" 
d="M231 38l-179 210v4l181 208l32 -28l-157 -182l156 -182z" />
    <glyph glyph-name="guilsinglright" unicode="&#x203a;" horiz-adv-x="331" 
d="M265 248l-179 -210l-33 30l156 182l-157 182l32 28l181 -208v-4z" />
    <glyph glyph-name="fraction" unicode="&#x2044;" horiz-adv-x="279" 
d="M-150 25l546 676l33 -26l-544 -678z" />
    <glyph glyph-name="uni2070" unicode="&#x2070;" horiz-adv-x="479" 
d="M50 510c0 124 71 215 189 215s190 -91 190 -215s-70 -215 -189 -215c-117 0 -190 91 -190 215zM96 510c0 -105 62 -173 144 -173c84 0 143 60 143 173s-62 173 -144 173c-83 0 -143 -61 -143 -173z" />
    <glyph glyph-name="uni2074" unicode="&#x2074;" horiz-adv-x="461" 
d="M302 300v100h-287v32l287 288h46v-278h93v-42h-93v-100h-46zM82 442h220v218z" />
    <glyph glyph-name="uni2075" unicode="&#x2075;" horiz-adv-x="412" 
d="M68 502l31 218h267v-42h-228l-22 -125c17 6 45 9 73 9c107 0 178 -55 178 -132c0 -83 -79 -135 -162 -135c-65 0 -131 22 -165 75l32 29c21 -36 69 -62 124 -62c78 0 125 37 125 91c0 59 -61 92 -143 92c-41 0 -85 -10 -110 -18z" />
    <glyph glyph-name="uni2076" unicode="&#x2076;" horiz-adv-x="456" 
d="M50 499c0 151 93 226 208 226c59 0 98 -15 124 -40l-20 -34c-26 20 -61 32 -108 32c-78 0 -158 -52 -158 -167c35 37 83 61 149 61c117 0 171 -59 171 -143s-84 -139 -173 -139c-117 0 -193 72 -193 204zM101 458c8 -62 54 -121 141 -121c65 0 128 32 128 97
c0 70 -53 101 -133 101c-73 0 -125 -41 -136 -77z" />
    <glyph glyph-name="uni2077" unicode="&#x2077;" horiz-adv-x="365" 
d="M20 678v42h325v-33l-229 -387h-49l224 378h-271z" />
    <glyph glyph-name="uni2078" unicode="&#x2078;" horiz-adv-x="455" 
d="M217 537h22c48 0 103 29 103 76c0 53 -48 70 -116 70s-113 -18 -113 -70c0 -47 54 -76 104 -76zM238 495h-19c-60 0 -123 -31 -123 -82c0 -47 53 -76 131 -76c80 0 132 24 132 76c0 56 -62 82 -121 82zM228 295c-98 0 -178 42 -178 114c0 55 46 98 95 108
c-56 20 -78 55 -78 99c0 66 67 109 160 109s161 -43 161 -109c0 -48 -34 -79 -78 -96c65 -12 95 -53 95 -109c0 -74 -81 -116 -177 -116z" />
    <glyph glyph-name="uni2079" unicode="&#x2079;" horiz-adv-x="456" 
d="M406 521c0 -151 -93 -226 -208 -226c-59 0 -98 15 -124 40l20 34c26 -20 61 -32 108 -32c78 0 158 52 158 167c-35 -37 -83 -61 -149 -61c-117 0 -171 59 -171 143s84 139 173 139c117 0 193 -72 193 -204zM355 562c-8 62 -54 121 -141 121c-65 0 -128 -32 -128 -97
c0 -70 53 -101 133 -101c73 0 125 41 136 77z" />
    <glyph glyph-name="uni207A" unicode="&#x207a;" horiz-adv-x="432" 
d="M60 495v42h133v132h43v-132h136v-42h-136v-133h-43v133h-133z" />
    <glyph glyph-name="uni207B" unicode="&#x207b;" horiz-adv-x="412" 
d="M60 496v42h292v-42h-292z" />
    <glyph glyph-name="uni207C" unicode="&#x207c;" horiz-adv-x="412" 
d="M60 435v43h292v-43h-292zM60 554v42h292v-42h-292z" />
    <glyph glyph-name="uni207D" unicode="&#x207d;" horiz-adv-x="237" 
d="M217 224l-26 -28c-106 79 -141 189 -141 277s35 194 142 277l24 -31c-95 -76 -120 -158 -120 -246c0 -99 49 -184 121 -249z" />
    <glyph glyph-name="uni207E" unicode="&#x207e;" horiz-adv-x="240" 
d="M48 196l-28 30c89 66 124 159 124 247s-25 173 -120 249l24 28c107 -83 142 -189 142 -277s-35 -198 -142 -277z" />
    <glyph glyph-name="uni2080" unicode="&#x2080;" horiz-adv-x="479" 
d="M50 110c0 124 71 215 189 215s190 -91 190 -215s-70 -215 -189 -215c-117 0 -190 91 -190 215zM96 110c0 -105 62 -173 144 -173c84 0 143 60 143 173s-62 173 -144 173c-83 0 -143 -61 -143 -173z" />
    <glyph glyph-name="uni2081" unicode="&#x2081;" horiz-adv-x="286" 
d="M10 253l163 71h33v-424h-44v376l-138 -59z" />
    <glyph glyph-name="uni2082" unicode="&#x2082;" horiz-adv-x="413" 
d="M81 206l-37 17c22 56 88 102 160 102c89 0 147 -42 147 -119c0 -91 -82 -163 -162 -215l-76 -49h260v-42h-333v39l110 75c82 57 155 116 155 188c0 56 -40 81 -100 81c-65 0 -102 -39 -124 -77z" />
    <glyph glyph-name="uni2083" unicode="&#x2083;" horiz-adv-x="422" 
d="M91 223l-36 22c30 49 90 80 168 80c86 0 141 -40 141 -105c0 -50 -28 -85 -72 -99c39 -8 85 -35 85 -105c0 -82 -79 -121 -163 -121c-66 0 -146 34 -174 89l37 27c23 -46 84 -74 137 -74c70 0 116 28 116 78c0 64 -55 79 -111 79h-64v42h50c66 0 113 30 113 80
c0 46 -36 67 -97 67s-98 -17 -130 -60z" />
    <glyph glyph-name="uni2084" unicode="&#x2084;" horiz-adv-x="461" 
d="M302 -100v100h-287v32l287 288h46v-278h93v-42h-93v-100h-46zM82 42h220v218z" />
    <glyph glyph-name="uni2085" unicode="&#x2085;" horiz-adv-x="412" 
d="M68 102l31 218h267v-42h-228l-22 -125c17 6 45 9 73 9c107 0 178 -55 178 -132c0 -83 -79 -135 -162 -135c-65 0 -131 22 -165 75l32 29c21 -36 69 -62 124 -62c78 0 125 37 125 91c0 59 -61 92 -143 92c-41 0 -85 -10 -110 -18z" />
    <glyph glyph-name="uni2086" unicode="&#x2086;" horiz-adv-x="456" 
d="M50 99c0 151 93 226 208 226c59 0 98 -15 124 -40l-20 -34c-26 20 -61 32 -108 32c-78 0 -158 -52 -158 -167c35 37 83 61 149 61c117 0 171 -59 171 -143s-84 -139 -173 -139c-117 0 -193 72 -193 204zM101 58c8 -62 54 -121 141 -121c65 0 128 32 128 97
c0 70 -53 101 -133 101c-73 0 -125 -41 -136 -77z" />
    <glyph glyph-name="uni2087" unicode="&#x2087;" horiz-adv-x="365" 
d="M20 278v42h325v-33l-229 -387h-49l224 378h-271z" />
    <glyph glyph-name="uni2088" unicode="&#x2088;" horiz-adv-x="455" 
d="M217 137h22c48 0 103 29 103 76c0 53 -48 70 -116 70s-113 -18 -113 -70c0 -47 54 -76 104 -76zM238 95h-19c-60 0 -123 -31 -123 -82c0 -47 53 -76 131 -76c80 0 132 24 132 76c0 56 -62 82 -121 82zM228 -105c-98 0 -178 42 -178 114c0 55 46 98 95 108
c-56 20 -78 55 -78 99c0 66 67 109 160 109s161 -43 161 -109c0 -48 -34 -79 -78 -96c65 -12 95 -53 95 -109c0 -74 -81 -116 -177 -116z" />
    <glyph glyph-name="uni2089" unicode="&#x2089;" horiz-adv-x="456" 
d="M406 121c0 -151 -93 -226 -208 -226c-59 0 -98 15 -124 40l20 34c26 -20 61 -32 108 -32c78 0 158 52 158 167c-35 -37 -83 -61 -149 -61c-117 0 -171 59 -171 143s84 139 173 139c117 0 193 -72 193 -204zM355 162c-8 62 -54 121 -141 121c-65 0 -128 -32 -128 -97
c0 -70 53 -101 133 -101c73 0 125 41 136 77z" />
    <glyph glyph-name="uni208A" unicode="&#x208a;" horiz-adv-x="432" 
d="M60 95v42h133v132h43v-132h136v-42h-136v-133h-43v133h-133z" />
    <glyph glyph-name="uni208B" unicode="&#x208b;" horiz-adv-x="412" 
d="M60 96v42h292v-42h-292z" />
    <glyph glyph-name="uni208C" unicode="&#x208c;" horiz-adv-x="412" 
d="M60 35v43h292v-43h-292zM60 154v42h292v-42h-292z" />
    <glyph glyph-name="uni208D" unicode="&#x208d;" horiz-adv-x="237" 
d="M217 -176l-26 -28c-106 79 -141 189 -141 277s35 194 142 277l24 -31c-95 -76 -120 -158 -120 -246c0 -99 49 -184 121 -249z" />
    <glyph glyph-name="uni208E" unicode="&#x208e;" horiz-adv-x="240" 
d="M48 -204l-28 30c89 66 124 159 124 247s-25 173 -120 249l24 28c107 -83 142 -189 142 -277s-35 -198 -142 -277z" />
    <glyph glyph-name="Euro" unicode="&#x20ac;" 
d="M19 415l17 47h76c39 144 157 247 323 247c45 0 94 -8 136 -29l-19 -45c-30 14 -70 25 -117 25c-130 0 -229 -78 -267 -198h339l-18 -47h-331c-4 -22 -6 -38 -6 -65c0 -18 1 -30 3 -48h305l-16 -47h-280c34 -132 141 -215 283 -215c46 0 81 8 105 21l9 -47
c-22 -15 -77 -23 -117 -23c-173 0 -302 101 -337 264h-87l16 47h64c-2 17 -3 29 -3 48c0 24 1 42 5 65h-83z" />
    <glyph glyph-name="uni20B4" unicode="&#x20b4;" 
d="M72 417v46h306c21 26 40 51 40 92c0 59 -53 105 -119 105c-61 0 -109 -19 -147 -58l-27 37c39 45 103 70 175 70c108 0 173 -62 173 -148c0 -39 -15 -74 -36 -98h80v-46h-107c-50 -50 -124 -83 -164 -114h271v-46h-308c-24 -26 -50 -57 -50 -99c0 -80 73 -118 148 -118
c59 0 120 26 158 80l28 -34c-40 -62 -112 -95 -194 -95c-98 0 -190 57 -190 160c0 43 18 78 41 106h-78v46h107c50 47 119 82 165 114h-272z" />
    <glyph glyph-name="uni20BD" unicode="&#x20bd;" 
d="M21 310v49h112v341c19 0 51 0 84 1c32 0 65 1 85 1c195 0 249 -89 249 -193c0 -108 -74 -199 -249 -199h-117v-109h182v-49h-182v-152h-52v152h-112v49h112v109h-112zM308 653l-123 -2v-292h115c130 0 196 53 196 147c0 92 -54 147 -188 147z" />
    <glyph glyph-name="afii61352" unicode="&#x2116;" horiz-adv-x="1165" 
d="M666 0h-42l-463 607v-607h-49v700h41l464 -610v610h49v-700zM749 496c0 96 73 162 170 162c98 0 171 -66 171 -162c0 -95 -73 -162 -171 -162c-97 0 -170 67 -170 162zM795 496c0 -73 60 -121 124 -121c67 0 125 48 125 121s-59 121 -125 121c-65 0 -124 -48 -124 -121z
M782 220v47h275v-47h-275z" />
    <glyph glyph-name="trademark" unicode="&#x2122;" horiz-adv-x="831" 
d="M382 385v315h43l145 -167l139 167h42v-315h-47v255l-135 -163h-2l-138 163v-255h-47zM13 655v45h313v-45h-133v-270h-47v270h-133z" />
    <glyph glyph-name="partialdiff" unicode="&#x2202;" horiz-adv-x="575" 
d="M35 225c0 189 136 295 270 295c91 0 149 -60 167 -122c0 170 -73 275 -273 266l7 44c202 2 314 -84 314 -346c0 -207 -96 -370 -260 -370c-124 0 -225 89 -225 233zM88 225c0 -124 87 -185 173 -185c120 0 197 121 206 256c-13 74 -60 177 -174 177
c-117 0 -205 -112 -205 -248z" />
    <glyph glyph-name="product" unicode="&#x220f;" horiz-adv-x="875" 
d="M705 -200v853h-535v-853h-50v900h635v-900h-50z" />
    <glyph glyph-name="summation" unicode="&#x2211;" horiz-adv-x="620" 
d="M355 250l-315 418v32h540v-47h-470l306 -403l-309 -403h473v-47h-540v32z" />
    <glyph glyph-name="minus" unicode="&#x2212;" 
d="M72 338v44h445v-44h-445z" />
    <glyph glyph-name="uni2215" unicode="&#x2215;" horiz-adv-x="279" 
d="M-150 25l546 676l33 -26l-544 -678z" />
    <glyph glyph-name="radical" unicode="&#x221a;" horiz-adv-x="585" 
d="M3 401v49h145l184 -367l137 617h265v-49h-221l-150 -657h-40l-208 407h-112z" />
    <glyph glyph-name="infinity" unicode="&#x221e;" horiz-adv-x="737" 
d="M543 196c-79 0 -131 53 -176 110c-31 -43 -64 -83 -111 -101c-93 -35 -202 31 -202 136c0 77 61 147 152 147c70 0 118 -53 162 -110c30 43 64 83 116 101c103 36 199 -27 199 -142c0 -67 -48 -141 -140 -141zM534 444c-64 0 -103 -47 -140 -100c42 -55 84 -104 145 -104
c65 0 97 53 97 98c0 57 -35 106 -102 106zM207 240c63 0 99 46 135 99c-41 55 -81 105 -134 105c-64 0 -107 -48 -107 -103c0 -66 59 -101 106 -101z" />
    <glyph glyph-name="integral" unicode="&#x222b;" horiz-adv-x="333" 
d="M110 552c0 145 91 186 165 186c53 0 99 -27 121 -61l-33 -28c-19 26 -49 42 -87 42c-64 0 -117 -33 -117 -150v-560c0 -145 -91 -186 -165 -186c-53 0 -99 27 -121 61l33 28c19 -26 49 -42 87 -42c64 0 117 33 117 150v560z" />
    <glyph glyph-name="approxequal" unicode="&#x2248;" 
d="M82 410l-24 32c42 42 86 63 127 63c81 0 145 -73 230 -73c31 0 64 16 94 46l21 -34c-38 -36 -78 -56 -116 -56c-80 0 -143 73 -228 73c-36 0 -72 -19 -104 -51zM82 237l-24 32c42 42 86 63 127 63c81 0 156 -73 230 -73c31 0 64 16 94 46l21 -34
c-38 -36 -78 -56 -116 -56c-80 0 -143 73 -228 73c-36 0 -72 -19 -104 -51z" />
    <glyph glyph-name="notequal" unicode="&#x2260;" 
d="M72 424v44h236l90 241l39 -14l-85 -227h165v-44h-181l-48 -128h229v-44h-245l-97 -261l-40 15l92 246h-155v44h171l48 128h-219z" />
    <glyph glyph-name="lessequal" unicode="&#x2264;" 
d="M65 266v47l417 -260v-49zM482 176l-417 262v20l417 260v-54l-348 -216l348 -218v-54z" />
    <glyph glyph-name="greaterequal" unicode="&#x2265;" 
d="M482 313v-47l-417 -262v49zM482 438l-417 -262v54l348 218l-348 216v54l417 -260v-20z" />
    <glyph glyph-name="lozenge" unicode="&#x25ca;" horiz-adv-x="458" 
d="M207 -8l-167 257l168 271h43l167 -260l-168 -268h-43zM91 250l138 -213l138 223l-138 216z" />
    <glyph glyph-name="uniF350" unicode="&#xf350;" horiz-adv-x="571" 
d="M3 0l261 562h43l261 -562h-53l-75 158h-313l-73 -158h-51zM283 496l-135 -292h273z" />
    <glyph glyph-name="uniF351" unicode="&#xf351;" horiz-adv-x="558" 
d="M480 560v-47h-363v-191h190c142 0 218 -55 218 -155c0 -115 -90 -167 -232 -167h-226v560h413zM304 275h-187v-228h182c112 0 174 37 174 119c0 71 -55 109 -169 109z" />
    <glyph glyph-name="uniF352" unicode="&#xf352;" horiz-adv-x="570" 
d="M67 0v560h227c165 0 212 -58 212 -137c0 -64 -34 -113 -97 -132c73 -9 119 -58 119 -134c0 -112 -91 -157 -236 -157h-225zM306 263h-189v-216h180c122 0 181 35 181 113c0 67 -55 103 -172 103zM296 513h-179v-203h191c88 0 148 38 148 103c0 66 -42 100 -160 100z" />
    <glyph glyph-name="uniF353" unicode="&#xf353;" horiz-adv-x="478" 
d="M67 0v560h411v-47h-361v-513h-50z" />
    <glyph glyph-name="uniF354" unicode="&#xf354;" horiz-adv-x="623" 
d="M0 -106v152h62c26 35 82 165 82 427v87h392v-514h79v-152h-48v106h-520v-106h-47zM192 514v-54c0 -146 -17 -332 -75 -414h369v468h-294z" />
    <glyph glyph-name="uniF355" unicode="&#xf355;" horiz-adv-x="541" 
d="M67 0v560h419v-47h-369v-205h345v-47h-345v-214h378v-47h-428z" />
    <glyph glyph-name="uniF356" unicode="&#xf356;" horiz-adv-x="773" 
d="M279 305l-267 255h61l288 -270v270h50v-270l284 270h66l-269 -255l278 -305h-61l-256 276l-42 -40v-236h-50v238l-47 38l-251 -276h-60z" />
    <glyph glyph-name="uniF357" unicode="&#xf357;" horiz-adv-x="545" 
d="M272 -7c-126 0 -220 51 -256 110l35 29c51 -58 119 -92 221 -92c103 0 180 46 180 121c0 60 -67 102 -165 102h-112v47h106c77 0 149 43 149 106c0 71 -80 104 -170 104c-96 0 -162 -47 -194 -90l-38 28c38 50 112 109 237 109c123 0 216 -53 216 -154
c0 -56 -45 -99 -101 -123c81 -14 123 -71 123 -129c0 -107 -103 -168 -231 -168z" />
    <glyph glyph-name="uniF358" unicode="&#xf358;" horiz-adv-x="625" 
d="M111 0h-44v560h50v-480l396 480h45v-560h-50v480z" />
    <glyph glyph-name="uniF359" unicode="&#xf359;" horiz-adv-x="625" 
d="M111 0h-44v560h50v-480l396 480h45v-560h-50v480zM151 748h48c1 -58 42 -99 111 -99c66 0 107 41 108 99h47c-2 -80 -64 -142 -155 -142c-99 0 -158 61 -159 142z" />
    <glyph glyph-name="uniF35A" unicode="&#xf35a;" horiz-adv-x="546" 
d="M67 0v560h50v-297l334 297h70l-290 -259l312 -301h-67l-284 271l-75 -64v-207h-50z" />
    <glyph glyph-name="uniF35B" unicode="&#xf35b;" horiz-adv-x="595" 
d="M478 0v514h-285v-65c0 -374 -93 -453 -163 -452c-12 0 -20 0 -30 3v45c61 -12 146 35 146 415v100h382v-560h-50z" />
    <glyph glyph-name="uniF35C" unicode="&#xf35c;" horiz-adv-x="705" 
d="M67 0v560h50l241 -301l232 301h48v-560h-50v478l-227 -291h-11l-233 289v-476h-50z" />
    <glyph glyph-name="uniF35D" unicode="&#xf35d;" horiz-adv-x="633" 
d="M516 0v262h-399v-262h-50v560h50v-251h399v251h50v-560h-50z" />
    <glyph glyph-name="uniF35E" unicode="&#xf35e;" horiz-adv-x="667" 
d="M34 280c0 162 131 287 300 287c166 0 299 -120 299 -287c0 -165 -133 -287 -299 -287c-167 0 -300 120 -300 287zM86 280c0 -137 112 -240 248 -240c140 0 247 103 247 240c0 139 -112 240 -247 240c-137 0 -248 -101 -248 -240z" />
    <glyph glyph-name="uniF35F" unicode="&#xf35f;" horiz-adv-x="628" 
d="M511 0v513h-394v-513h-50v560h494v-560h-50z" />
    <glyph glyph-name="uniF360" unicode="&#xf360;" horiz-adv-x="552" 
d="M117 0h-50v560h212c197 0 239 -86 239 -169c0 -88 -61 -171 -240 -171h-161v-220zM283 514h-166v-248h159c133 0 191 51 191 126c0 71 -49 122 -184 122z" />
    <glyph glyph-name="uniF361" unicode="&#xf361;" horiz-adv-x="583" 
d="M534 117l28 -32c-41 -53 -127 -92 -220 -92c-189 0 -308 113 -308 287c0 161 113 287 297 287c107 0 185 -43 222 -87l-30 -33c-50 45 -101 73 -194 73c-154 0 -243 -101 -243 -240c0 -144 102 -240 258 -240c91 0 150 36 190 77z" />
    <glyph glyph-name="uniF362" unicode="&#xf362;" horiz-adv-x="487" 
d="M3 513v47h481v-47h-216v-513h-50v513h-215z" />
    <glyph glyph-name="uniF363" unicode="&#xf363;" horiz-adv-x="567" 
d="M162 15l28 39c9 -5 14 -8 20 -8c30 0 55 28 74 65l11 21l-295 428h58l262 -376l196 376h50l-225 -434c-48 -92 -79 -126 -129 -126c-22 0 -37 6 -50 15z" />
    <glyph glyph-name="uniF364" unicode="&#xf364;" horiz-adv-x="751" 
d="M350 -12v70h-4c-197 0 -311 88 -311 230c0 151 124 230 315 230v54h50v-54c174 0 316 -74 316 -230c0 -141 -115 -230 -311 -230h-5v-70h-50zM402 472h-2v-368h5c164 0 259 66 259 184c0 114 -99 184 -262 184zM87 288c0 -115 94 -184 260 -184h3v368
c-148 0 -263 -56 -263 -184z" />
    <glyph glyph-name="uniF365" unicode="&#xf365;" horiz-adv-x="541" 
d="M517 560l-215 -275l223 -285h-60l-195 246l-194 -246h-60l223 285l-214 275h59l187 -236l187 236h59z" />
    <glyph glyph-name="uniF366" unicode="&#xf366;" horiz-adv-x="631" 
d="M67 0v560h50v-513h377v513h50v-513h78v-153h-47v106h-508z" />
    <glyph glyph-name="uniF367" unicode="&#xf367;" horiz-adv-x="572" 
d="M505 560v-560h-50v251c-36 -22 -126 -44 -196 -44c-124 0 -217 52 -217 181v172h50v-157c0 -103 60 -149 179 -149c62 0 148 26 184 47v259h50z" />
    <glyph glyph-name="uniF368" unicode="&#xf368;" horiz-adv-x="778" 
d="M67 0v560h50v-513h247v513h50v-513h247v513h50v-560h-644z" />
    <glyph glyph-name="uniF369" unicode="&#xf369;" horiz-adv-x="797" 
d="M67 0v560h50v-513h247v513h50v-513h247v513h50v-513h78v-153h-47v106h-675z" />
    <glyph glyph-name="uniF36A" unicode="&#xf36a;" horiz-adv-x="634" 
d="M0 514v46h199v-218h175c158 0 235 -61 235 -165c0 -117 -90 -177 -244 -177h-216v514h-149zM372 295h-173v-248h170c119 0 188 41 188 130c0 78 -68 118 -185 118z" />
    <glyph glyph-name="uniF36B" unicode="&#xf36b;" horiz-adv-x="712" 
d="M595 0v560h50v-560h-50zM266 295h-149v-248h147c119 0 187 41 187 130c0 78 -67 118 -185 118zM117 560v-218h152c158 0 234 -62 234 -165c0 -117 -90 -177 -243 -177h-193v560h50z" />
    <glyph glyph-name="uniF36C" unicode="&#xf36c;" horiz-adv-x="553" 
d="M291 295h-174v-248h171c119 0 188 42 188 130c0 78 -68 118 -185 118zM117 560v-218h176c158 0 235 -61 235 -165c0 -117 -90 -177 -243 -177h-218v560h50z" />
    <glyph glyph-name="uniF36D" unicode="&#xf36d;" horiz-adv-x="587" 
d="M167 262v47h334c-11 129 -103 212 -251 212c-72 0 -154 -37 -199 -92l-35 31c55 69 153 107 240 107c183 0 297 -110 297 -285c0 -166 -111 -289 -305 -289c-84 0 -178 31 -231 101l36 29c40 -50 123 -84 200 -84c145 0 239 94 248 223h-334z" />
    <glyph glyph-name="uniF36E" unicode="&#xf36e;" horiz-adv-x="838" 
d="M67 0v560h50v-251h119c15 145 126 258 283 258c167 0 285 -120 285 -287c0 -165 -119 -287 -285 -287c-164 0 -271 116 -284 269h-118v-262h-50zM288 280c0 -137 98 -240 232 -240c140 0 232 103 232 240c0 139 -97 240 -232 240s-232 -101 -232 -240z" />
    <glyph glyph-name="uniF36F" unicode="&#xf36f;" horiz-adv-x="572" 
d="M455 0v217h-189l-195 -217h-63l202 224c-101 15 -164 77 -164 159c0 100 71 177 228 177h231v-560h-50zM248 264h207v250h-189c-119 0 -168 -57 -168 -130c0 -61 54 -111 150 -120z" />
    <glyph glyph-name="uniF371" unicode="&#xf371;" horiz-adv-x="541" 
d="M67 0v560h419v-47h-369v-205h345v-47h-345v-214h378v-47h-428zM117 695c0 20 16 34 33 34s35 -14 35 -34c0 -22 -18 -36 -35 -36s-33 14 -33 36zM361 695c0 20 17 34 36 34c15 0 34 -14 34 -34c0 -22 -19 -36 -34 -36c-19 0 -36 14 -36 36z" />
    <glyph glyph-name="uniF372" unicode="&#xf372;" horiz-adv-x="620" 
d="M536 163c0 78 -36 131 -130 132c-50 1 -109 -27 -138 -69v-226h-50v514h-215v46h480v-46h-215v-229c26 29 81 56 150 56c96 0 168 -51 168 -176c0 -124 -60 -172 -143 -172c-37 0 -69 15 -86 40l34 30c12 -14 26 -24 49 -24c57 0 96 37 96 124z" />
    <glyph glyph-name="uniF373" unicode="&#xf373;" horiz-adv-x="478" 
d="M67 0v560h411v-47h-361v-513h-50zM388 764l-116 -144l-30 21l108 151z" />
    <glyph glyph-name="uniF374" unicode="&#xf374;" horiz-adv-x="580" 
d="M405 309v-47h-321c10 -145 122 -223 266 -223c65 0 138 29 175 84l34 -25c-40 -72 -136 -105 -212 -105c-188 0 -313 113 -313 287c0 166 120 287 306 287c74 0 167 -27 212 -92l-37 -29c-35 50 -114 75 -178 75c-139 0 -238 -88 -252 -212h320z" />
    <glyph glyph-name="uniF375" unicode="&#xf375;" horiz-adv-x="522" 
d="M430 146c0 159 -385 64 -385 272c0 81 83 149 214 149c89 0 167 -25 209 -75l-31 -32c-37 33 -95 60 -177 60c-62 0 -163 -25 -163 -99c0 -161 384 -68 384 -271c0 -93 -90 -157 -210 -157c-105 0 -197 48 -238 104l36 35c33 -43 105 -92 207 -92c77 0 154 39 154 106z
" />
    <glyph glyph-name="uniF376" unicode="&#xf376;" horiz-adv-x="202" 
d="M76 0v560h50v-560h-50z" />
    <glyph glyph-name="uniF377" unicode="&#xf377;" horiz-adv-x="202" 
d="M9 643c0 16 13 27 30 27c15 0 29 -11 29 -27c0 -18 -14 -30 -29 -30c-17 0 -30 12 -30 30zM133 643c0 16 13 27 30 27c16 0 29 -11 29 -27c0 -18 -13 -30 -29 -30c-17 0 -30 12 -30 30zM76 0v560h50v-560h-50z" />
    <glyph glyph-name="uniF378" unicode="&#xf378;" horiz-adv-x="413" 
d="M346 560v-395c0 -112 -71 -172 -176 -172c-91 0 -148 55 -170 99l38 28c24 -42 72 -82 130 -81c78 1 128 35 128 134v387h50z" />
    <glyph glyph-name="uniF379" unicode="&#xf379;" horiz-adv-x="883" 
d="M637 297h-126v-250h118c111 0 177 42 177 130c0 77 -58 120 -169 120zM511 560v-216h128c150 0 219 -64 219 -167c0 -117 -88 -177 -229 -177h-168v513h-268v-64c0 -374 -93 -453 -163 -452c-12 0 -20 0 -30 3v45c61 -12 146 35 146 415v100h365z" />
    <glyph glyph-name="uniF37A" unicode="&#xf37a;" horiz-adv-x="889" 
d="M519 328h127c149 0 218 -56 218 -159c0 -117 -87 -169 -228 -169h-167v281h-352v-281h-50v560h50v-232h352v232h50v-232zM644 281h-125v-234h117c111 0 176 34 176 122c0 77 -58 112 -168 112z" />
    <glyph glyph-name="uniF37B" unicode="&#xf37b;" horiz-adv-x="620" 
d="M3 513v47h480v-47h-215v-226c33 27 81 54 149 54c97 0 169 -52 169 -180v-161h-50v151c0 89 -35 143 -131 143c-49 0 -107 -27 -137 -67v-227h-50v513h-215z" />
    <glyph glyph-name="uniF37C" unicode="&#xf37c;" horiz-adv-x="546" 
d="M67 0v560h50v-297l334 297h70l-290 -259l312 -301h-67l-284 271l-75 -64v-207h-50zM393 764l-116 -144l-30 21l108 151z" />
    <glyph glyph-name="uniF37E" unicode="&#xf37e;" horiz-adv-x="567" 
d="M162 15l28 39c9 -5 14 -8 20 -8c30 0 55 28 74 65l11 21l-295 428h58l262 -376l196 376h50l-225 -434c-48 -92 -79 -126 -129 -126c-22 0 -37 6 -50 15zM141 748h48c1 -58 42 -99 111 -99c66 0 107 41 108 99h47c-2 -80 -64 -142 -155 -142c-99 0 -158 61 -159 142z" />
    <glyph glyph-name="uniF37F" unicode="&#xf37f;" horiz-adv-x="605" 
d="M67 0v560h50v-514h371v514h50v-560h-213v-124h-47v124h-211z" />
    <glyph glyph-name="uniF381" unicode="&#xf381;" horiz-adv-x="610" 
d="M1 425l-1 47h124v88h50v-88h211v-47h-211v-86h177c157 0 234 -60 234 -163c0 -117 -89 -176 -243 -176h-218v425h-123zM348 292h-174v-245h172c119 0 187 41 187 129c0 77 -68 116 -185 116z" />
    <glyph glyph-name="uniF389" unicode="&#xf389;" horiz-adv-x="667" 
d="M34 280c0 162 131 287 300 287c166 0 299 -120 299 -287c0 -165 -133 -287 -299 -287c-167 0 -300 120 -300 287zM334 40c133 0 236 92 246 219h-493c10 -127 118 -219 247 -219zM334 520c-129 0 -234 -89 -247 -214h492c-13 125 -119 214 -245 214z" />
    <glyph glyph-name="uniF38A" unicode="&#xf38a;" horiz-adv-x="655" 
d="M542 437l-215 -437h-39l-288 560h53l257 -492l195 397c36 74 71 100 115 100c18 0 34 -5 52 -17l-23 -36c-7 7 -16 9 -29 9c-30 0 -50 -27 -78 -84z" />
    <glyph glyph-name="uniF393" unicode="&#xf393;" horiz-adv-x="478" 
d="M67 0v560h364v104h47v-150h-361v-514h-50z" />
    <glyph glyph-name="uniF3CF" unicode="&#xf3cf;" horiz-adv-x="989" 
d="M566 0h-40l-387 472v-472h-46v560h39l386 -474v474h48v-560zM634 395c0 78 62 132 146 132s146 -54 146 -132c0 -77 -62 -131 -146 -131s-146 54 -146 131zM677 395c0 -55 50 -92 103 -92c55 0 102 37 102 92c0 56 -48 93 -102 93s-103 -37 -103 -93zM661 169v43h238v-43
h-238z" />
    <glyph glyph-name="uniF3D0" unicode="&#xf3d0;" horiz-adv-x="465" 
d="M151 748h48c1 -58 42 -99 111 -99c66 0 107 41 108 99h47c-2 -80 -64 -142 -155 -142c-99 0 -158 61 -159 142z" />
    <glyph glyph-name="uniF3E4" unicode="&#xf3e4;" horiz-adv-x="0" 
d="M-204 764l-116 -144l-30 21l108 151z" />
    <glyph glyph-name="uniF400" unicode="&#xf400;" horiz-adv-x="0" 
d="M-187 764l-116 -144l-30 21l108 151z" />
    <glyph glyph-name="uniF401" unicode="&#xf401;" horiz-adv-x="0" 
d="M-223 855l-178 -87l-15 30l173 100z" />
    <glyph glyph-name="uniF406" unicode="&#xf406;" horiz-adv-x="536" 
d="M200 869l27 23c20 -25 67 -64 143 -64c66 0 113 30 140 64l26 -19c-31 -49 -95 -90 -166 -90c-94 0 -144 49 -170 86z" />
    <glyph glyph-name="uniF407" unicode="&#xf407;" horiz-adv-x="508" 
d="M309 -176l15 38c27 -13 53 -19 74 -19c52 0 60 15 60 37c0 28 -21 36 -60 36h-26v84h40v-44c69 -1 96 -35 96 -76s-32 -80 -110 -80c-27 0 -63 7 -89 24z" />
    <glyph glyph-name="uniF408" unicode="&#xf408;" horiz-adv-x="453" 
d="M289 897l182 -100l-24 -35l-160 87l-158 -87l-18 35l174 100h4z" />
    <glyph glyph-name="uniF409" unicode="&#xf409;" horiz-adv-x="428" 
d="M356 -81l40 28c14 -15 32 -40 32 -71c0 -56 -40 -101 -68 -118l-22 23c22 20 43 50 43 84c0 27 -9 39 -25 54z" />
    <glyph glyph-name="uniF40A" unicode="&#xf40a;" horiz-adv-x="162" 
d="M91 702l41 26c14 -15 30 -48 30 -79c0 -60 -42 -101 -78 -123l-22 23c32 20 53 55 53 89c0 27 -14 53 -24 64z" />
    <glyph glyph-name="uniF40B" unicode="&#xf40b;" horiz-adv-x="403" 
d="M330 826c0 20 18 35 37 35c18 0 36 -15 36 -35c0 -23 -18 -39 -36 -39c-19 0 -37 16 -37 39z" />
    <glyph glyph-name="uniF40C" unicode="&#xf40c;" horiz-adv-x="474" 
d="M270 817c0 57 51 90 102 90s103 -31 103 -90c0 -54 -42 -93 -103 -93c-62 0 -102 36 -102 93zM310 817c0 -28 21 -53 62 -53c44 0 63 23 63 53c0 28 -24 50 -63 50c-41 0 -62 -24 -62 -50z" />
    <glyph glyph-name="uniF40D" unicode="&#xf40d;" horiz-adv-x="560" 
d="M226 806l-17 27c29 27 73 42 96 42c60 0 111 -50 165 -50c23 0 47 8 72 35l18 -27c-28 -35 -75 -50 -100 -50c-57 0 -111 50 -168 50c-21 0 -43 -8 -66 -27z" />
    <glyph glyph-name="uniF40E" unicode="&#xf40e;" horiz-adv-x="449" 
d="M449 -153l3 -37c-17 -7 -37 -10 -64 -10c-48 -2 -108 23 -108 90c0 72 66 127 169 131v-21c-54 1 -129 -44 -129 -102c0 -47 37 -60 71 -60c21 0 41 3 58 9z" />
    <glyph glyph-name="uniF410" unicode="&#xf410;" horiz-adv-x="0" 
d="M-308 768l-178 87l20 43l173 -100z" />
    <glyph glyph-name="uniF416" unicode="&#xf416;" horiz-adv-x="378" 
d="M306 -81l40 28c14 -15 32 -40 32 -71c0 -56 -40 -101 -68 -118l-22 23c22 20 43 50 43 84c0 27 -9 39 -25 54z" />
    <glyph glyph-name="uniF418" unicode="&#xf418;" horiz-adv-x="162" 
d="M91 542l41 26c14 -15 30 -48 30 -79c0 -60 -42 -101 -78 -123l-22 23c32 20 53 55 53 89c0 27 -14 53 -24 64z" />
    <glyph glyph-name="uniF447" unicode="&#xf447;" horiz-adv-x="487" 
d="M161 -176l15 38c27 -13 53 -19 74 -19c52 0 60 15 60 37c0 28 -21 36 -60 36h-26v84h-6v513h-215v47h481v-47h-216v-513h-4v-44c69 -1 96 -35 96 -76s-32 -80 -110 -80c-27 0 -63 7 -89 24z" />
    <glyph glyph-name="uniF44E" unicode="&#xf44e;" horiz-adv-x="638" 
d="M25 258c0 14 1 31 4 51h524c-11 129 -103 212 -251 212c-72 0 -154 -37 -199 -92l-35 31c55 69 153 107 239 107c184 0 297 -110 297 -285c0 -166 -110 -289 -295 -289c-200 0 -284 154 -284 265zM553 262h-480v-1c0 -118 88 -222 241 -222c136 0 239 92 239 223z" />
    <glyph glyph-name="uniF452" unicode="&#xf452;" horiz-adv-x="702" 
d="M67 0v560h415v-47h-365v-223h340v-47h-340v-243h-50zM576 0v560h50v-560h-50z" />
    <glyph glyph-name="uniF453" unicode="&#xf453;" horiz-adv-x="994" 
d="M67 0v560h415v-47h-365v-223h340v-47h-340v-243h-50zM567 0v560h50v-513h368v-47h-418z" />
    <glyph glyph-name="zero.tab" unicode="&#xf4e0;" 
d="M43 350c0 207 82 358 250 358c169 0 251 -151 251 -358s-80 -358 -249 -358c-168 0 -252 151 -252 358zM95 350c0 -188 81 -312 200 -312c126 0 197 124 197 312c0 189 -71 312 -199 312c-132 0 -198 -125 -198 -312z" />
    <glyph glyph-name="one.tab" unicode="&#xf4e1;" 
d="M77 0v49h218v596l-211 -99l-19 43l245 117h34v-657h181v-49h-448z" />
    <glyph glyph-name="two.tab" unicode="&#xf4e2;" 
d="M93 506l-43 21c26 84 111 181 246 181c140 0 229 -78 229 -200c0 -159 -149 -283 -292 -383l-113 -79h426v-46h-506v41l167 122c117 94 266 210 266 340c0 94 -71 156 -178 156c-102 0 -178 -78 -202 -153z" />
    <glyph glyph-name="three.tab" unicode="&#xf4e3;" 
d="M89 557l-41 20c44 82 125 132 236 132c140 0 232 -68 232 -176c0 -100 -63 -143 -126 -167c74 -16 144 -56 144 -173c0 -137 -108 -202 -253 -202c-114 0 -218 57 -258 149l45 20c49 -80 122 -119 220 -119c107 0 194 53 194 150c0 108 -89 143 -184 143h-111v49h91
c95 0 186 61 186 144c0 89 -83 132 -174 132c-95 0 -156 -31 -201 -102z" />
    <glyph glyph-name="four.tab" unicode="&#xf4e4;" 
d="M405 0v156h-385v33l385 511h50v-495h123v-49h-123v-156h-50zM91 205h314v419z" />
    <glyph glyph-name="five.tab" unicode="&#xf4e5;" 
d="M67 339l44 361h422v-49h-380l-32 -250c24 12 91 28 159 28c159 0 254 -84 254 -213c0 -137 -113 -225 -251 -225c-112 0 -199 39 -253 125l43 27c30 -59 112 -103 205 -103c123 0 204 74 204 174c0 112 -87 170 -203 170c-91 0 -176 -30 -212 -45z" />
    <glyph glyph-name="six.tab" unicode="&#xf4e6;" 
d="M33 331c0 252 143 378 307 378c85 0 140 -26 178 -67l-29 -35c-38 33 -73 53 -155 53c-117 0 -254 -94 -250 -333c45 90 143 134 237 134c150 0 237 -87 237 -228c0 -139 -94 -242 -239 -242c-183 0 -286 120 -286 340zM92 264c0 -107 75 -224 226 -224
c119 0 188 84 188 193c0 126 -79 181 -196 181c-116 0 -203 -90 -218 -150z" />
    <glyph glyph-name="seven.tab" unicode="&#xf4e7;" 
d="M45 651v49h503v-34l-347 -666h-55l340 651h-441z" />
    <glyph glyph-name="eight.tab" unicode="&#xf4e8;" 
d="M278 385h32c88 0 161 58 161 137c0 88 -73 138 -179 138c-95 0 -176 -51 -176 -138c0 -79 75 -137 162 -137zM308 335h-26c-109 0 -190 -56 -190 -146c0 -87 79 -149 201 -149c119 0 202 61 202 149c0 93 -89 146 -187 146zM294 -9c-152 0 -254 71 -254 190
c0 105 66 165 145 180c-74 22 -121 78 -121 166c0 110 91 182 229 182c143 0 230 -72 230 -182c0 -88 -54 -142 -124 -165c91 -16 148 -78 148 -177c0 -123 -110 -194 -253 -194z" />
    <glyph glyph-name="nine.tab" unicode="&#xf4e9;" 
d="M546 369c0 -265 -126 -378 -277 -378c-85 0 -153 31 -200 84l32 34c56 -47 88 -69 174 -69c104 0 225 84 220 333c-37 -90 -133 -134 -227 -134c-141 0 -235 90 -235 228c0 149 110 242 250 242c168 0 263 -120 263 -340zM487 436c0 107 -68 224 -202 224
c-120 0 -200 -74 -200 -192c0 -127 100 -182 182 -182c116 0 196 75 220 150z" />
    <glyph glyph-name="dollar.tab" unicode="&#xf4ec;" 
d="M504 181c0 208 -456 83 -456 344c0 95 88 176 230 183v82h49v-82c91 -5 171 -35 216 -90l-33 -34c-43 41 -112 75 -210 75c-74 0 -197 -32 -197 -131c0 -210 456 -87 456 -343c0 -111 -99 -188 -232 -194v-91h-49v93c-109 9 -201 63 -244 127l39 36
c38 -51 123 -115 245 -115c92 0 186 52 186 140z" />
    <glyph glyph-name="Euro.tab" unicode="&#xf4ed;" 
d="M19 415l17 47h76c39 144 157 247 323 247c45 0 94 -8 136 -29l-19 -45c-30 14 -70 25 -117 25c-130 0 -229 -78 -267 -198h339l-18 -47h-331c-4 -22 -6 -38 -6 -65c0 -18 1 -30 3 -48h305l-16 -47h-280c34 -132 141 -215 283 -215c46 0 81 8 105 21l9 -47
c-22 -15 -77 -23 -117 -23c-173 0 -302 101 -337 264h-87l16 47h64c-2 17 -3 29 -3 48c0 24 1 42 5 65h-83z" />
    <glyph glyph-name="cent.tab" unicode="&#xf4ee;" 
d="M500 123l33 -31c-35 -65 -123 -100 -196 -102v-190h-49v193c-140 17 -232 118 -232 268c0 140 90 252 232 269v170h49v-167c73 -3 151 -38 186 -92l-39 -29c-37 48 -83 71 -147 74v-449c67 0 128 35 163 86zM109 261c0 -121 71 -202 179 -220v441
c-105 -17 -179 -105 -179 -221z" />
    <glyph glyph-name="sterling.tab" unicode="&#xf4ef;" 
d="M81 284v41h79c-21 56 -56 99 -56 189c0 100 78 194 207 194c79 0 147 -28 187 -73l-28 -38c-42 42 -97 62 -159 62c-80 0 -152 -61 -152 -147c0 -70 36 -122 57 -187h173v-41h-164c2 -12 3 -24 3 -38c0 -67 -21 -122 -42 -149c78 0 146 -52 227 -52c47 0 72 14 111 51
l23 -41c-42 -41 -90 -59 -136 -59c-77 0 -146 52 -228 52c-39 0 -78 -18 -116 -55l-22 39c25 26 51 43 78 53c30 39 53 88 53 154c0 16 -2 31 -5 45h-90z" />
    <glyph glyph-name="yen.tab" unicode="&#xf4fa;" 
d="M71 305v44h165l-218 351h63l214 -345l217 345h58l-221 -351h167v-44h-197v-128h197v-44h-197v-133h-53v133h-195v44h195v128h-195z" />
    <glyph glyph-name="florin.tab" unicode="&#xf4fb;" 
d="M355 514l-12 -64h167v-46h-175l-69 -388c-18 -102 -37 -224 -168 -224c-39 0 -73 13 -91 28l15 39c16 -11 40 -21 66 -21c73 0 105 48 120 134l77 432h-158v46h166l13 73c17 97 53 186 170 186c54 0 93 -18 116 -37l-18 -39c-23 18 -50 30 -90 30
c-74 0 -109 -44 -129 -149z" />
    <glyph glyph-name="uni20B4.tab" unicode="&#xf4fc;" 
d="M72 417v46h306c21 26 40 51 40 92c0 59 -53 105 -119 105c-61 0 -109 -19 -147 -58l-27 37c39 45 103 70 175 70c108 0 173 -62 173 -148c0 -39 -15 -74 -36 -98h80v-46h-107c-50 -50 -124 -83 -164 -114h271v-46h-308c-24 -26 -50 -57 -50 -99c0 -80 73 -118 148 -118
c59 0 120 26 158 80l28 -34c-40 -62 -112 -95 -194 -95c-98 0 -190 57 -190 160c0 43 18 78 41 106h-78v46h107c50 47 119 82 165 114h-272z" />
    <glyph glyph-name="uni20BD.tab" unicode="&#xf4fd;" 
d="M21 310v49h112v341c19 0 51 0 84 1c32 0 65 1 85 1c195 0 249 -89 249 -193c0 -108 -74 -199 -249 -199h-117v-109h182v-49h-182v-152h-52v152h-112v49h112v109h-112zM308 653l-123 -2v-292h115c130 0 196 53 196 147c0 92 -54 147 -188 147z" />
    <glyph glyph-name="uniF66D" unicode="&#xf66d;" horiz-adv-x="571" 
d="M3 0l261 562h43l261 -562h-53l-75 158h-313l-73 -158h-51zM283 496l-135 -292h273zM141 738l21 22c20 -25 76 -60 125 -60c56 0 98 25 125 59l18 -21c-31 -47 -82 -88 -143 -88c-73 0 -130 64 -146 88z" />
    <glyph glyph-name="uniF66E" unicode="&#xf66e;" horiz-adv-x="571" 
d="M3 0l261 562h43l261 -562h-53l-75 158h-313l-73 -158h-51zM283 496l-135 -292h273zM158 655v46h254v-46h-254z" />
    <glyph glyph-name="uniF66F" unicode="&#xf66f;" horiz-adv-x="571" 
d="M556 -148l13 -39c-17 -7 -32 -13 -62 -13c-45 0 -100 29 -100 99c0 57 51 99 101 115l-68 144h-313l-73 -158h-51l261 562h43l261 -562h-15c-34 -2 -96 -40 -96 -97c0 -34 22 -60 51 -60c11 0 31 1 48 9zM283 496l-135 -292h273z" />
    <glyph glyph-name="uniF671" unicode="&#xf671;" horiz-adv-x="583" 
d="M534 117l28 -32c-41 -53 -127 -92 -220 -92c-189 0 -308 113 -308 287c0 161 113 287 297 287c107 0 185 -43 222 -87l-30 -33c-50 45 -101 73 -194 73c-154 0 -243 -101 -243 -240c0 -144 102 -240 258 -240c91 0 150 36 190 77zM428 764l-116 -144l-30 21l108 151z" />
    <glyph glyph-name="uniF672" unicode="&#xf672;" horiz-adv-x="583" 
d="M534 117l28 -32c-41 -53 -127 -92 -220 -92c-189 0 -308 113 -308 287c0 161 113 287 297 287c107 0 185 -43 222 -87l-30 -33c-50 45 -101 73 -194 73c-154 0 -243 -101 -243 -240c0 -144 102 -240 258 -240c91 0 150 36 190 77zM315 631l-139 121l29 32l111 -100
l117 97l22 -30l-136 -120h-4z" />
    <glyph glyph-name="uniF673" unicode="&#xf673;" horiz-adv-x="583" 
d="M534 117l28 -32c-41 -53 -127 -92 -220 -92c-189 0 -308 113 -308 287c0 161 113 287 297 287c107 0 185 -43 222 -87l-30 -33c-50 45 -101 73 -194 73c-154 0 -243 -101 -243 -240c0 -144 102 -240 258 -240c91 0 150 36 190 77zM319 778l139 -121l-29 -32l-111 100
l-117 -97l-22 30l136 120h4z" />
    <glyph glyph-name="uniF674" unicode="&#xf674;" horiz-adv-x="583" 
d="M534 117l28 -32c-41 -53 -127 -92 -220 -92c-189 0 -308 113 -308 287c0 161 113 287 297 287c107 0 185 -43 222 -87l-30 -33c-50 45 -101 73 -194 73c-154 0 -243 -101 -243 -240c0 -144 102 -240 258 -240c91 0 150 36 190 77zM280 696c0 20 18 35 37 35
c18 0 36 -15 36 -35c0 -23 -18 -39 -36 -39c-19 0 -37 16 -37 39z" />
    <glyph glyph-name="uniF675" unicode="&#xf675;" horiz-adv-x="603" 
d="M67 0v560h181c235 0 321 -126 321 -272c0 -160 -103 -288 -328 -288h-174zM246 513h-129v-466h126c192 0 274 104 274 241c0 127 -74 225 -271 225zM265 631l-139 121l29 32l111 -100l117 97l22 -30l-136 -120h-4z" />
    <glyph glyph-name="uniF676" unicode="&#xf676;" horiz-adv-x="649" 
d="M6 256v43h107v261h181c235 0 321 -126 321 -272c0 -160 -103 -288 -328 -288h-174v256h-107zM292 513h-129v-214h175v-43h-175v-209h126c192 0 274 104 274 241c0 127 -74 225 -271 225z" />
    <glyph glyph-name="uniF678" unicode="&#xf678;" horiz-adv-x="541" 
d="M67 0v560h419v-47h-369v-205h345v-47h-345v-214h378v-47h-428zM275 631l-139 121l29 32l111 -100l117 97l22 -30l-136 -120h-4z" />
    <glyph glyph-name="uniF679" unicode="&#xf679;" horiz-adv-x="541" 
d="M67 0v560h419v-47h-369v-205h345v-47h-345v-214h378v-47h-428zM240 696c0 20 18 35 37 35c18 0 36 -15 36 -35c0 -23 -18 -39 -36 -39c-19 0 -37 16 -37 39z" />
    <glyph glyph-name="uniF67A" unicode="&#xf67a;" horiz-adv-x="541" 
d="M67 0v560h419v-47h-369v-205h345v-47h-345v-214h378v-47h-428zM157 655v46h254v-46h-254z" />
    <glyph glyph-name="uniF67C" unicode="&#xf67c;" horiz-adv-x="541" 
d="M67 0v560h419v-47h-369v-205h345v-47h-345v-214h378v-47h-9c-34 -2 -96 -40 -96 -97c0 -34 22 -60 51 -60c11 0 31 1 48 9l13 -39c-17 -7 -32 -13 -62 -13c-45 0 -100 29 -100 99c0 45 31 80 69 101h-342z" />
    <glyph glyph-name="uniF67D" unicode="&#xf67d;" horiz-adv-x="600" 
d="M348 228v46h218v-201c-50 -51 -144 -80 -224 -80c-178 0 -308 113 -308 287c0 161 133 287 301 287c99 0 168 -28 217 -79l-28 -34c-36 37 -97 66 -184 66c-149 0 -254 -100 -254 -240c0 -146 108 -240 257 -240c60 0 127 17 176 56v132h-171zM156 738l21 22
c20 -25 76 -60 125 -60c56 0 98 25 125 59l18 -21c-31 -47 -82 -88 -143 -88c-73 0 -130 64 -146 88z" />
    <glyph glyph-name="uniF67E" unicode="&#xf67e;" horiz-adv-x="600" 
d="M348 228v46h218v-201c-50 -51 -144 -80 -224 -80c-178 0 -308 113 -308 287c0 161 133 287 301 287c99 0 168 -28 217 -79l-28 -34c-36 37 -97 66 -184 66c-149 0 -254 -100 -254 -240c0 -146 108 -240 257 -240c60 0 127 17 176 56v132h-171zM319 778l139 -121l-29 -32
l-111 100l-117 -97l-22 30l136 120h4z" />
    <glyph glyph-name="uniF67F" unicode="&#xf67f;" horiz-adv-x="600" 
d="M348 228v46h218v-201c-50 -51 -144 -80 -224 -80c-178 0 -308 113 -308 287c0 161 133 287 301 287c99 0 168 -28 217 -79l-28 -34c-36 37 -97 66 -184 66c-149 0 -254 -100 -254 -240c0 -146 108 -240 257 -240c60 0 127 17 176 56v132h-171zM316 -81l40 28
c14 -15 32 -40 32 -71c0 -56 -40 -101 -68 -118l-22 23c22 20 43 50 43 84c0 27 -9 39 -25 54z" />
    <glyph glyph-name="uniF680" unicode="&#xf680;" horiz-adv-x="600" 
d="M348 228v46h218v-201c-50 -51 -144 -80 -224 -80c-178 0 -308 113 -308 287c0 161 133 287 301 287c99 0 168 -28 217 -79l-28 -34c-36 37 -97 66 -184 66c-149 0 -254 -100 -254 -240c0 -146 108 -240 257 -240c60 0 127 17 176 56v132h-171zM290 696c0 20 18 35 37 35
c18 0 36 -15 36 -35c0 -23 -18 -39 -36 -39c-19 0 -37 16 -37 39z" />
    <glyph glyph-name="uniF681" unicode="&#xf681;" horiz-adv-x="634" 
d="M0 417v42h67v101h50v-101h399v101h50v-101h68v-42h-68v-417h-50v262h-399v-262h-50v417h-67zM117 309h399v108h-399v-108z" />
    <glyph glyph-name="uniF682" unicode="&#xf682;" horiz-adv-x="633" 
d="M516 0v262h-399v-262h-50v560h50v-251h399v251h50v-560h-50zM317 778l139 -121l-29 -32l-111 100l-117 -97l-22 30l136 120h4z" />
    <glyph glyph-name="uniF685" unicode="&#xf685;" horiz-adv-x="202" 
d="M76 0v560h50v-560h-50zM-26 655v46h254v-46h-254z" />
    <glyph glyph-name="uniF686" unicode="&#xf686;" horiz-adv-x="202" 
d="M121 -148l13 -39c-17 -7 -32 -13 -62 -13c-45 0 -100 29 -100 99c0 58 53 100 104 116v545h50v-560h-5c-34 0 -99 -39 -99 -97c0 -34 22 -60 51 -60c11 0 31 1 48 9z" />
    <glyph glyph-name="uniF688" unicode="&#xf688;" horiz-adv-x="413" 
d="M346 560v-395c0 -112 -71 -172 -176 -172c-91 0 -148 55 -170 99l38 28c24 -42 72 -82 130 -81c78 1 128 35 128 134v387h50zM309 778l139 -121l-29 -32l-111 100l-117 -97l-22 30l136 120h4z" />
    <glyph glyph-name="uniF689" unicode="&#xf689;" horiz-adv-x="546" 
d="M67 0v560h50v-297l334 297h70l-290 -259l312 -301h-67l-284 271l-75 -64v-207h-50zM236 -81l40 28c14 -15 32 -40 32 -71c0 -56 -40 -101 -68 -118l-22 23c22 20 43 50 43 84c0 27 -9 39 -25 54z" />
    <glyph glyph-name="uniF68A" unicode="&#xf68a;" horiz-adv-x="494" 
d="M67 0v560h50v-513h368v-47h-418zM268 764l-116 -144l-30 21l108 151z" />
    <glyph glyph-name="uniF68B" unicode="&#xf68b;" horiz-adv-x="494" 
d="M67 0v560h50v-513h368v-47h-418zM333 560h49c6 -15 10 -30 10 -61c0 -60 -42 -111 -78 -133l-22 23c32 20 56 71 56 105c0 27 -7 55 -15 66z" />
    <glyph glyph-name="uniF68C" unicode="&#xf68c;" horiz-adv-x="494" 
d="M67 0v560h50v-513h368v-47h-418zM246 -81l40 28c14 -15 32 -40 32 -71c0 -56 -40 -101 -68 -118l-22 23c22 20 43 50 43 84c0 27 -9 39 -25 54z" />
    <glyph glyph-name="uniF68D" unicode="&#xf68d;" horiz-adv-x="494" 
d="M67 0v560h50v-513h368v-47h-418zM308 312c0 20 17 41 44 41c24 0 41 -21 41 -41c0 -23 -17 -44 -41 -44c-27 0 -44 21 -44 44z" />
    <glyph glyph-name="uniF68E" unicode="&#xf68e;" horiz-adv-x="624" 
d="M557 0h-40l-403 469v-469h-47v560h40l402 -471v471h48v-560zM428 764l-116 -144l-30 21l108 151z" />
    <glyph glyph-name="uniF68F" unicode="&#xf68f;" horiz-adv-x="624" 
d="M557 0h-40l-403 469v-469h-47v560h40l402 -471v471h48v-560zM312 631l-139 121l29 32l111 -100l117 97l22 -30l-136 -120h-4z" />
    <glyph glyph-name="uniF690" unicode="&#xf690;" horiz-adv-x="624" 
d="M557 0h-40l-403 469v-469h-47v560h40l402 -471v471h48v-560zM286 -81l40 28c14 -15 32 -40 32 -71c0 -56 -40 -101 -68 -118l-22 23c22 20 43 50 43 84c0 27 -9 39 -25 54z" />
    <glyph glyph-name="uniF692" unicode="&#xf692;" horiz-adv-x="667" 
d="M34 280c0 162 131 287 300 287c166 0 299 -120 299 -287c0 -165 -133 -287 -299 -287c-167 0 -300 120 -300 287zM86 280c0 -137 112 -240 248 -240c140 0 247 103 247 240c0 139 -112 240 -247 240c-137 0 -248 -101 -248 -240zM523 784l-131 -164l-30 21l123 171z
M383 784l-131 -164l-30 21l123 171z" />
    <glyph glyph-name="uniF693" unicode="&#xf693;" horiz-adv-x="667" 
d="M34 280c0 162 131 287 300 287c166 0 299 -120 299 -287c0 -165 -133 -287 -299 -287c-167 0 -300 120 -300 287zM86 280c0 -137 112 -240 248 -240c140 0 247 103 247 240c0 139 -112 240 -247 240c-137 0 -248 -101 -248 -240zM206 655v46h254v-46h-254z" />
    <glyph glyph-name="uniF695" unicode="&#xf695;" horiz-adv-x="572" 
d="M117 0h-50v560h221c177 0 225 -76 225 -161c0 -84 -67 -144 -160 -157l203 -242h-62l-193 232h-184v-232zM286 513h-169v-234h174c102 0 170 47 170 120c0 66 -44 114 -175 114zM368 764l-116 -144l-30 21l108 151z" />
    <glyph glyph-name="uniF696" unicode="&#xf696;" horiz-adv-x="572" 
d="M117 0h-50v560h221c177 0 225 -76 225 -161c0 -84 -67 -144 -160 -157l203 -242h-62l-193 232h-184v-232zM286 513h-169v-234h174c102 0 170 47 170 120c0 66 -44 114 -175 114zM255 631l-139 121l29 32l111 -100l117 97l22 -30l-136 -120h-4z" />
    <glyph glyph-name="uniF697" unicode="&#xf697;" horiz-adv-x="572" 
d="M117 0h-50v560h221c177 0 225 -76 225 -161c0 -84 -67 -144 -160 -157l203 -242h-62l-193 232h-184v-232zM286 513h-169v-234h174c102 0 170 47 170 120c0 66 -44 114 -175 114zM246 -81l40 28c14 -15 32 -40 32 -71c0 -56 -40 -101 -68 -118l-22 23c22 20 43 50 43 84
c0 27 -9 39 -25 54z" />
    <glyph glyph-name="uniF698" unicode="&#xf698;" horiz-adv-x="522" 
d="M430 146c0 159 -385 64 -385 272c0 81 83 149 214 149c89 0 167 -25 209 -75l-31 -32c-37 33 -95 60 -177 60c-62 0 -163 -25 -163 -99c0 -161 384 -68 384 -271c0 -93 -90 -157 -210 -157c-105 0 -197 48 -238 104l36 35c33 -43 105 -92 207 -92c77 0 154 39 154 106z
M368 764l-116 -144l-30 21l108 151z" />
    <glyph glyph-name="uniF699" unicode="&#xf699;" horiz-adv-x="522" 
d="M179 -176l15 38c27 -13 53 -19 74 -19c52 0 60 15 60 37c0 28 -21 36 -60 36h-26v79c-93 7 -172 51 -209 102l36 35c33 -43 105 -92 207 -92c77 0 154 39 154 106c0 159 -385 64 -385 272c0 81 83 149 214 149c89 0 167 -25 209 -75l-31 -32c-37 33 -95 60 -177 60
c-62 0 -163 -25 -163 -99c0 -161 384 -68 384 -271c0 -90 -85 -153 -199 -157v-37c69 -1 96 -35 96 -76s-32 -80 -110 -80c-27 0 -63 7 -89 24z" />
    <glyph glyph-name="uniF69A" unicode="&#xf69a;" horiz-adv-x="522" 
d="M430 146c0 159 -385 64 -385 272c0 81 83 149 214 149c89 0 167 -25 209 -75l-31 -32c-37 33 -95 60 -177 60c-62 0 -163 -25 -163 -99c0 -161 384 -68 384 -271c0 -93 -90 -157 -210 -157c-105 0 -197 48 -238 104l36 35c33 -43 105 -92 207 -92c77 0 154 39 154 106z
M259 778l139 -121l-29 -32l-111 100l-117 -97l-22 30l136 120h4z" />
    <glyph glyph-name="uniF69B" unicode="&#xf69b;" horiz-adv-x="522" 
d="M430 146c0 159 -385 64 -385 272c0 81 83 149 214 149c89 0 167 -25 209 -75l-31 -32c-37 33 -95 60 -177 60c-62 0 -163 -25 -163 -99c0 -161 384 -68 384 -271c0 -93 -90 -157 -210 -157c-105 0 -197 48 -238 104l36 35c33 -43 105 -92 207 -92c77 0 154 39 154 106z
M226 -81l40 28c14 -15 32 -40 32 -71c0 -56 -40 -101 -68 -118l-22 23c22 20 43 50 43 84c0 27 -9 39 -25 54z" />
    <glyph glyph-name="uniF69D" unicode="&#xf69d;" horiz-adv-x="487" 
d="M3 513v47h481v-47h-216v-513h-50v513h-215zM243 631l-139 121l29 32l111 -100l117 97l22 -30l-136 -120h-4z" />
    <glyph glyph-name="uniF69E" unicode="&#xf69e;" horiz-adv-x="487" 
d="M3 513v47h481v-47h-216v-513h-50v513h-215zM216 -81l40 28c14 -15 32 -40 32 -71c0 -56 -40 -101 -68 -118l-22 23c22 20 43 50 43 84c0 27 -9 39 -25 54z" />
    <glyph glyph-name="uniF69F" unicode="&#xf69f;" horiz-adv-x="610" 
d="M551 560v-325c0 -172 -120 -241 -238 -241c-136 0 -254 82 -254 246v320h50v-312c0 -141 98 -207 204 -207c124 0 188 77 188 203v316h50zM161 738l21 22c20 -25 76 -60 125 -60c56 0 98 25 125 59l18 -21c-31 -47 -82 -88 -143 -88c-73 0 -130 64 -146 88z" />
    <glyph glyph-name="uniF6A0" unicode="&#xf6a0;" horiz-adv-x="610" 
d="M551 560v-325c0 -172 -120 -241 -238 -241c-136 0 -254 82 -254 246v320h50v-312c0 -141 98 -207 204 -207c124 0 188 77 188 203v316h50zM493 784l-131 -164l-30 21l123 171zM353 784l-131 -164l-30 21l123 171z" />
    <glyph glyph-name="uniF6A1" unicode="&#xf6a1;" horiz-adv-x="610" 
d="M551 560v-325c0 -172 -120 -241 -238 -241c-136 0 -254 82 -254 246v320h50v-312c0 -141 98 -207 204 -207c124 0 188 77 188 203v316h50zM178 655v46h254v-46h-254z" />
    <glyph glyph-name="uniF6A2" unicode="&#xf6a2;" horiz-adv-x="610" 
d="M551 560v-325c0 -119 -57 -188 -131 -220c-48 -29 -90 -62 -90 -112c0 -34 22 -60 51 -60c11 0 31 1 48 9l13 -39c-17 -7 -32 -13 -62 -13c-45 0 -100 29 -100 99c0 42 28 72 66 97c-11 -1 -22 -2 -33 -2c-136 0 -254 82 -254 246v320h50v-312c0 -141 98 -207 204 -207
c124 0 188 77 188 203v316h50z" />
    <glyph glyph-name="uniF6A3" unicode="&#xf6a3;" horiz-adv-x="610" 
d="M551 560v-325c0 -172 -120 -241 -238 -241c-136 0 -254 82 -254 246v320h50v-312c0 -141 98 -207 204 -207c124 0 188 77 188 203v316h50zM213 701c0 51 41 93 92 93s93 -42 93 -93s-42 -92 -93 -92s-92 41 -92 92zM253 701c0 -29 22 -52 52 -52c29 0 53 17 53 52
c0 34 -22 53 -53 53c-30 0 -52 -22 -52 -53z" />
    <glyph glyph-name="uniF6AB" unicode="&#xf6ab;" horiz-adv-x="535" 
d="M29 513v47h480v-35l-426 -478h435v-47h-505v35l424 478h-408zM368 764l-116 -144l-30 21l108 151z" />
    <glyph glyph-name="uniF6AC" unicode="&#xf6ac;" horiz-adv-x="535" 
d="M29 513v47h480v-35l-426 -478h435v-47h-505v35l424 478h-408zM231 696c0 20 18 35 37 35c18 0 36 -15 36 -35c0 -23 -18 -39 -36 -39c-19 0 -37 16 -37 39z" />
    <glyph glyph-name="uniF6AD" unicode="&#xf6ad;" horiz-adv-x="202" 
d="M76 0v560h50v-560h-50zM65 696c0 20 18 35 37 35c18 0 36 -15 36 -35c0 -23 -18 -39 -36 -39c-19 0 -37 16 -37 39z" />
    <glyph glyph-name="uniF6BA" unicode="&#xf6ba;" horiz-adv-x="400" 
d="M86 330v47h228v-47h-228z" />
    <glyph glyph-name="uniF6BB" unicode="&#xf6bb;" horiz-adv-x="590" 
d="M94 332v44h401v-44h-401z" />
    <glyph glyph-name="uniF6BC" unicode="&#xf6bc;" horiz-adv-x="795" 
d="M94 332v44h607v-44h-607z" />
    <glyph glyph-name="uniF6C3" unicode="&#xf6c3;" horiz-adv-x="337" 
d="M266 -81l40 28c14 -15 32 -40 32 -71c0 -56 -40 -101 -68 -118l-22 23c22 20 43 50 43 84c0 27 -9 39 -25 54z" />
    <glyph glyph-name="uniF6C9" unicode="&#xf6c9;" horiz-adv-x="521" 
d="M520 855l-178 -87l-15 30l173 100z" />
    <glyph glyph-name="uniF6CA" unicode="&#xf6ca;" horiz-adv-x="453" 
d="M285 763l-182 100l24 34l160 -87l158 87l18 -34l-174 -100h-4z" />
    <glyph glyph-name="uniF6CB" unicode="&#xf6cb;" horiz-adv-x="477" 
d="M179 822c0 19 16 32 38 32c16 0 34 -13 34 -32c0 -21 -18 -32 -34 -32c-22 0 -38 11 -38 32zM408 822c0 19 16 32 37 32c18 0 34 -12 34 -32c0 -21 -16 -32 -34 -32c-21 0 -37 11 -37 32z" />
    <glyph glyph-name="uniF6CE" unicode="&#xf6ce;" horiz-adv-x="420" 
d="M405 768l-178 87l20 43l173 -100z" />
    <glyph glyph-name="uniF6CF" unicode="&#xf6cf;" horiz-adv-x="600" 
d="M599 852l-154 -90l-18 31l152 99zM429 852l-154 -90l-17 31l151 99z" />
    <glyph glyph-name="uniF6D0" unicode="&#xf6d0;" horiz-adv-x="514" 
d="M220 800v46h294v-46h-294z" />
    <glyph glyph-name="uniF6D1" unicode="&#xf6d1;" horiz-adv-x="537" 
d="M195 881l43 20c22 -55 71 -85 131 -85c69 0 115 39 129 83l40 -18c-16 -59 -89 -109 -169 -109c-87 0 -149 44 -174 109z" />
    <glyph glyph-name="uniF6D4" unicode="&#xf6d4;" horiz-adv-x="465" 
d="M151 748h48c1 -58 42 -99 111 -99c66 0 107 41 108 99h47c-2 -80 -64 -142 -155 -142c-99 0 -158 61 -159 142z" />
    <glyph glyph-name="uniF6F4" unicode="&#xf6f4;" horiz-adv-x="483" 
d="M194 738l21 22c20 -25 76 -60 125 -60c56 0 98 25 125 59l18 -21c-31 -47 -82 -88 -143 -88c-73 0 -130 64 -146 88z" />
    <glyph glyph-name="uniF6F5" unicode="&#xf6f5;" horiz-adv-x="465" 
d="M325 631l-139 121l29 32l111 -100l117 97l22 -30l-136 -120h-4z" />
    <glyph glyph-name="uniF6F6" unicode="&#xf6f6;" horiz-adv-x="448" 
d="M309 778l139 -121l-29 -32l-111 100l-117 -97l-22 30l136 120h4z" />
    <glyph glyph-name="uniF6F7" unicode="&#xf6f7;" horiz-adv-x="363" 
d="M290 696c0 20 18 35 37 35c18 0 36 -15 36 -35c0 -23 -18 -39 -36 -39c-19 0 -37 16 -37 39z" />
    <glyph glyph-name="uniF6F8" unicode="&#xf6f8;" horiz-adv-x="523" 
d="M523 784l-131 -164l-30 21l123 171zM383 784l-131 -164l-30 21l123 171z" />
    <glyph glyph-name="uniF6F9" unicode="&#xf6f9;" horiz-adv-x="499" 
d="M0 128v53l72 50v329h50v-294l181 127v-53l-181 -127v-166h368v-47h-418v178z" />
    <glyph glyph-name="uniF6FA" unicode="&#xf6fa;" horiz-adv-x="1025" 
d="M551 0v87c-53 -58 -133 -94 -217 -94c-167 0 -300 120 -300 287c0 162 131 287 300 287c87 0 165 -31 217 -94v87h420v-47h-370v-205h345v-47h-345v-214h378v-47h-428zM334 40c95 0 176 47 217 120v237c-42 75 -124 123 -217 123c-137 0 -248 -101 -248 -240
c0 -137 112 -240 248 -240z" />
    <glyph glyph-name="uniF6FB" unicode="&#xf6fb;" horiz-adv-x="389" 
d="M389 -148l13 -39c-17 -7 -32 -13 -62 -13c-45 0 -100 29 -100 99c0 76 91 124 149 124v-23c-34 0 -99 -39 -99 -97c0 -34 22 -60 51 -60c11 0 31 1 48 9z" />
    <glyph glyph-name="uniF6FC" unicode="&#xf6fc;" horiz-adv-x="424" 
d="M238 701c0 51 41 93 92 93s93 -42 93 -93s-42 -92 -93 -92s-92 41 -92 92zM278 701c0 -29 22 -52 52 -52c29 0 53 17 53 52c0 34 -22 53 -53 53c-30 0 -52 -22 -52 -53z" />
    <glyph glyph-name="uniF6FD" unicode="&#xf6fd;" horiz-adv-x="522" 
d="M430 146c0 159 -385 64 -385 272c0 81 83 149 214 149c89 0 167 -25 209 -75l-31 -32c-37 33 -95 60 -177 60c-62 0 -163 -25 -163 -99c0 -161 384 -68 384 -271c0 -93 -90 -157 -210 -157c-105 0 -197 48 -238 104l36 35c33 -43 105 -92 207 -92c77 0 154 39 154 106z
M261 631l-139 121l29 32l111 -100l117 97l22 -30l-136 -120h-4z" />
    <glyph glyph-name="uniF6FE" unicode="&#xf6fe;" horiz-adv-x="477" 
d="M190 639l-25 25c34 31 70 55 102 55c47 0 80 -52 122 -52c20 0 46 12 68 36l21 -24c-33 -43 -67 -54 -93 -54c-56 0 -83 52 -119 52c-26 0 -49 -15 -76 -38z" />
    <glyph glyph-name="uniF6FF" unicode="&#xf6ff;" horiz-adv-x="535" 
d="M29 513v47h480v-35l-426 -478h435v-47h-505v35l424 478h-408zM267 631l-139 121l29 32l111 -100l117 97l22 -30l-136 -120h-4z" />
    <glyph glyph-name="uniF760" unicode="&#xf760;" horiz-adv-x="374" 
d="M344 621l-116 142l38 29l108 -149z" />
    <glyph glyph-name="uniF761" unicode="&#xf761;" horiz-adv-x="571" 
d="M3 0l261 562h43l261 -562h-53l-75 158h-313l-73 -158h-51zM283 496l-135 -292h273z" />
    <glyph glyph-name="uniF762" unicode="&#xf762;" horiz-adv-x="570" 
d="M67 0v560h227c165 0 212 -58 212 -137c0 -64 -34 -113 -97 -132c73 -9 119 -58 119 -134c0 -112 -91 -157 -236 -157h-225zM306 263h-189v-216h180c122 0 181 35 181 113c0 67 -55 103 -172 103zM296 513h-179v-203h191c88 0 148 38 148 103c0 66 -42 100 -160 100z" />
    <glyph glyph-name="uniF763" unicode="&#xf763;" horiz-adv-x="583" 
d="M534 117l28 -32c-41 -53 -127 -92 -220 -92c-189 0 -308 113 -308 287c0 161 113 287 297 287c107 0 185 -43 222 -87l-30 -33c-50 45 -101 73 -194 73c-154 0 -243 -101 -243 -240c0 -144 102 -240 258 -240c91 0 150 36 190 77z" />
    <glyph glyph-name="uniF764" unicode="&#xf764;" horiz-adv-x="603" 
d="M67 0v560h181c235 0 321 -126 321 -272c0 -160 -103 -288 -328 -288h-174zM246 513h-129v-466h126c192 0 274 104 274 241c0 127 -74 225 -271 225z" />
    <glyph glyph-name="uniF765" unicode="&#xf765;" horiz-adv-x="541" 
d="M67 0v560h419v-47h-369v-205h345v-47h-345v-214h378v-47h-428z" />
    <glyph glyph-name="uniF766" unicode="&#xf766;" horiz-adv-x="515" 
d="M67 0v560h415v-47h-365v-223h340v-47h-340v-243h-50z" />
    <glyph glyph-name="uniF767" unicode="&#xf767;" horiz-adv-x="600" 
d="M348 228v46h218v-201c-50 -51 -144 -80 -224 -80c-178 0 -308 113 -308 287c0 161 133 287 301 287c99 0 168 -28 217 -79l-28 -34c-36 37 -97 66 -184 66c-149 0 -254 -100 -254 -240c0 -146 108 -240 257 -240c60 0 127 17 176 56v132h-171z" />
    <glyph glyph-name="uniF768" unicode="&#xf768;" horiz-adv-x="633" 
d="M516 0v262h-399v-262h-50v560h50v-251h399v251h50v-560h-50z" />
    <glyph glyph-name="uniF769" unicode="&#xf769;" horiz-adv-x="202" 
d="M76 0v560h50v-560h-50z" />
    <glyph glyph-name="uniF76A" unicode="&#xf76a;" horiz-adv-x="413" 
d="M346 560v-395c0 -112 -71 -172 -176 -172c-91 0 -148 55 -170 99l38 28c24 -42 72 -82 130 -81c78 1 128 35 128 134v387h50z" />
    <glyph glyph-name="uniF76B" unicode="&#xf76b;" horiz-adv-x="546" 
d="M67 0v560h50v-297l334 297h70l-290 -259l312 -301h-67l-284 271l-75 -64v-207h-50z" />
    <glyph glyph-name="uniF76C" unicode="&#xf76c;" horiz-adv-x="494" 
d="M67 0v560h50v-513h368v-47h-418z" />
    <glyph glyph-name="uniF76D" unicode="&#xf76d;" horiz-adv-x="705" 
d="M67 0v560h50l241 -301l232 301h48v-560h-50v478l-227 -291h-11l-233 289v-476h-50z" />
    <glyph glyph-name="uniF76E" unicode="&#xf76e;" horiz-adv-x="624" 
d="M557 0h-40l-403 469v-469h-47v560h40l402 -471v471h48v-560z" />
    <glyph glyph-name="uniF76F" unicode="&#xf76f;" horiz-adv-x="667" 
d="M34 280c0 162 131 287 300 287c166 0 299 -120 299 -287c0 -165 -133 -287 -299 -287c-167 0 -300 120 -300 287zM86 280c0 -137 112 -240 248 -240c140 0 247 103 247 240c0 139 -112 240 -247 240c-137 0 -248 -101 -248 -240z" />
    <glyph glyph-name="uniF770" unicode="&#xf770;" horiz-adv-x="552" 
d="M117 0h-50v560h212c197 0 239 -86 239 -169c0 -88 -61 -171 -240 -171h-161v-220zM283 514h-166v-248h159c133 0 191 51 191 126c0 71 -49 122 -184 122z" />
    <glyph glyph-name="uniF771" unicode="&#xf771;" horiz-adv-x="667" 
d="M34 280c0 162 131 287 300 287c166 0 299 -120 299 -287c0 -81 -36 -157 -101 -217l64 -71l-34 -29l-65 74c-47 -28 -103 -44 -163 -44c-168 0 -300 120 -300 287zM86 280c0 -137 111 -240 248 -240c46 0 90 12 132 35l-55 61l32 30l57 -65c50 43 81 107 81 179
c0 139 -111 240 -247 240c-137 0 -248 -101 -248 -240z" />
    <glyph glyph-name="uniF772" unicode="&#xf772;" horiz-adv-x="572" 
d="M117 0h-50v560h221c177 0 225 -76 225 -161c0 -84 -67 -144 -160 -157l203 -242h-62l-193 232h-184v-232zM286 513h-169v-234h174c102 0 170 47 170 120c0 66 -44 114 -175 114z" />
    <glyph glyph-name="uniF773" unicode="&#xf773;" horiz-adv-x="522" 
d="M430 146c0 159 -385 64 -385 272c0 81 83 149 214 149c89 0 167 -25 209 -75l-31 -32c-37 33 -95 60 -177 60c-62 0 -163 -25 -163 -99c0 -161 384 -68 384 -271c0 -93 -90 -157 -210 -157c-105 0 -197 48 -238 104l36 35c33 -43 105 -92 207 -92c77 0 154 39 154 106z
" />
    <glyph glyph-name="uniF774" unicode="&#xf774;" horiz-adv-x="487" 
d="M3 513v47h481v-47h-216v-513h-50v513h-215z" />
    <glyph glyph-name="uniF775" unicode="&#xf775;" horiz-adv-x="610" 
d="M551 560v-325c0 -172 -120 -241 -238 -241c-136 0 -254 82 -254 246v320h50v-312c0 -141 98 -207 204 -207c124 0 188 77 188 203v316h50z" />
    <glyph glyph-name="uniF776" unicode="&#xf776;" horiz-adv-x="601" 
d="M601 560l-274 -560h-39l-288 560h53l257 -492l240 492h51z" />
    <glyph glyph-name="uniF777" unicode="&#xf777;" horiz-adv-x="816" 
d="M813 560l-177 -560h-46l-179 478l-176 -478h-47l-185 560h53l159 -474l174 474h46l178 -474l151 474h49z" />
    <glyph glyph-name="uniF778" unicode="&#xf778;" horiz-adv-x="541" 
d="M517 560l-215 -275l223 -285h-60l-195 246l-194 -246h-60l223 285l-214 275h59l187 -236l187 236h59z" />
    <glyph glyph-name="uniF779" unicode="&#xf779;" horiz-adv-x="525" 
d="M525 560l-239 -315v-245h-50v245l-236 315h60l204 -269l206 269h55z" />
    <glyph glyph-name="uniF77A" unicode="&#xf77a;" horiz-adv-x="535" 
d="M29 513v47h480v-35l-426 -478h435v-47h-505v35l424 478h-408z" />
    <glyph glyph-name="uniF7A1" unicode="&#xf7a1;" horiz-adv-x="264" 
d="M107 0v407h49v-407h-49zM97 529c0 17 14 33 35 33c18 0 32 -16 32 -33c0 -15 -14 -31 -32 -31c-21 0 -35 16 -35 31z" />
    <glyph glyph-name="uniF7A8" unicode="&#xf7a8;" horiz-adv-x="461" 
d="M147 695c0 20 16 34 33 34s35 -14 35 -34c0 -22 -18 -36 -35 -36s-33 14 -33 36zM391 695c0 20 17 34 36 34c15 0 34 -14 34 -34c0 -22 -19 -36 -34 -36c-19 0 -36 14 -36 36z" />
    <glyph glyph-name="uniF7AF" unicode="&#xf7af;" horiz-adv-x="444" 
d="M190 655v46h254v-46h-254z" />
    <glyph glyph-name="uniF7B4" unicode="&#xf7b4;" horiz-adv-x="448" 
d="M448 764l-116 -144l-30 21l108 151z" />
    <glyph glyph-name="uniF7B8" unicode="&#xf7b8;" horiz-adv-x="448" 
d="M249 -176l15 38c27 -13 53 -19 74 -19c52 0 60 15 60 37c0 28 -21 36 -60 36h-26v84h40v-44c69 -1 96 -35 96 -76s-32 -80 -110 -80c-27 0 -63 7 -89 24z" />
    <glyph glyph-name="uniF7BF" unicode="&#xf7bf;" horiz-adv-x="392" 
d="M75 139c0 -56 50 -99 121 -99c54 0 105 19 128 66l39 -17c-26 -61 -100 -96 -170 -96c-107 0 -167 63 -167 137c0 81 50 117 96 149c53 37 76 61 76 97c0 17 -1 20 -3 33h43c4 -17 4 -32 3 -45c-6 -55 -46 -83 -87 -111c-40 -27 -79 -56 -79 -114zM251 529
c0 -15 -13 -31 -34 -31c-19 0 -32 16 -32 31c0 17 13 33 32 33c21 0 34 -16 34 -33z" />
    <glyph glyph-name="uniF7E0" unicode="&#xf7e0;" horiz-adv-x="571" 
d="M3 0l261 562h43l261 -562h-53l-75 158h-313l-73 -158h-51zM283 496l-135 -292h273zM284 621l-116 142l38 29l108 -149z" />
    <glyph glyph-name="uniF7E1" unicode="&#xf7e1;" horiz-adv-x="571" 
d="M3 0l261 562h43l261 -562h-53l-75 158h-313l-73 -158h-51zM283 496l-135 -292h273zM408 764l-116 -144l-30 21l108 151z" />
    <glyph glyph-name="uniF7E2" unicode="&#xf7e2;" horiz-adv-x="571" 
d="M3 0l261 562h43l261 -562h-53l-75 158h-313l-73 -158h-51zM283 496l-135 -292h273zM286 778l139 -121l-29 -32l-111 100l-117 -97l-22 30l136 120h4z" />
    <glyph glyph-name="uniF7E3" unicode="&#xf7e3;" horiz-adv-x="571" 
d="M3 0l261 562h43l261 -562h-53l-75 158h-313l-73 -158h-51zM283 496l-135 -292h273zM154 639l-25 25c34 31 70 55 102 55c47 0 80 -52 122 -52c20 0 46 12 68 36l21 -24c-33 -43 -67 -54 -93 -54c-56 0 -83 52 -119 52c-26 0 -49 -15 -76 -38z" />
    <glyph glyph-name="uniF7E4" unicode="&#xf7e4;" horiz-adv-x="571" 
d="M3 0l261 562h43l261 -562h-53l-75 158h-313l-73 -158h-51zM283 496l-135 -292h273zM128 695c0 20 16 34 33 34s35 -14 35 -34c0 -22 -18 -36 -35 -36s-33 14 -33 36zM372 695c0 20 17 34 36 34c15 0 34 -14 34 -34c0 -22 -19 -36 -34 -36c-19 0 -36 14 -36 36z" />
    <glyph glyph-name="uniF7E5" unicode="&#xf7e5;" horiz-adv-x="571" 
d="M3 0l261 562h43l261 -562h-53l-75 158h-313l-73 -158h-51zM283 496l-135 -292h273zM193 701c0 51 41 93 92 93s93 -42 93 -93s-42 -92 -93 -92s-92 41 -92 92zM233 701c0 -29 22 -52 52 -52c29 0 53 17 53 52c0 34 -22 53 -53 53c-30 0 -52 -22 -52 -53z" />
    <glyph glyph-name="uniF7E6" unicode="&#xf7e6;" horiz-adv-x="930" 
d="M456 0v158h-277l-125 -158h-54l432 560h444v-47h-370v-205h345v-47h-345v-214h378v-47h-428zM211 204h245v315z" />
    <glyph glyph-name="uniF7E7" unicode="&#xf7e7;" horiz-adv-x="583" 
d="M249 -176l15 38c27 -13 53 -19 74 -19c52 0 60 15 60 37c0 28 -21 36 -60 36h-26v78c-172 11 -278 121 -278 286c0 161 113 287 297 287c107 0 185 -43 222 -87l-30 -33c-50 45 -101 73 -194 73c-154 0 -243 -101 -243 -240c0 -144 102 -240 258 -240c91 0 150 36 190 77
l28 -32c-40 -51 -121 -89 -210 -92v-37c69 -1 96 -35 96 -76s-32 -80 -110 -80c-27 0 -63 7 -89 24z" />
    <glyph glyph-name="uniF7E8" unicode="&#xf7e8;" horiz-adv-x="541" 
d="M67 0v560h419v-47h-369v-205h345v-47h-345v-214h378v-47h-428zM314 621l-116 142l38 29l108 -149z" />
    <glyph glyph-name="uniF7E9" unicode="&#xf7e9;" horiz-adv-x="541" 
d="M67 0v560h419v-47h-369v-205h345v-47h-345v-214h378v-47h-428zM398 764l-116 -144l-30 21l108 151z" />
    <glyph glyph-name="uniF7EA" unicode="&#xf7ea;" horiz-adv-x="541" 
d="M67 0v560h419v-47h-369v-205h345v-47h-345v-214h378v-47h-428zM284 778l139 -121l-29 -32l-111 100l-117 -97l-22 30l136 120h4z" />
    <glyph glyph-name="uniF7EB" unicode="&#xf7eb;" horiz-adv-x="541" 
d="M67 0v560h419v-47h-369v-205h345v-47h-345v-214h378v-47h-428zM117 695c0 20 16 34 33 34s35 -14 35 -34c0 -22 -18 -36 -35 -36s-33 14 -33 36zM361 695c0 20 17 34 36 34c15 0 34 -14 34 -34c0 -22 -19 -36 -34 -36c-19 0 -36 14 -36 36z" />
    <glyph glyph-name="uniF7EC" unicode="&#xf7ec;" horiz-adv-x="202" 
d="M76 0v560h50v-560h-50zM104 621l-116 142l38 29l108 -149z" />
    <glyph glyph-name="uniF7ED" unicode="&#xf7ed;" horiz-adv-x="202" 
d="M76 0v560h50v-560h-50zM218 764l-116 -144l-30 21l108 151z" />
    <glyph glyph-name="uniF7EE" unicode="&#xf7ee;" horiz-adv-x="202" 
d="M76 0v560h50v-560h-50zM102 778l139 -121l-29 -32l-111 100l-117 -97l-22 30l136 120h4z" />
    <glyph glyph-name="uniF7EF" unicode="&#xf7ef;" horiz-adv-x="202" 
d="M76 0v560h50v-560h-50zM-56 695c0 20 16 34 33 34s35 -14 35 -34c0 -22 -18 -36 -35 -36s-33 14 -33 36zM188 695c0 20 17 34 36 34c15 0 34 -14 34 -34c0 -22 -19 -36 -34 -36c-19 0 -36 14 -36 36z" />
    <glyph glyph-name="uniF7F0" unicode="&#xf7f0;" horiz-adv-x="649" 
d="M6 256v43h107v261h181c235 0 321 -126 321 -272c0 -160 -103 -288 -328 -288h-174v256h-107zM292 513h-129v-214h175v-43h-175v-209h126c192 0 274 104 274 241c0 127 -74 225 -271 225z" />
    <glyph glyph-name="uniF7F1" unicode="&#xf7f1;" horiz-adv-x="624" 
d="M557 0h-40l-403 469v-469h-47v560h40l402 -471v471h48v-560zM181 639l-25 25c34 31 70 55 102 55c47 0 80 -52 122 -52c20 0 46 12 68 36l21 -24c-33 -43 -67 -54 -93 -54c-56 0 -83 52 -119 52c-26 0 -49 -15 -76 -38z" />
    <glyph glyph-name="uniF7F2" unicode="&#xf7f2;" horiz-adv-x="667" 
d="M34 280c0 162 131 287 300 287c166 0 299 -120 299 -287c0 -165 -133 -287 -299 -287c-167 0 -300 120 -300 287zM86 280c0 -137 112 -240 248 -240c140 0 247 103 247 240c0 139 -112 240 -247 240c-137 0 -248 -101 -248 -240zM324 621l-116 142l38 29l108 -149z" />
    <glyph glyph-name="uniF7F3" unicode="&#xf7f3;" horiz-adv-x="667" 
d="M34 280c0 162 131 287 300 287c166 0 299 -120 299 -287c0 -165 -133 -287 -299 -287c-167 0 -300 120 -300 287zM86 280c0 -137 112 -240 248 -240c140 0 247 103 247 240c0 139 -112 240 -247 240c-137 0 -248 -101 -248 -240zM448 764l-116 -144l-30 21l108 151z" />
    <glyph glyph-name="uniF7F4" unicode="&#xf7f4;" horiz-adv-x="667" 
d="M34 280c0 162 131 287 300 287c166 0 299 -120 299 -287c0 -165 -133 -287 -299 -287c-167 0 -300 120 -300 287zM86 280c0 -137 112 -240 248 -240c140 0 247 103 247 240c0 139 -112 240 -247 240c-137 0 -248 -101 -248 -240zM334 778l139 -121l-29 -32l-111 100
l-117 -97l-22 30l136 120h4z" />
    <glyph glyph-name="uniF7F5" unicode="&#xf7f5;" horiz-adv-x="667" 
d="M34 280c0 162 131 287 300 287c166 0 299 -120 299 -287c0 -165 -133 -287 -299 -287c-167 0 -300 120 -300 287zM86 280c0 -137 112 -240 248 -240c140 0 247 103 247 240c0 139 -112 240 -247 240c-137 0 -248 -101 -248 -240zM202 639l-25 25c34 31 70 55 102 55
c47 0 80 -52 122 -52c20 0 46 12 68 36l21 -24c-33 -43 -67 -54 -93 -54c-56 0 -83 52 -119 52c-26 0 -49 -15 -76 -38z" />
    <glyph glyph-name="uniF7F6" unicode="&#xf7f6;" horiz-adv-x="667" 
d="M34 280c0 162 131 287 300 287c166 0 299 -120 299 -287c0 -165 -133 -287 -299 -287c-167 0 -300 120 -300 287zM86 280c0 -137 112 -240 248 -240c140 0 247 103 247 240c0 139 -112 240 -247 240c-137 0 -248 -101 -248 -240zM176 695c0 20 16 34 33 34s35 -14 35 -34
c0 -22 -18 -36 -35 -36s-33 14 -33 36zM420 695c0 20 17 34 36 34c15 0 34 -14 34 -34c0 -22 -19 -36 -34 -36c-19 0 -36 14 -36 36z" />
    <glyph glyph-name="uniF7F8" unicode="&#xf7f8;" horiz-adv-x="667" 
d="M83 21l42 49c-56 51 -91 124 -91 210c0 162 131 287 300 287c65 0 125 -19 174 -52l40 46l31 -25l-39 -45c57 -51 93 -125 93 -211c0 -165 -133 -287 -299 -287c-66 0 -126 18 -175 51l-42 -50zM581 280c0 70 -29 130 -74 172l-315 -370c40 -27 89 -42 142 -42
c140 0 247 103 247 240zM86 280c0 -68 28 -128 72 -171l318 368c-41 27 -90 43 -142 43c-137 0 -248 -101 -248 -240z" />
    <glyph glyph-name="uniF7F9" unicode="&#xf7f9;" horiz-adv-x="610" 
d="M551 560v-325c0 -172 -120 -241 -238 -241c-136 0 -254 82 -254 246v320h50v-312c0 -141 98 -207 204 -207c124 0 188 77 188 203v316h50zM304 621l-116 142l38 29l108 -149z" />
    <glyph glyph-name="uniF7FA" unicode="&#xf7fa;" horiz-adv-x="610" 
d="M551 560v-325c0 -172 -120 -241 -238 -241c-136 0 -254 82 -254 246v320h50v-312c0 -141 98 -207 204 -207c124 0 188 77 188 203v316h50zM418 764l-116 -144l-30 21l108 151z" />
    <glyph glyph-name="uniF7FB" unicode="&#xf7fb;" horiz-adv-x="610" 
d="M551 560v-325c0 -172 -120 -241 -238 -241c-136 0 -254 82 -254 246v320h50v-312c0 -141 98 -207 204 -207c124 0 188 77 188 203v316h50zM306 778l139 -121l-29 -32l-111 100l-117 -97l-22 30l136 120h4z" />
    <glyph glyph-name="uniF7FC" unicode="&#xf7fc;" horiz-adv-x="610" 
d="M551 560v-325c0 -172 -120 -241 -238 -241c-136 0 -254 82 -254 246v320h50v-312c0 -141 98 -207 204 -207c124 0 188 77 188 203v316h50zM148 695c0 20 16 34 33 34s35 -14 35 -34c0 -22 -18 -36 -35 -36s-33 14 -33 36zM392 695c0 20 17 34 36 34c15 0 34 -14 34 -34
c0 -22 -19 -36 -34 -36c-19 0 -36 14 -36 36z" />
    <glyph glyph-name="uniF7FD" unicode="&#xf7fd;" horiz-adv-x="525" 
d="M525 560l-239 -315v-245h-50v245l-236 315h60l204 -269l206 269h55zM378 764l-116 -144l-30 21l108 151z" />
    <glyph glyph-name="uniF7FE" unicode="&#xf7fe;" horiz-adv-x="552" 
d="M117 0h-50v560h50v-95h162c197 0 239 -85 239 -168c0 -88 -61 -172 -240 -172h-161v-125zM283 419h-166v-248h159c133 0 191 52 191 126c0 71 -49 122 -184 122z" />
    <glyph glyph-name="uniF7FF" unicode="&#xf7ff;" horiz-adv-x="525" 
d="M525 560l-239 -315v-245h-50v245l-236 315h60l204 -269l206 269h55zM105 695c0 20 16 34 33 34s35 -14 35 -34c0 -22 -18 -36 -35 -36s-33 14 -33 36zM349 695c0 20 17 34 36 34c15 0 34 -14 34 -34c0 -22 -19 -36 -34 -36c-19 0 -36 14 -36 36z" />
    <glyph glyph-name="uniFE56" unicode="&#xfe56;" horiz-adv-x="392" 
d="M314 421c0 56 -50 99 -121 99c-53 0 -104 -19 -128 -65l-39 17c26 61 100 95 170 95c107 0 167 -62 167 -137c0 -81 -50 -117 -96 -149c-53 -37 -76 -60 -76 -96c0 -17 1 -21 4 -33h-43c-4 17 -5 32 -4 45c6 55 47 83 88 111c40 27 78 55 78 113zM138 32
c0 15 14 31 35 31c18 0 32 -16 32 -31c0 -18 -14 -34 -32 -34c-21 0 -35 16 -35 34z" />
    <glyph glyph-name="uniFE57" unicode="&#xfe57;" horiz-adv-x="264" 
d="M107 153v407h49v-407h-49zM97 32c0 15 14 31 35 31c18 0 32 -16 32 -31c0 -18 -14 -34 -32 -34c-21 0 -35 16 -35 34z" />
    <glyph glyph-name="uniFEFF" unicode="&#xfeff;" horiz-adv-x="0" 
 />
    <glyph glyph-name="nbspace" horiz-adv-x="300" 
 />
    <glyph glyph-name="caron.l" horiz-adv-x="186" 
d="M103 730h49c6 -15 10 -30 10 -61c0 -60 -42 -111 -78 -133l-22 23c32 20 56 71 56 105c0 27 -7 55 -15 66z" />
    <glyph glyph-name="caron.lsmall" horiz-adv-x="186" 
d="M103 560h49c6 -15 10 -30 10 -61c0 -60 -42 -111 -78 -133l-22 23c32 20 56 71 56 105c0 27 -7 55 -15 66z" />
    <glyph glyph-name="a.ss02" horiz-adv-x="597" 
d="M478 0v88c-19 -35 -81 -97 -179 -97c-160 0 -263 105 -263 268c0 172 115 274 264 274c76 0 140 -24 178 -66v53h49v-520h-49zM300 38c103 0 159 80 178 122v234c-40 62 -103 92 -181 92c-113 0 -208 -81 -208 -219c0 -144 84 -229 211 -229z" />
    <glyph glyph-name="k.ss01" horiz-adv-x="519" 
d="M70 0v730h49v-434h78l226 224h66l-247 -244l273 -276h-68l-251 249h-77v-249h-49z" />
    <glyph glyph-name="K.ss01" horiz-adv-x="639" 
d="M80 0v700h53v-324h99l310 324h66l-326 -341l353 -359h-71l-323 326h-108v-326h-53z" />
    <glyph glyph-name="kcommaaccent.ss01" horiz-adv-x="519" 
d="M70 0v730h49v-434h78l226 224h66l-247 -244l273 -276h-68l-251 249h-77v-249h-49zM236 -81l40 28c14 -15 32 -40 32 -71c0 -56 -40 -101 -68 -118l-22 23c22 20 43 50 43 84c0 27 -9 39 -25 54z" />
    <glyph glyph-name="Kcommaaccent.ss01" horiz-adv-x="639" 
d="M80 0v700h53v-324h99l310 324h66l-326 -341l353 -359h-71l-323 326h-108v-326h-53zM306 -81l40 28c14 -15 32 -40 32 -71c0 -56 -40 -101 -68 -118l-22 23c22 20 43 50 43 84c0 27 -9 39 -25 54z" />
    <glyph glyph-name="aogonek.ss02" horiz-adv-x="610" 
d="M527 -148l13 -39c-17 -7 -32 -13 -62 -13c-45 0 -100 29 -100 99c0 57 50 98 100 115v74c-19 -35 -81 -97 -179 -97c-160 0 -263 105 -263 268c0 172 115 274 264 274c76 0 140 -24 178 -66v53h49v-520h-3c-34 -2 -96 -40 -96 -97c0 -34 22 -60 51 -60c11 0 31 1 48 9z
M300 38c103 0 159 80 178 122v234c-40 62 -103 92 -181 92c-113 0 -208 -81 -208 -219c0 -144 84 -229 211 -229z" />
    <glyph glyph-name="uniF689.ss01" horiz-adv-x="546" 
d="M67 0v560h50v-251h89l248 251h67l-272 -272l294 -288h-67l-269 262h-90v-262h-50zM256 -81l40 28c14 -15 32 -40 32 -71c0 -56 -40 -101 -68 -118l-22 23c22 20 43 50 43 84c0 27 -9 39 -25 54z" />
    <glyph glyph-name="abreve.ss02" horiz-adv-x="597" 
d="M478 0v88c-19 -35 -81 -97 -179 -97c-160 0 -263 105 -263 268c0 172 115 274 264 274c76 0 140 -24 178 -66v53h49v-520h-49zM300 38c103 0 159 80 178 122v234c-40 62 -103 92 -181 92c-113 0 -208 -81 -208 -219c0 -144 84 -229 211 -229zM188 738l21 22
c20 -25 76 -60 125 -60c56 0 98 25 125 59l18 -21c-31 -47 -82 -88 -143 -88c-73 0 -130 64 -146 88z" />
    <glyph glyph-name="acircumflex.ss02" horiz-adv-x="597" 
d="M478 0v88c-19 -35 -81 -97 -179 -97c-160 0 -263 105 -263 268c0 172 115 274 264 274c76 0 140 -24 178 -66v53h49v-520h-49zM300 38c103 0 159 80 178 122v234c-40 62 -103 92 -181 92c-113 0 -208 -81 -208 -219c0 -144 84 -229 211 -229zM317 778l139 -121l-29 -32
l-111 100l-117 -97l-22 30l136 120h4z" />
    <glyph glyph-name="aacute.ss02" horiz-adv-x="597" 
d="M478 0v88c-19 -35 -81 -97 -179 -97c-160 0 -263 105 -263 268c0 172 115 274 264 274c76 0 140 -24 178 -66v53h49v-520h-49zM300 38c103 0 159 80 178 122v234c-40 62 -103 92 -181 92c-113 0 -208 -81 -208 -219c0 -144 84 -229 211 -229zM438 764l-116 -144l-30 21
l108 151z" />
    <glyph glyph-name="afii10109.ss01" horiz-adv-x="519" 
d="M70 0v520h49v-238h75l234 238h69l-257 -259l275 -261h-70l-250 235h-76v-235h-49zM367 764l-116 -144l-30 21l108 151z" />
    <glyph glyph-name="afii10076.ss01" horiz-adv-x="519" 
d="M70 0v520h49v-238h75l234 238h69l-257 -259l275 -261h-70l-250 235h-76v-235h-49z" />
    <glyph glyph-name="aring.ss02" horiz-adv-x="597" 
d="M478 0v88c-19 -35 -81 -97 -179 -97c-160 0 -263 105 -263 268c0 172 115 274 264 274c76 0 140 -24 178 -66v53h49v-520h-49zM300 38c103 0 159 80 178 122v234c-40 62 -103 92 -181 92c-113 0 -208 -81 -208 -219c0 -144 84 -229 211 -229zM238 701c0 51 41 93 92 93
s93 -42 93 -93s-42 -92 -93 -92s-92 41 -92 92zM278 701c0 -29 22 -52 52 -52c29 0 53 17 53 52c0 34 -22 53 -53 53c-30 0 -52 -22 -52 -53z" />
    <glyph glyph-name="afii10028.ss01" horiz-adv-x="639" 
d="M80 0v700h53v-324h99l310 324h66l-326 -341l353 -359h-71l-323 326h-108v-326h-53z" />
    <glyph glyph-name="atilde.ss02" horiz-adv-x="597" 
d="M478 0v88c-19 -35 -81 -97 -179 -97c-160 0 -263 105 -263 268c0 172 115 274 264 274c76 0 140 -24 178 -66v53h49v-520h-49zM300 38c103 0 159 80 178 122v234c-40 62 -103 92 -181 92c-113 0 -208 -81 -208 -219c0 -144 84 -229 211 -229zM192 639l-25 25
c34 31 70 55 102 55c47 0 80 -52 122 -52c20 0 46 12 68 36l21 -24c-33 -43 -67 -54 -93 -54c-56 0 -83 52 -119 52c-26 0 -49 -15 -76 -38z" />
    <glyph glyph-name="uniF76B.ss01" horiz-adv-x="546" 
d="M67 0v560h50v-251h89l248 251h67l-272 -272l294 -288h-67l-269 262h-90v-262h-50z" />
    <glyph glyph-name="uniF356.ss01" horiz-adv-x="772" 
d="M361 309v251h50v-251h72l216 251h61l-231 -271l240 -289h-61l-221 262h-76v-262h-50v262h-76l-221 -262h-61l239 289l-230 271h61l216 -251h72z" />
    <glyph glyph-name="afii10072.ss01" horiz-adv-x="749" 
d="M399 235v-235h-49v235h-66l-215 -235h-64l234 260l-220 260h62l204 -238h65v238h49v-238h65l204 238h62l-221 -258l235 -262h-62l-217 235h-66z" />
    <glyph glyph-name="afii10065.var.accented.ss02" horiz-adv-x="597" 
d="M478 0v88c-19 -35 -81 -97 -179 -97c-160 0 -263 105 -263 268c0 172 115 274 264 274c76 0 140 -24 178 -66v53h49v-520h-49zM300 38c103 0 159 80 178 122v234c-40 62 -103 92 -181 92c-113 0 -208 -81 -208 -219c0 -144 84 -229 211 -229zM438 764l-116 -144l-30 21
l108 151z" />
    <glyph glyph-name="afii10065.ss02" horiz-adv-x="597" 
d="M478 0v88c-19 -35 -81 -97 -179 -97c-160 0 -263 105 -263 268c0 172 115 274 264 274c76 0 140 -24 178 -66v53h49v-520h-49zM300 38c103 0 159 80 178 122v234c-40 62 -103 92 -181 92c-113 0 -208 -81 -208 -219c0 -144 84 -229 211 -229z" />
    <glyph glyph-name="afii10024.ss01" horiz-adv-x="946" 
d="M480 326v-326h-53v326h-80l-278 -326h-65l302 355l-284 345h64l270 -324h71v324h53v-324h73l268 324h64l-285 -342l303 -358h-65l-279 326h-79z" />
    <glyph glyph-name="afii10061.ss01" horiz-adv-x="639" 
d="M80 0v700h53v-324h99l310 324h66l-326 -341l353 -359h-71l-323 326h-108v-326h-53zM450 855l-178 -87l-15 30l173 100z" />
    <glyph glyph-name="uniF37C.ss01" horiz-adv-x="546" 
d="M67 0v560h50v-251h89l248 251h67l-268 -272l290 -288h-67l-269 262h-90v-262h-50zM388 764l-116 -144l-30 21l108 151z" />
    <glyph glyph-name="agrave.ss02" horiz-adv-x="597" 
d="M478 0v88c-19 -35 -81 -97 -179 -97c-160 0 -263 105 -263 268c0 172 115 274 264 274c76 0 140 -24 178 -66v53h49v-520h-49zM300 38c103 0 159 80 178 122v234c-40 62 -103 92 -181 92c-113 0 -208 -81 -208 -219c0 -144 84 -229 211 -229zM344 621l-116 142l38 29
l108 -149z" />
    <glyph glyph-name="amacron.ss02" horiz-adv-x="597" 
d="M478 0v88c-19 -35 -81 -97 -179 -97c-160 0 -263 105 -263 268c0 172 115 274 264 274c76 0 140 -24 178 -66v53h49v-520h-49zM300 38c103 0 159 80 178 122v234c-40 62 -103 92 -181 92c-113 0 -208 -81 -208 -219c0 -144 84 -229 211 -229zM202 655v46h254v-46h-254z
" />
    <glyph glyph-name="uniF35A.ss01" horiz-adv-x="546" 
d="M67 0v560h50v-251h89l248 251h67l-268 -272l290 -288h-67l-269 262h-90v-262h-50z" />
    <glyph glyph-name="adieresis.ss02" horiz-adv-x="597" 
d="M478 0v88c-19 -35 -81 -97 -179 -97c-160 0 -263 105 -263 268c0 172 115 274 264 274c76 0 140 -24 178 -66v53h49v-520h-49zM300 38c103 0 159 80 178 122v234c-40 62 -103 92 -181 92c-113 0 -208 -81 -208 -219c0 -144 84 -229 211 -229zM153 695c0 20 16 34 33 34
s35 -14 35 -34c0 -22 -18 -36 -35 -36s-33 14 -33 36zM397 695c0 20 17 34 36 34c15 0 34 -14 34 -34c0 -22 -19 -36 -34 -36c-19 0 -36 14 -36 36z" />
    </font>
</defs>
</svg>
