<?xml version="1.0" standalone="no"?>
<!DOCTYPE svg PUBLIC "-//W3C//DTD SVG 1.1//EN" "http://www.w3.org/Graphics/SVG/1.1/DTD/svg11.dtd" >
<svg>
<metadata>
Created by FontForge 20110222 at Thu Sep 17 12:00:48 2015
 By www-data
Stem is a geometric sans-serif with semi-closed aperture and large x-height. 12 faces of it, including upright and true italic faces of different weights, are intended primarily for large point sizes. The Stem family will be supplemented with faces for text and caption setting. Design -- Alexandra Korolkova with the assistance of Maria Selezeneva and Isabella Chaeva. Released by ParaType in 2014.
</metadata>
<defs>
<font id="Stem-ExtraLightItalic" horiz-adv-x="588" >
  <font-face 
    font-family="Stem Extra Light"
    font-weight="300"
    font-style="italic"
    font-stretch="normal"
    units-per-em="1000"
    panose-1="2 11 4 3 2 2 3 9 2 4"
    ascent="778"
    descent="-222"
    x-height="520"
    cap-height="700"
    bbox="-346 -242 1267 908"
    underline-thickness="50"
    underline-position="-50"
    slope="-11"
    stemh="47"
    stemv="50"
    unicode-range="U+0020-FEFF"
  />
<missing-glyph horiz-adv-x="300" 
 />
    <glyph glyph-name="uniF350.var.accented" unicode="&#xf350;`" horiz-adv-x="571" 
d="M-17 0l370 562h43l152 -562h-49l-44 158h-313l-103 -158h-56zM363 493l-192 -289h274zM534 761l-131 -131l-28 24l124 139z" />
    <glyph glyph-name="uniF355.var.accented" unicode="&#xf355;`" horiz-adv-x="541" 
d="M47 0l109 560h419l-9 -47h-369l-40 -205h345l-9 -47h-345l-42 -214h378l-9 -47h-428zM524 761l-131 -131l-28 24l124 139z" />
    <glyph glyph-name="uniF358.var.accented" unicode="&#xf358;`" horiz-adv-x="625" 
d="M91 0h-44l109 560h50l-91 -471l487 471h45l-109 -560h-50l92 472zM544 761l-131 -131l-28 24l124 139z" />
    <glyph glyph-name="uniF35E.var.accented" unicode="&#xf35e;`" horiz-adv-x="667" 
d="M67 233c0 193 158 334 347 334c179 0 263 -117 263 -240c0 -197 -160 -334 -341 -334c-159 0 -269 100 -269 240zM120 242c0 -124 92 -202 220 -202c155 0 284 122 284 279c0 88 -54 201 -214 201c-174 0 -290 -138 -290 -278zM574 761l-131 -131l-28 24l124 139z" />
    <glyph glyph-name="uniF363.var.accented" unicode="&#xf363;`" horiz-adv-x="567" 
d="M145 15l29 39c5 -5 17 -8 25 -8c30 0 61 28 87 65l15 21l-212 428h54l190 -381l268 381h54l-305 -434c-65 -92 -108 -126 -152 -126c-20 0 -38 4 -53 15zM534 761l-131 -131l-28 24l124 139z" />
    <glyph glyph-name="uniF36B.var.accented" unicode="&#xf36b;`" horiz-adv-x="712" 
d="M575 0l109 560h50l-109 -560h-50zM303 295h-149l-48 -248h147c136 0 215 51 215 142c0 76 -59 106 -165 106zM206 560l-43 -218h152c140 0 206 -52 206 -148c0 -120 -106 -194 -281 -194h-193l109 560h50zM574 761l-131 -131l-28 24l124 139z" />
    <glyph glyph-name="uniF36D.var.accented" unicode="&#xf36d;`" horiz-adv-x="587" 
d="M198 262l9 47h335c11 108 -42 212 -205 212c-97 0 -175 -45 -223 -92l-29 31c52 56 146 107 253 107c186 0 256 -101 256 -237c0 -188 -150 -337 -348 -337c-104 0 -185 32 -228 103l39 27c37 -55 101 -84 192 -84c133 0 257 89 286 223h-337zM494 761l-131 -131l-28 24
l124 139z" />
    <glyph glyph-name="uniF36E.var.accented" unicode="&#xf36e;`" horiz-adv-x="838" 
d="M47 0l109 560h50l-49 -251h116c37 152 179 258 336 258c169 0 236 -118 236 -235c0 -205 -164 -339 -341 -339c-154 0 -254 114 -239 269h-117l-51 -262h-50zM317 237c0 -113 75 -197 191 -197c161 0 284 128 284 284c0 114 -70 196 -187 196c-154 0 -288 -124 -288 -283
zM634 761l-131 -131l-28 24l124 139z" />
    <glyph glyph-name="uniF36F.var.accented" unicode="&#xf36f;`" horiz-adv-x="572" 
d="M435 0l42 217h-178l-239 -217h-72l246 224c-83 15 -136 66 -136 142c0 121 97 194 265 194h231l-109 -560h-50zM279 264h207l49 250h-189c-138 0 -195 -72 -195 -141c0 -68 52 -102 128 -109zM544 761l-131 -131l-28 24l124 139z" />
    <glyph glyph-name="uniF371.var.accented" unicode="&#xf371;`" horiz-adv-x="541" 
d="M251 688c0 24 22 41 41 41c15 0 29 -12 29 -29c0 -24 -24 -41 -43 -41c-15 0 -27 11 -27 29zM495 689c0 23 23 40 44 40c13 0 28 -12 28 -29c0 -24 -25 -41 -42 -41s-30 12 -30 30zM507 764l-144 -144l-26 21l137 151zM47 0l109 560h419l-9 -47h-369l-40 -205h345l-9 -47
h-345l-42 -214h378l-9 -47h-428z" />
    <glyph glyph-name="afii10017.var.accented" unicode="&#x410;`" horiz-adv-x="669" 
d="M-21 0l444 703h47l170 -703h-51l-51 205h-370l-128 -205h-61zM436 631l-237 -376h329zM615 855l-178 -87l-15 30l173 100z" />
    <glyph glyph-name="afii10022.var.accented" unicode="&#x415;`" horiz-adv-x="636" 
d="M55 0l136 700h491l-10 -50h-438l-50 -269h407l-10 -50h-409l-54 -281h448l-10 -50h-501zM595 855l-178 -87l-15 30l173 100z" />
    <glyph glyph-name="afii10026.var.accented" unicode="&#x418;`" horiz-adv-x="735" 
d="M102 0h-47l136 700h53l-117 -604l591 604h48l-136 -700h-53l116 601zM625 855l-178 -87l-15 30l173 100z" />
    <glyph glyph-name="afii10032.var.accented" unicode="&#x41e;`" horiz-adv-x="784" 
d="M88 288c0 230 171 421 410 421c181 0 310 -126 310 -297c0 -228 -172 -421 -409 -421c-198 0 -311 128 -311 297zM144 298c0 -153 103 -257 258 -257c210 0 350 174 350 362c0 140 -97 256 -257 256c-219 0 -351 -180 -351 -361zM645 855l-178 -87l-15 30l173 100z" />
    <glyph glyph-name="afii10037.var.accented" unicode="&#x423;`" horiz-adv-x="663" 
d="M161 19l34 47c8 -6 19 -12 35 -12c37 0 75 47 122 117l-241 529h60l218 -475l321 475h64l-373 -543c-58 -88 -114 -157 -180 -157c-26 0 -46 8 -60 19zM595 855l-178 -87l-15 30l173 100z" />
    <glyph glyph-name="afii10045.var.accented" unicode="&#x42b;`" horiz-adv-x="836" 
d="M678 0l136 700h53l-136 -700h-53zM369 374h-188l-63 -324h177c165 0 262 69 262 196c0 73 -52 128 -188 128zM244 700l-54 -276h190c156 0 233 -63 233 -173c0 -164 -126 -251 -321 -251h-237l136 700h53zM675 855l-178 -87l-15 30l173 100z" />
    <glyph glyph-name="afii10047.var.accented" unicode="&#x42d;`" horiz-adv-x="689" 
d="M236 332l10 50h398c20 169 -69 278 -248 278c-115 0 -200 -51 -259 -118l-28 33c70 78 167 134 294 134c194 0 298 -110 298 -282c0 -236 -175 -436 -424 -436c-112 0 -212 41 -257 125l41 29c40 -65 117 -105 218 -105c174 0 321 124 355 292h-398zM565 855l-178 -87
l-15 30l173 100z" />
    <glyph glyph-name="afii10048.var.accented" unicode="&#x42e;`" horiz-adv-x="984" 
d="M55 0l136 700h53l-62 -318h141c33 155 173 327 392 327c206 0 283 -151 283 -290c0 -211 -151 -428 -400 -428c-178 0 -286 126 -283 296c0 15 -2 30 0 45h-142l-65 -332h-53zM371 292c0 -151 91 -251 232 -251c195 0 339 168 339 369c0 131 -75 249 -231 249
c-185 0 -340 -163 -340 -367zM845 855l-178 -87l-15 30l173 100z" />
    <glyph glyph-name="afii10049.var.accented" unicode="&#x42f;`" horiz-adv-x="671" 
d="M513 0l53 275h-228l-286 -275h-67l294 282c-99 18 -158 74 -158 171c0 126 88 247 306 247h275l-136 -700h-53zM351 325h225l63 325h-217c-175 0 -245 -94 -245 -190s72 -135 174 -135zM635 855l-178 -87l-15 30l173 100z" />
    <glyph glyph-name="afii10023.var.accented" unicode="&#x401;`" horiz-adv-x="636" 
d="M558 880l-144 -144l-26 21l137 151zM579 803c0 18 14 33 33 33c18 0 33 -15 33 -33c0 -19 -15 -33 -33 -33c-19 0 -33 14 -33 33zM271 803c0 18 14 33 32 33c19 0 34 -15 34 -33c0 -19 -15 -33 -34 -33c-18 0 -32 14 -32 33zM55 0l136 700h491l-10 -50h-438l-50 -269h407
l-10 -50h-409l-54 -281h448l-10 -50h-501z" />
    <glyph glyph-name="afii10065.var.accented" unicode="&#x430;`" horiz-adv-x="569" 
d="M433 0l19 94c-24 -36 -98 -103 -191 -103c-133 0 -205 88 -205 207c0 207 169 335 310 335c73 0 130 -24 161 -55l8 42h45l-101 -520h-46zM263 38c105 0 170 80 201 131l52 256c-25 35 -76 61 -151 61c-127 0 -259 -114 -259 -286c0 -108 66 -162 157 -162zM530 762
l-141 -141l-29 24l133 148z" />
    <glyph glyph-name="afii10070.var.accented" unicode="&#x435;`" horiz-adv-x="520" 
d="M457 119l27 -32c-47 -66 -141 -97 -211 -97c-127 0 -217 84 -217 215c0 182 149 328 314 328c101 0 160 -44 160 -122c0 -114 -147 -202 -420 -156c-3 -15 -4 -30 -4 -46c0 -106 69 -172 178 -172c65 0 130 31 173 82zM359 486c-107 0 -205 -80 -240 -190
c253 -38 361 40 361 110c0 45 -41 80 -121 80zM565 762l-141 -141l-29 24l133 148z" />
    <glyph glyph-name="afii10074.var.accented" unicode="&#x438;`" horiz-adv-x="569" 
d="M574 520l-101 -520h-46l18 98c-51 -67 -124 -108 -218 -108s-157 47 -157 140c0 26 5 59 11 89l60 301h47l-57 -288c-5 -24 -12 -59 -11 -93c1 -60 28 -102 122 -102c89 0 169 55 217 142l69 341h46zM566 762l-141 -141l-29 24l133 148z" />
    <glyph glyph-name="afii10080.var.accented" unicode="&#x43e;`" horiz-adv-x="586" 
d="M56 212c0 203 142 321 292 321c144 0 232 -102 232 -228c0 -199 -133 -315 -292 -315c-136 0 -232 95 -232 222zM106 230c0 -108 66 -193 182 -193c138 0 242 99 242 258c0 124 -86 191 -186 191c-120 0 -238 -105 -238 -256zM565 762l-141 -141l-29 24l133 148z" />
    <glyph glyph-name="afii10085.var.accented" unicode="&#x443;`" horiz-adv-x="498" 
d="M2 -198l28 43c8 -5 17 -8 27 -8c42 0 79 36 144 144l17 29l-160 510h54l140 -449l255 449h55l-298 -522c-101 -177 -151 -208 -216 -208c-17 0 -33 4 -46 12zM546 762l-141 -141l-29 24l133 148z" />
    <glyph glyph-name="afii10093.var.accented" unicode="&#x44b;`" horiz-adv-x="652" 
d="M45 0l96 520h46l-32 -176h91c172 0 209 -61 209 -125c0 -131 -86 -219 -254 -219h-156zM257 301h-110l-48 -258h121c115 0 185 66 185 167c0 51 -35 91 -148 91zM514 0l96 520h47l-96 -520h-47zM579 762l-141 -141l-29 24l133 148z" />
    <glyph glyph-name="afii10095.var.accented" unicode="&#x44d;`" horiz-adv-x="523" 
d="M191 243l10 47h266c11 128 -55 196 -165 196c-75 0 -144 -30 -194 -92l-34 31c53 64 139 108 223 108c159 0 220 -100 220 -209c0 -208 -142 -334 -298 -334c-87 0 -156 24 -199 103l37 27c35 -63 93 -83 167 -83c112 0 215 86 236 206h-269zM519 762l-141 -141l-29 24
l133 148z" />
    <glyph glyph-name="afii10096.var.accented" unicode="&#x44e;`" horiz-adv-x="762" 
d="M45 0l96 520h46l-43 -228h107c32 144 160 241 292 241c143 0 213 -108 213 -207c0 -211 -140 -336 -296 -336c-124 0 -228 78 -218 259h-105l-46 -249h-46zM291 215c0 -121 75 -178 177 -178c114 0 238 104 238 272c0 101 -64 177 -175 177c-125 0 -240 -121 -240 -271z
M639 762l-141 -141l-29 24l133 148z" />
    <glyph glyph-name="afii10097.var.accented" unicode="&#x44f;`" horiz-adv-x="519" 
d="M331 520h193l-96 -520h-47l37 200h-149l-208 -200h-65l213 206c-65 18 -115 59 -115 136c0 87 83 178 237 178zM144 344c0 -65 46 -101 125 -101h157l45 234h-156c-105 0 -171 -67 -171 -133zM579 762l-141 -141l-29 24l133 148z" />
    <glyph glyph-name="afii10071.var.accented" unicode="&#x451;`" horiz-adv-x="570" 
d="M526 764l-144 -144l-26 21l138 151zM513 692c0 18 14 33 33 33c18 0 33 -15 33 -33c0 -19 -15 -33 -33 -33c-19 0 -33 14 -33 33zM271 692c0 18 14 33 32 33c19 0 34 -15 34 -33c0 -19 -15 -33 -34 -33c-18 0 -32 14 -32 33zM457 119l27 -32c-47 -66 -141 -97 -211 -97
c-127 0 -217 84 -217 215c0 182 149 328 314 328c101 0 160 -44 160 -122c0 -114 -147 -202 -420 -156c-3 -15 -4 -30 -4 -46c0 -106 69 -172 178 -172c65 0 130 31 173 82zM359 486c-107 0 -205 -80 -240 -190c253 -38 361 40 361 110c0 45 -41 80 -121 80z" />
    <glyph glyph-name="fi" unicode="fi" horiz-adv-x="468" 
d="M43 473l9 47h104l6 32c27 145 121 186 191 186c28 0 52 -6 63 -18l-29 -40c-11 10 -28 11 -42 11c-61 0 -117 -33 -138 -150l-4 -21h170l-9 -47h-170l-87 -473h-47l88 473h-105zM320 0l96 520h47l-96 -520h-47zM435 689c0 20 15 36 35 36s36 -16 36 -36s-16 -35 -36 -35
s-35 15 -35 35z" />
    <glyph glyph-name="fl" unicode="fl" horiz-adv-x="482" 
d="M363 0l126 649c-14 26 -41 42 -79 42c-64 0 -124 -33 -146 -150l-4 -21h129l-9 -47h-129l-92 -473h-49l92 473h-110l9 47h110l6 32c27 145 128 186 202 186c36 0 66 -13 87 -32l48 24l-142 -730h-49z" />
    <glyph glyph-name=".notdef" horiz-adv-x="300" 
 />
    <glyph glyph-name="space" unicode=" " horiz-adv-x="300" 
 />
    <glyph glyph-name="exclam" unicode="!" horiz-adv-x="310" 
d="M141 191l99 509h52l-99 -509h-52zM98 36c0 17 15 35 38 35c20 0 35 -18 35 -35c0 -20 -15 -38 -35 -38c-23 0 -38 18 -38 38z" />
    <glyph glyph-name="quotedbl" unicode="&#x22;" horiz-adv-x="400" 
d="M171 494l40 206h50l-40 -206h-50zM321 494l40 206h50l-40 -206h-50z" />
    <glyph glyph-name="numbersign" unicode="#" horiz-adv-x="686" 
d="M345 5l75 203h-214l-80 -217l-39 14l75 203h-98v44h115l73 196h-188v44h204l81 217l39 -14l-76 -203h214l80 217l39 -13l-76 -204h102v-44h-118l-73 -196h191v-44h-207l-80 -217zM296 448l-73 -196h214l72 196h-213z" />
    <glyph glyph-name="dollar" unicode="$" horiz-adv-x="615" 
d="M522 200c0 172 -395 83 -395 304c0 123 124 197 269 204l16 82h49l-16 -82c90 -5 164 -35 199 -90l-38 -32c-42 47 -99 73 -197 73c-80 0 -225 -36 -225 -151c0 -173 395 -85 395 -299c0 -124 -124 -211 -273 -218l-18 -91h-49l18 93c-107 9 -186 65 -217 129l44 34
c29 -58 101 -115 223 -115c100 0 215 60 215 159z" />
    <glyph glyph-name="percent" unicode="%" horiz-adv-x="847" 
d="M75 541c0 96 74 162 171 162s171 -66 171 -162c0 -95 -74 -162 -171 -162s-171 67 -171 162zM122 541c0 -73 60 -121 124 -121c67 0 124 48 124 121s-58 121 -124 121s-124 -48 -124 -121zM171 12l520 702l35 -25l-519 -698zM478 158c0 96 74 162 171 162
s171 -66 171 -162c0 -95 -74 -162 -171 -162s-171 67 -171 162zM525 158c0 -73 60 -121 124 -121c67 0 124 48 124 121s-58 121 -124 121s-124 -48 -124 -121z" />
    <glyph glyph-name="ampersand" unicode="&#x26;" horiz-adv-x="783" 
d="M728 0h-76c-33 28 -57 62 -86 96c-54 -55 -143 -105 -248 -105c-141 0 -229 71 -229 171c0 136 157 206 258 266c-24 41 -39 89 -39 137c0 70 45 144 151 144c67 0 106 -37 106 -101c0 -77 -73 -140 -155 -191c32 -70 106 -181 163 -251c60 71 114 185 133 284h47
c-22 -111 -79 -234 -150 -317c37 -52 74 -88 125 -133zM322 38c100 0 174 49 214 91c-65 85 -117 167 -170 262c-97 -61 -224 -110 -224 -224c0 -72 69 -129 180 -129zM355 566c0 -42 17 -76 34 -112c72 47 129 95 129 150c0 35 -22 64 -67 64c-50 0 -96 -36 -96 -102z" />
    <glyph glyph-name="quotesingle" unicode="'" horiz-adv-x="250" 
d="M171 494l40 206h50l-40 -206h-50z" />
    <glyph glyph-name="parenleft" unicode="(" horiz-adv-x="284" 
d="M212 -178l-35 -28c-88 96 -125 241 -125 367c0 217 118 416 305 555l27 -33c-183 -145 -281 -318 -281 -516c0 -137 38 -255 109 -345z" />
    <glyph glyph-name="parenright" unicode=")" horiz-adv-x="284" 
d="M120 689l35 28c88 -96 129 -242 129 -368c0 -217 -118 -416 -305 -555l-27 33c183 145 281 318 281 516c0 124 -35 248 -113 346z" />
    <glyph glyph-name="asterisk" unicode="*" horiz-adv-x="502" 
d="M357 700l-6 -152l140 52l17 -51l-145 -41l94 -119l-44 -32l-84 126l-85 -127l-44 32l95 121l-145 41l17 51l142 -52l-6 151h54z" />
    <glyph glyph-name="plus" unicode="+" 
d="M118 338v44h198v200h46v-200h201v-44h-201v-202h-46v202h-198z" />
    <glyph glyph-name="comma" unicode="," horiz-adv-x="212" 
d="M70 0c-15 0 -28 12 -28 31c0 28 21 52 55 52c28 0 46 -22 46 -62c0 -96 -72 -152 -135 -168l-9 25c51 13 102 66 102 120c0 5 -1 11 -4 14c-7 -8 -17 -12 -27 -12z" />
    <glyph glyph-name="hyphen" unicode="-" horiz-adv-x="400" 
d="M116 248v47h228v-47h-228z" />
    <glyph glyph-name="period" unicode="." horiz-adv-x="193" 
d="M35 42c0 20 17 41 44 41c24 0 41 -21 41 -41c0 -23 -17 -44 -41 -44c-27 0 -44 21 -44 44z" />
    <glyph glyph-name="slash" unicode="/" horiz-adv-x="315" 
d="M-2 -193l336 902l39 -14l-335 -903z" />
    <glyph glyph-name="zero" unicode="0" horiz-adv-x="681" 
d="M82 265c0 228 134 443 366 443c160 0 237 -114 237 -272c0 -224 -131 -444 -365 -444c-160 0 -238 114 -238 273zM136 277c0 -155 73 -239 188 -239c178 0 307 170 307 390c0 142 -66 234 -187 234c-188 0 -308 -175 -308 -385z" />
    <glyph glyph-name="one" unicode="1" horiz-adv-x="394" 
d="M94 589l268 117h34l-137 -706h-49l124 641l-228 -99z" />
    <glyph glyph-name="two" unicode="2" horiz-adv-x="586" 
d="M166 506l-39 21c37 96 139 181 282 181c122 0 194 -70 194 -171c0 -166 -194 -308 -362 -412l-127 -79h416l-9 -46h-506l8 41l191 122c146 102 335 225 335 367c0 78 -57 129 -151 129c-110 0 -198 -67 -232 -153z" />
    <glyph glyph-name="three" unicode="3" horiz-adv-x="584" 
d="M171 554l-37 23c43 77 133 132 263 132c125 0 201 -61 201 -156c0 -87 -61 -156 -162 -187c61 -14 115 -60 115 -143c0 -153 -136 -232 -286 -232c-119 0 -209 58 -236 150l45 19c37 -85 103 -119 197 -119c119 0 226 63 226 176c0 87 -74 117 -159 117h-111l9 49h91
c103 0 217 70 217 164c0 75 -69 112 -151 112c-101 0 -168 -30 -222 -105z" />
    <glyph glyph-name="four" unicode="4" horiz-adv-x="638" 
d="M415 0l30 156h-425l6 33l525 511h50l-96 -495h133l-10 -49h-133l-30 -156h-50zM106 205h349l80 412z" />
    <glyph glyph-name="five" unicode="5" horiz-adv-x="584" 
d="M108 339l115 361h422l-10 -50h-379l-79 -247c27 12 94 26 162 26c139 0 217 -69 217 -183c0 -143 -117 -255 -299 -255c-112 0 -190 39 -229 125l48 27c27 -75 108 -103 185 -103c138 0 242 89 242 204c0 92 -71 140 -174 140c-91 0 -182 -30 -221 -45z" />
    <glyph glyph-name="six" unicode="6" horiz-adv-x="645" 
d="M79 248c0 299 208 461 401 461c85 0 152 -29 182 -70l-33 -32c-32 33 -83 52 -165 52c-186 0 -310 -169 -326 -333c49 72 157 135 270 135c163 0 223 -92 223 -202c0 -160 -149 -268 -305 -268c-147 0 -247 90 -247 257zM135 264c-21 -138 82 -223 193 -223
c133 0 247 84 247 215c0 98 -59 157 -177 157c-116 0 -236 -89 -263 -149z" />
    <glyph glyph-name="seven" unicode="7" horiz-adv-x="553" 
d="M127 651l9 49h503l-7 -34l-476 -666h-61l467 651h-435z" />
    <glyph glyph-name="eight" unicode="8" horiz-adv-x="667" 
d="M368 385h32c95 0 210 66 210 159c0 74 -62 116 -175 116c-127 0 -223 -60 -223 -153c0 -70 56 -122 156 -122zM388 335h-26c-119 0 -241 -64 -241 -165c0 -103 111 -130 195 -130c141 0 252 63 252 160c0 74 -67 135 -180 135zM314 -9c-153 0 -247 61 -247 172
c0 110 95 177 203 200c-65 19 -112 64 -112 140c0 111 110 206 282 206c150 0 224 -60 224 -161c0 -96 -87 -162 -179 -188c91 -20 137 -79 137 -153c0 -140 -146 -216 -308 -216z" />
    <glyph glyph-name="nine" unicode="9" horiz-adv-x="643" 
d="M652 460c0 -308 -167 -469 -363 -469c-94 0 -173 33 -210 86l36 32c46 -47 94 -69 180 -69c168 0 282 154 300 333c-64 -100 -177 -134 -271 -134c-145 0 -223 76 -223 187c0 154 123 283 322 283c174 0 229 -122 229 -249zM594 436c21 107 -29 224 -178 224
c-134 0 -262 -84 -262 -225c0 -100 77 -149 178 -149c116 0 210 62 262 150z" />
    <glyph glyph-name="colon" unicode=":" horiz-adv-x="322" 
d="M178 479c0 20 17 41 44 41c24 0 41 -21 41 -41c0 -23 -17 -44 -41 -44c-27 0 -44 21 -44 44zM99 42c0 20 17 41 44 41c24 0 41 -21 41 -41c0 -23 -17 -44 -41 -44c-27 0 -44 21 -44 44z" />
    <glyph glyph-name="semicolon" unicode=";" horiz-adv-x="325" 
d="M178 479c0 20 17 41 44 41c24 0 41 -21 41 -41c0 -23 -17 -44 -41 -44c-27 0 -44 21 -44 44zM125 0c-15 0 -28 12 -28 31c0 28 21 52 55 52c28 0 46 -22 46 -62c0 -96 -72 -152 -135 -168l-9 25c51 13 102 66 102 120c0 5 -1 11 -4 14c-7 -8 -17 -12 -27 -12z" />
    <glyph glyph-name="less" unicode="&#x3c;" 
d="M527 90l-417 262v20l417 260v-54l-348 -216l348 -218v-54z" />
    <glyph glyph-name="equal" unicode="=" 
d="M127 252v44h445v-44h-445zM127 424v44h445v-44h-445z" />
    <glyph glyph-name="greater" unicode="&#x3e;" 
d="M568 352l-417 -262v54l349 218l-349 216v54l417 -260v-20z" />
    <glyph glyph-name="question" unicode="?" horiz-adv-x="603" 
d="M571 547c0 65 -55 113 -164 113s-187 -57 -227 -120l-35 25c45 74 132 144 276 144c135 0 205 -66 205 -158c0 -215 -269 -195 -306 -319c-7 -23 -5 -27 -5 -43h-45v13c0 193 301 150 301 345zM222 36c0 17 15 35 38 35c20 0 35 -18 35 -35c0 -20 -15 -38 -35 -38
c-23 0 -38 18 -38 38z" />
    <glyph glyph-name="at" unicode="@" horiz-adv-x="1015" 
d="M630 0l10 50c-41 -37 -105 -59 -158 -59c-123 0 -191 73 -191 186c0 154 128 282 291 282c76 0 138 -19 178 -49l-71 -364c155 0 242 132 242 277c0 168 -124 291 -313 291c-289 0 -489 -220 -489 -453c0 -196 130 -325 331 -325c38 0 75 4 111 12l-4 -46
c-38 -8 -77 -13 -116 -13c-227 0 -369 152 -369 370c0 253 215 502 539 502c215 0 357 -134 357 -334c0 -180 -107 -327 -298 -327h-50zM491 37c60 0 128 38 160 71l53 271c-39 24 -82 34 -123 34c-125 0 -237 -101 -237 -228c0 -91 56 -148 147 -148z" />
    <glyph glyph-name="A" unicode="A" horiz-adv-x="669" 
d="M-21 0l444 703h47l170 -703h-51l-51 205h-370l-128 -205h-61zM436 631l-237 -376h329z" />
    <glyph glyph-name="B" unicode="B" horiz-adv-x="670" 
d="M55 0l136 700h267c160 0 218 -58 218 -152c0 -83 -56 -157 -153 -185c72 -13 114 -65 114 -133c0 -161 -124 -230 -320 -230h-262zM398 333h-225l-55 -283h215c170 0 248 59 248 171c0 73 -58 112 -183 112zM443 650h-209l-52 -267h228c118 0 210 60 210 156
c0 79 -55 111 -177 111z" />
    <glyph glyph-name="C" unicode="C" horiz-adv-x="684" 
d="M631 134l30 -35c-59 -61 -147 -108 -280 -108c-197 0 -307 120 -307 297c0 227 173 421 419 421c134 0 214 -54 248 -107l-36 -33c-46 56 -104 90 -217 90c-216 0 -358 -168 -358 -369c0 -150 96 -249 257 -249c109 0 185 35 244 93z" />
    <glyph glyph-name="D" unicode="D" horiz-adv-x="708" 
d="M55 0l136 700h217c232 0 313 -123 313 -272c0 -254 -170 -428 -456 -428h-210zM396 650h-162l-116 -600h153c273 0 394 177 394 370c0 131 -71 230 -269 230z" />
    <glyph glyph-name="E" unicode="E" horiz-adv-x="636" 
d="M55 0l136 700h491l-10 -50h-438l-50 -269h407l-10 -50h-409l-54 -281h448l-10 -50h-501z" />
    <glyph glyph-name="F" unicode="F" horiz-adv-x="606" 
d="M55 0l136 700h486l-10 -50h-433l-54 -291h401l-10 -50h-403l-60 -309h-53z" />
    <glyph glyph-name="G" unicode="G" horiz-adv-x="704" 
d="M442 288l10 50h253l-48 -248c-54 -49 -157 -99 -276 -99c-180 0 -306 116 -306 297c0 225 189 421 432 421c116 0 191 -35 234 -96l-33 -34c-44 51 -101 81 -205 81c-204 0 -372 -160 -372 -368c0 -152 100 -252 255 -252c72 0 156 23 225 74l34 174h-203z" />
    <glyph glyph-name="H" unicode="H" horiz-adv-x="745" 
d="M587 0l65 332h-479l-65 -332h-53l136 700h53l-60 -318h477l62 318h53l-136 -700h-53z" />
    <glyph glyph-name="I" unicode="I" horiz-adv-x="233" 
d="M65 0l136 700h53l-136 -700h-53z" />
    <glyph glyph-name="J" unicode="J" horiz-adv-x="485" 
d="M516 700l-96 -495c-24 -125 -102 -214 -242 -214c-81 0 -154 39 -181 123l42 27c20 -64 68 -102 141 -101c94 2 163 46 188 173l95 487h53z" />
    <glyph glyph-name="K" unicode="K" horiz-adv-x="639" 
d="M55 0l136 700h53l-72 -370l466 370h81l-410 -323l299 -377h-69l-273 344l-107 -83l-51 -261h-53z" />
    <glyph glyph-name="L" unicode="L" horiz-adv-x="579" 
d="M55 0l136 700h53l-126 -650h436l-10 -50h-489z" />
    <glyph glyph-name="M" unicode="M" horiz-adv-x="829" 
d="M55 0l136 700h50l211 -381l348 381h60l-136 -700h-53l120 616l-347 -378h-11l-206 375l-119 -613h-53z" />
    <glyph glyph-name="N" unicode="N" horiz-adv-x="736" 
d="M631 0h-43l-364 614l-118 -614h-51l136 700h44l361 -612l120 612h51z" />
    <glyph glyph-name="O" unicode="O" horiz-adv-x="784" 
d="M88 288c0 230 171 421 410 421c181 0 310 -126 310 -297c0 -228 -172 -421 -409 -421c-198 0 -311 128 -311 297zM144 298c0 -153 103 -257 258 -257c210 0 350 174 350 362c0 140 -97 256 -257 256c-219 0 -351 -180 -351 -361z" />
    <glyph glyph-name="P" unicode="P" horiz-adv-x="649" 
d="M108 0h-53l136 700h262c180 0 232 -81 232 -173c0 -139 -102 -247 -329 -247h-194zM442 650h-207l-63 -320h192c184 -1 265 83 265 192c0 77 -55 128 -187 128z" />
    <glyph glyph-name="Q" unicode="Q" horiz-adv-x="784" 
d="M88 288c0 233 174 421 410 421c178 0 310 -123 310 -297c0 -147 -67 -261 -172 -342l59 -91l-41 -31l-60 94c-53 -30 -120 -51 -205 -51c-182 0 -301 123 -301 297zM144 298c0 -160 101 -257 249 -257c70 0 128 19 172 44l-50 78l40 32l53 -82c87 69 144 173 144 290
c0 149 -105 256 -257 256c-203 0 -351 -165 -351 -361z" />
    <glyph glyph-name="R" unicode="R" horiz-adv-x="672" 
d="M108 0h-53l136 700h259c166 0 229 -69 229 -168c0 -121 -96 -209 -234 -226l182 -306h-64l-175 295h-223zM437 650h-203l-59 -305h209c137 0 239 74 239 184c0 70 -49 121 -186 121z" />
    <glyph glyph-name="S" unicode="S" horiz-adv-x="615" 
d="M512 186c0 186 -385 107 -385 327c0 109 103 195 275 195c84 0 191 -25 240 -107l-40 -29c-47 61 -128 87 -202 87c-142 0 -217 -65 -217 -144c0 -163 385 -97 385 -321c0 -146 -150 -203 -270 -203c-121 0 -226 56 -268 136l42 32c48 -84 149 -118 235 -118
c104 0 205 49 205 145z" />
    <glyph glyph-name="T" unicode="T" horiz-adv-x="571" 
d="M105 650l10 50h563l-10 -50h-255l-126 -650h-53l126 650h-255z" />
    <glyph glyph-name="U" unicode="U" horiz-adv-x="717" 
d="M757 700l-79 -407c-26 -132 -116 -301 -331 -301c-148 0 -253 82 -252 235c0 23 3 47 8 73l78 400h53l-76 -391c-5 -24 -7 -46 -7 -67c-1 -138 84 -200 200 -200c148 0 245 98 277 262l77 396h52z" />
    <glyph glyph-name="V" unicode="V" horiz-adv-x="705" 
d="M816 700l-460 -700h-42l-203 700h56l182 -621l404 621h63z" />
    <glyph glyph-name="W" unicode="W" horiz-adv-x="960" 
d="M1067 700l-344 -700h-50l-95 615l-330 -615h-51l-82 700h54l74 -610l322 610h55l93 -606l294 606h60z" />
    <glyph glyph-name="X" unicode="X" horiz-adv-x="632" 
d="M714 700l-323 -349l194 -351h-61l-171 312l-291 -312h-67l331 356l-184 344h57l165 -303l282 303h68z" />
    <glyph glyph-name="Y" unicode="Y" horiz-adv-x="612" 
d="M723 700l-357 -393l-60 -307h-53l60 307l-202 393h58l177 -344l311 344h66z" />
    <glyph glyph-name="Z" unicode="Z" horiz-adv-x="628" 
d="M135 650l10 50h564l-7 -37l-619 -613h510l-10 -50h-593l7 37l618 613h-480z" />
    <glyph glyph-name="bracketleft" unicode="[" horiz-adv-x="294" 
d="M21 -200l177 910h228l-9 -46h-179l-159 -818h179l-9 -46h-228z" />
    <glyph glyph-name="backslash" unicode="\" horiz-adv-x="315" 
d="M59 709l336 -902l-40 -15l-335 903z" />
    <glyph glyph-name="bracketright" unicode="]" horiz-adv-x="294" 
d="M372 710l-177 -910h-228l9 46h178l159 818h-178l9 46h228z" />
    <glyph glyph-name="asciicircum" unicode="^" horiz-adv-x="479" 
d="M139 450l175 258h32l174 -258h-54l-136 206l-137 -206h-54z" />
    <glyph glyph-name="underscore" unicode="_" horiz-adv-x="285" 
d="M-30 -200v49h285v-49h-285z" />
    <glyph glyph-name="grave" unicode="`" horiz-adv-x="374" 
d="M464 621l-88 142l44 29l79 -149z" />
    <glyph glyph-name="a" unicode="a" horiz-adv-x="569" 
d="M433 0l19 94c-24 -36 -98 -103 -191 -103c-133 0 -205 88 -205 207c0 207 169 335 310 335c73 0 130 -24 161 -55l8 42h45l-101 -520h-46zM263 38c105 0 170 80 201 131l52 256c-25 35 -76 61 -151 61c-127 0 -259 -114 -259 -286c0 -108 66 -162 157 -162z" />
    <glyph glyph-name="b" unicode="b" horiz-adv-x="563" 
d="M45 89l122 641h47l-54 -293c62 68 126 96 200 96c117 0 197 -69 197 -192c0 -219 -135 -351 -312 -351c-97 0 -170 47 -200 99zM356 486c-95 0 -164 -58 -210 -125l-50 -250c33 -49 97 -74 158 -74c148 0 253 131 253 290c0 107 -67 159 -151 159z" />
    <glyph glyph-name="c" unicode="c" horiz-adv-x="502" 
d="M457 119l27 -32c-47 -66 -141 -97 -211 -97c-127 0 -217 84 -217 215c0 182 129 328 314 328c72 0 144 -35 168 -92l-39 -26c-27 51 -73 71 -140 71c-145 0 -253 -125 -253 -277c0 -106 69 -172 178 -172c65 0 130 31 173 82z" />
    <glyph glyph-name="d" unicode="d" horiz-adv-x="563" 
d="M433 0l19 94c-24 -36 -98 -103 -191 -103c-133 0 -205 88 -205 207c0 207 169 335 310 335c73 0 126 -24 157 -55l47 252h46l-137 -730h-46zM263 38c105 0 170 80 201 131l46 256c-25 35 -70 61 -145 61c-127 0 -259 -114 -259 -286c0 -108 66 -162 157 -162z" />
    <glyph glyph-name="e" unicode="e" horiz-adv-x="520" 
d="M457 119l27 -32c-47 -66 -141 -97 -211 -97c-127 0 -217 84 -217 215c0 182 149 328 314 328c101 0 160 -44 160 -122c0 -114 -147 -202 -420 -156c-3 -15 -4 -30 -4 -46c0 -106 69 -172 178 -172c65 0 130 31 173 82zM359 486c-107 0 -205 -80 -240 -190
c253 -38 361 40 361 110c0 45 -41 80 -121 80z" />
    <glyph glyph-name="f" unicode="f" horiz-adv-x="297" 
d="M48 477l8 43h104l6 32c27 145 105 186 182 186c54 0 95 -27 109 -61l-33 -28c-13 26 -39 44 -75 44c-65 0 -117 -35 -138 -152l-4 -21h170l-8 -43h-169l-80 -477h-48l81 477h-105z" />
    <glyph glyph-name="g" unicode="g" horiz-adv-x="583" 
d="M588 520l-94 -483c-32 -177 -127 -246 -258 -246c-86 0 -170 54 -187 119l42 19c23 -53 71 -91 153 -91c109 0 178 60 207 216l5 27c-34 -44 -92 -91 -189 -91c-135 0 -211 96 -211 200c0 228 158 343 313 343c81 0 130 -30 162 -66l11 53h46zM274 37
c95 0 167 69 198 131l47 243c-20 39 -75 75 -155 75c-129 0 -258 -100 -258 -287c0 -96 65 -162 168 -162z" />
    <glyph glyph-name="h" unicode="h" horiz-adv-x="566" 
d="M45 0l135 730h47l-54 -293c41 56 129 95 220 95c107 0 155 -59 155 -157c0 -28 -7 -72 -12 -101l-54 -274h-46l52 266c4 23 12 54 12 106c-1 75 -37 113 -113 113c-101 0 -186 -50 -231 -135l-64 -350h-47z" />
    <glyph glyph-name="i" unicode="i" horiz-adv-x="198" 
d="M50 0l96 520h47l-96 -520h-47zM165 689c0 20 15 36 35 36s36 -16 36 -36s-16 -35 -36 -35s-35 15 -35 35z" />
    <glyph glyph-name="j" unicode="j" horiz-adv-x="208" 
d="M205 520l-97 -527c-24 -127 -81 -202 -178 -202c-53 0 -88 32 -100 65l34 26c13 -19 25 -44 75 -44c62 0 105 59 124 158l95 524h47zM175 689c0 20 15 36 35 36s36 -16 36 -36s-16 -35 -36 -35s-35 15 -35 35z" />
    <glyph glyph-name="k" unicode="k" horiz-adv-x="502" 
d="M45 0l135 730h47l-88 -474l338 264h70l-299 -236l220 -284h-61l-201 259l-77 -57l-37 -202h-47z" />
    <glyph glyph-name="l" unicode="l" horiz-adv-x="189" 
d="M50 0l135 730h46l-135 -730h-46z" />
    <glyph glyph-name="m" unicode="m" horiz-adv-x="853" 
d="M835 344l-69 -344h-47l66 328c4 22 6 43 6 73c-1 46 -34 84 -99 84c-98 0 -151 -52 -191 -114l-71 -371h-47l69 356c14 76 -18 129 -94 129c-100 0 -169 -78 -198 -128l-69 -357h-46l99 520h46l-16 -85c40 50 105 97 183 97c76 0 133 -36 143 -96c49 60 115 96 189 96
c80 0 151 -33 152 -130c0 -17 -2 -37 -6 -58z" />
    <glyph glyph-name="n" unicode="n" horiz-adv-x="566" 
d="M45 0l96 520h47l-15 -83c52 54 129 95 220 95c97 0 155 -64 155 -157c0 -28 -7 -72 -12 -101l-59 -274h-46l57 266c4 23 12 54 12 106c-1 75 -43 113 -113 113c-101 0 -192 -62 -231 -135l-64 -350h-47z" />
    <glyph glyph-name="o" unicode="o" horiz-adv-x="586" 
d="M56 212c0 203 142 321 292 321c144 0 232 -102 232 -228c0 -199 -133 -315 -292 -315c-136 0 -232 95 -232 222zM106 230c0 -108 66 -193 182 -193c138 0 242 99 242 258c0 124 -86 191 -186 191c-120 0 -238 -105 -238 -256z" />
    <glyph glyph-name="p" unicode="p" horiz-adv-x="576" 
d="M3 -200l133 720h47l-15 -87c56 74 135 100 207 100c144 0 195 -97 195 -188c0 -247 -159 -355 -303 -355c-71 0 -142 29 -168 77l-49 -267h-47zM362 486c-97 0 -176 -72 -211 -137l-41 -220c33 -76 99 -92 167 -92c111 0 243 101 243 288c0 85 -43 161 -158 161z" />
    <glyph glyph-name="q" unicode="q" horiz-adv-x="582" 
d="M395 -200l57 270c-36 -44 -105 -80 -190 -80c-138 0 -206 85 -206 204c0 212 173 339 317 339c83 0 143 -28 159 -60l11 47h44l-146 -720h-46zM272 37c86 0 157 48 195 112l54 265c-24 58 -86 72 -157 72c-125 0 -258 -120 -258 -287c0 -101 49 -162 166 -162z" />
    <glyph glyph-name="r" unicode="r" horiz-adv-x="333" 
d="M45 0l99 520h46l-11 -62c29 50 88 74 130 74c44 0 76 -19 93 -48l-40 -30c-12 18 -27 31 -65 31c-55 0 -111 -51 -134 -111l-72 -374h-46z" />
    <glyph glyph-name="s" unicode="s" horiz-adv-x="449" 
d="M374 135c0 142 -274 90 -274 255c0 96 87 143 184 143c90 0 153 -35 191 -84l-38 -31c-24 33 -78 68 -148 68s-139 -26 -139 -92c0 -126 274 -74 274 -258c0 -99 -103 -146 -186 -146c-111 0 -183 49 -223 123l39 27c38 -68 99 -103 188 -103c56 0 132 30 132 98z" />
    <glyph glyph-name="t" unicode="t" horiz-adv-x="349" 
d="M55 477l8 43h104l22 120h46l-21 -120h181l-9 -43h-181l-56 -269c-6 -32 -12 -79 -12 -101c1 -50 34 -67 77 -67c53 0 87 29 105 48l24 -35c-29 -32 -81 -60 -135 -60c-79 0 -120 42 -121 104c0 23 7 71 13 101l58 279h-103z" />
    <glyph glyph-name="u" unicode="u" horiz-adv-x="569" 
d="M574 520l-101 -520h-46l18 98c-51 -67 -124 -108 -218 -108s-157 47 -157 140c0 26 5 59 11 89l60 301h47l-57 -288c-5 -24 -12 -59 -11 -93c1 -60 28 -102 122 -102c89 0 169 55 217 142l69 341h46z" />
    <glyph glyph-name="v" unicode="v" horiz-adv-x="478" 
d="M555 520l-320 -520h-32l-137 520h50l115 -442l269 442h55z" />
    <glyph glyph-name="w" unicode="w" horiz-adv-x="731" 
d="M803 520l-258 -520h-38l-80 453l-247 -453h-37l-72 520h47l59 -437l239 437h44l78 -441l216 441h49z" />
    <glyph glyph-name="x" unicode="x" horiz-adv-x="485" 
d="M536 520l-237 -254l152 -266h-54l-135 234l-218 -234h-58l248 270l-142 250h53l126 -219l204 219h61z" />
    <glyph glyph-name="y" unicode="y" horiz-adv-x="498" 
d="M2 -198l28 43c8 -5 17 -8 27 -8c42 0 79 36 144 144l17 29l-160 510h54l140 -449l255 449h55l-298 -522c-101 -177 -151 -208 -216 -208c-17 0 -33 4 -46 12z" />
    <glyph glyph-name="z" unicode="z" horiz-adv-x="461" 
d="M100 477l6 43h407v-26l-437 -451h342l-7 -43h-416v28l435 449h-330z" />
    <glyph glyph-name="braceleft" unicode="{" horiz-adv-x="311" 
d="M95 -74l42 209c10 54 -10 98 -71 98l9 44c36 0 94 21 111 110l36 193c16 80 57 130 147 130h60l-9 -46h-50c-58 0 -90 -40 -101 -99l-38 -195c-13 -65 -51 -108 -98 -114c56 -14 61 -75 51 -125l-36 -187c-15 -75 -1 -98 69 -98h44l-9 -46h-60c-79 0 -114 37 -97 126z
" />
    <glyph glyph-name="bar" unicode="|" horiz-adv-x="321" 
d="M198 0v700h49v-700h-49z" />
    <glyph glyph-name="braceright" unicode="}" horiz-adv-x="311" 
d="M227 135l-41 -209c-17 -89 -66 -126 -145 -126h-60l9 46h44c60 0 92 21 107 98l38 198c15 77 55 109 98 114c-42 11 -66 49 -53 114l38 195c11 59 -5 99 -63 99h-50l9 46h60c90 0 112 -50 96 -130l-38 -193c-13 -68 7 -107 69 -110l-9 -44c-61 0 -98 -44 -109 -98z" />
    <glyph glyph-name="asciitilde" unicode="~" 
d="M152 324l-24 32c36 35 80 63 130 63c10 0 20 -1 31 -4c67 -16 124 -69 196 -69c31 0 64 16 94 46l21 -34c-38 -36 -78 -56 -116 -56c-82 0 -145 73 -228 73c-36 0 -72 -19 -104 -51z" />
    <glyph glyph-name="uni00A0" unicode="&#xa0;" horiz-adv-x="300" 
 />
    <glyph glyph-name="exclamdown" unicode="&#xa1;" horiz-adv-x="310" 
d="M198 327l-99 -509h-52l99 509h52zM241 482c0 -17 -15 -35 -38 -35c-20 0 -35 18 -35 35c0 20 15 38 35 38c23 0 38 -18 38 -38z" />
    <glyph glyph-name="cent" unicode="&#xa2;" horiz-adv-x="525" 
d="M479 123l28 -32c-45 -65 -135 -101 -217 -101l-37 -190h-49l37 193c-116 14 -186 97 -186 216c0 164 114 309 291 323l33 168h49l-33 -167c73 -3 134 -35 163 -95l-39 -26c-31 48 -74 70 -133 71l-87 -443c67 0 135 28 180 83zM110 218c0 -96 52 -161 141 -176l85 439
c-125 -11 -226 -132 -226 -263z" />
    <glyph glyph-name="sterling" unicode="&#xa3;" 
d="M111 284l8 41h79c-8 43 -25 90 -25 149c0 125 89 234 244 234c85 0 141 -27 179 -73l-34 -36c-37 41 -86 59 -148 59c-116 0 -185 -83 -185 -179c0 -53 18 -102 25 -154h173l-8 -41h-164c0 -12 -1 -24 -4 -38c-13 -67 -45 -122 -71 -149c78 0 136 -51 217 -51
c52 0 81 19 120 50l15 -41c-34 -33 -86 -59 -139 -59c-85 0 -144 52 -226 52c-39 0 -81 -18 -127 -55l-14 39c30 26 59 43 88 53c49 50 87 111 87 187v12h-90z" />
    <glyph glyph-name="currency" unicode="&#xa4;" 
d="M116 347c0 53 17 104 48 145l-90 91l31 31l90 -90c37 31 86 50 145 50c58 0 107 -19 144 -50l96 94l31 -30l-96 -97c32 -40 49 -91 49 -144s-17 -104 -48 -144l91 -92l-30 -31l-92 91c-37 -31 -86 -51 -145 -51s-109 19 -146 51l-96 -96l-30 31l96 97
c-31 40 -48 91 -48 144zM162 347c0 -97 67 -183 178 -183c112 0 177 86 177 183c0 100 -66 184 -177 184c-110 0 -178 -85 -178 -184z" />
    <glyph glyph-name="yen" unicode="&#xa5;" horiz-adv-x="612" 
d="M117 305l9 44h165l-180 351h58l177 -345l314 345h63l-319 -351h167l-9 -44h-197l-24 -128h197l-9 -44h-197l-26 -133h-53l26 133h-195l9 44h195l24 128h-195z" />
    <glyph glyph-name="brokenbar" unicode="&#xa6;" horiz-adv-x="321" 
d="M247 440h-49v260h49v-260zM198 260h49v-260h-49v260z" />
    <glyph glyph-name="section" unicode="&#xa7;" horiz-adv-x="524" 
d="M91 215c0 104 73 188 174 209c-33 21 -64 59 -64 108c0 96 77 168 181 168c71 0 111 -34 127 -61l-37 -29c-15 21 -39 44 -96 44c-65 0 -125 -54 -125 -118c0 -46 35 -85 83 -106c96 -6 145 -72 145 -150c0 -105 -84 -188 -171 -206c33 -23 61 -58 61 -109
c0 -83 -65 -165 -180 -165c-68 0 -109 28 -129 57l36 34c15 -21 40 -45 97 -45c75 0 125 54 125 113c0 57 -40 90 -83 109c-84 7 -144 67 -144 147zM143 227c0 -71 46 -113 116 -113c83 0 168 65 168 157c0 59 -36 113 -117 113c-80 0 -167 -65 -167 -157z" />
    <glyph glyph-name="dieresis" unicode="&#xa8;" horiz-adv-x="438" 
d="M433 689c0 20 15 36 35 36s36 -16 36 -36s-16 -35 -36 -35s-35 15 -35 35zM199 689c0 20 15 36 35 36s36 -16 36 -36s-16 -35 -36 -35s-35 15 -35 35z" />
    <glyph glyph-name="copyright" unicode="&#xa9;" horiz-adv-x="1018" 
d="M104 221c0 240 185 432 432 432s432 -192 432 -432s-185 -432 -432 -432s-432 192 -432 432zM148 221c0 -214 165 -388 388 -388s388 174 388 388s-165 388 -388 388s-388 -174 -388 -388zM690 100l24 -36c-38 -48 -104 -73 -169 -73c-140 0 -238 92 -238 234
c0 131 96 234 224 234c69 0 130 -15 174 -56l-24 -39c-36 32 -86 50 -136 50c-21 0 -43 -3 -63 -10c-78 -26 -123 -101 -123 -181c0 -20 3 -42 9 -62c23 -78 94 -124 180 -124c58 0 110 26 142 63z" />
    <glyph glyph-name="ordfeminine" unicode="&#xaa;" horiz-adv-x="436" 
d="M199 542l-12 35c38 25 95 43 143 43c91 0 136 -35 136 -94c0 -10 -1 -21 -3 -32l-38 -194h-42l10 53c-31 -32 -84 -59 -152 -59c-71 0 -117 32 -117 86c0 77 81 109 180 109c54 0 94 -8 113 -13c3 13 5 25 5 35c0 53 -38 67 -94 67c-49 0 -90 -15 -129 -36zM252 337
c70 0 133 46 153 75l4 26c-19 4 -62 11 -111 11c-71 0 -126 -23 -126 -65c0 -29 28 -47 80 -47z" />
    <glyph glyph-name="guillemotleft" unicode="&#xab;" horiz-adv-x="503" 
d="M213 38l-138 210l1 4l205 195l29 -31l-179 -171l118 -180zM384 38l-138 210l1 4l205 195l29 -31l-179 -171l118 -180z" />
    <glyph glyph-name="logicalnot" unicode="&#xac;" 
d="M114 338v44h456v-175h-43v131h-413z" />
    <glyph glyph-name="uni00AD" unicode="&#xad;" horiz-adv-x="400" 
d="M141 248v47h228v-47h-228z" />
    <glyph glyph-name="registered" unicode="&#xae;" horiz-adv-x="578" 
d="M129 497c0 129 105 234 236 234c129 0 234 -105 234 -234c0 -131 -105 -236 -234 -236c-131 0 -236 105 -236 236zM170 496c0 -107 87 -194 194 -194s194 87 194 194s-87 194 -194 194s-194 -87 -194 -194zM312 360h-35v280h82c78 0 102 -38 102 -82
c0 -39 -28 -69 -66 -80l88 -118h-43l-81 112h-47v-112zM423 554c0 48 -26 59 -68 59h-43v-114h48c26 0 63 18 63 55z" />
    <glyph glyph-name="macron" unicode="&#xaf;" horiz-adv-x="444" 
d="M317 655l9 46h254l-9 -46h-254z" />
    <glyph glyph-name="degree" unicode="&#xb0;" horiz-adv-x="397" 
d="M139 569c0 82 65 145 144 145c80 0 144 -61 144 -143c0 -80 -64 -145 -144 -145c-79 0 -144 63 -144 143zM183 570c0 -55 45 -100 100 -100s101 45 101 100s-46 100 -101 100s-100 -45 -100 -100z" />
    <glyph glyph-name="plusminus" unicode="&#xb1;" 
d="M136 417v44h198v199h46v-199h201v-44h-201v-141h-46v141h-198zM136 174v44h445v-44h-445z" />
    <glyph glyph-name="twosuperior" unicode="&#xb2;" horiz-adv-x="413" 
d="M200 605l-35 18c34 65 95 102 175 102c83 0 131 -39 131 -105c0 -93 -106 -172 -206 -229l-81 -49h255l-8 -42h-333l7 39l125 75c102 62 194 125 194 196c0 49 -34 73 -87 73c-65 0 -101 -26 -137 -78z" />
    <glyph glyph-name="threesuperior" unicode="&#xb3;" horiz-adv-x="422" 
d="M214 621l-33 24c46 57 105 80 174 80c86 0 132 -34 132 -94c0 -54 -38 -95 -93 -112c46 -11 67 -44 67 -82c0 -81 -67 -142 -184 -142c-71 0 -138 32 -157 92l37 24c16 -51 70 -74 123 -74c78 0 133 33 133 93c0 51 -47 64 -98 64h-64l9 42h50c73 0 130 35 130 87
c0 44 -35 60 -89 60c-58 0 -97 -20 -137 -62z" />
    <glyph glyph-name="acute" unicode="&#xb4;" horiz-adv-x="433" 
d="M566 762l-141 -141l-29 24l133 148z" />
    <glyph glyph-name="mu" unicode="&#xb5;" horiz-adv-x="595" 
d="M601 520l-101 -520h-50l15 75c-45 -44 -127 -85 -208 -85c-76 0 -123 24 -152 64l-49 -254h-50l140 720h50l-56 -288c-25 -128 11 -195 131 -195c78 0 162 51 205 97l75 386h50z" />
    <glyph glyph-name="mu" unicode="&#x3bc;" horiz-adv-x="595" 
d="M601 520l-101 -520h-50l15 75c-45 -44 -127 -85 -208 -85c-76 0 -123 24 -152 64l-49 -254h-50l140 720h50l-56 -288c-25 -128 11 -195 131 -195c78 0 162 51 205 97l75 386h50z" />
    <glyph glyph-name="paragraph" unicode="&#xb6;" horiz-adv-x="435" 
d="M157 481c0 136 80 219 207 219h141v-46h-94v-622c0 -103 4 -240 -145 -240c-41 0 -78 16 -99 34l21 37c16 -12 44 -25 74 -25c83 0 100 62 100 191v234c-114 1 -205 81 -205 218z" />
    <glyph glyph-name="periodcentered" unicode="&#xb7;" horiz-adv-x="236" 
d="M114 296c0 17 15 35 38 35c20 0 35 -18 35 -35c0 -20 -15 -38 -35 -38c-23 0 -38 18 -38 38z" />
    <glyph glyph-name="cedilla" unicode="&#xb8;" horiz-adv-x="408" 
d="M175 -176l22 38c22 -12 39 -19 71 -19c41 0 68 15 68 40c0 23 -16 33 -54 33h-26l16 84h40l-8 -44c60 -1 83 -27 83 -67c0 -55 -50 -89 -124 -89c-31 0 -65 7 -88 24z" />
    <glyph glyph-name="onesuperior" unicode="&#xb9;" horiz-adv-x="286" 
d="M137 653l177 71h33l-83 -424h-44l72 372l-147 -58z" />
    <glyph glyph-name="ordmasculine" unicode="&#xba;" horiz-adv-x="461" 
d="M145 430c0 96 76 190 200 190c92 0 148 -55 148 -135c0 -102 -80 -191 -202 -191c-85 0 -146 56 -146 136zM192 437c0 -58 39 -101 103 -101c72 0 151 53 151 141c0 56 -35 101 -104 101c-89 0 -150 -65 -150 -141z" />
    <glyph glyph-name="guillemotright" unicode="&#xbb;" horiz-adv-x="503" 
d="M150 460l138 -210l-1 -4l-205 -195l-29 31l179 171l-118 180zM322 460l138 -210l-1 -4l-205 -195l-29 31l179 171l-118 180z" />
    <glyph glyph-name="onequarter" unicode="&#xbc;" horiz-adv-x="861" 
d="M160 25l546 676l33 -26l-544 -678zM167 653l177 71h33l-83 -424h-44l72 372l-147 -58zM682 0l19 100h-287l6 32l343 288h46l-54 -278h93l-8 -42h-93l-19 -100h-46zM495 142h214l42 213z" />
    <glyph glyph-name="onehalf" unicode="&#xbd;" horiz-adv-x="883" 
d="M160 25l546 676l33 -26l-544 -678zM167 653l177 71h33l-83 -424h-44l72 372l-147 -58zM592 305l-35 18c34 65 95 102 175 102c83 0 131 -39 131 -105c0 -93 -106 -172 -206 -229l-81 -49h255l-8 -42h-333l7 39l125 75c102 62 194 125 194 196c0 49 -34 73 -87 73
c-65 0 -101 -26 -137 -78z" />
    <glyph glyph-name="threequarters" unicode="&#xbe;" horiz-adv-x="951" 
d="M250 25l546 676l33 -26l-544 -678zM772 0l19 100h-287l6 32l343 288h46l-54 -278h93l-8 -42h-93l-19 -100h-46zM585 142h214l42 213zM214 621l-33 24c46 57 105 80 174 80c86 0 132 -34 132 -94c0 -54 -38 -95 -93 -112c46 -11 67 -44 67 -82c0 -81 -67 -142 -184 -142
c-71 0 -138 32 -157 92l37 24c16 -51 70 -74 123 -74c78 0 133 33 133 93c0 51 -47 64 -98 64h-64l9 42h50c73 0 130 35 130 87c0 44 -35 60 -89 60c-58 0 -97 -20 -137 -62z" />
    <glyph glyph-name="questiondown" unicode="&#xbf;" horiz-adv-x="603" 
d="M132 -29c0 -65 55 -113 164 -113s187 57 227 120l35 -25c-45 -74 -132 -144 -276 -144c-135 0 -205 66 -205 158c0 215 269 195 306 319c7 23 5 27 5 43h45v-13c0 -193 -301 -150 -301 -345zM481 482c0 -17 -15 -35 -38 -35c-20 0 -35 18 -35 35c0 20 15 38 35 38
c23 0 38 -18 38 -38z" />
    <glyph glyph-name="Agrave" unicode="&#xc0;" horiz-adv-x="669" 
d="M-21 0l444 703h47l170 -703h-51l-51 205h-370l-128 -205h-61zM436 631l-237 -376h329zM473 760l-174 96l22 42l168 -109z" />
    <glyph glyph-name="Aacute" unicode="&#xc1;" horiz-adv-x="669" 
d="M-21 0l444 703h47l170 -703h-51l-51 205h-370l-128 -205h-61zM436 631l-237 -376h329zM596 855l-178 -87l-15 30l173 100z" />
    <glyph glyph-name="Acircumflex" unicode="&#xc2;" horiz-adv-x="669" 
d="M-21 0l444 703h47l170 -703h-51l-51 205h-370l-128 -205h-61zM436 631l-237 -376h329zM459 897l171 -104l-27 -30l-148 87l-173 -87l-13 38l186 96h4z" />
    <glyph glyph-name="Atilde" unicode="&#xc3;" horiz-adv-x="669" 
d="M-21 0l444 703h47l170 -703h-51l-51 205h-370l-128 -205h-61zM436 631l-237 -376h329zM296 804l-15 30c20 16 60 41 97 41c60 0 111 -50 160 -50c28 0 52 13 82 34l14 -30c-21 -21 -62 -46 -98 -46c-57 0 -114 50 -163 50c-29 0 -53 -12 -77 -29z" />
    <glyph glyph-name="Adieresis" unicode="&#xc4;" horiz-adv-x="669" 
d="M-21 0l444 703h47l170 -703h-51l-51 205h-370l-128 -205h-61zM436 631l-237 -376h329zM532 822c0 18 14 33 33 33c18 0 33 -15 33 -33c0 -19 -15 -33 -33 -33c-19 0 -33 14 -33 33zM304 822c0 18 14 33 32 33c19 0 34 -15 34 -33c0 -19 -15 -33 -34 -33
c-18 0 -32 14 -32 33z" />
    <glyph glyph-name="Aring" unicode="&#xc5;" horiz-adv-x="669" 
d="M-21 0l444 703h47l170 -703h-51l-51 205h-370l-128 -205h-61zM436 631l-237 -376h329zM356 811c0 56 47 96 108 96c58 0 97 -30 97 -85c0 -64 -56 -98 -110 -98c-56 0 -95 31 -95 87zM396 814c0 -30 20 -50 58 -50c44 0 67 23 67 55c0 28 -21 48 -60 48
c-41 0 -65 -25 -65 -53z" />
    <glyph glyph-name="AE" unicode="&#xc6;" horiz-adv-x="1091" 
d="M510 0l40 205h-317l-188 -205h-70l642 700h520l-10 -50h-438l-50 -269h407l-10 -50h-409l-54 -281h448l-10 -50h-501zM277 255h282l78 396z" />
    <glyph glyph-name="Ccedilla" unicode="&#xc7;" horiz-adv-x="684" 
d="M247 -174l21 36c25 -13 50 -19 71 -19c43 0 68 15 68 42c0 24 -19 31 -54 31h-26l14 77c-172 14 -267 130 -267 295c0 227 173 421 419 421c134 0 214 -54 248 -107l-36 -33c-46 56 -104 90 -217 90c-216 0 -358 -168 -358 -369c0 -150 96 -249 257 -249
c109 0 185 35 244 93l30 -35c-59 -61 -147 -108 -280 -108l-6 -35c59 -1 83 -29 83 -67c0 -54 -50 -89 -122 -89c-33 0 -66 9 -89 26z" />
    <glyph glyph-name="Egrave" unicode="&#xc8;" horiz-adv-x="636" 
d="M55 0l136 700h491l-10 -50h-438l-50 -269h407l-10 -50h-409l-54 -281h448l-10 -50h-501zM497 760l-174 96l22 42l168 -109z" />
    <glyph glyph-name="Eacute" unicode="&#xc9;" horiz-adv-x="636" 
d="M55 0l136 700h491l-10 -50h-438l-50 -269h407l-10 -50h-409l-54 -281h448l-10 -50h-501zM595 855l-178 -87l-15 30l173 100z" />
    <glyph glyph-name="Ecircumflex" unicode="&#xca;" horiz-adv-x="636" 
d="M55 0l136 700h491l-10 -50h-438l-50 -269h407l-10 -50h-409l-54 -281h448l-10 -50h-501zM479 897l171 -104l-27 -30l-148 87l-173 -87l-13 38l186 96h4z" />
    <glyph glyph-name="Edieresis" unicode="&#xcb;" horiz-adv-x="636" 
d="M55 0l136 700h491l-10 -50h-438l-50 -269h407l-10 -50h-409l-54 -281h448l-10 -50h-501zM542 822c0 18 14 33 33 33c18 0 33 -15 33 -33c0 -19 -15 -33 -33 -33c-19 0 -33 14 -33 33zM314 822c0 18 14 33 32 33c19 0 34 -15 34 -33c0 -19 -15 -33 -34 -33
c-18 0 -32 14 -32 33z" />
    <glyph glyph-name="Igrave" unicode="&#xcc;" horiz-adv-x="233" 
d="M65 0l136 700h53l-136 -700h-53zM251 760l-174 96l22 42l168 -109z" />
    <glyph glyph-name="Iacute" unicode="&#xcd;" horiz-adv-x="233" 
d="M65 0l136 700h53l-136 -700h-53zM395 855l-178 -87l-15 30l173 100z" />
    <glyph glyph-name="Icircumflex" unicode="&#xce;" horiz-adv-x="233" 
d="M65 0l136 700h53l-136 -700h-53zM253 897l171 -104l-27 -30l-148 87l-173 -87l-13 38l186 96h4z" />
    <glyph glyph-name="Idieresis" unicode="&#xcf;" horiz-adv-x="233" 
d="M65 0l136 700h53l-136 -700h-53zM318 822c0 18 14 33 33 33c18 0 33 -15 33 -33c0 -19 -15 -33 -33 -33c-19 0 -33 14 -33 33zM90 822c0 18 14 33 32 33c19 0 34 -15 34 -33c0 -19 -15 -33 -34 -33c-18 0 -32 14 -32 33z" />
    <glyph glyph-name="Eth" unicode="&#xd0;" horiz-adv-x="761" 
d="M44 323l9 47h127l64 330h212c234 0 318 -117 318 -272c0 -239 -157 -428 -462 -428h-204l63 323h-127zM445 650h-157l-55 -280h208l-9 -47h-208l-53 -273h153c273 0 394 177 394 370c0 137 -75 230 -273 230z" />
    <glyph glyph-name="Ntilde" unicode="&#xd1;" horiz-adv-x="736" 
d="M631 0h-43l-364 614l-118 -614h-51l136 700h44l361 -612l120 612h51zM344 804l-15 30c20 16 60 41 97 41c60 0 111 -50 160 -50c28 0 52 13 82 34l14 -30c-21 -21 -62 -46 -98 -46c-57 0 -114 50 -163 50c-29 0 -53 -12 -77 -29z" />
    <glyph glyph-name="Ograve" unicode="&#xd2;" horiz-adv-x="784" 
d="M88 288c0 230 171 421 410 421c181 0 310 -126 310 -297c0 -228 -172 -421 -409 -421c-198 0 -311 128 -311 297zM144 298c0 -153 103 -257 258 -257c210 0 350 174 350 362c0 140 -97 256 -257 256c-219 0 -351 -180 -351 -361zM567 760l-174 96l22 42l168 -109z" />
    <glyph glyph-name="Oacute" unicode="&#xd3;" horiz-adv-x="784" 
d="M88 288c0 230 171 421 410 421c181 0 310 -126 310 -297c0 -228 -172 -421 -409 -421c-198 0 -311 128 -311 297zM144 298c0 -153 103 -257 258 -257c210 0 350 174 350 362c0 140 -97 256 -257 256c-219 0 -351 -180 -351 -361zM665 855l-178 -87l-15 30l173 100z" />
    <glyph glyph-name="Ocircumflex" unicode="&#xd4;" horiz-adv-x="784" 
d="M88 288c0 230 171 421 410 421c181 0 310 -126 310 -297c0 -228 -172 -421 -409 -421c-198 0 -311 128 -311 297zM144 298c0 -153 103 -257 258 -257c210 0 350 174 350 362c0 140 -97 256 -257 256c-219 0 -351 -180 -351 -361zM537 897l171 -104l-27 -30l-148 87
l-173 -87l-13 38l186 96h4z" />
    <glyph glyph-name="Otilde" unicode="&#xd5;" horiz-adv-x="784" 
d="M88 288c0 230 171 421 410 421c181 0 310 -126 310 -297c0 -228 -172 -421 -409 -421c-198 0 -311 128 -311 297zM144 298c0 -153 103 -257 258 -257c210 0 350 174 350 362c0 140 -97 256 -257 256c-219 0 -351 -180 -351 -361zM368 804l-15 30c20 16 60 41 97 41
c60 0 111 -50 160 -50c28 0 52 13 82 34l14 -30c-21 -21 -62 -46 -98 -46c-57 0 -114 50 -163 50c-29 0 -53 -12 -77 -29z" />
    <glyph glyph-name="Odieresis" unicode="&#xd6;" horiz-adv-x="784" 
d="M88 288c0 230 171 421 410 421c181 0 310 -126 310 -297c0 -228 -172 -421 -409 -421c-198 0 -311 128 -311 297zM144 298c0 -153 103 -257 258 -257c210 0 350 174 350 362c0 140 -97 256 -257 256c-219 0 -351 -180 -351 -361zM605 822c0 18 14 33 33 33
c18 0 33 -15 33 -33c0 -19 -15 -33 -33 -33c-19 0 -33 14 -33 33zM377 822c0 18 14 33 32 33c19 0 34 -15 34 -33c0 -19 -15 -33 -34 -33c-18 0 -32 14 -32 33z" />
    <glyph glyph-name="multiply" unicode="&#xd7;" 
d="M165 500l32 32l141 -141l142 141l32 -32l-142 -141l142 -142l-32 -32l-142 142l-141 -142l-32 32l142 142z" />
    <glyph glyph-name="Oslash" unicode="&#xd8;" horiz-adv-x="784" 
d="M94 37l57 58c-41 51 -63 118 -63 193c0 230 171 421 410 421c79 0 149 -24 202 -66l52 52l30 -29l-51 -51c49 -52 77 -122 77 -203c0 -228 -172 -421 -419 -421c-86 0 -156 26 -207 71l-57 -56zM690 576l-469 -474c43 -40 103 -61 172 -61c219 0 359 186 359 362
c0 66 -22 127 -62 173zM191 134l470 470c-43 34 -98 55 -166 55c-219 0 -351 -180 -351 -361c0 -66 17 -122 47 -164z" />
    <glyph glyph-name="Ugrave" unicode="&#xd9;" horiz-adv-x="717" 
d="M757 700l-79 -407c-26 -132 -116 -301 -331 -301c-148 0 -253 82 -252 235c0 23 3 47 8 73l78 400h53l-76 -391c-5 -24 -7 -46 -7 -67c-1 -138 84 -200 200 -200c148 0 245 98 277 262l77 396h52zM537 760l-174 96l22 42l168 -109z" />
    <glyph glyph-name="Uacute" unicode="&#xda;" horiz-adv-x="717" 
d="M757 700l-79 -407c-26 -132 -116 -301 -331 -301c-148 0 -253 82 -252 235c0 23 3 47 8 73l78 400h53l-76 -391c-5 -24 -7 -46 -7 -67c-1 -138 84 -200 200 -200c148 0 245 98 277 262l77 396h52zM635 855l-178 -87l-15 30l173 100z" />
    <glyph glyph-name="Ucircumflex" unicode="&#xdb;" horiz-adv-x="717" 
d="M757 700l-79 -407c-26 -132 -116 -301 -331 -301c-148 0 -253 82 -252 235c0 23 3 47 8 73l78 400h53l-76 -391c-5 -24 -7 -46 -7 -67c-1 -138 84 -200 200 -200c148 0 245 98 277 262l77 396h52zM503 897l171 -104l-27 -30l-148 87l-173 -87l-13 38l186 96h4z" />
    <glyph glyph-name="Udieresis" unicode="&#xdc;" horiz-adv-x="717" 
d="M757 700l-79 -407c-26 -132 -116 -301 -331 -301c-148 0 -253 82 -252 235c0 23 3 47 8 73l78 400h53l-76 -391c-5 -24 -7 -46 -7 -67c-1 -138 84 -200 200 -200c148 0 245 98 277 262l77 396h52zM571 822c0 18 14 33 33 33c18 0 33 -15 33 -33c0 -19 -15 -33 -33 -33
c-19 0 -33 14 -33 33zM343 822c0 18 14 33 32 33c19 0 34 -15 34 -33c0 -19 -15 -33 -34 -33c-18 0 -32 14 -32 33z" />
    <glyph glyph-name="Yacute" unicode="&#xdd;" horiz-adv-x="612" 
d="M723 700l-357 -393l-60 -307h-53l60 307l-202 393h58l177 -344l311 344h66zM585 855l-178 -87l-15 30l173 100z" />
    <glyph glyph-name="Thorn" unicode="&#xde;" horiz-adv-x="649" 
d="M108 0h-53l136 700h53l-23 -120h195c173 0 246 -59 246 -175c0 -128 -92 -245 -329 -245h-194zM411 531h-200l-62 -322h192c184 -1 265 84 265 193c0 75 -54 129 -195 129z" />
    <glyph glyph-name="germandbls" unicode="&#xdf;" horiz-adv-x="550" 
d="M411 738c128 0 173 -80 173 -158c0 -102 -51 -187 -146 -217c75 -14 113 -74 113 -140c0 -146 -98 -232 -257 -232c-52 0 -100 12 -123 26l24 45c24 -13 57 -21 105 -21c114 0 195 64 195 176c0 64 -42 116 -172 116h-52l9 50h46c126 0 203 78 203 192
c0 72 -43 116 -123 116c-127 0 -171 -92 -191 -196l-96 -495h-49l100 512c27 141 104 226 241 226z" />
    <glyph glyph-name="agrave" unicode="&#xe0;" horiz-adv-x="569" 
d="M433 0l19 94c-24 -36 -98 -103 -191 -103c-133 0 -205 88 -205 207c0 207 169 335 310 335c73 0 130 -24 161 -55l8 42h45l-101 -520h-46zM263 38c105 0 170 80 201 131l52 256c-25 35 -76 61 -151 61c-127 0 -259 -114 -259 -286c0 -108 66 -162 157 -162zM397 616
l-92 149l40 27l83 -156z" />
    <glyph glyph-name="aacute" unicode="&#xe1;" horiz-adv-x="569" 
d="M433 0l19 94c-24 -36 -98 -103 -191 -103c-133 0 -205 88 -205 207c0 207 169 335 310 335c73 0 130 -24 161 -55l8 42h45l-101 -520h-46zM263 38c105 0 170 80 201 131l52 256c-25 35 -76 61 -151 61c-127 0 -259 -114 -259 -286c0 -108 66 -162 157 -162zM564 760
l-131 -130l-26 24l123 138z" />
    <glyph glyph-name="acircumflex" unicode="&#xe2;" horiz-adv-x="569" 
d="M433 0l19 94c-24 -36 -98 -103 -191 -103c-133 0 -205 88 -205 207c0 207 169 335 310 335c73 0 130 -24 161 -55l8 42h45l-101 -520h-46zM263 38c105 0 170 80 201 131l52 256c-25 35 -76 61 -151 61c-127 0 -259 -114 -259 -286c0 -108 66 -162 157 -162zM439 777
l115 -121l-31 -29l-91 97l-137 -97l-18 32l158 118h4z" />
    <glyph glyph-name="atilde" unicode="&#xe3;" horiz-adv-x="569" 
d="M433 0l19 94c-24 -36 -98 -103 -191 -103c-133 0 -205 88 -205 207c0 207 169 335 310 335c73 0 130 -24 161 -55l8 42h45l-101 -520h-46zM263 38c105 0 170 80 201 131l52 256c-25 35 -76 61 -151 61c-127 0 -259 -114 -259 -286c0 -108 66 -162 157 -162zM277 639
l-21 26c30 28 68 54 105 54c56 0 79 -52 119 -52c28 0 54 20 74 39l19 -27c-26 -29 -54 -54 -96 -54c-61 0 -80 52 -119 52c-32 0 -59 -23 -81 -38z" />
    <glyph glyph-name="adieresis" unicode="&#xe4;" horiz-adv-x="569" 
d="M433 0l19 94c-24 -36 -98 -103 -191 -103c-133 0 -205 88 -205 207c0 207 169 335 310 335c73 0 130 -24 161 -55l8 42h45l-101 -520h-46zM263 38c105 0 170 80 201 131l52 256c-25 35 -76 61 -151 61c-127 0 -259 -114 -259 -286c0 -108 66 -162 157 -162zM495 689
c0 20 15 36 35 36s36 -16 36 -36s-16 -35 -36 -35s-35 15 -35 35zM261 689c0 20 15 36 35 36s36 -16 36 -36s-16 -35 -36 -35s-35 15 -35 35z" />
    <glyph glyph-name="aring" unicode="&#xe5;" horiz-adv-x="569" 
d="M433 0l19 94c-24 -36 -98 -103 -191 -103c-133 0 -205 88 -205 207c0 207 169 335 310 335c73 0 130 -24 161 -55l8 42h45l-101 -520h-46zM263 38c105 0 170 80 201 131l52 256c-25 35 -76 61 -151 61c-127 0 -259 -114 -259 -286c0 -108 66 -162 157 -162zM329 695
c0 51 40 99 98 99c54 0 87 -37 87 -83c0 -56 -38 -102 -100 -102c-51 0 -85 35 -85 86zM369 697c0 -27 19 -48 48 -48c33 0 57 24 57 55c0 27 -14 50 -50 50c-30 0 -55 -23 -55 -57z" />
    <glyph glyph-name="ae" unicode="&#xe6;" horiz-adv-x="910" 
d="M822 119l27 -32c-47 -66 -141 -97 -211 -97c-98 0 -174 49 -204 132c-62 -87 -148 -129 -254 -129c-105 0 -152 69 -152 130c0 112 105 177 274 177c39 0 104 -8 128 -16c6 30 9 58 9 83c-1 72 -34 119 -133 119c-58 0 -117 -27 -165 -63l-26 35c55 47 142 75 205 75
c105 0 160 -47 168 -129c59 78 150 129 247 129c101 0 160 -44 160 -122c0 -113 -138 -207 -423 -178c-1 -8 -1 -16 -1 -24c0 -106 69 -172 178 -172c65 0 130 31 173 82zM189 40c125 0 193 80 220 127l13 70c-29 10 -73 16 -121 16c-125 0 -223 -37 -223 -120
c0 -63 43 -93 111 -93zM724 486c-114 0 -217 -91 -246 -211c265 -23 367 62 367 131c0 45 -41 80 -121 80z" />
    <glyph glyph-name="ccedilla" unicode="&#xe7;" horiz-adv-x="502" 
d="M147 -176l22 38c22 -12 39 -19 71 -19c41 0 68 15 68 40c0 23 -16 33 -54 33h-26l14 76c-110 12 -186 92 -186 213c0 182 129 328 314 328c72 0 144 -35 168 -92l-39 -26c-27 51 -73 71 -140 71c-145 0 -253 -125 -253 -277c0 -106 69 -172 178 -172c65 0 130 31 173 82
l27 -32c-45 -63 -133 -94 -202 -97l-6 -34c60 -1 83 -27 83 -67c0 -55 -50 -89 -124 -89c-31 0 -65 7 -88 24z" />
    <glyph glyph-name="egrave" unicode="&#xe8;" horiz-adv-x="520" 
d="M457 119l27 -32c-47 -66 -141 -97 -211 -97c-127 0 -217 84 -217 215c0 182 149 328 314 328c101 0 160 -44 160 -122c0 -114 -147 -202 -420 -156c-3 -15 -4 -30 -4 -46c0 -106 69 -172 178 -172c65 0 130 31 173 82zM359 486c-107 0 -205 -80 -240 -190
c253 -38 361 40 361 110c0 45 -41 80 -121 80zM415 616l-92 149l40 27l83 -156z" />
    <glyph glyph-name="eacute" unicode="&#xe9;" horiz-adv-x="520" 
d="M457 119l27 -32c-47 -66 -141 -97 -211 -97c-127 0 -217 84 -217 215c0 182 149 328 314 328c101 0 160 -44 160 -122c0 -114 -147 -202 -420 -156c-3 -15 -4 -30 -4 -46c0 -106 69 -172 178 -172c65 0 130 31 173 82zM359 486c-107 0 -205 -80 -240 -190
c253 -38 361 40 361 110c0 45 -41 80 -121 80zM534 760l-131 -130l-26 24l123 138z" />
    <glyph glyph-name="ecircumflex" unicode="&#xea;" horiz-adv-x="520" 
d="M457 119l27 -32c-47 -66 -141 -97 -211 -97c-127 0 -217 84 -217 215c0 182 149 328 314 328c101 0 160 -44 160 -122c0 -114 -147 -202 -420 -156c-3 -15 -4 -30 -4 -46c0 -106 69 -172 178 -172c65 0 130 31 173 82zM359 486c-107 0 -205 -80 -240 -190
c253 -38 361 40 361 110c0 45 -41 80 -121 80zM423 777l115 -121l-31 -29l-91 97l-137 -97l-18 32l158 118h4z" />
    <glyph glyph-name="edieresis" unicode="&#xeb;" horiz-adv-x="520" 
d="M457 119l27 -32c-47 -66 -141 -97 -211 -97c-127 0 -217 84 -217 215c0 182 149 328 314 328c101 0 160 -44 160 -122c0 -114 -147 -202 -420 -156c-3 -15 -4 -30 -4 -46c0 -106 69 -172 178 -172c65 0 130 31 173 82zM359 486c-107 0 -205 -80 -240 -190
c253 -38 361 40 361 110c0 45 -41 80 -121 80zM480 689c0 20 15 36 35 36s36 -16 36 -36s-16 -35 -36 -35s-35 15 -35 35zM246 689c0 20 15 36 35 36s36 -16 36 -36s-16 -35 -36 -35s-35 15 -35 35z" />
    <glyph glyph-name="igrave" unicode="&#xec;" horiz-adv-x="170" 
d="M34 0l96 520h47l-96 -520h-47zM154 616l-92 149l40 27l83 -156z" />
    <glyph glyph-name="iacute" unicode="&#xed;" horiz-adv-x="170" 
d="M34 0l96 520h47l-96 -520h-47zM308 760l-131 -130l-26 24l123 138z" />
    <glyph glyph-name="icircumflex" unicode="&#xee;" horiz-adv-x="170" 
d="M34 0l96 520h47l-96 -520h-47zM191 777l115 -121l-31 -29l-91 97l-137 -97l-18 32l158 118h4z" />
    <glyph glyph-name="idieresis" unicode="&#xef;" horiz-adv-x="198" 
d="M50 0l96 520h47l-96 -520h-47zM101 689c0 20 15 36 35 36s36 -16 36 -36s-16 -35 -36 -35s-35 15 -35 35zM221 689c0 20 15 36 35 36s36 -16 36 -36s-16 -35 -36 -35s-35 15 -35 35z" />
    <glyph glyph-name="eth" unicode="&#xf0;" horiz-adv-x="586" 
d="M410 788l35 -17l-40 -67c135 -59 175 -174 175 -292c0 -293 -155 -422 -307 -422c-150 0 -233 107 -233 222c0 204 159 311 299 311c84 0 161 -30 196 -86c-7 107 -60 187 -153 229l-52 -88l-38 18l52 84c-32 10 -68 16 -107 18l17 43c43 -5 80 -13 113 -23zM90 215
c0 -95 65 -178 186 -178c141 0 249 135 249 309c0 12 -2 21 -3 29c-24 59 -90 101 -187 101c-112 0 -245 -86 -245 -261z" />
    <glyph glyph-name="ntilde" unicode="&#xf1;" horiz-adv-x="566" 
d="M45 0l96 520h47l-15 -83c52 54 129 95 220 95c97 0 155 -64 155 -157c0 -28 -7 -72 -12 -101l-59 -274h-46l57 266c4 23 12 54 12 106c-1 75 -43 113 -113 113c-101 0 -192 -62 -231 -135l-64 -350h-47zM269 639l-21 26c30 28 68 54 105 54c56 0 79 -52 119 -52
c28 0 54 20 74 39l19 -27c-26 -29 -54 -54 -96 -54c-61 0 -80 52 -119 52c-32 0 -59 -23 -81 -38z" />
    <glyph glyph-name="ograve" unicode="&#xf2;" horiz-adv-x="586" 
d="M56 212c0 203 142 321 292 321c144 0 232 -102 232 -228c0 -199 -133 -315 -292 -315c-136 0 -232 95 -232 222zM106 230c0 -108 66 -193 182 -193c138 0 242 99 242 258c0 124 -86 191 -186 191c-120 0 -238 -105 -238 -256zM396 616l-92 149l40 27l83 -156z" />
    <glyph glyph-name="oacute" unicode="&#xf3;" horiz-adv-x="586" 
d="M56 212c0 203 142 321 292 321c144 0 232 -102 232 -228c0 -199 -133 -315 -292 -315c-136 0 -232 95 -232 222zM106 230c0 -108 66 -193 182 -193c138 0 242 99 242 258c0 124 -86 191 -186 191c-120 0 -238 -105 -238 -256zM519 760l-131 -130l-26 24l123 138z" />
    <glyph glyph-name="ocircumflex" unicode="&#xf4;" horiz-adv-x="586" 
d="M56 212c0 203 142 321 292 321c144 0 232 -102 232 -228c0 -199 -133 -315 -292 -315c-136 0 -232 95 -232 222zM106 230c0 -108 66 -193 182 -193c138 0 242 99 242 258c0 124 -86 191 -186 191c-120 0 -238 -105 -238 -256zM403 777l115 -121l-31 -29l-91 97l-137 -97
l-18 32l158 118h4z" />
    <glyph glyph-name="otilde" unicode="&#xf5;" horiz-adv-x="586" 
d="M56 212c0 203 142 321 292 321c144 0 232 -102 232 -228c0 -199 -133 -315 -292 -315c-136 0 -232 95 -232 222zM106 230c0 -108 66 -193 182 -193c138 0 242 99 242 258c0 124 -86 191 -186 191c-120 0 -238 -105 -238 -256zM232 639l-21 26c30 28 68 54 105 54
c56 0 79 -52 119 -52c28 0 54 20 74 39l19 -27c-26 -29 -54 -54 -96 -54c-61 0 -80 52 -119 52c-32 0 -59 -23 -81 -38z" />
    <glyph glyph-name="odieresis" unicode="&#xf6;" horiz-adv-x="586" 
d="M56 212c0 203 142 321 292 321c144 0 232 -102 232 -228c0 -199 -133 -315 -292 -315c-136 0 -232 95 -232 222zM106 230c0 -108 66 -193 182 -193c138 0 242 99 242 258c0 124 -86 191 -186 191c-120 0 -238 -105 -238 -256zM451 689c0 20 15 36 35 36s36 -16 36 -36
s-16 -35 -36 -35s-35 15 -35 35zM217 689c0 20 15 36 35 36s36 -16 36 -36s-16 -35 -36 -35s-35 15 -35 35z" />
    <glyph glyph-name="divide" unicode="&#xf7;" 
d="M308 571c0 15 13 32 34 32c19 0 32 -17 32 -32c0 -18 -13 -34 -32 -34c-21 0 -34 16 -34 34zM308 150c0 16 13 32 34 32c19 0 32 -16 32 -32c0 -18 -13 -34 -32 -34c-21 0 -34 16 -34 34zM119 338v44h445v-44h-445z" />
    <glyph glyph-name="oslash" unicode="&#xf8;" horiz-adv-x="586" 
d="M153 29l-64 -66l-32 32l61 61c-39 39 -62 94 -62 156c0 203 142 321 292 321c76 0 136 -28 176 -73l69 67l30 -30l-73 -74c20 -35 30 -74 30 -118c0 -199 -133 -315 -292 -315c-53 0 -98 15 -135 39zM512 386l-323 -322c27 -17 60 -27 99 -27c138 0 242 99 242 258
c0 36 -6 65 -18 91zM155 92l333 330c-35 42 -87 64 -144 64c-120 0 -238 -105 -238 -256c0 -55 15 -106 49 -138z" />
    <glyph glyph-name="ugrave" unicode="&#xf9;" horiz-adv-x="569" 
d="M574 520l-101 -520h-46l18 98c-51 -67 -124 -108 -218 -108s-157 47 -157 140c0 26 5 59 11 89l60 301h47l-57 -288c-5 -24 -12 -59 -11 -93c1 -60 28 -102 122 -102c89 0 169 55 217 142l69 341h46zM409 616l-92 149l40 27l83 -156z" />
    <glyph glyph-name="uacute" unicode="&#xfa;" horiz-adv-x="569" 
d="M574 520l-101 -520h-46l18 98c-51 -67 -124 -108 -218 -108s-157 47 -157 140c0 26 5 59 11 89l60 301h47l-57 -288c-5 -24 -12 -59 -11 -93c1 -60 28 -102 122 -102c89 0 169 55 217 142l69 341h46zM536 760l-131 -130l-26 24l123 138z" />
    <glyph glyph-name="ucircumflex" unicode="&#xfb;" horiz-adv-x="569" 
d="M574 520l-101 -520h-46l18 98c-51 -67 -124 -108 -218 -108s-157 47 -157 140c0 26 5 59 11 89l60 301h47l-57 -288c-5 -24 -12 -59 -11 -93c1 -60 28 -102 122 -102c89 0 169 55 217 142l69 341h46zM399 777l115 -121l-31 -29l-91 97l-137 -97l-18 32l158 118h4z" />
    <glyph glyph-name="udieresis" unicode="&#xfc;" horiz-adv-x="569" 
d="M574 520l-101 -520h-46l18 98c-51 -67 -124 -108 -218 -108s-157 47 -157 140c0 26 5 59 11 89l60 301h47l-57 -288c-5 -24 -12 -59 -11 -93c1 -60 28 -102 122 -102c89 0 169 55 217 142l69 341h46zM457 689c0 20 15 36 35 36s36 -16 36 -36s-16 -35 -36 -35
s-35 15 -35 35zM223 689c0 20 15 36 35 36s36 -16 36 -36s-16 -35 -36 -35s-35 15 -35 35z" />
    <glyph glyph-name="yacute" unicode="&#xfd;" horiz-adv-x="498" 
d="M2 -198l28 43c8 -5 17 -8 27 -8c42 0 79 36 144 144l17 29l-160 510h54l140 -449l255 449h55l-298 -522c-101 -177 -151 -208 -216 -208c-17 0 -33 4 -46 12zM475 760l-131 -130l-26 24l123 138z" />
    <glyph glyph-name="thorn" unicode="&#xfe;" horiz-adv-x="569" 
d="M5 -200l172 930h46l-55 -297c56 74 136 100 207 100c139 0 191 -104 191 -193c0 -229 -159 -350 -304 -350c-70 0 -137 29 -161 77l-50 -267h-46zM363 486c-97 0 -177 -72 -210 -137l-39 -209c26 -77 89 -103 158 -103c111 0 244 109 244 282c0 104 -47 167 -153 167z
" />
    <glyph glyph-name="ydieresis" unicode="&#xff;" horiz-adv-x="498" 
d="M2 -198l28 43c8 -5 17 -8 27 -8c42 0 79 36 144 144l17 29l-160 510h54l140 -449l255 449h55l-298 -522c-101 -177 -151 -208 -216 -208c-17 0 -33 4 -46 12zM412 689c0 20 15 36 35 36s36 -16 36 -36s-16 -35 -36 -35s-35 15 -35 35zM178 689c0 20 15 36 35 36
s36 -16 36 -36s-16 -35 -36 -35s-35 15 -35 35z" />
    <glyph glyph-name="Amacron" unicode="&#x100;" horiz-adv-x="669" 
d="M-21 0l444 703h47l170 -703h-51l-51 205h-370l-128 -205h-61zM436 631l-237 -376h329zM318 800l9 46h294l-9 -46h-294z" />
    <glyph glyph-name="amacron" unicode="&#x101;" horiz-adv-x="569" 
d="M433 0l19 94c-24 -36 -98 -103 -191 -103c-133 0 -205 88 -205 207c0 207 169 335 310 335c73 0 130 -24 161 -55l8 42h45l-101 -520h-46zM263 38c105 0 170 80 201 131l52 256c-25 35 -76 61 -151 61c-127 0 -259 -114 -259 -286c0 -108 66 -162 157 -162zM293 655l9 46
h254l-9 -46h-254z" />
    <glyph glyph-name="Abreve" unicode="&#x102;" horiz-adv-x="669" 
d="M-21 0l444 703h47l170 -703h-51l-51 205h-370l-128 -205h-61zM436 631l-237 -376h329zM301 869l32 23c25 -40 67 -64 130 -64c66 0 114 30 147 67l28 -22c-34 -47 -98 -90 -177 -90c-82 0 -136 38 -160 86z" />
    <glyph glyph-name="abreve" unicode="&#x103;" horiz-adv-x="569" 
d="M433 0l19 94c-24 -36 -98 -103 -191 -103c-133 0 -205 88 -205 207c0 207 169 335 310 335c73 0 130 -24 161 -55l8 42h45l-101 -520h-46zM263 38c105 0 170 80 201 131l52 256c-25 35 -76 61 -151 61c-127 0 -259 -114 -259 -286c0 -108 66 -162 157 -162zM267 738
l25 22c25 -36 67 -60 114 -60c56 0 102 25 136 59l18 -23c-32 -42 -91 -86 -158 -86c-64 0 -112 38 -135 88z" />
    <glyph glyph-name="Aogonek" unicode="&#x104;" horiz-adv-x="669" 
d="M592 -153l-5 -37c-18 -7 -39 -10 -60 -10c-48 0 -98 19 -98 80c0 64 55 122 155 137l-46 188h-370l-128 -205h-61l444 703h47l170 -703h-28c-58 -4 -141 -52 -141 -114c0 -37 31 -48 61 -48c21 0 41 3 60 9zM436 631l-237 -376h329z" />
    <glyph glyph-name="aogonek" unicode="&#x105;" horiz-adv-x="569" 
d="M449 -148l7 -41c-19 -7 -36 -11 -61 -11c-45 0 -88 24 -88 80c0 76 68 121 129 137l16 77c-24 -36 -98 -103 -191 -103c-133 0 -205 88 -205 207c0 207 169 335 310 335c73 0 130 -24 161 -55l8 42h45l-101 -520h-4c-38 -2 -116 -45 -116 -109c0 -32 20 -48 49 -48
c11 0 28 3 41 9zM263 38c105 0 170 80 201 131l52 256c-25 35 -76 61 -151 61c-127 0 -259 -114 -259 -286c0 -108 66 -162 157 -162z" />
    <glyph glyph-name="Cacute" unicode="&#x106;" horiz-adv-x="684" 
d="M631 134l30 -35c-59 -61 -147 -108 -280 -108c-197 0 -307 120 -307 297c0 227 173 421 419 421c134 0 214 -54 248 -107l-36 -33c-46 56 -104 90 -217 90c-216 0 -358 -168 -358 -369c0 -150 96 -249 257 -249c109 0 185 35 244 93zM645 855l-178 -87l-15 30l173 100z
" />
    <glyph glyph-name="cacute" unicode="&#x107;" horiz-adv-x="502" 
d="M457 119l27 -32c-47 -66 -141 -97 -211 -97c-127 0 -217 84 -217 215c0 182 129 328 314 328c72 0 144 -35 168 -92l-39 -26c-27 51 -73 71 -140 71c-145 0 -253 -125 -253 -277c0 -106 69 -172 178 -172c65 0 130 31 173 82zM533 760l-131 -130l-26 24l123 138z" />
    <glyph glyph-name="Ccircumflex" unicode="&#x108;" horiz-adv-x="684" 
d="M631 134l30 -35c-59 -61 -147 -108 -280 -108c-197 0 -307 120 -307 297c0 227 173 421 419 421c134 0 214 -54 248 -107l-36 -33c-46 56 -104 90 -217 90c-216 0 -358 -168 -358 -369c0 -150 96 -249 257 -249c109 0 185 35 244 93zM526 897l171 -104l-27 -30l-148 87
l-173 -87l-13 38l186 96h4z" />
    <glyph glyph-name="ccircumflex" unicode="&#x109;" horiz-adv-x="502" 
d="M457 119l27 -32c-47 -66 -141 -97 -211 -97c-127 0 -217 84 -217 215c0 182 129 328 314 328c72 0 144 -35 168 -92l-39 -26c-27 51 -73 71 -140 71c-145 0 -253 -125 -253 -277c0 -106 69 -172 178 -172c65 0 130 31 173 82zM440 777l115 -121l-31 -29l-91 97l-137 -97
l-18 32l158 118h4z" />
    <glyph glyph-name="Cdotaccent" unicode="&#x10a;" horiz-adv-x="684" 
d="M631 134l30 -35c-59 -61 -147 -108 -280 -108c-197 0 -307 120 -307 297c0 227 173 421 419 421c134 0 214 -54 248 -107l-36 -33c-46 56 -104 90 -217 90c-216 0 -358 -168 -358 -369c0 -150 96 -249 257 -249c109 0 185 35 244 93zM478 822c0 18 14 33 32 33
c19 0 34 -15 34 -33c0 -19 -15 -33 -34 -33c-18 0 -32 14 -32 33z" />
    <glyph glyph-name="cdotaccent" unicode="&#x10b;" horiz-adv-x="502" 
d="M457 119l27 -32c-47 -66 -141 -97 -211 -97c-127 0 -217 84 -217 215c0 182 129 328 314 328c72 0 144 -35 168 -92l-39 -26c-27 51 -73 71 -140 71c-145 0 -253 -125 -253 -277c0 -106 69 -172 178 -172c65 0 130 31 173 82zM348 689c0 20 15 36 35 36s36 -16 36 -36
s-16 -35 -36 -35s-35 15 -35 35z" />
    <glyph glyph-name="Ccaron" unicode="&#x10c;" horiz-adv-x="684" 
d="M631 134l30 -35c-59 -61 -147 -108 -280 -108c-197 0 -307 120 -307 297c0 227 173 421 419 421c134 0 214 -54 248 -107l-36 -33c-46 56 -104 90 -217 90c-216 0 -358 -168 -358 -369c0 -150 96 -249 257 -249c109 0 185 35 244 93zM515 763l-171 104l27 30l148 -87
l173 87l13 -38l-186 -96h-4z" />
    <glyph glyph-name="ccaron" unicode="&#x10d;" horiz-adv-x="502" 
d="M457 119l27 -32c-47 -66 -141 -97 -211 -97c-127 0 -217 84 -217 215c0 182 129 328 314 328c72 0 144 -35 168 -92l-39 -26c-27 51 -73 71 -140 71c-145 0 -253 -125 -253 -277c0 -106 69 -172 178 -172c65 0 130 31 173 82zM376 634l-115 121l31 29l91 -97l137 97
l18 -32l-158 -118h-4z" />
    <glyph glyph-name="Dcaron" unicode="&#x10e;" horiz-adv-x="708" 
d="M55 0l136 700h217c232 0 313 -123 313 -272c0 -254 -170 -428 -456 -428h-210zM396 650h-162l-116 -600h153c273 0 394 177 394 370c0 131 -71 230 -269 230zM434 763l-171 104l27 30l148 -87l173 87l13 -38l-186 -96h-4z" />
    <glyph glyph-name="dcaron" unicode="&#x10f;" horiz-adv-x="563" 
d="M433 0l19 94c-24 -36 -98 -103 -191 -103c-133 0 -205 88 -205 207c0 207 169 335 310 335c73 0 126 -24 157 -55l47 252h46l-137 -730h-46zM263 38c105 0 170 80 201 131l46 256c-25 35 -70 61 -145 61c-127 0 -259 -114 -259 -286c0 -108 66 -162 157 -162zM729 730h49
c2 -7 3 -18 3 -30c0 -84 -49 -134 -108 -164l-19 26c46 24 81 73 81 129c0 10 -2 27 -6 39z" />
    <glyph glyph-name="Dcroat" unicode="&#x110;" horiz-adv-x="761" 
d="M44 323l9 47h127l64 330h212c234 0 318 -117 318 -272c0 -239 -157 -428 -462 -428h-204l63 323h-127zM445 650h-157l-55 -280h208l-9 -47h-208l-53 -273h153c273 0 394 177 394 370c0 137 -75 230 -273 230z" />
    <glyph glyph-name="dcroat" unicode="&#x111;" horiz-adv-x="547" 
d="M263 38c105 0 170 80 201 131l46 256c-25 35 -70 61 -145 61c-127 0 -259 -114 -259 -286c0 -108 66 -162 157 -162zM591 599l-112 -599h-46l19 94c-24 -36 -98 -103 -191 -103c-133 0 -205 88 -205 207c0 207 169 335 310 335c73 0 126 -24 157 -55l22 121h-109l9 47
h109l16 84h46l-17 -84h74l-9 -47h-73z" />
    <glyph glyph-name="Emacron" unicode="&#x112;" horiz-adv-x="636" 
d="M55 0l136 700h491l-10 -50h-438l-50 -269h407l-10 -50h-409l-54 -281h448l-10 -50h-501zM311 800l9 46h294l-9 -46h-294z" />
    <glyph glyph-name="emacron" unicode="&#x113;" horiz-adv-x="520" 
d="M457 119l27 -32c-47 -66 -141 -97 -211 -97c-127 0 -217 84 -217 215c0 182 149 328 314 328c101 0 160 -44 160 -122c0 -114 -147 -202 -420 -156c-3 -15 -4 -30 -4 -46c0 -106 69 -172 178 -172c65 0 130 31 173 82zM359 486c-107 0 -205 -80 -240 -190
c253 -38 361 40 361 110c0 45 -41 80 -121 80zM272 655l9 46h254l-9 -46h-254z" />
    <glyph glyph-name="Edotaccent" unicode="&#x116;" horiz-adv-x="636" 
d="M55 0l136 700h491l-10 -50h-438l-50 -269h407l-10 -50h-409l-54 -281h448l-10 -50h-501zM428 822c0 18 14 33 32 33c19 0 34 -15 34 -33c0 -19 -15 -33 -34 -33c-18 0 -32 14 -32 33z" />
    <glyph glyph-name="edotaccent" unicode="&#x117;" horiz-adv-x="520" 
d="M457 119l27 -32c-47 -66 -141 -97 -211 -97c-127 0 -217 84 -217 215c0 182 149 328 314 328c101 0 160 -44 160 -122c0 -114 -147 -202 -420 -156c-3 -15 -4 -30 -4 -46c0 -106 69 -172 178 -172c65 0 130 31 173 82zM359 486c-107 0 -205 -80 -240 -190
c253 -38 361 40 361 110c0 45 -41 80 -121 80zM350 689c0 20 15 36 35 36s36 -16 36 -36s-16 -35 -36 -35s-35 15 -35 35z" />
    <glyph glyph-name="Eogonek" unicode="&#x118;" horiz-adv-x="636" 
d="M55 0l136 700h491l-10 -50h-438l-50 -269h407l-10 -50h-409l-54 -281h448l-10 -50h-5c-57 1 -150 -49 -150 -114c0 -37 31 -48 61 -48c21 0 41 3 60 9l-5 -37c-18 -7 -39 -10 -60 -10c-48 0 -98 19 -98 80c0 49 32 95 92 120h-396z" />
    <glyph glyph-name="eogonek" unicode="&#x119;" horiz-adv-x="520" 
d="M320 -148l7 -41c-19 -7 -36 -11 -61 -11c-45 0 -88 24 -88 80c0 51 30 88 68 112c-113 10 -190 91 -190 213c0 182 149 328 314 328c101 0 160 -44 160 -122c0 -114 -147 -202 -420 -156c-3 -15 -4 -30 -4 -46c0 -106 69 -172 178 -172c65 0 130 31 173 82l27 -32
c-31 -44 -83 -73 -135 -87h-3l-24 -5c-40 -13 -92 -52 -92 -104c0 -32 20 -48 49 -48c11 0 28 3 41 9zM359 486c-107 0 -205 -80 -240 -190c253 -38 361 40 361 110c0 45 -41 80 -121 80z" />
    <glyph glyph-name="Ecaron" unicode="&#x11a;" horiz-adv-x="636" 
d="M55 0l136 700h491l-10 -50h-438l-50 -269h407l-10 -50h-409l-54 -281h448l-10 -50h-501zM459 763l-171 104l27 30l148 -87l173 87l13 -38l-186 -96h-4z" />
    <glyph glyph-name="ecaron" unicode="&#x11b;" horiz-adv-x="520" 
d="M457 119l27 -32c-47 -66 -141 -97 -211 -97c-127 0 -217 84 -217 215c0 182 149 328 314 328c101 0 160 -44 160 -122c0 -114 -147 -202 -420 -156c-3 -15 -4 -30 -4 -46c0 -106 69 -172 178 -172c65 0 130 31 173 82zM359 486c-107 0 -205 -80 -240 -190
c253 -38 361 40 361 110c0 45 -41 80 -121 80zM382 634l-115 121l31 29l91 -97l137 97l18 -32l-158 -118h-4z" />
    <glyph glyph-name="Gcircumflex" unicode="&#x11c;" horiz-adv-x="704" 
d="M442 288l10 50h253l-48 -248c-54 -49 -157 -99 -276 -99c-180 0 -306 116 -306 297c0 225 189 421 432 421c116 0 191 -35 234 -96l-33 -34c-44 51 -101 81 -205 81c-204 0 -372 -160 -372 -368c0 -152 100 -252 255 -252c72 0 156 23 225 74l34 174h-203zM526 897
l171 -104l-27 -30l-148 87l-173 -87l-13 38l186 96h4z" />
    <glyph glyph-name="gcircumflex" unicode="&#x11d;" horiz-adv-x="583" 
d="M588 520l-94 -483c-32 -177 -127 -246 -258 -246c-86 0 -170 54 -187 119l42 19c23 -53 71 -91 153 -91c109 0 178 60 207 216l5 27c-34 -44 -92 -91 -189 -91c-135 0 -211 96 -211 200c0 228 158 343 313 343c81 0 130 -30 162 -66l11 53h46zM274 37
c95 0 167 69 198 131l47 243c-20 39 -75 75 -155 75c-129 0 -258 -100 -258 -287c0 -96 65 -162 168 -162zM442 777l115 -121l-31 -29l-91 97l-137 -97l-18 32l158 118h4z" />
    <glyph glyph-name="Gbreve" unicode="&#x11e;" horiz-adv-x="704" 
d="M442 288l10 50h253l-48 -248c-54 -49 -157 -99 -276 -99c-180 0 -306 116 -306 297c0 225 189 421 432 421c116 0 191 -35 234 -96l-33 -34c-44 51 -101 81 -205 81c-204 0 -372 -160 -372 -368c0 -152 100 -252 255 -252c72 0 156 23 225 74l34 174h-203zM354 869l32 23
c25 -40 67 -64 130 -64c66 0 114 30 147 67l28 -22c-34 -47 -98 -90 -177 -90c-82 0 -136 38 -160 86z" />
    <glyph glyph-name="gbreve" unicode="&#x11f;" horiz-adv-x="583" 
d="M588 520l-94 -483c-32 -177 -127 -246 -258 -246c-86 0 -170 54 -187 119l42 19c23 -53 71 -91 153 -91c109 0 178 60 207 216l5 27c-34 -44 -92 -91 -189 -91c-135 0 -211 96 -211 200c0 228 158 343 313 343c81 0 130 -30 162 -66l11 53h46zM274 37
c95 0 167 69 198 131l47 243c-20 39 -75 75 -155 75c-129 0 -258 -100 -258 -287c0 -96 65 -162 168 -162zM271 738l25 22c25 -36 67 -60 114 -60c56 0 102 25 136 59l18 -23c-32 -42 -91 -86 -158 -86c-64 0 -112 38 -135 88z" />
    <glyph glyph-name="Gdotaccent" unicode="&#x120;" horiz-adv-x="704" 
d="M442 288l10 50h253l-48 -248c-54 -49 -157 -99 -276 -99c-180 0 -306 116 -306 297c0 225 189 421 432 421c116 0 191 -35 234 -96l-33 -34c-44 51 -101 81 -205 81c-204 0 -372 -160 -372 -368c0 -152 100 -252 255 -252c72 0 156 23 225 74l34 174h-203zM488 822
c0 18 14 33 32 33c19 0 34 -15 34 -33c0 -19 -15 -33 -34 -33c-18 0 -32 14 -32 33z" />
    <glyph glyph-name="gdotaccent" unicode="&#x121;" horiz-adv-x="583" 
d="M588 520l-94 -483c-32 -177 -127 -246 -258 -246c-86 0 -170 54 -187 119l42 19c23 -53 71 -91 153 -91c109 0 178 60 207 216l5 27c-34 -44 -92 -91 -189 -91c-135 0 -211 96 -211 200c0 228 158 343 313 343c81 0 130 -30 162 -66l11 53h46zM274 37
c95 0 167 69 198 131l47 243c-20 39 -75 75 -155 75c-129 0 -258 -100 -258 -287c0 -96 65 -162 168 -162zM361 689c0 20 15 36 35 36s36 -16 36 -36s-16 -35 -36 -35s-35 15 -35 35z" />
    <glyph glyph-name="Gcommaaccent" unicode="&#x122;" horiz-adv-x="704" 
d="M442 288l10 50h253l-48 -248c-54 -49 -157 -99 -276 -99c-180 0 -306 116 -306 297c0 225 189 421 432 421c116 0 191 -35 234 -96l-33 -34c-44 51 -101 81 -205 81c-204 0 -372 -160 -372 -368c0 -152 100 -252 255 -252c72 0 156 23 225 74l34 174h-203zM348 -80l42 27
c9 -12 20 -34 20 -58c0 -53 -33 -98 -92 -131l-20 25c30 23 63 55 63 96c0 17 -5 30 -13 41z" />
    <glyph glyph-name="gcommaaccent" unicode="&#x123;" horiz-adv-x="583" 
d="M429 635l-43 -27c-9 12 -20 34 -20 58c0 56 46 110 92 131l18 -26c-30 -23 -61 -54 -61 -95c0 -14 4 -29 14 -41zM588 520l-94 -483c-32 -177 -127 -246 -258 -246c-86 0 -170 54 -187 119l42 19c23 -53 71 -91 153 -91c109 0 178 60 207 216l5 27
c-34 -44 -92 -91 -189 -91c-135 0 -211 96 -211 200c0 228 158 343 313 343c81 0 130 -30 162 -66l11 53h46zM274 37c95 0 167 69 198 131l47 243c-20 39 -75 75 -155 75c-129 0 -258 -100 -258 -287c0 -96 65 -162 168 -162z" />
    <glyph glyph-name="Hcircumflex" unicode="&#x124;" horiz-adv-x="745" 
d="M587 0l65 332h-479l-65 -332h-53l136 700h53l-60 -318h477l62 318h53l-136 -700h-53zM504 897l171 -104l-27 -30l-148 87l-173 -87l-13 38l186 96h4z" />
    <glyph glyph-name="hcircumflex" unicode="&#x125;" horiz-adv-x="566" 
d="M45 0l135 730h47l-54 -293c41 56 129 95 220 95c107 0 155 -59 155 -157c0 -28 -7 -72 -12 -101l-54 -274h-46l52 266c4 23 12 54 12 106c-1 75 -37 113 -113 113c-101 0 -186 -50 -231 -135l-64 -350h-47zM220 866l171 -104l-27 -30l-148 87l-173 -87l-13 38l186 96h4z
" />
    <glyph glyph-name="Hbar" unicode="&#x126;" horiz-adv-x="745" 
d="M77 523l9 46h80l25 131h53l-25 -131h479l25 131h53l-25 -131h80l-9 -46h-80l-102 -523h-53l65 332h-479l-65 -332h-53l102 523h-80zM182 382h479l28 141h-479z" />
    <glyph glyph-name="hbar" unicode="&#x127;" horiz-adv-x="566" 
d="M203 599l-30 -162c41 56 129 95 220 95c107 0 155 -59 155 -157c0 -28 -7 -72 -12 -101l-54 -274h-46l52 266c4 23 12 54 12 106c-1 75 -37 113 -113 113c-101 0 -186 -50 -231 -135l-64 -350h-47l110 599h-71l10 47h70l16 84h47l-16 -84h111l-10 -47h-109z" />
    <glyph glyph-name="Imacron" unicode="&#x12a;" horiz-adv-x="233" 
d="M65 0l136 700h53l-136 -700h-53zM100 800l9 46h294l-9 -46h-294z" />
    <glyph glyph-name="imacron" unicode="&#x12b;" horiz-adv-x="170" 
d="M34 0l96 520h47l-96 -520h-47zM45 655l9 46h254l-9 -46h-254z" />
    <glyph glyph-name="Iogonek" unicode="&#x12e;" horiz-adv-x="233" 
d="M88 -153l-5 -37c-18 -7 -39 -10 -60 -10c-48 0 -98 19 -98 80s50 118 143 135l133 685h53l-136 -700h-10c-58 -4 -141 -52 -141 -114c0 -37 31 -48 61 -48c21 0 41 3 60 9z" />
    <glyph glyph-name="iogonek" unicode="&#x12f;" horiz-adv-x="233" 
d="M110 -148l7 -41c-19 -7 -36 -11 -61 -11c-45 0 -88 24 -88 80c0 78 71 123 133 138l93 502h47l-96 -520h-6c-37 0 -119 -44 -119 -109c0 -32 20 -48 49 -48c11 0 28 3 41 9zM213 689c0 20 15 36 35 36s36 -16 36 -36s-16 -35 -36 -35s-35 15 -35 35z" />
    <glyph glyph-name="Idotaccent" unicode="&#x130;" horiz-adv-x="233" 
d="M65 0l136 700h53l-136 -700h-53zM218 822c0 18 14 33 32 33c19 0 34 -15 34 -33c0 -19 -15 -33 -34 -33c-18 0 -32 14 -32 33z" />
    <glyph glyph-name="dotlessi" unicode="&#x131;" horiz-adv-x="170" 
d="M34 0l96 520h47l-96 -520h-47z" />
    <glyph glyph-name="Jcircumflex" unicode="&#x134;" horiz-adv-x="485" 
d="M516 700l-96 -495c-24 -125 -102 -214 -242 -214c-81 0 -154 39 -181 123l42 27c20 -64 68 -102 141 -101c94 2 163 46 188 173l95 487h53zM516 897l171 -104l-27 -30l-148 87l-173 -87l-13 38l186 96h4z" />
    <glyph glyph-name="jcircumflex" unicode="&#x135;" horiz-adv-x="235" 
d="M245 520l-102 -527c-25 -127 -86 -202 -189 -202c-56 0 -99 27 -112 60l43 31c13 -19 25 -44 78 -44c66 0 112 59 131 158l102 524h49zM262 777l115 -121l-31 -29l-91 97l-137 -97l-18 32l158 118h4z" />
    <glyph glyph-name="Kcommaaccent" unicode="&#x136;" horiz-adv-x="639" 
d="M55 0l136 700h53l-72 -370l466 370h81l-410 -323l299 -377h-69l-273 344l-107 -83l-51 -261h-53zM248 -80l42 27c9 -12 20 -34 20 -58c0 -53 -33 -98 -92 -131l-20 25c30 23 63 55 63 96c0 17 -5 30 -13 41z" />
    <glyph glyph-name="kcommaaccent" unicode="&#x137;" horiz-adv-x="502" 
d="M45 0l135 730h47l-88 -474l338 264h70l-299 -236l220 -284h-61l-201 259l-77 -57l-37 -202h-47zM212 -80l43 27c9 -12 20 -34 20 -58c0 -56 -46 -110 -92 -131l-18 26c30 23 61 54 61 95c0 14 -4 29 -14 41z" />
    <glyph glyph-name="Lacute" unicode="&#x139;" horiz-adv-x="579" 
d="M55 0l136 700h53l-126 -650h436l-10 -50h-489zM555 855l-178 -87l-15 30l173 100z" />
    <glyph glyph-name="lacute" unicode="&#x13a;" horiz-adv-x="189" 
d="M50 0l135 730h46l-135 -730h-46zM394 855l-178 -87l-15 30l173 100z" />
    <glyph glyph-name="Lcommaaccent" unicode="&#x13b;" horiz-adv-x="579" 
d="M55 0l136 700h53l-126 -650h436l-10 -50h-489zM248 -80l42 27c9 -12 20 -34 20 -58c0 -53 -33 -98 -92 -131l-20 25c30 23 63 55 63 96c0 17 -5 30 -13 41z" />
    <glyph glyph-name="lcommaaccent" unicode="&#x13c;" horiz-adv-x="189" 
d="M50 0l135 730h46l-135 -730h-46zM46 -80l43 27c9 -12 20 -34 20 -58c0 -56 -46 -110 -92 -131l-18 26c30 23 61 54 61 95c0 14 -4 29 -14 41z" />
    <glyph glyph-name="Lcaron" unicode="&#x13d;" horiz-adv-x="579" 
d="M55 0l136 700h53l-126 -650h436l-10 -50h-489zM504 700h49c2 -7 3 -18 3 -30c0 -84 -49 -134 -108 -164l-19 26c46 24 81 73 81 129c0 10 -2 27 -6 39z" />
    <glyph glyph-name="lcaron" unicode="&#x13e;" horiz-adv-x="189" 
d="M50 0l135 730h46l-135 -730h-46zM337 730h49c2 -7 3 -18 3 -30c0 -84 -49 -134 -108 -164l-19 26c46 24 81 73 81 129c0 10 -2 27 -6 39z" />
    <glyph glyph-name="Ldot" unicode="&#x13f;" horiz-adv-x="579" 
d="M55 0l136 700h53l-126 -650h436l-10 -50h-489zM405 371c0 17 15 35 38 35c20 0 35 -18 35 -35c0 -20 -15 -38 -35 -38c-23 0 -38 18 -38 38z" />
    <glyph glyph-name="ldot" unicode="&#x140;" horiz-adv-x="244" 
d="M50 0l135 730h46l-135 -730h-46zM253 366c0 17 15 35 38 35c20 0 35 -18 35 -35c0 -20 -15 -38 -35 -38c-23 0 -38 18 -38 38z" />
    <glyph glyph-name="Lslash" unicode="&#x141;" horiz-adv-x="584" 
d="M7 165l13 62l97 65l79 408h53l-71 -369l246 160l-13 -64l-246 -160l-42 -217h436l-10 -50h-489l44 228z" />
    <glyph glyph-name="lslash" unicode="&#x142;" horiz-adv-x="262" 
d="M43 219l11 61l119 78l73 372h49l-66 -337l125 81l-11 -60l-125 -82l-65 -332h-49l58 296z" />
    <glyph glyph-name="Nacute" unicode="&#x143;" horiz-adv-x="736" 
d="M631 0h-43l-364 614l-118 -614h-51l136 700h44l361 -612l120 612h51zM656 855l-178 -87l-15 30l173 100z" />
    <glyph glyph-name="nacute" unicode="&#x144;" horiz-adv-x="566" 
d="M45 0l96 520h47l-15 -83c52 54 129 95 220 95c97 0 155 -64 155 -157c0 -28 -7 -72 -12 -101l-59 -274h-46l57 266c4 23 12 54 12 106c-1 75 -43 113 -113 113c-101 0 -192 -62 -231 -135l-64 -350h-47zM559 760l-131 -130l-26 24l123 138z" />
    <glyph glyph-name="Ncommaaccent" unicode="&#x145;" horiz-adv-x="736" 
d="M631 0h-43l-364 614l-118 -614h-51l136 700h44l361 -612l120 612h51zM309 -80l42 27c9 -12 20 -34 20 -58c0 -53 -33 -98 -92 -131l-20 25c30 23 63 55 63 96c0 17 -5 30 -13 41z" />
    <glyph glyph-name="ncommaaccent" unicode="&#x146;" horiz-adv-x="566" 
d="M45 0l96 520h47l-15 -83c52 54 129 95 220 95c97 0 155 -64 155 -157c0 -28 -7 -72 -12 -101l-59 -274h-46l57 266c4 23 12 54 12 106c-1 75 -43 113 -113 113c-101 0 -192 -62 -231 -135l-64 -350h-47zM229 -80l43 27c9 -12 20 -34 20 -58c0 -56 -46 -110 -92 -131
l-18 26c30 23 61 54 61 95c0 14 -4 29 -14 41z" />
    <glyph glyph-name="Ncaron" unicode="&#x147;" horiz-adv-x="736" 
d="M631 0h-43l-364 614l-118 -614h-51l136 700h44l361 -612l120 612h51zM494 763l-171 104l27 30l148 -87l173 87l13 -38l-186 -96h-4z" />
    <glyph glyph-name="ncaron" unicode="&#x148;" horiz-adv-x="566" 
d="M45 0l96 520h47l-15 -83c52 54 129 95 220 95c97 0 155 -64 155 -157c0 -28 -7 -72 -12 -101l-59 -274h-46l57 266c4 23 12 54 12 106c-1 75 -43 113 -113 113c-101 0 -192 -62 -231 -135l-64 -350h-47zM391 634l-115 121l31 29l91 -97l137 97l18 -32l-158 -118h-4z" />
    <glyph glyph-name="Omacron" unicode="&#x14c;" horiz-adv-x="784" 
d="M88 288c0 230 171 421 410 421c181 0 310 -126 310 -297c0 -228 -172 -421 -409 -421c-198 0 -311 128 -311 297zM144 298c0 -153 103 -257 258 -257c210 0 350 174 350 362c0 140 -97 256 -257 256c-219 0 -351 -180 -351 -361zM376 800l9 46h294l-9 -46h-294z" />
    <glyph glyph-name="omacron" unicode="&#x14d;" horiz-adv-x="586" 
d="M56 212c0 203 142 321 292 321c144 0 232 -102 232 -228c0 -199 -133 -315 -292 -315c-136 0 -232 95 -232 222zM106 230c0 -108 66 -193 182 -193c138 0 242 99 242 258c0 124 -86 191 -186 191c-120 0 -238 -105 -238 -256zM256 655l9 46h254l-9 -46h-254z" />
    <glyph glyph-name="Ohungarumlaut" unicode="&#x150;" horiz-adv-x="784" 
d="M88 288c0 230 171 421 410 421c181 0 310 -126 310 -297c0 -228 -172 -421 -409 -421c-198 0 -311 128 -311 297zM144 298c0 -153 103 -257 258 -257c210 0 350 174 350 362c0 140 -97 256 -257 256c-219 0 -351 -180 -351 -361zM594 851l-158 -83l-15 32l155 92z
M758 851l-158 -83l-15 32l155 92z" />
    <glyph glyph-name="ohungarumlaut" unicode="&#x151;" horiz-adv-x="586" 
d="M56 212c0 203 142 321 292 321c144 0 232 -102 232 -228c0 -199 -133 -315 -292 -315c-136 0 -232 95 -232 222zM106 230c0 -108 66 -193 182 -193c138 0 242 99 242 258c0 124 -86 191 -186 191c-120 0 -238 -105 -238 -256zM627 780l-147 -149l-28 25l141 156zM489 781
l-148 -149l-27 24l140 157z" />
    <glyph glyph-name="OE" unicode="&#x152;" horiz-adv-x="1221" 
d="M642 0l18 99c-65 -64 -157 -108 -276 -108c-178 0 -296 123 -296 297c0 223 166 421 412 421c105 0 207 -49 255 -126l23 117h489l-10 -50h-436l-52 -269h407l-10 -50h-407l-55 -281h446l-9 -50h-499zM387 40c116 0 222 49 290 145l61 321c-39 99 -123 154 -247 154
c-186 0 -347 -160 -347 -362c0 -159 104 -258 243 -258z" />
    <glyph glyph-name="oe" unicode="&#x153;" horiz-adv-x="933" 
d="M506 76c-58 -49 -126 -86 -222 -86c-116 0 -228 80 -228 225c0 180 122 318 307 318c105 0 166 -41 210 -87c57 54 131 87 210 87c101 0 160 -44 160 -122c0 -114 -147 -202 -420 -156c-3 -15 -4 -30 -4 -46c0 -106 69 -172 178 -172c65 0 130 31 173 82l27 -32
c-47 -66 -141 -97 -211 -97c-79 0 -142 30 -180 86zM538 408c-28 40 -94 78 -184 78c-146 0 -248 -117 -248 -257c0 -107 69 -192 180 -192c95 0 165 43 199 80c-10 26 -16 55 -16 88c0 77 26 147 69 203zM772 486c-107 0 -205 -80 -240 -190c253 -38 361 40 361 110
c0 45 -41 80 -121 80z" />
    <glyph glyph-name="Racute" unicode="&#x154;" horiz-adv-x="672" 
d="M108 0h-53l136 700h259c166 0 229 -69 229 -168c0 -121 -96 -209 -234 -226l182 -306h-64l-175 295h-223zM437 650h-203l-59 -305h209c137 0 239 74 239 184c0 70 -49 121 -186 121zM565 855l-178 -87l-15 30l173 100z" />
    <glyph glyph-name="racute" unicode="&#x155;" horiz-adv-x="333" 
d="M45 0l99 520h46l-11 -62c29 50 88 74 130 74c44 0 76 -19 93 -48l-40 -30c-12 18 -27 31 -65 31c-55 0 -111 -51 -134 -111l-72 -374h-46zM457 760l-131 -130l-26 24l123 138z" />
    <glyph glyph-name="Rcommaaccent" unicode="&#x156;" horiz-adv-x="672" 
d="M108 0h-53l136 700h259c166 0 229 -69 229 -168c0 -121 -96 -209 -234 -226l182 -306h-64l-175 295h-223zM437 650h-203l-59 -305h209c137 0 239 74 239 184c0 70 -49 121 -186 121zM268 -80l42 27c9 -12 20 -34 20 -58c0 -53 -33 -98 -92 -131l-20 25c30 23 63 55 63 96
c0 17 -5 30 -13 41z" />
    <glyph glyph-name="rcommaaccent" unicode="&#x157;" horiz-adv-x="333" 
d="M45 0l99 520h46l-11 -62c29 50 88 74 130 74c44 0 76 -19 93 -48l-40 -30c-12 18 -27 31 -65 31c-55 0 -111 -51 -134 -111l-72 -374h-46zM87 -80l43 27c9 -12 20 -34 20 -58c0 -56 -46 -110 -92 -131l-18 26c30 23 61 54 61 95c0 14 -4 29 -14 41z" />
    <glyph glyph-name="Rcaron" unicode="&#x158;" horiz-adv-x="672" 
d="M108 0h-53l136 700h259c166 0 229 -69 229 -168c0 -121 -96 -209 -234 -226l182 -306h-64l-175 295h-223zM437 650h-203l-59 -305h209c137 0 239 74 239 184c0 70 -49 121 -186 121zM429 763l-171 104l27 30l148 -87l173 87l13 -38l-186 -96h-4z" />
    <glyph glyph-name="rcaron" unicode="&#x159;" horiz-adv-x="333" 
d="M45 0l99 520h46l-11 -62c29 50 88 74 130 74c44 0 76 -19 93 -48l-40 -30c-12 18 -27 31 -65 31c-55 0 -111 -51 -134 -111l-72 -374h-46zM295 634l-115 121l31 29l91 -97l137 97l18 -32l-158 -118h-4z" />
    <glyph glyph-name="Sacute" unicode="&#x15a;" horiz-adv-x="615" 
d="M512 186c0 186 -385 107 -385 327c0 109 103 195 275 195c84 0 191 -25 240 -107l-40 -29c-47 61 -128 87 -202 87c-142 0 -217 -65 -217 -144c0 -163 385 -97 385 -321c0 -146 -150 -203 -270 -203c-121 0 -226 56 -268 136l42 32c48 -84 149 -118 235 -118
c104 0 205 49 205 145zM585 855l-178 -87l-15 30l173 100z" />
    <glyph glyph-name="sacute" unicode="&#x15b;" horiz-adv-x="449" 
d="M374 135c0 142 -274 90 -274 255c0 96 87 143 184 143c90 0 153 -35 191 -84l-38 -31c-24 33 -78 68 -148 68s-139 -26 -139 -92c0 -126 274 -74 274 -258c0 -99 -103 -146 -186 -146c-111 0 -183 49 -223 123l39 27c38 -68 99 -103 188 -103c56 0 132 30 132 98z
M462 760l-131 -130l-26 24l123 138z" />
    <glyph glyph-name="Scircumflex" unicode="&#x15c;" horiz-adv-x="615" 
d="M512 186c0 186 -385 107 -385 327c0 109 103 195 275 195c84 0 191 -25 240 -107l-40 -29c-47 61 -128 87 -202 87c-142 0 -217 -65 -217 -144c0 -163 385 -97 385 -321c0 -146 -150 -203 -270 -203c-121 0 -226 56 -268 136l42 32c48 -84 149 -118 235 -118
c104 0 205 49 205 145zM452 897l171 -104l-27 -30l-148 87l-173 -87l-13 38l186 96h4z" />
    <glyph glyph-name="scircumflex" unicode="&#x15d;" horiz-adv-x="449" 
d="M374 135c0 142 -274 90 -274 255c0 96 87 143 184 143c90 0 153 -35 191 -84l-38 -31c-24 33 -78 68 -148 68s-139 -26 -139 -92c0 -126 274 -74 274 -258c0 -99 -103 -146 -186 -146c-111 0 -183 49 -223 123l39 27c38 -68 99 -103 188 -103c56 0 132 30 132 98z
M351 777l115 -121l-31 -29l-91 97l-137 -97l-18 32l158 118h4z" />
    <glyph glyph-name="Scedilla" unicode="&#x15e;" horiz-adv-x="615" 
d="M167 -174l21 36c25 -13 50 -19 71 -19c43 0 68 15 68 42c0 24 -19 31 -54 31h-26l14 77c-105 9 -194 62 -231 134l42 32c48 -84 149 -118 235 -118c104 0 205 49 205 145c0 186 -385 107 -385 327c0 109 103 195 275 195c84 0 191 -25 240 -107l-40 -29
c-47 61 -128 87 -202 87c-142 0 -217 -65 -217 -144c0 -163 385 -97 385 -321c0 -145 -147 -202 -267 -203l-6 -35c59 -1 83 -29 83 -67c0 -54 -50 -89 -122 -89c-33 0 -66 9 -89 26z" />
    <glyph glyph-name="scedilla" unicode="&#x15f;" horiz-adv-x="449" 
d="M101 -176l22 38c22 -12 39 -19 71 -19c41 0 68 15 68 40c0 23 -16 33 -54 33h-26l14 77c-87 10 -146 55 -181 120l39 27c38 -68 99 -103 188 -103c56 0 132 30 132 98c0 142 -274 90 -274 255c0 96 87 143 184 143c90 0 153 -35 191 -84l-38 -31c-24 33 -78 68 -148 68
s-139 -26 -139 -92c0 -126 274 -74 274 -258c0 -99 -103 -146 -186 -146h-2l-6 -34c60 -1 83 -27 83 -67c0 -55 -50 -89 -124 -89c-31 0 -65 7 -88 24z" />
    <glyph glyph-name="Scaron" unicode="&#x160;" horiz-adv-x="615" 
d="M512 186c0 186 -385 107 -385 327c0 109 103 195 275 195c84 0 191 -25 240 -107l-40 -29c-47 61 -128 87 -202 87c-142 0 -217 -65 -217 -144c0 -163 385 -97 385 -321c0 -146 -150 -203 -270 -203c-121 0 -226 56 -268 136l42 32c48 -84 149 -118 235 -118
c104 0 205 49 205 145zM415 763l-171 104l27 30l148 -87l173 87l13 -38l-186 -96h-4z" />
    <glyph glyph-name="scaron" unicode="&#x161;" horiz-adv-x="449" 
d="M374 135c0 142 -274 90 -274 255c0 96 87 143 184 143c90 0 153 -35 191 -84l-38 -31c-24 33 -78 68 -148 68s-139 -26 -139 -92c0 -126 274 -74 274 -258c0 -99 -103 -146 -186 -146c-111 0 -183 49 -223 123l39 27c38 -68 99 -103 188 -103c56 0 132 30 132 98z
M309 634l-115 121l31 29l91 -97l137 97l18 -32l-158 -118h-4z" />
    <glyph glyph-name="Tcedilla" unicode="&#x162;" horiz-adv-x="571" 
d="M143 -174l21 36c25 -13 50 -19 71 -19c43 0 68 15 68 42c0 24 -19 31 -54 31h-26l16 84h-5l126 650h-255l10 50h563l-10 -50h-255l-126 -650h-8l-8 -44c59 -1 83 -29 83 -67c0 -54 -50 -89 -122 -89c-33 0 -66 9 -89 26z" />
    <glyph glyph-name="tcedilla" unicode="&#x163;" horiz-adv-x="349" 
d="M71 -176l22 38c22 -12 39 -19 71 -19c41 0 68 15 68 40c0 23 -16 33 -54 33h-26l15 81c-52 12 -79 49 -80 100c0 23 7 71 13 101l58 279h-103l8 43h104l22 120h46l-21 -120h181l-9 -43h-181l-56 -269c-6 -32 -12 -79 -12 -101c1 -50 34 -67 77 -67c53 0 87 29 105 48
l24 -35c-29 -32 -81 -60 -135 -60h-2l-6 -37c60 -1 83 -27 83 -67c0 -55 -50 -89 -124 -89c-31 0 -65 7 -88 24z" />
    <glyph glyph-name="Tcaron" unicode="&#x164;" horiz-adv-x="571" 
d="M105 650l10 50h563l-10 -50h-255l-126 -650h-53l126 650h-255zM409 763l-171 104l27 30l148 -87l173 87l13 -38l-186 -96h-4z" />
    <glyph glyph-name="tcaron" unicode="&#x165;" horiz-adv-x="388" 
d="M54 477l9 43h104l23 120h48l-89 -432c-9 -45 -12 -70 -12 -102c0 -56 45 -66 76 -66c52 0 83 24 106 48l24 -36c-31 -32 -81 -59 -138 -59c-64 0 -118 30 -118 108c0 25 5 60 12 93l59 283h-104zM361 730h49c2 -7 3 -18 3 -30c0 -84 -49 -134 -108 -164l-19 26
c46 24 81 73 81 129c0 10 -2 27 -6 39z" />
    <glyph glyph-name="Umacron" unicode="&#x16a;" horiz-adv-x="717" 
d="M757 700l-79 -407c-26 -132 -116 -301 -331 -301c-148 0 -253 82 -252 235c0 23 3 47 8 73l78 400h53l-76 -391c-5 -24 -7 -46 -7 -67c-1 -138 84 -200 200 -200c148 0 245 98 277 262l77 396h52zM342 800l9 46h294l-9 -46h-294z" />
    <glyph glyph-name="umacron" unicode="&#x16b;" horiz-adv-x="569" 
d="M574 520l-101 -520h-46l18 98c-51 -67 -124 -108 -218 -108s-157 47 -157 140c0 26 5 59 11 89l60 301h47l-57 -288c-5 -24 -12 -59 -11 -93c1 -60 28 -102 122 -102c89 0 169 55 217 142l69 341h46zM258 655l9 46h254l-9 -46h-254z" />
    <glyph glyph-name="Ubreve" unicode="&#x16c;" horiz-adv-x="717" 
d="M757 700l-79 -407c-26 -132 -116 -301 -331 -301c-148 0 -253 82 -252 235c0 23 3 47 8 73l78 400h53l-76 -391c-5 -24 -7 -46 -7 -67c-1 -138 84 -200 200 -200c148 0 245 98 277 262l77 396h52zM334 869l32 23c25 -40 67 -64 130 -64c66 0 114 30 147 67l28 -22
c-34 -47 -98 -90 -177 -90c-82 0 -136 38 -160 86z" />
    <glyph glyph-name="ubreve" unicode="&#x16d;" horiz-adv-x="569" 
d="M574 520l-101 -520h-46l18 98c-51 -67 -124 -108 -218 -108s-157 47 -157 140c0 26 5 59 11 89l60 301h47l-57 -288c-5 -24 -12 -59 -11 -93c1 -60 28 -102 122 -102c89 0 169 55 217 142l69 341h46zM256 738l25 22c25 -36 67 -60 114 -60c56 0 102 25 136 59l18 -23
c-32 -42 -91 -86 -158 -86c-64 0 -112 38 -135 88z" />
    <glyph glyph-name="Uring" unicode="&#x16e;" horiz-adv-x="717" 
d="M757 700l-79 -407c-26 -132 -116 -301 -331 -301c-148 0 -253 82 -252 235c0 23 3 47 8 73l78 400h53l-76 -391c-5 -24 -7 -46 -7 -67c-1 -138 84 -200 200 -200c148 0 245 98 277 262l77 396h52zM388 811c0 56 47 96 108 96c58 0 97 -30 97 -85c0 -64 -56 -98 -110 -98
c-56 0 -95 31 -95 87zM428 814c0 -30 20 -50 58 -50c44 0 67 23 67 55c0 28 -21 48 -60 48c-41 0 -65 -25 -65 -53z" />
    <glyph glyph-name="uring" unicode="&#x16f;" horiz-adv-x="569" 
d="M574 520l-101 -520h-46l18 98c-51 -67 -124 -108 -218 -108s-157 47 -157 140c0 26 5 59 11 89l60 301h47l-57 -288c-5 -24 -12 -59 -11 -93c1 -60 28 -102 122 -102c89 0 169 55 217 142l69 341h46zM299 695c0 51 40 99 98 99c54 0 87 -37 87 -83
c0 -56 -38 -102 -100 -102c-51 0 -85 35 -85 86zM339 697c0 -27 19 -48 48 -48c33 0 57 24 57 55c0 27 -14 50 -50 50c-30 0 -55 -23 -55 -57z" />
    <glyph glyph-name="Uhungarumlaut" unicode="&#x170;" horiz-adv-x="717" 
d="M757 700l-79 -407c-26 -132 -116 -301 -331 -301c-148 0 -253 82 -252 235c0 23 3 47 8 73l78 400h53l-76 -391c-5 -24 -7 -46 -7 -67c-1 -138 84 -200 200 -200c148 0 245 98 277 262l77 396h52zM564 851l-158 -83l-15 32l155 92zM728 851l-158 -83l-15 32l155 92z" />
    <glyph glyph-name="uhungarumlaut" unicode="&#x171;" horiz-adv-x="569" 
d="M574 520l-101 -520h-46l18 98c-51 -67 -124 -108 -218 -108s-157 47 -157 140c0 26 5 59 11 89l60 301h47l-57 -288c-5 -24 -12 -59 -11 -93c1 -60 28 -102 122 -102c89 0 169 55 217 142l69 341h46zM600 780l-147 -149l-28 25l141 156zM462 781l-148 -149l-27 24
l140 157z" />
    <glyph glyph-name="Uogonek" unicode="&#x172;" horiz-adv-x="717" 
d="M758 700l-80 -407c-34 -175 -149 -289 -298 -299c-54 -14 -111 -57 -111 -108c0 -37 30 -48 61 -48c21 0 41 3 59 9l-4 -37c-18 -7 -32 -10 -59 -10c-47 -2 -99 21 -99 77c0 55 38 93 86 117c-145 12 -247 114 -210 306l78 400h53l-76 -391c-35 -179 59 -267 193 -267
c148 0 245 98 277 262l77 396h53z" />
    <glyph glyph-name="uogonek" unicode="&#x173;" horiz-adv-x="569" 
d="M443 -148l7 -41c-19 -7 -36 -11 -61 -11c-45 0 -88 24 -88 80c0 76 68 121 129 137l15 81c-51 -67 -124 -108 -218 -108s-157 47 -157 140c0 26 5 59 11 89l60 301h47l-57 -288c-5 -24 -12 -59 -11 -93c1 -60 28 -102 122 -102c89 0 169 55 217 142l69 341h46l-101 -520
h-4c-38 -2 -116 -45 -116 -109c0 -32 20 -48 49 -48c11 0 28 3 41 9z" />
    <glyph glyph-name="Ydieresis" unicode="&#x178;" horiz-adv-x="612" 
d="M723 700l-357 -393l-60 -307h-53l60 307l-202 393h58l177 -344l311 344h66zM519 822c0 18 14 33 33 33c18 0 33 -15 33 -33c0 -19 -15 -33 -33 -33c-19 0 -33 14 -33 33zM291 822c0 18 14 33 32 33c19 0 34 -15 34 -33c0 -19 -15 -33 -34 -33c-18 0 -32 14 -32 33z" />
    <glyph glyph-name="Zacute" unicode="&#x179;" horiz-adv-x="628" 
d="M135 650l10 50h564l-7 -37l-619 -613h510l-10 -50h-593l7 37l618 613h-480zM595 855l-178 -87l-15 30l173 100z" />
    <glyph glyph-name="zacute" unicode="&#x17a;" horiz-adv-x="461" 
d="M100 477l6 43h407v-26l-437 -451h342l-7 -43h-416v28l435 449h-330zM492 760l-131 -130l-26 24l123 138z" />
    <glyph glyph-name="Zdotaccent" unicode="&#x17b;" horiz-adv-x="628" 
d="M135 650l10 50h564l-7 -37l-619 -613h510l-10 -50h-593l7 37l618 613h-480zM416 822c0 18 14 33 32 33c19 0 34 -15 34 -33c0 -19 -15 -33 -34 -33c-18 0 -32 14 -32 33z" />
    <glyph glyph-name="zdotaccent" unicode="&#x17c;" horiz-adv-x="461" 
d="M100 477l6 43h407v-26l-437 -451h342l-7 -43h-416v28l435 449h-330zM294 689c0 20 15 36 35 36s36 -16 36 -36s-16 -35 -36 -35s-35 15 -35 35z" />
    <glyph glyph-name="Zcaron" unicode="&#x17d;" horiz-adv-x="628" 
d="M135 650l10 50h564l-7 -37l-619 -613h510l-10 -50h-593l7 37l618 613h-480zM440 763l-171 104l27 30l148 -87l173 87l13 -38l-186 -96h-4z" />
    <glyph glyph-name="zcaron" unicode="&#x17e;" horiz-adv-x="461" 
d="M100 477l6 43h407v-26l-437 -451h342l-7 -43h-416v28l435 449h-330zM322 634l-115 121l31 29l91 -97l137 97l18 -32l-158 -118h-4z" />
    <glyph glyph-name="uni018F" unicode="&#x18f;" horiz-adv-x="739" 
d="M63 273c0 48 9 89 16 109h626c20 169 -74 276 -238 276c-105 0 -199 -44 -269 -116l-30 33c68 73 171 134 306 134c191 0 289 -127 289 -282c0 -250 -180 -436 -414 -436c-213 0 -286 155 -286 282zM698 332h-577l-1 -5c-28 -143 56 -287 233 -287c162 0 311 120 345 292
z" />
    <glyph glyph-name="florin" unicode="&#x192;" 
d="M417 514l-12 -64h167v-46h-175l-69 -388c-18 -102 -37 -224 -168 -224c-39 0 -73 13 -91 28l15 39c16 -11 40 -21 66 -21c73 0 105 48 120 134l77 432h-158v46h166l13 73c17 97 53 186 170 186c54 0 93 -18 116 -37l-18 -39c-23 18 -50 30 -90 30
c-74 0 -109 -44 -129 -149z" />
    <glyph glyph-name="uni01DD" unicode="&#x1dd;" horiz-adv-x="507" 
d="M103 404l-27 32c47 66 141 97 211 97c127 0 217 -84 217 -215c0 -182 -131 -328 -314 -328c-88 0 -160 53 -160 136c0 98 90 182 259 182c50 0 105 -10 162 -32c2 12 3 25 3 38c0 106 -69 172 -178 172c-65 0 -130 -31 -173 -82zM201 37c116 0 210 82 241 194
c-50 23 -103 31 -152 31c-124 -1 -210 -56 -210 -123c0 -63 41 -102 121 -102z" />
    <glyph glyph-name="Scommaaccent" unicode="&#x218;" horiz-adv-x="615" 
d="M512 186c0 186 -385 107 -385 327c0 109 103 195 275 195c84 0 191 -25 240 -107l-40 -29c-47 61 -128 87 -202 87c-142 0 -217 -65 -217 -144c0 -163 385 -97 385 -321c0 -146 -150 -203 -270 -203c-121 0 -226 56 -268 136l42 32c48 -84 149 -118 235 -118
c104 0 205 49 205 145zM242 -80l42 27c9 -12 20 -34 20 -58c0 -53 -33 -98 -92 -131l-20 25c30 23 63 55 63 96c0 17 -5 30 -13 41z" />
    <glyph glyph-name="scommaaccent" unicode="&#x219;" horiz-adv-x="449" 
d="M374 135c0 142 -274 90 -274 255c0 96 87 143 184 143c90 0 153 -35 191 -84l-38 -31c-24 33 -78 68 -148 68s-139 -26 -139 -92c0 -126 274 -74 274 -258c0 -99 -103 -146 -186 -146c-111 0 -183 49 -223 123l39 27c38 -68 99 -103 188 -103c56 0 132 30 132 98z
M181 -80l43 27c9 -12 20 -34 20 -58c0 -56 -46 -110 -92 -131l-18 26c30 23 61 54 61 95c0 14 -4 29 -14 41z" />
    <glyph glyph-name="Tcommaaccent" unicode="&#x21a;" horiz-adv-x="571" 
d="M105 650l10 50h563l-10 -50h-255l-126 -650h-53l126 650h-255zM220 -80l42 27c9 -12 20 -34 20 -58c0 -53 -33 -98 -92 -131l-20 25c30 23 63 55 63 96c0 17 -5 30 -13 41z" />
    <glyph glyph-name="tcommaaccent" unicode="&#x21b;" horiz-adv-x="349" 
d="M55 477l8 43h104l22 120h46l-21 -120h181l-9 -43h-181l-56 -269c-6 -32 -12 -79 -12 -101c1 -50 34 -67 77 -67c53 0 87 29 105 48l24 -35c-29 -32 -81 -60 -135 -60c-79 0 -120 42 -121 104c0 23 7 71 13 101l58 279h-103zM153 -80l43 27c9 -12 20 -34 20 -58
c0 -56 -46 -110 -92 -131l-18 26c30 23 61 54 61 95c0 14 -4 29 -14 41z" />
    <glyph glyph-name="uni0237" unicode="&#x237;" horiz-adv-x="235" 
d="M245 520l-102 -527c-25 -127 -86 -202 -189 -202c-56 0 -99 27 -112 60l43 31c13 -19 25 -44 78 -44c66 0 112 59 131 158l102 524h49z" />
    <glyph glyph-name="uni0259" unicode="&#x259;" horiz-adv-x="507" 
d="M103 404l-27 32c47 66 141 97 211 97c127 0 217 -84 217 -215c0 -182 -131 -328 -314 -328c-88 0 -160 53 -160 136c0 98 90 182 259 182c50 0 105 -10 162 -32c2 12 3 25 3 38c0 106 -69 172 -178 172c-65 0 -130 -31 -173 -82zM201 37c116 0 210 82 241 194
c-50 23 -103 31 -152 31c-124 -1 -210 -56 -210 -123c0 -63 41 -102 121 -102z" />
    <glyph glyph-name="afii57929" unicode="&#x2bc;" horiz-adv-x="162" 
d="M231 704l43 24c8 -11 14 -31 14 -53c0 -76 -46 -127 -101 -149l-19 26c41 23 71 60 71 109c0 18 -3 31 -8 43z" />
    <glyph glyph-name="circumflex" unicode="&#x2c6;" horiz-adv-x="448" 
d="M461 777l115 -121l-31 -29l-91 97l-137 -97l-18 32l158 118h4z" />
    <glyph glyph-name="caron" unicode="&#x2c7;" horiz-adv-x="445" 
d="M429 634l-115 121l31 29l91 -97l137 97l18 -32l-158 -118h-4z" />
    <glyph glyph-name="breve" unicode="&#x2d8;" horiz-adv-x="443" 
d="M297 738l25 22c25 -36 67 -60 114 -60c56 0 102 25 136 59l18 -23c-32 -42 -91 -86 -158 -86c-64 0 -112 38 -135 88z" />
    <glyph glyph-name="dotaccent" unicode="&#x2d9;" horiz-adv-x="237" 
d="M168 689c0 20 15 36 35 36s36 -16 36 -36s-16 -35 -36 -35s-35 15 -35 35z" />
    <glyph glyph-name="ring" unicode="&#x2da;" horiz-adv-x="403" 
d="M353 695c0 51 40 99 98 99c54 0 87 -37 87 -83c0 -56 -38 -102 -100 -102c-51 0 -85 35 -85 86zM393 697c0 -27 19 -48 48 -48c33 0 57 24 57 55c0 27 -14 50 -50 50c-30 0 -55 -23 -55 -57z" />
    <glyph glyph-name="ogonek" unicode="&#x2db;" horiz-adv-x="362" 
d="M320 -148l7 -41c-19 -7 -36 -11 -61 -11c-45 0 -88 24 -88 80c0 96 109 143 175 143l-4 -23c-37 0 -119 -44 -119 -109c0 -32 20 -48 49 -48c11 0 28 3 41 9z" />
    <glyph glyph-name="tilde" unicode="&#x2dc;" horiz-adv-x="458" 
d="M294 639l-21 26c30 28 68 54 105 54c56 0 79 -52 119 -52c28 0 54 20 74 39l19 -27c-26 -29 -54 -54 -96 -54c-61 0 -80 52 -119 52c-32 0 -59 -23 -81 -38z" />
    <glyph glyph-name="hungarumlaut" unicode="&#x2dd;" horiz-adv-x="523" 
d="M671 780l-147 -149l-28 25l141 156zM533 781l-148 -149l-27 24l140 157z" />
    <glyph glyph-name="gravecomb" unicode="&#x300;" horiz-adv-x="0" 
d="M-217 616l-92 149l40 27l83 -156z" />
    <glyph glyph-name="acutecomb" unicode="&#x301;" horiz-adv-x="0" 
d="M-41 760l-131 -130l-26 24l123 138z" />
    <glyph glyph-name="uni0394" unicode="&#x394;" horiz-adv-x="713" 
d="M77 0l303 708h31l310 -708h-644zM395 619l-242 -570h490z" />
    <glyph glyph-name="uni0394" unicode="&#x2206;" horiz-adv-x="713" 
d="M77 0l303 708h31l310 -708h-644zM395 619l-242 -570h490z" />
    <glyph glyph-name="uni03A9" unicode="&#x3a9;" horiz-adv-x="804" 
d="M149 0v49h133c-84 32 -170 139 -170 301c0 203 149 358 342 358s342 -155 342 -358c0 -162 -87 -260 -179 -301h141v-49h-251v49c106 27 234 129 234 301c0 177 -133 309 -287 309c-151 0 -287 -128 -287 -309c0 -172 127 -285 233 -301v-49h-251z" />
    <glyph glyph-name="uni03A9" unicode="&#x2126;" horiz-adv-x="804" 
d="M149 0v49h133c-84 32 -170 139 -170 301c0 203 149 358 342 358s342 -155 342 -358c0 -162 -87 -260 -179 -301h141v-49h-251v49c106 27 234 129 234 301c0 177 -133 309 -287 309c-151 0 -287 -128 -287 -309c0 -172 127 -285 233 -301v-49h-251z" />
    <glyph glyph-name="pi" unicode="&#x3c0;" horiz-adv-x="713" 
d="M72 473v47h625v-47h-133v-331c0 -70 17 -98 66 -98c27 0 60 14 79 28l7 -46c-21 -16 -55 -29 -86 -29c-66 0 -115 32 -115 126v350h-261v-69c0 -330 -70 -404 -201 -404v48c94 0 152 47 152 345v80h-133z" />
    <glyph glyph-name="afii10023" unicode="&#x401;" horiz-adv-x="636" 
d="M55 0l136 700h491l-10 -50h-438l-50 -269h407l-10 -50h-409l-54 -281h448l-10 -50h-501zM539 822c0 18 14 33 33 33c18 0 33 -15 33 -33c0 -19 -15 -33 -33 -33c-19 0 -33 14 -33 33zM311 822c0 18 14 33 32 33c19 0 34 -15 34 -33c0 -19 -15 -33 -34 -33
c-18 0 -32 14 -32 33z" />
    <glyph glyph-name="afii10051" unicode="&#x402;" horiz-adv-x="727" 
d="M655 247c0 74 -37 124 -119 126c-70 1 -147 -33 -193 -88l-56 -285h-53l127 651h-255l10 49h563l-10 -49h-255l-59 -302c53 48 118 74 187 74c102 0 167 -50 167 -165c0 -171 -88 -267 -209 -267c-47 0 -82 18 -95 49l42 30c11 -18 28 -29 55 -29c88 0 153 72 153 206z
" />
    <glyph glyph-name="afii10052" unicode="&#x403;" horiz-adv-x="561" 
d="M55 0l136 700h481l-10 -50h-428l-126 -650h-53zM589 855l-178 -87l-15 30l173 100z" />
    <glyph glyph-name="afii10053" unicode="&#x404;" horiz-adv-x="681" 
d="M525 382l-10 -50h-384c-16 -189 89 -292 254 -292c100 0 188 42 235 106l34 -28c-54 -78 -160 -127 -279 -127c-185 0 -300 114 -300 291c0 239 183 427 428 427c97 0 199 -33 236 -113l-42 -29c-31 58 -98 93 -197 93c-178 0 -321 -113 -361 -278h386z" />
    <glyph glyph-name="afii10054" unicode="&#x405;" horiz-adv-x="615" 
d="M512 186c0 186 -385 107 -385 327c0 109 103 195 275 195c84 0 191 -25 240 -107l-40 -29c-47 61 -128 87 -202 87c-142 0 -217 -65 -217 -144c0 -163 385 -97 385 -321c0 -146 -150 -203 -270 -203c-121 0 -226 56 -268 136l42 32c48 -84 149 -118 235 -118
c104 0 205 49 205 145z" />
    <glyph glyph-name="afii10055" unicode="&#x406;" horiz-adv-x="233" 
d="M65 0l136 700h53l-136 -700h-53z" />
    <glyph glyph-name="afii10056" unicode="&#x407;" horiz-adv-x="233" 
d="M65 0l136 700h53l-136 -700h-53zM284 803c0 18 14 33 33 33c18 0 33 -15 33 -33c0 -19 -15 -33 -33 -33c-19 0 -33 14 -33 33zM139 803c0 18 14 33 32 33c19 0 34 -15 34 -33c0 -19 -15 -33 -34 -33c-18 0 -32 14 -32 33z" />
    <glyph glyph-name="afii10057" unicode="&#x408;" horiz-adv-x="485" 
d="M516 700l-96 -495c-24 -125 -102 -214 -242 -214c-81 0 -154 39 -181 123l42 27c20 -64 68 -102 141 -101c94 2 163 46 188 173l95 487h53z" />
    <glyph glyph-name="afii10058" unicode="&#x409;" horiz-adv-x="1034" 
d="M794 377h-151l-63 -327h141c155 0 250 71 250 199c0 81 -60 128 -177 128zM284 700h422l-53 -273h153c154 0 221 -70 221 -172c0 -169 -127 -255 -309 -255h-201l126 650h-316l-25 -131c-58 -302 -132 -523 -295 -523c-10 0 -25 -1 -32 4l10 52c79 -19 181 40 260 447z
" />
    <glyph glyph-name="afii10059" unicode="&#x40a;" horiz-adv-x="1046" 
d="M662 407h153c154 0 222 -63 222 -163c0 -162 -122 -244 -313 -244h-194l69 357h-422l-69 -357h-53l136 700h53l-57 -293h422l57 293h53zM803 357h-151l-59 -307h141c161 0 246 73 246 188c0 80 -61 119 -177 119z" />
    <glyph glyph-name="afii10060" unicode="&#x40b;" horiz-adv-x="728" 
d="M105 650l10 50h563l-10 -50h-255l-58 -298c46 36 111 71 186 71c120 0 191 -64 160 -224l-39 -199h-53l37 188c23 117 -6 185 -111 185c-70 0 -147 -36 -193 -88l-55 -285h-53l126 650h-255z" />
    <glyph glyph-name="afii10061" unicode="&#x40c;" horiz-adv-x="639" 
d="M55 0l136 700h53l-72 -370l466 370h81l-410 -323l299 -377h-69l-273 344l-107 -83l-51 -261h-53zM590 855l-178 -87l-15 30l173 100z" />
    <glyph glyph-name="afii10062" unicode="&#x40e;" horiz-adv-x="663" 
d="M161 19l34 47c8 -6 19 -12 35 -12c37 0 75 47 122 117l-241 529h60l218 -475l321 475h64l-373 -543c-58 -88 -114 -157 -180 -157c-26 0 -46 8 -60 19zM294 884l43 17c12 -61 50 -85 114 -85c73 0 118 35 143 82l39 -17c-28 -59 -96 -109 -185 -109
c-92 0 -141 43 -154 112z" />
    <glyph glyph-name="afii10145" unicode="&#x40f;" horiz-adv-x="710" 
d="M55 0l136 700h53l-126 -651h444l126 651h53l-136 -700h-251l-31 -157h-50l31 157h-249z" />
    <glyph glyph-name="afii10017" unicode="&#x410;" horiz-adv-x="669" 
d="M-21 0l444 703h47l170 -703h-51l-51 205h-370l-128 -205h-61zM436 631l-237 -376h329z" />
    <glyph glyph-name="afii10018" unicode="&#x411;" horiz-adv-x="657" 
d="M674 700l-10 -50h-430l-49 -252h227c147 0 225 -56 225 -159c0 -148 -104 -239 -310 -239h-272l136 700h483zM401 348h-225l-58 -298h219c155 0 244 62 244 178c0 79 -60 120 -180 120z" />
    <glyph glyph-name="afii10019" unicode="&#x412;" horiz-adv-x="670" 
d="M55 0l136 700h267c160 0 218 -58 218 -152c0 -83 -56 -157 -153 -185c72 -13 114 -65 114 -133c0 -161 -124 -230 -320 -230h-262zM398 333h-225l-55 -283h215c170 0 248 59 248 171c0 73 -58 112 -183 112zM443 650h-209l-52 -267h228c118 0 210 60 210 156
c0 79 -55 111 -177 111z" />
    <glyph glyph-name="afii10020" unicode="&#x413;" horiz-adv-x="561" 
d="M55 0l136 700h481l-10 -50h-428l-126 -650h-53z" />
    <glyph glyph-name="afii10021" unicode="&#x414;" horiz-adv-x="732" 
d="M-51 -134l36 184h73c68 68 147 206 206 510l27 140h449l-126 -650h93l-36 -184h-50l26 134h-622l-26 -134h-50zM333 650l-25 -127c-35 -182 -103 -383 -185 -473h438l117 600h-345z" />
    <glyph glyph-name="afii10022" unicode="&#x415;" horiz-adv-x="636" 
d="M55 0l136 700h491l-10 -50h-438l-50 -269h407l-10 -50h-409l-54 -281h448l-10 -50h-501z" />
    <glyph glyph-name="afii10024" unicode="&#x416;" horiz-adv-x="906" 
d="M383 383l-260 317h65l283 -339l66 339h53l-66 -339l403 339h75l-384 -320l259 -380h-65l-238 348l-61 -45l-59 -303h-53l60 305l-43 45l-364 -350h-75z" />
    <glyph glyph-name="afii10025" unicode="&#x417;" horiz-adv-x="640" 
d="M293 -9c-136 0 -225 51 -271 140l40 27c46 -79 119 -117 240 -117c136 0 249 70 249 176c0 68 -67 116 -173 116h-132l10 50h126c98 0 206 65 206 159c0 79 -80 117 -179 117c-114 0 -196 -48 -254 -116l-34 30c60 74 155 136 293 136c139 0 230 -56 230 -161
c0 -91 -64 -153 -155 -186c80 -22 118 -79 118 -137c0 -144 -148 -234 -314 -234z" />
    <glyph glyph-name="afii10026" unicode="&#x418;" horiz-adv-x="735" 
d="M102 0h-47l136 700h53l-117 -604l591 604h48l-136 -700h-53l116 601z" />
    <glyph glyph-name="afii10027" unicode="&#x419;" horiz-adv-x="735" 
d="M102 0h-47l136 700h53l-117 -604l591 604h48l-136 -700h-53l116 601zM339 884l43 17c12 -61 50 -85 114 -85c73 0 118 35 143 82l39 -17c-28 -59 -96 -109 -185 -109c-92 0 -141 43 -154 112z" />
    <glyph glyph-name="afii10028" unicode="&#x41a;" horiz-adv-x="639" 
d="M55 0l136 700h53l-72 -370l466 370h81l-410 -323l299 -377h-69l-273 344l-107 -83l-51 -261h-53z" />
    <glyph glyph-name="afii10029" unicode="&#x41b;" horiz-adv-x="699" 
d="M541 0l127 650h-340l-26 -131c-59 -302 -132 -523 -295 -523c-10 0 -25 -1 -32 4l10 52c79 -19 181 40 260 447l39 201h446l-136 -700h-53z" />
    <glyph glyph-name="afii10030" unicode="&#x41c;" horiz-adv-x="829" 
d="M55 0l136 700h50l211 -381l348 381h60l-136 -700h-53l120 616l-347 -378h-11l-206 375l-119 -613h-53z" />
    <glyph glyph-name="afii10031" unicode="&#x41d;" horiz-adv-x="745" 
d="M587 0l65 332h-479l-65 -332h-53l136 700h53l-60 -318h477l62 318h53l-136 -700h-53z" />
    <glyph glyph-name="afii10032" unicode="&#x41e;" horiz-adv-x="784" 
d="M88 288c0 230 171 421 410 421c181 0 310 -126 310 -297c0 -228 -172 -421 -409 -421c-198 0 -311 128 -311 297zM144 298c0 -153 103 -257 258 -257c210 0 350 174 350 362c0 140 -97 256 -257 256c-219 0 -351 -180 -351 -361z" />
    <glyph glyph-name="afii10033" unicode="&#x41f;" horiz-adv-x="739" 
d="M581 0l126 650h-473l-126 -650h-53l136 700h579l-136 -700h-53z" />
    <glyph glyph-name="afii10034" unicode="&#x420;" horiz-adv-x="649" 
d="M108 0h-53l136 700h262c180 0 232 -81 232 -173c0 -139 -102 -247 -329 -247h-194zM442 650h-207l-63 -320h192c184 -1 265 83 265 192c0 77 -55 128 -187 128z" />
    <glyph glyph-name="afii10035" unicode="&#x421;" horiz-adv-x="684" 
d="M631 134l30 -35c-59 -61 -147 -108 -280 -108c-197 0 -307 120 -307 297c0 227 173 421 419 421c134 0 214 -54 248 -107l-36 -33c-46 56 -104 90 -217 90c-216 0 -358 -168 -358 -369c0 -150 96 -249 257 -249c109 0 185 35 244 93z" />
    <glyph glyph-name="afii10036" unicode="&#x422;" horiz-adv-x="571" 
d="M105 650l10 50h563l-10 -50h-255l-126 -650h-53l126 650h-255z" />
    <glyph glyph-name="afii10037" unicode="&#x423;" horiz-adv-x="663" 
d="M161 19l34 47c8 -6 19 -12 35 -12c37 0 75 47 122 117l-241 529h60l218 -475l321 475h64l-373 -543c-58 -88 -114 -157 -180 -157c-26 0 -46 8 -60 19z" />
    <glyph glyph-name="afii10038" unicode="&#x424;" horiz-adv-x="829" 
d="M360 -15l17 88h-5c-191 0 -303 91 -303 238c0 199 159 336 420 336l13 68h52l-13 -68c169 0 309 -78 309 -240c0 -212 -173 -334 -415 -334h-6l-17 -88h-52zM534 598h-3l-92 -476h6c207 0 349 105 349 277c0 123 -99 199 -260 199zM125 319c0 -137 104 -197 258 -197h4
l92 476c-180 0 -354 -86 -354 -279z" />
    <glyph glyph-name="afii10039" unicode="&#x425;" horiz-adv-x="632" 
d="M714 700l-323 -349l194 -351h-61l-171 312l-291 -312h-67l331 356l-184 344h57l165 -303l282 303h68z" />
    <glyph glyph-name="afii10040" unicode="&#x426;" horiz-adv-x="742" 
d="M55 0l136 700h53l-126 -650h453l126 650h53l-126 -650h93l-36 -184h-50l26 134h-602z" />
    <glyph glyph-name="afii10041" unicode="&#x427;" horiz-adv-x="671" 
d="M703 700l-137 -700h-53l62 319c-49 -25 -148 -57 -231 -57c-140 0 -231 50 -230 171c0 17 2 35 6 54l41 213h53l-39 -202c-3 -18 -5 -34 -5 -49c-1 -97 55 -137 183 -137c75 0 186 34 233 60l64 328h53z" />
    <glyph glyph-name="afii10042" unicode="&#x428;" horiz-adv-x="915" 
d="M55 0l136 700h53l-126 -650h298l126 650h53l-126 -650h298l126 650h53l-136 -700h-755z" />
    <glyph glyph-name="afii10043" unicode="&#x429;" horiz-adv-x="938" 
d="M55 0l136 700h53l-126 -650h298l126 650h53l-126 -650h298l126 650h53l-126 -650h93l-36 -184h-50l26 134h-798z" />
    <glyph glyph-name="afii10044" unicode="&#x42a;" horiz-adv-x="746" 
d="M102 651l10 49h229l-54 -276h218c155 0 234 -64 234 -174c0 -149 -105 -250 -326 -250h-262l127 651h-176zM493 374h-216l-63 -324h205c165 0 264 69 264 195c0 84 -65 129 -190 129z" />
    <glyph glyph-name="afii10045" unicode="&#x42b;" horiz-adv-x="836" 
d="M678 0l136 700h53l-136 -700h-53zM369 374h-188l-63 -324h177c165 0 262 69 262 196c0 73 -52 128 -188 128zM244 700l-54 -276h190c156 0 233 -63 233 -173c0 -164 -126 -251 -321 -251h-237l136 700h53z" />
    <glyph glyph-name="afii10046" unicode="&#x42c;" horiz-adv-x="650" 
d="M397 374h-216l-63 -324h206c165 0 262 69 262 196c0 83 -64 128 -189 128zM244 700l-54 -276h218c157 0 234 -63 234 -174c0 -166 -128 -250 -325 -250h-262l136 700h53z" />
    <glyph glyph-name="afii10047" unicode="&#x42d;" horiz-adv-x="689" 
d="M236 332l10 50h398c20 169 -69 278 -248 278c-115 0 -200 -51 -259 -118l-28 33c70 78 167 134 294 134c194 0 298 -110 298 -282c0 -236 -175 -436 -424 -436c-112 0 -212 41 -257 125l41 29c40 -65 117 -105 218 -105c174 0 321 124 355 292h-398z" />
    <glyph glyph-name="afii10048" unicode="&#x42e;" horiz-adv-x="984" 
d="M55 0l136 700h53l-62 -318h141c33 155 173 327 392 327c206 0 283 -151 283 -290c0 -211 -151 -428 -400 -428c-178 0 -286 126 -283 296c0 15 -2 30 0 45h-142l-65 -332h-53zM371 292c0 -151 91 -251 232 -251c195 0 339 168 339 369c0 131 -75 249 -231 249
c-185 0 -340 -163 -340 -367z" />
    <glyph glyph-name="afii10049" unicode="&#x42f;" horiz-adv-x="671" 
d="M513 0l53 275h-228l-286 -275h-67l294 282c-99 18 -158 74 -158 171c0 126 88 247 306 247h275l-136 -700h-53zM351 325h225l63 325h-217c-175 0 -245 -94 -245 -190s72 -135 174 -135z" />
    <glyph glyph-name="afii10065" unicode="&#x430;" horiz-adv-x="569" 
d="M433 0l19 94c-24 -36 -98 -103 -191 -103c-133 0 -205 88 -205 207c0 207 169 335 310 335c73 0 130 -24 161 -55l8 42h45l-101 -520h-46zM263 38c105 0 170 80 201 131l52 256c-25 35 -76 61 -151 61c-127 0 -259 -114 -259 -286c0 -108 66 -162 157 -162z" />
    <glyph glyph-name="afii10066" unicode="&#x431;" horiz-adv-x="574" 
d="M589 743v-41c-77 -45 -208 -8 -294 -48c-98 -46 -150 -156 -177 -277c55 102 152 153 263 153c139 0 189 -100 189 -187c0 -229 -141 -353 -297 -353c-132 0 -217 103 -217 216c0 222 76 419 219 488c97 47 218 11 314 49zM114 292c-6 -28 -8 -53 -8 -76
c1 -107 71 -179 174 -179c117 0 240 105 240 295c0 65 -40 151 -148 151c-138 0 -227 -109 -258 -191z" />
    <glyph glyph-name="afii10067" unicode="&#x432;" horiz-adv-x="534" 
d="M530 424c0 -60 -46 -104 -118 -138c59 -12 100 -46 100 -105c0 -114 -102 -191 -231 -191c-135 0 -225 84 -225 215c0 182 149 328 318 328c97 0 156 -35 156 -109zM462 177c0 52 -47 76 -115 84c-70 -22 -154 -38 -241 -48v-4c0 -106 69 -172 178 -172
c94 0 178 49 178 140zM369 486c-129 0 -238 -101 -259 -231c201 26 370 82 370 157c0 57 -41 74 -111 74z" />
    <glyph glyph-name="afii10068" unicode="&#x433;" horiz-adv-x="470" 
d="M90 124c0 -47 48 -87 130 -87c84 0 172 39 213 109l27 -32c-45 -77 -140 -124 -242 -124c-128 0 -178 70 -178 134c0 211 375 124 375 282c0 45 -41 80 -121 80c-65 0 -129 -23 -171 -76l-33 31c46 62 133 92 215 92c101 0 160 -44 160 -122c0 -213 -375 -120 -375 -287z
" />
    <glyph glyph-name="afii10069" unicode="&#x434;" horiz-adv-x="576" 
d="M56 198c0 189 150 335 315 335c87 0 136 -39 158 -67c-5 104 -69 214 -268 199l-3 43c204 16 318 -71 318 -272c0 -281 -144 -444 -304 -444c-104 0 -216 62 -216 206zM106 198c0 -124 97 -158 167 -158c129 0 246 144 254 354c-19 41 -66 92 -168 92
c-133 0 -253 -127 -253 -288z" />
    <glyph glyph-name="afii10070" unicode="&#x435;" horiz-adv-x="520" 
d="M457 119l27 -32c-47 -66 -141 -97 -211 -97c-127 0 -217 84 -217 215c0 182 149 328 314 328c101 0 160 -44 160 -122c0 -114 -147 -202 -420 -156c-3 -15 -4 -30 -4 -46c0 -106 69 -172 178 -172c65 0 130 31 173 82zM359 486c-107 0 -205 -80 -240 -190
c253 -38 361 40 361 110c0 45 -41 80 -121 80z" />
    <glyph glyph-name="afii10072" unicode="&#x436;" horiz-adv-x="712" 
d="M284 279l-192 241h58l205 -256l47 256h46l-46 -256l297 256h65l-282 -243l200 -277h-56l-185 251l-49 -37l-40 -214h-46l40 213l-32 33l-267 -246h-66z" />
    <glyph glyph-name="afii10073" unicode="&#x437;" horiz-adv-x="493" 
d="M226 -10c-123 0 -179 52 -207 117l41 24c17 -52 77 -94 177 -94c74 0 175 38 175 128c0 59 -32 77 -135 77h-99l8 47h117c54 0 131 48 131 112c0 65 -48 85 -126 85c-91 0 -147 -44 -181 -79l-27 34c38 45 112 92 216 92c103 0 168 -39 168 -121c0 -60 -41 -117 -96 -139
c48 -13 74 -56 74 -93c0 -124 -108 -190 -236 -190z" />
    <glyph glyph-name="afii10074" unicode="&#x438;" horiz-adv-x="569" 
d="M574 520l-101 -520h-46l18 98c-51 -67 -124 -108 -218 -108s-157 47 -157 140c0 26 5 59 11 89l60 301h47l-57 -288c-5 -24 -12 -59 -11 -93c1 -60 28 -102 122 -102c89 0 169 55 217 142l69 341h46z" />
    <glyph glyph-name="afii10075" unicode="&#x439;" horiz-adv-x="569" 
d="M574 520l-101 -520h-46l18 98c-51 -67 -124 -108 -218 -108s-157 47 -157 140c0 26 5 59 11 89l60 301h47l-57 -288c-5 -24 -12 -59 -11 -93c1 -60 28 -102 122 -102c89 0 169 55 217 142l69 341h46zM246 748h41c-9 -58 17 -99 84 -99c70 0 112 40 129 99h42
c-16 -80 -84 -142 -171 -142c-94 0 -140 61 -125 142z" />
    <glyph glyph-name="afii10076" unicode="&#x43a;" horiz-adv-x="496" 
d="M45 0l96 520h46l-47 -261l335 261h71l-314 -246l236 -274h-64l-217 251l-58 -47l-38 -204h-46z" />
    <glyph glyph-name="afii10077" unicode="&#x43b;" horiz-adv-x="555" 
d="M416 0l88 477h-251l-30 -125c-67 -284 -145 -372 -238 -355l5 50c56 -11 119 34 186 312l39 161h345l-97 -520h-47z" />
    <glyph glyph-name="afii10078" unicode="&#x43c;" horiz-adv-x="643" 
d="M45 0l96 520h42l157 -290l262 290h46l-96 -520h-46l81 442l-256 -287l-158 286l-82 -441h-46z" />
    <glyph glyph-name="afii10079" unicode="&#x43d;" horiz-adv-x="569" 
d="M431 0l46 244h-340l-46 -244h-46l96 520h46l-43 -233h340l43 233h47l-96 -520h-47z" />
    <glyph glyph-name="afii10080" unicode="&#x43e;" horiz-adv-x="586" 
d="M56 212c0 203 142 321 292 321c144 0 232 -102 232 -228c0 -199 -133 -315 -292 -315c-136 0 -232 95 -232 222zM106 230c0 -108 66 -193 182 -193c138 0 242 99 242 258c0 124 -86 191 -186 191c-120 0 -238 -105 -238 -256z" />
    <glyph glyph-name="afii10081" unicode="&#x43f;" horiz-adv-x="566" 
d="M45 0l96 520h47l-15 -83c52 54 129 95 220 95c97 0 155 -64 155 -157c0 -28 -7 -72 -12 -101l-59 -274h-46l57 266c4 23 12 54 12 106c-1 75 -43 113 -113 113c-101 0 -192 -62 -231 -135l-64 -350h-47z" />
    <glyph glyph-name="afii10082" unicode="&#x440;" horiz-adv-x="576" 
d="M3 -200l133 720h47l-15 -87c56 74 135 100 207 100c144 0 195 -97 195 -188c0 -247 -159 -355 -303 -355c-71 0 -142 29 -168 77l-49 -267h-47zM362 486c-97 0 -176 -72 -211 -137l-41 -220c33 -76 99 -92 167 -92c111 0 243 101 243 288c0 85 -43 161 -158 161z" />
    <glyph glyph-name="afii10083" unicode="&#x441;" horiz-adv-x="502" 
d="M457 119l27 -32c-47 -66 -141 -97 -211 -97c-127 0 -217 84 -217 215c0 182 129 328 314 328c72 0 144 -35 168 -92l-39 -26c-27 51 -73 71 -140 71c-145 0 -253 -125 -253 -277c0 -106 69 -172 178 -172c65 0 130 31 173 82z" />
    <glyph glyph-name="afii10084" unicode="&#x442;" horiz-adv-x="853" 
d="M835 344l-69 -344h-47l66 328c4 22 6 43 6 73c-1 46 -34 84 -99 84c-98 0 -151 -52 -191 -114l-71 -371h-47l69 356c14 76 -18 129 -94 129c-100 0 -169 -78 -198 -128l-69 -357h-46l99 520h46l-16 -85c40 50 105 97 183 97c76 0 133 -36 143 -96c49 60 115 96 189 96
c80 0 151 -33 152 -130c0 -17 -2 -37 -6 -58z" />
    <glyph glyph-name="afii10085" unicode="&#x443;" horiz-adv-x="498" 
d="M2 -198l28 43c8 -5 17 -8 27 -8c42 0 79 36 144 144l17 29l-160 510h54l140 -449l255 449h55l-298 -522c-101 -177 -151 -208 -216 -208c-17 0 -33 4 -46 12z" />
    <glyph glyph-name="afii10086" unicode="&#x444;" horiz-adv-x="660" 
d="M247 -200l35 190c-109 0 -226 75 -226 216c0 188 151 323 319 323h7l37 201h47l-37 -201c154 0 225 -101 225 -213c0 -205 -150 -326 -319 -326h-6l-35 -190h-47zM106 209c0 -108 79 -172 185 -172l82 445h-7c-151 0 -260 -125 -260 -273zM419 482l-82 -445h6
c141 0 261 109 261 266c0 120 -66 179 -185 179z" />
    <glyph glyph-name="afii10087" unicode="&#x445;" horiz-adv-x="485" 
d="M536 520l-237 -254l152 -266h-54l-135 234l-218 -234h-58l248 270l-142 250h53l126 -219l204 219h61z" />
    <glyph glyph-name="afii10088" unicode="&#x446;" horiz-adv-x="570" 
d="M567 520l-84 -421c-8 -44 11 -52 42 -52h37l-34 -181h-44l25 134c-66 0 -79 40 -71 83l3 17c-51 -67 -128 -110 -222 -110s-157 47 -157 140c0 26 5 59 11 89l62 301h47l-59 -288c-5 -24 -12 -59 -11 -93c1 -60 28 -102 122 -102c89 0 169 55 217 142l70 341h46z" />
    <glyph glyph-name="afii10089" unicode="&#x447;" horiz-adv-x="512" 
d="M517 520l-96 -520h-47l45 242c-45 -43 -121 -73 -186 -73c-102 0 -156 48 -157 143c0 19 3 41 7 64l30 144h47l-30 -141c-4 -19 -4 -52 -4 -72c-1 -68 50 -91 107 -91c90 0 154 40 199 92l38 212h47z" />
    <glyph glyph-name="afii10090" unicode="&#x448;" horiz-adv-x="796" 
d="M72 176l71 344h47l-68 -328c-4 -22 -6 -43 -6 -73c1 -46 19 -84 79 -84c87 0 141 52 181 114l72 371h47l-70 -356c-14 -76 4 -129 74 -129c100 0 159 78 188 128l68 357h46l-98 -520h-46l14 75c-37 -43 -93 -87 -171 -87c-76 0 -113 36 -123 96
c-49 -60 -113 -96 -179 -96c-75 0 -131 33 -132 130c0 17 2 37 6 58z" />
    <glyph glyph-name="afii10091" unicode="&#x449;" horiz-adv-x="804" 
d="M678 83c-37 -48 -100 -95 -178 -95c-76 0 -113 36 -123 96c-49 -60 -113 -96 -179 -96c-75 0 -131 33 -132 130c0 17 2 37 6 58l71 344h47l-68 -328c-4 -22 -6 -43 -6 -73c1 -46 19 -84 79 -84c87 0 141 52 181 114l72 371h47l-70 -356c-14 -76 4 -129 74 -129
c100 0 159 78 188 128l68 357h46l-76 -398c-13 -67 6 -75 37 -75h37l-34 -181h-44l25 134c-66 0 -76 40 -68 83z" />
    <glyph glyph-name="afii10092" unicode="&#x44a;" horiz-adv-x="549" 
d="M52 477l6 43h185l-33 -176h131c162 0 190 -70 190 -138c0 -126 -85 -206 -265 -206h-166l89 477h-137zM322 301h-119l-49 -258h126c131 0 201 64 201 151c0 70 -24 107 -159 107z" />
    <glyph glyph-name="afii10093" unicode="&#x44b;" horiz-adv-x="652" 
d="M45 0l96 520h46l-32 -176h91c172 0 209 -61 209 -125c0 -131 -86 -219 -254 -219h-156zM257 301h-110l-48 -258h121c115 0 185 66 185 167c0 51 -35 91 -148 91zM514 0l96 520h47l-96 -520h-47z" />
    <glyph glyph-name="afii10094" unicode="&#x44c;" horiz-adv-x="487" 
d="M45 0l96 520h46l-32 -176h111c172 0 209 -61 209 -125c0 -131 -86 -219 -254 -219h-176zM277 301h-130l-48 -258h141c115 0 185 66 185 167c0 51 -35 91 -148 91z" />
    <glyph glyph-name="afii10095" unicode="&#x44d;" horiz-adv-x="523" 
d="M191 243l10 47h266c11 128 -55 196 -165 196c-75 0 -144 -30 -194 -92l-34 31c53 64 139 108 223 108c159 0 220 -100 220 -209c0 -208 -142 -334 -298 -334c-87 0 -156 24 -199 103l37 27c35 -63 93 -83 167 -83c112 0 215 86 236 206h-269z" />
    <glyph glyph-name="afii10096" unicode="&#x44e;" horiz-adv-x="762" 
d="M45 0l96 520h46l-43 -228h107c32 144 160 241 292 241c143 0 213 -108 213 -207c0 -211 -140 -336 -296 -336c-124 0 -228 78 -218 259h-105l-46 -249h-46zM291 215c0 -121 75 -178 177 -178c114 0 238 104 238 272c0 101 -64 177 -175 177c-125 0 -240 -121 -240 -271z
" />
    <glyph glyph-name="afii10097" unicode="&#x44f;" horiz-adv-x="519" 
d="M331 520h193l-96 -520h-47l37 200h-149l-208 -200h-65l213 206c-65 18 -115 59 -115 136c0 87 83 178 237 178zM144 344c0 -65 46 -101 125 -101h157l45 234h-156c-105 0 -171 -67 -171 -133z" />
    <glyph glyph-name="afii10071" unicode="&#x451;" horiz-adv-x="520" 
d="M457 119l27 -32c-47 -66 -141 -97 -211 -97c-127 0 -217 84 -217 215c0 182 149 328 314 328c101 0 160 -44 160 -122c0 -114 -147 -202 -420 -156c-3 -15 -4 -30 -4 -46c0 -106 69 -172 178 -172c65 0 130 31 173 82zM359 486c-107 0 -205 -80 -240 -190
c253 -38 361 40 361 110c0 45 -41 80 -121 80zM477 689c0 20 15 36 35 36s36 -16 36 -36s-16 -35 -36 -35s-35 15 -35 35zM243 689c0 20 15 36 35 36s36 -16 36 -36s-16 -35 -36 -35s-35 15 -35 35z" />
    <glyph glyph-name="afii10099" unicode="&#x452;" horiz-adv-x="563" 
d="M24 520l9 47h138l31 163h46l-30 -163h224l-8 -47h-225l-39 -214c59 65 135 96 204 96c123 0 171 -70 171 -153c0 -209 -128 -372 -290 -451l-17 40c140 62 257 229 257 383c0 74 -16 134 -142 134c-71 0 -165 -65 -197 -123l-42 -232h-47l96 520h-139z" />
    <glyph glyph-name="afii10100" unicode="&#x453;" horiz-adv-x="434" 
d="M530 754l-163 -164l-26 21l156 171zM70 0l101 520h364l-9 -47h-315l-92 -473h-49z" />
    <glyph glyph-name="afii10101" unicode="&#x454;" horiz-adv-x="515" 
d="M378 290l-9 -47h-265c-16 -138 70 -206 181 -206c69 0 127 32 168 81l34 -29c-53 -70 -129 -99 -215 -99c-137 0 -220 94 -220 215c0 200 135 328 318 328c68 0 139 -28 171 -91l-39 -31c-22 48 -75 75 -141 75c-126 0 -215 -80 -246 -196h263z" />
    <glyph glyph-name="afii10102" unicode="&#x455;" horiz-adv-x="449" 
d="M374 135c0 142 -274 90 -274 255c0 96 87 143 184 143c90 0 153 -35 191 -84l-38 -31c-24 33 -78 68 -148 68s-139 -26 -139 -92c0 -126 274 -74 274 -258c0 -99 -103 -146 -186 -146c-111 0 -183 49 -223 123l39 27c38 -68 99 -103 188 -103c56 0 132 30 132 98z" />
    <glyph glyph-name="afii10103" unicode="&#x456;" horiz-adv-x="198" 
d="M50 0l96 520h47l-96 -520h-47zM165 689c0 20 15 36 35 36s36 -16 36 -36s-16 -35 -36 -35s-35 15 -35 35z" />
    <glyph glyph-name="afii10104" unicode="&#x457;" horiz-adv-x="198" 
d="M50 0l96 520h47l-96 -520h-47zM101 689c0 20 15 36 35 36s36 -16 36 -36s-16 -35 -36 -35s-35 15 -35 35zM221 689c0 20 15 36 35 36s36 -16 36 -36s-16 -35 -36 -35s-35 15 -35 35z" />
    <glyph glyph-name="afii10105" unicode="&#x458;" horiz-adv-x="208" 
d="M205 520l-97 -527c-24 -127 -81 -202 -178 -202c-53 0 -88 32 -100 65l34 26c13 -19 25 -44 75 -44c62 0 105 59 124 158l95 524h47zM175 689c0 20 15 36 35 36s36 -16 36 -36s-16 -35 -36 -35s-35 15 -35 35z" />
    <glyph glyph-name="afii10106" unicode="&#x459;" horiz-adv-x="794" 
d="M412 0l88 473h-254l-29 -123c-69 -284 -156 -350 -236 -353l5 50c33 -1 120 37 187 315l38 158h345l-34 -176h89c123 0 166 -47 166 -124c0 -122 -84 -220 -236 -220h-129zM595 297h-80l-47 -249h77c125 0 181 77 181 155c0 66 -21 94 -131 94z" />
    <glyph glyph-name="afii10107" unicode="&#x45a;" horiz-adv-x="810" 
d="M42 0l96 520h46l-39 -214h340l39 214h47l-39 -214h87c137 0 171 -47 171 -122c0 -100 -82 -184 -235 -184h-127l49 259h-340l-49 -259h-46zM602 260h-79l-39 -213h77c115 0 177 54 177 130c0 62 -25 83 -136 83z" />
    <glyph glyph-name="afii10108" unicode="&#x45b;" horiz-adv-x="586" 
d="M31 520l8 47h139l30 163h47l-30 -163h224l-9 -47h-224l-38 -208c58 66 134 90 202 90c112 0 173 -49 173 -150c0 -32 -4 -57 -9 -85l-31 -167h-46l29 158c5 27 7 60 7 91c0 65 -35 106 -132 106c-83 0 -165 -47 -208 -123l-43 -232h-47l96 520h-138z" />
    <glyph glyph-name="afii10109" unicode="&#x45c;" horiz-adv-x="496" 
d="M45 0l96 520h46l-47 -261l335 261h71l-314 -246l236 -274h-64l-217 251l-58 -47l-38 -204h-46zM522 762l-141 -141l-29 24l133 148z" />
    <glyph glyph-name="afii10110" unicode="&#x45e;" horiz-adv-x="498" 
d="M2 -198l28 43c8 -5 17 -8 27 -8c42 0 79 36 144 144l17 29l-160 510h54l140 -449l255 449h55l-298 -522c-101 -177 -151 -208 -216 -208c-17 0 -33 4 -46 12zM189 748h41c-9 -58 17 -99 84 -99c70 0 112 40 129 99h42c-16 -80 -84 -142 -171 -142c-94 0 -140 61 -125 142
z" />
    <glyph glyph-name="afii10193" unicode="&#x45f;" horiz-adv-x="569" 
d="M243 -44h44l-21 -111h-44zM574 520l-101 -520h-46l18 98c-51 -67 -124 -108 -218 -108s-157 47 -157 140c0 26 5 59 11 89l60 301h47l-57 -288c-5 -24 -12 -59 -11 -93c1 -60 28 -102 122 -102c89 0 169 55 217 142l69 341h46z" />
    <glyph glyph-name="afii10146" unicode="&#x462;" horiz-adv-x="718" 
d="M80 536l9 50h148l22 114h53l-22 -114h250l-10 -50h-250l-22 -112h212c162 0 240 -63 240 -173c0 -160 -119 -251 -325 -251h-262l104 536h-147zM458 374h-209l-63 -324h206c164 0 262 69 262 196c0 83 -64 128 -196 128z" />
    <glyph glyph-name="afii10194" unicode="&#x463;" horiz-adv-x="815" 
d="M380 0l66 356c4 22 6 41 5 57c-2 52 -32 72 -99 72c-100 0 -169 -78 -198 -128l-66 -357h-46l96 520h46l-16 -85c40 50 105 97 200 97c75 0 130 -37 130 -99c0 -24 1 -41 -3 -62l-5 -27h111c172 0 209 -61 209 -125c0 -131 -86 -219 -254 -219h-176zM612 301h-130
l-48 -258h141c115 0 185 66 185 167c0 51 -35 91 -148 91z" />
    <glyph glyph-name="afii10147" unicode="&#x472;" horiz-adv-x="784" 
d="M75 288c0 218 172 421 430 421c171 0 290 -123 290 -297c0 -206 -162 -421 -425 -421c-176 0 -295 123 -295 297zM375 40c170 0 316 107 358 288h-602c-17 -165 88 -288 244 -288zM495 660c-198 0 -323 -144 -354 -282h599c13 163 -91 282 -245 282z" />
    <glyph glyph-name="afii10195" unicode="&#x473;" horiz-adv-x="586" 
d="M56 212c0 203 142 321 292 321c144 0 232 -102 232 -228c0 -199 -133 -315 -292 -315c-136 0 -232 95 -232 222zM106 230c0 -108 66 -193 182 -193c122 0 218 78 238 207h-420v-14zM344 486c-105 0 -207 -80 -232 -200h418v9c0 124 -86 191 -186 191z" />
    <glyph glyph-name="afii10148" unicode="&#x474;" horiz-adv-x="769" 
d="M718 552l-362 -552h-42l-203 700h56l182 -622l329 506c61 92 105 122 159 122c26 0 43 -6 60 -20l-33 -45c-8 5 -15 12 -31 12c-36 0 -67 -28 -115 -101z" />
    <glyph glyph-name="afii10196" unicode="&#x475;" horiz-adv-x="535" 
d="M469 381l-234 -381h-32l-137 520h50l115 -442l197 324c48 77 98 120 142 119c22 0 37 -6 51 -25l-32 -36c-8 11 -18 14 -29 14c-20 0 -53 -30 -91 -93z" />
    <glyph glyph-name="afii10050" unicode="&#x490;" horiz-adv-x="561" 
d="M55 0l136 700h431l26 132h50l-35 -181h-428l-127 -651h-53z" />
    <glyph glyph-name="afii10098" unicode="&#x491;" horiz-adv-x="412" 
d="M37 0l96 520h300l21 112h46l-30 -159h-299l-87 -473h-47z" />
    <glyph glyph-name="uni1E9E" unicode="&#x1e9e;" horiz-adv-x="655" 
d="M435 708c129 0 189 -71 213 -138l-206 -189c123 -6 178 -61 179 -166c0 -132 -89 -224 -258 -224c-63 0 -102 11 -125 25l26 48c24 -13 57 -21 105 -21c122 0 195 56 195 166c0 89 -60 122 -173 122h-32l8 40l215 203c-17 43 -67 85 -153 85c-157 0 -210 -91 -233 -204
l-88 -455h-53l92 472c29 149 119 236 288 236z" />
    <glyph glyph-name="uni2010" unicode="&#x2010;" horiz-adv-x="400" 
d="M141 248v47h228v-47h-228z" />
    <glyph glyph-name="uni2011" unicode="&#x2011;" horiz-adv-x="400" 
d="M141 248v47h228v-47h-228z" />
    <glyph glyph-name="figuredash" unicode="&#x2012;" horiz-adv-x="590" 
d="M168 332v44h401v-44h-401z" />
    <glyph glyph-name="endash" unicode="&#x2013;" horiz-adv-x="590" 
d="M126 248v44h401v-44h-401z" />
    <glyph glyph-name="emdash" unicode="&#x2014;" horiz-adv-x="795" 
d="M126 248v44h607v-44h-607z" />
    <glyph glyph-name="quoteleft" unicode="&#x2018;" horiz-adv-x="238" 
d="M226 551l-43 -24c-8 11 -14 31 -14 53c0 76 46 127 101 149l19 -26c-41 -23 -71 -60 -71 -109c0 -18 3 -31 8 -43z" />
    <glyph glyph-name="quoteright" unicode="&#x2019;" horiz-adv-x="238" 
d="M206 704l43 24c8 -11 14 -31 14 -53c0 -76 -46 -127 -101 -149l-19 26c41 23 71 60 71 109c0 18 -3 31 -8 43z" />
    <glyph glyph-name="quotesinglbase" unicode="&#x201a;" horiz-adv-x="238" 
d="M76 39l43 24c8 -11 14 -31 14 -53c0 -76 -46 -127 -101 -149l-19 26c41 23 71 60 71 109c0 18 -3 31 -8 43z" />
    <glyph glyph-name="quotedblleft" unicode="&#x201c;" horiz-adv-x="368" 
d="M226 551l-43 -24c-8 11 -14 31 -14 53c0 76 46 127 101 149l19 -26c-41 -23 -71 -60 -71 -109c0 -18 3 -31 8 -43zM356 551l-43 -24c-8 11 -14 31 -14 53c0 76 46 127 101 149l19 -26c-41 -23 -71 -60 -71 -109c0 -18 3 -31 8 -43z" />
    <glyph glyph-name="quotedblright" unicode="&#x201d;" horiz-adv-x="368" 
d="M206 704l43 24c8 -11 14 -31 14 -53c0 -76 -46 -127 -101 -149l-19 26c41 23 71 60 71 109c0 18 -3 31 -8 43zM336 704l43 24c8 -11 14 -31 14 -53c0 -76 -46 -127 -101 -149l-19 26c41 23 71 60 71 109c0 18 -3 31 -8 43z" />
    <glyph glyph-name="quotedblbase" unicode="&#x201e;" horiz-adv-x="368" 
d="M76 39l43 24c8 -11 14 -31 14 -53c0 -76 -46 -127 -101 -149l-19 26c41 23 71 60 71 109c0 18 -3 31 -8 43zM206 39l43 24c8 -11 14 -31 14 -53c0 -76 -46 -127 -101 -149l-19 26c41 23 71 60 71 109c0 18 -3 31 -8 43z" />
    <glyph glyph-name="dagger" unicode="&#x2020;" horiz-adv-x="430" 
d="M55 423v44h152v233h46v-233h152v-44h-152v-523h-46v523h-152z" />
    <glyph glyph-name="daggerdbl" unicode="&#x2021;" horiz-adv-x="430" 
d="M55 423v44h152v233h46v-233h152v-44h-152v-216h152v-44h-152v-263h-46v263h-152v44h152v216h-152z" />
    <glyph glyph-name="bullet" unicode="&#x2022;" horiz-adv-x="256" 
d="M79 362c0 31 26 56 57 56c30 0 56 -25 56 -56s-26 -57 -56 -57c-31 0 -57 26 -57 57z" />
    <glyph glyph-name="ellipsis" unicode="&#x2026;" horiz-adv-x="839" 
d="M665 36c0 17 15 35 38 35c20 0 35 -18 35 -35c0 -20 -15 -38 -35 -38c-23 0 -38 18 -38 38zM365 36c0 17 15 35 38 35c20 0 35 -18 35 -35c0 -20 -15 -38 -35 -38c-23 0 -38 18 -38 38zM65 36c0 17 15 35 38 35c20 0 35 -18 35 -35c0 -20 -15 -38 -35 -38
c-23 0 -38 18 -38 38z" />
    <glyph glyph-name="perthousand" unicode="&#x2030;" horiz-adv-x="1260" 
d="M66 541c0 96 74 162 171 162s171 -66 171 -162c0 -95 -74 -162 -171 -162s-171 67 -171 162zM113 541c0 -73 60 -121 124 -121c67 0 124 48 124 121s-58 121 -124 121s-124 -48 -124 -121zM165 12l521 697l30 -21l-521 -697zM469 158c0 96 74 162 171 162
s171 -66 171 -162c0 -95 -74 -162 -171 -162s-171 67 -171 162zM516 158c0 -73 60 -121 124 -121c67 0 124 48 124 121s-58 121 -124 121s-124 -48 -124 -121zM882 158c0 96 74 162 171 162s171 -66 171 -162c0 -95 -74 -162 -171 -162s-171 67 -171 162zM929 158
c0 -73 60 -121 124 -121c67 0 124 48 124 121s-58 121 -124 121s-124 -48 -124 -121z" />
    <glyph glyph-name="guilsinglleft" unicode="&#x2039;" horiz-adv-x="331" 
d="M213 38l-138 210l1 4l205 195l29 -31l-179 -171l118 -180z" />
    <glyph glyph-name="guilsinglright" unicode="&#x203a;" horiz-adv-x="331" 
d="M150 460l138 -210l-1 -4l-205 -195l-29 31l179 171l-118 180z" />
    <glyph glyph-name="fraction" unicode="&#x2044;" horiz-adv-x="279" 
d="M-80 25l546 676l33 -26l-544 -678z" />
    <glyph glyph-name="uni2070" unicode="&#x2070;" horiz-adv-x="479" 
d="M144 465c0 128 81 260 230 260c106 0 160 -71 160 -170c0 -128 -79 -260 -229 -260c-105 0 -161 71 -161 170zM191 473c0 -85 44 -136 115 -136c101 0 182 81 182 214c0 85 -47 132 -116 132c-100 0 -181 -82 -181 -210z" />
    <glyph glyph-name="uni2074" unicode="&#x2074;" horiz-adv-x="461" 
d="M361 300l19 100h-287l6 32l343 288h46l-54 -278h93l-8 -42h-93l-19 -100h-46zM174 442h214l42 213z" />
    <glyph glyph-name="uni2075" unicode="&#x2075;" horiz-adv-x="412" 
d="M166 502l73 218h267l-8 -42h-225l-45 -124c18 5 47 8 70 8c104 0 155 -50 155 -121c0 -76 -68 -146 -187 -146c-69 0 -127 25 -151 78l35 26c14 -36 57 -62 119 -62c75 0 137 38 137 99c0 55 -41 84 -118 84c-50 0 -96 -10 -122 -18z" />
    <glyph glyph-name="uni2076" unicode="&#x2076;" horiz-adv-x="456" 
d="M141 453c0 175 122 272 257 272c59 0 95 -15 116 -40l-25 -32c-22 20 -56 30 -96 30c-85 0 -175 -52 -197 -167c42 37 89 61 153 61c103 0 154 -48 154 -124c0 -102 -95 -158 -195 -158c-108 0 -167 57 -167 158zM189 458c-4 -62 31 -121 122 -121c79 0 145 45 145 111
c0 61 -45 87 -116 87c-73 0 -133 -41 -151 -77z" />
    <glyph glyph-name="uni2077" unicode="&#x2077;" horiz-adv-x="365" 
d="M151 678l9 42h325l-7 -33l-304 -387h-54l297 378h-266z" />
    <glyph glyph-name="uni2078" unicode="&#x2078;" horiz-adv-x="455" 
d="M322 537h22c52 0 118 28 118 80c0 50 -45 66 -108 66c-72 0 -125 -29 -125 -79c0 -41 48 -67 93 -67zM334 495h-19c-74 0 -137 -35 -137 -91c0 -41 43 -67 115 -67c88 0 152 28 152 87c0 48 -56 71 -111 71zM290 295c-86 0 -159 31 -159 102c0 66 54 108 115 120
c-39 16 -64 46 -64 85c0 70 70 123 174 123c96 0 153 -36 153 -99c0 -54 -39 -89 -98 -106c53 -13 81 -49 81 -91c0 -102 -113 -134 -202 -134z" />
    <glyph glyph-name="uni2079" unicode="&#x2079;" horiz-adv-x="456" 
d="M513 567c0 -175 -111 -272 -250 -272c-48 0 -93 10 -124 42l27 32c22 -20 54 -32 101 -32c78 0 168 52 191 167c-42 -37 -95 -61 -155 -61c-97 0 -153 42 -153 125c0 84 78 157 197 157c106 0 166 -57 166 -158zM464 562c4 62 -30 121 -117 121c-72 0 -150 -37 -150 -111
c0 -68 61 -87 111 -87c78 0 138 41 156 77z" />
    <glyph glyph-name="uni207A" unicode="&#x207a;" horiz-adv-x="432" 
d="M165 495v42h133v132h43v-132h136v-42h-136v-133h-43v133h-133z" />
    <glyph glyph-name="uni207B" unicode="&#x207b;" horiz-adv-x="412" 
d="M165 496v42h292v-42h-292z" />
    <glyph glyph-name="uni207C" unicode="&#x207c;" horiz-adv-x="412" 
d="M175 435v43h292v-43h-292zM175 554v42h292v-42h-292z" />
    <glyph glyph-name="uni207D" unicode="&#x207d;" horiz-adv-x="237" 
d="M259 222l-29 -26c-60 51 -94 138 -94 223c0 148 68 241 202 331l18 -31c-110 -76 -173 -158 -173 -292c0 -82 27 -151 76 -205z" />
    <glyph glyph-name="uni207E" unicode="&#x207e;" horiz-adv-x="240" 
d="M164 724l29 26c60 -51 94 -138 94 -223c0 -148 -68 -241 -202 -331l-18 31c110 76 173 158 173 292c0 82 -27 151 -76 205z" />
    <glyph glyph-name="uni2080" unicode="&#x2080;" horiz-adv-x="479" 
d="M66 65c0 128 81 260 230 260c106 0 160 -71 160 -170c0 -128 -79 -260 -229 -260c-105 0 -161 71 -161 170zM113 73c0 -85 44 -136 115 -136c101 0 182 81 182 214c0 85 -47 132 -116 132c-100 0 -181 -82 -181 -210z" />
    <glyph glyph-name="uni2081" unicode="&#x2081;" horiz-adv-x="286" 
d="M59 253l177 71h33l-83 -424h-44l72 372l-147 -58z" />
    <glyph glyph-name="uni2082" unicode="&#x2082;" horiz-adv-x="413" 
d="M123 205l-35 18c34 65 95 102 175 102c83 0 131 -39 131 -105c0 -93 -106 -172 -206 -229l-81 -49h255l-8 -42h-333l7 39l125 75c102 62 194 125 194 196c0 49 -34 73 -87 73c-65 0 -101 -26 -137 -78z" />
    <glyph glyph-name="uni2083" unicode="&#x2083;" horiz-adv-x="422" 
d="M136 221l-33 24c46 57 105 80 174 80c86 0 132 -34 132 -94c0 -54 -38 -95 -93 -112c46 -11 67 -44 67 -82c0 -81 -67 -142 -184 -142c-71 0 -138 32 -157 92l37 24c16 -51 70 -74 123 -74c78 0 133 33 133 93c0 51 -47 64 -98 64h-64l9 42h50c73 0 130 35 130 87
c0 44 -35 60 -89 60c-58 0 -97 -20 -137 -62z" />
    <glyph glyph-name="uni2084" unicode="&#x2084;" horiz-adv-x="461" 
d="M283 -100l19 100h-287l6 32l343 288h46l-54 -278h93l-8 -42h-93l-19 -100h-46zM96 42h214l42 213z" />
    <glyph glyph-name="uni2085" unicode="&#x2085;" horiz-adv-x="412" 
d="M88 102l73 218h267l-8 -42h-225l-45 -124c18 5 47 8 70 8c104 0 155 -50 155 -121c0 -76 -68 -146 -187 -146c-69 0 -127 25 -151 78l35 26c14 -36 57 -62 119 -62c75 0 137 38 137 99c0 55 -41 84 -118 84c-50 0 -96 -10 -122 -18z" />
    <glyph glyph-name="uni2086" unicode="&#x2086;" horiz-adv-x="456" 
d="M64 53c0 175 122 272 257 272c59 0 95 -15 116 -40l-25 -32c-22 20 -56 30 -96 30c-85 0 -175 -52 -197 -167c42 37 89 61 153 61c103 0 154 -48 154 -124c0 -102 -95 -158 -195 -158c-108 0 -167 57 -167 158zM112 58c-4 -62 31 -121 122 -121c79 0 145 45 145 111
c0 61 -45 87 -116 87c-73 0 -133 -41 -151 -77z" />
    <glyph glyph-name="uni2087" unicode="&#x2087;" horiz-adv-x="365" 
d="M74 278l9 42h325l-7 -33l-304 -387h-54l297 378h-266z" />
    <glyph glyph-name="uni2088" unicode="&#x2088;" horiz-adv-x="455" 
d="M244 137h22c52 0 118 28 118 80c0 50 -45 66 -108 66c-72 0 -125 -29 -125 -79c0 -41 48 -67 93 -67zM256 95h-19c-74 0 -137 -35 -137 -91c0 -41 43 -67 115 -67c88 0 152 28 152 87c0 48 -56 71 -111 71zM212 -105c-86 0 -159 31 -159 102c0 66 54 108 115 120
c-39 16 -64 46 -64 85c0 70 70 123 174 123c96 0 153 -36 153 -99c0 -54 -39 -89 -98 -106c53 -13 81 -49 81 -91c0 -102 -113 -134 -202 -134z" />
    <glyph glyph-name="uni2089" unicode="&#x2089;" horiz-adv-x="456" 
d="M435 167c0 -175 -111 -272 -250 -272c-48 0 -93 10 -124 42l27 32c22 -20 54 -32 101 -32c78 0 168 52 191 167c-42 -37 -95 -61 -155 -61c-97 0 -153 42 -153 125c0 84 78 157 197 157c106 0 166 -57 166 -158zM386 162c4 62 -30 121 -117 121c-72 0 -150 -37 -150 -111
c0 -68 61 -87 111 -87c78 0 138 41 156 77z" />
    <glyph glyph-name="uni208A" unicode="&#x208a;" horiz-adv-x="432" 
d="M87 95v42h133v132h43v-132h136v-42h-136v-133h-43v133h-133z" />
    <glyph glyph-name="uni208B" unicode="&#x208b;" horiz-adv-x="412" 
d="M88 96v42h292v-42h-292z" />
    <glyph glyph-name="uni208C" unicode="&#x208c;" horiz-adv-x="412" 
d="M97 35v43h292v-43h-292zM97 154v42h292v-42h-292z" />
    <glyph glyph-name="uni208D" unicode="&#x208d;" horiz-adv-x="237" 
d="M181 -178l-29 -26c-60 51 -94 138 -94 223c0 148 68 241 202 331l18 -31c-110 -76 -173 -158 -173 -292c0 -82 27 -151 76 -205z" />
    <glyph glyph-name="uni208E" unicode="&#x208e;" horiz-adv-x="240" 
d="M86 324l29 26c60 -51 94 -138 94 -223c0 -148 -68 -241 -202 -331l-18 31c110 76 173 158 173 292c0 82 -27 151 -76 205z" />
    <glyph glyph-name="Euro" unicode="&#x20ac;" 
d="M75 415l26 47h76c68 156 210 247 365 247c51 0 99 -8 137 -29l-26 -43c-27 14 -67 22 -114 22c-150 0 -249 -86 -306 -197h339l-27 -47h-331c-13 -32 -23 -76 -25 -113h305l-25 -47h-281c7 -126 84 -214 242 -214c46 0 83 7 109 20v-47c-25 -15 -81 -23 -121 -23
c-173 0 -283 101 -286 264h-87l25 47h63c4 38 12 78 24 113h-82z" />
    <glyph glyph-name="uni20B4" unicode="&#x20b4;" 
d="M128 417l9 46h306c32 32 61 67 61 113c0 50 -40 83 -102 83c-61 0 -110 -20 -156 -59l-22 39c48 45 117 70 181 70c103 0 155 -51 155 -127c0 -46 -24 -89 -56 -119h78l-9 -46h-109c-53 -45 -128 -74 -184 -114h271l-9 -46h-309c-34 -30 -67 -65 -67 -118
c0 -66 56 -98 124 -98c59 0 125 25 173 79l25 -35c-39 -49 -111 -94 -205 -94c-102 0 -173 53 -173 143c0 47 25 88 60 123h-73l9 46h103c61 47 127 82 182 114h-263z" />
    <glyph glyph-name="uni20BD" unicode="&#x20bd;" 
d="M57 310l9 50h112l67 340h169c151 2 216 -58 216 -159c0 -155 -120 -231 -292 -231h-117l-21 -109h182l-10 -49h-182l-30 -152h-52l30 152h-112l10 49h112l21 109h-112zM410 650l-123 -1l-57 -289h115c151 0 229 66 229 176c0 73 -49 116 -164 114z" />
    <glyph glyph-name="afii61352" unicode="&#x2116;" horiz-adv-x="1165" 
d="M641 0h-42l-345 611l-118 -611h-49l136 700h41l344 -612l120 612h49zM817 469c0 98 80 189 202 189c89 0 146 -54 146 -134c0 -95 -82 -190 -201 -190c-90 0 -147 55 -147 135zM864 476c0 -63 40 -101 103 -101c75 0 151 58 151 141c0 53 -32 101 -104 101
c-73 0 -150 -58 -150 -141zM800 220l9 47h275l-9 -47h-275z" />
    <glyph glyph-name="trademark" unicode="&#x2122;" horiz-adv-x="831" 
d="M436 385v315h43l145 -167l139 167h42v-315h-47v255l-135 -163h-2l-138 163v-255h-47zM67 655v45h313v-45h-133v-270h-47v270h-133z" />
    <glyph glyph-name="partialdiff" unicode="&#x2202;" horiz-adv-x="575" 
d="M65 225c0 189 136 295 270 295c91 0 149 -60 167 -122c0 170 -73 275 -273 266l7 44c202 2 314 -84 314 -346c0 -207 -96 -370 -260 -370c-124 0 -225 89 -225 233zM118 225c0 -124 87 -185 173 -185c120 0 197 121 206 256c-13 74 -60 177 -174 177
c-117 0 -205 -112 -205 -248z" />
    <glyph glyph-name="product" unicode="&#x220f;" horiz-adv-x="875" 
d="M730 -200v853h-535v-853h-50v900h635v-900h-50z" />
    <glyph glyph-name="summation" unicode="&#x2211;" horiz-adv-x="620" 
d="M380 250l-315 418v32h540v-47h-470l306 -403l-309 -403h473v-47h-540v32z" />
    <glyph glyph-name="minus" unicode="&#x2212;" 
d="M119 338v44h445v-44h-445z" />
    <glyph glyph-name="uni2215" unicode="&#x2215;" horiz-adv-x="279" 
d="M-105 25l546 676l33 -26l-544 -678z" />
    <glyph glyph-name="radical" unicode="&#x221a;" horiz-adv-x="585" 
d="M66 401v49h145l184 -367l137 617h265v-49h-221l-150 -657h-40l-208 407h-112z" />
    <glyph glyph-name="infinity" unicode="&#x221e;" horiz-adv-x="737" 
d="M580 196c-79 0 -131 53 -176 110c-31 -43 -64 -83 -111 -101c-93 -35 -202 31 -202 136c0 77 61 147 152 147c70 0 118 -53 162 -110c30 43 64 83 116 101c103 36 199 -27 199 -142c0 -67 -48 -141 -140 -141zM571 444c-64 0 -103 -47 -140 -100c42 -55 84 -104 145 -104
c65 0 97 53 97 98c0 57 -35 106 -102 106zM244 240c63 0 99 46 135 99c-41 55 -81 105 -134 105c-64 0 -107 -48 -107 -103c0 -66 59 -101 106 -101z" />
    <glyph glyph-name="integral" unicode="&#x222b;" horiz-adv-x="333" 
d="M142 552c0 145 91 186 165 186c53 0 99 -27 121 -61l-33 -28c-19 26 -49 42 -87 42c-64 0 -117 -33 -117 -150v-560c0 -145 -91 -186 -165 -186c-53 0 -99 27 -121 61l33 28c19 -26 49 -42 87 -42c64 0 117 33 117 150v560z" />
    <glyph glyph-name="approxequal" unicode="&#x2248;" 
d="M146 410l-24 32c42 42 86 63 127 63c81 0 145 -73 230 -73c31 0 64 16 94 46l21 -34c-38 -36 -78 -56 -116 -56c-80 0 -143 73 -228 73c-36 0 -72 -19 -104 -51zM146 237l-24 32c42 42 86 63 127 63c81 0 156 -73 230 -73c31 0 64 16 94 46l21 -34
c-38 -36 -78 -56 -116 -56c-80 0 -143 73 -228 73c-36 0 -72 -19 -104 -51z" />
    <glyph glyph-name="notequal" unicode="&#x2260;" 
d="M116 424v44h236l90 241l39 -14l-85 -227h165v-44h-181l-48 -128h229v-44h-245l-97 -261l-40 15l92 246h-155v44h171l48 128h-219z" />
    <glyph glyph-name="lessequal" unicode="&#x2264;" 
d="M128 266v47l417 -260v-49zM545 176l-417 262v20l417 260v-54l-348 -216l348 -218v-54z" />
    <glyph glyph-name="greaterequal" unicode="&#x2265;" 
d="M545 313v-47l-417 -262v49zM545 438l-417 -262v54l348 218l-348 216v54l417 -260v-20z" />
    <glyph glyph-name="lozenge" unicode="&#x25ca;" horiz-adv-x="458" 
d="M232 -8l-167 257l168 271h43l167 -260l-168 -268h-43zM116 250l138 -213l138 223l-138 216z" />
    <glyph glyph-name="uniF350" unicode="&#xf350;" horiz-adv-x="571" 
d="M-17 0l370 562h43l152 -562h-49l-44 158h-313l-103 -158h-56zM363 493l-192 -289h274z" />
    <glyph glyph-name="uniF351" unicode="&#xf351;" horiz-adv-x="558" 
d="M569 560l-9 -47h-363l-37 -191h201c114 0 180 -46 180 -134c0 -149 -130 -188 -268 -188h-226l109 560h413zM348 275h-198l-44 -228h182c129 0 200 46 200 132c0 69 -56 96 -140 96z" />
    <glyph glyph-name="uniF352" unicode="&#xf352;" horiz-adv-x="570" 
d="M47 0l109 560h227c142 0 188 -47 188 -124c0 -80 -62 -130 -125 -147c70 -13 96 -62 96 -110c0 -123 -96 -179 -259 -179h-236zM337 263h-189l-42 -216h180c140 0 205 44 205 124c0 61 -49 92 -154 92zM376 513h-179l-40 -203h191c98 0 171 45 171 122
c0 53 -40 81 -143 81z" />
    <glyph glyph-name="uniF353" unicode="&#xf353;" horiz-adv-x="478" 
d="M47 0l109 560h411l-9 -47h-361l-100 -513h-50z" />
    <glyph glyph-name="uniF354" unicode="&#xf354;" horiz-adv-x="623" 
d="M-41 -106l30 152h62c72 83 118 193 160 404l22 110h391l-99 -514h79l-30 -152h-48l21 106h-520l-21 -106h-47zM271 514l-19 -96c-23 -117 -72 -288 -144 -372h367l91 468h-295z" />
    <glyph glyph-name="uniF355" unicode="&#xf355;" horiz-adv-x="541" 
d="M47 0l109 560h419l-9 -47h-369l-40 -205h345l-9 -47h-345l-42 -214h378l-9 -47h-428z" />
    <glyph glyph-name="uniF356" unicode="&#xf356;" horiz-adv-x="773" 
d="M318 305l-217 255h61l235 -270l53 270h50l-52 -262l328 262h74l-319 -255l221 -305h-63l-202 276l-50 -40l-46 -236h-50l46 238l-33 33l-300 -271h-71z" />
    <glyph glyph-name="uniF357" unicode="&#xf357;" horiz-adv-x="545" 
d="M251 -7c-117 0 -202 42 -232 112l38 27c36 -65 111 -92 203 -92c113 0 205 53 205 133c0 53 -57 90 -147 90h-112l9 47h106c106 0 172 59 172 120s-69 90 -152 90c-96 0 -168 -41 -211 -90l-34 29c47 52 126 108 249 108c121 0 199 -45 199 -131
c0 -71 -52 -124 -128 -147c68 -12 101 -62 101 -109c0 -126 -125 -187 -266 -187z" />
    <glyph glyph-name="uniF358" unicode="&#xf358;" horiz-adv-x="625" 
d="M91 0h-44l109 560h50l-91 -471l487 471h45l-109 -560h-50l92 472z" />
    <glyph glyph-name="uniF359" unicode="&#xf359;" horiz-adv-x="625" 
d="M91 0h-44l109 560h50l-91 -471l487 471h45l-109 -560h-50l92 472zM280 748h45c-9 -63 21 -99 92 -99s116 47 127 99h47c-15 -78 -78 -142 -177 -142s-149 57 -134 142z" />
    <glyph glyph-name="uniF35A" unicode="&#xf35a;" horiz-adv-x="546" 
d="M47 0l109 560h50l-57 -291l385 291h76l-340 -259l253 -301h-67l-231 271l-88 -64l-40 -207h-50z" />
    <glyph glyph-name="uniF35B" unicode="&#xf35b;" horiz-adv-x="595" 
d="M442 -1l101 521h-271l-21 -105c-44 -224 -93 -419 -237 -419c-8 0 -19 1 -26 3l8 42c92 -23 157 92 208 358l30 161h359l-109 -561h-42z" />
    <glyph glyph-name="uniF35C" unicode="&#xf35c;" horiz-adv-x="705" 
d="M47 0l109 560h44l182 -301l291 301h54l-109 -560h-50l93 478l-284 -291h-11l-176 289l-93 -476h-50z" />
    <glyph glyph-name="uniF35D" unicode="&#xf35d;" horiz-adv-x="633" 
d="M496 0l51 262h-399l-51 -262h-50l109 560h50l-49 -251h399l49 251h50l-109 -560h-50z" />
    <glyph glyph-name="uniF35E" unicode="&#xf35e;" horiz-adv-x="667" 
d="M67 233c0 193 158 334 347 334c179 0 263 -117 263 -240c0 -197 -160 -334 -341 -334c-159 0 -269 100 -269 240zM120 242c0 -124 92 -202 220 -202c155 0 284 122 284 279c0 88 -54 201 -214 201c-174 0 -290 -138 -290 -278z" />
    <glyph glyph-name="uniF35F" unicode="&#xf35f;" horiz-adv-x="628" 
d="M491 0l100 513h-394l-100 -513h-50l109 560h494l-109 -560h-50z" />
    <glyph glyph-name="uniF360" unicode="&#xf360;" horiz-adv-x="552" 
d="M97 0h-50l109 560h221c141 0 201 -52 201 -141c0 -119 -88 -199 -277 -199h-161zM365 513h-168l-48 -246h159c117 0 218 38 218 141c0 74 -51 105 -161 105z" />
    <glyph glyph-name="uniF361" unicode="&#xf361;" horiz-adv-x="583" 
d="M537 117l24 -34c-53 -58 -143 -90 -228 -90c-158 0 -271 86 -271 237c0 179 132 337 359 337c107 0 177 -43 206 -87l-32 -29c-44 45 -92 69 -185 69c-178 0 -295 -128 -295 -284c0 -118 81 -196 222 -196c86 0 152 30 200 77z" />
    <glyph glyph-name="uniF362" unicode="&#xf362;" horiz-adv-x="487" 
d="M83 513l9 47h481l-9 -47h-216l-100 -513h-50l100 513h-215z" />
    <glyph glyph-name="uniF363" unicode="&#xf363;" horiz-adv-x="567" 
d="M145 15l29 39c5 -5 17 -8 25 -8c30 0 61 28 87 65l15 21l-212 428h54l190 -381l268 381h54l-305 -434c-65 -92 -108 -126 -152 -126c-20 0 -38 4 -53 15z" />
    <glyph glyph-name="uniF364" unicode="&#xf364;" horiz-adv-x="751" 
d="M327 -12l14 70h-4c-172 0 -271 67 -271 193c0 172 149 267 364 267l11 54h50l-11 -54c157 0 276 -63 276 -194c0 -174 -145 -266 -360 -266h-5l-14 -70h-50zM473 472h-2l-71 -368h5c186 0 298 80 298 212c0 102 -84 156 -230 156zM119 258c0 -104 86 -154 228 -154h3
l71 368c-165 0 -302 -67 -302 -214z" />
    <glyph glyph-name="uniF365" unicode="&#xf365;" horiz-adv-x="541" 
d="M606 560l-272 -279l166 -281h-55l-147 246l-238 -246h-66l280 288l-158 272h55l139 -236l231 236h65z" />
    <glyph glyph-name="uniF366" unicode="&#xf366;" horiz-adv-x="631" 
d="M47 0l109 560h50l-100 -513h377l100 513h50l-100 -513h78l-30 -153h-47l21 106h-508z" />
    <glyph glyph-name="uniF367" unicode="&#xf367;" horiz-adv-x="572" 
d="M594 560l-109 -560h-50l48 251c-40 -20 -134 -44 -204 -44c-109 0 -186 40 -186 138c0 13 1 28 4 43l33 172h51l-31 -157c-3 -15 -4 -29 -4 -47c-1 -71 52 -102 139 -102c77 0 168 26 208 47l51 259h50z" />
    <glyph glyph-name="uniF368" unicode="&#xf368;" horiz-adv-x="778" 
d="M47 0l109 560h50l-100 -513h247l100 513h50l-100 -513h247l100 513h50l-109 -560h-644z" />
    <glyph glyph-name="uniF369" unicode="&#xf369;" horiz-adv-x="797" 
d="M47 0l109 560h50l-100 -513h247l100 513h50l-100 -513h247l100 513h50l-100 -513h78l-30 -153h-47l21 106h-675z" />
    <glyph glyph-name="uniF36A" unicode="&#xf36a;" horiz-adv-x="634" 
d="M80 514l9 46h199l-42 -218h175c139 0 206 -54 206 -147c0 -131 -115 -195 -282 -195h-216l100 514h-149zM409 295h-173l-48 -248h170c136 0 216 50 216 143c0 68 -49 105 -165 105z" />
    <glyph glyph-name="uniF36B" unicode="&#xf36b;" horiz-adv-x="712" 
d="M575 0l109 560h50l-109 -560h-50zM303 295h-149l-48 -248h147c136 0 215 51 215 142c0 76 -59 106 -165 106zM206 560l-43 -218h152c140 0 206 -52 206 -148c0 -120 -106 -194 -281 -194h-193l109 560h50z" />
    <glyph glyph-name="uniF36C" unicode="&#xf36c;" horiz-adv-x="553" 
d="M328 295h-174l-48 -248h171c136 0 216 52 216 142c0 76 -60 106 -165 106zM206 560l-42 -218h175c140 0 207 -53 207 -147c0 -121 -106 -195 -281 -195h-218l109 560h50z" />
    <glyph glyph-name="uniF36D" unicode="&#xf36d;" horiz-adv-x="587" 
d="M198 262l9 47h335c11 108 -42 212 -205 212c-97 0 -175 -45 -223 -92l-29 31c52 56 146 107 253 107c186 0 256 -101 256 -237c0 -188 -150 -337 -348 -337c-104 0 -185 32 -228 103l39 27c37 -55 101 -84 192 -84c133 0 257 89 286 223h-337z" />
    <glyph glyph-name="uniF36E" unicode="&#xf36e;" horiz-adv-x="838" 
d="M47 0l109 560h50l-49 -251h116c37 152 179 258 336 258c169 0 236 -118 236 -235c0 -205 -164 -339 -341 -339c-154 0 -254 114 -239 269h-117l-51 -262h-50zM317 237c0 -113 75 -197 191 -197c161 0 284 128 284 284c0 114 -70 196 -187 196c-154 0 -288 -124 -288 -283
z" />
    <glyph glyph-name="uniF36F" unicode="&#xf36f;" horiz-adv-x="572" 
d="M435 0l42 217h-178l-239 -217h-72l246 224c-83 15 -136 66 -136 142c0 121 97 194 265 194h231l-109 -560h-50zM279 264h207l49 250h-189c-138 0 -195 -72 -195 -141c0 -68 52 -102 128 -109z" />
    <glyph glyph-name="uniF371" unicode="&#xf371;" horiz-adv-x="541" 
d="M47 0l109 560h419l-9 -47h-369l-40 -205h345l-9 -47h-345l-42 -214h378l-9 -47h-428zM231 695c0 20 16 34 33 34s35 -14 35 -34c0 -22 -18 -36 -35 -36s-33 14 -33 36zM475 695c0 20 17 34 36 34c15 0 34 -14 34 -34c0 -22 -19 -36 -34 -36c-19 0 -36 14 -36 36z" />
    <glyph glyph-name="uniF372" unicode="&#xf372;" horiz-adv-x="620" 
d="M552 195c0 59 -32 99 -109 100c-50 1 -114 -27 -151 -69l-44 -226h-50l100 514h-215l9 46h480l-9 -46h-215l-45 -229c32 29 92 56 161 56c82 0 139 -40 139 -135c0 -145 -78 -213 -181 -213c-37 0 -66 15 -78 40l39 30c10 -14 22 -24 45 -24c72 0 124 54 124 156z" />
    <glyph glyph-name="uniF373" unicode="&#xf373;" horiz-adv-x="478" 
d="M47 0l109 560h411l-9 -47h-361l-100 -513h-50zM514 761l-131 -131l-28 24l124 139z" />
    <glyph glyph-name="uniF374" unicode="&#xf374;" horiz-adv-x="580" 
d="M445 309l-9 -47h-321c-18 -145 79 -223 223 -223c65 0 143 29 191 84l29 -25c-54 -72 -156 -105 -232 -105c-165 0 -264 93 -264 235c0 191 156 339 368 339c74 0 162 -27 194 -92l-42 -29c-26 50 -100 75 -164 75c-139 0 -255 -88 -293 -212h320z" />
    <glyph glyph-name="uniF375" unicode="&#xf375;" horiz-adv-x="522" 
d="M440 146c0 152 -336 77 -336 265c0 94 92 156 231 156c103 0 166 -32 203 -81l-34 -29c-36 39 -89 63 -173 63c-101 0 -174 -35 -174 -106c0 -136 336 -79 336 -260c0 -92 -93 -161 -222 -161c-108 0 -191 40 -230 112l39 31c37 -64 106 -96 195 -96c78 0 165 33 165 106
z" />
    <glyph glyph-name="uniF376" unicode="&#xf376;" horiz-adv-x="202" 
d="M56 0l109 560h50l-109 -560h-50z" />
    <glyph glyph-name="uniF377" unicode="&#xf377;" horiz-adv-x="202" 
d="M113 638c0 19 17 32 36 32c14 0 24 -9 24 -23c0 -20 -18 -34 -35 -34c-15 0 -25 10 -25 25zM237 638c0 19 17 32 36 32c14 0 25 -9 25 -23c0 -19 -18 -34 -36 -34c-15 0 -25 10 -25 25zM56 0l109 560h50l-109 -560h-50z" />
    <glyph glyph-name="uniF378" unicode="&#xf378;" horiz-adv-x="413" 
d="M435 560l-77 -395c-20 -105 -82 -172 -197 -172c-83 0 -141 41 -159 101l39 26c22 -59 67 -82 124 -81c88 1 129 53 145 134l75 387h50z" />
    <glyph glyph-name="uniF379" unicode="&#xf379;" horiz-adv-x="891" 
d="M683 297h-126l-49 -250h118c127 0 205 52 205 151c0 63 -50 99 -148 99zM608 560l-42 -216h128c131 0 190 -52 190 -136c0 -134 -106 -208 -267 -208h-168l100 513h-269l-12 -64c-71 -374 -181 -452 -251 -452c-12 0 -20 0 -29 3l9 45c58 -12 153 35 226 415l19 100h366z
" />
    <glyph glyph-name="uniF37A" unicode="&#xf37a;" horiz-adv-x="888" 
d="M563 328h127c130 0 191 -46 191 -129c0 -134 -103 -199 -265 -199h-167l55 281h-352l-55 -281h-50l109 560h50l-45 -232h352l45 232h50zM679 281h-125l-46 -234h117c128 0 202 43 202 142c0 63 -51 92 -148 92z" />
    <glyph glyph-name="uniF37B" unicode="&#xf37b;" horiz-adv-x="620" 
d="M83 513l9 47h480l-9 -47h-215l-44 -226c38 27 92 54 160 54c97 0 159 -52 134 -180l-31 -161h-50l29 151c17 89 -8 143 -104 143c-49 0 -112 -27 -150 -67l-44 -227h-50l100 513h-215z" />
    <glyph glyph-name="uniF37C" unicode="&#xf37c;" horiz-adv-x="546" 
d="M47 0l109 560h50l-57 -291l385 291h76l-340 -259l253 -301h-67l-231 271l-88 -64l-40 -207h-50zM519 761l-131 -131l-28 24l124 139z" />
    <glyph glyph-name="uniF37E" unicode="&#xf37e;" horiz-adv-x="567" 
d="M145 15l29 39c5 -5 17 -8 25 -8c30 0 61 28 87 65l15 21l-212 428h54l190 -381l268 381h54l-305 -434c-65 -92 -108 -126 -152 -126c-20 0 -38 4 -53 15zM270 748h45c-9 -63 21 -99 92 -99s116 47 127 99h47c-15 -78 -78 -142 -177 -142s-149 57 -134 142z" />
    <glyph glyph-name="uniF37F" unicode="&#xf37f;" horiz-adv-x="605" 
d="M47 0l109 560h50l-100 -514h371l100 514h50l-109 -560h-213l-24 -124h-47l24 124h-211z" />
    <glyph glyph-name="uniF381" unicode="&#xf381;" horiz-adv-x="610" 
d="M64 425l8 47h124l17 88h50l-17 -88h211l-9 -47h-211l-17 -86h177c144 0 206 -57 206 -143c0 -123 -105 -196 -281 -196h-218l83 425h-123zM385 292h-174l-47 -245h172c135 0 214 51 214 143c0 69 -60 102 -165 102z" />
    <glyph glyph-name="uniF389" unicode="&#xf389;" horiz-adv-x="667" 
d="M63 233c0 189 156 334 355 334c186 0 255 -132 255 -244c0 -189 -159 -330 -349 -330c-159 0 -261 100 -261 240zM322 40c157 0 266 99 293 219h-499c-14 -127 77 -219 206 -219zM415 520c-148 0 -261 -94 -292 -214h497c12 125 -79 214 -205 214z" />
    <glyph glyph-name="uniF38A" unicode="&#xf38a;" horiz-adv-x="655" 
d="M607 437l-300 -437h-39l-179 560h53l157 -492l272 397c51 74 95 100 139 100c20 0 35 -6 48 -15l-29 -37c-7 3 -12 6 -25 6c-30 0 -58 -25 -97 -82z" />
    <glyph glyph-name="uniF393" unicode="&#xf393;" horiz-adv-x="478" 
d="M47 0l109 560h364l20 104h47l-29 -150h-361l-100 -514h-50z" />
    <glyph glyph-name="uniF3CF" unicode="&#xf3cf;" horiz-adv-x="989" 
d="M546 0h-40l-294 477l-93 -477h-46l109 560h39l294 -480l92 480h48zM688 374c0 78 64 153 169 153c85 0 128 -53 128 -110c0 -75 -61 -153 -168 -153c-73 0 -129 43 -129 110zM732 381c0 -47 39 -78 87 -78c77 0 122 54 122 107c0 47 -38 78 -86 78
c-83 0 -123 -61 -123 -107zM674 169l8 43h238l-8 -43h-238z" />
    <glyph glyph-name="uniF3D0" unicode="&#xf3d0;" horiz-adv-x="465" 
d="M300 748h45c-9 -63 21 -99 92 -99s116 47 127 99h47c-15 -78 -78 -142 -177 -142s-149 57 -134 142z" />
    <glyph glyph-name="uniF3E4" unicode="&#xf3e4;" horiz-adv-x="0" 
d="M-90 761l-131 -131l-28 24l124 139z" />
    <glyph glyph-name="uniF400" unicode="&#xf400;" horiz-adv-x="0" 
d="M-28 762l-141 -141l-29 24l133 148z" />
    <glyph glyph-name="uniF401" unicode="&#xf401;" horiz-adv-x="0" 
d="M-112 854l-181 -81l-14 30l176 95z" />
    <glyph glyph-name="uniF406" unicode="&#xf406;" horiz-adv-x="536" 
d="M369 869l32 23c25 -40 67 -64 130 -64c66 0 114 30 147 67l28 -22c-34 -47 -98 -90 -177 -90c-82 0 -136 38 -160 86z" />
    <glyph glyph-name="uniF407" unicode="&#xf407;" horiz-adv-x="508" 
d="M276 -174l21 36c25 -13 50 -19 71 -19c43 0 68 15 68 42c0 24 -19 31 -54 31h-26l16 84h40l-8 -44c59 -1 83 -29 83 -67c0 -54 -50 -89 -122 -89c-33 0 -66 9 -89 26z" />
    <glyph glyph-name="uniF408" unicode="&#xf408;" horiz-adv-x="453" 
d="M461 897l171 -104l-27 -30l-148 87l-173 -87l-13 38l186 96h4z" />
    <glyph glyph-name="uniF409" unicode="&#xf409;" horiz-adv-x="428" 
d="M343 -80l42 27c9 -12 20 -34 20 -58c0 -53 -33 -98 -92 -131l-20 25c30 23 63 55 63 96c0 17 -5 30 -13 41z" />
    <glyph glyph-name="uniF40A" unicode="&#xf40a;" horiz-adv-x="162" 
d="M231 704l43 24c8 -11 14 -31 14 -53c0 -76 -46 -127 -101 -149l-19 26c41 23 71 60 71 109c0 18 -3 31 -8 43z" />
    <glyph glyph-name="uniF40B" unicode="&#xf40b;" horiz-adv-x="403" 
d="M493 822c0 18 14 33 32 33c19 0 34 -15 34 -33c0 -19 -15 -33 -34 -33c-18 0 -32 14 -32 33z" />
    <glyph glyph-name="uniF40C" unicode="&#xf40c;" horiz-adv-x="474" 
d="M427 811c0 56 47 96 108 96c58 0 97 -30 97 -85c0 -64 -56 -98 -110 -98c-56 0 -95 31 -95 87zM467 814c0 -30 20 -50 58 -50c44 0 67 23 67 55c0 28 -21 48 -60 48c-41 0 -65 -25 -65 -53z" />
    <glyph glyph-name="uniF40D" unicode="&#xf40d;" horiz-adv-x="560" 
d="M385 804l-15 30c20 16 60 41 97 41c60 0 111 -50 160 -50c28 0 52 13 82 34l14 -30c-21 -21 -62 -46 -98 -46c-57 0 -114 50 -163 50c-29 0 -53 -12 -77 -29z" />
    <glyph glyph-name="uniF40E" unicode="&#xf40e;" horiz-adv-x="449" 
d="M420 -153l-5 -37c-18 -7 -39 -10 -60 -10c-48 0 -98 19 -98 80c0 72 70 137 196 141l-4 -21c-57 1 -150 -49 -150 -114c0 -37 31 -48 61 -48c21 0 41 3 60 9z" />
    <glyph glyph-name="uniF410" unicode="&#xf410;" horiz-adv-x="0" 
d="M-173 760l-173 98l26 41l167 -110z" />
    <glyph glyph-name="uniF416" unicode="&#xf416;" horiz-adv-x="378" 
d="M293 -80l42 27c9 -12 20 -34 20 -58c0 -53 -33 -98 -92 -131l-20 25c30 23 63 55 63 96c0 17 -5 30 -13 41z" />
    <glyph glyph-name="uniF418" unicode="&#xf418;" horiz-adv-x="162" 
d="M202 544l43 24c8 -11 14 -31 14 -53c0 -76 -46 -127 -101 -149l-19 26c41 23 71 60 71 109c0 18 -3 31 -8 43z" />
    <glyph glyph-name="uniF447" unicode="&#xf447;" horiz-adv-x="487" 
d="M107 -176l22 38c22 -12 39 -19 71 -19c41 0 68 15 68 39s-16 34 -54 34h-26l16 84h-6l100 513h-215l9 47h481l-9 -47h-216l-100 -513h-4l-8 -44c58 -1 83 -30 83 -67c0 -55 -50 -89 -124 -89c-31 0 -65 7 -88 24z" />
    <glyph glyph-name="uniF44E" unicode="&#xf44e;" horiz-adv-x="638" 
d="M51 220c0 35 6 69 13 89h529c14 129 -62 212 -210 212c-86 0 -167 -41 -217 -92l-29 31c59 59 139 107 250 107c169 0 259 -89 259 -229c0 -191 -139 -345 -340 -345c-185 0 -255 125 -255 227zM587 262h-481c-17 -142 69 -223 202 -223c136 0 253 92 279 223z" />
    <glyph glyph-name="uniF452" unicode="&#xf452;" horiz-adv-x="702" 
d="M47 0l109 560h415l-9 -47h-365l-44 -223h340l-9 -47h-340l-47 -243h-50zM516 0l109 560h50l-109 -560h-50z" />
    <glyph glyph-name="uniF453" unicode="&#xf453;" horiz-adv-x="994" 
d="M47 0l109 560h415l-9 -47h-365l-44 -223h340l-9 -47h-340l-47 -243h-50zM547 0l109 560h50l-100 -513h368l-9 -47h-418z" />
    <glyph glyph-name="zero.tab" unicode="&#xf4e0;" 
d="M72 265c0 228 124 443 326 443c143 0 203 -114 203 -272c0 -224 -118 -444 -317 -444c-147 0 -212 114 -212 273zM126 263c0 -141 58 -225 163 -225c132 0 258 170 258 390c0 142 -52 234 -153 234c-158 0 -268 -175 -268 -399z" />
    <glyph glyph-name="one.tab" unicode="&#xf4e1;" 
d="M52 0l10 46h218l115 599l-230 -99l-11 43l268 117h34l-127 -660h181l-10 -46h-448z" />
    <glyph glyph-name="two.tab" unicode="&#xf4e2;" 
d="M191 506l-39 21c37 96 139 181 282 181c122 0 194 -70 194 -171c0 -166 -194 -308 -362 -412l-127 -79h416l-9 -46h-506l8 41l191 122c146 102 335 225 335 367c0 78 -57 129 -151 129c-110 0 -198 -67 -232 -153z" />
    <glyph glyph-name="three.tab" unicode="&#xf4e3;" 
d="M196 554l-37 23c43 77 133 132 263 132c125 0 201 -61 201 -156c0 -87 -61 -156 -162 -187c61 -14 115 -60 115 -143c0 -153 -136 -232 -286 -232c-119 0 -209 58 -236 150l45 19c37 -85 103 -119 197 -119c119 0 226 63 226 176c0 87 -74 117 -159 117h-111l9 49h91
c103 0 217 70 217 164c0 75 -69 112 -151 112c-101 0 -168 -30 -222 -105z" />
    <glyph glyph-name="four.tab" unicode="&#xf4e4;" 
d="M381 0l30 156h-395l6 33l495 511h50l-96 -495h133l-10 -49h-133l-30 -156h-50zM102 205h319l80 412z" />
    <glyph glyph-name="five.tab" unicode="&#xf4e5;" 
d="M131 339l115 361h422l-10 -50h-379l-79 -247c27 12 94 26 162 26c139 0 217 -69 217 -183c0 -143 -117 -255 -299 -255c-112 0 -190 39 -229 125l48 27c27 -75 108 -103 185 -103c138 0 242 89 242 204c0 92 -71 140 -174 140c-91 0 -182 -30 -221 -45z" />
    <glyph glyph-name="six.tab" unicode="&#xf4e6;" 
d="M59 248c0 299 198 461 391 461c85 0 142 -29 172 -70l-33 -32c-32 33 -73 52 -155 52c-174 0 -300 -169 -316 -333c49 72 148 135 261 135c146 0 212 -92 212 -202c0 -158 -138 -268 -294 -268c-139 0 -238 90 -238 257zM115 264c-9 -143 73 -223 184 -223
c133 0 236 99 236 215c0 98 -57 157 -166 157c-116 0 -227 -89 -254 -149z" />
    <glyph glyph-name="seven.tab" unicode="&#xf4e7;" 
d="M172 651l9 49h503l-7 -34l-476 -666h-61l467 651h-435z" />
    <glyph glyph-name="eight.tab" unicode="&#xf4e8;" 
d="M328 385h32c95 0 190 66 190 159c0 74 -55 116 -155 116c-115 0 -203 -60 -203 -153c0 -70 51 -122 136 -122zM348 335h-26c-119 0 -221 -64 -221 -165c0 -98 91 -130 175 -130c130 0 232 63 232 160c0 74 -47 135 -160 135zM274 -9c-138 0 -227 61 -227 172
c0 110 81 179 183 200c-65 19 -92 64 -92 140c0 111 103 206 262 206c139 0 204 -60 204 -161c0 -96 -67 -162 -159 -188c91 -20 117 -79 117 -153c0 -140 -139 -216 -288 -216z" />
    <glyph glyph-name="nine.tab" unicode="&#xf4e9;" 
d="M606 460c0 -308 -173 -469 -347 -469c-87 0 -156 34 -187 86l36 32c37 -42 77 -69 157 -69c148 0 269 145 287 333c-64 -100 -164 -134 -258 -134c-145 0 -200 76 -200 187c0 154 120 283 299 283c160 0 213 -122 213 -249zM551 436c10 86 -16 224 -165 224
c-124 0 -239 -92 -239 -225c0 -100 54 -149 155 -149c116 0 197 62 249 150z" />
    <glyph glyph-name="dollar.tab" unicode="&#xf4ec;" 
d="M510 200c0 172 -395 83 -395 304c0 123 124 197 269 204l16 82h49l-16 -82c90 -5 164 -35 199 -90l-38 -32c-42 47 -99 73 -197 73c-80 0 -225 -36 -225 -151c0 -173 395 -85 395 -299c0 -124 -124 -211 -273 -218l-18 -91h-49l18 93c-107 9 -186 65 -217 129l44 34
c29 -58 101 -115 223 -115c100 0 215 60 215 159z" />
    <glyph glyph-name="Euro.tab" unicode="&#xf4ed;" 
d="M100 415l26 47h76c68 156 210 247 365 247c51 0 99 -8 137 -29l-26 -43c-27 14 -67 22 -114 22c-150 0 -249 -86 -306 -197h339l-27 -47h-331c-13 -32 -23 -76 -25 -113h305l-25 -47h-281c7 -126 84 -214 242 -214c46 0 83 7 109 20v-47c-25 -15 -81 -23 -121 -23
c-173 0 -283 101 -286 264h-87l25 47h63c4 38 12 78 24 113h-82z" />
    <glyph glyph-name="cent.tab" unicode="&#xf4ee;" 
d="M504 123l28 -32c-45 -65 -135 -101 -217 -101l-37 -190h-49l37 193c-116 14 -186 97 -186 216c0 164 114 309 291 323l33 168h49l-33 -167c73 -3 134 -35 163 -95l-39 -26c-31 48 -74 70 -133 71l-87 -443c67 0 135 28 180 83zM135 218c0 -96 52 -161 141 -176l85 439
c-125 -11 -226 -132 -226 -263z" />
    <glyph glyph-name="sterling.tab" unicode="&#xf4ef;" 
d="M136 284l8 41h79c-8 43 -25 90 -25 149c0 125 89 234 244 234c85 0 141 -27 179 -73l-34 -36c-37 41 -86 59 -148 59c-116 0 -185 -83 -185 -179c0 -53 18 -102 25 -154h173l-8 -41h-164c0 -12 -1 -24 -4 -38c-13 -67 -45 -122 -71 -149c78 0 136 -51 217 -51
c52 0 81 19 120 50l15 -41c-34 -33 -86 -59 -139 -59c-85 0 -144 52 -226 52c-39 0 -81 -18 -127 -55l-14 39c30 26 59 43 88 53c49 50 87 111 87 187v12h-90z" />
    <glyph glyph-name="yen.tab" unicode="&#xf4fa;" 
d="M130 305l9 44h165l-180 351h58l177 -345l314 345h63l-319 -351h167l-9 -44h-197l-24 -128h197l-9 -44h-197l-26 -133h-53l26 133h-195l9 44h195l24 128h-195z" />
    <glyph glyph-name="florin.tab" unicode="&#xf4fb;" 
d="M382 514l-12 -64h167v-46h-175l-69 -388c-18 -102 -37 -224 -168 -224c-39 0 -73 13 -91 28l15 39c16 -11 40 -21 66 -21c73 0 105 48 120 134l77 432h-158v46h166l13 73c17 97 53 186 170 186c54 0 93 -18 116 -37l-18 -39c-23 18 -50 30 -90 30
c-74 0 -109 -44 -129 -149z" />
    <glyph glyph-name="uni20B4.tab" unicode="&#xf4fc;" 
d="M153 417l9 46h306c32 32 61 67 61 113c0 50 -40 83 -102 83c-61 0 -110 -20 -156 -59l-22 39c48 45 117 70 181 70c103 0 155 -51 155 -127c0 -46 -24 -89 -56 -119h78l-9 -46h-109c-53 -45 -128 -74 -184 -114h271l-9 -46h-309c-34 -30 -67 -65 -67 -118
c0 -66 56 -98 124 -98c59 0 125 25 173 79l25 -35c-39 -49 -111 -94 -205 -94c-102 0 -173 53 -173 143c0 47 25 88 60 123h-73l9 46h103c61 47 127 82 182 114h-263z" />
    <glyph glyph-name="uni20BD.tab" unicode="&#xf4fd;" 
d="M82 310l9 50h112l67 340h169c151 2 216 -58 216 -159c0 -155 -120 -231 -292 -231h-117l-21 -109h182l-10 -49h-182l-30 -152h-52l30 152h-112l10 49h112l21 109h-112zM435 650l-123 -1l-57 -289h115c151 0 229 66 229 176c0 73 -49 116 -164 114z" />
    <glyph glyph-name="uniF66D" unicode="&#xf66d;" horiz-adv-x="571" 
d="M-17 0l370 562h43l152 -562h-49l-44 158h-313l-103 -158h-56zM363 493l-192 -289h274zM266 740l23 20c22 -36 69 -60 114 -60c56 0 102 25 136 59l19 -22c-30 -37 -87 -87 -157 -87c-63 0 -112 40 -135 90z" />
    <glyph glyph-name="uniF66E" unicode="&#xf66e;" horiz-adv-x="571" 
d="M-17 0l370 562h43l152 -562h-49l-44 158h-313l-103 -158h-56zM363 493l-192 -289h274zM265 655l9 46h254l-9 -46h-254z" />
    <glyph glyph-name="uniF66F" unicode="&#xf66f;" horiz-adv-x="571" 
d="M509 -148l7 -42c-19 -7 -36 -10 -59 -10c-61 0 -90 35 -90 80c0 58 52 119 127 137l-39 141h-313l-103 -158h-56l370 562h43l146 -539l6 -23h-15c-58 -3 -114 -59 -114 -109c0 -27 16 -48 50 -48c9 0 22 1 40 9zM363 493l-192 -289h274z" />
    <glyph glyph-name="uniF671" unicode="&#xf671;" horiz-adv-x="583" 
d="M537 117l24 -34c-53 -58 -143 -90 -228 -90c-158 0 -271 86 -271 237c0 179 132 337 359 337c107 0 177 -43 206 -87l-32 -29c-44 45 -92 69 -185 69c-178 0 -295 -128 -295 -284c0 -118 81 -196 222 -196c86 0 152 30 200 77zM554 761l-131 -131l-28 24l124 139z" />
    <glyph glyph-name="uniF672" unicode="&#xf672;" horiz-adv-x="583" 
d="M537 117l24 -34c-53 -58 -143 -90 -228 -90c-158 0 -271 86 -271 237c0 179 132 337 359 337c107 0 177 -43 206 -87l-32 -29c-44 45 -92 69 -185 69c-178 0 -295 -128 -295 -284c0 -118 81 -196 222 -196c86 0 152 30 200 77zM417 631l-118 124l32 29l92 -100l130 98
l22 -30l-154 -121h-4z" />
    <glyph glyph-name="uniF673" unicode="&#xf673;" horiz-adv-x="583" 
d="M537 117l24 -34c-53 -58 -143 -90 -228 -90c-158 0 -271 86 -271 237c0 179 132 337 359 337c107 0 177 -43 206 -87l-32 -29c-44 45 -92 69 -185 69c-178 0 -295 -128 -295 -284c0 -118 81 -196 222 -196c86 0 152 30 200 77zM449 779l118 -124l-32 -29l-92 100
l-130 -98l-22 30l154 121h4z" />
    <glyph glyph-name="uniF674" unicode="&#xf674;" horiz-adv-x="583" 
d="M537 117l24 -34c-53 -58 -143 -90 -228 -90c-158 0 -271 86 -271 237c0 179 132 337 359 337c107 0 177 -43 206 -87l-32 -29c-44 45 -92 69 -185 69c-178 0 -295 -128 -295 -284c0 -118 81 -196 222 -196c86 0 152 30 200 77zM395 696c0 20 18 35 37 35
c18 0 36 -15 36 -35c0 -23 -18 -39 -36 -39c-19 0 -37 16 -37 39z" />
    <glyph glyph-name="uniF675" unicode="&#xf675;" horiz-adv-x="603" 
d="M47 0l109 560h181c200 0 274 -98 274 -224c0 -162 -107 -336 -384 -336h-180zM326 513h-129l-91 -466h126c227 0 327 135 327 285c0 103 -65 181 -233 181zM367 631l-118 124l32 29l92 -100l130 98l22 -30l-154 -121h-4z" />
    <glyph glyph-name="uniF676" unicode="&#xf676;" horiz-adv-x="649" 
d="M36 256l8 43h107l51 261h181c200 0 275 -100 275 -220c0 -192 -130 -340 -391 -340h-174l50 256h-107zM372 513h-129l-42 -214h175l-8 -43h-175l-41 -209h126c227 0 327 135 327 285c0 103 -65 181 -233 181z" />
    <glyph glyph-name="uniF678" unicode="&#xf678;" horiz-adv-x="541" 
d="M47 0l109 560h419l-9 -47h-369l-40 -205h345l-9 -47h-345l-42 -214h378l-9 -47h-428zM377 631l-118 124l32 29l92 -100l130 98l22 -30l-154 -121h-4z" />
    <glyph glyph-name="uniF679" unicode="&#xf679;" horiz-adv-x="541" 
d="M47 0l109 560h419l-9 -47h-369l-40 -205h345l-9 -47h-345l-42 -214h378l-9 -47h-428zM355 696c0 20 18 35 37 35c18 0 36 -15 36 -35c0 -23 -18 -39 -36 -39c-19 0 -37 16 -37 39z" />
    <glyph glyph-name="uniF67A" unicode="&#xf67a;" horiz-adv-x="541" 
d="M47 0l109 560h419l-9 -47h-369l-40 -205h345l-9 -47h-345l-42 -214h378l-9 -47h-428zM264 655l9 46h254l-9 -46h-254z" />
    <glyph glyph-name="uniF67C" unicode="&#xf67c;" horiz-adv-x="541" 
d="M47 0l109 560h419l-9 -47h-369l-40 -205h345l-9 -47h-345l-42 -214h378l-9 -47h-6c-60 0 -119 -58 -119 -109c0 -27 16 -48 50 -48c9 0 22 1 40 9l7 -42c-19 -7 -36 -10 -59 -10c-61 0 -90 35 -90 80c0 46 32 93 82 120h-333z" />
    <glyph glyph-name="uniF67D" unicode="&#xf67d;" horiz-adv-x="600" 
d="M372 228l9 46h218l-39 -201c-47 -40 -138 -80 -227 -80c-169 0 -271 98 -271 237c0 194 163 337 363 337c90 0 159 -23 202 -79l-32 -31c-44 43 -87 63 -174 63c-169 0 -306 -122 -306 -282c0 -121 85 -198 221 -198c74 0 136 24 181 56l26 132h-171zM281 740l23 20
c22 -36 69 -60 114 -60c56 0 102 25 136 59l19 -22c-30 -37 -87 -87 -157 -87c-63 0 -112 40 -135 90z" />
    <glyph glyph-name="uniF67E" unicode="&#xf67e;" horiz-adv-x="600" 
d="M372 228l9 46h218l-39 -201c-47 -40 -138 -80 -227 -80c-169 0 -271 98 -271 237c0 194 163 337 363 337c90 0 159 -23 202 -79l-32 -31c-44 43 -87 63 -174 63c-169 0 -306 -122 -306 -282c0 -121 85 -198 221 -198c74 0 136 24 181 56l26 132h-171zM449 779l118 -124
l-32 -29l-92 100l-130 -98l-22 30l154 121h4z" />
    <glyph glyph-name="uniF67F" unicode="&#xf67f;" horiz-adv-x="600" 
d="M372 228l9 46h218l-39 -201c-47 -40 -138 -80 -227 -80c-169 0 -271 98 -271 237c0 194 163 337 363 337c90 0 159 -23 202 -79l-32 -31c-44 43 -87 63 -174 63c-169 0 -306 -122 -306 -282c0 -121 85 -198 221 -198c74 0 136 24 181 56l26 132h-171zM283 -80l42 27
c9 -12 20 -34 20 -58c0 -53 -33 -98 -92 -131l-20 25c30 23 63 55 63 96c0 17 -5 30 -13 41z" />
    <glyph glyph-name="uniF680" unicode="&#xf680;" horiz-adv-x="600" 
d="M372 228l9 46h218l-39 -201c-47 -40 -138 -80 -227 -80c-169 0 -271 98 -271 237c0 194 163 337 363 337c90 0 159 -23 202 -79l-32 -31c-44 43 -87 63 -174 63c-169 0 -306 -122 -306 -282c0 -121 85 -198 221 -198c74 0 136 24 181 56l26 132h-171zM405 696
c0 20 18 35 37 35c18 0 36 -15 36 -35c0 -23 -18 -39 -36 -39c-19 0 -37 16 -37 39z" />
    <glyph glyph-name="uniF681" unicode="&#xf681;" horiz-adv-x="634" 
d="M61 417l8 42h67l20 101h50l-20 -101h399l20 101h50l-20 -101h68l-8 -42h-68l-81 -417h-50l51 262h-399l-51 -262h-50l81 417h-67zM157 309h399l21 108h-399z" />
    <glyph glyph-name="uniF682" unicode="&#xf682;" horiz-adv-x="633" 
d="M496 0l51 262h-399l-51 -262h-50l109 560h50l-49 -251h399l49 251h50l-109 -560h-50zM447 779l118 -124l-32 -29l-92 100l-130 -98l-22 30l154 121h4z" />
    <glyph glyph-name="uniF685" unicode="&#xf685;" horiz-adv-x="202" 
d="M56 0l109 560h50l-109 -560h-50zM81 655l9 46h254l-9 -46h-254z" />
    <glyph glyph-name="uniF686" unicode="&#xf686;" horiz-adv-x="202" 
d="M72 -148l7 -42c-19 -7 -36 -10 -59 -10c-61 0 -90 35 -90 80c0 59 53 120 129 138l106 542h50l-109 -560h-10c-58 -3 -114 -59 -114 -109c0 -27 16 -48 50 -48c9 0 22 1 40 9z" />
    <glyph glyph-name="uniF688" unicode="&#xf688;" horiz-adv-x="413" 
d="M435 560l-77 -395c-20 -105 -82 -172 -197 -172c-83 0 -141 41 -159 101l39 26c22 -59 67 -82 124 -81c88 1 129 53 145 134l75 387h50zM439 779l118 -124l-32 -29l-92 100l-130 -98l-22 30l154 121h4z" />
    <glyph glyph-name="uniF689" unicode="&#xf689;" horiz-adv-x="546" 
d="M47 0l109 560h50l-57 -291l385 291h76l-340 -259l253 -301h-67l-231 271l-88 -64l-40 -207h-50zM203 -80l42 27c9 -12 20 -34 20 -58c0 -53 -33 -98 -92 -131l-20 25c30 23 63 55 63 96c0 17 -5 30 -13 41z" />
    <glyph glyph-name="uniF68A" unicode="&#xf68a;" horiz-adv-x="494" 
d="M47 0l109 560h50l-100 -513h368l-9 -47h-418zM394 761l-131 -131l-28 24l124 139z" />
    <glyph glyph-name="uniF68B" unicode="&#xf68b;" horiz-adv-x="494" 
d="M47 0l109 560h50l-100 -513h368l-9 -47h-418zM422 560h49c2 -7 3 -18 3 -30c0 -84 -49 -134 -108 -164l-19 26c46 24 81 73 81 129c0 10 -2 27 -6 39z" />
    <glyph glyph-name="uniF68C" unicode="&#xf68c;" horiz-adv-x="494" 
d="M47 0l109 560h50l-100 -513h368l-9 -47h-418zM213 -80l42 27c9 -12 20 -34 20 -58c0 -53 -33 -98 -92 -131l-20 25c30 23 63 55 63 96c0 17 -5 30 -13 41z" />
    <glyph glyph-name="uniF68D" unicode="&#xf68d;" horiz-adv-x="494" 
d="M47 0l109 560h50l-100 -513h368l-9 -47h-418zM346 312c0 20 17 41 44 41c24 0 41 -21 41 -41c0 -23 -17 -44 -41 -44c-27 0 -44 21 -44 44z" />
    <glyph glyph-name="uniF68E" unicode="&#xf68e;" horiz-adv-x="624" 
d="M537 0h-40l-311 476l-92 -476h-47l109 560h40l309 -475l93 475h48zM554 761l-131 -131l-28 24l124 139z" />
    <glyph glyph-name="uniF68F" unicode="&#xf68f;" horiz-adv-x="624" 
d="M537 0h-40l-311 476l-92 -476h-47l109 560h40l309 -475l93 475h48zM414 631l-118 124l32 29l92 -100l130 98l22 -30l-154 -121h-4z" />
    <glyph glyph-name="uniF690" unicode="&#xf690;" horiz-adv-x="624" 
d="M537 0h-40l-311 476l-92 -476h-47l109 560h40l309 -475l93 475h48zM253 -80l42 27c9 -12 20 -34 20 -58c0 -53 -33 -98 -92 -131l-20 25c30 23 63 55 63 96c0 17 -5 30 -13 41z" />
    <glyph glyph-name="uniF692" unicode="&#xf692;" horiz-adv-x="667" 
d="M67 233c0 193 158 334 347 334c179 0 263 -117 263 -240c0 -197 -160 -334 -341 -334c-159 0 -269 100 -269 240zM120 242c0 -124 92 -202 220 -202c155 0 284 122 284 279c0 88 -54 201 -214 201c-174 0 -290 -138 -290 -278zM513 782l-146 -151l-28 24l139 158z
M653 782l-146 -151l-28 24l139 158z" />
    <glyph glyph-name="uniF693" unicode="&#xf693;" horiz-adv-x="667" 
d="M67 233c0 193 158 334 347 334c179 0 263 -117 263 -240c0 -197 -160 -334 -341 -334c-159 0 -269 100 -269 240zM120 242c0 -124 92 -202 220 -202c155 0 284 122 284 279c0 88 -54 201 -214 201c-174 0 -290 -138 -290 -278zM313 655l9 46h254l-9 -46h-254z" />
    <glyph glyph-name="uniF695" unicode="&#xf695;" horiz-adv-x="572" 
d="M97 0h-50l109 560h221c151 0 197 -60 197 -131c0 -102 -73 -172 -193 -189l155 -240h-64l-148 232h-182zM366 513h-169l-46 -234h162c112 0 208 41 208 140c0 55 -41 94 -155 94zM494 761l-131 -131l-28 24l124 139z" />
    <glyph glyph-name="uniF696" unicode="&#xf696;" horiz-adv-x="572" 
d="M97 0h-50l109 560h221c151 0 197 -60 197 -131c0 -102 -73 -172 -193 -189l155 -240h-64l-148 232h-182zM366 513h-169l-46 -234h162c112 0 208 41 208 140c0 55 -41 94 -155 94zM357 631l-118 124l32 29l92 -100l130 98l22 -30l-154 -121h-4z" />
    <glyph glyph-name="uniF697" unicode="&#xf697;" horiz-adv-x="572" 
d="M97 0h-50l109 560h221c151 0 197 -60 197 -131c0 -102 -73 -172 -193 -189l155 -240h-64l-148 232h-182zM366 513h-169l-46 -234h162c112 0 208 41 208 140c0 55 -41 94 -155 94zM213 -80l42 27c9 -12 20 -34 20 -58c0 -53 -33 -98 -92 -131l-20 25c30 23 63 55 63 96
c0 17 -5 30 -13 41z" />
    <glyph glyph-name="uniF698" unicode="&#xf698;" horiz-adv-x="522" 
d="M440 146c0 152 -336 77 -336 265c0 94 92 156 231 156c103 0 166 -32 203 -81l-34 -29c-36 39 -89 63 -173 63c-101 0 -174 -35 -174 -106c0 -136 336 -79 336 -260c0 -92 -93 -161 -222 -161c-108 0 -191 40 -230 112l39 31c37 -64 106 -96 195 -96c78 0 165 33 165 106
zM494 761l-131 -131l-28 24l124 139z" />
    <glyph glyph-name="uniF699" unicode="&#xf699;" horiz-adv-x="522" 
d="M124 -176l22 38c22 -12 39 -19 71 -19c41 0 68 15 68 39s-16 34 -54 34h-26l15 80c-83 11 -147 49 -179 109l39 31c37 -64 106 -96 195 -96c78 0 165 33 165 106c0 152 -336 77 -336 265c0 94 92 156 231 156c103 0 166 -32 203 -81l-34 -29c-36 39 -89 63 -173 63
c-101 0 -174 -35 -174 -106c0 -136 336 -79 336 -260c0 -92 -93 -161 -222 -161h-12l-6 -37c58 -1 83 -30 83 -67c0 -55 -50 -89 -124 -89c-31 0 -65 7 -88 24z" />
    <glyph glyph-name="uniF69A" unicode="&#xf69a;" horiz-adv-x="522" 
d="M440 146c0 152 -336 77 -336 265c0 94 92 156 231 156c103 0 166 -32 203 -81l-34 -29c-36 39 -89 63 -173 63c-101 0 -174 -35 -174 -106c0 -136 336 -79 336 -260c0 -92 -93 -161 -222 -161c-108 0 -191 40 -230 112l39 31c37 -64 106 -96 195 -96c78 0 165 33 165 106
zM389 779l118 -124l-32 -29l-92 100l-130 -98l-22 30l154 121h4z" />
    <glyph glyph-name="uniF69B" unicode="&#xf69b;" horiz-adv-x="522" 
d="M440 146c0 152 -336 77 -336 265c0 94 92 156 231 156c103 0 166 -32 203 -81l-34 -29c-36 39 -89 63 -173 63c-101 0 -174 -35 -174 -106c0 -136 336 -79 336 -260c0 -92 -93 -161 -222 -161c-108 0 -191 40 -230 112l39 31c37 -64 106 -96 195 -96c78 0 165 33 165 106
zM223 -80l42 27c9 -12 20 -34 20 -58c0 -53 -33 -98 -92 -131l-20 25c30 23 63 55 63 96c0 17 -5 30 -13 41z" />
    <glyph glyph-name="uniF69D" unicode="&#xf69d;" horiz-adv-x="487" 
d="M83 513l9 47h481l-9 -47h-216l-100 -513h-50l100 513h-215zM345 631l-118 124l32 29l92 -100l130 98l22 -30l-154 -121h-4z" />
    <glyph glyph-name="uniF69E" unicode="&#xf69e;" horiz-adv-x="487" 
d="M83 513l9 47h481l-9 -47h-216l-100 -513h-50l100 513h-215zM183 -80l42 27c9 -12 20 -34 20 -58c0 -53 -33 -98 -92 -131l-20 25c30 23 63 55 63 96c0 17 -5 30 -13 41z" />
    <glyph glyph-name="uniF69F" unicode="&#xf69f;" horiz-adv-x="610" 
d="M640 560l-63 -325c-22 -113 -98 -241 -281 -241c-126 0 -221 66 -216 198c1 15 3 31 6 48l62 320h50l-61 -312c-3 -18 -5 -36 -5 -52c-1 -103 65 -155 169 -155c124 0 204 77 228 203l61 316h50zM286 740l23 20c22 -36 69 -60 114 -60c56 0 102 25 136 59l19 -22
c-30 -37 -87 -87 -157 -87c-63 0 -112 40 -135 90z" />
    <glyph glyph-name="uniF6A0" unicode="&#xf6a0;" horiz-adv-x="610" 
d="M640 560l-63 -325c-22 -113 -98 -241 -281 -241c-126 0 -221 66 -216 198c1 15 3 31 6 48l62 320h50l-61 -312c-3 -18 -5 -36 -5 -52c-1 -103 65 -155 169 -155c124 0 204 77 228 203l61 316h50zM483 782l-146 -151l-28 24l139 158zM623 782l-146 -151l-28 24l139 158z
" />
    <glyph glyph-name="uniF6A1" unicode="&#xf6a1;" horiz-adv-x="610" 
d="M640 560l-63 -325c-22 -113 -98 -241 -281 -241c-126 0 -221 66 -216 198c1 15 3 31 6 48l62 320h50l-61 -312c-3 -18 -5 -36 -5 -52c-1 -103 65 -155 169 -155c124 0 204 77 228 203l61 316h50zM285 655l9 46h254l-9 -46h-254z" />
    <glyph glyph-name="uniF6A2" unicode="&#xf6a2;" horiz-adv-x="610" 
d="M640 560l-63 -325c-23 -119 -87 -189 -174 -224c-60 -32 -113 -64 -113 -120c0 -27 15 -48 46 -48c13 0 26 1 44 9l6 -41c-18 -7 -35 -11 -65 -11c-39 0 -83 24 -83 80c0 54 38 87 87 116c-11 -1 -22 -2 -33 -2c-136 0 -238 82 -206 246l62 320h50l-61 -312
c-29 -149 57 -207 164 -207c124 0 204 77 228 203l61 316h50z" />
    <glyph glyph-name="uniF6A3" unicode="&#xf6a3;" horiz-adv-x="610" 
d="M640 560l-63 -325c-22 -113 -98 -241 -281 -241c-126 0 -221 66 -216 198c1 15 3 31 6 48l62 320h50l-61 -312c-3 -18 -5 -36 -5 -52c-1 -103 65 -155 169 -155c124 0 204 77 228 203l61 316h50zM328 695c0 51 40 99 98 99c54 0 87 -37 87 -83c0 -56 -38 -102 -100 -102
c-51 0 -85 35 -85 86zM368 697c0 -27 19 -48 48 -48c33 0 57 24 57 55c0 27 -14 50 -50 50c-30 0 -55 -23 -55 -57z" />
    <glyph glyph-name="uniF6AB" unicode="&#xf6ab;" horiz-adv-x="535" 
d="M109 513l9 47h480l-7 -35l-512 -478h428l-9 -47h-505l7 35l510 478h-401zM494 761l-131 -131l-28 24l124 139z" />
    <glyph glyph-name="uniF6AC" unicode="&#xf6ac;" horiz-adv-x="535" 
d="M109 513l9 47h480l-7 -35l-512 -478h428l-9 -47h-505l7 35l510 478h-401zM346 696c0 20 18 35 37 35c18 0 36 -15 36 -35c0 -23 -18 -39 -36 -39c-19 0 -37 16 -37 39z" />
    <glyph glyph-name="uniF6AD" unicode="&#xf6ad;" horiz-adv-x="202" 
d="M56 0l109 560h50l-109 -560h-50zM180 696c0 20 18 35 37 35c18 0 36 -15 36 -35c0 -23 -18 -39 -36 -39c-19 0 -37 16 -37 39z" />
    <glyph glyph-name="uniF6BA" unicode="&#xf6ba;" horiz-adv-x="400" 
d="M157 330v47h228v-47h-228z" />
    <glyph glyph-name="uniF6BB" unicode="&#xf6bb;" horiz-adv-x="590" 
d="M168 332v44h401v-44h-401z" />
    <glyph glyph-name="uniF6BC" unicode="&#xf6bc;" horiz-adv-x="795" 
d="M168 332v44h607v-44h-607z" />
    <glyph glyph-name="uniF6C3" unicode="&#xf6c3;" horiz-adv-x="337" 
d="M252 -80l43 27c9 -12 20 -34 20 -58c0 -56 -46 -110 -92 -131l-18 26c30 23 61 54 61 95c0 14 -4 29 -14 41z" />
    <glyph glyph-name="uniF6C9" unicode="&#xf6c9;" horiz-adv-x="521" 
d="M670 855l-178 -87l-15 30l173 100z" />
    <glyph glyph-name="uniF6CA" unicode="&#xf6ca;" horiz-adv-x="453" 
d="M434 763l-171 104l27 30l148 -87l173 87l13 -38l-186 -96h-4z" />
    <glyph glyph-name="uniF6CB" unicode="&#xf6cb;" horiz-adv-x="477" 
d="M567 822c0 18 14 33 33 33c18 0 33 -15 33 -33c0 -19 -15 -33 -33 -33c-19 0 -33 14 -33 33zM339 822c0 18 14 33 32 33c19 0 34 -15 34 -33c0 -19 -15 -33 -34 -33c-18 0 -32 14 -32 33z" />
    <glyph glyph-name="uniF6CE" unicode="&#xf6ce;" horiz-adv-x="420" 
d="M572 760l-174 96l22 42l168 -109z" />
    <glyph glyph-name="uniF6CF" unicode="&#xf6cf;" horiz-adv-x="600" 
d="M599 851l-158 -83l-15 32l155 92zM763 851l-158 -83l-15 32l155 92z" />
    <glyph glyph-name="uniF6D0" unicode="&#xf6d0;" horiz-adv-x="514" 
d="M376 800l9 46h294l-9 -46h-294z" />
    <glyph glyph-name="uniF6D1" unicode="&#xf6d1;" horiz-adv-x="537" 
d="M370 884l43 17c12 -61 50 -85 114 -85c73 0 118 35 143 82l39 -17c-28 -59 -96 -109 -185 -109c-92 0 -141 43 -154 112z" />
    <glyph glyph-name="uniF6D4" unicode="&#xf6d4;" horiz-adv-x="442" 
d="M221 748h41c-9 -58 17 -99 84 -99c70 0 112 40 129 99h42c-16 -80 -84 -142 -171 -142c-94 0 -140 61 -125 142z" />
    <glyph glyph-name="uniF6F4" unicode="&#xf6f4;" horiz-adv-x="483" 
d="M339 740l23 20c22 -36 69 -60 114 -60c56 0 102 25 136 59l19 -22c-30 -37 -87 -87 -157 -87c-63 0 -112 40 -135 90z" />
    <glyph glyph-name="uniF6F5" unicode="&#xf6f5;" horiz-adv-x="465" 
d="M447 631l-118 124l32 29l92 -100l130 98l22 -30l-154 -121h-4z" />
    <glyph glyph-name="uniF6F6" unicode="&#xf6f6;" horiz-adv-x="448" 
d="M459 779l118 -124l-32 -29l-92 100l-130 -98l-22 30l154 121h4z" />
    <glyph glyph-name="uniF6F7" unicode="&#xf6f7;" horiz-adv-x="363" 
d="M425 696c0 20 18 35 37 35c18 0 36 -15 36 -35c0 -23 -18 -39 -36 -39c-19 0 -37 16 -37 39z" />
    <glyph glyph-name="uniF6F8" unicode="&#xf6f8;" horiz-adv-x="523" 
d="M533 782l-146 -151l-28 24l139 158zM673 782l-146 -151l-28 24l139 158z" />
    <glyph glyph-name="uniF6F9" unicode="&#xf6f9;" horiz-adv-x="499" 
d="M5 128l10 58l82 50l64 324h50l-57 -289l206 127l-11 -58l-205 -127l-33 -166h368l-9 -47h-418l35 178z" />
    <glyph glyph-name="uniF6FA" unicode="&#xf6fa;" horiz-adv-x="1029" 
d="M562 145l50 252c-26 62 -77 123 -202 123c-174 0 -290 -138 -290 -278c0 -124 92 -202 220 -202c95 0 180 48 222 105zM535 0l13 68c-46 -38 -126 -75 -212 -75c-159 0 -269 100 -269 240c0 193 158 334 347 334c100 0 172 -35 213 -94l17 87h419l-9 -47h-369l-40 -205
h345l-9 -47h-345l-42 -214h378l-9 -47h-428z" />
    <glyph glyph-name="uniF6FB" unicode="&#xf6fb;" horiz-adv-x="389" 
d="M360 -148l7 -42c-19 -7 -36 -10 -59 -10c-61 0 -90 35 -90 80c0 70 75 143 175 143l-4 -23c-60 0 -119 -58 -119 -109c0 -27 16 -48 50 -48c9 0 22 1 40 9z" />
    <glyph glyph-name="uniF6FC" unicode="&#xf6fc;" horiz-adv-x="424" 
d="M373 695c0 51 40 99 98 99c54 0 87 -37 87 -83c0 -56 -38 -102 -100 -102c-51 0 -85 35 -85 86zM413 697c0 -27 19 -48 48 -48c33 0 57 24 57 55c0 27 -14 50 -50 50c-30 0 -55 -23 -55 -57z" />
    <glyph glyph-name="uniF6FD" unicode="&#xf6fd;" horiz-adv-x="522" 
d="M440 146c0 152 -336 77 -336 265c0 94 92 156 231 156c103 0 166 -32 203 -81l-34 -29c-36 39 -89 63 -173 63c-101 0 -174 -35 -174 -106c0 -136 336 -79 336 -260c0 -92 -93 -161 -222 -161c-108 0 -191 40 -230 112l39 31c37 -64 106 -96 195 -96c78 0 165 33 165 106
zM341 631l-118 124l32 29l92 -100l130 98l22 -30l-154 -121h-4z" />
    <glyph glyph-name="uniF6FE" unicode="&#xf6fe;" horiz-adv-x="477" 
d="M314 639l-21 26c30 28 68 54 105 54c56 0 79 -52 119 -52c28 0 54 20 74 39l19 -27c-26 -29 -54 -54 -96 -54c-61 0 -80 52 -119 52c-32 0 -59 -23 -81 -38z" />
    <glyph glyph-name="uniF6FF" unicode="&#xf6ff;" horiz-adv-x="535" 
d="M109 513l9 47h480l-7 -35l-512 -478h428l-9 -47h-505l7 35l510 478h-401zM369 631l-118 124l32 29l92 -100l130 98l22 -30l-154 -121h-4z" />
    <glyph glyph-name="uniF760" unicode="&#xf760;" horiz-adv-x="374" 
d="M464 621l-88 142l44 29l79 -149z" />
    <glyph glyph-name="uniF761" unicode="&#xf761;" horiz-adv-x="571" 
d="M-17 0l370 562h43l152 -562h-49l-44 158h-313l-103 -158h-56zM363 493l-192 -289h274z" />
    <glyph glyph-name="uniF762" unicode="&#xf762;" horiz-adv-x="570" 
d="M47 0l109 560h227c142 0 188 -47 188 -124c0 -80 -62 -130 -125 -147c70 -13 96 -62 96 -110c0 -123 -96 -179 -259 -179h-236zM337 263h-189l-42 -216h180c140 0 205 44 205 124c0 61 -49 92 -154 92zM376 513h-179l-40 -203h191c98 0 171 45 171 122
c0 53 -40 81 -143 81z" />
    <glyph glyph-name="uniF763" unicode="&#xf763;" horiz-adv-x="583" 
d="M537 117l24 -34c-53 -58 -143 -90 -228 -90c-158 0 -271 86 -271 237c0 179 132 337 359 337c107 0 177 -43 206 -87l-32 -29c-44 45 -92 69 -185 69c-178 0 -295 -128 -295 -284c0 -118 81 -196 222 -196c86 0 152 30 200 77z" />
    <glyph glyph-name="uniF764" unicode="&#xf764;" horiz-adv-x="603" 
d="M47 0l109 560h181c200 0 274 -98 274 -224c0 -162 -107 -336 -384 -336h-180zM326 513h-129l-91 -466h126c227 0 327 135 327 285c0 103 -65 181 -233 181z" />
    <glyph glyph-name="uniF765" unicode="&#xf765;" horiz-adv-x="541" 
d="M47 0l109 560h419l-9 -47h-369l-40 -205h345l-9 -47h-345l-42 -214h378l-9 -47h-428z" />
    <glyph glyph-name="uniF766" unicode="&#xf766;" horiz-adv-x="515" 
d="M47 0l109 560h415l-9 -47h-365l-44 -223h340l-9 -47h-340l-47 -243h-50z" />
    <glyph glyph-name="uniF767" unicode="&#xf767;" horiz-adv-x="600" 
d="M372 228l9 46h218l-39 -201c-47 -40 -138 -80 -227 -80c-169 0 -271 98 -271 237c0 194 163 337 363 337c90 0 159 -23 202 -79l-32 -31c-44 43 -87 63 -174 63c-169 0 -306 -122 -306 -282c0 -121 85 -198 221 -198c74 0 136 24 181 56l26 132h-171z" />
    <glyph glyph-name="uniF768" unicode="&#xf768;" horiz-adv-x="633" 
d="M496 0l51 262h-399l-51 -262h-50l109 560h50l-49 -251h399l49 251h50l-109 -560h-50z" />
    <glyph glyph-name="uniF769" unicode="&#xf769;" horiz-adv-x="202" 
d="M56 0l109 560h50l-109 -560h-50z" />
    <glyph glyph-name="uniF76A" unicode="&#xf76a;" horiz-adv-x="413" 
d="M435 560l-77 -395c-20 -105 -82 -172 -197 -172c-83 0 -141 41 -159 101l39 26c22 -59 67 -82 124 -81c88 1 129 53 145 134l75 387h50z" />
    <glyph glyph-name="uniF76B" unicode="&#xf76b;" horiz-adv-x="546" 
d="M47 0l109 560h50l-57 -291l385 291h76l-340 -259l253 -301h-67l-231 271l-88 -64l-40 -207h-50z" />
    <glyph glyph-name="uniF76C" unicode="&#xf76c;" horiz-adv-x="494" 
d="M47 0l109 560h50l-100 -513h368l-9 -47h-418z" />
    <glyph glyph-name="uniF76D" unicode="&#xf76d;" horiz-adv-x="705" 
d="M47 0l109 560h44l182 -301l291 301h54l-109 -560h-50l93 478l-284 -291h-11l-176 289l-93 -476h-50z" />
    <glyph glyph-name="uniF76E" unicode="&#xf76e;" horiz-adv-x="624" 
d="M537 0h-40l-311 476l-92 -476h-47l109 560h40l309 -475l93 475h48z" />
    <glyph glyph-name="uniF76F" unicode="&#xf76f;" horiz-adv-x="667" 
d="M67 233c0 193 158 334 347 334c179 0 263 -117 263 -240c0 -197 -160 -334 -341 -334c-159 0 -269 100 -269 240zM120 242c0 -124 92 -202 220 -202c155 0 284 122 284 279c0 88 -54 201 -214 201c-174 0 -290 -138 -290 -278z" />
    <glyph glyph-name="uniF770" unicode="&#xf770;" horiz-adv-x="552" 
d="M97 0h-50l109 560h221c141 0 201 -52 201 -141c0 -119 -88 -199 -277 -199h-161zM365 513h-168l-48 -246h159c117 0 218 38 218 141c0 74 -51 105 -161 105z" />
    <glyph glyph-name="uniF771" unicode="&#xf771;" horiz-adv-x="667" 
d="M63 233c0 167 135 334 356 334c167 0 254 -111 254 -240c0 -102 -43 -196 -143 -268l50 -70l-39 -29l-52 75c-43 -21 -91 -42 -164 -42c-160 0 -262 100 -262 240zM116 242c0 -128 91 -202 212 -202c55 0 97 13 138 33l-43 60l38 30l46 -65c71 53 113 133 113 221
c0 94 -55 201 -210 201c-154 0 -294 -121 -294 -278z" />
    <glyph glyph-name="uniF772" unicode="&#xf772;" horiz-adv-x="572" 
d="M97 0h-50l109 560h221c151 0 197 -60 197 -131c0 -102 -73 -172 -193 -189l155 -240h-64l-148 232h-182zM366 513h-169l-46 -234h162c112 0 208 41 208 140c0 55 -41 94 -155 94z" />
    <glyph glyph-name="uniF773" unicode="&#xf773;" horiz-adv-x="522" 
d="M440 146c0 152 -336 77 -336 265c0 94 92 156 231 156c103 0 166 -32 203 -81l-34 -29c-36 39 -89 63 -173 63c-101 0 -174 -35 -174 -106c0 -136 336 -79 336 -260c0 -92 -93 -161 -222 -161c-108 0 -191 40 -230 112l39 31c37 -64 106 -96 195 -96c78 0 165 33 165 106
z" />
    <glyph glyph-name="uniF774" unicode="&#xf774;" horiz-adv-x="487" 
d="M83 513l9 47h481l-9 -47h-216l-100 -513h-50l100 513h-215z" />
    <glyph glyph-name="uniF775" unicode="&#xf775;" horiz-adv-x="610" 
d="M640 560l-63 -325c-22 -113 -98 -241 -281 -241c-126 0 -221 66 -216 198c1 15 3 31 6 48l62 320h50l-61 -312c-3 -18 -5 -36 -5 -52c-1 -103 65 -155 169 -155c124 0 204 77 228 203l61 316h50z" />
    <glyph glyph-name="uniF776" unicode="&#xf776;" horiz-adv-x="601" 
d="M690 560l-383 -560h-39l-179 560h53l157 -492l335 492h56z" />
    <glyph glyph-name="uniF777" unicode="&#xf777;" horiz-adv-x="816" 
d="M902 560l-286 -560h-46l-86 478l-269 -478h-47l-76 560h50l67 -474l266 474h46l86 -474l243 474h52z" />
    <glyph glyph-name="uniF778" unicode="&#xf778;" horiz-adv-x="541" 
d="M606 560l-272 -279l166 -281h-55l-147 246l-238 -246h-66l280 288l-158 272h55l139 -236l231 236h65z" />
    <glyph glyph-name="uniF779" unicode="&#xf779;" horiz-adv-x="525" 
d="M614 560l-300 -315l-48 -245h-50l48 245l-175 315h56l150 -269l258 269h61z" />
    <glyph glyph-name="uniF77A" unicode="&#xf77a;" horiz-adv-x="535" 
d="M109 513l9 47h480l-7 -35l-512 -478h428l-9 -47h-505l7 35l510 478h-401z" />
    <glyph glyph-name="uniF7A1" unicode="&#xf7a1;" horiz-adv-x="264" 
d="M107 0l79 407h49l-79 -407h-49zM199 525c0 18 19 37 42 37c16 0 26 -13 26 -28c0 -17 -18 -36 -38 -36c-19 0 -30 14 -30 27z" />
    <glyph glyph-name="uniF7A8" unicode="&#xf7a8;" horiz-adv-x="461" 
d="M281 695c0 20 16 34 33 34s35 -14 35 -34c0 -22 -18 -36 -35 -36s-33 14 -33 36zM525 695c0 20 17 34 36 34c15 0 34 -14 34 -34c0 -22 -19 -36 -34 -36c-19 0 -36 14 -36 36z" />
    <glyph glyph-name="uniF7AF" unicode="&#xf7af;" horiz-adv-x="444" 
d="M317 655l9 46h254l-9 -46h-254z" />
    <glyph glyph-name="uniF7B4" unicode="&#xf7b4;" horiz-adv-x="448" 
d="M594 761l-131 -131l-28 24l124 139z" />
    <glyph glyph-name="uniF7B8" unicode="&#xf7b8;" horiz-adv-x="448" 
d="M215 -176l22 38c22 -12 39 -19 71 -19c41 0 68 15 68 39s-16 34 -54 34h-26l16 84h40l-8 -44c58 -1 83 -30 83 -67c0 -55 -50 -89 -124 -89c-31 0 -65 7 -88 24z" />
    <glyph glyph-name="uniF7BF" unicode="&#xf7bf;" horiz-adv-x="392" 
d="M81 125c0 -49 40 -85 103 -85c54 0 109 19 141 66l36 -17c-38 -61 -119 -96 -189 -96c-95 0 -143 53 -143 116c0 92 66 132 127 170c60 37 88 61 95 97c3 17 3 20 4 33h43c0 -17 -2 -32 -6 -45c-16 -55 -62 -83 -109 -111c-52 -31 -102 -63 -102 -128zM335 534
c0 -17 -18 -36 -41 -36c-17 0 -26 13 -26 27c0 18 17 37 38 37c19 0 29 -13 29 -28z" />
    <glyph glyph-name="uniF7E0" unicode="&#xf7e0;" horiz-adv-x="571" 
d="M-17 0l370 562h43l152 -562h-49l-44 158h-313l-103 -158h-56zM363 493l-192 -289h274zM372 621l-88 142l44 29l79 -149z" />
    <glyph glyph-name="uniF7E1" unicode="&#xf7e1;" horiz-adv-x="571" 
d="M-17 0l370 562h43l152 -562h-49l-44 158h-313l-103 -158h-56zM363 493l-192 -289h274zM534 761l-131 -131l-28 24l124 139z" />
    <glyph glyph-name="uniF7E2" unicode="&#xf7e2;" horiz-adv-x="571" 
d="M-17 0l370 562h43l152 -562h-49l-44 158h-313l-103 -158h-56zM363 493l-192 -289h274zM404 779l118 -124l-32 -29l-92 100l-130 -98l-22 30l154 121h4z" />
    <glyph glyph-name="uniF7E3" unicode="&#xf7e3;" horiz-adv-x="571" 
d="M-17 0l370 562h43l152 -562h-49l-44 158h-313l-103 -158h-56zM363 493l-192 -289h274zM256 639l-21 26c30 28 68 54 105 54c56 0 79 -52 119 -52c28 0 54 20 74 39l19 -27c-26 -29 -54 -54 -96 -54c-61 0 -80 52 -119 52c-32 0 -59 -23 -81 -38z" />
    <glyph glyph-name="uniF7E4" unicode="&#xf7e4;" horiz-adv-x="571" 
d="M-17 0l370 562h43l152 -562h-49l-44 158h-313l-103 -158h-56zM363 493l-192 -289h274zM228 695c0 20 16 34 33 34s35 -14 35 -34c0 -22 -18 -36 -35 -36s-33 14 -33 36zM472 695c0 20 17 34 36 34c15 0 34 -14 34 -34c0 -22 -19 -36 -34 -36c-19 0 -36 14 -36 36z" />
    <glyph glyph-name="uniF7E5" unicode="&#xf7e5;" horiz-adv-x="571" 
d="M-17 0l370 562h43l152 -562h-49l-44 158h-313l-103 -158h-56zM363 493l-192 -289h274zM296 695c0 51 40 99 98 99c54 0 87 -37 87 -83c0 -56 -38 -102 -100 -102c-51 0 -85 35 -85 86zM336 697c0 -27 19 -48 48 -48c33 0 57 24 57 55c0 27 -14 50 -50 50
c-30 0 -55 -23 -55 -57z" />
    <glyph glyph-name="uniF7E6" unicode="&#xf7e6;" horiz-adv-x="931" 
d="M436 0l31 158h-270l-156 -158h-61l541 560h444l-9 -47h-370l-40 -205h345l-9 -47h-345l-42 -214h378l-9 -47h-428zM238 204h238l59 303z" />
    <glyph glyph-name="uniF7E7" unicode="&#xf7e7;" horiz-adv-x="583" 
d="M195 -176l22 38c22 -12 39 -19 71 -19c41 0 68 15 68 39s-16 34 -54 34h-26l15 79c-136 14 -229 97 -229 235c0 179 132 337 359 337c107 0 177 -43 206 -87l-32 -29c-44 45 -92 69 -185 69c-178 0 -295 -128 -295 -284c0 -118 81 -196 222 -196c86 0 152 30 200 77
l24 -34c-53 -58 -143 -90 -228 -90h-3l-6 -37c58 -1 83 -30 83 -67c0 -55 -50 -89 -124 -89c-31 0 -65 7 -88 24z" />
    <glyph glyph-name="uniF7E8" unicode="&#xf7e8;" horiz-adv-x="541" 
d="M47 0l109 560h419l-9 -47h-369l-40 -205h345l-9 -47h-345l-42 -214h378l-9 -47h-428zM394 621l-88 142l44 29l79 -149z" />
    <glyph glyph-name="uniF7E9" unicode="&#xf7e9;" horiz-adv-x="541" 
d="M47 0l109 560h419l-9 -47h-369l-40 -205h345l-9 -47h-345l-42 -214h378l-9 -47h-428zM524 761l-131 -131l-28 24l124 139z" />
    <glyph glyph-name="uniF7EA" unicode="&#xf7ea;" horiz-adv-x="541" 
d="M47 0l109 560h419l-9 -47h-369l-40 -205h345l-9 -47h-345l-42 -214h378l-9 -47h-428zM406 779l118 -124l-32 -29l-92 100l-130 -98l-22 30l154 121h4z" />
    <glyph glyph-name="uniF7EB" unicode="&#xf7eb;" horiz-adv-x="541" 
d="M47 0l109 560h419l-9 -47h-369l-40 -205h345l-9 -47h-345l-42 -214h378l-9 -47h-428zM226 695c0 20 16 34 33 34s35 -14 35 -34c0 -22 -18 -36 -35 -36s-33 14 -33 36zM470 695c0 20 17 34 36 34c15 0 34 -14 34 -34c0 -22 -19 -36 -34 -36c-19 0 -36 14 -36 36z" />
    <glyph glyph-name="uniF7EC" unicode="&#xf7ec;" horiz-adv-x="202" 
d="M56 0l109 560h50l-109 -560h-50zM183 621l-88 142l44 29l79 -149z" />
    <glyph glyph-name="uniF7ED" unicode="&#xf7ed;" horiz-adv-x="202" 
d="M56 0l109 560h50l-109 -560h-50zM344 761l-131 -131l-28 24l124 139z" />
    <glyph glyph-name="uniF7EE" unicode="&#xf7ee;" horiz-adv-x="202" 
d="M56 0l109 560h50l-109 -560h-50zM220 779l118 -124l-32 -29l-92 100l-130 -98l-22 30l154 121h4z" />
    <glyph glyph-name="uniF7EF" unicode="&#xf7ef;" horiz-adv-x="202" 
d="M56 0l109 560h50l-109 -560h-50zM60 695c0 20 16 34 33 34s35 -14 35 -34c0 -22 -18 -36 -35 -36s-33 14 -33 36zM268 695c0 20 17 34 36 34c15 0 34 -14 34 -34c0 -22 -19 -36 -34 -36c-19 0 -36 14 -36 36z" />
    <glyph glyph-name="uniF7F0" unicode="&#xf7f0;" horiz-adv-x="649" 
d="M36 256l8 43h107l51 261h181c200 0 275 -100 275 -220c0 -192 -130 -340 -391 -340h-174l50 256h-107zM372 513h-129l-42 -214h175l-8 -43h-175l-41 -209h126c227 0 327 135 327 285c0 103 -65 181 -233 181z" />
    <glyph glyph-name="uniF7F1" unicode="&#xf7f1;" horiz-adv-x="624" 
d="M537 0h-40l-311 476l-92 -476h-47l109 560h40l309 -475l93 475h48zM285 639l-21 26c30 28 68 54 105 54c56 0 79 -52 119 -52c28 0 54 20 74 39l19 -27c-26 -29 -54 -54 -96 -54c-61 0 -80 52 -119 52c-32 0 -59 -23 -81 -38z" />
    <glyph glyph-name="uniF7F2" unicode="&#xf7f2;" horiz-adv-x="667" 
d="M67 233c0 193 158 334 347 334c179 0 263 -117 263 -240c0 -197 -160 -334 -341 -334c-159 0 -269 100 -269 240zM120 242c0 -124 92 -202 220 -202c155 0 284 122 284 279c0 88 -54 201 -214 201c-174 0 -290 -138 -290 -278zM424 621l-88 142l44 29l79 -149z" />
    <glyph glyph-name="uniF7F3" unicode="&#xf7f3;" horiz-adv-x="667" 
d="M67 233c0 193 158 334 347 334c179 0 263 -117 263 -240c0 -197 -160 -334 -341 -334c-159 0 -269 100 -269 240zM120 242c0 -124 92 -202 220 -202c155 0 284 122 284 279c0 88 -54 201 -214 201c-174 0 -290 -138 -290 -278zM574 761l-131 -131l-28 24l124 139z" />
    <glyph glyph-name="uniF7F4" unicode="&#xf7f4;" horiz-adv-x="667" 
d="M67 233c0 193 158 334 347 334c179 0 263 -117 263 -240c0 -197 -160 -334 -341 -334c-159 0 -269 100 -269 240zM120 242c0 -124 92 -202 220 -202c155 0 284 122 284 279c0 88 -54 201 -214 201c-174 0 -290 -138 -290 -278zM464 779l118 -124l-32 -29l-92 100
l-130 -98l-22 30l154 121h4z" />
    <glyph glyph-name="uniF7F5" unicode="&#xf7f5;" horiz-adv-x="667" 
d="M67 233c0 193 158 334 347 334c179 0 263 -117 263 -240c0 -197 -160 -334 -341 -334c-159 0 -269 100 -269 240zM120 242c0 -124 92 -202 220 -202c155 0 284 122 284 279c0 88 -54 201 -214 201c-174 0 -290 -138 -290 -278zM306 639l-21 26c30 28 68 54 105 54
c56 0 79 -52 119 -52c28 0 54 20 74 39l19 -27c-26 -29 -54 -54 -96 -54c-61 0 -80 52 -119 52c-32 0 -59 -23 -81 -38z" />
    <glyph glyph-name="uniF7F6" unicode="&#xf7f6;" horiz-adv-x="667" 
d="M67 233c0 193 158 334 347 334c179 0 263 -117 263 -240c0 -197 -160 -334 -341 -334c-159 0 -269 100 -269 240zM120 242c0 -124 92 -202 220 -202c155 0 284 122 284 279c0 88 -54 201 -214 201c-174 0 -290 -138 -290 -278zM290 695c0 20 16 34 33 34s35 -14 35 -34
c0 -22 -18 -36 -35 -36s-33 14 -33 36zM534 695c0 20 17 34 36 34c15 0 34 -14 34 -34c0 -22 -19 -36 -34 -36c-19 0 -36 14 -36 36z" />
    <glyph glyph-name="uniF7F8" unicode="&#xf7f8;" horiz-adv-x="667" 
d="M656 529l-40 -39c41 -44 61 -103 61 -163c0 -197 -160 -334 -341 -334c-73 0 -134 21 -181 57l-45 -46l-32 30l46 44c-37 41 -57 94 -57 155c0 193 158 334 347 334c73 0 130 -18 172 -50l42 40zM162 116l387 364c-33 25 -78 40 -139 40c-174 0 -290 -138 -290 -278
c0 -51 15 -93 42 -126zM577 453l-384 -368c38 -29 88 -45 147 -45c155 0 284 122 284 279c0 44 -13 95 -47 134z" />
    <glyph glyph-name="uniF7F9" unicode="&#xf7f9;" horiz-adv-x="610" 
d="M640 560l-63 -325c-22 -113 -98 -241 -281 -241c-126 0 -221 66 -216 198c1 15 3 31 6 48l62 320h50l-61 -312c-3 -18 -5 -36 -5 -52c-1 -103 65 -155 169 -155c124 0 204 77 228 203l61 316h50zM404 621l-88 142l44 29l79 -149z" />
    <glyph glyph-name="uniF7FA" unicode="&#xf7fa;" horiz-adv-x="610" 
d="M640 560l-63 -325c-22 -113 -98 -241 -281 -241c-126 0 -221 66 -216 198c1 15 3 31 6 48l62 320h50l-61 -312c-3 -18 -5 -36 -5 -52c-1 -103 65 -155 169 -155c124 0 204 77 228 203l61 316h50zM544 761l-131 -131l-28 24l124 139z" />
    <glyph glyph-name="uniF7FB" unicode="&#xf7fb;" horiz-adv-x="610" 
d="M640 560l-63 -325c-22 -113 -98 -241 -281 -241c-126 0 -221 66 -216 198c1 15 3 31 6 48l62 320h50l-61 -312c-3 -18 -5 -36 -5 -52c-1 -103 65 -155 169 -155c124 0 204 77 228 203l61 316h50zM436 779l118 -124l-32 -29l-92 100l-130 -98l-22 30l154 121h4z" />
    <glyph glyph-name="uniF7FC" unicode="&#xf7fc;" horiz-adv-x="610" 
d="M640 560l-63 -325c-22 -113 -98 -241 -281 -241c-126 0 -221 66 -216 198c1 15 3 31 6 48l62 320h50l-61 -312c-3 -18 -5 -36 -5 -52c-1 -103 65 -155 169 -155c124 0 204 77 228 203l61 316h50zM261 695c0 20 16 34 33 34s35 -14 35 -34c0 -22 -18 -36 -35 -36
s-33 14 -33 36zM505 695c0 20 17 34 36 34c15 0 34 -14 34 -34c0 -22 -19 -36 -34 -36c-19 0 -36 14 -36 36z" />
    <glyph glyph-name="uniF7FD" unicode="&#xf7fd;" horiz-adv-x="525" 
d="M614 560l-300 -315l-48 -245h-50l48 245l-175 315h56l150 -269l258 269h61zM504 761l-131 -131l-28 24l124 139z" />
    <glyph glyph-name="uniF7FE" unicode="&#xf7fe;" horiz-adv-x="552" 
d="M97 0h-50l109 560h50l-19 -95h162c158 0 211 -58 211 -143c0 -123 -101 -197 -278 -197h-161zM344 418h-166l-48 -246h159c151 0 218 62 218 142c0 71 -47 104 -163 104z" />
    <glyph glyph-name="uniF7FF" unicode="&#xf7ff;" horiz-adv-x="525" 
d="M614 560l-300 -315l-48 -245h-50l48 245l-175 315h56l150 -269l258 269h61zM219 695c0 20 16 34 33 34s35 -14 35 -34c0 -22 -18 -36 -35 -36s-33 14 -33 36zM463 695c0 20 17 34 36 34c15 0 34 -14 34 -34c0 -22 -19 -36 -34 -36c-19 0 -36 14 -36 36z" />
    <glyph glyph-name="uniFE56" unicode="&#xfe56;" horiz-adv-x="392" 
d="M378 441c0 46 -33 79 -104 79c-72 0 -108 -27 -138 -66l-38 18c30 56 99 95 180 95c103 0 151 -54 151 -122c0 -86 -66 -126 -127 -164c-71 -44 -98 -65 -98 -114c0 -5 1 -11 1 -15h-43c-1 17 0 32 3 45c13 58 60 84 113 117s100 62 100 127zM124 30c0 18 14 33 32 33
s33 -15 33 -33s-15 -32 -33 -32s-32 14 -32 32z" />
    <glyph glyph-name="uniFE57" unicode="&#xfe57;" horiz-adv-x="264" 
d="M117 153l79 407h49l-79 -407h-49zM83 30c0 18 14 33 32 33s33 -15 33 -33s-15 -32 -33 -32s-32 14 -32 32z" />
    <glyph glyph-name="uniFEFF" unicode="&#xfeff;" horiz-adv-x="0" 
 />
    <glyph glyph-name="nbspace" horiz-adv-x="300" 
 />
    <glyph glyph-name="caron.l" horiz-adv-x="186" 
d="M245 730h49c2 -7 3 -18 3 -30c0 -84 -49 -134 -108 -164l-19 26c46 24 81 73 81 129c0 10 -2 27 -6 39z" />
    <glyph glyph-name="caron.lsmall" horiz-adv-x="186" 
d="M212 560h49c2 -7 3 -18 3 -30c0 -84 -49 -134 -108 -164l-19 26c46 24 81 73 81 129c0 10 -2 27 -6 39z" />
    <glyph glyph-name="K.ss01" horiz-adv-x="639" 
d="M55 0l136 700h53l-63 -324h93l371 324h74l-394 -343l283 -357h-69l-258 326h-110l-63 -326h-53z" />
    <glyph glyph-name="kcommaaccent.ss01" horiz-adv-x="519" 
d="M70 0l142 730h49l-84 -434h74l269 224h70l-298 -247l223 -273h-62l-203 249h-83l-48 -249h-49zM222 -80l43 27c9 -12 20 -34 20 -58c0 -56 -46 -110 -92 -131l-18 26c30 23 61 54 61 95c0 14 -4 29 -14 41z" />
    <glyph glyph-name="Kcommaaccent.ss01" horiz-adv-x="639" 
d="M55 0l136 700h53l-63 -324h93l371 324h74l-394 -343l283 -357h-69l-258 326h-110l-63 -326h-53zM267 -80l43 27c9 -12 20 -34 20 -58c0 -56 -46 -110 -92 -131l-18 26c30 23 61 54 61 95c0 14 -4 29 -14 41z" />
    <glyph glyph-name="uniF689.ss01" horiz-adv-x="546" 
d="M47 0l109 560h50l-49 -251h83l297 251h73l-325 -272l238 -288h-63l-218 262h-94l-51 -262h-50zM222 -80l43 27c9 -12 20 -34 20 -58c0 -56 -46 -110 -92 -131l-18 26c30 23 61 54 61 95c0 14 -4 29 -14 41z" />
    <glyph glyph-name="uniF35A.ss01" horiz-adv-x="546" 
d="M47 0l109 560h50l-49 -251h83l297 251h73l-325 -272l238 -288h-63l-218 262h-94l-51 -262h-50z" />
    <glyph glyph-name="k.ss01" horiz-adv-x="519" 
d="M70 0l142 730h49l-84 -434h74l269 224h70l-298 -247l223 -273h-62l-203 249h-83l-48 -249h-49z" />
    <glyph glyph-name="afii10076.ss01" horiz-adv-x="519" 
d="M50 0l101 520h49l-46 -238h75l271 238h70l-300 -261l225 -259h-62l-205 235h-83l-46 -235h-49z" />
    </font>
</defs>
</svg>
