<?xml version="1.0" standalone="no"?>
<!DOCTYPE svg PUBLIC "-//W3C//DTD SVG 1.1//EN" "http://www.w3.org/Graphics/SVG/1.1/DTD/svg11.dtd" >
<svg>
<metadata>
Created by FontForge 20110222 at Thu Sep 17 12:01:20 2015
 By www-data
Stem is a geometric sans-serif with semi-closed aperture and large x-height. 12 faces of it, including upright and true italic faces of different weights, are intended primarily for large point sizes. The Stem family will be supplemented with faces for text and caption setting. Design -- Alexandra Korolkova with the assistance of Maria Selezeneva and Isabella Chaeva. Released by ParaType in 2014.
</metadata>
<defs>
<font id="Stem-LightItalic" horiz-adv-x="581" >
  <font-face 
    font-family="Stem Light"
    font-weight="350"
    font-style="italic"
    font-stretch="normal"
    units-per-em="1000"
    panose-1="2 11 5 3 2 2 3 9 2 4"
    ascent="778"
    descent="-222"
    x-height="520"
    cap-height="700"
    bbox="-369 -251 1273 919"
    underline-thickness="50"
    underline-position="-50"
    slope="-11"
    stemh="58"
    stemv="66"
    unicode-range="U+0020-FEFF"
  />
<missing-glyph horiz-adv-x="300" 
 />
    <glyph glyph-name="uniF350.var.accented" unicode="&#xf350;`" horiz-adv-x="551" 
d="M-18 0l351 561h52l144 -561h-67l-39 146h-277l-92 -146h-72zM342 462l-160 -257h228zM517 765l-131 -148l-43 30l124 155z" />
    <glyph glyph-name="uniF355.var.accented" unicode="&#xf355;`" horiz-adv-x="516" 
d="M42 0l103 560h405l-11 -63h-341l-35 -181h320l-12 -63h-319l-35 -190h349l-11 -63h-413zM505 765l-131 -148l-43 30l124 155z" />
    <glyph glyph-name="uniF358.var.accented" unicode="&#xf358;`" horiz-adv-x="597" 
d="M96 0h-54l103 560h64l-82 -439l436 439h55l-103 -560h-64l81 438zM525 765l-131 -148l-43 30l124 155z" />
    <glyph glyph-name="uniF35E.var.accented" unicode="&#xf35e;`" horiz-adv-x="633" 
d="M57 233c0 187 139 334 341 334c143 0 241 -100 241 -240c0 -182 -137 -334 -338 -334c-145 0 -244 100 -244 240zM124 244c0 -126 87 -187 184 -187c156 0 264 119 264 260c0 82 -47 186 -182 186c-152 0 -266 -115 -266 -259zM554 765l-131 -148l-43 30l124 155z" />
    <glyph glyph-name="uniF363.var.accented" unicode="&#xf363;`" horiz-adv-x="549" 
d="M137 14l27 55c6 -4 16 -7 26 -7c24 0 54 34 76 67l11 17l-193 414h69l167 -354l240 354h72l-292 -433c-55 -81 -101 -127 -154 -127c-21 0 -36 5 -49 14zM518 765l-131 -148l-43 30l124 155z" />
    <glyph glyph-name="uniF36B.var.accented" unicode="&#xf36b;`" horiz-adv-x="684" 
d="M539 0l103 560h64l-104 -560h-63zM288 286h-129l-42 -223h127c120 0 187 43 187 124c0 74 -46 99 -143 99zM209 560l-39 -211h131c134 0 199 -53 199 -151c0 -133 -102 -198 -271 -198h-187l103 560h64zM554 765l-131 -148l-43 30l124 155z" />
    <glyph glyph-name="uniF36D.var.accented" unicode="&#xf36d;`" horiz-adv-x="560" 
d="M187 254l12 63h303c9 114 -58 188 -188 188c-65 0 -147 -33 -200 -87l-36 42c60 74 167 107 253 107c154 0 238 -89 238 -230c0 -191 -132 -344 -342 -344c-85 0 -173 30 -213 108l49 36c28 -52 100 -82 171 -82c127 0 224 74 256 199h-303zM480 765l-131 -148l-43 30
l124 155z" />
    <glyph glyph-name="uniF36E.var.accented" unicode="&#xf36e;`" horiz-adv-x="799" 
d="M42 0l103 560h64l-46 -244h97c36 153 169 251 315 251s231 -97 231 -235c0 -207 -154 -339 -326 -339c-159 0 -243 123 -228 262h-99l-48 -255h-63zM317 240c0 -107 66 -184 169 -184c145 0 253 119 253 266c0 107 -66 182 -170 182c-144 0 -252 -115 -252 -264zM620 765
l-131 -148l-43 30l124 155z" />
    <glyph glyph-name="uniF36F.var.accented" unicode="&#xf36f;`" horiz-adv-x="547" 
d="M402 0l39 210h-153l-215 -210h-87l228 220c-85 12 -124 67 -124 142c0 126 91 198 258 198h221l-104 -560h-63zM272 272h180l42 226h-165c-122 0 -171 -63 -171 -126c0 -64 34 -97 114 -100zM524 765l-131 -148l-43 30l124 155z" />
    <glyph glyph-name="uniF371.var.accented" unicode="&#xf371;`" horiz-adv-x="516" 
d="M483 770l-134 -149l-32 21l120 157zM42 0l103 560h405l-11 -63h-341l-35 -181h320l-12 -63h-319l-35 -190h349l-11 -63h-413zM222 694c0 23 18 42 40 42c23 0 42 -19 42 -42c0 -22 -19 -40 -42 -40c-22 0 -40 18 -40 40zM465 694c0 23 18 42 41 42c22 0 41 -19 41 -42
c0 -22 -19 -40 -41 -40c-23 0 -41 18 -41 40z" />
    <glyph glyph-name="afii10017.var.accented" unicode="&#x410;`" horiz-adv-x="644" 
d="M-17 0l421 702h55l162 -702h-70l-46 192h-332l-113 -192h-77zM414 600l-203 -344h282zM611 853l-187 -91l-18 45l183 102z" />
    <glyph glyph-name="afii10022.var.accented" unicode="&#x415;`" horiz-adv-x="606" 
d="M53 0l128 700h475l-12 -66h-407l-44 -245h380l-13 -66h-380l-47 -257h416l-12 -66h-484zM592 853l-187 -91l-18 45l183 102z" />
    <glyph glyph-name="afii10026.var.accented" unicode="&#x418;`" horiz-adv-x="701" 
d="M111 0h-58l128 700h69l-106 -571l534 571h59l-128 -700h-69l107 573zM622 853l-187 -91l-18 45l183 102z" />
    <glyph glyph-name="afii10032.var.accented" unicode="&#x41e;`" horiz-adv-x="744" 
d="M74 288c0 244 176 421 401 421c174 0 285 -126 285 -297c0 -259 -188 -421 -401 -421c-172 0 -285 123 -285 297zM144 296c0 -143 90 -239 219 -239c182 0 327 141 327 344c0 124 -71 242 -219 242c-200 0 -327 -160 -327 -347zM637 853l-187 -91l-18 45l183 102z" />
    <glyph glyph-name="afii10037.var.accented" unicode="&#x423;`" horiz-adv-x="640" 
d="M168 16l32 57c6 -3 17 -5 25 -5c43 0 69 44 110 107l-235 525h75l205 -456l272 456h77l-331 -542c-65 -101 -115 -158 -179 -158c-21 0 -40 5 -51 16zM598 853l-187 -91l-18 45l183 102z" />
    <glyph glyph-name="afii10045.var.accented" unicode="&#x42b;`" horiz-adv-x="801" 
d="M640 0l129 700h68l-129 -700h-68zM345 365h-157l-55 -299h154c147 0 232 62 232 175c0 82 -62 124 -174 124zM250 700l-50 -269h159c156 0 231 -70 231 -180c0 -178 -134 -251 -319 -251h-218l129 700h68zM671 853l-187 -91l-18 45l183 102z" />
    <glyph glyph-name="afii10047.var.accented" unicode="&#x42d;`" horiz-adv-x="657" 
d="M229 324l11 66h363c15 154 -64 254 -222 254c-81 0 -173 -40 -240 -114l-38 46c78 94 184 133 295 133c177 0 276 -110 276 -283c0 -240 -164 -435 -408 -435c-103 0 -201 41 -246 130l53 36c47 -70 112 -101 202 -101c160 0 279 112 318 268h-364zM563 853l-187 -91
l-18 45l183 102z" />
    <glyph glyph-name="afii10048.var.accented" unicode="&#x42e;`" horiz-adv-x="938" 
d="M53 0l129 700h68l-57 -311h118c41 196 208 320 375 320c169 0 268 -120 268 -290c0 -243 -168 -428 -387 -428c-182 0 -286 142 -265 334h-122l-59 -325h-68zM370 294c0 -152 79 -237 203 -237c176 0 310 158 310 351c0 137 -71 235 -202 235c-166 0 -311 -145 -311 -349
zM826 853l-187 -91l-18 45l183 102z" />
    <glyph glyph-name="afii10049.var.accented" unicode="&#x42f;`" horiz-adv-x="642" 
d="M482 0l49 268h-189l-262 -268h-92l273 278c-92 19 -144 82 -144 171c0 144 97 251 312 251h249l-129 -700h-67zM360 334h183l55 301h-189c-137 0 -220 -56 -220 -176c0 -100 77 -125 171 -125zM629 853l-187 -91l-18 45l183 102z" />
    <glyph glyph-name="afii10023.var.accented" unicode="&#x401;`" horiz-adv-x="606" 
d="M254 800c0 27 22 46 51 46c17 0 34 -14 34 -33c0 -28 -27 -46 -48 -46c-23 0 -37 12 -37 33zM548 800c0 27 24 46 50 46c19 0 36 -13 36 -33c0 -28 -26 -46 -50 -46c-21 0 -36 13 -36 33zM540 889l-132 -146l-33 20l119 156zM53 0l129 700h474l-12 -66h-407l-44 -245h380
l-13 -66h-380l-47 -257h416l-12 -66h-484z" />
    <glyph glyph-name="afii10065.var.accented" unicode="&#x430;`" 
d="M418 0l17 86c-23 -34 -93 -94 -183 -94c-130 0 -202 87 -202 207c0 207 172 334 314 334c72 0 119 -23 147 -50l9 37h58l-100 -520h-60zM263 50c94 0 163 77 185 122l50 243c-23 32 -64 60 -134 60c-124 0 -248 -110 -248 -270c0 -102 55 -155 147 -155zM569 762
l-140 -148l-34 30l133 155z" />
    <glyph glyph-name="afii10070.var.accented" unicode="&#x435;`" horiz-adv-x="528" 
d="M447 129l37 -40c-49 -68 -143 -99 -217 -99c-128 0 -217 85 -217 217c0 183 148 326 312 326c105 0 166 -45 166 -128c0 -98 -101 -173 -279 -173c-40 0 -84 5 -131 13c-1 -11 -2 -21 -2 -32c0 -100 56 -165 165 -165c65 0 125 33 166 81zM352 475
c-98 0 -188 -74 -222 -175c42 -8 82 -13 130 -13c134 1 202 58 202 112c0 41 -24 76 -110 76zM541 762l-140 -148l-34 30l133 155z" />
    <glyph glyph-name="afii10074.var.accented" unicode="&#x438;`" horiz-adv-x="574" 
d="M571 520l-100 -520h-61l15 87c-47 -59 -115 -97 -202 -97c-97 0 -159 49 -159 142c0 26 4 58 10 88l60 300h63l-57 -287c-5 -22 -11 -54 -10 -95c1 -47 26 -90 113 -90c81 0 153 51 198 120l69 352h61zM549 762l-140 -148l-34 30l133 155z" />
    <glyph glyph-name="afii10080.var.accented" unicode="&#x43e;`" horiz-adv-x="590" 
d="M50 198c0 205 157 335 314 335c134 0 220 -93 220 -212c0 -203 -147 -331 -302 -331c-138 0 -232 87 -232 208zM116 216c0 -102 61 -168 169 -168c124 0 232 105 232 260c0 108 -69 167 -157 167c-133 0 -244 -110 -244 -259zM551 762l-140 -148l-34 30l133 155z" />
    <glyph glyph-name="afii10085.var.accented" unicode="&#x443;`" horiz-adv-x="507" 
d="M-1 -195l34 57c8 -6 18 -10 29 -10c38 0 73 34 131 131l19 34l-157 503h68l134 -428l242 428h70l-296 -518c-100 -175 -152 -212 -220 -212c-21 0 -39 5 -54 15zM467 762l-140 -148l-34 30l133 155z" />
    <glyph glyph-name="afii10093.var.accented" unicode="&#x44b;`" horiz-adv-x="675" 
d="M48 0l96 520h62l-31 -170h86c165 0 205 -59 205 -130c0 -131 -87 -220 -255 -220h-163zM265 292h-101l-43 -234h109c106 0 170 59 170 150c0 48 -31 84 -135 84zM513 0l96 520h63l-96 -520h-63zM568 762l-140 -148l-34 30l133 155z" />
    <glyph glyph-name="afii10095.var.accented" unicode="&#x44d;`" horiz-adv-x="520" 
d="M179 237l13 58h258c8 116 -55 180 -157 180c-69 0 -136 -30 -185 -90l-43 38c57 68 144 110 228 110c159 0 221 -100 221 -211c0 -206 -140 -332 -302 -332c-88 0 -165 36 -200 107l48 34c25 -48 76 -83 156 -83c108 0 205 81 223 189h-260zM495 762l-140 -148l-34 30
l133 155z" />
    <glyph glyph-name="afii10096.var.accented" unicode="&#x44e;`" horiz-adv-x="787" 
d="M48 0l96 520h62l-41 -224h113c35 141 153 237 289 237c144 0 214 -105 214 -208c0 -213 -136 -335 -295 -335c-127 0 -224 86 -220 248h-112l-44 -238h-62zM331 216c0 -99 70 -168 164 -168c111 0 220 101 220 258c0 96 -58 169 -161 169c-116 0 -223 -116 -223 -259z
M647 762l-140 -148l-34 30l133 155z" />
    <glyph glyph-name="afii10097.var.accented" unicode="&#x44f;`" horiz-adv-x="533" 
d="M334 520h196l-96 -520h-63l36 193h-136l-191 -193h-83l204 202c-63 19 -108 63 -108 135c0 91 80 183 241 183zM159 342c0 -58 40 -91 125 -91h134l40 211h-143c-96 0 -156 -59 -156 -120zM559 762l-140 -148l-34 30l133 155z" />
    <glyph glyph-name="afii10071.var.accented" unicode="&#x451;`" horiz-adv-x="528" 
d="M503 763l-135 -149l-31 22l121 156zM242 688c0 23 18 41 41 41s41 -18 41 -41s-18 -41 -41 -41s-41 18 -41 41zM489 688c0 23 18 41 41 41s41 -18 41 -41s-18 -41 -41 -41s-41 18 -41 41zM447 129l37 -40c-49 -68 -143 -99 -217 -99c-128 0 -217 85 -217 217
c0 183 148 326 312 326c105 0 166 -45 166 -128c0 -98 -101 -173 -279 -173c-40 0 -84 5 -131 13c-1 -11 -2 -21 -2 -32c0 -100 56 -165 165 -165c65 0 125 33 166 81zM352 475c-98 0 -188 -74 -222 -175c42 -8 82 -13 130 -13c134 1 202 58 202 112c0 41 -24 76 -110 76z
" />
    <glyph glyph-name="fi" unicode="fi" horiz-adv-x="505" 
d="M43 458l11 62h98l6 28c27 146 121 190 195 190c27 0 51 -6 62 -17l-33 -55c-10 9 -25 10 -38 10c-57 0 -107 -32 -126 -137l-3 -19h149l-12 -62h-149l-88 -458h-63l89 458h-98zM338 0l96 520h63l-96 -520h-63zM453 684c0 23 17 42 41 42s43 -19 43 -42
c0 -24 -19 -41 -43 -41s-41 17 -41 41z" />
    <glyph glyph-name="fl" unicode="fl" horiz-adv-x="472" 
d="M339 0l118 638c-12 23 -36 42 -70 42c-83 0 -112 -61 -128 -141l-4 -19h114l-12 -62h-111l-80 -458h-61l79 458h-99l12 62h95l6 28c23 129 92 190 192 190c40 0 71 -12 91 -31l55 24l-135 -731h-62z" />
    <glyph glyph-name=".notdef" horiz-adv-x="300" 
 />
    <glyph glyph-name="space" unicode=" " horiz-adv-x="300" 
 />
    <glyph glyph-name="exclam" unicode="!" horiz-adv-x="294" 
d="M130 192l94 508h65l-94 -508h-65zM84 42c0 31 25 58 61 58c25 0 42 -21 42 -44c0 -31 -27 -59 -61 -59c-26 0 -42 21 -42 45z" />
    <glyph glyph-name="quotedbl" unicode="&#x22;" horiz-adv-x="389" 
d="M158 483l40 217h63l-40 -217h-63zM307 483l40 217h63l-40 -217h-63z" />
    <glyph glyph-name="numbersign" unicode="#" horiz-adv-x="656" 
d="M279 8l105 196h-181l-116 -215l-48 19l105 196h-88l10 58h110c32 58 62 115 96 176h-172l10 58h192c39 71 78 146 116 215l48 -19l-105 -196h181l115 215l49 -18l-107 -197h93l-11 -58h-112c-32 -58 -63 -115 -96 -176h175l-11 -58h-194l-115 -215zM331 438l-96 -176h181
l94 176h-179z" />
    <glyph glyph-name="dollar" unicode="$" horiz-adv-x="570" 
d="M484 197c0 161 -364 82 -364 300c0 121 101 200 250 211l15 80h62l-14 -81c84 -7 150 -38 183 -94l-48 -43c-38 46 -94 73 -183 73c-73 0 -195 -34 -195 -140c0 -153 364 -78 364 -297c0 -118 -103 -208 -253 -214l-17 -90h-63l17 92c-99 11 -171 68 -200 131l49 44
c45 -74 105 -112 208 -112c96 0 189 51 189 140z" />
    <glyph glyph-name="percent" unicode="%" horiz-adv-x="862" 
d="M191 17l518 701l48 -35l-517 -695zM504 162c0 98 77 166 177 166c99 0 176 -68 176 -166c0 -97 -77 -166 -176 -166c-100 0 -177 69 -177 166zM568 162c0 -67 55 -111 113 -111c60 0 112 44 112 111s-53 111 -112 111c-60 0 -113 -44 -113 -111zM89 537
c0 98 77 166 177 166c99 0 176 -68 176 -166c0 -97 -77 -166 -176 -166c-100 0 -177 69 -177 166zM153 537c0 -67 55 -111 113 -111c60 0 112 44 112 111s-53 111 -112 111c-60 0 -113 -44 -113 -111z" />
    <glyph glyph-name="ampersand" unicode="&#x26;" horiz-adv-x="744" 
d="M702 0h-91c-30 29 -54 60 -80 92c-56 -61 -153 -101 -238 -101c-131 0 -213 69 -213 171c0 135 145 207 245 268c-23 41 -39 85 -39 131c0 91 69 148 153 148c71 0 110 -39 110 -100c0 -80 -68 -148 -148 -198c32 -64 86 -149 143 -227c52 68 103 175 122 274h63
c-21 -111 -78 -235 -150 -318c39 -52 76 -93 123 -140zM300 54c68 0 147 28 194 80c-57 81 -116 183 -148 244c-95 -62 -197 -110 -197 -203c0 -72 58 -121 151 -121zM349 562c0 -37 16 -67 30 -99c61 41 106 83 106 133c0 32 -18 57 -56 57c-43 0 -80 -32 -80 -91z" />
    <glyph glyph-name="quotesingle" unicode="'" horiz-adv-x="240" 
d="M158 483l40 217h63l-40 -217h-63z" />
    <glyph glyph-name="parenleft" unicode="(" horiz-adv-x="284" 
d="M221 -170l-46 -35c-87 98 -123 246 -123 362c0 169 71 382 295 562l36 -41c-197 -164 -266 -350 -266 -505c0 -130 36 -256 104 -343z" />
    <glyph glyph-name="parenright" unicode=")" horiz-adv-x="283" 
d="M-7 -205l-37 39c172 143 266 339 266 517c0 112 -28 238 -105 333l45 35c91 -104 123 -249 123 -364c0 -167 -75 -391 -292 -560z" />
    <glyph glyph-name="asterisk" unicode="*" horiz-adv-x="501" 
d="M329 700l-6 -145l135 50l21 -65l-139 -39l90 -114l-57 -42l-80 120l-81 -121l-57 42l91 116l-139 39l21 65l137 -50l-6 144h70z" />
    <glyph glyph-name="plus" unicode="+" horiz-adv-x="591" 
d="M112 331v58h194v196h61v-196h197v-58h-197v-198h-61v198h-194z" />
    <glyph glyph-name="comma" unicode="," horiz-adv-x="188" 
d="M89 7c-33 -11 -52 9 -52 34c0 41 30 60 57 60c31 0 47 -22 47 -63c0 -101 -65 -166 -133 -184l-10 36c40 12 90 56 91 117z" />
    <glyph glyph-name="hyphen" unicode="-" horiz-adv-x="404" 
d="M124 243v61h240v-61h-240z" />
    <glyph glyph-name="period" unicode="." horiz-adv-x="211" 
d="M94 52c0 24 22 49 55 49c29 0 52 -25 52 -49c0 -29 -23 -54 -52 -54c-33 0 -55 25 -55 54z" />
    <glyph glyph-name="slash" unicode="/" horiz-adv-x="326" 
d="M10 -186l334 897l55 -19l-333 -899z" />
    <glyph glyph-name="zero" unicode="0" horiz-adv-x="647" 
d="M80 266c0 253 138 442 349 442c153 0 228 -114 228 -273c0 -264 -141 -443 -348 -443c-155 0 -229 115 -229 274zM146 274c0 -139 60 -218 169 -218c180 0 276 167 276 372c0 132 -58 216 -169 216c-175 0 -276 -162 -276 -370z" />
    <glyph glyph-name="one" unicode="1" horiz-adv-x="375" 
d="M92 589l253 116h42l-131 -705h-62l114 620l-203 -92z" />
    <glyph glyph-name="two" unicode="2" horiz-adv-x="560" 
d="M168 523l-51 26c48 93 140 159 263 159c136 0 201 -84 201 -182c0 -153 -120 -263 -318 -387l-119 -76h371l-12 -63h-495l10 53l189 124c200 132 304 213 304 339c0 77 -47 126 -141 126s-160 -53 -202 -119z" />
    <glyph glyph-name="three" unicode="3" horiz-adv-x="574" 
d="M172 528l-49 31c52 90 159 150 277 150c122 0 197 -60 197 -161c0 -78 -51 -146 -143 -179c56 -13 108 -56 108 -144c0 -148 -128 -234 -287 -234c-126 0 -219 67 -242 168l58 24c31 -83 95 -125 191 -125c119 0 210 57 210 161c0 81 -67 107 -161 107h-90l12 65h73
c96 0 201 54 201 145c0 73 -55 107 -132 107c-96 0 -174 -45 -223 -115z" />
    <glyph glyph-name="four" unicode="4" horiz-adv-x="624" 
d="M406 0l27 150h-411l8 45l509 505h59l-90 -486h121l-12 -64h-120l-28 -150h-63zM133 214h312l68 372z" />
    <glyph glyph-name="five" unicode="5" horiz-adv-x="567" 
d="M107 344l105 356h423l-11 -65h-369l-67 -223c38 17 84 32 157 32c139 0 213 -77 213 -192c0 -159 -133 -261 -290 -261c-115 0 -207 50 -234 149l59 28c16 -60 84 -111 180 -111c126 0 215 81 215 187c0 86 -62 139 -158 139c-72 0 -126 -21 -173 -47z" />
    <glyph glyph-name="six" unicode="6" horiz-adv-x="629" 
d="M79 248c0 290 161 456 376 461c91 2 155 -31 188 -75l-44 -47c-37 40 -90 56 -154 56c-125 0 -265 -88 -291 -302c56 81 160 123 252 123c136 0 214 -67 214 -191c0 -159 -121 -282 -308 -282c-150 0 -233 92 -233 257zM152 258c-12 -102 28 -201 171 -201
c137 0 227 86 227 209c0 101 -67 136 -154 136c-115 0 -203 -70 -244 -144z" />
    <glyph glyph-name="seven" unicode="7" horiz-adv-x="528" 
d="M118 635l12 65h486l-9 -45l-446 -655h-77l434 635h-400z" />
    <glyph glyph-name="eight" unicode="8" horiz-adv-x="634" 
d="M355 392h30c93 0 184 52 184 144c0 75 -64 108 -155 108c-107 0 -197 -46 -197 -142c0 -72 57 -110 138 -110zM370 328h-24c-113 0 -213 -54 -213 -154c0 -78 69 -119 173 -119c135 0 223 52 223 158c0 80 -62 115 -159 115zM295 -9c-136 0 -232 62 -232 175
c0 98 67 169 173 199c-58 19 -89 72 -89 128c0 137 111 216 279 216c140 0 213 -67 213 -164c0 -89 -60 -154 -151 -184c76 -15 111 -74 111 -138c0 -146 -121 -232 -304 -232z" />
    <glyph glyph-name="nine" unicode="9" horiz-adv-x="591" 
d="M624 456c0 -262 -130 -465 -347 -465c-110 0 -169 39 -199 82l45 45c30 -33 70 -61 158 -61c154 0 248 142 271 297c-55 -79 -164 -118 -246 -118c-116 0 -211 66 -211 200c0 174 149 273 307 273c144 0 222 -91 222 -253zM555 439c16 98 -33 204 -163 204
c-129 0 -228 -80 -228 -201c0 -97 65 -144 159 -144c102 0 199 82 232 141z" />
    <glyph glyph-name="colon" unicode=":" horiz-adv-x="300" 
d="M86 45c0 31 25 58 61 58c25 0 42 -21 42 -44c0 -31 -27 -59 -61 -59c-26 0 -42 21 -42 45zM163 462c0 31 25 58 61 58c25 0 42 -21 42 -44c0 -31 -27 -59 -61 -59c-26 0 -42 21 -42 45z" />
    <glyph glyph-name="semicolon" unicode=";" horiz-adv-x="303" 
d="M163 462c0 31 25 58 61 58c25 0 42 -21 42 -44c0 -31 -27 -59 -61 -59c-26 0 -42 21 -42 45zM143 7c-33 -11 -52 9 -52 34c0 41 30 60 57 60c31 0 47 -22 47 -63c0 -101 -65 -166 -133 -184l-10 36c40 12 90 56 91 117z" />
    <glyph glyph-name="less" unicode="&#x3c;" horiz-adv-x="580" 
d="M524 81l-426 267v27l426 266v-72l-335 -207l335 -210v-71z" />
    <glyph glyph-name="equal" unicode="=" horiz-adv-x="586" 
d="M112 418v58h447v-58h-447zM112 243v58h447v-58h-447z" />
    <glyph glyph-name="greater" unicode="&#x3e;" horiz-adv-x="580" 
d="M566 348l-426 -267v71l336 210l-336 207v72l426 -266v-27z" />
    <glyph glyph-name="question" unicode="?" horiz-adv-x="546" 
d="M521 544c0 58 -41 99 -141 99c-113 0 -171 -58 -211 -112l-50 30c53 85 138 148 273 148c141 0 199 -71 199 -156c0 -217 -297 -207 -297 -349v-14h-62v15c0 180 289 168 289 339zM182 42c0 31 25 58 61 58c25 0 42 -21 42 -44c0 -31 -27 -59 -61 -59
c-26 0 -42 21 -42 45z" />
    <glyph glyph-name="at" unicode="@" horiz-adv-x="1004" 
d="M680 0v46c-32 -34 -87 -55 -145 -55c-135 0 -225 93 -225 236c0 133 108 237 253 237c67 0 134 -19 183 -52v-351c114 3 171 91 171 209c0 194 -151 331 -364 331c-218 0 -382 -158 -382 -373c0 -211 161 -373 382 -373c40 0 78 4 114 13l6 -60c-37 -9 -79 -15 -120 -15
c-262 0 -444 191 -444 435s185 434 444 434c248 0 426 -159 426 -390c0 -134 -76 -272 -240 -272h-59zM545 51c55 0 111 36 135 68v254c-38 21 -80 31 -118 31c-105 0 -183 -79 -183 -180c0 -106 67 -173 166 -173z" />
    <glyph glyph-name="A" unicode="A" horiz-adv-x="644" 
d="M-17 0l421 702h55l162 -702h-70l-46 192h-332l-113 -192h-77zM414 600l-203 -344h282z" />
    <glyph glyph-name="B" unicode="B" horiz-adv-x="637" 
d="M53 0l128 700h261c153 0 208 -58 208 -149c0 -86 -53 -157 -137 -187c63 -14 101 -63 101 -135c0 -156 -124 -229 -304 -229h-257zM382 325h-202l-47 -259h193c155 0 218 61 218 157c0 67 -51 102 -162 102zM428 634h-191l-44 -244h204c105 0 183 55 183 149
c0 67 -50 95 -152 95z" />
    <glyph glyph-name="C" unicode="C" horiz-adv-x="669" 
d="M612 155l37 -47c-60 -70 -168 -117 -279 -117c-178 0 -298 114 -298 297c0 247 173 421 406 421c122 0 198 -57 235 -111l-47 -42c-47 48 -98 87 -193 87c-199 0 -331 -149 -331 -349c0 -136 88 -237 231 -237c112 0 184 45 239 98z" />
    <glyph glyph-name="D" unicode="D" horiz-adv-x="674" 
d="M53 0l129 700h204c224 0 306 -121 306 -273c0 -239 -143 -427 -444 -427h-195zM371 634h-134l-104 -568h131c250 0 358 163 358 351c0 129 -64 217 -251 217z" />
    <glyph glyph-name="E" unicode="E" horiz-adv-x="606" 
d="M53 0l128 700h475l-12 -66h-407l-44 -245h380l-13 -66h-380l-47 -257h416l-12 -66h-484z" />
    <glyph glyph-name="F" unicode="F" horiz-adv-x="578" 
d="M53 0l128 700h471l-13 -66h-402l-49 -268h374l-12 -66h-374l-55 -300h-68z" />
    <glyph glyph-name="G" unicode="G" horiz-adv-x="672" 
d="M415 281l12 66h253l-47 -257c-69 -63 -162 -99 -273 -99c-173 0 -287 115 -287 293c0 252 173 425 406 425c110 0 183 -35 231 -101l-45 -45c-44 48 -98 80 -191 80c-216 0 -331 -170 -331 -348c0 -145 92 -238 231 -238c65 0 139 19 201 66l29 158h-189z" />
    <glyph glyph-name="H" unicode="H" horiz-adv-x="709" 
d="M548 0l60 323h-428l-59 -323h-68l128 700h69l-57 -311h427l57 311h69l-130 -700h-68z" />
    <glyph glyph-name="I" unicode="I" horiz-adv-x="233" 
d="M63 0l127 700h69l-129 -700h-67z" />
    <glyph glyph-name="J" unicode="J" horiz-adv-x="461" 
d="M499 700l-92 -492c-24 -136 -100 -217 -236 -217c-104 0 -155 68 -171 125l55 37c20 -59 61 -97 124 -97c82 2 140 43 163 164l88 480h69z" />
    <glyph glyph-name="K" unicode="K" horiz-adv-x="617" 
d="M53 0l129 700h68l-67 -358l417 358h100l-380 -324l267 -376h-85l-237 330l-98 -79l-46 -251h-68z" />
    <glyph glyph-name="L" unicode="L" horiz-adv-x="555" 
d="M53 0l128 700h69l-117 -634h405l-13 -66h-472z" />
    <glyph glyph-name="M" unicode="M" horiz-adv-x="791" 
d="M53 0l128 700h59l194 -365l320 365h73l-130 -700h-67l107 581l-309 -351h-15l-185 351l-107 -581h-68z" />
    <glyph glyph-name="N" unicode="N" horiz-adv-x="699" 
d="M605 0h-53l-328 577l-106 -577h-65l129 700h54l326 -579l107 579h65z" />
    <glyph glyph-name="O" unicode="O" horiz-adv-x="744" 
d="M74 288c0 244 176 421 401 421c174 0 285 -126 285 -297c0 -259 -188 -421 -401 -421c-172 0 -285 123 -285 297zM144 296c0 -143 90 -239 219 -239c182 0 327 141 327 344c0 124 -71 242 -219 242c-200 0 -327 -160 -327 -347z" />
    <glyph glyph-name="P" unicode="P" horiz-adv-x="618" 
d="M121 0h-68l128 700h241c148 0 235 -59 235 -178c0 -156 -118 -252 -316 -252h-171zM414 635h-177l-55 -300h169c165 0 235 77 235 179c0 71 -47 121 -172 121z" />
    <glyph glyph-name="Q" unicode="Q" horiz-adv-x="744" 
d="M73 287c0 244 177 422 402 422c172 0 285 -123 285 -297c0 -127 -52 -252 -163 -338l49 -80l-52 -40l-52 85c-57 -31 -112 -48 -183 -48c-172 0 -286 123 -286 296zM143 297c0 -145 92 -240 220 -240c47 0 98 12 146 37l-44 75l50 41l48 -82c84 67 127 165 127 273
c0 141 -88 242 -222 242c-198 0 -325 -163 -325 -346z" />
    <glyph glyph-name="R" unicode="R" horiz-adv-x="641" 
d="M121 0h-68l129 700h251c148 0 220 -63 220 -173c0 -125 -94 -211 -216 -230l163 -297h-77l-155 286h-194zM418 634h-181l-52 -282h186c123 0 211 68 211 170c0 65 -43 112 -164 112z" />
    <glyph glyph-name="S" unicode="S" horiz-adv-x="583" 
d="M487 196c0 165 -364 84 -364 302c0 134 125 211 279 211c100 0 182 -35 218 -99l-47 -41c-41 46 -94 74 -184 74c-73 0 -196 -34 -196 -139c0 -154 364 -79 364 -298c0 -128 -118 -215 -266 -215c-116 0 -207 48 -250 134l49 45c45 -73 105 -113 210 -113
c108 0 187 62 187 139z" />
    <glyph glyph-name="T" unicode="T" horiz-adv-x="548" 
d="M100 634l12 66h542l-12 -66h-237l-117 -634h-68l117 634h-237z" />
    <glyph glyph-name="U" unicode="U" horiz-adv-x="683" 
d="M728 700l-75 -406c-31 -165 -131 -302 -316 -302c-131 0 -244 77 -243 236c0 23 2 47 7 73l74 399h66l-71 -388c-4 -23 -6 -54 -6 -71c0 -130 77 -183 178 -183c133 0 217 96 246 249l72 393h68z" />
    <glyph glyph-name="V" unicode="V" horiz-adv-x="674" 
d="M785 700l-432 -700h-54l-192 700h68l165 -603l366 603h79z" />
    <glyph glyph-name="W" unicode="W" horiz-adv-x="914" 
d="M1020 700l-327 -700h-59l-85 577l-298 -577h-61l-78 700h68l63 -578l298 578h56l86 -578l264 578h73z" />
    <glyph glyph-name="X" unicode="X" horiz-adv-x="613" 
d="M697 700l-307 -346l187 -354h-77l-155 298l-262 -298h-87l317 359l-175 341h74l147 -285l251 285h87z" />
    <glyph glyph-name="Y" unicode="Y" horiz-adv-x="596" 
d="M707 700l-340 -394l-56 -306h-68l56 306l-192 394h75l159 -325l281 325h85z" />
    <glyph glyph-name="Z" unicode="Z" horiz-adv-x="598" 
d="M128 634l13 66h537l-8 -48l-558 -586h459l-12 -66h-566l9 48l558 586h-432z" />
    <glyph glyph-name="bracketleft" unicode="[" horiz-adv-x="293" 
d="M21 -196l167 906h229l-11 -63h-165l-144 -780h164l-11 -63h-229z" />
    <glyph glyph-name="backslash" unicode="\" horiz-adv-x="326" 
d="M85 711l334 -897l-55 -21l-334 899z" />
    <glyph glyph-name="bracketright" unicode="]" horiz-adv-x="293" 
d="M367 710l-168 -906h-228l11 63h164l145 780h-165l12 63h229z" />
    <glyph glyph-name="asciicircum" unicode="^" horiz-adv-x="488" 
d="M104 440l182 268h42l180 -268h-74l-127 194l-129 -194h-74z" />
    <glyph glyph-name="underscore" unicode="_" horiz-adv-x="297" 
d="M62 -196v63h297v-63h-297z" />
    <glyph glyph-name="grave" unicode="`" horiz-adv-x="353" 
d="M430 615l-88 145l55 39l76 -154z" />
    <glyph glyph-name="a" unicode="a" 
d="M418 0l17 86c-23 -34 -93 -94 -183 -94c-130 0 -202 87 -202 207c0 207 172 334 314 334c72 0 119 -23 147 -50l9 37h58l-100 -520h-60zM263 50c94 0 163 77 185 122l50 243c-23 32 -64 60 -134 60c-124 0 -248 -110 -248 -270c0 -102 55 -155 147 -155z" />
    <glyph glyph-name="b" unicode="b" horiz-adv-x="565" 
d="M47 85l123 645h63l-57 -284c58 61 123 87 195 87c116 0 186 -70 186 -192c0 -221 -136 -351 -305 -351c-95 0 -171 44 -205 95zM357 475c-85 0 -155 -57 -197 -118l-44 -243c24 -43 91 -66 148 -66c129 0 227 117 227 275c0 99 -45 152 -134 152z" />
    <glyph glyph-name="c" unicode="c" horiz-adv-x="513" 
d="M453 130l32 -37c-49 -72 -144 -103 -218 -103c-128 0 -217 85 -217 217c0 183 132 326 312 326c81 0 152 -41 175 -100l-49 -31c-31 50 -72 73 -136 73c-139 0 -236 -118 -236 -262c0 -100 59 -165 165 -165c65 0 131 33 172 82z" />
    <glyph glyph-name="d" unicode="d" horiz-adv-x="575" 
d="M418 0l17 86c-23 -34 -95 -94 -181 -94c-133 0 -204 87 -204 207c0 207 169 334 308 334c72 0 125 -23 153 -50l48 247h61l-142 -730h-60zM263 50c94 0 155 74 185 122l50 243c-23 32 -70 60 -140 60c-126 0 -242 -110 -242 -270c0 -102 62 -155 147 -155z" />
    <glyph glyph-name="e" unicode="e" horiz-adv-x="528" 
d="M447 129l37 -40c-49 -68 -143 -99 -217 -99c-128 0 -217 85 -217 217c0 183 148 326 312 326c105 0 166 -45 166 -128c0 -98 -101 -173 -279 -173c-40 0 -84 5 -131 13c-1 -11 -2 -21 -2 -32c0 -100 56 -165 165 -165c65 0 125 33 166 81zM352 475
c-98 0 -188 -74 -222 -175c42 -8 82 -13 130 -13c134 1 202 58 202 112c0 41 -24 76 -110 76z" />
    <glyph glyph-name="f" unicode="f" horiz-adv-x="297" 
d="M50 462l9 58h98l6 28c27 146 107 190 188 190c54 0 96 -26 111 -61l-43 -39c-12 24 -35 42 -69 42c-61 0 -108 -36 -127 -141l-3 -19h162l-10 -58h-161l-79 -462h-63l79 462h-98z" />
    <glyph glyph-name="g" unicode="g" horiz-adv-x="580" 
d="M583 520l-95 -482c-32 -176 -128 -247 -262 -247c-91 0 -173 54 -190 123l56 25c21 -50 67 -90 143 -90c104 0 167 60 193 199l5 26c-32 -41 -86 -84 -177 -84c-134 0 -204 92 -204 204c0 223 166 338 311 338c78 0 119 -27 149 -60l9 48h62zM270 48c86 0 152 62 181 119
l46 235c-18 36 -64 72 -138 72c-114 0 -241 -101 -241 -269c0 -91 54 -157 152 -157z" />
    <glyph glyph-name="h" unicode="h" horiz-adv-x="579" 
d="M42 0l141 730h62l-52 -285c49 50 120 87 203 87c100 0 159 -61 159 -158c0 -27 -6 -68 -11 -97l-58 -277h-61l55 269c4 22 11 50 11 95c-1 71 -40 110 -107 110c-90 0 -172 -59 -210 -127l-70 -347h-62z" />
    <glyph glyph-name="i" unicode="i" horiz-adv-x="215" 
d="M48 0l96 520h63l-96 -520h-63zM163 684c0 23 17 42 41 42s43 -19 43 -42c0 -24 -19 -41 -43 -41s-41 17 -41 41z" />
    <glyph glyph-name="j" unicode="j" horiz-adv-x="217" 
d="M210 520l-97 -525c-24 -128 -83 -204 -184 -204c-57 0 -96 31 -109 74l50 30c12 -19 24 -46 69 -46c57 0 96 57 113 149l95 522h63zM164 684c0 23 18 42 42 42c23 0 43 -19 43 -42c0 -24 -20 -41 -43 -41c-24 0 -42 17 -42 41z" />
    <glyph glyph-name="k" unicode="k" horiz-adv-x="497" 
d="M42 0l135 730h62l-85 -459l313 249h90l-292 -236l209 -284h-79l-185 250l-69 -51l-37 -199h-62z" />
    <glyph glyph-name="l" unicode="l" horiz-adv-x="209" 
d="M48 0l139 730h62l-139 -730h-62z" />
    <glyph glyph-name="m" unicode="m" horiz-adv-x="862" 
d="M836 344l-70 -344h-63l67 324c3 20 5 40 5 66c0 44 -30 84 -90 84c-87 0 -137 -51 -175 -110l-73 -364h-62l71 351c13 70 -17 123 -86 123c-90 0 -154 -74 -181 -121l-69 -353h-62l100 520h62l-15 -77c39 47 101 89 174 89c72 0 125 -33 138 -90c49 57 110 90 184 90
c81 0 149 -36 151 -131c0 -17 -2 -36 -6 -57z" />
    <glyph glyph-name="n" unicode="n" horiz-adv-x="583" 
d="M48 0l100 520h62l-13 -75c49 50 120 87 203 87c100 0 159 -61 159 -158c0 -27 -6 -68 -11 -97l-59 -277h-61l56 269c4 22 11 50 11 95c-1 71 -40 110 -107 110c-90 0 -172 -59 -210 -127l-68 -347h-62z" />
    <glyph glyph-name="o" unicode="o" horiz-adv-x="590" 
d="M50 198c0 205 157 335 314 335c134 0 220 -93 220 -212c0 -203 -147 -331 -302 -331c-138 0 -232 87 -232 208zM116 216c0 -102 61 -168 169 -168c124 0 232 105 232 260c0 108 -69 167 -157 167c-133 0 -244 -110 -244 -259z" />
    <glyph glyph-name="p" unicode="p" horiz-adv-x="573" 
d="M0 -200l133 720h62l-13 -77c51 66 125 90 191 90c146 0 192 -98 192 -193c0 -216 -154 -350 -304 -350c-65 0 -127 26 -151 69l-48 -259h-62zM357 475c-88 0 -160 -64 -193 -124l-40 -215c29 -67 84 -88 147 -88c113 0 228 116 228 271c0 81 -34 156 -142 156z" />
    <glyph glyph-name="q" unicode="q" horiz-adv-x="577" 
d="M376 -200l54 266c-33 -40 -96 -76 -174 -76c-140 0 -206 87 -206 204c0 214 170 338 314 338c78 0 129 -24 146 -53l8 41h62l-142 -720h-62zM271 48c77 0 140 47 175 105l50 252c-23 52 -75 69 -140 69c-116 0 -240 -114 -240 -270c0 -96 46 -156 155 -156z" />
    <glyph glyph-name="r" unicode="r" horiz-adv-x="345" 
d="M48 0l99 520h62l-10 -55c26 44 81 67 122 67c45 0 75 -19 92 -48l-50 -39c-10 17 -25 29 -60 29c-49 0 -100 -48 -122 -106l-71 -368h-62z" />
    <glyph glyph-name="s" unicode="s" horiz-adv-x="450" 
d="M353 138c0 129 -248 83 -248 247c0 99 88 148 186 148c100 0 157 -38 192 -85l-46 -42c-25 33 -76 69 -140 69c-58 0 -126 -28 -126 -86c0 -113 249 -68 249 -248c0 -105 -106 -151 -190 -151c-111 0 -185 51 -223 124l51 36c34 -64 92 -102 177 -102c52 0 118 31 118 90
z" />
    <glyph glyph-name="t" unicode="t" horiz-adv-x="363" 
d="M52 462l10 58h99l22 117h61l-20 -117h175l-10 -58h-176l-52 -253c-6 -29 -11 -70 -11 -96c0 -45 30 -62 69 -62c49 0 81 28 100 48l31 -41c-30 -36 -86 -65 -143 -65c-78 0 -122 42 -123 106c0 22 6 65 12 95l55 268h-99z" />
    <glyph glyph-name="u" unicode="u" horiz-adv-x="574" 
d="M571 520l-100 -520h-61l15 87c-47 -59 -115 -97 -202 -97c-97 0 -159 49 -159 142c0 26 4 58 10 88l60 300h63l-57 -287c-5 -22 -11 -54 -10 -95c1 -47 26 -90 113 -90c81 0 153 51 198 120l69 352h61z" />
    <glyph glyph-name="v" unicode="v" horiz-adv-x="482" 
d="M559 520l-318 -520h-45l-136 520h66l108 -422l253 422h72z" />
    <glyph glyph-name="w" unicode="w" horiz-adv-x="727" 
d="M799 520l-257 -520h-50l-75 424l-231 -424h-49l-71 520h62l55 -413l223 413h55l72 -416l202 416h64z" />
    <glyph glyph-name="x" unicode="x" horiz-adv-x="496" 
d="M550 520l-237 -254l152 -266h-73l-126 225l-206 -225h-77l247 269l-142 251h72l118 -210l192 210h80z" />
    <glyph glyph-name="y" unicode="y" horiz-adv-x="507" 
d="M-1 -195l34 57c8 -6 18 -10 29 -10c38 0 73 34 131 131l19 34l-157 503h68l134 -428l242 428h70l-296 -518c-100 -175 -152 -212 -220 -212c-21 0 -39 5 -54 15z" />
    <glyph glyph-name="z" unicode="z" horiz-adv-x="466" 
d="M95 462l11 58h410v-35l-421 -427h333l-12 -58h-420v38l419 424h-320z" />
    <glyph glyph-name="braceleft" unicode="{" horiz-adv-x="304" 
d="M88 -65l37 198c11 56 -10 95 -66 95l10 58c39 0 88 19 103 102l34 186c16 87 59 136 150 136h61l-11 -60h-49c-53 0 -81 -36 -91 -94l-35 -191c-12 -60 -44 -102 -87 -111c37 -7 59 -40 46 -112l-35 -186c-13 -71 6 -92 62 -92h43l-10 -60h-64c-79 0 -115 39 -98 131z
" />
    <glyph glyph-name="bar" unicode="|" horiz-adv-x="320" 
d="M188 0v700h67v-700h-67z" />
    <glyph glyph-name="braceright" unicode="}" horiz-adv-x="304" 
d="M227 133l-37 -198c-17 -92 -66 -131 -144 -131h-65l11 60h45c54 0 82 21 95 92l34 194c14 72 49 105 89 112c-40 9 -58 51 -47 111l34 183c11 58 -3 94 -56 94h-49l11 60h62c91 0 115 -49 99 -136l-34 -186c-16 -83 26 -102 64 -102l-11 -58c-56 0 -91 -39 -101 -95z" />
    <glyph glyph-name="asciitilde" unicode="~" horiz-adv-x="583" 
d="M145 313l-33 43c43 43 98 78 163 66c70 -14 126 -69 196 -69c32 0 67 18 96 50l29 -46c-39 -39 -84 -61 -124 -61c-85 0 -144 71 -224 71c-36 0 -72 -21 -103 -54z" />
    <glyph glyph-name="uni00A0" unicode="&#xa0;" horiz-adv-x="300" 
 />
    <glyph glyph-name="exclamdown" unicode="&#xa1;" horiz-adv-x="294" 
d="M283 326l-94 -508h-65l94 508h65zM329 476c0 -31 -25 -58 -61 -58c-25 0 -42 21 -42 44c0 31 27 59 61 59c26 0 42 -21 42 -45z" />
    <glyph glyph-name="cent" unicode="&#xa2;" horiz-adv-x="502" 
d="M459 131l33 -35c-45 -66 -131 -100 -202 -105l-35 -191h-64l36 194c-109 22 -173 98 -173 219c0 158 114 298 272 317l31 170h64l-32 -168c72 -6 132 -44 153 -99l-50 -31c-24 44 -64 70 -118 73l-77 -427c59 2 122 36 162 83zM122 221c0 -97 44 -153 119 -169l75 420
c-108 -17 -194 -126 -194 -251z" />
    <glyph glyph-name="sterling" unicode="&#xa3;" horiz-adv-x="560" 
d="M104 278l10 55h69c-6 39 -21 78 -21 136c0 137 98 239 249 239c71 0 132 -29 164 -77l-43 -49c-34 42 -73 61 -124 61c-96 0 -175 -57 -175 -167c0 -48 15 -94 21 -143h163l-10 -55h-150v-13c0 -47 -22 -107 -63 -157c68 0 118 -49 182 -49c51 0 76 17 113 49l28 -48
c-48 -43 -98 -63 -146 -63c-75 0 -129 50 -206 50c-37 0 -78 -17 -121 -55l-22 49c30 28 63 47 92 57c43 47 74 102 74 166v14h-84z" />
    <glyph glyph-name="currency" unicode="&#xa4;" horiz-adv-x="599" 
d="M114 347c0 51 16 101 45 141l-89 90l42 42l90 -89c36 28 84 46 140 46s103 -18 140 -46l95 93l42 -41l-95 -96c30 -39 46 -89 46 -140s-16 -101 -45 -140l90 -91l-41 -42l-91 91c-36 -29 -84 -48 -141 -48s-105 18 -142 48l-95 -96l-41 42l95 96c-29 39 -45 89 -45 140z
M177 347c0 -91 63 -170 165 -170c103 0 164 79 164 170c0 94 -62 171 -164 171c-101 0 -165 -78 -165 -171z" />
    <glyph glyph-name="yen" unicode="&#xa5;" horiz-adv-x="596" 
d="M122 304l10 58h140l-165 338h75l159 -325l281 325h85l-293 -338h142l-11 -58h-179l-22 -117h179l-10 -58h-180l-23 -129h-67l24 129h-178l11 58h177l22 117h-177z" />
    <glyph glyph-name="brokenbar" unicode="&#xa6;" horiz-adv-x="320" 
d="M255 431h-67v269h67v-269zM188 269h67v-269h-67v269z" />
    <glyph glyph-name="section" unicode="&#xa7;" horiz-adv-x="494" 
d="M84 225c0 97 65 174 153 202c-21 18 -51 49 -51 106c0 100 77 167 182 167c69 0 106 -37 122 -67l-48 -39c-22 27 -41 43 -85 43c-58 0 -106 -39 -106 -96c0 -58 34 -87 71 -105c92 -9 141 -73 141 -159c0 -99 -66 -173 -156 -200c30 -20 52 -60 52 -105
c0 -102 -77 -168 -177 -168c-57 0 -99 25 -122 68l46 44c19 -31 41 -49 83 -49c59 0 106 41 106 98c0 54 -35 85 -72 102c-90 12 -139 68 -139 158zM148 231c0 -71 42 -107 102 -107c88 0 148 66 148 148c0 63 -37 107 -101 107c-85 0 -149 -66 -149 -148z" />
    <glyph glyph-name="dieresis" unicode="&#xa8;" horiz-adv-x="441" 
d="M421 684c0 23 18 42 42 42s43 -19 43 -42c0 -24 -19 -41 -43 -41s-42 17 -42 41zM194 684c0 23 18 42 42 42c23 0 42 -19 42 -42c0 -24 -19 -41 -42 -41c-24 0 -42 17 -42 41z" />
    <glyph glyph-name="copyright" unicode="&#xa9;" horiz-adv-x="1005" 
d="M113 224c0 239 185 430 431 430c247 0 432 -188 432 -430c0 -241 -185 -431 -432 -431c-246 0 -431 187 -431 431zM173 224c0 -206 158 -373 371 -373c215 0 372 166 372 373c0 208 -156 372 -372 372c-213 0 -371 -167 -371 -372zM696 114l34 -44
c-38 -51 -108 -79 -175 -79c-142 0 -242 93 -242 237c0 132 98 236 229 236c70 0 134 -18 179 -63l-36 -47c-35 32 -83 50 -131 50c-17 0 -35 -2 -52 -7c-75 -23 -119 -92 -119 -169c0 -17 2 -35 7 -53c19 -78 87 -124 169 -124c53 0 103 23 137 63z" />
    <glyph glyph-name="ordfeminine" unicode="&#xaa;" horiz-adv-x="419" 
d="M191 537l-15 47c43 29 97 43 147 43c97 0 138 -51 123 -129l-37 -198h-55l9 48c-27 -29 -66 -54 -135 -54c-68 0 -111 35 -111 90c0 73 63 110 177 110c42 0 77 -7 95 -12c11 67 -10 91 -83 91c-39 0 -80 -15 -115 -36zM246 348c66 0 112 39 129 65l5 23
c-17 4 -52 12 -96 12c-61 0 -107 -20 -107 -56c0 -30 26 -44 69 -44z" />
    <glyph glyph-name="guillemotleft" unicode="&#xab;" horiz-adv-x="490" 
d="M205 38l-133 212l1 5l212 209l34 -39l-174 -176l110 -170zM377 38l-132 212l1 5l212 209l34 -39l-174 -176l109 -170z" />
    <glyph glyph-name="logicalnot" unicode="&#xac;" horiz-adv-x="577" 
d="M100 331v58h461v-186h-56v128h-405z" />
    <glyph glyph-name="uni00AD" unicode="&#xad;" horiz-adv-x="404" 
d="M82 243v61h240v-61h-240z" />
    <glyph glyph-name="registered" unicode="&#xae;" horiz-adv-x="578" 
d="M112 494c0 130 107 236 240 236c131 0 238 -106 238 -236c0 -133 -107 -239 -238 -239c-133 0 -240 106 -240 239zM154 493c0 -109 88 -196 197 -196s197 90 197 196c0 108 -90 196 -197 196c-109 0 -197 -89 -197 -196zM303 355h-47v283h89c84 0 109 -40 109 -86
c0 -39 -26 -69 -62 -81l82 -116h-56l-72 104h-43v-104zM403 547c0 41 -22 52 -60 52h-40v-100h44c25 0 56 16 56 48z" />
    <glyph glyph-name="macron" unicode="&#xaf;" horiz-adv-x="424" 
d="M295 647l11 59h248l-11 -59h-248z" />
    <glyph glyph-name="degree" unicode="&#xb0;" horiz-adv-x="400" 
d="M92 564c0 85 67 150 150 150s150 -63 150 -148c0 -82 -67 -149 -150 -149s-150 65 -150 147zM152 565c0 -49 41 -89 90 -89s90 40 90 89c0 50 -41 89 -90 89s-90 -39 -90 -89z" />
    <glyph glyph-name="plusminus" unicode="&#xb1;" horiz-adv-x="579" 
d="M109 407v58h192v196h59v-196h195v-58h-195v-132h-59v132h-192zM109 165v58h446v-58h-446z" />
    <glyph glyph-name="twosuperior" unicode="&#xb2;" horiz-adv-x="394" 
d="M194 596l-40 25c35 66 99 104 169 104c83 0 129 -42 129 -108c0 -89 -91 -163 -179 -217l-70 -45h221l-11 -55h-319l9 50l112 69c94 58 176 119 176 191c0 40 -27 61 -72 61c-55 0 -94 -29 -125 -75z" />
    <glyph glyph-name="threesuperior" unicode="&#xb3;" horiz-adv-x="403" 
d="M203 612l-38 30c35 51 94 83 171 83c84 0 128 -36 128 -100c0 -51 -33 -85 -85 -103c44 -12 61 -46 61 -86c0 -95 -89 -141 -184 -141c-69 0 -129 36 -146 96l47 29c17 -48 58 -71 109 -71c67 0 115 30 115 83c0 45 -41 56 -87 56h-56l11 52h44c64 0 112 31 112 76
c0 38 -27 55 -74 55c-56 0 -92 -18 -128 -59z" />
    <glyph glyph-name="acute" unicode="&#xb4;" horiz-adv-x="415" 
d="M541 762l-140 -148l-34 30l133 155z" />
    <glyph glyph-name="mu" unicode="&#xb5;" horiz-adv-x="562" 
d="M576 520l-96 -520h-63l12 70c-46 -47 -119 -80 -183 -80c-62 0 -106 22 -132 57l-46 -247h-62l133 720h62l-53 -287c-22 -120 10 -181 115 -181c68 0 142 45 180 88l70 380h63z" />
    <glyph glyph-name="mu" unicode="&#x3bc;" horiz-adv-x="562" 
d="M576 520l-96 -520h-63l12 70c-46 -47 -119 -80 -183 -80c-62 0 -106 22 -132 57l-46 -247h-62l133 720h62l-53 -287c-22 -120 10 -181 115 -181c68 0 142 45 180 88l70 380h63z" />
    <glyph glyph-name="paragraph" unicode="&#xb6;" horiz-adv-x="438" 
d="M89 478c0 138 82 222 211 222h147v-60h-92v-611c0 -106 -4 -233 -150 -233c-43 0 -84 17 -108 40l28 49c19 -14 46 -26 76 -26c72 0 88 55 88 168v231c-112 4 -200 85 -200 220z" />
    <glyph glyph-name="periodcentered" unicode="&#xb7;" horiz-adv-x="236" 
d="M112 297c0 20 19 42 46 42c25 0 44 -22 44 -42c0 -23 -19 -44 -44 -44c-27 0 -46 21 -46 44z" />
    <glyph glyph-name="cedilla" unicode="&#xb8;" horiz-adv-x="397" 
d="M162 -172l27 42c21 -13 45 -21 67 -21c44 0 59 13 59 39c0 20 -18 27 -49 27h-21l16 85h43l-8 -41c56 -2 80 -29 80 -69c0 -59 -51 -92 -123 -92c-38 0 -70 12 -91 30z" />
    <glyph glyph-name="onesuperior" unicode="&#xb9;" horiz-adv-x="278" 
d="M130 653l168 70h42l-79 -423h-57l67 355l-131 -54z" />
    <glyph glyph-name="ordmasculine" unicode="&#xba;" horiz-adv-x="438" 
d="M136 432c0 104 70 195 193 195c89 0 144 -51 144 -138c0 -129 -95 -195 -193 -195c-93 0 -144 57 -144 138zM195 442c0 -61 40 -92 90 -92c64 0 129 38 129 128c0 63 -38 93 -90 93c-85 0 -129 -56 -129 -129z" />
    <glyph glyph-name="guillemotright" unicode="&#xbb;" horiz-adv-x="490" 
d="M459 250l-210 -212l-35 41l171 177l-109 169l50 39l134 -209zM286 250l-210 -212l-35 41l171 177l-109 169l50 39l134 -209z" />
    <glyph glyph-name="onequarter" unicode="&#xbc;" horiz-adv-x="824" 
d="M147 31l547 675l45 -36l-544 -678zM156 653l168 70h42l-79 -423h-57l67 355l-131 -54zM648 0l17 94h-263l8 42l318 284h53l-50 -272h85l-10 -54h-84l-18 -94h-56zM494 148h181l35 189z" />
    <glyph glyph-name="onehalf" unicode="&#xbd;" horiz-adv-x="852" 
d="M147 31l547 675l45 -36l-544 -678zM156 653l168 70h42l-79 -423h-57l67 355l-131 -54zM580 296l-40 25c35 66 99 104 169 104c83 0 129 -42 129 -108c0 -89 -91 -163 -179 -217l-70 -45h221l-11 -55h-319l9 50l112 69c94 58 176 119 176 191c0 40 -27 61 -72 61
c-55 0 -94 -29 -125 -75z" />
    <glyph glyph-name="threequarters" unicode="&#xbe;" horiz-adv-x="902" 
d="M225 31l547 675l45 -36l-544 -678zM725 0l17 94h-263l8 42l318 284h53l-50 -272h85l-10 -54h-84l-18 -94h-56zM571 148h181l35 189zM203 612l-38 30c35 51 94 83 171 83c84 0 128 -36 128 -100c0 -51 -33 -85 -85 -103c44 -12 61 -46 61 -86c0 -95 -89 -141 -184 -141
c-69 0 -129 36 -146 96l47 29c17 -48 58 -71 109 -71c67 0 115 30 115 83c0 45 -41 56 -87 56h-56l11 52h44c64 0 112 31 112 76c0 38 -27 55 -74 55c-56 0 -92 -18 -128 -59z" />
    <glyph glyph-name="questiondown" unicode="&#xbf;" horiz-adv-x="546" 
d="M120 -26c0 -58 41 -99 141 -99c113 0 171 58 211 112l50 -30c-53 -85 -138 -148 -273 -148c-141 0 -199 71 -199 156c0 217 297 207 297 349v14h62v-15c0 -180 -289 -168 -289 -339zM459 476c0 -31 -25 -58 -61 -58c-25 0 -42 21 -42 44c0 31 27 59 61 59
c26 0 42 -21 42 -45z" />
    <glyph glyph-name="Agrave" unicode="&#xc0;" horiz-adv-x="644" 
d="M-17 0l421 702h55l162 -702h-70l-46 192h-332l-113 -192h-77zM414 600l-203 -344h282zM475 762l-162 91l37 56l153 -107z" />
    <glyph glyph-name="Aacute" unicode="&#xc1;" horiz-adv-x="644" 
d="M-17 0l421 702h55l162 -702h-70l-46 192h-332l-113 -192h-77zM414 600l-203 -344h282zM622 853l-187 -91l-18 45l183 102z" />
    <glyph glyph-name="Acircumflex" unicode="&#xc2;" horiz-adv-x="644" 
d="M-17 0l421 702h55l162 -702h-70l-46 192h-332l-113 -192h-77zM414 600l-203 -344h282zM464 905l157 -103l-27 -43l-134 83l-159 -83l-19 45l178 101h4z" />
    <glyph glyph-name="Atilde" unicode="&#xc3;" horiz-adv-x="644" 
d="M-17 0l421 702h55l162 -702h-70l-46 192h-332l-113 -192h-77zM414 600l-203 -344h282zM307 799l-22 40c29 25 65 44 103 44c61 0 101 -46 143 -46c31 0 51 14 74 30l22 -43c-27 -22 -60 -44 -108 -44c-57 0 -93 46 -144 46c-26 0 -49 -15 -68 -27z" />
    <glyph glyph-name="Adieresis" unicode="&#xc4;" horiz-adv-x="644" 
d="M-17 0l421 702h55l162 -702h-70l-46 192h-332l-113 -192h-77zM414 600l-203 -344h282zM300 825c0 23 18 42 41 42s42 -19 42 -42s-19 -41 -42 -41s-41 18 -41 41zM521 825c0 23 18 42 41 42s42 -19 42 -42s-19 -41 -42 -41s-41 18 -41 41z" />
    <glyph glyph-name="Aring" unicode="&#xc5;" horiz-adv-x="644" 
d="M-17 0l421 702h55l162 -702h-70l-46 192h-332l-113 -192h-77zM414 600l-203 -344h282zM346 811c0 59 49 106 120 106c57 0 97 -36 97 -85c0 -70 -60 -107 -122 -107c-60 0 -95 38 -95 86zM396 814c0 -27 22 -43 49 -43c45 0 67 26 67 56c0 26 -19 43 -49 43
c-43 0 -67 -22 -67 -56z" />
    <glyph glyph-name="AE" unicode="&#xc6;" horiz-adv-x="1047" 
d="M493 0l35 192h-293l-169 -192h-86l613 700h503l-12 -66h-407l-44 -245h380l-13 -66h-380l-47 -257h416l-12 -66h-484zM289 256h251l68 367z" />
    <glyph glyph-name="Ccedilla" unicode="&#xc7;" horiz-adv-x="669" 
d="M221 -171l26 41c22 -13 45 -21 68 -21c45 0 59 13 59 34c0 25 -17 32 -49 32h-21l15 80c-150 19 -247 128 -247 293c0 247 173 421 406 421c122 0 198 -57 235 -111l-47 -42c-47 48 -98 87 -193 87c-199 0 -331 -149 -331 -349c0 -136 88 -237 231 -237
c112 0 184 45 239 98l37 -47c-60 -70 -168 -117 -279 -117h-9l-5 -32c58 -2 81 -29 81 -70c0 -54 -43 -91 -124 -91c-31 0 -68 10 -92 31z" />
    <glyph glyph-name="Egrave" unicode="&#xc8;" horiz-adv-x="606" 
d="M53 0l128 700h475l-12 -66h-407l-44 -245h380l-13 -66h-380l-47 -257h416l-12 -66h-484zM465 762l-162 91l37 56l153 -107z" />
    <glyph glyph-name="Eacute" unicode="&#xc9;" horiz-adv-x="606" 
d="M53 0l128 700h475l-12 -66h-407l-44 -245h380l-13 -66h-380l-47 -257h416l-12 -66h-484zM592 853l-187 -91l-18 45l183 102z" />
    <glyph glyph-name="Ecircumflex" unicode="&#xca;" horiz-adv-x="606" 
d="M53 0l128 700h475l-12 -66h-407l-44 -245h380l-13 -66h-380l-47 -257h416l-12 -66h-484zM462 905l157 -103l-27 -43l-134 83l-159 -83l-19 45l178 101h4z" />
    <glyph glyph-name="Edieresis" unicode="&#xcb;" horiz-adv-x="606" 
d="M53 0l128 700h475l-12 -66h-407l-44 -245h380l-13 -66h-380l-47 -257h416l-12 -66h-484zM291 825c0 23 18 42 41 42s42 -19 42 -42s-19 -41 -42 -41s-41 18 -41 41zM512 825c0 23 18 42 41 42s42 -19 42 -42s-19 -41 -42 -41s-41 18 -41 41z" />
    <glyph glyph-name="Igrave" unicode="&#xcc;" horiz-adv-x="233" 
d="M63 0l127 700h69l-129 -700h-67zM257 762l-162 91l37 56l153 -107z" />
    <glyph glyph-name="Iacute" unicode="&#xcd;" horiz-adv-x="233" 
d="M63 0l127 700h69l-129 -700h-67zM413 853l-187 -91l-18 45l183 102z" />
    <glyph glyph-name="Icircumflex" unicode="&#xce;" horiz-adv-x="233" 
d="M63 0l127 700h69l-129 -700h-67zM258 905l157 -103l-27 -43l-134 83l-159 -83l-19 45l178 101h4z" />
    <glyph glyph-name="Idieresis" unicode="&#xcf;" horiz-adv-x="233" 
d="M63 0l127 700h69l-129 -700h-67zM94 825c0 23 18 42 41 42s42 -19 42 -42s-19 -41 -42 -41s-41 18 -41 41zM315 825c0 23 18 42 41 42s42 -19 42 -42s-19 -41 -42 -41s-41 18 -41 41z" />
    <glyph glyph-name="Eth" unicode="&#xd0;" horiz-adv-x="727" 
d="M46 317l12 60h119l59 323h202c225 0 308 -124 308 -272c0 -237 -145 -428 -446 -428h-194l59 317h-119zM425 634h-133l-48 -257h188l-11 -60h-188l-47 -251h130c250 0 359 167 359 351c0 132 -70 217 -250 217z" />
    <glyph glyph-name="Ntilde" unicode="&#xd1;" horiz-adv-x="699" 
d="M605 0h-53l-328 577l-106 -577h-65l129 700h54l326 -579l107 579h65zM335 799l-22 40c29 25 65 44 103 44c61 0 101 -46 143 -46c31 0 51 14 74 30l22 -43c-27 -22 -60 -44 -108 -44c-57 0 -93 46 -144 46c-26 0 -49 -15 -68 -27z" />
    <glyph glyph-name="Ograve" unicode="&#xd2;" horiz-adv-x="744" 
d="M74 288c0 244 176 421 401 421c174 0 285 -126 285 -297c0 -259 -188 -421 -401 -421c-172 0 -285 123 -285 297zM144 296c0 -143 90 -239 219 -239c182 0 327 141 327 344c0 124 -71 242 -219 242c-200 0 -327 -160 -327 -347zM527 762l-162 91l37 56l153 -107z" />
    <glyph glyph-name="Oacute" unicode="&#xd3;" horiz-adv-x="744" 
d="M74 288c0 244 176 421 401 421c174 0 285 -126 285 -297c0 -259 -188 -421 -401 -421c-172 0 -285 123 -285 297zM144 296c0 -143 90 -239 219 -239c182 0 327 141 327 344c0 124 -71 242 -219 242c-200 0 -327 -160 -327 -347zM657 853l-187 -91l-18 45l183 102z" />
    <glyph glyph-name="Ocircumflex" unicode="&#xd4;" horiz-adv-x="744" 
d="M74 288c0 244 176 421 401 421c174 0 285 -126 285 -297c0 -259 -188 -421 -401 -421c-172 0 -285 123 -285 297zM144 296c0 -143 90 -239 219 -239c182 0 327 141 327 344c0 124 -71 242 -219 242c-200 0 -327 -160 -327 -347zM516 905l157 -103l-27 -43l-134 83
l-159 -83l-19 45l178 101h4z" />
    <glyph glyph-name="Otilde" unicode="&#xd5;" horiz-adv-x="744" 
d="M74 288c0 244 176 421 401 421c174 0 285 -126 285 -297c0 -259 -188 -421 -401 -421c-172 0 -285 123 -285 297zM144 296c0 -143 90 -239 219 -239c182 0 327 141 327 344c0 124 -71 242 -219 242c-200 0 -327 -160 -327 -347zM357 799l-22 40c29 25 65 44 103 44
c61 0 101 -46 143 -46c31 0 51 14 74 30l22 -43c-27 -22 -60 -44 -108 -44c-57 0 -93 46 -144 46c-26 0 -49 -15 -68 -27z" />
    <glyph glyph-name="Odieresis" unicode="&#xd6;" horiz-adv-x="744" 
d="M74 288c0 244 176 421 401 421c174 0 285 -126 285 -297c0 -259 -188 -421 -401 -421c-172 0 -285 123 -285 297zM144 296c0 -143 90 -239 219 -239c182 0 327 141 327 344c0 124 -71 242 -219 242c-200 0 -327 -160 -327 -347zM352 825c0 23 18 42 41 42s42 -19 42 -42
s-19 -41 -42 -41s-41 18 -41 41zM573 825c0 23 18 42 41 42s42 -19 42 -42s-19 -41 -42 -41s-41 18 -41 41z" />
    <glyph glyph-name="multiply" unicode="&#xd7;" horiz-adv-x="591" 
d="M155 497l42 42l138 -138l139 138l42 -42l-138 -138l138 -139l-42 -42l-139 139l-138 -139l-42 42l139 139z" />
    <glyph glyph-name="Oslash" unicode="&#xd8;" horiz-adv-x="744" 
d="M73 29l63 64c-37 48 -63 118 -63 195c0 242 174 421 410 421c71 0 131 -25 178 -64l56 59l36 -36l-56 -60c39 -48 63 -119 63 -196c0 -259 -184 -421 -410 -421c-71 0 -129 25 -177 63l-61 -64zM689 400c0 59 -16 116 -43 155l-424 -448c37 -31 86 -50 141 -50
c179 0 326 137 326 343zM143 299c0 -57 17 -114 43 -152l426 446c-38 32 -86 50 -141 50c-190 0 -328 -152 -328 -344z" />
    <glyph glyph-name="Ugrave" unicode="&#xd9;" horiz-adv-x="683" 
d="M728 700l-75 -406c-31 -165 -131 -302 -316 -302c-131 0 -244 77 -243 236c0 23 2 47 7 73l74 399h66l-71 -388c-4 -23 -6 -54 -6 -71c0 -130 77 -183 178 -183c133 0 217 96 246 249l72 393h68zM500 762l-162 91l37 56l153 -107z" />
    <glyph glyph-name="Uacute" unicode="&#xda;" horiz-adv-x="683" 
d="M728 700l-75 -406c-31 -165 -131 -302 -316 -302c-131 0 -244 77 -243 236c0 23 2 47 7 73l74 399h66l-71 -388c-4 -23 -6 -54 -6 -71c0 -130 77 -183 178 -183c133 0 217 96 246 249l72 393h68zM630 853l-187 -91l-18 45l183 102z" />
    <glyph glyph-name="Ucircumflex" unicode="&#xdb;" horiz-adv-x="683" 
d="M728 700l-75 -406c-31 -165 -131 -302 -316 -302c-131 0 -244 77 -243 236c0 23 2 47 7 73l74 399h66l-71 -388c-4 -23 -6 -54 -6 -71c0 -130 77 -183 178 -183c133 0 217 96 246 249l72 393h68zM484 905l157 -103l-27 -43l-134 83l-159 -83l-19 45l178 101h4z" />
    <glyph glyph-name="Udieresis" unicode="&#xdc;" horiz-adv-x="683" 
d="M728 700l-75 -406c-31 -165 -131 -302 -316 -302c-131 0 -244 77 -243 236c0 23 2 47 7 73l74 399h66l-71 -388c-4 -23 -6 -54 -6 -71c0 -130 77 -183 178 -183c133 0 217 96 246 249l72 393h68zM320 825c0 23 18 42 41 42s42 -19 42 -42s-19 -41 -42 -41s-41 18 -41 41z
M541 825c0 23 18 42 41 42s42 -19 42 -42s-19 -41 -42 -41s-41 18 -41 41z" />
    <glyph glyph-name="Yacute" unicode="&#xdd;" horiz-adv-x="596" 
d="M707 700l-340 -394l-56 -306h-68l56 306l-192 394h75l159 -325l281 325h85zM589 853l-187 -91l-18 45l183 102z" />
    <glyph glyph-name="Thorn" unicode="&#xde;" horiz-adv-x="618" 
d="M121 0h-68l129 700h68l-22 -117h172c178 0 235 -83 235 -179c0 -156 -114 -251 -315 -251h-171zM393 518h-176l-56 -299h170c164 -1 233 72 233 179c0 70 -46 120 -171 120z" />
    <glyph glyph-name="germandbls" unicode="&#xdf;" horiz-adv-x="525" 
d="M394 738c109 0 166 -64 166 -161c0 -106 -49 -176 -135 -209c71 -16 104 -72 104 -142c0 -142 -94 -235 -245 -235c-55 0 -91 11 -114 25l30 59c21 -12 50 -20 92 -20c106 0 171 61 171 164c0 64 -39 108 -150 108h-49l11 65h38c108 0 180 69 180 175
c0 72 -39 109 -109 109c-91 0 -143 -46 -167 -177l-93 -499h-61l96 519c29 153 108 219 235 219z" />
    <glyph glyph-name="agrave" unicode="&#xe0;" 
d="M418 0l17 86c-23 -34 -93 -94 -183 -94c-130 0 -202 87 -202 207c0 207 172 334 314 334c72 0 119 -23 147 -50l9 37h58l-100 -520h-60zM263 50c94 0 163 77 185 122l50 243c-23 32 -64 60 -134 60c-124 0 -248 -110 -248 -270c0 -102 55 -155 147 -155zM392 615
l-122 147l50 38l110 -156z" />
    <glyph glyph-name="aacute" unicode="&#xe1;" 
d="M418 0l17 86c-23 -34 -93 -94 -183 -94c-130 0 -202 87 -202 207c0 207 172 334 314 334c72 0 119 -23 147 -50l9 37h58l-100 -520h-60zM263 50c94 0 163 77 185 122l50 243c-23 32 -64 60 -134 60c-124 0 -248 -110 -248 -270c0 -102 55 -155 147 -155zM569 762
l-131 -148l-43 30l124 155z" />
    <glyph glyph-name="acircumflex" unicode="&#xe2;" 
d="M418 0l17 86c-23 -34 -93 -94 -183 -94c-130 0 -202 87 -202 207c0 207 172 334 314 334c72 0 119 -23 147 -50l9 37h58l-100 -520h-60zM263 50c94 0 163 77 185 122l50 243c-23 32 -64 60 -134 60c-124 0 -248 -110 -248 -270c0 -102 55 -155 147 -155zM409 781
l117 -129l-36 -36l-90 97l-122 -94l-26 40l153 122h4z" />
    <glyph glyph-name="atilde" unicode="&#xe3;" 
d="M418 0l17 86c-23 -34 -93 -94 -183 -94c-130 0 -202 87 -202 207c0 207 172 334 314 334c72 0 119 -23 147 -50l9 37h58l-100 -520h-60zM263 50c94 0 163 77 185 122l50 243c-23 32 -64 60 -134 60c-124 0 -248 -110 -248 -270c0 -102 55 -155 147 -155zM260 628l-26 36
c34 35 68 59 103 59c53 0 76 -50 118 -50c24 0 47 15 68 35l24 -35c-23 -28 -61 -55 -96 -55c-56 0 -78 50 -118 50c-27 0 -45 -17 -73 -40z" />
    <glyph glyph-name="adieresis" unicode="&#xe4;" 
d="M418 0l17 86c-23 -34 -93 -94 -183 -94c-130 0 -202 87 -202 207c0 207 172 334 314 334c72 0 119 -23 147 -50l9 37h58l-100 -520h-60zM263 50c94 0 163 77 185 122l50 243c-23 32 -64 60 -134 60c-124 0 -248 -110 -248 -270c0 -102 55 -155 147 -155zM465 684
c0 23 18 42 42 42s43 -19 43 -42c0 -24 -19 -41 -43 -41s-42 17 -42 41zM238 684c0 23 18 42 42 42c23 0 42 -19 42 -42c0 -24 -19 -41 -42 -41c-24 0 -42 17 -42 41z" />
    <glyph glyph-name="aring" unicode="&#xe5;" 
d="M418 0l17 86c-23 -34 -93 -94 -183 -94c-130 0 -202 87 -202 207c0 207 172 334 314 334c72 0 119 -23 147 -50l9 37h58l-100 -520h-60zM263 50c94 0 163 77 185 122l50 243c-23 32 -64 60 -134 60c-124 0 -248 -110 -248 -270c0 -102 55 -155 147 -155zM298 690
c0 56 47 110 110 110c57 0 85 -41 85 -88c0 -50 -42 -109 -112 -109c-51 0 -83 37 -83 87zM346 693c0 -26 16 -42 40 -42c31 0 59 21 59 58c0 28 -16 43 -41 43c-36 0 -58 -26 -58 -59z" />
    <glyph glyph-name="ae" unicode="&#xe6;" horiz-adv-x="893" 
d="M812 129l36 -40c-48 -68 -142 -99 -216 -99c-94 0 -167 45 -199 122c-64 -82 -148 -119 -246 -119c-108 0 -155 68 -155 133c0 122 112 180 272 180c38 0 98 -8 121 -16c5 28 8 53 8 75c-2 65 -33 110 -117 110c-63 0 -119 -24 -169 -62l-30 43c55 48 131 77 212 77
c96 0 151 -40 165 -111c59 68 143 111 233 111c105 0 166 -45 166 -128c0 -119 -144 -207 -412 -178v-14c0 -108 64 -165 165 -165c64 0 125 33 166 81zM201 51c111 0 176 69 202 114l11 66c-26 9 -68 17 -112 17c-113 0 -203 -36 -203 -111c0 -57 38 -86 102 -86zM717 475
c-104 0 -199 -83 -228 -194c241 -20 338 54 338 118c0 50 -37 76 -110 76z" />
    <glyph glyph-name="ccedilla" unicode="&#xe7;" horiz-adv-x="513" 
d="M139 -172l27 42c21 -13 45 -21 67 -21c44 0 59 13 59 39c0 20 -18 27 -49 27h-21l14 77c-111 12 -186 94 -186 215c0 183 132 326 312 326c81 0 152 -41 175 -100l-49 -31c-31 50 -72 73 -136 73c-139 0 -236 -118 -236 -262c0 -100 59 -165 165 -165c65 0 131 33 172 82
l32 -37c-47 -68 -134 -100 -206 -103l-6 -31c56 -2 80 -29 80 -69c0 -59 -51 -92 -123 -92c-38 0 -70 12 -91 30z" />
    <glyph glyph-name="egrave" unicode="&#xe8;" horiz-adv-x="528" 
d="M447 129l37 -40c-49 -68 -143 -99 -217 -99c-128 0 -217 85 -217 217c0 183 148 326 312 326c105 0 166 -45 166 -128c0 -98 -101 -173 -279 -173c-40 0 -84 5 -131 13c-1 -11 -2 -21 -2 -32c0 -100 56 -165 165 -165c65 0 125 33 166 81zM352 475
c-98 0 -188 -74 -222 -175c42 -8 82 -13 130 -13c134 1 202 58 202 112c0 41 -24 76 -110 76zM386 615l-122 147l50 38l110 -156z" />
    <glyph glyph-name="eacute" unicode="&#xe9;" horiz-adv-x="528" 
d="M447 129l37 -40c-49 -68 -143 -99 -217 -99c-128 0 -217 85 -217 217c0 183 148 326 312 326c105 0 166 -45 166 -128c0 -98 -101 -173 -279 -173c-40 0 -84 5 -131 13c-1 -11 -2 -21 -2 -32c0 -100 56 -165 165 -165c65 0 125 33 166 81zM352 475
c-98 0 -188 -74 -222 -175c42 -8 82 -13 130 -13c134 1 202 58 202 112c0 41 -24 76 -110 76zM546 762l-131 -148l-43 30l124 155z" />
    <glyph glyph-name="ecircumflex" unicode="&#xea;" horiz-adv-x="528" 
d="M447 129l37 -40c-49 -68 -143 -99 -217 -99c-128 0 -217 85 -217 217c0 183 148 326 312 326c105 0 166 -45 166 -128c0 -98 -101 -173 -279 -173c-40 0 -84 5 -131 13c-1 -11 -2 -21 -2 -32c0 -100 56 -165 165 -165c65 0 125 33 166 81zM352 475
c-98 0 -188 -74 -222 -175c42 -8 82 -13 130 -13c134 1 202 58 202 112c0 41 -24 76 -110 76zM422 781l117 -129l-36 -36l-90 97l-122 -94l-26 40l153 122h4z" />
    <glyph glyph-name="edieresis" unicode="&#xeb;" horiz-adv-x="528" 
d="M447 129l37 -40c-49 -68 -143 -99 -217 -99c-128 0 -217 85 -217 217c0 183 148 326 312 326c105 0 166 -45 166 -128c0 -98 -101 -173 -279 -173c-40 0 -84 5 -131 13c-1 -11 -2 -21 -2 -32c0 -100 56 -165 165 -165c65 0 125 33 166 81zM352 475
c-98 0 -188 -74 -222 -175c42 -8 82 -13 130 -13c134 1 202 58 202 112c0 41 -24 76 -110 76zM474 684c0 23 18 42 42 42s43 -19 43 -42c0 -24 -19 -41 -43 -41s-42 17 -42 41zM247 684c0 23 18 42 42 42c23 0 42 -19 42 -42c0 -24 -19 -41 -42 -41c-24 0 -42 17 -42 41z
" />
    <glyph glyph-name="igrave" unicode="&#xec;" horiz-adv-x="226" 
d="M82 0l96 520h61l-96 -520h-61zM225 615l-122 147l50 38l110 -156z" />
    <glyph glyph-name="iacute" unicode="&#xed;" horiz-adv-x="226" 
d="M82 0l96 520h61l-96 -520h-61zM360 762l-131 -148l-43 30l124 155z" />
    <glyph glyph-name="icircumflex" unicode="&#xee;" horiz-adv-x="226" 
d="M82 0l96 520h61l-96 -520h-61zM253 781l117 -129l-36 -36l-90 97l-122 -94l-26 40l153 122h4z" />
    <glyph glyph-name="idieresis" unicode="&#xef;" horiz-adv-x="251" 
d="M278 684c0 23 18 42 42 42s43 -19 43 -42c0 -24 -19 -41 -43 -41s-42 17 -42 41zM136 684c0 23 18 42 42 42c23 0 42 -19 42 -42c0 -24 -19 -41 -42 -41c-24 0 -42 17 -42 41zM93 0l96 520h62l-96 -520h-62z" />
    <glyph glyph-name="eth" unicode="&#xf0;" horiz-adv-x="603" 
d="M415 787l44 -21l-38 -63c132 -60 173 -172 173 -291c0 -292 -156 -422 -311 -422c-150 0 -233 106 -233 221c0 205 160 312 303 312c76 0 146 -27 179 -76c-9 95 -59 166 -141 205l-49 -81l-46 22l47 77c-30 9 -62 14 -98 16l23 56c40 -5 75 -12 106 -21zM117 218
c0 -91 61 -170 171 -170c135 0 236 134 236 294c0 11 -2 21 -3 30c-23 53 -85 93 -171 93c-109 0 -233 -86 -233 -247z" />
    <glyph glyph-name="ntilde" unicode="&#xf1;" horiz-adv-x="583" 
d="M48 0l100 520h62l-13 -75c49 50 120 87 203 87c100 0 159 -61 159 -158c0 -27 -6 -68 -11 -97l-59 -277h-61l56 269c4 22 11 50 11 95c-1 71 -40 110 -107 110c-90 0 -172 -59 -210 -127l-68 -347h-62zM279 628l-26 36c34 35 68 59 103 59c53 0 76 -50 118 -50
c24 0 47 15 68 35l24 -35c-23 -28 -61 -55 -96 -55c-56 0 -78 50 -118 50c-27 0 -45 -17 -73 -40z" />
    <glyph glyph-name="ograve" unicode="&#xf2;" horiz-adv-x="590" 
d="M50 198c0 205 157 335 314 335c134 0 220 -93 220 -212c0 -203 -147 -331 -302 -331c-138 0 -232 87 -232 208zM116 216c0 -102 61 -168 169 -168c124 0 232 105 232 260c0 108 -69 167 -157 167c-133 0 -244 -110 -244 -259zM411 615l-122 147l50 38l110 -156z" />
    <glyph glyph-name="oacute" unicode="&#xf3;" horiz-adv-x="590" 
d="M50 198c0 205 157 335 314 335c134 0 220 -93 220 -212c0 -203 -147 -331 -302 -331c-138 0 -232 87 -232 208zM116 216c0 -102 61 -168 169 -168c124 0 232 105 232 260c0 108 -69 167 -157 167c-133 0 -244 -110 -244 -259zM531 762l-131 -148l-43 30l124 155z" />
    <glyph glyph-name="ocircumflex" unicode="&#xf4;" horiz-adv-x="590" 
d="M50 198c0 205 157 335 314 335c134 0 220 -93 220 -212c0 -203 -147 -331 -302 -331c-138 0 -232 87 -232 208zM116 216c0 -102 61 -168 169 -168c124 0 232 105 232 260c0 108 -69 167 -157 167c-133 0 -244 -110 -244 -259zM410 781l117 -129l-36 -36l-90 97l-122 -94
l-26 40l153 122h4z" />
    <glyph glyph-name="otilde" unicode="&#xf5;" horiz-adv-x="590" 
d="M50 198c0 205 157 335 314 335c134 0 220 -93 220 -212c0 -203 -147 -331 -302 -331c-138 0 -232 87 -232 208zM116 216c0 -102 61 -168 169 -168c124 0 232 105 232 260c0 108 -69 167 -157 167c-133 0 -244 -110 -244 -259zM261 628l-26 36c34 35 68 59 103 59
c53 0 76 -50 118 -50c24 0 47 15 68 35l24 -35c-23 -28 -61 -55 -96 -55c-56 0 -78 50 -118 50c-27 0 -45 -17 -73 -40z" />
    <glyph glyph-name="odieresis" unicode="&#xf6;" horiz-adv-x="590" 
d="M50 198c0 205 157 335 314 335c134 0 220 -93 220 -212c0 -203 -147 -331 -302 -331c-138 0 -232 87 -232 208zM116 216c0 -102 61 -168 169 -168c124 0 232 105 232 260c0 108 -69 167 -157 167c-133 0 -244 -110 -244 -259zM466 684c0 23 18 42 42 42s43 -19 43 -42
c0 -24 -19 -41 -43 -41s-42 17 -42 41zM239 684c0 23 18 42 42 42c23 0 42 -19 42 -42c0 -24 -19 -41 -42 -41c-24 0 -42 17 -42 41z" />
    <glyph glyph-name="divide" unicode="&#xf7;" horiz-adv-x="582" 
d="M292 566c0 18 16 39 42 39c24 0 40 -21 40 -39c0 -21 -16 -40 -40 -40c-26 0 -42 19 -42 40zM292 154c0 20 16 39 42 39c24 0 40 -19 40 -39c0 -21 -16 -41 -40 -41c-26 0 -42 20 -42 41zM107 331v58h453v-58h-453z" />
    <glyph glyph-name="oslash" unicode="&#xf8;" horiz-adv-x="585" 
d="M73 211c0 176 142 322 318 322c54 0 98 -16 133 -41l74 78l37 -36l-74 -77c32 -40 46 -90 46 -147c0 -180 -134 -320 -312 -320c-58 0 -103 18 -138 43l-67 -72l-37 38l64 70c-28 35 -44 82 -44 142zM540 300c0 40 -8 80 -25 107l-314 -329c26 -18 62 -30 101 -30
c131 0 238 109 238 252zM140 221c0 -39 7 -78 24 -104l316 329c-27 21 -62 29 -100 29c-129 0 -240 -110 -240 -254z" />
    <glyph glyph-name="ugrave" unicode="&#xf9;" horiz-adv-x="574" 
d="M571 520l-100 -520h-61l15 87c-47 -59 -115 -97 -202 -97c-97 0 -159 49 -159 142c0 26 4 58 10 88l60 300h63l-57 -287c-5 -22 -11 -54 -10 -95c1 -47 26 -90 113 -90c81 0 153 51 198 120l69 352h61zM364 615l-122 147l50 38l110 -156z" />
    <glyph glyph-name="uacute" unicode="&#xfa;" horiz-adv-x="574" 
d="M571 520l-100 -520h-61l15 87c-47 -59 -115 -97 -202 -97c-97 0 -159 49 -159 142c0 26 4 58 10 88l60 300h63l-57 -287c-5 -22 -11 -54 -10 -95c1 -47 26 -90 113 -90c81 0 153 51 198 120l69 352h61zM515 762l-131 -148l-43 30l124 155z" />
    <glyph glyph-name="ucircumflex" unicode="&#xfb;" horiz-adv-x="574" 
d="M571 520l-100 -520h-61l15 87c-47 -59 -115 -97 -202 -97c-97 0 -159 49 -159 142c0 26 4 58 10 88l60 300h63l-57 -287c-5 -22 -11 -54 -10 -95c1 -47 26 -90 113 -90c81 0 153 51 198 120l69 352h61zM408 781l117 -129l-36 -36l-90 97l-122 -94l-26 40l153 122h4z" />
    <glyph glyph-name="udieresis" unicode="&#xfc;" horiz-adv-x="574" 
d="M571 520l-100 -520h-61l15 87c-47 -59 -115 -97 -202 -97c-97 0 -159 49 -159 142c0 26 4 58 10 88l60 300h63l-57 -287c-5 -22 -11 -54 -10 -95c1 -47 26 -90 113 -90c81 0 153 51 198 120l69 352h61zM462 684c0 23 18 42 42 42s43 -19 43 -42c0 -24 -19 -41 -43 -41
s-42 17 -42 41zM235 684c0 23 18 42 42 42c23 0 42 -19 42 -42c0 -24 -19 -41 -42 -41c-24 0 -42 17 -42 41z" />
    <glyph glyph-name="yacute" unicode="&#xfd;" horiz-adv-x="507" 
d="M-1 -195l34 57c8 -6 18 -10 29 -10c38 0 73 34 131 131l19 34l-157 503h68l134 -428l242 428h70l-296 -518c-100 -175 -152 -212 -220 -212c-21 0 -39 5 -54 15zM500 762l-131 -148l-43 30l124 155z" />
    <glyph glyph-name="thorn" unicode="&#xfe;" horiz-adv-x="570" 
d="M0 -200l172 930h61l-53 -287c52 66 126 90 192 90c144 0 193 -93 193 -194c0 -213 -150 -349 -302 -349c-66 0 -129 26 -153 69l-49 -259h-61zM355 475c-88 0 -161 -68 -192 -128l-39 -210c25 -63 82 -89 146 -89c105 0 228 104 228 267c0 81 -31 160 -143 160z" />
    <glyph glyph-name="ydieresis" unicode="&#xff;" horiz-adv-x="507" 
d="M-1 -195l34 57c8 -6 18 -10 29 -10c38 0 73 34 131 131l19 34l-157 503h68l134 -428l242 428h70l-296 -518c-100 -175 -152 -212 -220 -212c-21 0 -39 5 -54 15zM388 684c0 23 18 42 42 42s43 -19 43 -42c0 -24 -19 -41 -43 -41s-42 17 -42 41zM161 684c0 23 18 42 42 42
c23 0 42 -19 42 -42c0 -24 -19 -41 -42 -41c-24 0 -42 17 -42 41z" />
    <glyph glyph-name="Amacron" unicode="&#x100;" horiz-adv-x="644" 
d="M-17 0l421 702h55l162 -702h-70l-46 192h-332l-113 -192h-77zM414 600l-203 -344h282zM307 795l11 58h282l-11 -58h-282z" />
    <glyph glyph-name="amacron" unicode="&#x101;" 
d="M418 0l17 86c-23 -34 -93 -94 -183 -94c-130 0 -202 87 -202 207c0 207 172 334 314 334c72 0 119 -23 147 -50l9 37h58l-100 -520h-60zM263 50c94 0 163 77 185 122l50 243c-23 32 -64 60 -134 60c-124 0 -248 -110 -248 -270c0 -102 55 -155 147 -155zM261 647l11 59
h248l-11 -59h-248z" />
    <glyph glyph-name="Abreve" unicode="&#x102;" horiz-adv-x="644" 
d="M-17 0l421 702h55l162 -702h-70l-46 192h-332l-113 -192h-77zM414 600l-203 -344h282zM297 868l37 31c15 -25 53 -62 125 -62c63 0 112 31 144 64l29 -35c-32 -41 -96 -89 -180 -89c-93 0 -136 51 -155 91z" />
    <glyph glyph-name="abreve" unicode="&#x103;" 
d="M418 0l17 86c-23 -34 -93 -94 -183 -94c-130 0 -202 87 -202 207c0 207 172 334 314 334c72 0 119 -23 147 -50l9 37h58l-100 -520h-60zM263 50c94 0 163 77 185 122l50 243c-23 32 -64 60 -134 60c-124 0 -248 -110 -248 -270c0 -102 55 -155 147 -155zM252 733l34 30
c17 -26 59 -58 106 -58c52 0 95 25 126 58l24 -35c-35 -47 -86 -85 -155 -85c-80 0 -123 64 -135 90z" />
    <glyph glyph-name="Aogonek" unicode="&#x104;" horiz-adv-x="644" 
d="M459 702l162 -702c-74 0 -154 -43 -154 -105c0 -33 26 -43 53 -43c19 0 36 3 53 9l2 -46c-18 -9 -43 -15 -70 -15c-49 0 -96 23 -96 83c0 68 68 114 139 130l-43 179h-332l-113 -192h-77l421 702h55zM414 600l-203 -344h282z" />
    <glyph glyph-name="aogonek" unicode="&#x105;" 
d="M263 50c94 0 163 77 185 122l50 243c-23 32 -64 60 -134 60c-124 0 -248 -110 -248 -270c0 -102 55 -155 147 -155zM422 17l13 69c-23 -34 -93 -94 -183 -94c-130 0 -202 87 -202 207c0 207 172 334 314 334c72 0 119 -23 147 -50l9 37h58l-100 -520
c-51 0 -113 -39 -113 -99c0 -27 17 -45 39 -45c10 0 26 1 44 9l9 -49c-18 -10 -40 -16 -66 -16c-49 0 -92 24 -92 89c0 64 60 110 123 128z" />
    <glyph glyph-name="Cacute" unicode="&#x106;" horiz-adv-x="669" 
d="M612 155l37 -47c-60 -70 -168 -117 -279 -117c-178 0 -298 114 -298 297c0 247 173 421 406 421c122 0 198 -57 235 -111l-47 -42c-47 48 -98 87 -193 87c-199 0 -331 -149 -331 -349c0 -136 88 -237 231 -237c112 0 184 45 239 98zM641 853l-187 -91l-18 45l183 102z
" />
    <glyph glyph-name="cacute" unicode="&#x107;" horiz-adv-x="513" 
d="M453 130l32 -37c-49 -72 -144 -103 -218 -103c-128 0 -217 85 -217 217c0 183 132 326 312 326c81 0 152 -41 175 -100l-49 -31c-31 50 -72 73 -136 73c-139 0 -236 -118 -236 -262c0 -100 59 -165 165 -165c65 0 131 33 172 82zM535 762l-131 -148l-43 30l124 155z" />
    <glyph glyph-name="Ccircumflex" unicode="&#x108;" horiz-adv-x="669" 
d="M612 155l37 -47c-60 -70 -168 -117 -279 -117c-178 0 -298 114 -298 297c0 247 173 421 406 421c122 0 198 -57 235 -111l-47 -42c-47 48 -98 87 -193 87c-199 0 -331 -149 -331 -349c0 -136 88 -237 231 -237c112 0 184 45 239 98zM504 905l157 -103l-27 -43l-134 83
l-159 -83l-19 45l178 101h4z" />
    <glyph glyph-name="ccircumflex" unicode="&#x109;" horiz-adv-x="513" 
d="M453 130l32 -37c-49 -72 -144 -103 -218 -103c-128 0 -217 85 -217 217c0 183 132 326 312 326c81 0 152 -41 175 -100l-49 -31c-31 50 -72 73 -136 73c-139 0 -236 -118 -236 -262c0 -100 59 -165 165 -165c65 0 131 33 172 82zM411 781l117 -129l-36 -36l-90 97
l-122 -94l-26 40l153 122h4z" />
    <glyph glyph-name="Cdotaccent" unicode="&#x10a;" horiz-adv-x="669" 
d="M612 155l37 -47c-60 -70 -168 -117 -279 -117c-178 0 -298 114 -298 297c0 247 173 421 406 421c122 0 198 -57 235 -111l-47 -42c-47 48 -98 87 -193 87c-199 0 -331 -149 -331 -349c0 -136 88 -237 231 -237c112 0 184 45 239 98zM449 824c0 24 19 44 43 44
s44 -20 44 -44s-20 -43 -44 -43s-43 19 -43 43z" />
    <glyph glyph-name="cdotaccent" unicode="&#x10b;" horiz-adv-x="513" 
d="M453 130l32 -37c-49 -72 -144 -103 -218 -103c-128 0 -217 85 -217 217c0 183 132 326 312 326c81 0 152 -41 175 -100l-49 -31c-31 50 -72 73 -136 73c-139 0 -236 -118 -236 -262c0 -100 59 -165 165 -165c65 0 131 33 172 82zM350 684c0 23 18 42 42 42s43 -19 43 -42
c0 -24 -19 -41 -43 -41s-42 17 -42 41z" />
    <glyph glyph-name="Ccaron" unicode="&#x10c;" horiz-adv-x="669" 
d="M612 155l37 -47c-60 -70 -168 -117 -279 -117c-178 0 -298 114 -298 297c0 247 173 421 406 421c122 0 198 -57 235 -111l-47 -42c-47 48 -98 87 -193 87c-199 0 -331 -149 -331 -349c0 -136 88 -237 231 -237c112 0 184 45 239 98zM478 759l-157 103l27 43l134 -83
l159 83l19 -45l-178 -101h-4z" />
    <glyph glyph-name="ccaron" unicode="&#x10d;" horiz-adv-x="513" 
d="M453 130l32 -37c-49 -72 -144 -103 -218 -103c-128 0 -217 85 -217 217c0 183 132 326 312 326c81 0 152 -41 175 -100l-49 -31c-31 50 -72 73 -136 73c-139 0 -236 -118 -236 -262c0 -100 59 -165 165 -165c65 0 131 33 172 82zM379 625l-117 129l36 36l90 -97l122 94
l26 -40l-153 -122h-4z" />
    <glyph glyph-name="Dcaron" unicode="&#x10e;" horiz-adv-x="674" 
d="M53 0l129 700h204c224 0 306 -121 306 -273c0 -239 -143 -427 -444 -427h-195zM371 634h-134l-104 -568h131c250 0 358 163 358 351c0 129 -64 217 -251 217zM404 759l-157 103l27 43l134 -83l159 83l19 -45l-178 -101h-4z" />
    <glyph glyph-name="dcaron" unicode="&#x10f;" horiz-adv-x="575" 
d="M418 0l17 86c-23 -34 -95 -94 -181 -94c-133 0 -204 87 -204 207c0 207 169 334 308 334c72 0 125 -23 153 -50l48 247h61l-142 -730h-60zM263 50c94 0 155 74 185 122l50 243c-23 32 -70 60 -140 60c-126 0 -242 -110 -242 -270c0 -102 62 -155 147 -155zM715 730h63
c2 -7 3 -19 3 -32c0 -83 -64 -145 -110 -172l-23 34c39 26 74 75 74 127c0 17 -3 36 -7 43z" />
    <glyph glyph-name="Dcroat" unicode="&#x110;" horiz-adv-x="727" 
d="M46 317l12 60h119l59 323h202c225 0 308 -124 308 -272c0 -237 -145 -428 -446 -428h-194l59 317h-119zM425 634h-133l-48 -257h188l-11 -60h-188l-47 -251h130c250 0 359 167 359 351c0 132 -70 217 -250 217z" />
    <glyph glyph-name="dcroat" unicode="&#x111;" horiz-adv-x="547" 
d="M543 652l16 78h61l-15 -78h62l-12 -61h-61l-116 -591h-60l17 86c-23 -34 -95 -94 -181 -94c-133 0 -204 87 -204 207c0 207 169 334 308 334c72 0 125 -23 153 -50l21 108h-105l12 61h104zM263 50c94 0 155 74 185 122l50 243c-23 32 -70 60 -140 60
c-126 0 -242 -110 -242 -270c0 -102 62 -155 147 -155z" />
    <glyph glyph-name="Emacron" unicode="&#x112;" horiz-adv-x="606" 
d="M53 0l128 700h475l-12 -66h-407l-44 -245h380l-13 -66h-380l-47 -257h416l-12 -66h-484zM296 795l11 58h282l-11 -58h-282z" />
    <glyph glyph-name="emacron" unicode="&#x113;" horiz-adv-x="528" 
d="M447 129l37 -40c-49 -68 -143 -99 -217 -99c-128 0 -217 85 -217 217c0 183 148 326 312 326c105 0 166 -45 166 -128c0 -98 -101 -173 -279 -173c-40 0 -84 5 -131 13c-1 -11 -2 -21 -2 -32c0 -100 56 -165 165 -165c65 0 125 33 166 81zM352 475
c-98 0 -188 -74 -222 -175c42 -8 82 -13 130 -13c134 1 202 58 202 112c0 41 -24 76 -110 76zM274 647l11 59h248l-11 -59h-248z" />
    <glyph glyph-name="Edotaccent" unicode="&#x116;" horiz-adv-x="606" 
d="M53 0l128 700h475l-12 -66h-407l-44 -245h380l-13 -66h-380l-47 -257h416l-12 -66h-484zM401 824c0 24 19 44 43 44s44 -20 44 -44s-20 -43 -44 -43s-43 19 -43 43z" />
    <glyph glyph-name="edotaccent" unicode="&#x117;" horiz-adv-x="528" 
d="M447 129l37 -40c-49 -68 -143 -99 -217 -99c-128 0 -217 85 -217 217c0 183 148 326 312 326c105 0 166 -45 166 -128c0 -98 -101 -173 -279 -173c-40 0 -84 5 -131 13c-1 -11 -2 -21 -2 -32c0 -100 56 -165 165 -165c65 0 125 33 166 81zM352 475
c-98 0 -188 -74 -222 -175c42 -8 82 -13 130 -13c134 1 202 58 202 112c0 41 -24 76 -110 76zM365 684c0 23 18 42 42 42s43 -19 43 -42c0 -24 -19 -41 -43 -41s-42 17 -42 41z" />
    <glyph glyph-name="Eogonek" unicode="&#x118;" horiz-adv-x="606" 
d="M53 0l129 700h474l-12 -66h-407l-44 -245h380l-13 -66h-380l-47 -257h416l-12 -66h-13c-55 0 -129 -49 -129 -105c0 -33 27 -43 53 -43c19 0 36 3 54 9l1 -46c-18 -9 -42 -15 -73 -15c-42 0 -93 20 -93 82c0 48 36 93 95 118h-379z" />
    <glyph glyph-name="eogonek" unicode="&#x119;" horiz-adv-x="528" 
d="M352 475c-98 0 -188 -74 -222 -175c42 -8 82 -13 130 -13c134 1 202 58 202 112c0 41 -24 76 -110 76zM279 -10h-12c-128 0 -217 85 -217 217c0 183 148 326 312 326c105 0 166 -45 166 -128c0 -98 -101 -173 -279 -173c-40 0 -84 5 -131 13c-1 -11 -2 -21 -2 -32
c0 -100 56 -165 165 -165c65 0 125 33 166 81l37 -40c-22 -31 -55 -52 -88 -70c-41 -23 -120 -61 -120 -121c0 -27 17 -42 39 -42c10 0 26 1 44 9l9 -49c-18 -10 -40 -16 -66 -16c-49 0 -92 24 -92 85c0 45 29 82 69 105z" />
    <glyph glyph-name="Ecaron" unicode="&#x11a;" horiz-adv-x="606" 
d="M53 0l128 700h475l-12 -66h-407l-44 -245h380l-13 -66h-380l-47 -257h416l-12 -66h-484zM440 759l-157 103l27 43l134 -83l159 83l19 -45l-178 -101h-4z" />
    <glyph glyph-name="ecaron" unicode="&#x11b;" horiz-adv-x="528" 
d="M447 129l37 -40c-49 -68 -143 -99 -217 -99c-128 0 -217 85 -217 217c0 183 148 326 312 326c105 0 166 -45 166 -128c0 -98 -101 -173 -279 -173c-40 0 -84 5 -131 13c-1 -11 -2 -21 -2 -32c0 -100 56 -165 165 -165c65 0 125 33 166 81zM352 475
c-98 0 -188 -74 -222 -175c42 -8 82 -13 130 -13c134 1 202 58 202 112c0 41 -24 76 -110 76zM386 625l-117 129l36 36l90 -97l122 94l26 -40l-153 -122h-4z" />
    <glyph glyph-name="Gcircumflex" unicode="&#x11c;" horiz-adv-x="672" 
d="M415 281l12 66h253l-47 -257c-69 -63 -162 -99 -273 -99c-173 0 -287 115 -287 293c0 252 173 425 406 425c110 0 183 -35 231 -101l-45 -45c-44 48 -98 80 -191 80c-216 0 -331 -170 -331 -348c0 -145 92 -238 231 -238c65 0 139 19 201 66l29 158h-189zM504 905
l157 -103l-27 -43l-134 83l-159 -83l-19 45l178 101h4z" />
    <glyph glyph-name="gcircumflex" unicode="&#x11d;" horiz-adv-x="580" 
d="M583 520l-95 -482c-32 -176 -128 -247 -262 -247c-91 0 -173 54 -190 123l56 25c21 -50 67 -90 143 -90c104 0 167 60 193 199l5 26c-32 -41 -86 -84 -177 -84c-134 0 -204 92 -204 204c0 223 166 338 311 338c78 0 119 -27 149 -60l9 48h62zM270 48c86 0 152 62 181 119
l46 235c-18 36 -64 72 -138 72c-114 0 -241 -101 -241 -269c0 -91 54 -157 152 -157zM424 781l117 -129l-36 -36l-90 97l-122 -94l-26 40l153 122h4z" />
    <glyph glyph-name="Gbreve" unicode="&#x11e;" horiz-adv-x="672" 
d="M415 281l12 66h253l-47 -257c-69 -63 -162 -99 -273 -99c-173 0 -287 115 -287 293c0 252 173 425 406 425c110 0 183 -35 231 -101l-45 -45c-44 48 -98 80 -191 80c-216 0 -331 -170 -331 -348c0 -145 92 -238 231 -238c65 0 139 19 201 66l29 158h-189zM337 868l37 31
c15 -25 53 -62 125 -62c63 0 112 31 144 64l29 -35c-32 -41 -96 -89 -180 -89c-93 0 -136 51 -155 91z" />
    <glyph glyph-name="gbreve" unicode="&#x11f;" horiz-adv-x="580" 
d="M583 520l-95 -482c-32 -176 -128 -247 -262 -247c-91 0 -173 54 -190 123l56 25c21 -50 67 -90 143 -90c104 0 167 60 193 199l5 26c-32 -41 -86 -84 -177 -84c-134 0 -204 92 -204 204c0 223 166 338 311 338c78 0 119 -27 149 -60l9 48h62zM270 48c86 0 152 62 181 119
l46 235c-18 36 -64 72 -138 72c-114 0 -241 -101 -241 -269c0 -91 54 -157 152 -157zM271 733l34 30c17 -26 59 -58 106 -58c52 0 95 25 126 58l24 -35c-35 -47 -86 -85 -155 -85c-80 0 -123 64 -135 90z" />
    <glyph glyph-name="Gdotaccent" unicode="&#x120;" horiz-adv-x="672" 
d="M415 281l12 66h253l-47 -257c-69 -63 -162 -99 -273 -99c-173 0 -287 115 -287 293c0 252 173 425 406 425c110 0 183 -35 231 -101l-45 -45c-44 48 -98 80 -191 80c-216 0 -331 -170 -331 -348c0 -145 92 -238 231 -238c65 0 139 19 201 66l29 158h-189zM456 824
c0 24 19 44 43 44s44 -20 44 -44s-20 -43 -44 -43s-43 19 -43 43z" />
    <glyph glyph-name="gdotaccent" unicode="&#x121;" horiz-adv-x="580" 
d="M583 520l-95 -482c-32 -176 -128 -247 -262 -247c-91 0 -173 54 -190 123l56 25c21 -50 67 -90 143 -90c104 0 167 60 193 199l5 26c-32 -41 -86 -84 -177 -84c-134 0 -204 92 -204 204c0 223 166 338 311 338c78 0 119 -27 149 -60l9 48h62zM270 48c86 0 152 62 181 119
l46 235c-18 36 -64 72 -138 72c-114 0 -241 -101 -241 -269c0 -91 54 -157 152 -157zM336 684c0 23 18 42 42 42s43 -19 43 -42c0 -24 -19 -41 -43 -41s-42 17 -42 41z" />
    <glyph glyph-name="Gcommaaccent" unicode="&#x122;" horiz-adv-x="672" 
d="M415 281l12 66h253l-47 -257c-69 -63 -162 -99 -273 -99c-173 0 -287 115 -287 293c0 252 173 425 406 425c110 0 183 -35 231 -101l-45 -45c-44 48 -98 80 -191 80c-216 0 -331 -170 -331 -348c0 -145 92 -238 231 -238c65 0 139 19 201 66l29 158h-189zM319 -86l58 37
c10 -13 20 -36 20 -61c0 -65 -57 -119 -95 -141l-26 29c28 24 59 57 59 94c0 18 -7 30 -16 42z" />
    <glyph glyph-name="gcommaaccent" unicode="&#x123;" horiz-adv-x="580" 
d="M441 635l-55 -35c-15 16 -23 41 -23 68c0 57 49 106 96 133l26 -33c-29 -23 -58 -52 -58 -90c0 -18 5 -30 14 -43zM583 520l-95 -482c-32 -176 -128 -247 -262 -247c-91 0 -173 54 -190 123l56 25c21 -50 67 -90 143 -90c104 0 167 60 193 199l5 26
c-32 -41 -86 -84 -177 -84c-134 0 -204 92 -204 204c0 223 166 338 311 338c78 0 119 -27 149 -60l9 48h62zM270 48c86 0 152 62 181 119l46 235c-18 36 -64 72 -138 72c-114 0 -241 -101 -241 -269c0 -91 54 -157 152 -157z" />
    <glyph glyph-name="Hcircumflex" unicode="&#x124;" horiz-adv-x="709" 
d="M548 0l60 323h-428l-59 -323h-68l128 700h69l-57 -311h427l57 311h69l-130 -700h-68zM497 905l157 -103l-27 -43l-134 83l-159 -83l-19 45l178 101h4z" />
    <glyph glyph-name="hcircumflex" unicode="&#x125;" horiz-adv-x="579" 
d="M42 0l141 730h62l-52 -285c49 50 120 87 203 87c100 0 159 -61 159 -158c0 -27 -6 -68 -11 -97l-58 -277h-61l55 269c4 22 11 50 11 95c-1 71 -40 110 -107 110c-90 0 -172 -59 -210 -127l-70 -347h-62zM240 879l157 -103l-27 -43l-134 83l-159 -83l-19 45l178 101h4z
" />
    <glyph glyph-name="Hbar" unicode="&#x126;" horiz-adv-x="709" 
d="M76 519l10 59h74l22 122h68l-23 -122h427l23 122h68l-23 -122h73l-10 -59h-74l-95 -519h-68l60 323h-428l-59 -323h-68l96 519h-73zM193 389h427l24 130h-427z" />
    <glyph glyph-name="hbar" unicode="&#x127;" horiz-adv-x="594" 
d="M234 591l-26 -146c49 50 120 87 203 87c100 0 159 -61 159 -158c0 -27 -6 -68 -11 -97l-58 -277h-61l55 269c4 22 11 50 11 95c-1 71 -40 110 -107 110c-90 0 -172 -59 -210 -127l-70 -347h-62l115 591h-63l12 61h62l15 78h62l-15 -78h104l-12 -61h-103z" />
    <glyph glyph-name="Imacron" unicode="&#x12a;" horiz-adv-x="233" 
d="M63 0l127 700h69l-129 -700h-67zM101 795l11 58h282l-11 -58h-282z" />
    <glyph glyph-name="imacron" unicode="&#x12b;" horiz-adv-x="226" 
d="M82 0l96 520h61l-96 -520h-61zM109 647l11 59h248l-11 -59h-248z" />
    <glyph glyph-name="Iogonek" unicode="&#x12e;" horiz-adv-x="233" 
d="M96 -139l2 -46c-18 -9 -43 -15 -73 -15c-46 0 -93 23 -93 84c0 62 56 110 133 130l127 686h67l-129 -700h-4c-55 0 -136 -42 -136 -105c0 -33 26 -43 53 -43c19 0 36 3 53 9z" />
    <glyph glyph-name="iogonek" unicode="&#x12f;" horiz-adv-x="226" 
d="M111 -135l10 -47c-18 -10 -40 -18 -73 -18c-42 0 -86 24 -86 81c0 67 62 112 122 131l94 508h61l-96 -520h-5c-40 0 -110 -43 -110 -100c0 -26 16 -44 38 -44c11 0 27 1 45 9zM197 678c0 29 26 50 51 50c19 0 34 -15 34 -36c0 -28 -26 -51 -49 -51c-21 0 -36 16 -36 37z
" />
    <glyph glyph-name="Idotaccent" unicode="&#x130;" horiz-adv-x="233" 
d="M63 0l127 700h69l-129 -700h-67zM205 824c0 24 19 44 43 44s44 -20 44 -44s-20 -43 -44 -43s-43 19 -43 43z" />
    <glyph glyph-name="dotlessi" unicode="&#x131;" horiz-adv-x="226" 
d="M82 0l96 520h61l-96 -520h-61z" />
    <glyph glyph-name="Jcircumflex" unicode="&#x134;" horiz-adv-x="461" 
d="M499 700l-92 -492c-24 -136 -100 -217 -236 -217c-104 0 -155 68 -171 125l55 37c20 -59 61 -97 124 -97c82 2 140 43 163 164l88 480h69zM490 905l157 -103l-27 -43l-134 83l-159 -83l-19 45l178 101h4z" />
    <glyph glyph-name="jcircumflex" unicode="&#x135;" horiz-adv-x="228" 
d="M243 520l-97 -525c-23 -128 -84 -204 -185 -204c-58 0 -102 27 -115 70l56 34c12 -19 22 -42 69 -42c57 0 97 53 114 145l96 522h62zM259 781l117 -129l-36 -36l-90 97l-122 -94l-26 40l153 122h4z" />
    <glyph glyph-name="Kcommaaccent" unicode="&#x136;" horiz-adv-x="617" 
d="M53 0l129 700h68l-67 -358l417 358h100l-380 -324l267 -376h-85l-237 330l-98 -79l-46 -251h-68zM227 -86l58 37c10 -13 20 -36 20 -61c0 -65 -57 -119 -95 -141l-26 29c28 24 59 57 59 94c0 18 -7 30 -16 42z" />
    <glyph glyph-name="kcommaaccent" unicode="&#x137;" horiz-adv-x="497" 
d="M42 0l135 730h62l-85 -459l313 249h90l-292 -236l209 -284h-79l-185 250l-69 -51l-37 -199h-62zM190 -86l58 37c10 -13 20 -36 20 -61c0 -65 -57 -119 -95 -141l-26 29c28 24 59 57 59 94c0 18 -7 30 -16 42z" />
    <glyph glyph-name="Lacute" unicode="&#x139;" horiz-adv-x="555" 
d="M53 0l128 700h69l-117 -634h405l-13 -66h-472zM555 853l-187 -91l-18 45l183 102z" />
    <glyph glyph-name="lacute" unicode="&#x13a;" horiz-adv-x="209" 
d="M48 0l139 730h62l-139 -730h-62zM416 853l-187 -91l-18 45l183 102z" />
    <glyph glyph-name="Lcommaaccent" unicode="&#x13b;" horiz-adv-x="555" 
d="M53 0l128 700h69l-117 -634h405l-13 -66h-472zM229 -86l58 37c10 -13 20 -36 20 -61c0 -65 -57 -119 -95 -141l-26 29c28 24 59 57 59 94c0 18 -7 30 -16 42z" />
    <glyph glyph-name="lcommaaccent" unicode="&#x13c;" horiz-adv-x="209" 
d="M48 0l139 730h62l-139 -730h-62zM45 -86l58 37c10 -13 20 -36 20 -61c0 -65 -57 -119 -95 -141l-26 29c28 24 59 57 59 94c0 18 -7 30 -16 42z" />
    <glyph glyph-name="Lcaron" unicode="&#x13d;" horiz-adv-x="555" 
d="M53 0l128 700h69l-117 -634h405l-13 -66h-472zM478 700h63c2 -7 3 -19 3 -32c0 -83 -64 -145 -110 -172l-23 34c39 26 74 75 74 127c0 17 -3 36 -7 43z" />
    <glyph glyph-name="lcaron" unicode="&#x13e;" horiz-adv-x="209" 
d="M48 0l139 730h62l-139 -730h-62zM334 730h63c2 -7 3 -19 3 -32c0 -83 -64 -145 -110 -172l-23 34c39 26 74 75 74 127c0 17 -3 36 -7 43z" />
    <glyph glyph-name="Ldot" unicode="&#x13f;" horiz-adv-x="555" 
d="M53 0l128 700h69l-117 -634h405l-13 -66h-472zM391 375c0 20 19 42 46 42c25 0 44 -22 44 -42c0 -23 -19 -44 -44 -44c-27 0 -46 21 -46 44z" />
    <glyph glyph-name="ldot" unicode="&#x140;" horiz-adv-x="209" 
d="M48 0l139 730h62l-139 -730h-62zM254 362c0 20 19 42 46 42c25 0 44 -22 44 -42c0 -23 -19 -44 -44 -44c-27 0 -46 21 -46 44z" />
    <glyph glyph-name="Lslash" unicode="&#x141;" horiz-adv-x="560" 
d="M8 155l14 74l91 62l76 409h67l-65 -357l227 155l-14 -74l-227 -155l-37 -203h404l-12 -66h-472l40 217z" />
    <glyph glyph-name="lslash" unicode="&#x142;" horiz-adv-x="261" 
d="M38 206l13 74l111 75l70 375h62l-61 -327l118 80l-15 -74l-117 -80l-60 -329h-62l52 281z" />
    <glyph glyph-name="Nacute" unicode="&#x143;" horiz-adv-x="699" 
d="M605 0h-53l-328 577l-106 -577h-65l129 700h54l326 -579l107 579h65zM646 853l-187 -91l-18 45l183 102z" />
    <glyph glyph-name="nacute" unicode="&#x144;" horiz-adv-x="583" 
d="M48 0l100 520h62l-13 -75c49 50 120 87 203 87c100 0 159 -61 159 -158c0 -27 -6 -68 -11 -97l-59 -277h-61l56 269c4 22 11 50 11 95c-1 71 -40 110 -107 110c-90 0 -172 -59 -210 -127l-68 -347h-62zM547 762l-131 -148l-43 30l124 155z" />
    <glyph glyph-name="Ncommaaccent" unicode="&#x145;" horiz-adv-x="699" 
d="M605 0h-53l-328 577l-106 -577h-65l129 700h54l326 -579l107 579h65zM284 -86l58 37c10 -13 20 -36 20 -61c0 -65 -57 -119 -95 -141l-26 29c28 24 59 57 59 94c0 18 -7 30 -16 42z" />
    <glyph glyph-name="ncommaaccent" unicode="&#x146;" horiz-adv-x="583" 
d="M48 0l100 520h62l-13 -75c49 50 120 87 203 87c100 0 159 -61 159 -158c0 -27 -6 -68 -11 -97l-59 -277h-61l56 269c4 22 11 50 11 95c-1 71 -40 110 -107 110c-90 0 -172 -59 -210 -127l-68 -347h-62zM234 -86l58 37c10 -13 20 -36 20 -61c0 -65 -57 -119 -95 -141
l-26 29c28 24 59 57 59 94c0 18 -7 30 -16 42z" />
    <glyph glyph-name="Ncaron" unicode="&#x147;" horiz-adv-x="699" 
d="M605 0h-53l-328 577l-106 -577h-65l129 700h54l326 -579l107 579h65zM473 759l-157 103l27 43l134 -83l159 83l19 -45l-178 -101h-4z" />
    <glyph glyph-name="ncaron" unicode="&#x148;" horiz-adv-x="583" 
d="M48 0l100 520h62l-13 -75c49 50 120 87 203 87c100 0 159 -61 159 -158c0 -27 -6 -68 -11 -97l-59 -277h-61l56 269c4 22 11 50 11 95c-1 71 -40 110 -107 110c-90 0 -172 -59 -210 -127l-68 -347h-62zM410 625l-117 129l36 36l90 -97l122 94l26 -40l-153 -122h-4z" />
    <glyph glyph-name="Omacron" unicode="&#x14c;" horiz-adv-x="744" 
d="M74 288c0 244 176 421 401 421c174 0 285 -126 285 -297c0 -259 -188 -421 -401 -421c-172 0 -285 123 -285 297zM144 296c0 -143 90 -239 219 -239c182 0 327 141 327 344c0 124 -71 242 -219 242c-200 0 -327 -160 -327 -347zM358 795l11 58h282l-11 -58h-282z" />
    <glyph glyph-name="omacron" unicode="&#x14d;" horiz-adv-x="590" 
d="M50 198c0 205 157 335 314 335c134 0 220 -93 220 -212c0 -203 -147 -331 -302 -331c-138 0 -232 87 -232 208zM116 216c0 -102 61 -168 169 -168c124 0 232 105 232 260c0 108 -69 167 -157 167c-133 0 -244 -110 -244 -259zM288 647l11 59h248l-11 -59h-248z" />
    <glyph glyph-name="Ohungarumlaut" unicode="&#x150;" horiz-adv-x="744" 
d="M74 288c0 244 176 421 401 421c174 0 285 -126 285 -297c0 -259 -188 -421 -401 -421c-172 0 -285 123 -285 297zM144 296c0 -143 90 -239 219 -239c182 0 327 141 327 344c0 124 -71 242 -219 242c-200 0 -327 -160 -327 -347zM734 850l-171 -94l-26 37l166 106z
M563 853l-163 -97l-25 36l155 107z" />
    <glyph glyph-name="ohungarumlaut" unicode="&#x151;" horiz-adv-x="590" 
d="M50 198c0 205 157 335 314 335c134 0 220 -93 220 -212c0 -203 -147 -331 -302 -331c-138 0 -232 87 -232 208zM116 216c0 -102 61 -168 169 -168c124 0 232 105 232 260c0 108 -69 167 -157 167c-133 0 -244 -110 -244 -259zM625 777l-146 -163l-37 28l138 170zM486 779
l-144 -165l-37 28l136 172z" />
    <glyph glyph-name="OE" unicode="&#x152;" horiz-adv-x="1136" 
d="M583 0l16 88c-70 -65 -159 -97 -248 -97c-164 0 -277 123 -277 297c0 255 184 421 409 421c91 0 167 -44 212 -105l18 96h474l-12 -66h-407l-45 -245h380l-12 -66h-380l-48 -257h416l-12 -66h-484zM364 57c100 0 195 55 256 142l56 302c-29 89 -107 142 -205 142
c-168 0 -326 -126 -326 -343c0 -154 95 -243 219 -243z" />
    <glyph glyph-name="oe" unicode="&#x153;" horiz-adv-x="919" 
d="M838 129l37 -40c-49 -68 -143 -99 -217 -99c-76 0 -138 29 -176 81c-56 -53 -127 -81 -200 -81c-137 0 -232 87 -232 208c0 205 158 335 315 335c80 0 142 -34 179 -86c57 53 131 86 209 86c105 0 166 -45 166 -128c0 -98 -101 -173 -279 -173c-40 0 -84 5 -131 13
c-1 -11 -2 -21 -2 -32c0 -100 56 -165 165 -165c65 0 125 33 166 81zM286 52c62 0 123 25 167 74c-8 24 -12 51 -12 81c0 72 23 137 60 191c-29 46 -86 73 -146 73c-112 0 -239 -106 -239 -255c0 -95 62 -164 170 -164zM743 475c-98 0 -188 -74 -222 -175
c42 -8 82 -13 130 -13c134 1 202 58 202 112c0 41 -24 76 -110 76z" />
    <glyph glyph-name="Racute" unicode="&#x154;" horiz-adv-x="641" 
d="M121 0h-68l129 700h251c148 0 220 -63 220 -173c0 -125 -94 -211 -216 -230l163 -297h-77l-155 286h-194zM418 634h-181l-52 -282h186c123 0 211 68 211 170c0 65 -43 112 -164 112zM565 853l-187 -91l-18 45l183 102z" />
    <glyph glyph-name="racute" unicode="&#x155;" horiz-adv-x="345" 
d="M48 0l99 520h62l-10 -55c26 44 81 67 122 67c45 0 75 -19 92 -48l-50 -39c-10 17 -25 29 -60 29c-49 0 -100 -48 -122 -106l-71 -368h-62zM447 762l-131 -148l-43 30l124 155z" />
    <glyph glyph-name="Rcommaaccent" unicode="&#x156;" horiz-adv-x="641" 
d="M121 0h-68l129 700h251c148 0 220 -63 220 -173c0 -125 -94 -211 -216 -230l163 -297h-77l-155 286h-194zM418 634h-181l-52 -282h186c123 0 211 68 211 170c0 65 -43 112 -164 112zM245 -86l58 37c10 -13 20 -36 20 -61c0 -65 -57 -119 -95 -141l-26 29
c28 24 59 57 59 94c0 18 -7 30 -16 42z" />
    <glyph glyph-name="rcommaaccent" unicode="&#x157;" horiz-adv-x="345" 
d="M48 0l99 520h62l-10 -55c26 44 81 67 122 67c45 0 75 -19 92 -48l-50 -39c-10 17 -25 29 -60 29c-49 0 -100 -48 -122 -106l-71 -368h-62zM82 -86l58 37c10 -13 20 -36 20 -61c0 -65 -57 -119 -95 -141l-26 29c28 24 59 57 59 94c0 18 -7 30 -16 42z" />
    <glyph glyph-name="Rcaron" unicode="&#x158;" horiz-adv-x="641" 
d="M121 0h-68l129 700h251c148 0 220 -63 220 -173c0 -125 -94 -211 -216 -230l163 -297h-77l-155 286h-194zM418 634h-181l-52 -282h186c123 0 211 68 211 170c0 65 -43 112 -164 112zM414 759l-157 103l27 43l134 -83l159 83l19 -45l-178 -101h-4z" />
    <glyph glyph-name="rcaron" unicode="&#x159;" horiz-adv-x="345" 
d="M48 0l99 520h62l-10 -55c26 44 81 67 122 67c45 0 75 -19 92 -48l-50 -39c-10 17 -25 29 -60 29c-49 0 -100 -48 -122 -106l-71 -368h-62zM280 625l-117 129l36 36l90 -97l122 94l26 -40l-153 -122h-4z" />
    <glyph glyph-name="Sacute" unicode="&#x15a;" horiz-adv-x="583" 
d="M487 196c0 165 -364 84 -364 302c0 134 125 211 279 211c100 0 182 -35 218 -99l-47 -41c-41 46 -94 74 -184 74c-73 0 -196 -34 -196 -139c0 -154 364 -79 364 -298c0 -128 -118 -215 -266 -215c-116 0 -207 48 -250 134l49 45c45 -73 105 -113 210 -113
c108 0 187 62 187 139zM582 853l-187 -91l-18 45l183 102z" />
    <glyph glyph-name="sacute" unicode="&#x15b;" horiz-adv-x="450" 
d="M353 138c0 129 -248 83 -248 247c0 99 88 148 186 148c100 0 157 -38 192 -85l-46 -42c-25 33 -76 69 -140 69c-58 0 -126 -28 -126 -86c0 -113 249 -68 249 -248c0 -105 -106 -151 -190 -151c-111 0 -185 51 -223 124l51 36c34 -64 92 -102 177 -102c52 0 118 31 118 90
zM490 762l-131 -148l-43 30l124 155z" />
    <glyph glyph-name="Scircumflex" unicode="&#x15c;" horiz-adv-x="583" 
d="M487 196c0 165 -364 84 -364 302c0 134 125 211 279 211c100 0 182 -35 218 -99l-47 -41c-41 46 -94 74 -184 74c-73 0 -196 -34 -196 -139c0 -154 364 -79 364 -298c0 -128 -118 -215 -266 -215c-116 0 -207 48 -250 134l49 45c45 -73 105 -113 210 -113
c108 0 187 62 187 139zM435 905l157 -103l-27 -43l-134 83l-159 -83l-19 45l178 101h4z" />
    <glyph glyph-name="scircumflex" unicode="&#x15d;" horiz-adv-x="450" 
d="M353 138c0 129 -248 83 -248 247c0 99 88 148 186 148c100 0 157 -38 192 -85l-46 -42c-25 33 -76 69 -140 69c-58 0 -126 -28 -126 -86c0 -113 249 -68 249 -248c0 -105 -106 -151 -190 -151c-111 0 -185 51 -223 124l51 36c34 -64 92 -102 177 -102c52 0 118 31 118 90
zM383 781l117 -129l-36 -36l-90 97l-122 -94l-26 40l153 122h4z" />
    <glyph glyph-name="Scedilla" unicode="&#x15e;" horiz-adv-x="583" 
d="M141 -173l29 43c21 -13 45 -21 67 -21c45 0 59 13 59 39c0 20 -17 27 -48 27h-22l14 79c-99 12 -174 66 -202 129l55 49c29 -55 97 -115 207 -115c90 0 187 54 187 143c0 160 -365 78 -365 290c0 119 116 219 280 219c100 0 182 -32 218 -96l-51 -45
c-33 41 -90 75 -180 75c-73 0 -196 -34 -196 -136c0 -160 366 -82 366 -289c0 -132 -126 -226 -276 -227l-6 -32c58 -2 82 -29 82 -64c0 -49 -38 -97 -126 -97c-37 0 -71 11 -92 29z" />
    <glyph glyph-name="scedilla" unicode="&#x15f;" horiz-adv-x="472" 
d="M113 -173l27 43c20 -13 44 -21 67 -21c44 0 59 13 59 39c0 20 -18 27 -49 27h-21l14 77c-80 10 -144 54 -162 120l56 38c20 -61 84 -98 155 -98c58 0 143 24 143 95c0 103 -287 70 -287 221c0 98 88 165 219 165c78 0 150 -38 175 -89l-53 -42c-18 38 -76 69 -138 69
c-68 0 -136 -21 -136 -87c0 -99 287 -71 287 -225c0 -112 -103 -167 -217 -169l-6 -31c57 -2 81 -29 81 -65c0 -49 -41 -96 -128 -96c-34 0 -66 11 -86 29z" />
    <glyph glyph-name="Scaron" unicode="&#x160;" horiz-adv-x="583" 
d="M487 196c0 165 -364 84 -364 302c0 134 125 211 279 211c100 0 182 -35 218 -99l-47 -41c-41 46 -94 74 -184 74c-73 0 -196 -34 -196 -139c0 -154 364 -79 364 -298c0 -128 -118 -215 -266 -215c-116 0 -207 48 -250 134l49 45c45 -73 105 -113 210 -113
c108 0 187 62 187 139zM415 759l-157 103l27 43l134 -83l159 83l19 -45l-178 -101h-4z" />
    <glyph glyph-name="scaron" unicode="&#x161;" horiz-adv-x="450" 
d="M353 138c0 129 -248 83 -248 247c0 99 88 148 186 148c100 0 157 -38 192 -85l-46 -42c-25 33 -76 69 -140 69c-58 0 -126 -28 -126 -86c0 -113 249 -68 249 -248c0 -105 -106 -151 -190 -151c-111 0 -185 51 -223 124l51 36c34 -64 92 -102 177 -102c52 0 118 31 118 90
zM352 625l-117 129l36 36l90 -97l122 94l26 -40l-153 -122h-4z" />
    <glyph glyph-name="Tcedilla" unicode="&#x162;" horiz-adv-x="548" 
d="M233 0h-13l117 634h-237l12 66h542l-12 -66h-237l-117 -634h-12l-9 -41c58 -2 81 -29 81 -70c0 -54 -43 -91 -124 -91c-31 0 -68 10 -92 31l26 41c22 -13 45 -21 68 -21c45 0 59 13 59 34c0 25 -17 32 -49 32h-21z" />
    <glyph glyph-name="tcedilla" unicode="&#x163;" horiz-adv-x="363" 
d="M57 -172l27 42c21 -13 45 -21 67 -21c44 0 59 13 59 39c0 20 -18 27 -49 27h-21l16 85c-46 14 -71 50 -72 99c0 22 6 65 12 95l55 268h-99l10 58h99l22 117h61l-20 -117h175l-10 -58h-176l-52 -253c-6 -29 -11 -70 -11 -96c0 -45 30 -62 69 -62c49 0 81 28 100 48l31 -41
c-30 -36 -86 -65 -143 -65h-10l-6 -34c56 -2 80 -29 80 -69c0 -59 -51 -92 -123 -92c-38 0 -70 12 -91 30z" />
    <glyph glyph-name="Tcaron" unicode="&#x164;" horiz-adv-x="548" 
d="M100 634l12 66h542l-12 -66h-237l-117 -634h-68l117 634h-237zM398 759l-157 103l27 43l134 -83l159 83l19 -45l-178 -101h-4z" />
    <glyph glyph-name="tcaron" unicode="&#x165;" horiz-adv-x="374" 
d="M85 458l12 62h99l22 117h61l-79 -428c-21 -116 2 -154 70 -154c38 0 70 24 89 44l31 -39c-31 -36 -86 -67 -143 -67c-99 0 -135 70 -111 201l48 264h-99zM389 725h62c2 -7 3 -19 3 -32c0 -83 -64 -145 -111 -172l-22 28c39 26 73 81 73 133c0 17 -2 36 -5 43z" />
    <glyph glyph-name="Umacron" unicode="&#x16a;" horiz-adv-x="683" 
d="M728 700l-75 -406c-31 -165 -131 -302 -316 -302c-131 0 -244 77 -243 236c0 23 2 47 7 73l74 399h66l-71 -388c-4 -23 -6 -54 -6 -71c0 -130 77 -183 178 -183c133 0 217 96 246 249l72 393h68zM326 795l11 58h282l-11 -58h-282z" />
    <glyph glyph-name="umacron" unicode="&#x16b;" horiz-adv-x="574" 
d="M571 520l-100 -520h-61l15 87c-47 -59 -115 -97 -202 -97c-97 0 -159 49 -159 142c0 26 4 58 10 88l60 300h63l-57 -287c-5 -22 -11 -54 -10 -95c1 -47 26 -90 113 -90c81 0 153 51 198 120l69 352h61zM275 647l11 59h248l-11 -59h-248z" />
    <glyph glyph-name="Ubreve" unicode="&#x16c;" horiz-adv-x="683" 
d="M728 700l-75 -406c-31 -165 -131 -302 -316 -302c-131 0 -244 77 -243 236c0 23 2 47 7 73l74 399h66l-71 -388c-4 -23 -6 -54 -6 -71c0 -130 77 -183 178 -183c133 0 217 96 246 249l72 393h68zM316 868l37 31c15 -25 53 -62 125 -62c63 0 112 31 144 64l29 -35
c-32 -41 -96 -89 -180 -89c-93 0 -136 51 -155 91z" />
    <glyph glyph-name="ubreve" unicode="&#x16d;" horiz-adv-x="574" 
d="M571 520l-100 -520h-61l15 87c-47 -59 -115 -97 -202 -97c-97 0 -159 49 -159 142c0 26 4 58 10 88l60 300h63l-57 -287c-5 -22 -11 -54 -10 -95c1 -47 26 -90 113 -90c81 0 153 51 198 120l69 352h61zM264 733l34 30c17 -26 59 -58 106 -58c52 0 95 25 126 58l24 -35
c-35 -47 -86 -85 -155 -85c-80 0 -123 64 -135 90z" />
    <glyph glyph-name="Uring" unicode="&#x16e;" horiz-adv-x="683" 
d="M728 700l-75 -406c-31 -165 -131 -302 -316 -302c-131 0 -244 77 -243 236c0 23 2 47 7 73l74 399h66l-71 -388c-4 -23 -6 -54 -6 -71c0 -130 77 -183 178 -183c133 0 217 96 246 249l72 393h68zM365 811c0 59 49 106 120 106c57 0 97 -36 97 -85
c0 -70 -60 -107 -122 -107c-60 0 -95 38 -95 86zM415 814c0 -27 22 -43 49 -43c45 0 67 26 67 56c0 26 -19 43 -49 43c-43 0 -67 -22 -67 -56z" />
    <glyph glyph-name="uring" unicode="&#x16f;" horiz-adv-x="574" 
d="M571 520l-100 -520h-61l15 87c-47 -59 -115 -97 -202 -97c-97 0 -159 49 -159 142c0 26 4 58 10 88l60 300h63l-57 -287c-5 -22 -11 -54 -10 -95c1 -47 26 -90 113 -90c81 0 153 51 198 120l69 352h61zM311 690c0 56 47 110 110 110c57 0 85 -41 85 -88
c0 -50 -42 -109 -112 -109c-51 0 -83 37 -83 87zM359 693c0 -26 16 -42 40 -42c31 0 59 21 59 58c0 28 -16 43 -41 43c-36 0 -58 -26 -58 -59z" />
    <glyph glyph-name="Uhungarumlaut" unicode="&#x170;" horiz-adv-x="683" 
d="M728 700l-75 -406c-31 -165 -131 -302 -316 -302c-131 0 -244 77 -243 236c0 23 2 47 7 73l74 399h66l-71 -388c-4 -23 -6 -54 -6 -71c0 -130 77 -183 178 -183c133 0 217 96 246 249l72 393h68zM705 850l-171 -94l-26 37l166 106zM534 853l-163 -97l-25 36l155 107z" />
    <glyph glyph-name="uhungarumlaut" unicode="&#x171;" horiz-adv-x="574" 
d="M571 520l-100 -520h-61l15 87c-47 -59 -115 -97 -202 -97c-97 0 -159 49 -159 142c0 26 4 58 10 88l60 300h63l-57 -287c-5 -22 -11 -54 -10 -95c1 -47 26 -90 113 -90c81 0 153 51 198 120l69 352h61zM610 777l-146 -163l-37 28l138 170zM471 779l-144 -165l-37 28
l136 172z" />
    <glyph glyph-name="Uogonek" unicode="&#x172;" horiz-adv-x="683" 
d="M729 700l-75 -406c-37 -197 -167 -286 -290 -300c-43 -19 -81 -55 -81 -97c0 -35 26 -45 52 -45c19 0 37 3 54 9l2 -46c-17 -9 -43 -15 -73 -15c-46 0 -93 20 -93 86c0 48 40 91 82 107c-142 9 -242 113 -206 308l74 399h66l-71 -388c-31 -171 56 -254 172 -254
c133 0 217 96 246 249l72 393h69z" />
    <glyph glyph-name="uogonek" unicode="&#x173;" horiz-adv-x="574" 
d="M413 18l12 69c-47 -59 -115 -97 -202 -97c-97 0 -159 49 -159 142c0 26 4 58 10 88l60 300h63l-57 -287c-5 -22 -11 -54 -10 -95c1 -47 26 -90 113 -90c81 0 153 51 198 120l69 352h61l-100 -520h-4c-39 0 -112 -42 -112 -102c0 -27 17 -42 39 -42c10 0 26 1 44 9l9 -49
c-18 -10 -40 -16 -66 -16c-49 0 -92 24 -92 89c0 64 60 111 124 129z" />
    <glyph glyph-name="Ydieresis" unicode="&#x178;" horiz-adv-x="596" 
d="M707 700l-340 -394l-56 -306h-68l56 306l-192 394h75l159 -325l281 325h85zM277 825c0 23 18 42 41 42s42 -19 42 -42s-19 -41 -42 -41s-41 18 -41 41zM498 825c0 23 18 42 41 42s42 -19 42 -42s-19 -41 -42 -41s-41 18 -41 41z" />
    <glyph glyph-name="Zacute" unicode="&#x179;" horiz-adv-x="598" 
d="M128 634l13 66h537l-8 -48l-558 -586h459l-12 -66h-566l9 48l558 586h-432zM587 853l-187 -91l-18 45l183 102z" />
    <glyph glyph-name="zacute" unicode="&#x17a;" horiz-adv-x="466" 
d="M95 462l11 58h410v-35l-421 -427h333l-12 -58h-420v38l419 424h-320zM478 762l-131 -148l-43 30l124 155z" />
    <glyph glyph-name="Zdotaccent" unicode="&#x17b;" horiz-adv-x="598" 
d="M128 634l13 66h537l-8 -48l-558 -586h459l-12 -66h-566l9 48l558 586h-432zM389 824c0 24 19 44 43 44s44 -20 44 -44s-20 -43 -44 -43s-43 19 -43 43z" />
    <glyph glyph-name="zdotaccent" unicode="&#x17c;" horiz-adv-x="466" 
d="M95 462l11 58h410v-35l-421 -427h333l-12 -58h-420v38l419 424h-320zM282 684c0 23 18 42 42 42s43 -19 43 -42c0 -24 -19 -41 -43 -41s-42 17 -42 41z" />
    <glyph glyph-name="Zcaron" unicode="&#x17d;" horiz-adv-x="598" 
d="M128 634l13 66h537l-8 -48l-558 -586h459l-12 -66h-566l9 48l558 586h-432zM422 759l-157 103l27 43l134 -83l159 83l19 -45l-178 -101h-4z" />
    <glyph glyph-name="zcaron" unicode="&#x17e;" horiz-adv-x="466" 
d="M95 462l11 58h410v-35l-421 -427h333l-12 -58h-420v38l419 424h-320zM348 625l-117 129l36 36l90 -97l122 94l26 -40l-153 -122h-4z" />
    <glyph glyph-name="uni018F" unicode="&#x18f;" horiz-adv-x="715" 
d="M63 271c0 44 10 81 23 119h576c15 154 -70 254 -215 254c-87 0 -186 -45 -249 -114l-38 47c77 86 193 132 292 132c181 0 280 -110 280 -282c0 -255 -162 -436 -395 -436c-152 0 -274 84 -274 280zM652 324h-519c-3 -17 -5 -34 -5 -51c-2 -132 75 -217 215 -217
c154 0 276 103 309 268z" />
    <glyph glyph-name="florin" unicode="&#x192;" horiz-adv-x="580" 
d="M392 506c-3 -18 -7 -36 -10 -54h161v-61h-172l-67 -377c-18 -104 -42 -222 -172 -222c-41 0 -78 14 -98 33l20 52c18 -14 42 -24 68 -24c65 0 95 43 109 123l74 415h-152v61h163l11 65c18 101 57 192 179 192c56 0 95 -18 119 -38l-24 -52c-23 18 -49 29 -87 29
c-70 0 -103 -42 -122 -142z" />
    <glyph glyph-name="uni01DD" unicode="&#x1dd;" horiz-adv-x="516" 
d="M113 395l-34 42c48 65 139 96 213 96c128 0 218 -85 218 -217c0 -183 -103 -326 -298 -326c-107 0 -180 53 -180 139c0 100 91 184 258 184c48 0 100 -10 155 -30c0 9 1 18 1 27c0 100 -67 163 -167 163c-65 0 -123 -31 -166 -78zM219 48c110 0 189 69 216 175
c-49 23 -99 32 -145 32c-125 0 -192 -53 -192 -112c0 -56 37 -95 121 -95z" />
    <glyph glyph-name="Scommaaccent" unicode="&#x218;" horiz-adv-x="583" 
d="M487 196c0 165 -364 84 -364 302c0 134 125 211 279 211c100 0 182 -35 218 -99l-47 -41c-41 46 -94 74 -184 74c-73 0 -196 -34 -196 -139c0 -154 364 -79 364 -298c0 -128 -118 -215 -266 -215c-116 0 -207 48 -250 134l49 45c45 -73 105 -113 210 -113
c108 0 187 62 187 139zM220 -86l58 37c10 -13 20 -36 20 -61c0 -65 -57 -119 -95 -141l-26 29c28 24 59 57 59 94c0 18 -7 30 -16 42z" />
    <glyph glyph-name="scommaaccent" unicode="&#x219;" horiz-adv-x="450" 
d="M353 138c0 129 -248 83 -248 247c0 99 88 148 186 148c100 0 157 -38 192 -85l-46 -42c-25 33 -76 69 -140 69c-58 0 -126 -28 -126 -86c0 -113 249 -68 249 -248c0 -105 -106 -151 -190 -151c-111 0 -185 51 -223 124l51 36c34 -64 92 -102 177 -102c52 0 118 31 118 90
zM186 -86l58 37c10 -13 20 -36 20 -61c0 -65 -57 -119 -95 -141l-26 29c28 24 59 57 59 94c0 18 -7 30 -16 42z" />
    <glyph glyph-name="Tcommaaccent" unicode="&#x21a;" horiz-adv-x="548" 
d="M100 634l12 66h542l-12 -66h-237l-117 -634h-68l117 634h-237zM203 -86l58 37c10 -13 20 -36 20 -61c0 -65 -57 -119 -95 -141l-26 29c28 24 59 57 59 94c0 18 -7 30 -16 42z" />
    <glyph glyph-name="tcommaaccent" unicode="&#x21b;" horiz-adv-x="363" 
d="M52 462l10 58h99l22 117h61l-20 -117h175l-10 -58h-176l-52 -253c-6 -29 -11 -70 -11 -96c0 -45 30 -62 69 -62c49 0 81 28 100 48l31 -41c-30 -36 -86 -65 -143 -65c-78 0 -122 42 -123 106c0 22 6 65 12 95l55 268h-99zM143 -86l58 37c10 -13 20 -36 20 -61
c0 -65 -57 -119 -95 -141l-26 29c28 24 59 57 59 94c0 18 -7 30 -16 42z" />
    <glyph glyph-name="uni0237" unicode="&#x237;" horiz-adv-x="228" 
d="M243 520l-97 -525c-23 -128 -84 -204 -185 -204c-58 0 -102 27 -115 70l56 34c12 -19 22 -42 69 -42c57 0 97 53 114 145l96 522h62z" />
    <glyph glyph-name="uni0259" unicode="&#x259;" horiz-adv-x="516" 
d="M113 395l-34 42c48 65 139 96 213 96c128 0 218 -85 218 -217c0 -183 -103 -326 -298 -326c-107 0 -180 53 -180 139c0 100 91 184 258 184c48 0 100 -10 155 -30c0 9 1 18 1 27c0 100 -67 163 -167 163c-65 0 -123 -31 -166 -78zM219 48c110 0 189 69 216 175
c-49 23 -99 32 -145 32c-125 0 -192 -53 -192 -112c0 -56 37 -95 121 -95z" />
    <glyph glyph-name="afii57929" unicode="&#x2bc;" horiz-adv-x="162" 
d="M207 696l58 34c11 -14 19 -40 19 -66c0 -72 -61 -124 -108 -152l-22 29c38 24 66 64 66 102c0 22 -6 43 -13 53z" />
    <glyph glyph-name="circumflex" unicode="&#x2c6;" horiz-adv-x="428" 
d="M437 781l117 -129l-36 -36l-90 97l-122 -94l-26 40l153 122h4z" />
    <glyph glyph-name="caron" unicode="&#x2c7;" horiz-adv-x="426" 
d="M404 625l-117 129l36 36l90 -97l122 94l26 -40l-153 -122h-4z" />
    <glyph glyph-name="breve" unicode="&#x2d8;" horiz-adv-x="426" 
d="M277 733l34 30c17 -26 59 -58 106 -58c52 0 95 25 126 58l24 -35c-35 -47 -86 -85 -155 -85c-80 0 -123 64 -135 90z" />
    <glyph glyph-name="dotaccent" unicode="&#x2d9;" horiz-adv-x="237" 
d="M162 684c0 23 18 42 42 42s43 -19 43 -42c0 -24 -19 -41 -43 -41s-42 17 -42 41z" />
    <glyph glyph-name="ring" unicode="&#x2da;" horiz-adv-x="389" 
d="M326 690c0 56 47 110 110 110c57 0 85 -41 85 -88c0 -50 -42 -109 -112 -109c-51 0 -83 37 -83 87zM374 693c0 -26 16 -42 40 -42c31 0 59 21 59 58c0 28 -16 43 -41 43c-36 0 -58 -26 -58 -59z" />
    <glyph glyph-name="ogonek" unicode="&#x2db;" horiz-adv-x="350" 
d="M307 -135l9 -49c-18 -10 -40 -16 -66 -16c-49 0 -92 24 -92 89c0 84 105 134 182 134l-4 -26c-39 0 -112 -39 -112 -99c0 -27 17 -42 39 -42c10 0 26 1 44 9z" />
    <glyph glyph-name="tilde" unicode="&#x2dc;" horiz-adv-x="437" 
d="M280 628l-26 36c34 35 68 59 103 59c53 0 76 -50 118 -50c24 0 47 15 68 35l24 -35c-23 -28 -61 -55 -96 -55c-56 0 -78 50 -118 50c-27 0 -45 -17 -73 -40z" />
    <glyph glyph-name="hungarumlaut" unicode="&#x2dd;" horiz-adv-x="501" 
d="M644 777l-146 -163l-37 28l138 170zM505 779l-144 -165l-37 28l136 172z" />
    <glyph glyph-name="gravecomb" unicode="&#x300;" horiz-adv-x="0" 
d="M-188 615l-122 147l50 38l110 -156z" />
    <glyph glyph-name="acutecomb" unicode="&#x301;" horiz-adv-x="0" 
d="M-53 762l-131 -148l-43 30l124 155z" />
    <glyph glyph-name="uni0394" unicode="&#x394;" horiz-adv-x="716" 
d="M72 0l303 708h43l310 -708h-656zM396 591l-224 -528h454c-78 178 -151 346 -230 528z" />
    <glyph glyph-name="uni0394" unicode="&#x2206;" horiz-adv-x="716" 
d="M72 0l303 708h43l310 -708h-656zM396 591l-224 -528h454c-78 178 -151 346 -230 528z" />
    <glyph glyph-name="uni03A9" unicode="&#x3a9;" horiz-adv-x="808" 
d="M129 0v66h131c-75 29 -157 134 -157 291c0 203 149 352 343 352c196 0 344 -149 344 -352c0 -159 -85 -254 -167 -291h139v-66h-266v66c103 28 221 129 221 288c0 162 -121 289 -271 289c-148 0 -271 -122 -271 -289c0 -160 117 -270 221 -288v-66h-267z" />
    <glyph glyph-name="uni03A9" unicode="&#x2126;" horiz-adv-x="808" 
d="M129 0v66h131c-75 29 -157 134 -157 291c0 203 149 352 343 352c196 0 344 -149 344 -352c0 -159 -85 -254 -167 -291h139v-66h-266v66c103 28 221 129 221 288c0 162 -121 289 -271 289c-148 0 -271 -122 -271 -289c0 -160 117 -270 221 -288v-66h-267z" />
    <glyph glyph-name="pi" unicode="&#x3c0;" horiz-adv-x="701" 
d="M109 458v62h615v-62h-124v-312c0 -64 16 -89 60 -89c25 0 55 13 73 27l12 -56c-23 -19 -60 -33 -95 -33c-68 0 -115 35 -115 133v330h-236v-67c0 -321 -68 -393 -206 -393l-3 63c89 0 143 42 144 317v80h-125z" />
    <glyph glyph-name="afii10023" unicode="&#x401;" horiz-adv-x="606" 
d="M53 0l128 700h475l-12 -66h-407l-44 -245h380l-13 -66h-380l-47 -257h416l-12 -66h-484zM290 825c0 23 18 42 41 42s42 -19 42 -42s-19 -41 -42 -41s-41 18 -41 41zM511 825c0 23 18 42 41 42s42 -19 42 -42s-19 -41 -42 -41s-41 18 -41 41z" />
    <glyph glyph-name="afii10051" unicode="&#x402;" horiz-adv-x="697" 
d="M616 244c0 78 -35 120 -109 120c-56 0 -129 -32 -169 -84l-51 -280h-68l117 635h-236l12 65h541l-13 -65h-236l-51 -274c42 39 101 68 171 68c92 0 161 -50 161 -177c0 -175 -92 -261 -206 -261c-47 0 -79 21 -92 53l47 41c10 -17 27 -29 52 -29c74 0 130 68 130 188z
" />
    <glyph glyph-name="afii10052" unicode="&#x403;" horiz-adv-x="538" 
d="M53 0l128 700h466l-12 -66h-398l-116 -634h-68zM584 853l-187 -91l-18 45l183 102z" />
    <glyph glyph-name="afii10053" unicode="&#x404;" horiz-adv-x="649" 
d="M505 390l-12 -66h-350c-13 -164 83 -268 236 -268c74 0 158 37 211 105l44 -37c-63 -93 -183 -133 -268 -133c-185 0 -293 127 -293 296c0 252 171 422 405 422c95 0 193 -33 231 -116l-52 -37c-33 54 -90 88 -182 88c-146 0 -283 -86 -322 -254h352z" />
    <glyph glyph-name="afii10054" unicode="&#x405;" horiz-adv-x="583" 
d="M487 196c0 165 -364 84 -364 302c0 134 125 211 279 211c100 0 182 -35 218 -99l-47 -41c-41 46 -94 74 -184 74c-73 0 -196 -34 -196 -139c0 -154 364 -79 364 -298c0 -128 -118 -215 -266 -215c-116 0 -207 48 -250 134l49 45c45 -73 105 -113 210 -113
c108 0 187 62 187 139z" />
    <glyph glyph-name="afii10055" unicode="&#x406;" horiz-adv-x="233" 
d="M63 0l127 700h69l-129 -700h-67z" />
    <glyph glyph-name="afii10056" unicode="&#x407;" horiz-adv-x="233" 
d="M63 0l129 700h67l-129 -700h-67zM131 796c0 28 21 45 50 45c17 0 33 -14 33 -32c0 -29 -24 -45 -47 -45c-20 0 -36 12 -36 32zM273 796c0 28 22 45 50 45c17 0 33 -14 33 -32c0 -29 -23 -45 -47 -45c-20 0 -36 12 -36 32z" />
    <glyph glyph-name="afii10057" unicode="&#x408;" horiz-adv-x="461" 
d="M499 700l-92 -492c-24 -136 -100 -217 -236 -217c-104 0 -155 68 -171 125l55 37c20 -59 61 -97 124 -97c82 2 140 43 163 164l88 480h69z" />
    <glyph glyph-name="afii10058" unicode="&#x409;" horiz-adv-x="995" 
d="M750 365h-119l-55 -299h116c147 0 232 62 232 175c0 82 -62 124 -174 124zM496 0l117 634h-301l-26 -140c-48 -261 -128 -501 -273 -501c-13 0 -26 0 -33 3l12 69c70 -5 157 42 238 491l26 144h436l-49 -269h121c156 0 231 -70 231 -180c0 -178 -134 -251 -319 -251h-180
z" />
    <glyph glyph-name="afii10059" unicode="&#x40a;" horiz-adv-x="994" 
d="M640 413h137c146 0 214 -66 214 -173c0 -155 -117 -240 -300 -240h-194l63 347h-376l-63 -347h-68l129 700h68l-53 -287h376l53 287h67zM764 347h-136l-51 -281h127c140 0 216 65 216 165c0 85 -54 116 -156 116z" />
    <glyph glyph-name="afii10060" unicode="&#x40b;" horiz-adv-x="693" 
d="M100 634l12 66h541l-13 -66h-236l-50 -270c41 33 98 65 170 65c94 0 157 -51 157 -158c0 -21 -4 -59 -9 -84l-35 -187h-67l35 190c4 21 6 41 6 63c1 67 -29 110 -105 110c-60 0 -127 -33 -167 -81l-52 -282h-68l117 634h-236z" />
    <glyph glyph-name="afii10061" unicode="&#x40c;" horiz-adv-x="617" 
d="M53 0l129 700h68l-67 -358l417 358h100l-380 -324l267 -376h-85l-237 330l-98 -79l-46 -251h-68zM584 853l-187 -91l-18 45l183 102z" />
    <glyph glyph-name="afii10062" unicode="&#x40e;" horiz-adv-x="640" 
d="M168 16l32 57c6 -3 17 -5 25 -5c43 0 69 44 110 107l-235 525h75l205 -456l272 456h77l-331 -542c-65 -101 -115 -158 -179 -158c-21 0 -40 5 -51 16zM285 878l56 10c13 -47 42 -64 92 -64c68 0 102 25 121 64l55 -10c-22 -70 -85 -112 -177 -112c-80 0 -140 36 -147 112
z" />
    <glyph glyph-name="afii10145" unicode="&#x40f;" horiz-adv-x="680" 
d="M53 0l129 700h68l-117 -635h398l117 635h67l-129 -700h-235l-28 -154h-64l29 154h-235z" />
    <glyph glyph-name="afii10017" unicode="&#x410;" horiz-adv-x="644" 
d="M-17 0l421 702h55l162 -702h-70l-46 192h-332l-113 -192h-77zM414 600l-203 -344h282z" />
    <glyph glyph-name="afii10018" unicode="&#x411;" horiz-adv-x="625" 
d="M649 700l-13 -66h-399l-41 -229h207c138 0 210 -57 210 -164c0 -168 -126 -241 -304 -241h-256l129 700h467zM384 339h-201l-50 -273h195c137 0 214 57 214 161c0 80 -51 112 -158 112z" />
    <glyph glyph-name="afii10019" unicode="&#x412;" horiz-adv-x="637" 
d="M53 0l128 700h261c153 0 208 -58 208 -149c0 -86 -53 -157 -137 -187c63 -14 101 -63 101 -135c0 -156 -124 -229 -304 -229h-257zM382 325h-202l-47 -259h193c155 0 218 61 218 157c0 67 -51 102 -162 102zM428 634h-191l-44 -244h204c105 0 183 55 183 149
c0 67 -50 95 -152 95z" />
    <glyph glyph-name="afii10020" unicode="&#x413;" horiz-adv-x="538" 
d="M53 0l128 700h466l-12 -66h-398l-116 -634h-68z" />
    <glyph glyph-name="afii10021" unicode="&#x414;" horiz-adv-x="698" 
d="M-44 -131l36 196h71c54 66 135 205 191 505l23 130h435l-117 -635h86l-36 -196h-64l24 131h-561l-24 -131h-64zM333 635l-15 -78c-31 -169 -100 -393 -179 -492h388l106 570h-300z" />
    <glyph glyph-name="afii10022" unicode="&#x415;" horiz-adv-x="606" 
d="M53 0l128 700h475l-12 -66h-407l-44 -245h380l-13 -66h-380l-47 -257h416l-12 -66h-484z" />
    <glyph glyph-name="afii10024" unicode="&#x416;" horiz-adv-x="871" 
d="M359 384l-238 316h84l246 -326l60 326h67l-60 -325l357 325h94l-355 -319l234 -381h-80l-210 339l-56 -49l-54 -290h-66l54 292l-36 46l-329 -338h-88z" />
    <glyph glyph-name="afii10025" unicode="&#x417;" horiz-adv-x="611" 
d="M284 -9c-140 0 -228 64 -261 141l52 38c43 -73 105 -113 213 -113c130 0 229 67 229 161c0 64 -45 107 -159 107h-122l13 66h116c98 0 186 50 186 141c0 77 -73 111 -161 111c-104 0 -183 -56 -230 -109l-46 40c56 70 156 135 296 135c118 0 210 -56 210 -167
c0 -84 -60 -151 -141 -178c78 -18 107 -82 107 -136c0 -149 -133 -237 -302 -237z" />
    <glyph glyph-name="afii10026" unicode="&#x418;" horiz-adv-x="701" 
d="M111 0h-58l128 700h69l-106 -571l534 571h59l-128 -700h-69l107 573z" />
    <glyph glyph-name="afii10027" unicode="&#x419;" horiz-adv-x="701" 
d="M111 0h-58l128 700h69l-106 -571l534 571h59l-128 -700h-69l107 573zM326 878l56 10c13 -47 42 -64 92 -64c68 0 102 25 121 64l55 -10c-22 -70 -85 -112 -177 -112c-80 0 -140 36 -147 112z" />
    <glyph glyph-name="afii10028" unicode="&#x41a;" horiz-adv-x="617" 
d="M53 0l129 700h68l-67 -358l417 358h100l-380 -324l267 -376h-85l-237 330l-98 -79l-46 -251h-68z" />
    <glyph glyph-name="afii10029" unicode="&#x41b;" horiz-adv-x="669" 
d="M507 0l117 635h-312l-26 -141c-48 -261 -128 -501 -273 -501c-13 0 -26 0 -33 3l12 69c70 -5 155 42 238 491l26 144h448l-129 -700h-68z" />
    <glyph glyph-name="afii10030" unicode="&#x41c;" horiz-adv-x="791" 
d="M53 0l128 700h59l194 -365l320 365h73l-130 -700h-67l107 581l-309 -351h-15l-185 351l-107 -581h-68z" />
    <glyph glyph-name="afii10031" unicode="&#x41d;" horiz-adv-x="709" 
d="M548 0l60 323h-428l-59 -323h-68l128 700h69l-57 -311h427l57 311h69l-130 -700h-68z" />
    <glyph glyph-name="afii10032" unicode="&#x41e;" horiz-adv-x="744" 
d="M74 288c0 244 176 421 401 421c174 0 285 -126 285 -297c0 -259 -188 -421 -401 -421c-172 0 -285 123 -285 297zM144 296c0 -143 90 -239 219 -239c182 0 327 141 327 344c0 124 -71 242 -219 242c-200 0 -327 -160 -327 -347z" />
    <glyph glyph-name="afii10033" unicode="&#x41f;" horiz-adv-x="704" 
d="M542 0l117 634h-422l-116 -634h-68l129 700h557l-129 -700h-68z" />
    <glyph glyph-name="afii10034" unicode="&#x420;" horiz-adv-x="618" 
d="M121 0h-68l128 700h241c148 0 235 -59 235 -178c0 -156 -118 -252 -316 -252h-171zM414 635h-177l-55 -300h169c165 0 235 77 235 179c0 71 -47 121 -172 121z" />
    <glyph glyph-name="afii10035" unicode="&#x421;" horiz-adv-x="669" 
d="M612 155l37 -47c-60 -70 -168 -117 -279 -117c-178 0 -298 114 -298 297c0 247 173 421 406 421c122 0 198 -57 235 -111l-47 -42c-47 48 -98 87 -193 87c-199 0 -331 -149 -331 -349c0 -136 88 -237 231 -237c112 0 184 45 239 98z" />
    <glyph glyph-name="afii10036" unicode="&#x422;" horiz-adv-x="548" 
d="M100 634l12 66h542l-12 -66h-237l-117 -634h-68l117 634h-237z" />
    <glyph glyph-name="afii10037" unicode="&#x423;" horiz-adv-x="640" 
d="M168 16l32 57c6 -3 17 -5 25 -5c43 0 69 44 110 107l-235 525h75l205 -456l272 456h77l-331 -542c-65 -101 -115 -158 -179 -158c-21 0 -40 5 -51 16z" />
    <glyph glyph-name="afii10038" unicode="&#x424;" horiz-adv-x="818" 
d="M352 -15l17 87h-5c-184 0 -296 100 -296 241c0 208 187 335 407 335l12 67h67l-13 -67c170 0 301 -84 301 -242c0 -203 -180 -334 -401 -334h-6l-16 -87h-67zM532 584h-3l-83 -448h6c186 0 319 106 319 261c0 117 -80 187 -239 187zM139 324c0 -126 90 -188 237 -188h4
l83 448c-171 0 -324 -93 -324 -260z" />
    <glyph glyph-name="afii10039" unicode="&#x425;" horiz-adv-x="613" 
d="M697 700l-307 -346l187 -354h-77l-155 298l-262 -298h-87l317 359l-175 341h74l147 -285l251 285h87z" />
    <glyph glyph-name="afii10040" unicode="&#x426;" horiz-adv-x="706" 
d="M53 0l128 700h69l-117 -634h402l117 634h67l-117 -634h87l-36 -197h-64l24 131h-560z" />
    <glyph glyph-name="afii10041" unicode="&#x427;" horiz-adv-x="643" 
d="M679 700l-129 -700h-67l57 309c-44 -26 -147 -53 -223 -53c-119 0 -207 48 -209 166c0 18 2 39 6 61l45 217h68l-40 -191c-4 -20 -9 -49 -9 -67c0 -96 64 -120 166 -120c66 0 158 29 208 56l60 322h67z" />
    <glyph glyph-name="afii10042" unicode="&#x428;" horiz-adv-x="871" 
d="M53 0l129 700h68l-117 -634h261l117 634h67l-116 -634h261l117 634h67l-129 -700h-725z" />
    <glyph glyph-name="afii10043" unicode="&#x429;" horiz-adv-x="894" 
d="M53 0l129 700h68l-117 -634h261l117 634h67l-116 -634h261l117 634h67l-117 -634h87l-36 -197h-64l24 131h-748z" />
    <glyph glyph-name="afii10044" unicode="&#x42a;" horiz-adv-x="710" 
d="M97 634l12 66h230l-49 -269h187c156 0 232 -69 232 -180c0 -183 -139 -251 -321 -251h-246l117 634h-162zM463 365h-186l-55 -299h183c146 0 232 59 232 175c0 85 -63 124 -174 124z" />
    <glyph glyph-name="afii10045" unicode="&#x42b;" horiz-adv-x="801" 
d="M640 0l129 700h68l-129 -700h-68zM345 365h-157l-55 -299h154c147 0 232 62 232 175c0 82 -62 124 -174 124zM250 700l-50 -269h159c156 0 231 -70 231 -180c0 -178 -134 -251 -319 -251h-218l129 700h68z" />
    <glyph glyph-name="afii10046" unicode="&#x42c;" horiz-adv-x="620" 
d="M374 365h-186l-55 -299h183c147 0 232 62 232 175c0 82 -62 124 -174 124zM250 700l-50 -269h188c156 0 231 -70 231 -180c0 -178 -134 -251 -319 -251h-247l129 700h68z" />
    <glyph glyph-name="afii10047" unicode="&#x42d;" horiz-adv-x="657" 
d="M229 324l11 66h363c15 154 -64 254 -222 254c-81 0 -173 -40 -240 -114l-38 46c78 94 184 133 295 133c177 0 276 -110 276 -283c0 -240 -164 -435 -408 -435c-103 0 -201 41 -246 130l53 36c47 -70 112 -101 202 -101c160 0 279 112 318 268h-364z" />
    <glyph glyph-name="afii10048" unicode="&#x42e;" horiz-adv-x="938" 
d="M53 0l129 700h68l-57 -311h118c41 196 208 320 375 320c169 0 268 -120 268 -290c0 -243 -168 -428 -387 -428c-182 0 -286 142 -265 334h-122l-59 -325h-68zM370 294c0 -152 79 -237 203 -237c176 0 310 158 310 351c0 137 -71 235 -202 235c-166 0 -311 -145 -311 -349
z" />
    <glyph glyph-name="afii10049" unicode="&#x42f;" horiz-adv-x="642" 
d="M482 0l49 268h-189l-262 -268h-92l273 278c-92 19 -144 82 -144 171c0 144 97 251 312 251h249l-129 -700h-67zM360 334h183l55 301h-189c-137 0 -220 -56 -220 -176c0 -100 77 -125 171 -125z" />
    <glyph glyph-name="afii10065" unicode="&#x430;" 
d="M418 0l17 86c-23 -34 -93 -94 -183 -94c-130 0 -202 87 -202 207c0 207 172 334 314 334c72 0 119 -23 147 -50l9 37h58l-100 -520h-60zM263 50c94 0 163 77 185 122l50 243c-23 32 -64 60 -134 60c-124 0 -248 -110 -248 -270c0 -102 55 -155 147 -155z" />
    <glyph glyph-name="afii10066" unicode="&#x431;" horiz-adv-x="572" 
d="M587 743v-55c-90 -26 -182 -13 -271 -54c-91 -42 -153 -148 -178 -238c54 78 138 132 243 132c132 0 187 -94 187 -187c0 -227 -141 -351 -297 -351c-136 0 -217 104 -217 217c0 224 92 409 235 478c97 47 200 38 298 58zM126 293c-7 -28 -9 -51 -9 -75
c1 -101 67 -170 162 -170c110 0 222 97 222 278c0 75 -37 144 -138 144c-121 0 -206 -100 -237 -177z" />
    <glyph glyph-name="afii10067" unicode="&#x432;" horiz-adv-x="534" 
d="M528 416c0 -58 -43 -102 -108 -134c54 -15 90 -48 90 -107c0 -105 -100 -185 -232 -185c-139 0 -228 85 -228 217c0 183 148 326 315 326c102 0 163 -38 163 -117zM444 168c0 53 -40 76 -99 85c-68 -22 -149 -36 -229 -46c2 -97 67 -159 166 -159c88 0 162 49 162 120z
M364 475c-121 0 -222 -93 -244 -214c180 23 342 70 342 145c0 49 -37 69 -98 69z" />
    <glyph glyph-name="afii10068" unicode="&#x433;" horiz-adv-x="476" 
d="M100 129c0 -42 41 -81 114 -81c87 0 170 42 209 106l34 -42c-44 -74 -138 -122 -241 -122c-129 0 -182 69 -182 138c0 212 364 130 364 272c0 40 -36 75 -108 75c-63 0 -126 -26 -169 -77l-40 41c45 61 133 94 219 94c99 0 164 -42 164 -126c0 -215 -364 -127 -364 -278z
" />
    <glyph glyph-name="afii10069" unicode="&#x434;" horiz-adv-x="567" 
d="M50 199c0 190 148 333 312 333c83 0 123 -31 146 -58c-8 100 -75 193 -258 178l1 57c199 14 320 -79 320 -279c0 -272 -140 -439 -312 -439c-101 0 -209 65 -209 208zM116 214c0 -126 88 -165 153 -165c123 0 231 139 239 336c-17 40 -65 89 -156 89
c-123 0 -236 -119 -236 -260z" />
    <glyph glyph-name="afii10070" unicode="&#x435;" horiz-adv-x="528" 
d="M447 129l37 -40c-49 -68 -143 -99 -217 -99c-128 0 -217 85 -217 217c0 183 148 326 312 326c105 0 166 -45 166 -128c0 -98 -101 -173 -279 -173c-40 0 -84 5 -131 13c-1 -11 -2 -21 -2 -32c0 -100 56 -165 165 -165c65 0 125 33 166 81zM352 475
c-98 0 -188 -74 -222 -175c42 -8 82 -13 130 -13c134 1 202 58 202 112c0 41 -24 76 -110 76z" />
    <glyph glyph-name="afii10072" unicode="&#x436;" horiz-adv-x="715" 
d="M271 282l-182 238h75l187 -243l45 243h61l-43 -243l275 243h81l-272 -242l188 -278h-72l-168 242l-46 -35l-38 -207h-62l39 206l-29 32l-249 -238h-82z" />
    <glyph glyph-name="afii10073" unicode="&#x437;" horiz-adv-x="488" 
d="M220 -10c-121 0 -180 52 -208 120l52 32c17 -52 75 -94 167 -94c70 0 160 38 161 118c0 52 -29 70 -121 70h-100l11 58h114c50 0 118 44 118 102s-45 79 -116 79c-86 0 -139 -44 -174 -79l-35 43c41 47 115 94 222 94c106 0 169 -42 169 -122c0 -59 -39 -117 -100 -137
c54 -11 78 -54 78 -93c0 -122 -108 -191 -238 -191z" />
    <glyph glyph-name="afii10074" unicode="&#x438;" horiz-adv-x="574" 
d="M571 520l-100 -520h-61l15 87c-47 -59 -115 -97 -202 -97c-97 0 -159 49 -159 142c0 26 4 58 10 88l60 300h63l-57 -287c-5 -22 -11 -54 -10 -95c1 -47 26 -90 113 -90c81 0 153 51 198 120l69 352h61z" />
    <glyph glyph-name="afii10075" unicode="&#x439;" horiz-adv-x="574" 
d="M571 520l-100 -520h-61l15 87c-47 -59 -115 -97 -202 -97c-97 0 -159 49 -159 142c0 26 4 58 10 88l60 300h63l-57 -287c-5 -22 -11 -54 -10 -95c1 -47 26 -90 113 -90c81 0 153 51 198 120l69 352h61zM236 746h56c-9 -53 15 -91 76 -91c64 0 101 37 116 91h57
c-17 -85 -89 -145 -176 -145c-94 0 -145 58 -129 145z" />
    <glyph glyph-name="afii10076" unicode="&#x43a;" horiz-adv-x="512" 
d="M48 0l99 520h61l-46 -248l314 248h90l-306 -245l226 -275h-80l-202 242l-57 -45l-38 -197h-61z" />
    <glyph glyph-name="afii10077" unicode="&#x43b;" horiz-adv-x="566" 
d="M404 0l85 462h-228l-27 -111c-69 -282 -169 -354 -249 -354l7 65c35 -1 117 32 182 305l37 153h352l-96 -520h-63z" />
    <glyph glyph-name="afii10078" unicode="&#x43c;" horiz-adv-x="660" 
d="M48 0l96 520h54l150 -276l250 276h59l-96 -520h-60l77 416l-242 -270l-150 271l-79 -417h-59z" />
    <glyph glyph-name="afii10079" unicode="&#x43d;" horiz-adv-x="585" 
d="M424 0l44 238h-314l-44 -238h-62l96 520h62l-41 -224h314l41 224h62l-96 -520h-62z" />
    <glyph glyph-name="afii10080" unicode="&#x43e;" horiz-adv-x="590" 
d="M50 198c0 205 157 335 314 335c134 0 220 -93 220 -212c0 -203 -147 -331 -302 -331c-138 0 -232 87 -232 208zM116 216c0 -102 61 -168 169 -168c124 0 232 105 232 260c0 108 -69 167 -157 167c-133 0 -244 -110 -244 -259z" />
    <glyph glyph-name="afii10081" unicode="&#x43f;" horiz-adv-x="583" 
d="M48 0l100 520h62l-13 -75c49 50 120 87 203 87c100 0 159 -61 159 -158c0 -27 -6 -68 -11 -97l-59 -277h-61l56 269c4 22 11 50 11 95c-1 71 -40 110 -107 110c-90 0 -172 -59 -210 -127l-68 -347h-62z" />
    <glyph glyph-name="afii10082" unicode="&#x440;" horiz-adv-x="573" 
d="M0 -200l133 720h62l-13 -77c51 66 125 90 191 90c146 0 192 -98 192 -193c0 -216 -154 -350 -304 -350c-65 0 -127 26 -151 69l-48 -259h-62zM357 475c-88 0 -160 -64 -193 -124l-40 -215c29 -67 84 -88 147 -88c113 0 228 116 228 271c0 81 -34 156 -142 156z" />
    <glyph glyph-name="afii10083" unicode="&#x441;" horiz-adv-x="513" 
d="M453 130l32 -37c-49 -72 -144 -103 -218 -103c-128 0 -217 85 -217 217c0 183 132 326 312 326c81 0 152 -41 175 -100l-49 -31c-31 50 -72 73 -136 73c-139 0 -236 -118 -236 -262c0 -100 59 -165 165 -165c65 0 131 33 172 82z" />
    <glyph glyph-name="afii10084" unicode="&#x442;" horiz-adv-x="862" 
d="M836 344l-70 -344h-63l67 324c3 20 5 40 5 66c0 44 -30 84 -90 84c-87 0 -137 -51 -175 -110l-73 -364h-62l71 351c13 70 -17 123 -86 123c-90 0 -154 -74 -181 -121l-69 -353h-62l100 520h62l-15 -77c39 47 101 89 174 89c72 0 125 -33 138 -90c49 57 110 90 184 90
c81 0 149 -36 151 -131c0 -17 -2 -36 -6 -57z" />
    <glyph glyph-name="afii10085" unicode="&#x443;" horiz-adv-x="507" 
d="M-1 -195l34 57c8 -6 18 -10 29 -10c38 0 73 34 131 131l19 34l-157 503h68l134 -428l242 428h70l-296 -518c-100 -175 -152 -212 -220 -212c-21 0 -39 5 -54 15z" />
    <glyph glyph-name="afii10086" unicode="&#x444;" horiz-adv-x="670" 
d="M241 -200l35 190c-117 0 -226 80 -226 218c0 186 149 321 318 321h8l37 201h62l-37 -201c156 0 226 -100 226 -213c0 -204 -151 -326 -320 -326h-6l-35 -190h-62zM426 471l-77 -423h6c132 0 243 106 243 255c0 105 -57 168 -172 168zM116 212c0 -99 69 -164 172 -164
l76 423h-7c-140 0 -241 -119 -241 -259z" />
    <glyph glyph-name="afii10087" unicode="&#x445;" horiz-adv-x="496" 
d="M550 520l-237 -254l152 -266h-73l-126 225l-206 -225h-77l247 269l-142 251h72l118 -210l192 210h80z" />
    <glyph glyph-name="afii10088" unicode="&#x446;" horiz-adv-x="584" 
d="M571 520l-88 -458h80l-36 -192h-59l25 130h-83l15 87c-47 -59 -115 -97 -202 -97c-97 0 -159 49 -159 142c0 26 4 58 10 88l60 300h63l-57 -287c-5 -22 -11 -54 -10 -95c1 -47 26 -90 113 -90c81 0 153 51 198 120l69 352h61z" />
    <glyph glyph-name="afii10089" unicode="&#x447;" horiz-adv-x="525" 
d="M522 520l-100 -520h-63l45 232c-43 -39 -113 -66 -178 -66c-98 0 -155 46 -156 142c0 19 5 42 9 65l33 147h62l-31 -135c-4 -20 -7 -51 -7 -73c0 -62 46 -88 100 -88c83 0 142 34 184 82l41 214h61z" />
    <glyph glyph-name="afii10090" unicode="&#x448;" horiz-adv-x="805" 
d="M69 176l71 344h63l-67 -324c-4 -20 -6 -40 -6 -66c0 -52 25 -84 80 -84c70 0 120 51 158 110l72 364h63l-71 -351c-13 -70 3 -123 73 -123c85 0 139 70 166 117l69 357h62l-100 -520h-62l13 68c-36 -41 -90 -80 -162 -80c-73 0 -108 33 -121 90
c-48 -57 -107 -90 -174 -90c-75 0 -131 36 -132 131c0 17 1 36 5 57z" />
    <glyph glyph-name="afii10091" unicode="&#x449;" horiz-adv-x="815" 
d="M69 176l71 344h63l-67 -324c-4 -20 -6 -40 -6 -66c0 -52 25 -84 80 -84c70 0 120 51 158 110l72 364h63l-71 -351c-13 -70 3 -123 73 -123c85 0 139 70 166 117l69 357h62l-88 -458h71l-36 -192h-58l24 130h-75l13 68c-36 -41 -90 -80 -162 -80c-73 0 -108 33 -121 90
c-48 -57 -107 -90 -174 -90c-75 0 -131 36 -132 131c0 17 1 36 5 57z" />
    <glyph glyph-name="afii10092" unicode="&#x44a;" horiz-adv-x="542" 
d="M42 462l9 58h196l-31 -169h118c158 0 193 -68 193 -140c0 -128 -85 -211 -270 -211h-168l86 462h-133zM317 293h-111l-45 -235h117c119 0 183 58 183 137c0 63 -22 98 -144 98z" />
    <glyph glyph-name="afii10093" unicode="&#x44b;" horiz-adv-x="675" 
d="M48 0l96 520h62l-31 -170h86c165 0 205 -59 205 -130c0 -131 -87 -220 -255 -220h-163zM265 292h-101l-43 -234h109c106 0 170 59 170 150c0 48 -31 84 -135 84zM513 0l96 520h63l-96 -520h-63z" />
    <glyph glyph-name="afii10094" unicode="&#x44c;" horiz-adv-x="500" 
d="M48 0l96 520h62l-31 -170h105c165 0 205 -59 205 -139c0 -122 -87 -211 -255 -211h-182zM284 292h-120l-44 -234h129c106 0 170 59 170 150c0 48 -31 84 -135 84z" />
    <glyph glyph-name="afii10095" unicode="&#x44d;" horiz-adv-x="520" 
d="M179 237l13 58h258c8 116 -55 180 -157 180c-69 0 -136 -30 -185 -90l-43 38c57 68 144 110 228 110c159 0 221 -100 221 -211c0 -206 -140 -332 -302 -332c-88 0 -165 36 -200 107l48 34c25 -48 76 -83 156 -83c108 0 205 81 223 189h-260z" />
    <glyph glyph-name="afii10096" unicode="&#x44e;" horiz-adv-x="787" 
d="M48 0l96 520h62l-41 -224h113c35 141 153 237 289 237c144 0 214 -105 214 -208c0 -213 -136 -335 -295 -335c-127 0 -224 86 -220 248h-112l-44 -238h-62zM331 216c0 -99 70 -168 164 -168c111 0 220 101 220 258c0 96 -58 169 -161 169c-116 0 -223 -116 -223 -259z
" />
    <glyph glyph-name="afii10097" unicode="&#x44f;" horiz-adv-x="533" 
d="M334 520h196l-96 -520h-63l36 193h-136l-191 -193h-83l204 202c-63 19 -108 63 -108 135c0 91 80 183 241 183zM159 342c0 -58 40 -91 125 -91h134l40 211h-143c-96 0 -156 -59 -156 -120z" />
    <glyph glyph-name="afii10071" unicode="&#x451;" horiz-adv-x="528" 
d="M447 129l37 -40c-49 -68 -143 -99 -217 -99c-128 0 -217 85 -217 217c0 183 148 326 312 326c105 0 166 -45 166 -128c0 -98 -101 -173 -279 -173c-40 0 -84 5 -131 13c-1 -11 -2 -21 -2 -32c0 -100 56 -165 165 -165c65 0 125 33 166 81zM352 475
c-98 0 -188 -74 -222 -175c42 -8 82 -13 130 -13c134 1 202 58 202 112c0 41 -24 76 -110 76zM474 684c0 23 18 42 42 42s43 -19 43 -42c0 -24 -19 -41 -43 -41s-42 17 -42 41zM247 684c0 23 18 42 42 42c23 0 42 -19 42 -42c0 -24 -19 -41 -42 -41c-24 0 -42 17 -42 41z
" />
    <glyph glyph-name="afii10099" unicode="&#x452;" horiz-adv-x="583" 
d="M30 520l12 58h133l29 152h61l-27 -152h218l-11 -58h-219l-36 -199c55 58 125 86 191 86c124 0 172 -71 172 -156c0 -207 -128 -373 -291 -454l-25 50c141 66 249 225 249 373c0 69 -15 129 -123 129c-73 0 -158 -62 -190 -118l-42 -231h-62l96 520h-135z" />
    <glyph glyph-name="afii10100" unicode="&#x453;" horiz-adv-x="476" 
d="M100 129c0 -42 41 -81 114 -81c87 0 170 42 209 106l34 -42c-44 -74 -138 -122 -241 -122c-129 0 -182 69 -182 138c0 212 364 130 364 272c0 40 -36 75 -108 75c-63 0 -126 -26 -169 -77l-40 41c45 61 133 94 219 94c99 0 164 -42 164 -126c0 -215 -364 -127 -364 -278z
M498 762l-140 -148l-34 30l133 155z" />
    <glyph glyph-name="afii10101" unicode="&#x454;" horiz-adv-x="524" 
d="M380 295l-11 -58h-252c-12 -124 67 -189 169 -189c67 0 121 34 160 81l44 -35c-54 -75 -134 -104 -220 -104c-138 0 -220 96 -220 215c0 200 136 328 319 328c72 0 143 -29 175 -95l-51 -37c-23 45 -73 74 -134 74c-116 0 -198 -75 -229 -180h250z" />
    <glyph glyph-name="afii10102" unicode="&#x455;" horiz-adv-x="450" 
d="M353 138c0 129 -248 83 -248 247c0 99 88 148 186 148c100 0 157 -38 192 -85l-46 -42c-25 33 -76 69 -140 69c-58 0 -126 -28 -126 -86c0 -113 249 -68 249 -248c0 -105 -106 -151 -190 -151c-111 0 -185 51 -223 124l51 36c34 -64 92 -102 177 -102c52 0 118 31 118 90
z" />
    <glyph glyph-name="afii10103" unicode="&#x456;" horiz-adv-x="215" 
d="M48 0l96 520h63l-96 -520h-63zM163 684c0 23 17 42 41 42s43 -19 43 -42c0 -24 -19 -41 -43 -41s-41 17 -41 41z" />
    <glyph glyph-name="afii10104" unicode="&#x457;" horiz-adv-x="251" 
d="M93 0l96 520h62l-96 -520h-62zM278 684c0 23 18 42 42 42s43 -19 43 -42c0 -24 -19 -41 -43 -41s-42 17 -42 41zM136 684c0 23 18 42 42 42c23 0 42 -19 42 -42c0 -24 -19 -41 -42 -41c-24 0 -42 17 -42 41z" />
    <glyph glyph-name="afii10105" unicode="&#x458;" horiz-adv-x="217" 
d="M210 520l-97 -525c-24 -128 -83 -204 -184 -204c-57 0 -96 31 -109 74l50 30c12 -19 24 -46 69 -46c57 0 96 57 113 149l95 522h63zM164 684c0 23 18 42 42 42c23 0 43 -19 43 -42c0 -24 -20 -41 -43 -41c-24 0 -42 17 -42 41z" />
    <glyph glyph-name="afii10106" unicode="&#x459;" horiz-adv-x="796" 
d="M404 0l86 462h-231l-27 -112c-69 -282 -158 -351 -247 -353l6 63c33 -1 118 35 181 300l39 160h352l-33 -171h82c127 0 169 -51 169 -126c0 -126 -85 -223 -240 -223h-137zM593 291h-73l-42 -233h72c114 0 164 73 164 143c0 61 -20 90 -121 90z" />
    <glyph glyph-name="afii10107" unicode="&#x45a;" horiz-adv-x="818" 
d="M48 0l96 520h62l-38 -206h314l38 206h62l-38 -206h80c142 0 174 -50 174 -125c0 -103 -84 -189 -239 -189h-135l48 256h-314l-48 -256h-62zM606 257h-72l-36 -199h70c106 0 162 51 162 120c0 56 -22 79 -124 79z" />
    <glyph glyph-name="afii10108" unicode="&#x45b;" horiz-adv-x="584" 
d="M30 520l10 58h135l28 152h62l-28 -152h218l-11 -58h-218l-36 -197c54 60 125 82 191 82c110 0 171 -49 171 -152c0 -30 -4 -55 -9 -83l-31 -170h-62l30 161c5 25 7 54 7 82c0 61 -33 104 -123 104c-75 0 -151 -46 -191 -117l-43 -230h-62l96 520h-134z" />
    <glyph glyph-name="afii10109" unicode="&#x45c;" horiz-adv-x="512" 
d="M48 0l99 520h61l-46 -248l314 248h90l-306 -245l226 -275h-80l-202 242l-57 -45l-38 -197h-61zM515 762l-140 -148l-34 30l133 155z" />
    <glyph glyph-name="afii10110" unicode="&#x45e;" horiz-adv-x="507" 
d="M-1 -195l34 57c8 -6 18 -10 29 -10c38 0 73 34 131 131l19 34l-157 503h68l134 -428l242 428h70l-296 -518c-100 -175 -152 -212 -220 -212c-21 0 -39 5 -54 15zM206 746h56c-9 -53 15 -91 76 -91c64 0 101 37 116 91h57c-17 -85 -89 -145 -176 -145
c-94 0 -145 58 -129 145z" />
    <glyph glyph-name="afii10193" unicode="&#x45f;" horiz-adv-x="574" 
d="M232 -45h59l-21 -110h-59zM571 520l-100 -520h-61l15 87c-47 -59 -115 -97 -202 -97c-97 0 -159 49 -159 142c0 26 4 58 10 88l60 300h63l-57 -287c-5 -22 -11 -54 -10 -95c1 -47 26 -90 113 -90c81 0 153 51 198 120l69 352h61z" />
    <glyph glyph-name="afii10146" unicode="&#x462;" horiz-adv-x="682" 
d="M78 527l11 66h135l20 107h68l-20 -107h231l-12 -66h-232l-19 -102h188c153 0 232 -66 232 -182c0 -158 -125 -243 -318 -243h-247l97 527h-134zM433 359h-185l-54 -293h182c151 0 233 61 233 168c0 86 -63 125 -176 125z" />
    <glyph glyph-name="afii10194" unicode="&#x463;" horiz-adv-x="833" 
d="M514 428c0 -26 0 -43 -4 -64l-3 -14h106c165 0 205 -59 205 -130c0 -131 -87 -220 -255 -220h-186l69 351c3 20 5 37 4 52c-2 48 -28 71 -90 71c-90 0 -154 -74 -181 -121l-69 -353h-62l100 520h62l-15 -77c39 47 101 89 188 89c79 0 131 -40 131 -104zM616 292h-120
l-46 -234h133c106 0 169 59 169 150c0 48 -33 84 -136 84z" />
    <glyph glyph-name="afii10147" unicode="&#x472;" horiz-adv-x="744" 
d="M74 288c0 252 180 421 409 421c164 0 277 -123 277 -297c0 -257 -184 -421 -410 -421c-163 0 -276 123 -276 297zM363 57c160 0 286 108 320 263h-538c-15 -153 81 -263 218 -263zM471 643c-164 0 -277 -106 -319 -257h536c11 151 -83 257 -217 257z" />
    <glyph glyph-name="afii10195" unicode="&#x473;" horiz-adv-x="590" 
d="M50 198c0 205 157 335 314 335c134 0 220 -93 220 -212c0 -203 -147 -331 -302 -331c-138 0 -232 87 -232 208zM116 216c0 -102 61 -168 169 -168c103 0 195 73 223 187h-392v-19zM360 475c-109 0 -203 -74 -234 -182h390c0 5 1 10 1 15c0 108 -69 167 -157 167z" />
    <glyph glyph-name="afii10148" unicode="&#x474;" horiz-adv-x="731" 
d="M686 542l-336 -542h-51l-192 700h67l166 -603l296 483c57 93 98 127 157 127c28 0 47 -7 65 -23l-36 -50c-9 5 -18 9 -34 9c-30 0 -58 -32 -102 -101z" />
    <glyph glyph-name="afii10196" unicode="&#x475;" horiz-adv-x="536" 
d="M466 368l-225 -368h-45l-136 520h67l108 -418l182 302c49 78 100 119 147 118c25 0 43 -7 58 -28l-39 -48c-8 10 -18 13 -28 13c-20 0 -52 -29 -89 -91z" />
    <glyph glyph-name="afii10050" unicode="&#x490;" horiz-adv-x="541" 
d="M53 0l129 700h400l26 129h63l-36 -194h-398l-116 -635h-68z" />
    <glyph glyph-name="afii10098" unicode="&#x491;" horiz-adv-x="453" 
d="M48 0l96 520h293l20 109h60l-30 -167h-290l-86 -462h-63z" />
    <glyph glyph-name="uni1E9E" unicode="&#x1e9e;" horiz-adv-x="622" 
d="M423 708c123 0 182 -64 201 -142l-185 -181c118 -12 160 -75 160 -162c0 -129 -98 -232 -260 -232c-51 0 -86 13 -109 27l32 61c22 -13 51 -21 93 -21c98 0 172 57 172 155c0 67 -40 111 -151 111h-33l9 53l193 191c-18 44 -62 75 -134 75c-90 0 -179 -42 -208 -195
l-82 -448h-68l87 466c28 150 119 242 283 242z" />
    <glyph glyph-name="uni2010" unicode="&#x2010;" horiz-adv-x="404" 
d="M144 243v61h240v-61h-240z" />
    <glyph glyph-name="uni2011" unicode="&#x2011;" horiz-adv-x="404" 
d="M144 243v61h240v-61h-240z" />
    <glyph glyph-name="figuredash" unicode="&#x2012;" horiz-adv-x="594" 
d="M154 327v58h410v-58h-410z" />
    <glyph glyph-name="endash" unicode="&#x2013;" horiz-adv-x="594" 
d="M134 243v58h410v-58h-410z" />
    <glyph glyph-name="emdash" unicode="&#x2014;" horiz-adv-x="795" 
d="M134 243v58h612v-58h-612z" />
    <glyph glyph-name="quoteleft" unicode="&#x2018;" horiz-adv-x="228" 
d="M231 547l-58 -34c-11 14 -18 37 -18 62c0 76 52 126 107 156l23 -32c-42 -26 -67 -66 -67 -106c0 -19 7 -36 13 -46z" />
    <glyph glyph-name="quoteright" unicode="&#x2019;" horiz-adv-x="228" 
d="M186 697l58 34c11 -14 18 -37 18 -62c0 -76 -52 -126 -107 -156l-23 32c42 26 67 66 67 106c0 19 -7 36 -13 46z" />
    <glyph glyph-name="quotesinglbase" unicode="&#x201a;" horiz-adv-x="228" 
d="M67 46l58 34c10 -14 17 -37 17 -62c0 -75 -51 -126 -106 -156l-22 33c41 26 65 65 65 106c0 19 -5 35 -12 45z" />
    <glyph glyph-name="quotedblleft" unicode="&#x201c;" horiz-adv-x="363" 
d="M230 547l-58 -34c-10 14 -17 37 -17 62c0 76 52 126 107 156l24 -31c-42 -26 -68 -67 -68 -107c0 -19 6 -36 12 -46zM365 547l-58 -34c-10 14 -17 37 -17 62c0 75 51 126 106 156l24 -31c-41 -26 -67 -67 -67 -108c0 -19 5 -35 12 -45z" />
    <glyph glyph-name="quotedblright" unicode="&#x201d;" horiz-adv-x="363" 
d="M322 696l58 34c10 -14 17 -37 17 -62c0 -76 -52 -126 -107 -156l-24 31c42 26 68 67 68 107c0 19 -6 36 -12 46zM187 696l58 34c10 -14 17 -37 17 -62c0 -75 -51 -126 -106 -156l-24 31c41 26 67 67 67 108c0 19 -5 35 -12 45z" />
    <glyph glyph-name="quotedblbase" unicode="&#x201e;" horiz-adv-x="363" 
d="M202 46l58 34c10 -14 17 -37 17 -62c0 -76 -52 -126 -107 -156l-24 31c42 26 68 67 68 107c0 19 -6 36 -12 46zM67 46l58 34c10 -14 17 -37 17 -62c0 -75 -51 -126 -106 -156l-24 31c41 26 67 67 67 108c0 19 -5 35 -12 45z" />
    <glyph glyph-name="dagger" unicode="&#x2020;" horiz-adv-x="435" 
d="M79 412v60h148v228h65v-228h149v-60h-149v-510h-65v510h-148z" />
    <glyph glyph-name="daggerdbl" unicode="&#x2021;" horiz-adv-x="437" 
d="M80 413v60h149v227h63v-227h149v-60h-149v-195h149v-60h-149v-256h-63v256h-149v60h149v195h-149z" />
    <glyph glyph-name="bullet" unicode="&#x2022;" horiz-adv-x="268" 
d="M80 362c0 34 30 62 65 62c34 0 64 -28 64 -62c0 -35 -30 -63 -64 -63c-35 0 -65 28 -65 63z" />
    <glyph glyph-name="ellipsis" unicode="&#x2026;" horiz-adv-x="828" 
d="M705 43c0 20 18 41 46 41c25 0 43 -21 43 -41c0 -24 -18 -45 -43 -45c-28 0 -46 21 -46 45zM411 43c0 20 19 41 46 41c25 0 44 -21 44 -41c0 -24 -19 -45 -44 -45c-27 0 -46 21 -46 45zM118 43c0 20 18 41 46 41c24 0 43 -21 43 -41c0 -24 -19 -45 -43 -45
c-28 0 -46 21 -46 45z" />
    <glyph glyph-name="perthousand" unicode="&#x2030;" horiz-adv-x="1278" 
d="M89 537c0 98 77 166 177 166s176 -68 176 -166c0 -97 -76 -166 -176 -166s-177 69 -177 166zM153 537c0 -67 55 -111 113 -111c61 0 112 44 112 111s-52 111 -112 111s-113 -44 -113 -111zM194 18l519 695l43 -31l-519 -695zM504 162c0 98 77 166 177 166
c99 0 176 -68 176 -166c0 -97 -77 -166 -176 -166c-100 0 -177 69 -177 166zM568 162c0 -67 55 -111 113 -111c60 0 112 44 112 111s-53 111 -112 111c-60 0 -113 -44 -113 -111zM920 162c0 98 77 166 177 166s176 -68 176 -166c0 -97 -76 -166 -176 -166s-177 69 -177 166z
M984 162c0 -67 55 -111 113 -111c61 0 112 44 112 111s-52 111 -112 111s-113 -44 -113 -111z" />
    <glyph glyph-name="guilsinglleft" unicode="&#x2039;" horiz-adv-x="317" 
d="M205 38l-133 212l1 5l212 209l34 -39l-175 -173l111 -173z" />
    <glyph glyph-name="guilsinglright" unicode="&#x203a;" horiz-adv-x="317" 
d="M286 250l-210 -212l-35 41l171 178l-109 168l50 39l134 -209z" />
    <glyph glyph-name="fraction" unicode="&#x2044;" horiz-adv-x="292" 
d="M-108 31l547 675l45 -36l-544 -678z" />
    <glyph glyph-name="uni2070" unicode="&#x2070;" horiz-adv-x="456" 
d="M135 466c0 148 91 259 227 259c96 0 148 -71 148 -170c0 -150 -92 -260 -226 -260c-96 0 -149 72 -149 171zM194 475c0 -76 40 -126 99 -126c88 0 158 77 158 199c0 78 -38 123 -99 123c-88 0 -158 -78 -158 -196z" />
    <glyph glyph-name="uni2074" unicode="&#x2074;" horiz-adv-x="436" 
d="M332 300l17 94h-263l8 42l318 284h53l-50 -272h85l-10 -54h-84l-18 -94h-56zM178 448h181l35 189z" />
    <glyph glyph-name="uni2075" unicode="&#x2075;" horiz-adv-x="392" 
d="M154 494l69 226h256l-11 -55h-208l-34 -107c16 5 38 7 68 7c84 0 138 -43 138 -117c0 -95 -78 -153 -184 -153c-62 0 -116 25 -142 79l44 34c14 -33 52 -59 104 -59c64 0 119 30 119 92c0 51 -44 71 -103 71c-47 0 -89 -9 -116 -18z" />
    <glyph glyph-name="uni2076" unicode="&#x2076;" horiz-adv-x="436" 
d="M132 455c0 151 90 270 238 270c56 0 98 -16 123 -43l-31 -42c-25 22 -52 31 -97 31c-72 0 -148 -49 -166 -149c37 34 85 57 145 57c90 0 138 -46 138 -121c0 -101 -82 -163 -191 -163c-98 0 -159 57 -159 160zM194 458c-5 -56 26 -109 101 -109c69 0 129 34 129 103
c0 50 -40 73 -101 73c-64 0 -113 -35 -129 -67z" />
    <glyph glyph-name="uni2077" unicode="&#x2077;" horiz-adv-x="351" 
d="M141 664l11 56h313l-8 -44l-278 -376h-67l271 364h-242z" />
    <glyph glyph-name="uni2078" unicode="&#x2078;" horiz-adv-x="439" 
d="M310 542h20c46 0 102 28 102 73c0 43 -37 56 -90 56c-66 0 -109 -24 -109 -71c0 -36 36 -58 77 -58zM319 490h-17c-51 0 -118 -20 -118 -81c0 -37 40 -60 103 -60c76 0 127 25 127 78c0 43 -46 63 -95 63zM277 295c-88 0 -153 38 -153 111c0 64 50 101 102 114
c-33 12 -51 42 -51 75c0 93 85 130 174 130c103 0 142 -43 142 -97c0 -55 -35 -92 -87 -110c45 -10 69 -49 69 -87c0 -99 -96 -136 -196 -136z" />
    <glyph glyph-name="uni2079" unicode="&#x2079;" horiz-adv-x="436" 
d="M492 565c0 -181 -115 -270 -238 -270c-59 0 -103 19 -123 43l30 42c22 -19 54 -31 98 -31c71 0 146 46 165 146c-38 -34 -84 -54 -144 -54c-95 0 -140 52 -140 122c0 96 83 162 190 162c103 0 162 -57 162 -160zM430 562c4 56 -27 109 -102 109c-63 0 -129 -35 -129 -103
c0 -55 43 -73 93 -73c72 0 121 35 138 67z" />
    <glyph glyph-name="uni207A" unicode="&#x207a;" horiz-adv-x="433" 
d="M136 488v55h128v128h58v-128h131v-55h-131v-128h-58v128h-128z" />
    <glyph glyph-name="uni207B" unicode="&#x207b;" horiz-adv-x="414" 
d="M136 489v55h298v-55h-298z" />
    <glyph glyph-name="uni207C" unicode="&#x207c;" horiz-adv-x="411" 
d="M136 551v54h295v-54h-295zM136 427v53h295v-53h-295z" />
    <glyph glyph-name="uni207D" unicode="&#x207d;" horiz-adv-x="235" 
d="M260 231l-36 -36c-44 41 -97 113 -97 226c0 158 95 257 196 329l27 -43c-139 -100 -164 -201 -164 -278c0 -91 33 -152 74 -198z" />
    <glyph glyph-name="uni207E" unicode="&#x207e;" horiz-adv-x="237" 
d="M154 714l36 36c44 -41 94 -114 94 -227c0 -158 -95 -257 -196 -329l-27 43c139 100 164 201 164 278c0 91 -30 153 -71 199z" />
    <glyph glyph-name="uni2080" unicode="&#x2080;" horiz-adv-x="456" 
d="M61 66c0 148 91 259 227 259c96 0 148 -71 148 -170c0 -150 -92 -260 -226 -260c-96 0 -149 72 -149 171zM120 75c0 -76 40 -126 99 -126c88 0 158 77 158 199c0 78 -38 123 -99 123c-88 0 -158 -78 -158 -196z" />
    <glyph glyph-name="uni2081" unicode="&#x2081;" horiz-adv-x="278" 
d="M56 253l168 70h42l-79 -423h-57l67 355l-131 -54z" />
    <glyph glyph-name="uni2082" unicode="&#x2082;" horiz-adv-x="394" 
d="M121 196l-40 25c35 66 99 104 169 104c83 0 129 -42 129 -108c0 -89 -91 -163 -179 -217l-70 -45h221l-11 -55h-319l9 50l112 69c94 58 176 119 176 191c0 40 -27 61 -72 61c-55 0 -94 -29 -125 -75z" />
    <glyph glyph-name="uni2083" unicode="&#x2083;" horiz-adv-x="403" 
d="M130 212l-38 30c35 51 94 83 171 83c84 0 128 -36 128 -100c0 -51 -33 -85 -85 -103c44 -12 61 -46 61 -86c0 -95 -89 -141 -184 -141c-69 0 -129 36 -146 96l47 29c17 -48 58 -71 109 -71c67 0 115 30 115 83c0 45 -41 56 -87 56h-56l11 52h44c64 0 112 31 112 76
c0 38 -27 55 -74 55c-56 0 -92 -18 -128 -59z" />
    <glyph glyph-name="uni2084" unicode="&#x2084;" horiz-adv-x="436" 
d="M258 -100l17 94h-263l8 42l318 284h53l-50 -272h85l-10 -54h-84l-18 -94h-56zM104 48h181l35 189z" />
    <glyph glyph-name="uni2085" unicode="&#x2085;" horiz-adv-x="392" 
d="M81 94l69 226h256l-11 -55h-208l-34 -107c16 5 38 7 68 7c84 0 138 -43 138 -117c0 -95 -78 -153 -184 -153c-62 0 -116 25 -142 79l44 34c14 -33 52 -59 104 -59c64 0 119 30 119 92c0 51 -44 71 -103 71c-47 0 -89 -9 -116 -18z" />
    <glyph glyph-name="uni2086" unicode="&#x2086;" horiz-adv-x="436" 
d="M59 55c0 151 90 270 238 270c56 0 98 -16 123 -43l-31 -42c-25 22 -52 31 -97 31c-72 0 -148 -49 -166 -149c37 34 85 57 145 57c90 0 138 -46 138 -121c0 -101 -82 -163 -191 -163c-98 0 -159 57 -159 160zM121 58c-5 -56 26 -109 101 -109c69 0 129 34 129 103
c0 50 -40 73 -101 73c-64 0 -113 -35 -129 -67z" />
    <glyph glyph-name="uni2087" unicode="&#x2087;" horiz-adv-x="351" 
d="M68 264l11 56h313l-8 -44l-278 -376h-67l271 364h-242z" />
    <glyph glyph-name="uni2088" unicode="&#x2088;" horiz-adv-x="439" 
d="M236 142h20c46 0 102 28 102 73c0 43 -37 56 -90 56c-66 0 -109 -24 -109 -71c0 -36 36 -58 77 -58zM245 90h-17c-51 0 -118 -20 -118 -81c0 -37 40 -60 103 -60c76 0 127 25 127 78c0 43 -46 63 -95 63zM203 -105c-88 0 -153 38 -153 111c0 64 50 101 102 114
c-33 12 -51 42 -51 75c0 93 85 130 174 130c103 0 142 -43 142 -97c0 -55 -35 -92 -87 -110c45 -10 69 -49 69 -87c0 -99 -96 -136 -196 -136z" />
    <glyph glyph-name="uni2089" unicode="&#x2089;" horiz-adv-x="436" 
d="M418 165c0 -181 -115 -270 -238 -270c-59 0 -103 19 -123 43l30 42c22 -19 54 -31 98 -31c71 0 146 46 165 146c-38 -34 -84 -54 -144 -54c-95 0 -140 52 -140 122c0 96 83 162 190 162c103 0 162 -57 162 -160zM356 162c4 56 -27 109 -102 109c-63 0 -129 -35 -129 -103
c0 -55 43 -73 93 -73c72 0 121 35 138 67z" />
    <glyph glyph-name="uni208A" unicode="&#x208a;" horiz-adv-x="433" 
d="M58 88v55h128v128h58v-128h131v-55h-131v-128h-58v128h-128z" />
    <glyph glyph-name="uni208B" unicode="&#x208b;" horiz-adv-x="414" 
d="M58 89v55h298v-55h-298z" />
    <glyph glyph-name="uni208C" unicode="&#x208c;" horiz-adv-x="411" 
d="M58 151v54h295v-54h-295zM58 27v53h295v-53h-295z" />
    <glyph glyph-name="uni208D" unicode="&#x208d;" horiz-adv-x="235" 
d="M186 -169l-36 -36c-44 41 -97 113 -97 226c0 158 95 257 196 329l27 -43c-139 -100 -164 -201 -164 -278c0 -91 33 -152 74 -198z" />
    <glyph glyph-name="uni208E" unicode="&#x208e;" horiz-adv-x="237" 
d="M81 314l36 36c44 -41 94 -114 94 -227c0 -158 -95 -257 -196 -329l-27 43c139 100 164 201 164 278c0 91 -30 153 -71 199z" />
    <glyph glyph-name="Euro" unicode="&#x20ac;" horiz-adv-x="576" 
d="M73 408l33 60h68c64 149 197 241 349 241c55 0 101 -12 136 -36l-33 -54c-27 16 -63 27 -109 27c-113 0 -217 -68 -269 -178h313l-32 -60h-307c-7 -20 -11 -37 -16 -61c-3 -15 -3 -25 -5 -40h284l-30 -60h-254c10 -124 89 -193 210 -193c48 0 88 9 115 24l3 -59
c-26 -17 -84 -28 -125 -28c-165 0 -266 97 -273 256h-85l31 60h57c0 14 1 24 4 40c4 24 7 38 15 61h-80z" />
    <glyph glyph-name="uni20B4" unicode="&#x20b4;" horiz-adv-x="564" 
d="M120 412l11 58h295c29 25 46 59 46 95c0 48 -33 79 -93 79c-53 0 -103 -18 -145 -55l-29 49c44 46 121 71 186 71c99 0 155 -47 155 -125c0 -46 -22 -86 -49 -114h72l-11 -58h-107c-53 -46 -121 -76 -163 -104h251l-11 -58h-300c-29 -28 -57 -57 -57 -108
c0 -60 50 -86 115 -86c60 0 121 25 164 74l37 -48c-36 -44 -112 -91 -205 -91c-102 0 -178 42 -178 141c0 49 24 89 55 118h-69l11 58h105c60 45 120 75 165 104h-251z" />
    <glyph glyph-name="uni20BD" unicode="&#x20bd;" horiz-adv-x="565" 
d="M58 306l12 64h104l61 330c18 0 56 1 86 1c29 0 61 1 79 1c158 0 209 -71 209 -167c0 -132 -91 -229 -282 -229h-100l-18 -98h169l-11 -63h-169l-27 -145h-66l27 145h-104l12 63h103l18 98h-103zM394 638l-105 -1l-50 -267h98c134 0 202 59 202 159c0 70 -43 109 -145 109
z" />
    <glyph glyph-name="afii61352" unicode="&#x2116;" horiz-adv-x="1101" 
d="M612 0h-54l-311 576l-106 -576h-65l129 700h53l311 -578l106 578h66zM769 470c0 98 78 189 194 189c90 0 144 -61 144 -138c0 -110 -84 -194 -196 -194c-85 0 -142 60 -142 143zM829 475c0 -56 39 -93 88 -93c79 0 131 61 131 129c0 56 -40 93 -90 93
c-75 0 -129 -58 -129 -129zM748 203l11 61h273l-12 -61h-272z" />
    <glyph glyph-name="trademark" unicode="&#x2122;" horiz-adv-x="831" 
d="M421 377v323h55l138 -158l131 158h55v-323h-64v233l-123 -149h-3l-125 149v-233h-64zM54 641v59h318v-59h-124v-264h-63v264h-131z" />
    <glyph glyph-name="partialdiff" unicode="&#x2202;" horiz-adv-x="579" 
d="M74 227c0 186 130 293 268 293c86 0 144 -53 165 -112c-2 158 -83 251 -266 241l9 60c205 1 321 -87 321 -340c0 -211 -97 -378 -267 -378c-130 0 -230 94 -230 236zM145 228c0 -118 81 -174 161 -174c111 0 183 112 192 240c-14 74 -62 164 -163 164
c-107 0 -190 -101 -190 -230z" />
    <glyph glyph-name="product" unicode="&#x220f;" horiz-adv-x="877" 
d="M735 -200v835h-509v-835h-69v900h647v-900h-69z" />
    <glyph glyph-name="summation" unicode="&#x2211;" horiz-adv-x="625" 
d="M389 250l-307 404v46h545v-65h-449l293 -385l-297 -385h453v-65h-545v46z" />
    <glyph glyph-name="minus" unicode="&#x2212;" horiz-adv-x="582" 
d="M107 331v58h453v-58h-453z" />
    <glyph glyph-name="uni2215" unicode="&#x2215;" horiz-adv-x="292" 
d="M-108 31l547 675l45 -36l-544 -678z" />
    <glyph glyph-name="radical" unicode="&#x221a;" horiz-adv-x="590" 
d="M44 392v63h154l171 -344l130 589h272v-61h-217l-148 -645h-49l-203 398h-110z" />
    <glyph glyph-name="infinity" unicode="&#x221e;" horiz-adv-x="728" 
d="M577 192c-77 0 -128 48 -172 102c-32 -42 -66 -80 -117 -95c-93 -29 -198 38 -198 142c0 79 62 151 157 151c68 0 115 -48 158 -102c31 42 67 80 123 95c102 30 194 -34 194 -148c0 -69 -49 -145 -145 -145zM568 434c-57 0 -93 -41 -127 -90c39 -50 78 -94 132 -94
c57 0 86 48 86 88c0 52 -31 96 -91 96zM248 250c55 0 89 41 122 89c-38 51 -75 95 -121 95c-58 0 -96 -43 -96 -93c0 -60 53 -91 95 -91z" />
    <glyph glyph-name="integral" unicode="&#x222b;" horiz-adv-x="336" 
d="M146 548c0 146 91 190 169 190c54 0 102 -26 125 -61l-41 -39c-17 23 -45 38 -81 38c-60 0 -106 -32 -106 -137v-555c0 -146 -91 -190 -169 -190c-54 0 -101 26 -125 61l41 40c18 -24 45 -39 81 -39c60 0 106 32 106 137v555z" />
    <glyph glyph-name="approxequal" unicode="&#x2248;" horiz-adv-x="585" 
d="M125 401l-30 43c43 44 89 65 130 65c80 0 143 -69 225 -69c33 0 66 16 97 46l27 -44c-41 -38 -83 -58 -123 -58c-82 0 -143 68 -223 68c-36 0 -71 -20 -103 -51zM125 225l-30 43c43 44 89 65 130 65c80 0 152 -69 225 -69c33 0 66 16 97 47l27 -44
c-41 -39 -83 -59 -123 -59c-82 0 -143 68 -223 68c-36 0 -71 -20 -103 -51z" />
    <glyph glyph-name="notequal" unicode="&#x2260;" horiz-adv-x="582" 
d="M109 418v58h233l87 235l55 -19l-81 -216h156v-58h-177l-44 -117h221v-58h-242l-95 -255l-55 21l88 234h-146v58h166l44 117h-210z" />
    <glyph glyph-name="lessequal" unicode="&#x2264;" horiz-adv-x="565" 
d="M101 261v64l413 -257v-67zM514 178l-413 260v27l413 257v-72l-322 -199l322 -201v-72z" />
    <glyph glyph-name="greaterequal" unicode="&#x2265;" horiz-adv-x="565" 
d="M514 325v-64l-413 -260v67zM514 438l-413 -260v72l322 201l-322 199v72l413 -257v-27z" />
    <glyph glyph-name="lozenge" unicode="&#x25ca;" horiz-adv-x="465" 
d="M246 -7l-167 257l168 270h56l167 -259l-168 -268h-56zM147 251l127 -197l128 207l-128 198z" />
    <glyph glyph-name="uniF350" unicode="&#xf350;" horiz-adv-x="551" 
d="M-18 0l351 561h52l144 -561h-67l-39 146h-277l-92 -146h-72zM342 462l-160 -257h228z" />
    <glyph glyph-name="uniF351" unicode="&#xf351;" horiz-adv-x="532" 
d="M544 560l-11 -63h-335l-32 -168h172c119 0 180 -47 180 -138c0 -147 -115 -191 -259 -191h-217l103 560h399zM319 266h-164l-38 -203h159c112 0 173 36 173 115c0 65 -42 88 -130 88z" />
    <glyph glyph-name="uniF352" unicode="&#xf352;" horiz-adv-x="542" 
d="M42 0l103 560h224c133 0 176 -50 176 -126c0 -66 -40 -119 -110 -144c51 -11 83 -55 83 -111c0 -132 -113 -179 -256 -179h-220zM318 255h-165l-36 -192h157c118 0 179 34 179 108c0 60 -43 84 -135 84zM354 497h-156l-34 -180h168c84 0 145 40 145 104
c0 52 -33 76 -123 76z" />
    <glyph glyph-name="uniF353" unicode="&#xf353;" horiz-adv-x="459" 
d="M42 0l103 560h397l-11 -63h-333l-93 -497h-63z" />
    <glyph glyph-name="uniF354" unicode="&#xf354;" horiz-adv-x="595" 
d="M-39 -103l30 165h60c31 37 110 162 154 399l18 99h374l-92 -498h73l-30 -165h-61l19 103h-465l-19 -103h-61zM276 498l-16 -81c-23 -115 -77 -277 -136 -355h318l80 436h-246z" />
    <glyph glyph-name="uniF355" unicode="&#xf355;" horiz-adv-x="516" 
d="M42 0l103 560h405l-11 -63h-341l-35 -181h320l-12 -63h-319l-35 -190h349l-11 -63h-413z" />
    <glyph glyph-name="uniF356" unicode="&#xf356;" horiz-adv-x="744" 
d="M292 306l-198 254h76l206 -259l48 259h63l-47 -259l299 259h88l-305 -260l201 -300h-76l-173 259l-49 -41l-41 -218h-64l41 224l-32 34l-262 -258h-85z" />
    <glyph glyph-name="uniF357" unicode="&#xf357;" horiz-adv-x="520" 
d="M249 -7c-127 0 -205 50 -233 116l49 35c36 -60 95 -89 188 -89c104 0 178 48 178 117c0 53 -49 83 -134 83h-102l11 63h97c79 0 153 36 153 103c0 64 -58 84 -132 84c-84 0 -150 -43 -190 -86l-45 39c52 60 133 109 239 109c118 0 193 -46 193 -139
c0 -69 -49 -122 -113 -139c60 -14 89 -60 89 -111c0 -119 -109 -185 -248 -185z" />
    <glyph glyph-name="uniF358" unicode="&#xf358;" horiz-adv-x="597" 
d="M96 0h-54l103 560h64l-82 -439l436 439h55l-103 -560h-64l81 438z" />
    <glyph glyph-name="uniF359" unicode="&#xf359;" horiz-adv-x="597" 
d="M96 0h-54l103 560h64l-82 -439l436 439h55l-103 -560h-64l81 438zM265 751h57c-10 -60 22 -91 79 -91c65 0 100 38 110 91h58c-15 -94 -82 -145 -175 -145c-92 0 -143 58 -129 145z" />
    <glyph glyph-name="uniF35A" unicode="&#xf35a;" horiz-adv-x="529" 
d="M42 0l103 560h64l-51 -276l342 276h92l-322 -262l238 -298h-83l-205 259l-79 -60l-36 -199h-63z" />
    <glyph glyph-name="uniF35B" unicode="&#xf35b;" horiz-adv-x="570" 
d="M425 0l92 498h-257l-12 -68c-62 -338 -153 -433 -238 -433c-11 0 -19 2 -30 3l12 65c46 -11 130 30 194 377l22 118h384l-104 -560h-63z" />
    <glyph glyph-name="uniF35C" unicode="&#xf35c;" horiz-adv-x="674" 
d="M42 0l103 560h51l167 -286l265 286h67l-103 -560h-64l83 449l-251 -270h-15l-157 269l-83 -448h-63z" />
    <glyph glyph-name="uniF35D" unicode="&#xf35d;" horiz-adv-x="602" 
d="M458 0l46 253h-352l-47 -253h-63l103 560h64l-46 -244h353l45 244h64l-104 -560h-63z" />
    <glyph glyph-name="uniF35E" unicode="&#xf35e;" horiz-adv-x="633" 
d="M57 233c0 187 139 334 341 334c143 0 241 -100 241 -240c0 -182 -137 -334 -338 -334c-145 0 -244 100 -244 240zM124 244c0 -126 87 -187 184 -187c156 0 264 119 264 260c0 82 -47 186 -182 186c-152 0 -266 -115 -266 -259z" />
    <glyph glyph-name="uniF35F" unicode="&#xf35f;" horiz-adv-x="598" 
d="M453 0l92 497h-347l-93 -497h-63l103 560h475l-103 -560h-64z" />
    <glyph glyph-name="uniF360" unicode="&#xf360;" horiz-adv-x="526" 
d="M105 0h-63l103 560h205c130 0 201 -47 201 -148c0 -131 -96 -202 -266 -202h-141zM342 498h-144l-42 -226h138c113 0 189 34 189 130c0 64 -38 96 -141 96z" />
    <glyph glyph-name="uniF361" unicode="&#xf361;" horiz-adv-x="556" 
d="M515 133l35 -49c-52 -58 -151 -91 -234 -91c-166 0 -260 97 -260 240c0 175 125 334 344 334c102 0 170 -42 197 -91l-44 -39c-36 44 -85 66 -165 66c-158 0 -264 -116 -264 -263c0 -118 79 -183 196 -183c82 0 150 33 195 76z" />
    <glyph glyph-name="uniF362" unicode="&#xf362;" horiz-adv-x="469" 
d="M75 497l11 63h464l-11 -63h-201l-92 -497h-64l92 497h-199z" />
    <glyph glyph-name="uniF363" unicode="&#xf363;" horiz-adv-x="549" 
d="M137 14l27 55c6 -4 16 -7 26 -7c24 0 54 34 76 67l11 17l-193 414h69l167 -354l240 354h72l-292 -433c-55 -81 -101 -127 -154 -127c-21 0 -36 5 -49 14z" />
    <glyph glyph-name="uniF364" unicode="&#xf364;" horiz-adv-x="706" 
d="M298 -12l13 69h-4c-159 0 -255 75 -255 199c0 200 180 263 344 263l11 53h64l-10 -53c147 0 260 -63 260 -200c0 -179 -147 -262 -342 -262h-4l-12 -69h-65zM450 457h-1l-61 -338h3c146 0 263 57 263 192c0 105 -81 146 -204 146zM120 267c0 -114 86 -148 200 -148h3
l62 338c-150 0 -265 -58 -265 -190z" />
    <glyph glyph-name="uniF365" unicode="&#xf365;" horiz-adv-x="525" 
d="M590 560l-258 -278l160 -282h-69l-134 235l-217 -235h-80l265 289l-151 271h70l125 -222l205 222h84z" />
    <glyph glyph-name="uniF366" unicode="&#xf366;" horiz-adv-x="600" 
d="M42 0l103 560h64l-92 -497h330l93 497h63l-92 -497h72l-30 -166h-61l19 103h-469z" />
    <glyph glyph-name="uniF367" unicode="&#xf367;" horiz-adv-x="549" 
d="M572 560l-104 -560h-63l44 242c-38 -21 -109 -41 -178 -41c-112 0 -187 44 -186 144c0 12 1 25 3 39l33 176h63l-25 -146c-3 -16 -5 -35 -5 -50c0 -83 56 -100 136 -100c65 0 135 23 172 44l46 252h64z" />
    <glyph glyph-name="uniF368" unicode="&#xf368;" horiz-adv-x="742" 
d="M42 0l103 560h64l-92 -497h214l92 497h63l-92 -497h214l92 497h64l-104 -560h-618z" />
    <glyph glyph-name="uniF369" unicode="&#xf369;" horiz-adv-x="760" 
d="M42 0l103 560h64l-92 -497h214l92 497h63l-92 -497h214l92 497h64l-92 -497h72l-31 -166h-60l19 103h-630z" />
    <glyph glyph-name="uniF36A" unicode="&#xf36a;" horiz-adv-x="603" 
d="M72 498l12 62h201l-39 -211h153c135 0 199 -52 199 -150c0 -137 -109 -199 -271 -199h-209l92 498h-138zM386 286h-151l-42 -223h149c123 0 188 43 188 127c0 70 -51 96 -144 96z" />
    <glyph glyph-name="uniF36B" unicode="&#xf36b;" horiz-adv-x="684" 
d="M539 0l103 560h64l-104 -560h-63zM288 286h-129l-42 -223h127c120 0 187 43 187 124c0 74 -46 99 -143 99zM209 560l-39 -211h131c134 0 199 -53 199 -151c0 -133 -102 -198 -271 -198h-187l103 560h64z" />
    <glyph glyph-name="uniF36C" unicode="&#xf36c;" horiz-adv-x="528" 
d="M312 286h-153l-42 -223h150c119 0 188 40 188 125c0 75 -51 98 -143 98zM209 560l-39 -211h155c134 0 198 -51 198 -151c0 -144 -114 -198 -270 -198h-211l103 560h64z" />
    <glyph glyph-name="uniF36D" unicode="&#xf36d;" horiz-adv-x="560" 
d="M187 254l12 63h303c9 114 -58 188 -188 188c-65 0 -147 -33 -200 -87l-36 42c60 74 167 107 253 107c154 0 238 -89 238 -230c0 -191 -132 -344 -342 -344c-85 0 -173 30 -213 108l49 36c28 -52 100 -82 171 -82c127 0 224 74 256 199h-303z" />
    <glyph glyph-name="uniF36E" unicode="&#xf36e;" horiz-adv-x="799" 
d="M42 0l103 560h64l-46 -244h97c36 153 169 251 315 251s231 -97 231 -235c0 -207 -154 -339 -326 -339c-159 0 -243 123 -228 262h-99l-48 -255h-63zM317 240c0 -107 66 -184 169 -184c145 0 253 119 253 266c0 107 -66 182 -170 182c-144 0 -252 -115 -252 -264z" />
    <glyph glyph-name="uniF36F" unicode="&#xf36f;" horiz-adv-x="547" 
d="M402 0l39 210h-153l-215 -210h-87l228 220c-85 12 -124 67 -124 142c0 126 91 198 258 198h221l-104 -560h-63zM272 272h180l42 226h-165c-122 0 -171 -63 -171 -126c0 -64 34 -97 114 -100z" />
    <glyph glyph-name="uniF371" unicode="&#xf371;" horiz-adv-x="516" 
d="M42 0l103 560h405l-11 -63h-341l-35 -181h320l-12 -63h-319l-35 -190h349l-11 -63h-413zM217 695c0 23 18 42 41 42s42 -19 42 -42s-19 -41 -42 -41s-41 18 -41 41zM444 695c0 23 18 42 41 42s42 -19 42 -42s-19 -41 -42 -41s-41 18 -41 41z" />
    <glyph glyph-name="uniF372" unicode="&#xf372;" horiz-adv-x="596" 
d="M515 192c0 58 -29 92 -86 93c-56 1 -111 -25 -144 -63l-41 -222h-64l93 498h-199l11 62h462l-11 -62h-200l-37 -201c30 26 84 50 146 50c77 0 135 -45 135 -146c0 -143 -82 -208 -173 -208c-40 0 -71 18 -83 44l45 41c9 -14 24 -23 46 -23c56 0 100 49 100 137z" />
    <glyph glyph-name="uniF373" unicode="&#xf373;" horiz-adv-x="459" 
d="M42 0l103 560h397l-11 -63h-333l-93 -497h-63zM498 765l-131 -148l-43 30l124 155z" />
    <glyph glyph-name="uniF374" unicode="&#xf374;" horiz-adv-x="553" 
d="M426 317l-13 -63h-289c-1 -9 -1 -18 -1 -25c0 -106 67 -174 190 -174c71 0 139 32 182 83l47 -35c-52 -72 -135 -110 -234 -110c-161 0 -252 93 -252 250c0 201 149 324 344 324c77 0 164 -28 195 -95l-53 -37c-30 51 -90 70 -150 70c-120 0 -232 -66 -259 -188h293z" />
    <glyph glyph-name="uniF375" unicode="&#xf375;" horiz-adv-x="495" 
d="M404 160c0 122 -311 61 -311 238c0 119 119 169 230 169c95 0 161 -32 194 -85l-44 -39c-34 37 -75 61 -155 61c-76 0 -157 -29 -157 -99c0 -122 310 -63 310 -239c0 -120 -114 -173 -226 -173c-109 0 -187 51 -216 113l46 39c37 -55 92 -89 180 -89c70 0 149 31 149 104
z" />
    <glyph glyph-name="uniF376" unicode="&#xf376;" horiz-adv-x="201" 
d="M49 0l104 560h64l-104 -560h-64z" />
    <glyph glyph-name="uniF377" unicode="&#xf377;" horiz-adv-x="201" 
d="M49 0l104 560h64l-104 -560h-64zM100 646c0 20 16 37 36 37s37 -17 37 -37s-17 -36 -37 -36s-36 16 -36 36zM225 646c0 20 16 37 36 37s37 -17 37 -37s-17 -36 -37 -36s-36 16 -36 36z" />
    <glyph glyph-name="uniF378" unicode="&#xf378;" horiz-adv-x="392" 
d="M414 560l-72 -392c-20 -108 -86 -175 -195 -175c-73 0 -127 41 -148 104l50 35c16 -40 50 -78 101 -77c67 1 114 32 131 125l70 380h63z" />
    <glyph glyph-name="uniF379" unicode="&#xf379;" horiz-adv-x="842" 
d="M626 287h-99l-42 -223l96 -1c119 0 188 40 188 125c0 75 -51 99 -143 99zM567 0h-157l92 497h-242l-12 -67c-66 -355 -159 -433 -238 -433c-11 0 -19 2 -30 3l12 65c46 -12 130 29 194 377l22 118h370l-39 -210h100c134 0 198 -52 198 -152c0 -144 -114 -198 -270 -198z
" />
    <glyph glyph-name="uniF37A" unicode="&#xf37a;" horiz-adv-x="845" 
d="M416 0l50 271h-310l-51 -271h-63l103 560h64l-42 -226h311l42 226h63l-42 -226h113c126 0 184 -46 184 -138c0 -130 -99 -196 -255 -196h-167zM646 271h-116l-39 -208h105c103 0 174 37 174 127c0 57 -39 81 -124 81z" />
    <glyph glyph-name="uniF37B" unicode="&#xf37b;" horiz-adv-x="591" 
d="M74 497l11 63h462l-11 -63h-200l-36 -198c34 24 81 48 140 48c81 0 135 -38 135 -129c0 -16 -1 -34 -5 -54l-30 -164h-64l28 153c3 16 5 31 5 45c0 53 -20 86 -86 86c-50 0 -104 -24 -137 -60l-42 -224h-64l93 497h-199z" />
    <glyph glyph-name="uniF37C" unicode="&#xf37c;" horiz-adv-x="529" 
d="M42 0l103 560h64l-51 -276l342 276h92l-322 -262l238 -298h-83l-205 259l-79 -60l-36 -199h-63zM495 765l-131 -148l-43 30l124 155z" />
    <glyph glyph-name="uniF37E" unicode="&#xf37e;" horiz-adv-x="549" 
d="M137 14l27 55c6 -4 16 -7 26 -7c24 0 54 34 76 67l11 17l-193 414h69l167 -354l240 354h72l-292 -433c-55 -81 -101 -127 -154 -127c-21 0 -36 5 -49 14zM259 751h57c-10 -60 22 -91 79 -91c65 0 100 38 110 91h58c-15 -94 -82 -145 -175 -145c-92 0 -143 58 -129 145z
" />
    <glyph glyph-name="uniF37F" unicode="&#xf37f;" horiz-adv-x="580" 
d="M42 0l103 560h64l-92 -498h329l93 498h63l-103 -560h-199l-23 -121h-60l22 121h-197z" />
    <glyph glyph-name="uniF381" unicode="&#xf381;" horiz-adv-x="579" 
d="M58 416l10 63h113l16 81h63l-15 -81h195l-12 -63h-194l-15 -76h155c134 0 200 -47 200 -146c0 -138 -110 -194 -270 -194h-211l77 416h-112zM360 277h-152l-40 -214h150c121 0 187 41 187 125c0 62 -52 89 -145 89z" />
    <glyph glyph-name="uniF389" unicode="&#xf389;" horiz-adv-x="633" 
d="M57 233c0 191 142 334 345 334c139 0 237 -100 237 -240c0 -210 -165 -334 -343 -334c-140 0 -239 100 -239 240zM308 57c135 0 223 87 255 194h-439c-6 -114 72 -194 184 -194zM390 503c-121 0 -218 -71 -257 -189h439c6 112 -73 189 -182 189z" />
    <glyph glyph-name="uniF38A" unicode="&#xf38a;" horiz-adv-x="622" 
d="M576 427l-279 -427h-46l-169 560h66l139 -462l238 363c49 74 86 105 134 105c21 0 45 -7 61 -21l-35 -49c-6 4 -14 7 -26 7c-25 0 -49 -23 -83 -76z" />
    <glyph glyph-name="uniF393" unicode="&#xf393;" horiz-adv-x="461" 
d="M42 0l103 560h338l18 101h59l-29 -163h-333l-93 -498h-63z" />
    <glyph glyph-name="uniF3CF" unicode="&#xf3cf;" horiz-adv-x="934" 
d="M515 0h-50l-263 448l-82 -448h-60l103 560h50l262 -449l83 449h60zM642 377c0 87 76 151 167 151c75 0 123 -47 123 -118c0 -88 -71 -153 -164 -153c-79 0 -126 46 -126 120zM699 380c0 -47 29 -70 72 -70c62 0 104 39 104 95c0 42 -27 70 -73 70
c-58 0 -103 -39 -103 -95zM625 153l10 56h237l-10 -56h-237z" />
    <glyph glyph-name="uniF3D0" unicode="&#xf3d0;" horiz-adv-x="450" 
d="M285 751h57c-10 -60 22 -91 79 -91c65 0 100 38 110 91h58c-15 -94 -82 -145 -175 -145c-92 0 -143 58 -129 145z" />
    <glyph glyph-name="uniF3E4" unicode="&#xf3e4;" horiz-adv-x="0" 
d="M-104 765l-131 -148l-43 30l124 155z" />
    <glyph glyph-name="uniF400" unicode="&#xf400;" horiz-adv-x="0" 
d="M-43 762l-140 -148l-34 30l133 155z" />
    <glyph glyph-name="uniF401" unicode="&#xf401;" horiz-adv-x="0" 
d="M-65 853l-196 -91l-14 42l194 107z" />
    <glyph glyph-name="uniF406" unicode="&#xf406;" horiz-adv-x="516" 
d="M346 868l37 31c15 -25 53 -62 125 -62c63 0 112 31 144 64l29 -35c-32 -41 -96 -89 -180 -89c-93 0 -136 51 -155 91z" />
    <glyph glyph-name="uniF407" unicode="&#xf407;" horiz-adv-x="485" 
d="M249 -171l26 41c22 -13 45 -21 68 -21c45 0 59 13 59 34c0 25 -17 32 -49 32h-21l16 85h43l-7 -41c58 -2 81 -29 81 -70c0 -54 -43 -91 -124 -91c-31 0 -68 10 -92 31z" />
    <glyph glyph-name="uniF408" unicode="&#xf408;" horiz-adv-x="449" 
d="M455 905l157 -103l-27 -43l-134 83l-159 -83l-19 45l178 101h4z" />
    <glyph glyph-name="uniF409" unicode="&#xf409;" horiz-adv-x="411" 
d="M311 -86l58 37c10 -13 20 -36 20 -61c0 -65 -57 -119 -95 -141l-26 29c28 24 59 57 59 94c0 18 -7 30 -16 42z" />
    <glyph glyph-name="uniF40A" unicode="&#xf40a;" horiz-adv-x="162" 
d="M207 696l58 34c11 -14 19 -40 19 -66c0 -72 -61 -124 -108 -152l-24 32c38 24 68 61 68 99c0 22 -6 43 -13 53z" />
    <glyph glyph-name="uniF40B" unicode="&#xf40b;" horiz-adv-x="394" 
d="M462 824c0 24 19 44 43 44s44 -20 44 -44s-20 -43 -44 -43s-43 19 -43 43z" />
    <glyph glyph-name="uniF40C" unicode="&#xf40c;" horiz-adv-x="462" 
d="M400 811c0 59 49 106 120 106c57 0 97 -36 97 -85c0 -70 -60 -107 -122 -107c-60 0 -95 38 -95 86zM450 814c0 -27 22 -43 49 -43c45 0 67 26 67 56c0 26 -19 43 -49 43c-43 0 -67 -22 -67 -56z" />
    <glyph glyph-name="uniF40D" unicode="&#xf40d;" horiz-adv-x="531" 
d="M368 799l-22 40c29 25 65 44 103 44c61 0 101 -46 143 -46c31 0 51 14 74 30l22 -43c-27 -22 -60 -44 -108 -44c-57 0 -93 46 -144 46c-26 0 -49 -15 -68 -27z" />
    <glyph glyph-name="uniF40E" unicode="&#xf40e;" horiz-adv-x="429" 
d="M399 -139l2 -46c-18 -9 -43 -15 -70 -15c-49 0 -96 23 -96 83c0 83 93 135 198 138l-4 -26c-63 1 -136 -38 -136 -100c0 -33 26 -43 53 -43c19 0 36 3 53 9z" />
    <glyph glyph-name="uniF410" unicode="&#xf410;" horiz-adv-x="0" 
d="M-198 762l-171 91l37 55l162 -107z" />
    <glyph glyph-name="uniF416" unicode="&#xf416;" horiz-adv-x="364" 
d="M263 -86l58 37c11 -13 21 -36 21 -61c0 -65 -58 -119 -95 -141l-24 27c29 24 56 57 56 96c0 18 -6 30 -16 42z" />
    <glyph glyph-name="uniF418" unicode="&#xf418;" horiz-adv-x="162" 
d="M178 536l58 34c11 -14 19 -40 19 -66c0 -72 -61 -124 -109 -152l-25 33c38 24 70 60 70 98c0 22 -7 43 -13 53z" />
    <glyph glyph-name="uniF447" unicode="&#xf447;" horiz-adv-x="469" 
d="M96 -173l26 43c21 -13 45 -21 68 -21c44 0 58 13 58 39c0 20 -17 27 -49 27h-21l15 85h-11l92 497h-199l11 63h464l-11 -63h-201l-92 -497h-10l-7 -41c57 -2 81 -29 81 -65c0 -49 -41 -96 -129 -96c-33 0 -65 11 -85 29z" />
    <glyph glyph-name="uniF44E" unicode="&#xf44e;" horiz-adv-x="609" 
d="M46 218c0 42 11 70 22 99h483c9 114 -59 188 -188 188c-65 0 -146 -33 -200 -87l-36 42c67 70 167 107 252 107c152 0 237 -89 237 -229c0 -191 -137 -345 -342 -345c-166 0 -228 122 -228 225zM540 254h-429c-16 -108 43 -199 179 -199c120 0 226 82 250 199z" />
    <glyph glyph-name="uniF452" unicode="&#xf452;" horiz-adv-x="680" 
d="M42 0l103 560h401l-11 -63h-337l-38 -200h315l-12 -63h-315l-43 -234h-63zM527 0l104 560h64l-104 -560h-64z" />
    <glyph glyph-name="uniF453" unicode="&#xf453;" horiz-adv-x="953" 
d="M42 0l103 560h401l-11 -63h-337l-38 -200h315l-12 -63h-315l-43 -234h-63zM521 0l103 560h64l-92 -497h340l-12 -63h-403z" />
    <glyph glyph-name="zero.tab" unicode="&#xf4e0;" horiz-adv-x="600" 
d="M68 259c0 221 105 449 319 449c139 0 204 -111 204 -265c0 -267 -125 -451 -319 -451c-138 0 -204 111 -204 267zM136 266c0 -128 49 -210 140 -210c158 0 247 177 247 381c0 126 -47 207 -140 207c-152 0 -247 -172 -247 -378z" />
    <glyph glyph-name="one.tab" unicode="&#xf4e1;" horiz-adv-x="600" 
d="M42 0l11 63h237l102 555l-244 -110l-13 61l294 136h42l-119 -642h185l-12 -63h-483z" />
    <glyph glyph-name="two.tab" unicode="&#xf4e2;" horiz-adv-x="600" 
d="M204 523l-57 27c46 86 126 158 261 158c137 0 205 -77 205 -182c0 -161 -128 -262 -323 -387l-119 -76h376l-12 -63h-495l10 53l189 124c200 132 305 209 305 339c0 75 -46 126 -136 126c-94 0 -162 -49 -204 -119z" />
    <glyph glyph-name="three.tab" unicode="&#xf4e3;" horiz-adv-x="600" 
d="M203 525l-52 34c53 94 148 150 262 150s192 -58 192 -162c0 -88 -50 -148 -143 -181c76 -18 109 -76 109 -142c0 -151 -124 -233 -282 -233c-127 0 -209 57 -230 166l62 26c25 -88 76 -125 169 -125c126 0 211 55 211 161c0 81 -68 107 -161 107h-90l11 65h73
c116 0 202 62 202 149c0 67 -50 103 -128 103c-100 0 -157 -49 -205 -118z" />
    <glyph glyph-name="four.tab" unicode="&#xf4e4;" horiz-adv-x="600" 
d="M383 0l28 150h-383l9 45l479 505h60l-90 -486h102l-12 -64h-102l-27 -150h-64zM136 214h286l69 371z" />
    <glyph glyph-name="five.tab" unicode="&#xf4e5;" horiz-adv-x="600" 
d="M117 344l105 356h423l-11 -65h-367l-67 -222c38 17 92 31 162 31c132 0 206 -77 206 -196c0 -146 -115 -257 -290 -257c-115 0 -203 44 -234 148l59 29c31 -78 84 -111 180 -111c129 0 215 78 215 187c0 86 -62 139 -158 139c-72 0 -126 -21 -173 -47z" />
    <glyph glyph-name="six.tab" unicode="&#xf4e6;" horiz-adv-x="600" 
d="M77 244c0 280 132 460 355 465c85 2 143 -32 173 -75l-44 -46c-36 36 -71 55 -136 55c-153 0 -247 -112 -271 -301c56 83 141 122 232 122c134 0 196 -84 196 -181c0 -201 -137 -292 -284 -292c-139 0 -221 91 -221 253zM151 262c-19 -99 27 -205 152 -205
c131 0 210 89 210 213c0 87 -56 132 -143 132c-105 0 -196 -84 -219 -140z" />
    <glyph glyph-name="seven.tab" unicode="&#xf4e7;" horiz-adv-x="600" 
d="M141 635l13 65h485l-8 -45l-446 -655h-76l434 635h-402z" />
    <glyph glyph-name="eight.tab" unicode="&#xf4e8;" horiz-adv-x="600" 
d="M334 392h29c100 0 167 66 167 143s-53 109 -137 109c-98 0 -179 -55 -179 -142c0 -66 41 -110 120 -110zM349 328h-25c-116 0 -192 -69 -192 -156c0 -89 68 -117 154 -117c124 0 206 57 206 162c0 71 -49 111 -143 111zM282 -9c-129 0 -220 56 -220 170
c0 112 74 178 163 204c-54 23 -80 72 -80 129c0 130 115 215 256 215c130 0 198 -67 198 -162c0 -89 -50 -155 -142 -186c73 -22 105 -77 105 -137c0 -162 -131 -233 -280 -233z" />
    <glyph glyph-name="nine.tab" unicode="&#xf4e9;" horiz-adv-x="600" 
d="M601 463c0 -298 -137 -472 -339 -472c-92 0 -152 41 -180 93l51 44c32 -48 70 -71 133 -71c148 0 241 125 264 293c-48 -71 -129 -114 -211 -114c-127 0 -202 77 -202 199c0 164 124 274 270 274c169 0 214 -117 214 -246zM533 435c12 95 -26 208 -149 208
c-122 0 -199 -91 -199 -206c0 -90 55 -139 142 -139c99 0 182 81 206 137z" />
    <glyph glyph-name="dollar.tab" unicode="&#xf4ec;" horiz-adv-x="600" 
d="M482 197c0 161 -364 82 -364 300c0 121 101 200 250 211l15 80h62l-14 -81c84 -7 150 -38 183 -94l-48 -43c-38 46 -94 73 -183 73c-73 0 -195 -34 -195 -140c0 -153 364 -78 364 -297c0 -118 -103 -208 -253 -214l-17 -90h-63l17 92c-99 11 -171 68 -200 131l49 44
c45 -74 105 -112 208 -112c96 0 189 51 189 140z" />
    <glyph glyph-name="Euro.tab" unicode="&#xf4ed;" horiz-adv-x="600" 
d="M83 408l33 60h68c64 149 197 241 349 241c55 0 101 -12 136 -36l-33 -54c-27 16 -63 27 -109 27c-113 0 -217 -68 -269 -178h313l-32 -60h-307c-7 -20 -11 -37 -16 -61c-3 -15 -3 -25 -5 -40h284l-30 -60h-254c10 -124 89 -193 210 -193c48 0 88 9 115 24l3 -59
c-26 -17 -84 -28 -125 -28c-165 0 -266 97 -273 256h-85l31 60h57c0 14 1 24 4 40c4 24 7 38 15 61h-80z" />
    <glyph glyph-name="cent.tab" unicode="&#xf4ee;" horiz-adv-x="600" 
d="M469 131l33 -35c-45 -66 -131 -100 -202 -105l-35 -191h-64l36 194c-109 22 -173 98 -173 219c0 158 114 298 272 317l31 170h64l-32 -168c72 -6 132 -44 153 -99l-50 -31c-24 44 -64 70 -118 73l-77 -427c59 2 122 36 162 83zM132 221c0 -97 44 -153 119 -169l75 420
c-108 -17 -194 -126 -194 -251z" />
    <glyph glyph-name="sterling.tab" unicode="&#xf4ef;" horiz-adv-x="600" 
d="M124 278l10 55h69c-6 39 -21 78 -21 136c0 137 98 239 249 239c71 0 132 -29 164 -77l-43 -49c-34 42 -73 61 -124 61c-96 0 -175 -57 -175 -167c0 -48 15 -94 21 -143h163l-10 -55h-150v-13c0 -47 -22 -107 -63 -157c68 0 118 -49 182 -49c51 0 76 17 113 49l28 -48
c-48 -43 -98 -63 -146 -63c-75 0 -129 50 -206 50c-37 0 -78 -17 -121 -55l-22 49c30 28 63 47 92 57c43 47 74 102 74 166v14h-84z" />
    <glyph glyph-name="yen.tab" unicode="&#xf4fa;" horiz-adv-x="600" 
d="M122 304l10 58h140l-165 338h75l159 -325l281 325h85l-293 -338h142l-11 -58h-179l-22 -117h179l-10 -58h-180l-23 -129h-67l24 129h-178l11 58h177l22 117h-177z" />
    <glyph glyph-name="florin.tab" unicode="&#xf4fb;" horiz-adv-x="600" 
d="M392 506c-3 -18 -7 -36 -10 -54h161v-61h-172l-67 -377c-18 -104 -42 -222 -172 -222c-41 0 -78 14 -98 33l20 52c18 -14 42 -24 68 -24c65 0 95 43 109 123l74 415h-152v61h163l11 65c18 101 57 192 179 192c56 0 95 -18 119 -38l-24 -52c-23 18 -49 29 -87 29
c-70 0 -103 -42 -122 -142z" />
    <glyph glyph-name="uni20B4.tab" unicode="&#xf4fc;" horiz-adv-x="600" 
d="M120 412l11 58h295c29 25 46 59 46 95c0 48 -33 79 -93 79c-53 0 -103 -18 -145 -55l-29 49c44 46 121 71 186 71c99 0 155 -47 155 -125c0 -46 -22 -86 -49 -114h72l-11 -58h-107c-53 -46 -121 -76 -163 -104h251l-11 -58h-300c-29 -28 -57 -57 -57 -108
c0 -60 50 -86 115 -86c60 0 121 25 164 74l37 -48c-36 -44 -112 -91 -205 -91c-102 0 -178 42 -178 141c0 49 24 89 55 118h-69l11 58h105c60 45 120 75 165 104h-251z" />
    <glyph glyph-name="uni20BD.tab" unicode="&#xf4fd;" horiz-adv-x="600" 
d="M58 306l12 64h104l61 330c18 0 56 1 86 1c29 0 61 1 79 1c158 0 209 -71 209 -167c0 -132 -91 -229 -282 -229h-100l-18 -98h169l-11 -63h-169l-27 -145h-66l27 145h-104l12 63h103l18 98h-103zM394 638l-105 -1l-50 -267h98c134 0 202 59 202 159c0 70 -43 109 -145 109
z" />
    <glyph glyph-name="uniF66D" unicode="&#xf66d;" horiz-adv-x="551" 
d="M-18 0l351 561h52l144 -561h-67l-39 146h-277l-92 -146h-72zM342 462l-160 -257h228zM249 733l30 28c27 -38 58 -56 108 -56c61 0 96 25 126 58l29 -24c-29 -50 -85 -96 -160 -96c-77 0 -113 43 -133 90z" />
    <glyph glyph-name="uniF66E" unicode="&#xf66e;" horiz-adv-x="551" 
d="M-18 0l351 561h52l144 -561h-67l-39 146h-277l-92 -146h-72zM342 462l-160 -257h228zM251 651l11 58h248l-11 -58h-248z" />
    <glyph glyph-name="uniF66F" unicode="&#xf66f;" horiz-adv-x="551" 
d="M490 -135l10 -48c-18 -10 -41 -17 -66 -17c-49 0 -93 24 -93 81c0 67 59 111 117 130l-35 135h-277l-92 -146h-72l351 561h52l144 -561h-19c-35 -2 -103 -43 -103 -100c0 -25 16 -44 44 -44c12 0 28 3 39 9zM345 462l-163 -257h228z" />
    <glyph glyph-name="uniF671" unicode="&#xf671;" horiz-adv-x="556" 
d="M515 133l35 -49c-52 -58 -151 -91 -234 -91c-166 0 -260 97 -260 240c0 175 125 334 344 334c102 0 170 -42 197 -91l-44 -39c-36 44 -85 66 -165 66c-158 0 -264 -116 -264 -263c0 -118 79 -183 196 -183c82 0 150 33 195 76zM535 765l-131 -148l-43 30l124 155z" />
    <glyph glyph-name="uniF672" unicode="&#xf672;" horiz-adv-x="556" 
d="M515 133l35 -49c-52 -58 -151 -91 -234 -91c-166 0 -260 97 -260 240c0 175 125 334 344 334c102 0 170 -42 197 -91l-44 -39c-36 44 -85 66 -165 66c-158 0 -264 -116 -264 -263c0 -118 79 -183 196 -183c82 0 150 33 195 76zM395 625l-117 128l38 37l86 -96l125 94
l28 -40l-157 -123h-3z" />
    <glyph glyph-name="uniF673" unicode="&#xf673;" horiz-adv-x="556" 
d="M515 133l35 -49c-52 -58 -151 -91 -234 -91c-166 0 -260 97 -260 240c0 175 125 334 344 334c102 0 170 -42 197 -91l-44 -39c-36 44 -85 66 -165 66c-158 0 -264 -116 -264 -263c0 -118 79 -183 196 -183c82 0 150 33 195 76zM427 784l119 -128l-38 -37l-88 97l-125 -95
l-28 40l157 123h3z" />
    <glyph glyph-name="uniF674" unicode="&#xf674;" horiz-adv-x="556" 
d="M515 133l35 -49c-52 -58 -151 -91 -234 -91c-166 0 -260 97 -260 240c0 175 125 334 344 334c102 0 170 -42 197 -91l-44 -39c-36 44 -85 66 -165 66c-158 0 -264 -116 -264 -263c0 -118 79 -183 196 -183c82 0 150 33 195 76zM365 694c0 24 19 44 43 44s44 -20 44 -44
s-20 -43 -44 -43s-43 19 -43 43z" />
    <glyph glyph-name="uniF675" unicode="&#xf675;" horiz-adv-x="575" 
d="M42 0l103 560h173c191 0 265 -100 265 -221c0 -199 -125 -339 -376 -339h-165zM305 497h-107l-81 -434h105c210 0 294 124 294 266c0 101 -59 168 -211 168zM348 625l-117 128l38 37l86 -96l125 94l28 -40l-157 -123h-3z" />
    <glyph glyph-name="uniF676" unicode="&#xf676;" horiz-adv-x="620" 
d="M34 250l11 56h99l47 254h173c194 0 266 -103 266 -227c0 -184 -118 -333 -377 -333h-166l47 250h-100zM350 497h-107l-35 -191h158l-11 -56h-157l-35 -187h106c205 0 293 124 293 262c0 106 -59 172 -212 172z" />
    <glyph glyph-name="uniF678" unicode="&#xf678;" horiz-adv-x="516" 
d="M42 0l103 560h405l-11 -63h-341l-35 -181h320l-12 -63h-319l-35 -190h349l-11 -63h-413zM359 625l-117 128l38 37l86 -96l125 94l28 -40l-157 -123h-3z" />
    <glyph glyph-name="uniF679" unicode="&#xf679;" horiz-adv-x="516" 
d="M42 0l103 560h405l-11 -63h-341l-35 -181h320l-12 -63h-319l-35 -190h349l-11 -63h-413zM329 694c0 24 19 44 43 44s44 -20 44 -44s-20 -43 -44 -43s-43 19 -43 43z" />
    <glyph glyph-name="uniF67A" unicode="&#xf67a;" horiz-adv-x="516" 
d="M42 0l103 560h405l-11 -63h-341l-35 -181h320l-12 -63h-319l-35 -190h349l-11 -63h-413zM247 651l11 58h248l-11 -58h-248z" />
    <glyph glyph-name="uniF67C" unicode="&#xf67c;" horiz-adv-x="516" 
d="M356 0h-314l103 560h405l-11 -63h-341l-35 -181h320l-12 -63h-319l-35 -190h349l-11 -63h-19c-35 -2 -103 -43 -103 -100c0 -25 16 -44 44 -44c12 0 28 3 39 9l10 -48c-18 -10 -41 -17 -66 -17c-49 0 -93 24 -93 81s41 99 89 119z" />
    <glyph glyph-name="uniF67D" unicode="&#xf67d;" horiz-adv-x="573" 
d="M344 222l11 61h219l-39 -209c-58 -53 -152 -81 -221 -81c-163 0 -258 100 -258 237c0 211 163 337 347 337c94 0 159 -30 195 -83l-46 -42c-32 39 -80 61 -157 61c-152 0 -272 -111 -272 -263c0 -114 77 -183 194 -183c53 0 115 15 165 50l20 115h-158zM264 733l30 28
c27 -38 58 -56 108 -56c61 0 96 25 126 58l29 -24c-29 -50 -85 -96 -160 -96c-77 0 -113 43 -133 90z" />
    <glyph glyph-name="uniF67E" unicode="&#xf67e;" horiz-adv-x="573" 
d="M344 222l11 61h219l-39 -209c-58 -53 -152 -81 -221 -81c-163 0 -258 100 -258 237c0 211 163 337 347 337c94 0 159 -30 195 -83l-46 -42c-32 39 -80 61 -157 61c-152 0 -272 -111 -272 -263c0 -114 77 -183 194 -183c53 0 115 15 165 50l20 115h-158zM430 784l119 -128
l-38 -37l-88 97l-125 -95l-28 40l157 123h3z" />
    <glyph glyph-name="uniF67F" unicode="&#xf67f;" horiz-adv-x="573" 
d="M344 222l11 61h219l-39 -209c-58 -53 -152 -81 -221 -81c-163 0 -258 100 -258 237c0 211 163 337 347 337c94 0 159 -30 195 -83l-46 -42c-32 39 -80 61 -157 61c-152 0 -272 -111 -272 -263c0 -114 77 -183 194 -183c53 0 115 15 165 50l20 115h-158zM253 -86l58 37
c10 -13 20 -36 20 -61c0 -65 -57 -119 -95 -141l-26 29c28 24 59 57 59 94c0 18 -7 30 -16 42z" />
    <glyph glyph-name="uniF680" unicode="&#xf680;" horiz-adv-x="573" 
d="M344 222l11 61h219l-39 -209c-58 -53 -152 -81 -221 -81c-163 0 -258 100 -258 237c0 211 163 337 347 337c94 0 159 -30 195 -83l-46 -42c-32 39 -80 61 -157 61c-152 0 -272 -111 -272 -263c0 -114 77 -183 194 -183c53 0 115 15 165 50l20 115h-158zM375 694
c0 24 19 44 43 44s44 -20 44 -44s-20 -43 -44 -43s-43 19 -43 43z" />
    <glyph glyph-name="uniF681" unicode="&#xf681;" horiz-adv-x="603" 
d="M56 413l10 55h62l17 92h64l-17 -92h352l17 92h64l-17 -92h62l-11 -55h-62l-76 -413h-63l46 253h-352l-47 -253h-63l76 413h-62zM163 316h353l18 97h-353z" />
    <glyph glyph-name="uniF682" unicode="&#xf682;" horiz-adv-x="602" 
d="M458 0l46 253h-352l-47 -253h-63l103 560h64l-46 -244h353l45 244h64l-104 -560h-63zM427 784l119 -128l-38 -37l-88 97l-125 -95l-28 40l157 123h3z" />
    <glyph glyph-name="uniF685" unicode="&#xf685;" horiz-adv-x="201" 
d="M49 0l104 560h64l-104 -560h-64zM77 651l11 58h248l-11 -58h-248z" />
    <glyph glyph-name="uniF686" unicode="&#xf686;" horiz-adv-x="201" 
d="M113 0h-8c-35 -2 -103 -43 -103 -100c0 -25 16 -44 44 -44c12 0 28 3 39 9l10 -48c-18 -10 -41 -17 -66 -17c-49 0 -93 24 -93 81c0 67 57 110 115 129l102 550h64z" />
    <glyph glyph-name="uniF688" unicode="&#xf688;" horiz-adv-x="392" 
d="M414 560l-72 -392c-20 -108 -86 -175 -195 -175c-73 0 -127 41 -148 104l50 35c16 -40 50 -78 101 -77c67 1 114 32 131 125l70 380h63zM413 784l119 -128l-38 -37l-88 97l-125 -95l-28 40l157 123h3z" />
    <glyph glyph-name="uniF689" unicode="&#xf689;" horiz-adv-x="529" 
d="M42 0l103 560h64l-51 -276l342 276h92l-322 -262l238 -298h-83l-205 259l-79 -60l-36 -199h-63zM182 -86l58 37c10 -13 20 -36 20 -61c0 -65 -57 -119 -95 -141l-26 29c28 24 59 57 59 94c0 18 -7 30 -16 42z" />
    <glyph glyph-name="uniF68A" unicode="&#xf68a;" horiz-adv-x="474" 
d="M42 0l103 560h64l-92 -497h340l-12 -63h-403zM394 765l-131 -148l-43 30l124 155z" />
    <glyph glyph-name="uniF68B" unicode="&#xf68b;" horiz-adv-x="474" 
d="M42 0l103 560h64l-92 -497h340l-12 -63h-403zM399 560h63c1 -7 2 -19 2 -37c0 -85 -63 -140 -110 -167l-24 31c43 27 75 78 75 129c0 17 -2 36 -6 44z" />
    <glyph glyph-name="uniF68C" unicode="&#xf68c;" horiz-adv-x="474" 
d="M42 0l103 560h64l-92 -497h340l-12 -63h-403zM189 -86l58 37c10 -13 20 -36 20 -61c0 -65 -57 -119 -95 -141l-26 29c28 24 59 57 59 94c0 18 -7 30 -16 42z" />
    <glyph glyph-name="uniF68D" unicode="&#xf68d;" horiz-adv-x="474" 
d="M42 0l103 560h64l-92 -497h340l-12 -63h-403zM330 313c0 24 22 49 55 49c29 0 52 -25 52 -49c0 -29 -23 -54 -52 -54c-33 0 -55 25 -55 54z" />
    <glyph glyph-name="uniF68E" unicode="&#xf68e;" horiz-adv-x="597" 
d="M515 0h-51l-277 451l-84 -451h-61l103 560h52l276 -451l84 451h61zM534 765l-131 -148l-43 30l124 155z" />
    <glyph glyph-name="uniF68F" unicode="&#xf68f;" horiz-adv-x="597" 
d="M515 0h-51l-277 451l-84 -451h-61l103 560h52l276 -451l84 451h61zM395 625l-117 128l38 37l86 -96l125 94l28 -40l-157 -123h-3z" />
    <glyph glyph-name="uniF690" unicode="&#xf690;" horiz-adv-x="597" 
d="M515 0h-51l-277 451l-84 -451h-61l103 560h52l276 -451l84 451h61zM228 -86l58 37c10 -13 20 -36 20 -61c0 -65 -57 -119 -95 -141l-26 29c28 24 59 57 59 94c0 18 -7 30 -16 42z" />
    <glyph glyph-name="uniF692" unicode="&#xf692;" horiz-adv-x="633" 
d="M57 233c0 187 139 334 341 334c143 0 241 -100 241 -240c0 -182 -137 -334 -338 -334c-145 0 -244 100 -244 240zM124 244c0 -126 87 -187 184 -187c156 0 264 119 264 260c0 82 -47 186 -182 186c-152 0 -266 -115 -266 -259zM624 780l-156 -162l-35 27l148 171z
M485 783l-154 -165l-35 27l146 172z" />
    <glyph glyph-name="uniF693" unicode="&#xf693;" horiz-adv-x="633" 
d="M57 233c0 187 139 334 341 334c143 0 241 -100 241 -240c0 -182 -137 -334 -338 -334c-145 0 -244 100 -244 240zM124 244c0 -126 87 -187 184 -187c156 0 264 119 264 260c0 82 -47 186 -182 186c-152 0 -266 -115 -266 -259zM293 651l11 58h248l-11 -58h-248z" />
    <glyph glyph-name="uniF695" unicode="&#xf695;" horiz-adv-x="546" 
d="M105 0h-63l103 560h214c145 0 189 -65 189 -146c0 -103 -75 -160 -176 -178l142 -236h-75l-133 223h-160zM346 497h-148l-40 -212h153c99 0 170 44 170 119c0 63 -36 93 -135 93zM478 765l-131 -148l-43 30l124 155z" />
    <glyph glyph-name="uniF696" unicode="&#xf696;" horiz-adv-x="546" 
d="M105 0h-63l103 560h214c145 0 189 -65 189 -146c0 -103 -75 -160 -176 -178l142 -236h-75l-133 223h-160zM346 497h-148l-40 -212h153c99 0 170 44 170 119c0 63 -36 93 -135 93zM341 625l-117 128l38 37l86 -96l125 94l28 -40l-157 -123h-3z" />
    <glyph glyph-name="uniF697" unicode="&#xf697;" horiz-adv-x="546" 
d="M105 0h-63l103 560h214c145 0 189 -65 189 -146c0 -103 -75 -160 -176 -178l142 -236h-75l-133 223h-160zM346 497h-148l-40 -212h153c99 0 170 44 170 119c0 63 -36 93 -135 93zM189 -86l58 37c10 -13 20 -36 20 -61c0 -65 -57 -119 -95 -141l-26 29c28 24 59 57 59 94
c0 18 -7 30 -16 42z" />
    <glyph glyph-name="uniF698" unicode="&#xf698;" horiz-adv-x="495" 
d="M404 160c0 122 -311 61 -311 238c0 119 119 169 230 169c95 0 161 -32 194 -85l-44 -39c-34 37 -75 61 -155 61c-76 0 -157 -29 -157 -99c0 -122 310 -63 310 -239c0 -120 -114 -173 -226 -173c-109 0 -187 51 -216 113l46 39c37 -55 92 -89 180 -89c70 0 149 31 149 104
zM476 765l-131 -148l-43 30l124 155z" />
    <glyph glyph-name="uniF699" unicode="&#xf699;" horiz-adv-x="495" 
d="M107 -172l27 42c21 -13 45 -21 67 -21c44 0 59 13 59 39c0 20 -18 27 -49 27h-22l16 81c-88 10 -151 56 -176 110l46 39c37 -55 92 -89 180 -89c70 0 149 31 149 104c0 122 -311 61 -311 238c0 119 119 169 230 169c95 0 161 -32 194 -85l-44 -39c-34 37 -75 61 -155 61
c-76 0 -157 -29 -157 -99c0 -122 310 -63 310 -239c0 -119 -112 -172 -223 -173l-6 -34c56 -2 79 -29 79 -69c0 -59 -51 -92 -123 -92c-38 0 -70 12 -91 30z" />
    <glyph glyph-name="uniF69A" unicode="&#xf69a;" horiz-adv-x="495" 
d="M404 160c0 122 -311 61 -311 238c0 119 119 169 230 169c95 0 161 -32 194 -85l-44 -39c-34 37 -75 61 -155 61c-76 0 -157 -29 -157 -99c0 -122 310 -63 310 -239c0 -120 -114 -173 -226 -173c-109 0 -187 51 -216 113l46 39c37 -55 92 -89 180 -89c70 0 149 31 149 104
zM372 784l119 -128l-38 -37l-88 97l-125 -95l-28 40l157 123h3z" />
    <glyph glyph-name="uniF69B" unicode="&#xf69b;" horiz-adv-x="495" 
d="M404 160c0 122 -311 61 -311 238c0 119 119 169 230 169c95 0 161 -32 194 -85l-44 -39c-34 37 -75 61 -155 61c-76 0 -157 -29 -157 -99c0 -122 310 -63 310 -239c0 -120 -114 -173 -226 -173c-109 0 -187 51 -216 113l46 39c37 -55 92 -89 180 -89c70 0 149 31 149 104
zM172 -86l58 37c10 -13 20 -36 20 -61c0 -65 -57 -119 -95 -141l-26 29c28 24 59 57 59 94c0 18 -7 30 -16 42z" />
    <glyph glyph-name="uniF69D" unicode="&#xf69d;" horiz-adv-x="469" 
d="M75 497l11 63h464l-11 -63h-201l-92 -497h-64l92 497h-199zM330 625l-117 128l38 37l86 -96l125 94l28 -40l-157 -123h-3z" />
    <glyph glyph-name="uniF69E" unicode="&#xf69e;" horiz-adv-x="469" 
d="M75 497l11 63h464l-11 -63h-201l-92 -497h-64l92 497h-199zM164 -86l58 37c10 -13 20 -36 20 -61c0 -65 -57 -119 -95 -141l-26 29c28 24 59 57 59 94c0 18 -7 30 -16 42z" />
    <glyph glyph-name="uniF69F" unicode="&#xf69f;" 
d="M611 560l-60 -324c-25 -137 -107 -242 -268 -242c-121 0 -210 65 -210 189c0 18 2 37 6 58l59 319h63l-55 -309c-3 -15 -6 -38 -6 -54c0 -100 60 -140 149 -140c110 0 178 74 200 190l58 313h64zM266 733l30 28c27 -38 58 -56 108 -56c61 0 96 25 126 58l29 -24
c-29 -50 -85 -96 -160 -96c-77 0 -113 43 -133 90z" />
    <glyph glyph-name="uniF6A0" unicode="&#xf6a0;" 
d="M611 560l-60 -324c-25 -137 -107 -242 -268 -242c-121 0 -210 65 -210 189c0 18 2 37 6 58l59 319h63l-55 -309c-3 -15 -6 -38 -6 -54c0 -100 60 -140 149 -140c110 0 178 74 200 190l58 313h64zM598 780l-156 -162l-35 27l148 171zM459 783l-154 -165l-35 27l146 172z
" />
    <glyph glyph-name="uniF6A1" unicode="&#xf6a1;" 
d="M611 560l-60 -324c-25 -137 -107 -242 -268 -242c-121 0 -210 65 -210 189c0 18 2 37 6 58l59 319h63l-55 -309c-3 -15 -6 -38 -6 -54c0 -100 60 -140 149 -140c110 0 178 74 200 190l58 313h64zM267 651l11 58h248l-11 -58h-248z" />
    <glyph glyph-name="uniF6A2" unicode="&#xf6a2;" 
d="M298 -6h-15c-121 0 -210 65 -210 189c0 18 2 37 6 58l59 319h63l-55 -309c-3 -15 -6 -38 -6 -54c0 -100 60 -140 149 -140c110 0 178 74 200 190l58 313h64l-60 -324c-19 -107 -74 -193 -173 -227c-32 -11 -96 -52 -96 -109c0 -25 16 -44 44 -44c12 0 28 3 39 9l10 -48
c-18 -10 -41 -17 -66 -17c-49 0 -93 24 -93 81c0 53 38 90 82 113z" />
    <glyph glyph-name="uniF6A3" unicode="&#xf6a3;" 
d="M611 560l-60 -324c-25 -137 -107 -242 -268 -242c-121 0 -210 65 -210 189c0 18 2 37 6 58l59 319h63l-55 -309c-3 -15 -6 -38 -6 -54c0 -100 60 -140 149 -140c110 0 178 74 200 190l58 313h64zM304 696c0 53 41 109 111 109c54 0 85 -42 85 -88
c0 -61 -48 -109 -108 -109c-57 0 -88 39 -88 88zM351 700c0 -26 16 -44 43 -44c37 0 59 29 59 57c0 30 -18 45 -43 45c-32 0 -59 -23 -59 -58z" />
    <glyph glyph-name="uniF6AB" unicode="&#xf6ab;" horiz-adv-x="509" 
d="M99 497l11 63h458l-9 -46l-454 -451h379l-11 -63h-482l9 46l455 451h-356zM478 765l-131 -148l-43 30l124 155z" />
    <glyph glyph-name="uniF6AC" unicode="&#xf6ac;" horiz-adv-x="509" 
d="M99 497l11 63h458l-9 -46l-454 -451h379l-11 -63h-482l9 46l455 451h-356zM319 694c0 24 19 44 43 44s44 -20 44 -44s-20 -43 -44 -43s-43 19 -43 43z" />
    <glyph glyph-name="uniF6AD" unicode="&#xf6ad;" horiz-adv-x="201" 
d="M49 0l104 560h64l-104 -560h-64zM165 694c0 24 19 44 43 44s44 -20 44 -44s-20 -43 -44 -43s-43 19 -43 43z" />
    <glyph glyph-name="uniF6BA" unicode="&#xf6ba;" horiz-adv-x="404" 
d="M144 325v61h240v-61h-240z" />
    <glyph glyph-name="uniF6BB" unicode="&#xf6bb;" horiz-adv-x="594" 
d="M154 327v58h410v-58h-410z" />
    <glyph glyph-name="uniF6BC" unicode="&#xf6bc;" horiz-adv-x="795" 
d="M154 327v58h612v-58h-612z" />
    <glyph glyph-name="uniF6C3" unicode="&#xf6c3;" horiz-adv-x="327" 
d="M228 -86l58 37c10 -13 20 -36 20 -61c0 -65 -57 -119 -95 -141l-26 29c28 24 59 57 59 94c0 18 -7 30 -16 42z" />
    <glyph glyph-name="uniF6C9" unicode="&#xf6c9;" horiz-adv-x="507" 
d="M661 853l-187 -91l-18 45l183 102z" />
    <glyph glyph-name="uniF6CA" unicode="&#xf6ca;" horiz-adv-x="448" 
d="M429 759l-157 103l27 43l134 -83l159 83l19 -45l-178 -101h-4z" />
    <glyph glyph-name="uniF6CB" unicode="&#xf6cb;" horiz-adv-x="462" 
d="M311 825c0 23 18 42 41 42s42 -19 42 -42s-19 -41 -42 -41s-41 18 -41 41zM532 825c0 23 18 42 41 42s42 -19 42 -42s-19 -41 -42 -41s-41 18 -41 41z" />
    <glyph glyph-name="uniF6CE" unicode="&#xf6ce;" horiz-adv-x="411" 
d="M531 762l-162 91l37 56l153 -107z" />
    <glyph glyph-name="uniF6CF" unicode="&#xf6cf;" horiz-adv-x="580" 
d="M736 850l-171 -94l-26 37l166 106zM565 853l-163 -97l-25 36l155 107z" />
    <glyph glyph-name="uniF6D0" unicode="&#xf6d0;" horiz-adv-x="491" 
d="M356 795l11 58h282l-11 -58h-282z" />
    <glyph glyph-name="uniF6D1" unicode="&#xf6d1;" horiz-adv-x="519" 
d="M352 878l56 10c13 -47 42 -64 92 -64c68 0 102 25 121 64l55 -10c-22 -70 -85 -112 -177 -112c-80 0 -140 36 -147 112z" />
    <glyph glyph-name="uniF6D4" unicode="&#xf6d4;" horiz-adv-x="446" 
d="M216 746h56c-9 -53 15 -91 76 -91c64 0 101 37 116 91h57c-17 -85 -89 -145 -176 -145c-94 0 -145 58 -129 145z" />
    <glyph glyph-name="uniF6F4" unicode="&#xf6f4;" horiz-adv-x="462" 
d="M315 733l30 28c27 -38 58 -56 108 -56c61 0 96 25 126 58l29 -24c-29 -50 -85 -96 -160 -96c-77 0 -113 43 -133 90z" />
    <glyph glyph-name="uniF6F5" unicode="&#xf6f5;" horiz-adv-x="446" 
d="M425 625l-117 128l38 37l86 -96l125 94l28 -40l-157 -123h-3z" />
    <glyph glyph-name="uniF6F6" unicode="&#xf6f6;" horiz-adv-x="433" 
d="M442 784l119 -128l-38 -37l-88 97l-125 -95l-28 40l157 123h3z" />
    <glyph glyph-name="uniF6F7" unicode="&#xf6f7;" horiz-adv-x="352" 
d="M395 694c0 24 19 44 43 44s44 -20 44 -44s-20 -43 -44 -43s-43 19 -43 43z" />
    <glyph glyph-name="uniF6F8" unicode="&#xf6f8;" horiz-adv-x="501" 
d="M644 780l-156 -162l-35 27l148 171zM505 783l-154 -165l-35 27l146 172z" />
    <glyph glyph-name="uniF6F9" unicode="&#xf6f9;" horiz-adv-x="480" 
d="M2 116l13 79l77 49l59 316h64l-51 -269l190 123l-14 -80l-189 -122l-29 -149h341l-12 -63h-404l32 165z" />
    <glyph glyph-name="uniF6FA" unicode="&#xf6fa;" horiz-adv-x="961" 
d="M486 0l12 57c-47 -34 -101 -64 -195 -64c-147 0 -246 100 -246 240c0 194 147 334 341 334c77 0 137 -30 179 -77l13 70h406l-12 -63h-342l-34 -182h319l-11 -62h-319l-36 -190h350l-11 -63h-414zM308 57c81 0 158 33 208 98l43 240c-26 66 -90 108 -169 108
c-152 0 -266 -119 -266 -259c0 -126 87 -187 184 -187z" />
    <glyph glyph-name="uniF6FB" unicode="&#xf6fb;" horiz-adv-x="370" 
d="M347 -135l9 -49c-18 -10 -40 -16 -66 -16c-49 0 -92 24 -92 89c0 84 105 134 182 134l-4 -23c-39 0 -112 -42 -112 -102c0 -27 17 -42 43 -42c14 0 25 3 40 9z" />
    <glyph glyph-name="uniF6FC" unicode="&#xf6fc;" horiz-adv-x="412" 
d="M350 696c0 53 41 109 111 109c54 0 85 -42 85 -88c0 -61 -48 -109 -108 -109c-57 0 -88 39 -88 88zM397 700c0 -26 16 -44 43 -44c37 0 59 29 59 57c0 30 -18 45 -43 45c-32 0 -59 -23 -59 -58z" />
    <glyph glyph-name="uniF6FD" unicode="&#xf6fd;" horiz-adv-x="495" 
d="M404 160c0 122 -311 61 -311 238c0 119 119 169 230 169c95 0 161 -32 194 -85l-44 -39c-34 37 -75 61 -155 61c-76 0 -157 -29 -157 -99c0 -122 310 -63 310 -239c0 -120 -114 -173 -226 -173c-109 0 -187 51 -216 113l46 39c37 -55 92 -89 180 -89c70 0 149 31 149 104
zM343 625l-117 128l38 37l86 -96l125 94l28 -40l-157 -123h-3z" />
    <glyph glyph-name="uniF6FE" unicode="&#xf6fe;" horiz-adv-x="460" 
d="M302 633l-26 36c34 35 68 59 103 59c53 0 76 -50 118 -50c24 0 47 15 68 35l26 -36c-16 -19 -54 -54 -98 -54c-56 0 -78 50 -118 50c-27 0 -45 -17 -73 -40z" />
    <glyph glyph-name="uniF6FF" unicode="&#xf6ff;" horiz-adv-x="509" 
d="M99 497l11 63h458l-9 -46l-454 -451h379l-11 -63h-482l9 46l455 451h-356zM350 625l-117 128l38 37l86 -96l125 94l28 -40l-157 -123h-3z" />
    <glyph glyph-name="uniF760" unicode="&#xf760;" horiz-adv-x="362" 
d="M439 619l-88 145l55 39l76 -154z" />
    <glyph glyph-name="uniF761" unicode="&#xf761;" horiz-adv-x="551" 
d="M-18 0l351 561h52l144 -561h-67l-39 146h-277l-92 -146h-72zM342 462l-160 -257h228z" />
    <glyph glyph-name="uniF762" unicode="&#xf762;" horiz-adv-x="542" 
d="M42 0l103 560h224c133 0 176 -50 176 -126c0 -66 -40 -119 -110 -144c51 -11 83 -55 83 -111c0 -132 -113 -179 -256 -179h-220zM318 255h-165l-36 -192h157c118 0 179 34 179 108c0 60 -43 84 -135 84zM354 497h-156l-34 -180h168c84 0 145 40 145 104
c0 52 -33 76 -123 76z" />
    <glyph glyph-name="uniF763" unicode="&#xf763;" horiz-adv-x="556" 
d="M515 133l35 -49c-52 -58 -151 -91 -234 -91c-166 0 -260 97 -260 240c0 175 125 334 344 334c102 0 170 -42 197 -91l-44 -39c-36 44 -85 66 -165 66c-158 0 -264 -116 -264 -263c0 -118 79 -183 196 -183c82 0 150 33 195 76z" />
    <glyph glyph-name="uniF764" unicode="&#xf764;" horiz-adv-x="575" 
d="M42 0l103 560h173c191 0 265 -100 265 -221c0 -199 -125 -339 -376 -339h-165zM305 497h-107l-81 -434h105c210 0 294 124 294 266c0 101 -59 168 -211 168z" />
    <glyph glyph-name="uniF765" unicode="&#xf765;" horiz-adv-x="516" 
d="M42 0l103 560h405l-11 -63h-341l-35 -181h320l-12 -63h-319l-35 -190h349l-11 -63h-413z" />
    <glyph glyph-name="uniF766" unicode="&#xf766;" horiz-adv-x="492" 
d="M42 0l103 560h401l-11 -63h-337l-38 -200h315l-12 -63h-315l-43 -234h-63z" />
    <glyph glyph-name="uniF767" unicode="&#xf767;" horiz-adv-x="573" 
d="M344 222l11 61h219l-39 -209c-58 -53 -152 -81 -221 -81c-163 0 -258 100 -258 237c0 211 163 337 347 337c94 0 159 -30 195 -83l-46 -42c-32 39 -80 61 -157 61c-152 0 -272 -111 -272 -263c0 -114 77 -183 194 -183c53 0 115 15 165 50l20 115h-158z" />
    <glyph glyph-name="uniF768" unicode="&#xf768;" horiz-adv-x="602" 
d="M458 0l46 253h-352l-47 -253h-63l103 560h64l-46 -244h353l45 244h64l-104 -560h-63z" />
    <glyph glyph-name="uniF769" unicode="&#xf769;" horiz-adv-x="201" 
d="M49 0l104 560h64l-104 -560h-64z" />
    <glyph glyph-name="uniF76A" unicode="&#xf76a;" horiz-adv-x="392" 
d="M414 560l-72 -392c-20 -108 -86 -175 -195 -175c-73 0 -127 41 -148 104l50 35c16 -40 50 -78 101 -77c67 1 114 32 131 125l70 380h63z" />
    <glyph glyph-name="uniF76B" unicode="&#xf76b;" horiz-adv-x="529" 
d="M42 0l103 560h64l-51 -276l342 276h92l-322 -262l238 -298h-83l-205 259l-79 -60l-36 -199h-63z" />
    <glyph glyph-name="uniF76C" unicode="&#xf76c;" horiz-adv-x="474" 
d="M42 0l103 560h64l-92 -497h340l-12 -63h-403z" />
    <glyph glyph-name="uniF76D" unicode="&#xf76d;" horiz-adv-x="674" 
d="M42 0l103 560h51l167 -286l265 286h67l-103 -560h-64l83 449l-251 -270h-15l-157 269l-83 -448h-63z" />
    <glyph glyph-name="uniF76E" unicode="&#xf76e;" horiz-adv-x="597" 
d="M515 0h-51l-277 451l-84 -451h-61l103 560h52l276 -451l84 451h61z" />
    <glyph glyph-name="uniF76F" unicode="&#xf76f;" horiz-adv-x="633" 
d="M57 233c0 187 139 334 341 334c143 0 241 -100 241 -240c0 -182 -137 -334 -338 -334c-145 0 -244 100 -244 240zM124 244c0 -126 87 -187 184 -187c156 0 264 119 264 260c0 82 -47 186 -182 186c-152 0 -266 -115 -266 -259z" />
    <glyph glyph-name="uniF770" unicode="&#xf770;" horiz-adv-x="526" 
d="M105 0h-63l103 560h205c130 0 201 -47 201 -148c0 -131 -96 -202 -266 -202h-141zM342 498h-144l-42 -226h138c113 0 189 34 189 130c0 64 -38 96 -141 96z" />
    <glyph glyph-name="uniF771" unicode="&#xf771;" horiz-adv-x="633" 
d="M57 233c0 188 140 334 340 334c166 0 242 -115 242 -240c0 -106 -41 -198 -130 -265l40 -62l-50 -38l-43 66c-45 -22 -94 -35 -155 -35c-144 0 -244 99 -244 240zM124 244c0 -119 78 -187 184 -187c38 0 83 8 118 26l-42 61l48 39l44 -69c61 47 96 124 96 203
c0 96 -57 186 -182 186c-151 0 -266 -114 -266 -259z" />
    <glyph glyph-name="uniF772" unicode="&#xf772;" horiz-adv-x="546" 
d="M105 0h-63l103 560h214c145 0 189 -65 189 -146c0 -103 -75 -160 -176 -178l142 -236h-75l-133 223h-160zM346 497h-148l-40 -212h153c99 0 170 44 170 119c0 63 -36 93 -135 93z" />
    <glyph glyph-name="uniF773" unicode="&#xf773;" horiz-adv-x="495" 
d="M404 160c0 122 -311 61 -311 238c0 119 119 169 230 169c95 0 161 -32 194 -85l-44 -39c-34 37 -75 61 -155 61c-76 0 -157 -29 -157 -99c0 -122 310 -63 310 -239c0 -120 -114 -173 -226 -173c-109 0 -187 51 -216 113l46 39c37 -55 92 -89 180 -89c70 0 149 31 149 104
z" />
    <glyph glyph-name="uniF774" unicode="&#xf774;" horiz-adv-x="469" 
d="M75 497l11 63h464l-11 -63h-201l-92 -497h-64l92 497h-199z" />
    <glyph glyph-name="uniF775" unicode="&#xf775;" 
d="M611 560l-60 -324c-25 -137 -107 -242 -268 -242c-121 0 -210 65 -210 189c0 18 2 37 6 58l59 319h63l-55 -309c-3 -15 -6 -38 -6 -54c0 -100 60 -140 149 -140c110 0 178 74 200 190l58 313h64z" />
    <glyph glyph-name="uniF776" unicode="&#xf776;" horiz-adv-x="575" 
d="M660 560l-363 -560h-46l-169 560h66l139 -461l300 461h73z" />
    <glyph glyph-name="uniF777" unicode="&#xf777;" horiz-adv-x="777" 
d="M859 560l-272 -560h-56l-77 446l-239 -446h-57l-73 560h63l60 -443l236 443h55l76 -442l215 442h69z" />
    <glyph glyph-name="uniF778" unicode="&#xf778;" horiz-adv-x="525" 
d="M590 560l-258 -278l160 -282h-69l-134 235l-217 -235h-80l265 289l-151 271h70l125 -222l205 222h84z" />
    <glyph glyph-name="uniF779" unicode="&#xf779;" horiz-adv-x="513" 
d="M597 560l-285 -316l-45 -244h-64l46 244l-167 316h72l133 -255l228 255h82z" />
    <glyph glyph-name="uniF77A" unicode="&#xf77a;" horiz-adv-x="509" 
d="M99 497l11 63h458l-9 -46l-454 -451h379l-11 -63h-482l9 46l455 451h-356z" />
    <glyph glyph-name="uniF7A1" unicode="&#xf7a1;" horiz-adv-x="251" 
d="M74 0l75 406h62l-75 -406h-62zM161 523c0 22 16 39 38 39s39 -17 39 -39s-17 -38 -39 -38s-38 16 -38 38z" />
    <glyph glyph-name="uniF7A8" unicode="&#xf7a8;" horiz-adv-x="446" 
d="M265 695c0 23 18 42 41 42s42 -19 42 -42s-19 -41 -42 -41s-41 18 -41 41zM492 695c0 23 18 42 41 42s42 -19 42 -42s-19 -41 -42 -41s-41 18 -41 41z" />
    <glyph glyph-name="uniF7AF" unicode="&#xf7af;" horiz-adv-x="424" 
d="M296 651l11 58h248l-11 -58h-248z" />
    <glyph glyph-name="uniF7B4" unicode="&#xf7b4;" horiz-adv-x="432" 
d="M574 765l-131 -148l-43 30l124 155z" />
    <glyph glyph-name="uniF7B8" unicode="&#xf7b8;" horiz-adv-x="430" 
d="M195 -172l27 42c21 -13 45 -21 67 -21c44 0 59 13 59 39c0 20 -18 27 -49 27h-22l17 85h43l-7 -41c56 -2 79 -29 79 -69c0 -59 -51 -92 -123 -92c-38 0 -70 12 -91 30z" />
    <glyph glyph-name="uniF7BF" unicode="&#xf7bf;" horiz-adv-x="379" 
d="M89 127c0 -43 34 -70 88 -70c46 0 91 21 123 69l51 -28c-32 -64 -100 -105 -179 -105c-102 0 -149 54 -149 127c0 91 64 130 122 168c59 38 84 56 84 105v14h58c1 -16 0 -32 -3 -44c-15 -58 -61 -87 -105 -115c-48 -30 -90 -58 -90 -121zM323 528c0 -22 -19 -44 -45 -44
c-22 0 -35 16 -35 33c0 22 16 45 46 45c22 0 34 -16 34 -34z" />
    <glyph glyph-name="uniF7E0" unicode="&#xf7e0;" horiz-adv-x="551" 
d="M-18 0l351 561h52l144 -561h-67l-39 146h-277l-92 -146h-72zM342 462l-160 -257h228zM371 619l-88 145l55 39l76 -154z" />
    <glyph glyph-name="uniF7E1" unicode="&#xf7e1;" horiz-adv-x="551" 
d="M-18 0l351 561h52l144 -561h-67l-39 146h-277l-92 -146h-72zM342 462l-160 -257h228zM517 765l-131 -148l-43 30l124 155z" />
    <glyph glyph-name="uniF7E2" unicode="&#xf7e2;" horiz-adv-x="551" 
d="M-18 0l351 561h52l144 -561h-67l-39 146h-277l-92 -146h-72zM342 462l-160 -257h228zM401 784l119 -128l-38 -37l-88 97l-125 -95l-28 40l157 123h3z" />
    <glyph glyph-name="uniF7E3" unicode="&#xf7e3;" horiz-adv-x="551" 
d="M-18 0l351 561h52l144 -561h-67l-39 146h-277l-92 -146h-72zM342 462l-160 -257h228zM250 633l-26 36c34 35 68 59 103 59c53 0 76 -50 118 -50c24 0 47 15 68 35l26 -36c-16 -19 -54 -54 -98 -54c-56 0 -78 50 -118 50c-27 0 -45 -17 -73 -40z" />
    <glyph glyph-name="uniF7E4" unicode="&#xf7e4;" horiz-adv-x="551" 
d="M-18 0l351 561h52l144 -561h-67l-39 146h-277l-92 -146h-72zM342 462l-160 -257h228zM228 695c0 23 18 42 41 42s42 -19 42 -42s-19 -41 -42 -41s-41 18 -41 41zM455 695c0 23 18 42 41 42s42 -19 42 -42s-19 -41 -42 -41s-41 18 -41 41z" />
    <glyph glyph-name="uniF7E5" unicode="&#xf7e5;" horiz-adv-x="551" 
d="M-18 0l351 561h52l144 -561h-67l-39 146h-277l-92 -146h-72zM342 462l-160 -257h228zM289 696c0 53 41 109 111 109c54 0 85 -42 85 -88c0 -61 -48 -109 -108 -109c-57 0 -88 39 -88 88zM336 700c0 -26 16 -44 43 -44c37 0 59 29 59 57c0 30 -18 45 -43 45
c-32 0 -59 -23 -59 -58z" />
    <glyph glyph-name="uniF7E6" unicode="&#xf7e6;" horiz-adv-x="894" 
d="M419 0l26 146h-249l-136 -146h-80l517 560h431l-11 -63h-342l-35 -182h320l-12 -62h-319l-35 -190h350l-12 -63h-413zM247 205h210l52 283z" />
    <glyph glyph-name="uniF7E7" unicode="&#xf7e7;" horiz-adv-x="556" 
d="M175 -172l27 42c21 -13 45 -21 67 -21c44 0 59 13 59 39c0 20 -18 27 -49 27h-22l16 81c-139 15 -217 107 -217 237c0 175 125 334 344 334c102 0 170 -42 197 -91l-44 -39c-36 44 -85 66 -165 66c-158 0 -264 -116 -264 -263c0 -118 79 -183 196 -183
c82 0 150 33 195 76l35 -49c-52 -58 -151 -91 -234 -91l-6 -34c56 -2 79 -29 79 -69c0 -59 -51 -92 -123 -92c-38 0 -70 12 -91 30z" />
    <glyph glyph-name="uniF7E8" unicode="&#xf7e8;" horiz-adv-x="516" 
d="M42 0l103 560h405l-11 -63h-341l-35 -181h320l-12 -63h-319l-35 -190h349l-11 -63h-413zM392 619l-88 145l55 39l76 -154z" />
    <glyph glyph-name="uniF7E9" unicode="&#xf7e9;" horiz-adv-x="516" 
d="M42 0l103 560h405l-11 -63h-341l-35 -181h320l-12 -63h-319l-35 -190h349l-11 -63h-413zM505 765l-131 -148l-43 30l124 155z" />
    <glyph glyph-name="uniF7EA" unicode="&#xf7ea;" horiz-adv-x="516" 
d="M42 0l103 560h405l-11 -63h-341l-35 -181h320l-12 -63h-319l-35 -190h349l-11 -63h-413zM395 784l119 -128l-38 -37l-88 97l-125 -95l-28 40l157 123h3z" />
    <glyph glyph-name="uniF7EB" unicode="&#xf7eb;" horiz-adv-x="516" 
d="M42 0l103 560h405l-11 -63h-341l-35 -181h320l-12 -63h-319l-35 -190h349l-11 -63h-413zM214 695c0 23 18 42 41 42s42 -19 42 -42s-19 -41 -42 -41s-41 18 -41 41zM441 695c0 23 18 42 41 42s42 -19 42 -42s-19 -41 -42 -41s-41 18 -41 41z" />
    <glyph glyph-name="uniF7EC" unicode="&#xf7ec;" horiz-adv-x="201" 
d="M49 0l104 560h64l-104 -560h-64zM200 619l-88 145l55 39l76 -154z" />
    <glyph glyph-name="uniF7ED" unicode="&#xf7ed;" horiz-adv-x="201" 
d="M49 0l104 560h64l-104 -560h-64zM338 765l-131 -148l-43 30l124 155z" />
    <glyph glyph-name="uniF7EE" unicode="&#xf7ee;" horiz-adv-x="201" 
d="M49 0l104 560h64l-104 -560h-64zM227 784l119 -128l-38 -37l-88 97l-125 -95l-28 40l157 123h3z" />
    <glyph glyph-name="uniF7EF" unicode="&#xf7ef;" horiz-adv-x="201" 
d="M49 0l104 560h64l-104 -560h-64zM53 695c0 23 18 42 41 42s42 -19 42 -42s-19 -41 -42 -41s-41 18 -41 41zM280 695c0 23 18 42 41 42s42 -19 42 -42s-19 -41 -42 -41s-41 18 -41 41z" />
    <glyph glyph-name="uniF7F0" unicode="&#xf7f0;" horiz-adv-x="620" 
d="M34 250l11 56h99l47 254h173c194 0 266 -103 266 -227c0 -184 -118 -333 -377 -333h-166l47 250h-100zM350 497h-107l-35 -191h158l-11 -56h-157l-35 -187h106c205 0 293 124 293 262c0 106 -59 172 -212 172z" />
    <glyph glyph-name="uniF7F1" unicode="&#xf7f1;" horiz-adv-x="597" 
d="M515 0h-51l-277 451l-84 -451h-61l103 560h52l276 -451l84 451h61zM272 633l-26 36c34 35 68 59 103 59c53 0 76 -50 118 -50c24 0 47 15 68 35l26 -36c-16 -19 -54 -54 -98 -54c-56 0 -78 50 -118 50c-27 0 -45 -17 -73 -40z" />
    <glyph glyph-name="uniF7F2" unicode="&#xf7f2;" horiz-adv-x="633" 
d="M57 233c0 187 139 334 341 334c143 0 241 -100 241 -240c0 -182 -137 -334 -338 -334c-145 0 -244 100 -244 240zM124 244c0 -126 87 -187 184 -187c156 0 264 119 264 260c0 82 -47 186 -182 186c-152 0 -266 -115 -266 -259zM403 619l-88 145l55 39l76 -154z" />
    <glyph glyph-name="uniF7F3" unicode="&#xf7f3;" horiz-adv-x="633" 
d="M57 233c0 187 139 334 341 334c143 0 241 -100 241 -240c0 -182 -137 -334 -338 -334c-145 0 -244 100 -244 240zM124 244c0 -126 87 -187 184 -187c156 0 264 119 264 260c0 82 -47 186 -182 186c-152 0 -266 -115 -266 -259zM554 765l-131 -148l-43 30l124 155z" />
    <glyph glyph-name="uniF7F4" unicode="&#xf7f4;" horiz-adv-x="633" 
d="M57 233c0 187 139 334 341 334c143 0 241 -100 241 -240c0 -182 -137 -334 -338 -334c-145 0 -244 100 -244 240zM124 244c0 -126 87 -187 184 -187c156 0 264 119 264 260c0 82 -47 186 -182 186c-152 0 -266 -115 -266 -259zM442 784l119 -128l-38 -37l-88 97l-125 -95
l-28 40l157 123h3z" />
    <glyph glyph-name="uniF7F5" unicode="&#xf7f5;" horiz-adv-x="633" 
d="M57 233c0 187 139 334 341 334c143 0 241 -100 241 -240c0 -182 -137 -334 -338 -334c-145 0 -244 100 -244 240zM124 244c0 -126 87 -187 184 -187c156 0 264 119 264 260c0 82 -47 186 -182 186c-152 0 -266 -115 -266 -259zM291 633l-26 36c34 35 68 59 103 59
c53 0 76 -50 118 -50c24 0 47 15 68 35l26 -36c-16 -19 -54 -54 -98 -54c-56 0 -78 50 -118 50c-27 0 -45 -17 -73 -40z" />
    <glyph glyph-name="uniF7F6" unicode="&#xf7f6;" horiz-adv-x="633" 
d="M57 233c0 187 139 334 341 334c143 0 241 -100 241 -240c0 -182 -137 -334 -338 -334c-145 0 -244 100 -244 240zM124 244c0 -126 87 -187 184 -187c156 0 264 119 264 260c0 82 -47 186 -182 186c-152 0 -266 -115 -266 -259zM269 695c0 23 18 42 41 42s42 -19 42 -42
s-19 -41 -42 -41s-41 18 -41 41zM496 695c0 23 18 42 41 42s42 -19 42 -42s-19 -41 -42 -41s-41 18 -41 41z" />
    <glyph glyph-name="uniF7F8" unicode="&#xf7f8;" horiz-adv-x="633" 
d="M58 27l51 50c-31 39 -52 95 -52 155c0 196 148 335 337 335c68 0 116 -19 156 -49l49 48l36 -35l-49 -47c32 -39 53 -96 53 -158c0 -177 -131 -333 -338 -333c-65 0 -115 19 -155 49l-52 -52zM573 316c0 45 -13 88 -35 118l-343 -343c31 -22 69 -34 113 -34
c170 0 265 135 265 259zM124 244c0 -44 13 -88 35 -117l343 342c-30 22 -69 34 -112 34c-167 0 -266 -131 -266 -259z" />
    <glyph glyph-name="uniF7F9" unicode="&#xf7f9;" 
d="M611 560l-60 -324c-25 -137 -107 -242 -268 -242c-121 0 -210 65 -210 189c0 18 2 37 6 58l59 319h63l-55 -309c-3 -15 -6 -38 -6 -54c0 -100 60 -140 149 -140c110 0 178 74 200 190l58 313h64zM384 619l-88 145l55 39l76 -154z" />
    <glyph glyph-name="uniF7FA" unicode="&#xf7fa;" 
d="M611 560l-60 -324c-25 -137 -107 -242 -268 -242c-121 0 -210 65 -210 189c0 18 2 37 6 58l59 319h63l-55 -309c-3 -15 -6 -38 -6 -54c0 -100 60 -140 149 -140c110 0 178 74 200 190l58 313h64zM525 765l-131 -148l-43 30l124 155z" />
    <glyph glyph-name="uniF7FB" unicode="&#xf7fb;" 
d="M611 560l-60 -324c-25 -137 -107 -242 -268 -242c-121 0 -210 65 -210 189c0 18 2 37 6 58l59 319h63l-55 -309c-3 -15 -6 -38 -6 -54c0 -100 60 -140 149 -140c110 0 178 74 200 190l58 313h64zM416 784l119 -128l-38 -37l-88 97l-125 -95l-28 40l157 123h3z" />
    <glyph glyph-name="uniF7FC" unicode="&#xf7fc;" 
d="M611 560l-60 -324c-25 -137 -107 -242 -268 -242c-121 0 -210 65 -210 189c0 18 2 37 6 58l59 319h63l-55 -309c-3 -15 -6 -38 -6 -54c0 -100 60 -140 149 -140c110 0 178 74 200 190l58 313h64zM245 695c0 23 18 42 41 42s42 -19 42 -42s-19 -41 -42 -41s-41 18 -41 41z
M472 695c0 23 18 42 41 42s42 -19 42 -42s-19 -41 -42 -41s-41 18 -41 41z" />
    <glyph glyph-name="uniF7FD" unicode="&#xf7fd;" horiz-adv-x="513" 
d="M597 560l-285 -316l-45 -244h-64l46 244l-167 316h72l133 -255l228 255h82zM490 765l-131 -148l-43 30l124 155z" />
    <glyph glyph-name="uniF7FE" unicode="&#xf7fe;" horiz-adv-x="526" 
d="M105 0h-63l103 560h64l-17 -92h140c159 0 202 -69 202 -149c0 -130 -97 -201 -266 -201h-141zM325 406h-145l-41 -226h138c111 0 189 35 189 130c0 63 -38 96 -141 96z" />
    <glyph glyph-name="uniF7FF" unicode="&#xf7ff;" horiz-adv-x="513" 
d="M597 560l-285 -316l-45 -244h-64l46 244l-167 316h72l133 -255l228 255h82zM208 695c0 23 18 42 41 42s42 -19 42 -42s-19 -41 -42 -41s-41 18 -41 41zM435 695c0 23 18 42 41 42s42 -19 42 -42s-19 -41 -42 -41s-41 18 -41 41z" />
    <glyph glyph-name="uniFE56" unicode="&#xfe56;" horiz-adv-x="379" 
d="M348 433c0 43 -34 70 -88 70c-46 0 -91 -21 -123 -69l-51 28c32 64 100 105 179 105c102 0 149 -54 149 -127c0 -91 -64 -130 -122 -168c-59 -38 -84 -56 -84 -105v-14h-58c-1 16 0 32 3 44c15 58 61 87 105 115c48 30 90 58 90 121zM114 32c0 22 19 44 45 44
c22 0 35 -16 35 -33c0 -22 -16 -45 -46 -45c-22 0 -34 16 -34 34z" />
    <glyph glyph-name="uniFE57" unicode="&#xfe57;" horiz-adv-x="251" 
d="M103 154l75 406h61l-75 -406h-61zM71 32c0 22 19 44 45 44c22 0 35 -16 35 -33c0 -22 -16 -45 -46 -45c-22 0 -34 16 -34 34z" />
    <glyph glyph-name="uniFEFF" unicode="&#xfeff;" horiz-adv-x="0" 
 />
    <glyph glyph-name="nbspace" horiz-adv-x="300" 
 />
    <glyph glyph-name="caron.l" horiz-adv-x="182" 
d="M223 725h63c2 -7 3 -19 3 -32c0 -83 -64 -145 -110 -172l-23 34c39 26 74 75 74 127c0 17 -3 36 -7 43z" />
    <glyph glyph-name="caron.lsmall" horiz-adv-x="182" 
d="M193 560h63c1 -7 2 -19 2 -37c0 -85 -63 -140 -110 -167l-24 31c43 27 75 78 75 129c0 17 -2 36 -6 44z" />
    <glyph glyph-name="afii10061.ss01" horiz-adv-x="617" 
d="M53 0l129 700h68l-60 -322h82l334 322h94l-358 -344l254 -356h-87l-224 312h-106l-58 -312h-68zM578 853l-187 -91l-18 45l183 102z" />
    <glyph glyph-name="afii10076.ss01" horiz-adv-x="499" 
d="M63 0l96 520h61l-43 -235h55l259 235h88l-285 -256l204 -264h-81l-174 223h-78l-41 -223h-61z" />
    <glyph glyph-name="k.ss01" horiz-adv-x="495" 
d="M63 0l135 730h61l-79 -434h51l253 224h87l-279 -246l202 -274h-76l-177 234h-74l-43 -234h-61z" />
    <glyph glyph-name="K.ss01" horiz-adv-x="617" 
d="M53 0l129 700h68l-60 -322h82l334 322h94l-358 -344l254 -356h-87l-224 312h-106l-58 -312h-68z" />
    <glyph glyph-name="uniF76B.ss01" horiz-adv-x="529" 
d="M42 0l103 560h64l-45 -243h72l268 243h88l-300 -269l216 -291h-81l-189 254h-86l-47 -254h-63z" />
    </font>
</defs>
</svg>
