<?xml version="1.0" standalone="no"?>
<!DOCTYPE svg PUBLIC "-//W3C//DTD SVG 1.1//EN" "http://www.w3.org/Graphics/SVG/1.1/DTD/svg11.dtd" >
<svg>
<metadata>
Created by FontForge 20110222 at Thu Sep 17 12:02:18 2015
 By www-data
Stem is a geometric sans-serif with semi-closed aperture and large x-height. 12 faces of it, including upright and true italic faces of different weights, are intended primarily for large point sizes. The Stem family will be supplemented with faces for text and caption setting. Design -- Alexandra Korolkova with the assistance of Maria Selezeneva and Isabella Chaeva. Released by ParaType in 2014.
</metadata>
<defs>
<font id="Stem-MediumItalic" horiz-adv-x="620" >
  <font-face 
    font-family="Stem Medium"
    font-weight="500"
    font-style="italic"
    font-stretch="normal"
    units-per-em="1000"
    panose-1="2 11 6 3 2 2 3 9 2 4"
    ascent="778"
    descent="-222"
    x-height="520"
    cap-height="700"
    bbox="-360 -278 1355 962"
    underline-thickness="50"
    underline-position="-50"
    slope="-11"
    stemh="109"
    stemv="114"
    unicode-range="U+0020-FEFF"
  />
<missing-glyph horiz-adv-x="236" 
 />
    <glyph glyph-name="uniF350.var.accented" unicode="&#xf350;`" horiz-adv-x="575" 
d="M-2 0l352 560h83l145 -560h-115l-28 109h-245l-68 -109h-124zM363 384l-114 -176h161zM557 769l-149 -157l-64 54l140 167z" />
    <glyph glyph-name="uniF355.var.accented" unicode="&#xf355;`" horiz-adv-x="522" 
d="M55 0l104 560h425l-20 -109h-314l-21 -114h293l-19 -106h-294l-23 -122h322l-20 -109h-433zM538 769l-149 -157l-64 54l140 167z" />
    <glyph glyph-name="uniF358.var.accented" unicode="&#xf358;`" horiz-adv-x="606" 
d="M146 0h-91l104 560h111l-65 -351l356 351h94l-104 -560h-111l64 352zM563 769l-149 -157l-64 54l140 167z" />
    <glyph glyph-name="uniF35E.var.accented" unicode="&#xf35e;`" horiz-adv-x="632" 
d="M72 240c0 174 139 326 339 326c152 0 252 -100 252 -245c0 -173 -137 -327 -338 -327c-152 0 -253 100 -253 246zM190 251c0 -89 64 -144 146 -144c109 0 209 80 209 202c0 90 -65 144 -145 144c-105 0 -210 -78 -210 -202zM592 769l-149 -157l-64 54l140 167z" />
    <glyph glyph-name="uniF363.var.accented" unicode="&#xf363;`" horiz-adv-x="579" 
d="M162 17l48 98c3 -3 15 -5 22 -5c22 0 36 15 55 40l4 5l-187 405h124l133 -293l193 293h129l-281 -429c-56 -84 -103 -131 -171 -131c-32 0 -52 7 -69 17zM561 769l-149 -157l-64 54l140 167z" />
    <glyph glyph-name="uniF36B.var.accented" unicode="&#xf36b;`" horiz-adv-x="705" 
d="M540 0l103 560h111l-103 -560h-111zM307 261h-92l-29 -152h90c95 0 140 24 140 91c0 41 -37 61 -109 61zM270 560l-35 -189h94c150 0 205 -64 205 -158c0 -162 -119 -213 -280 -213h-199l104 560h111zM592 769l-149 -157l-64 54l140 167z" />
    <glyph glyph-name="uniF36D.var.accented" unicode="&#xf36d;`" horiz-adv-x="568" 
d="M208 231l21 109h252c-4 64 -50 117 -146 117c-54 0 -127 -19 -181 -73l-64 77c47 58 142 105 253 105c170 0 258 -94 258 -250c0 -184 -132 -322 -339 -322c-95 0 -189 27 -240 117l88 67c41 -51 77 -75 162 -75c117 0 177 62 198 128h-262zM523 769l-149 -157l-64 54
l140 167z" />
    <glyph glyph-name="uniF36E.var.accented" unicode="&#xf36e;`" horiz-adv-x="818" 
d="M55 0l104 560h111l-42 -225h63c47 149 180 231 311 231c152 0 248 -101 248 -234c0 -209 -136 -338 -326 -338c-154 0 -247 104 -247 241h-67l-44 -235h-111zM393 247c0 -87 56 -144 138 -144c136 0 201 92 201 208c0 89 -51 146 -144 146c-101 0 -195 -86 -195 -210z
M696 769l-149 -157l-64 54l140 167z" />
    <glyph glyph-name="uniF36F.var.accented" unicode="&#xf36f;`" horiz-adv-x="561" 
d="M396 0l35 188h-98l-187 -188h-145l210 209c-63 24 -105 69 -105 146c0 130 111 205 260 205h245l-104 -560h-111zM314 297h137l29 154h-129c-94 0 -128 -37 -128 -87c0 -37 33 -66 91 -67zM557 769l-149 -157l-64 54l140 167z" />
    <glyph glyph-name="uniF371.var.accented" unicode="&#xf371;`" horiz-adv-x="522" 
d="M505 784l-117 -159l-53 25l86 169zM55 0l104 560h425l-20 -109h-314l-21 -114h293l-19 -106h-294l-23 -122h322l-20 -109h-433zM207 697c0 33 26 59 59 59s59 -26 59 -59s-26 -59 -59 -59s-59 26 -59 59zM480 697c0 33 26 59 59 59s59 -26 59 -59s-26 -59 -59 -59
s-59 26 -59 59z" />
    <glyph glyph-name="afii10017.var.accented" unicode="&#x410;`" horiz-adv-x="669" 
d="M-1 0l421 700h87l163 -700h-118l-36 155h-297l-91 -155h-129zM432 519l-152 -260h212zM671 853l-224 -108l-36 72l219 132z" />
    <glyph glyph-name="afii10022.var.accented" unicode="&#x415;`" horiz-adv-x="613" 
d="M66 0l130 700h494l-21 -114h-379l-33 -176h355l-21 -110h-354l-35 -186h389l-21 -114h-504zM652 853l-224 -108l-36 72l219 132z" />
    <glyph glyph-name="afii10026.var.accented" unicode="&#x418;`" horiz-adv-x="710" 
d="M162 0h-96l129 700h116l-88 -476l452 476h97l-129 -700h-115l87 475zM687 853l-224 -108l-36 72l219 132z" />
    <glyph glyph-name="afii10032.var.accented" unicode="&#x41e;`" horiz-adv-x="743" 
d="M89 290c0 230 163 418 400 418c176 0 294 -112 294 -297c0 -224 -151 -419 -398 -419c-180 0 -296 111 -296 298zM211 307c0 -129 72 -199 183 -199c175 0 267 148 267 285c0 130 -70 199 -180 199c-178 0 -270 -151 -270 -285zM690 853l-224 -108l-36 72l219 132z" />
    <glyph glyph-name="afii10037.var.accented" unicode="&#x423;`" horiz-adv-x="672" 
d="M187 14l45 103c9 -5 21 -7 30 -7c31 0 60 41 84 81l-217 509h127l161 -393l248 393h136l-345 -538c-66 -104 -116 -165 -203 -165c-19 0 -48 5 -66 17zM677 853l-224 -108l-36 72l219 132z" />
    <glyph glyph-name="afii10045.var.accented" unicode="&#x42b;`" horiz-adv-x="822" 
d="M641 0l129 700h115l-129 -700h-115zM369 340h-125l-42 -226h119c122 0 182 40 182 136c0 60 -43 90 -134 90zM311 700l-46 -247h124c160 0 237 -69 237 -196c0 -193 -149 -257 -330 -257h-230l130 700h115zM741 853l-224 -108l-36 72l219 132z" />
    <glyph glyph-name="afii10047.var.accented" unicode="&#x42d;`" horiz-adv-x="666" 
d="M250 301l21 113h318c2 110 -63 181 -187 181c-93 0 -161 -36 -219 -93l-67 77c72 81 171 129 300 129c191 0 293 -110 293 -283c0 -244 -151 -433 -405 -433c-110 0 -220 35 -272 139l87 69c55 -76 119 -95 195 -95c152 0 234 98 259 196h-323zM623 853l-224 -108l-36 72
l219 132z" />
    <glyph glyph-name="afii10048.var.accented" unicode="&#x42e;`" horiz-adv-x="947" 
d="M66 0l130 700h115l-54 -291h77c47 164 173 299 371 299c184 0 283 -120 283 -290c0 -232 -152 -426 -381 -426c-197 0 -301 141 -290 312h-80l-56 -304h-115zM439 302c0 -117 67 -197 178 -197c154 0 249 142 249 296c0 116 -63 194 -167 194c-168 0 -260 -151 -260 -293
zM877 853l-224 -108l-36 72l219 132z" />
    <glyph glyph-name="afii10049.var.accented" unicode="&#x42f;`" horiz-adv-x="656" 
d="M475 0l46 246h-138l-232 -246h-148l255 267c-77 29 -126 84 -126 179c0 166 133 254 316 254h271l-129 -700h-115zM366 359h175l42 228h-164c-120 0 -164 -61 -164 -131c0 -53 39 -93 111 -97zM684 853l-224 -108l-36 72l219 132z" />
    <glyph glyph-name="afii10023.var.accented" unicode="&#x401;`" horiz-adv-x="613" 
d="M571 910l-104 -145l-59 25l76 160zM66 0l130 700h494l-21 -114h-379l-33 -176h355l-21 -110h-354l-35 -186h389l-21 -114h-504zM259 821c0 34 28 62 62 62s62 -28 62 -62s-28 -62 -62 -62s-62 28 -62 62zM558 821c0 34 28 62 62 62s62 -28 62 -62s-28 -62 -62 -62
s-62 28 -62 62z" />
    <glyph glyph-name="afii10065.var.accented" unicode="&#x430;`" horiz-adv-x="571" 
d="M389 0l13 63c-22 -30 -81 -69 -159 -69c-122 0 -195 86 -195 207c0 208 156 331 302 331c70 0 110 -18 129 -35l4 23h104l-97 -520h-101zM279 99c60 0 112 41 138 83l41 203c-16 23 -51 42 -106 42c-99 0 -190 -83 -190 -209c0 -81 48 -119 117 -119zM541 755l-149 -157
l-64 54l140 167z" />
    <glyph glyph-name="afii10070.var.accented" unicode="&#x435;`" horiz-adv-x="533" 
d="M435 159l64 -63c-53 -76 -146 -105 -231 -105c-131 0 -220 88 -220 221c0 185 147 320 307 320c116 0 184 -48 184 -143c0 -113 -115 -182 -276 -182c-32 0 -66 2 -101 8c5 -78 55 -119 127 -119c63 0 111 22 146 63zM347 427c-71 0 -140 -48 -170 -121
c29 -4 56 -5 80 -5c115 0 168 38 168 76c0 29 -23 50 -78 50zM567 755l-149 -157l-64 54l140 167z" />
    <glyph glyph-name="afii10074.var.accented" unicode="&#x438;`" horiz-adv-x="550" 
d="M568 520l-98 -520h-108l10 55c-37 -36 -89 -64 -155 -64c-106 0 -168 55 -168 147c0 25 4 55 10 86l62 296h108l-60 -285c-3 -17 -6 -38 -6 -57c1 -51 20 -82 85 -82c61 0 110 33 148 91l64 333h108zM571 755l-149 -157l-64 54l140 167z" />
    <glyph glyph-name="afii10080.var.accented" unicode="&#x43e;`" horiz-adv-x="589" 
d="M48 206c0 193 146 326 313 326c142 0 228 -94 228 -216c0 -193 -135 -325 -307 -325c-148 0 -234 93 -234 215zM162 229c0 -81 50 -132 134 -132c87 0 179 78 179 204c0 77 -50 125 -127 125c-86 0 -186 -78 -186 -197zM580 755l-149 -157l-64 54l140 167z" />
    <glyph glyph-name="afii10085.var.accented" unicode="&#x443;`" horiz-adv-x="504" 
d="M0 -192l57 95c6 -4 13 -6 21 -6c26 0 55 28 92 92l26 47l-151 484h120l105 -351l196 351h122l-288 -505c-98 -172 -156 -224 -233 -224c-29 0 -51 6 -67 17zM549 755l-149 -157l-64 54l140 167z" />
    <glyph glyph-name="afii10093.var.accented" unicode="&#x44b;`" horiz-adv-x="672" 
d="M32 0l96 520h108l-28 -151h72c144 0 193 -55 193 -145c0 -134 -91 -224 -260 -224h-181zM262 269h-73l-31 -169h76c79 0 126 42 126 104c0 37 -21 65 -98 65zM485 0l96 520h107l-96 -520h-107zM594 755l-149 -157l-64 54l140 167z" />
    <glyph glyph-name="afii10095.var.accented" unicode="&#x44d;`" horiz-adv-x="522" 
d="M163 216l19 99h229c-1 79 -50 112 -128 112c-49 0 -113 -21 -159 -77l-69 68c69 80 158 114 242 114c160 0 225 -99 225 -216c0 -201 -135 -327 -312 -327c-92 0 -170 36 -208 118l84 57c29 -48 70 -70 124 -70c95 0 161 49 185 122h-232zM513 755l-149 -157l-64 54
l140 167z" />
    <glyph glyph-name="afii10096.var.accented" unicode="&#x44e;`" horiz-adv-x="773" 
d="M32 0l96 520h108l-38 -202h74c41 131 157 214 281 214c149 0 220 -97 220 -209c0 -221 -143 -332 -295 -332c-136 0 -226 83 -225 224h-74l-39 -215h-108zM365 220c0 -73 49 -124 125 -124c86 0 169 77 169 203c0 78 -42 128 -120 128c-89 0 -174 -85 -174 -207zM692 755
l-149 -157l-64 54l140 167z" />
    <glyph glyph-name="afii10097.var.accented" unicode="&#x44f;`" horiz-adv-x="518" 
d="M330 520h204l-99 -520h-107l33 171h-87l-159 -171h-131l177 190c-56 22 -87 74 -87 133c0 103 75 197 256 197zM188 335c0 -35 23 -64 81 -64h109l30 149h-105c-71 0 -115 -39 -115 -85zM569 755l-149 -157l-64 54l140 167z" />
    <glyph glyph-name="afii10071.var.accented" unicode="&#x451;`" horiz-adv-x="533" 
d="M435 159l64 -63c-53 -76 -146 -105 -231 -105c-131 0 -220 88 -220 221c0 185 147 320 307 320c116 0 184 -48 184 -143c0 -113 -115 -182 -276 -182c-32 0 -66 2 -101 8c5 -78 55 -119 127 -119c63 0 111 22 146 63zM347 427c-71 0 -140 -48 -170 -121
c29 -4 56 -5 80 -5c115 0 168 38 168 76c0 29 -23 50 -78 50zM498 757l-111 -159l-54 24l82 171zM202 670c0 33 26 60 59 60s60 -27 60 -60s-27 -59 -60 -59s-59 26 -59 59zM477 670c0 33 26 60 59 60s60 -27 60 -60s-27 -59 -60 -59s-59 26 -59 59z" />
    <glyph glyph-name="fi" unicode="fi" horiz-adv-x="521" 
d="M42 414l19 106h81l3 17c27 149 121 201 209 201c24 0 48 -5 58 -13l-44 -101c-7 6 -17 8 -28 8c-43 0 -76 -28 -88 -98l-3 -14h127l-21 -106h-125l-76 -414h-108l76 414h-80zM325 0l96 520h108l-96 -520h-108zM438 669c0 33 26 61 61 61s64 -28 64 -61
c0 -34 -29 -59 -64 -59s-61 25 -61 59z" />
    <glyph glyph-name="fl" unicode="fl" horiz-adv-x="480" 
d="M294 0l106 609c-10 14 -30 23 -55 23c-44 0 -74 -28 -88 -98l-3 -14h80l-19 -100h-79l-72 -420h-108l72 420h-80l19 100h80l2 17c21 122 96 201 210 201c37 0 71 -12 93 -32l80 29l-130 -735h-108z" />
    <glyph glyph-name=".notdef" horiz-adv-x="236" 
 />
    <glyph glyph-name="space" unicode=" " horiz-adv-x="236" 
 />
    <glyph glyph-name="exclam" unicode="!" horiz-adv-x="294" 
d="M131 215l89 485h112l-89 -485h-112zM82 62c0 48 40 84 88 84c42 0 67 -32 67 -64c0 -49 -39 -84 -88 -84c-45 0 -67 30 -67 64z" />
    <glyph glyph-name="quotedbl" unicode="&#x22;" horiz-adv-x="418" 
d="M153 452l46 248h110l-46 -248h-110zM322 452l46 248h110l-46 -248h-110z" />
    <glyph glyph-name="numbersign" unicode="#" horiz-adv-x="672" 
d="M278 16l93 175h-115l-112 -208l-91 33l94 175h-74l18 99h109l67 120h-153l18 99h187c36 66 79 147 111 208l92 -33l-95 -175h116l111 208l91 -32l-95 -176h78l-18 -99h-112l-66 -120h155l-18 -99h-190l-110 -208zM374 410l-66 -120h118l63 120h-115z" />
    <glyph glyph-name="dollar" unicode="$" horiz-adv-x="589" 
d="M484 202c0 134 -357 67 -357 288c0 133 111 203 240 215l14 78h109l-14 -78c84 -9 151 -45 191 -97l-77 -84c-47 49 -106 71 -186 71c-79 0 -155 -19 -155 -89c0 -127 357 -72 357 -290c0 -138 -112 -222 -261 -222l-16 -86h-110l17 91c-89 17 -160 68 -194 124l79 79
c45 -63 126 -97 219 -97c89 0 144 38 144 97z" />
    <glyph glyph-name="percent" unicode="%" horiz-adv-x="907" 
d="M214 32l514 696l86 -62l-510 -686zM97 525c0 105 83 178 192 178s191 -73 191 -178c0 -104 -82 -177 -191 -177s-192 73 -192 177zM210 525c0 -50 38 -82 79 -82c43 0 78 32 78 82c0 49 -36 81 -78 81s-79 -32 -79 -81zM547 174c0 105 83 177 192 177
c108 0 191 -72 191 -177c0 -104 -83 -178 -191 -178c-109 0 -192 74 -192 178zM660 174c0 -49 38 -81 79 -81c42 0 78 32 78 81c0 50 -37 82 -78 82c-42 0 -79 -32 -79 -82z" />
    <glyph glyph-name="ampersand" unicode="&#x26;" horiz-adv-x="744" 
d="M741 0h-146c-32 28 -48 51 -70 77c-52 -45 -129 -86 -230 -86c-118 0 -221 58 -221 177c0 128 125 199 237 258c-23 40 -37 84 -37 124c0 100 66 159 175 159c105 0 148 -43 148 -115c0 -80 -63 -140 -142 -189c18 -46 54 -102 100 -166c49 57 93 145 111 244h110
c-20 -111 -81 -251 -163 -334c35 -52 80 -104 128 -149zM314 100c61 0 117 25 148 57c-44 67 -87 135 -112 183c-100 -59 -151 -91 -151 -151c0 -59 48 -89 115 -89zM389 552c0 -23 13 -46 23 -65c38 25 64 53 64 85c0 21 -11 36 -34 36c-34 0 -53 -22 -53 -56z" />
    <glyph glyph-name="quotesingle" unicode="'" horiz-adv-x="249" 
d="M153 452l46 248h110l-46 -248h-110z" />
    <glyph glyph-name="parenleft" unicode="(" horiz-adv-x="325" 
d="M288 -140l-83 -62c-92 112 -135 236 -135 376c0 190 85 374 307 554l64 -71c-185 -154 -259 -311 -259 -468c0 -133 35 -231 106 -329z" />
    <glyph glyph-name="parenright" unicode=")" horiz-adv-x="324" 
d="M133 666l83 62c92 -112 135 -236 135 -376c0 -190 -85 -374 -307 -554l-64 71c185 154 259 311 259 468c0 133 -35 231 -106 329z" />
    <glyph glyph-name="asterisk" unicode="*" horiz-adv-x="500" 
d="M369 700l-5 -123l119 43l33 -107l-121 -34l79 -99l-96 -69l-68 100l-68 -101l-96 69l79 101l-121 34l33 107l121 -43l-4 122h115z" />
    <glyph glyph-name="plus" unicode="+" horiz-adv-x="599" 
d="M124 309v101h182v182h106v-182h184v-101h-184v-184h-106v184h-182z" />
    <glyph glyph-name="comma" unicode="," horiz-adv-x="241" 
d="M113 0c-41 -3 -58 32 -58 63c0 42 35 83 83 83c56 0 71 -39 71 -80c0 -119 -94 -189 -181 -208l-15 66c33 6 91 45 100 76z" />
    <glyph glyph-name="hyphen" unicode="-" horiz-adv-x="416" 
d="M129 227v101h278v-101h-278z" />
    <glyph glyph-name="period" unicode="." horiz-adv-x="251" 
d="M105 73c0 35 32 73 81 73c46 0 80 -38 80 -73c0 -39 -34 -75 -80 -75c-49 0 -81 36 -81 75z" />
    <glyph glyph-name="slash" unicode="/" horiz-adv-x="357" 
d="M23 -164l328 881l102 -33l-329 -887z" />
    <glyph glyph-name="zero" unicode="0" horiz-adv-x="646" 
d="M90 268c0 238 119 439 354 439c164 0 241 -115 241 -275c0 -238 -120 -439 -354 -439c-163 0 -241 115 -241 275zM209 283c0 -113 45 -175 135 -175c157 0 222 155 222 314c0 108 -44 170 -135 170c-141 0 -222 -134 -222 -309z" />
    <glyph glyph-name="one" unicode="1" horiz-adv-x="377" 
d="M110 588l244 114h73l-130 -702h-110l101 550l-155 -70z" />
    <glyph glyph-name="two" unicode="2" horiz-adv-x="587" 
d="M223 476l-99 44c55 123 146 187 285 187c150 0 221 -74 221 -189c0 -130 -73 -215 -300 -360l-85 -46h330l-21 -112h-516l16 89l172 115c120 86 280 183 280 297c0 55 -38 90 -105 90c-88 0 -137 -43 -178 -115z" />
    <glyph glyph-name="three" unicode="3" horiz-adv-x="579" 
d="M226 500l-91 52c46 97 146 157 271 157c144 0 230 -60 230 -171c0 -73 -46 -142 -139 -169c67 -19 97 -72 97 -139c0 -144 -114 -238 -284 -238c-119 0 -238 50 -255 175l105 42c16 -64 76 -101 160 -101c99 0 153 44 153 111s-63 84 -147 84h-65l20 110h69
c107 0 163 44 163 102c0 56 -49 80 -118 80c-82 0 -131 -35 -169 -95z" />
    <glyph glyph-name="four" unicode="4" horiz-adv-x="635" 
d="M393 0l25 133h-376l14 78l483 489h95l-85 -460h113l-20 -107h-113l-25 -133h-111zM222 240h216l47 260z" />
    <glyph glyph-name="five" unicode="5" horiz-adv-x="579" 
d="M113 317l102 383h434l-21 -113h-334l-43 -155c29 14 65 25 122 25c142 0 212 -77 212 -202c0 -158 -123 -263 -289 -263c-116 0 -219 47 -240 172l109 39c17 -69 73 -95 144 -95c95 0 156 58 156 138c0 64 -46 102 -125 102c-56 0 -98 -15 -133 -41z" />
    <glyph glyph-name="six" unicode="6" horiz-adv-x="633" 
d="M87 266c0 242 137 443 389 443c114 0 174 -43 208 -91l-77 -83c-35 33 -76 57 -146 57c-108 0 -217 -74 -243 -221c52 63 138 107 221 107c142 0 215 -76 215 -203c0 -177 -135 -284 -302 -284c-169 0 -265 95 -265 275zM215 255c-3 -73 32 -148 148 -148s170 74 170 154
c0 66 -43 104 -127 104c-83 0 -171 -65 -191 -110z" />
    <glyph glyph-name="seven" unicode="7" horiz-adv-x="545" 
d="M123 587l20 113h517l-14 -76l-428 -624h-133l406 587h-368z" />
    <glyph glyph-name="eight" unicode="8" horiz-adv-x="644" 
d="M384 411h27c90 0 150 43 150 101c0 57 -46 86 -130 86c-86 0 -162 -31 -162 -103c0 -49 44 -84 115 -84zM390 308h-22c-97 0 -173 -39 -173 -111c0 -60 53 -96 148 -96c110 0 186 45 186 115c0 59 -50 92 -139 92zM335 -8c-156 0 -262 66 -262 191c0 90 67 157 143 183
c-42 25 -67 70 -67 126c0 145 136 216 299 216c156 0 235 -66 235 -176c0 -82 -47 -140 -130 -170c69 -19 97 -74 97 -132c0 -140 -119 -238 -315 -238z" />
    <glyph glyph-name="nine" unicode="9" horiz-adv-x="627" 
d="M669 445c0 -265 -147 -454 -377 -454c-107 0 -176 43 -210 91l79 85c30 -33 78 -59 144 -59c119 0 207 81 229 199c-46 -46 -121 -81 -202 -81c-129 0 -224 68 -224 202c0 171 148 281 317 281c150 0 244 -95 244 -264zM543 432c13 73 -31 161 -139 161
c-94 0 -174 -61 -174 -148c0 -74 50 -110 120 -110c91 0 172 52 193 97z" />
    <glyph glyph-name="colon" unicode=":" horiz-adv-x="305" 
d="M88 62c0 48 40 84 88 84c42 0 67 -32 67 -64c0 -49 -39 -84 -88 -84c-45 0 -67 30 -67 64zM158 436c0 48 40 84 88 84c42 0 67 -32 67 -64c0 -49 -39 -84 -88 -84c-45 0 -67 30 -67 64z" />
    <glyph glyph-name="semicolon" unicode=";" horiz-adv-x="304" 
d="M158 436c0 48 40 84 88 84c42 0 67 -32 67 -64c0 -49 -39 -84 -88 -84c-45 0 -67 30 -67 64zM142 0c-41 -3 -58 32 -58 63c0 42 35 83 83 83c56 0 71 -39 71 -80c0 -119 -94 -189 -181 -208l-15 66c33 6 91 45 100 76z" />
    <glyph glyph-name="less" unicode="&#x3c;" horiz-adv-x="556" 
d="M541 53l-453 285v47l453 282v-123l-295 -183l295 -185v-123z" />
    <glyph glyph-name="equal" unicode="=" horiz-adv-x="579" 
d="M64 402v99h452v-99h-452zM64 217v99h452v-99h-452z" />
    <glyph glyph-name="greater" unicode="&#x3e;" horiz-adv-x="556" 
d="M588 338l-453 -285v123l297 185l-297 183v123l453 -282v-47z" />
    <glyph glyph-name="question" unicode="?" horiz-adv-x="579" 
d="M518 514c0 42 -32 78 -114 78c-93 0 -149 -48 -180 -115l-101 33c37 116 132 198 294 198c152 0 224 -71 224 -175c0 -209 -260 -188 -278 -285c-3 -15 -3 -27 -3 -34l-104 -1v20c0 183 262 153 262 281zM200 62c0 48 40 84 88 84c42 0 67 -32 67 -64
c0 -49 -39 -84 -88 -84c-45 0 -67 30 -67 64z" />
    <glyph glyph-name="at" unicode="@" horiz-adv-x="970" 
d="M647 0v33c-25 -23 -69 -41 -121 -41c-131 0 -226 96 -226 240c0 140 112 247 263 247c69 0 141 -18 198 -60v-313c71 11 110 68 110 174c0 178 -133 282 -317 282c-189 0 -334 -135 -334 -326c0 -185 137 -327 334 -327c46 0 88 5 132 19l8 -103
c-39 -11 -93 -19 -140 -19c-272 0 -443 189 -443 430c0 249 185 428 443 428s426 -153 426 -382c0 -137 -81 -282 -248 -282h-85zM546 94c40 0 82 27 101 58v202c-23 15 -56 23 -85 23c-83 0 -145 -63 -145 -149c0 -82 52 -134 129 -134z" />
    <glyph glyph-name="A" unicode="A" horiz-adv-x="669" 
d="M-1 0l421 700h87l163 -700h-118l-36 155h-297l-91 -155h-129zM432 519l-152 -260h212z" />
    <glyph glyph-name="B" unicode="B" horiz-adv-x="641" 
d="M66 0l130 700h282c150 0 203 -66 203 -166c0 -72 -38 -137 -112 -169c47 -21 77 -63 77 -132c0 -165 -130 -233 -298 -233h-282zM399 302h-162l-35 -188h154c124 0 168 41 168 108c0 55 -37 80 -125 80zM442 586h-152l-33 -174h165c78 0 134 32 134 104
c0 46 -30 70 -114 70z" />
    <glyph glyph-name="C" unicode="C" horiz-adv-x="657" 
d="M620 200l67 -84c-52 -63 -151 -124 -288 -124c-201 0 -312 121 -312 305c0 240 177 411 408 411c131 0 213 -51 246 -121l-82 -69c-36 41 -82 74 -173 74c-187 0 -276 -149 -276 -288c0 -118 76 -196 194 -196c108 0 172 47 216 92z" />
    <glyph glyph-name="D" unicode="D" horiz-adv-x="680" 
d="M66 0l130 700h208c243 0 319 -134 319 -282c0 -266 -158 -418 -461 -418h-196zM381 586h-91l-88 -472h90c216 0 309 116 309 288c0 119 -60 184 -220 184z" />
    <glyph glyph-name="E" unicode="E" horiz-adv-x="613" 
d="M66 0l130 700h494l-21 -114h-379l-33 -176h355l-21 -110h-354l-35 -186h389l-21 -114h-504z" />
    <glyph glyph-name="F" unicode="F" horiz-adv-x="584" 
d="M66 0l128 700h491l-21 -114h-374l-37 -198h349l-21 -114h-349l-51 -274h-115z" />
    <glyph glyph-name="G" unicode="G" horiz-adv-x="679" 
d="M409 264l21 110h287l-49 -278c-61 -55 -142 -104 -268 -104c-195 0 -312 116 -312 301c0 254 180 415 416 415c113 0 200 -43 237 -114l-83 -71c-38 45 -92 69 -170 69c-160 0 -278 -119 -278 -289c0 -123 79 -195 198 -195c51 0 111 13 159 48l19 108h-177z" />
    <glyph glyph-name="H" unicode="H" horiz-adv-x="712" 
d="M529 0l55 297h-347l-56 -297h-115l130 700h115l-54 -289h348l53 289h116l-129 -700h-116z" />
    <glyph glyph-name="I" unicode="I" horiz-adv-x="248" 
d="M66 0l129 700h116l-130 -700h-115z" />
    <glyph glyph-name="J" unicode="J" horiz-adv-x="462" 
d="M527 700l-89 -483c-23 -123 -78 -225 -236 -225c-99 0 -164 56 -184 132l90 63c17 -44 49 -82 101 -82c63 0 100 32 119 135l83 460h116z" />
    <glyph glyph-name="K" unicode="K" horiz-adv-x="646" 
d="M66 0l130 700h115l-57 -307l339 307h166l-356 -319l249 -381h-142l-199 308l-87 -74l-43 -234h-115z" />
    <glyph glyph-name="L" unicode="L" horiz-adv-x="568" 
d="M66 0l129 700h116l-109 -586h377l-20 -114h-493z" />
    <glyph glyph-name="M" unicode="M" horiz-adv-x="802" 
d="M66 0l129 700h92l177 -322l287 322h113l-129 -700h-115l90 485l-254 -278h-29l-156 279l-90 -486h-115z" />
    <glyph glyph-name="N" unicode="N" horiz-adv-x="701" 
d="M635 0h-90l-277 486l-89 -486h-113l130 700h89l276 -490l91 490h112z" />
    <glyph glyph-name="O" unicode="O" horiz-adv-x="743" 
d="M89 290c0 230 163 418 400 418c176 0 294 -112 294 -297c0 -224 -151 -419 -398 -419c-180 0 -296 111 -296 298zM211 307c0 -129 72 -199 183 -199c175 0 267 148 267 285c0 130 -70 199 -180 199c-178 0 -270 -151 -270 -285z" />
    <glyph glyph-name="P" unicode="P" horiz-adv-x="644" 
d="M181 0h-115l130 700h269c187 0 239 -96 239 -198c0 -149 -104 -262 -325 -262h-153zM447 587h-157l-43 -234h151c129 0 183 58 183 139c0 55 -36 95 -134 95z" />
    <glyph glyph-name="Q" unicode="Q" horiz-adv-x="743" 
d="M88 287c0 237 165 421 401 421c179 0 294 -124 294 -297c0 -142 -55 -246 -145 -323l44 -76l-95 -62l-47 79c-43 -20 -87 -37 -158 -37c-183 0 -294 123 -294 295zM210 305c0 -118 73 -197 181 -197c33 0 68 6 100 20l-42 68l88 62l41 -70c52 52 84 126 84 207
c0 113 -61 197 -181 197c-143 0 -271 -119 -271 -287z" />
    <glyph glyph-name="R" unicode="R" horiz-adv-x="649" 
d="M181 0h-115l130 700h261c175 0 227 -89 227 -191c0 -117 -73 -201 -189 -229l148 -280h-133l-131 257h-150zM433 586h-143l-40 -215h149c99 0 162 51 162 131c0 50 -32 84 -128 84z" />
    <glyph glyph-name="S" unicode="S" horiz-adv-x="599" 
d="M488 202c0 134 -356 67 -356 288c0 141 127 218 286 218c123 0 200 -43 249 -103l-73 -80c-45 39 -93 70 -186 70c-64 0 -154 -16 -154 -88c0 -131 357 -68 357 -291c0 -130 -101 -224 -281 -224c-118 0 -221 39 -282 130l79 80c51 -64 125 -97 218 -97
c88 0 143 38 143 97z" />
    <glyph glyph-name="T" unicode="T" horiz-adv-x="563" 
d="M109 586l21 114h562l-21 -114h-224l-108 -586h-115l108 586h-223z" />
    <glyph glyph-name="U" unicode="U" horiz-adv-x="690" 
d="M758 700l-74 -402c-32 -171 -125 -305 -333 -305c-155 0 -273 104 -235 311l73 396h115l-70 -381c-25 -139 25 -213 138 -213c130 0 180 102 200 209l71 385h115z" />
    <glyph glyph-name="V" unicode="V" horiz-adv-x="686" 
d="M821 700l-430 -700h-81l-187 700h120l135 -517l311 517h132z" />
    <glyph glyph-name="W" unicode="W" horiz-adv-x="919" 
d="M1047 700l-326 -700h-96l-72 487l-248 -487h-97l-78 700h116l51 -476l241 476h102l68 -475l218 475h121z" />
    <glyph glyph-name="X" unicode="X" horiz-adv-x="648" 
d="M763 700l-305 -347l184 -353h-132l-133 257l-225 -257h-145l317 360l-178 340h130l128 -247l211 247h148z" />
    <glyph glyph-name="Y" unicode="Y" horiz-adv-x="637" 
d="M773 700l-342 -397l-56 -303h-115l56 303l-193 397h129l133 -280l238 280h150z" />
    <glyph glyph-name="Z" unicode="Z" horiz-adv-x="601" 
d="M136 586l21 114h545l-15 -81l-477 -505h393l-21 -114h-571l16 81l477 505h-368z" />
    <glyph glyph-name="bracketleft" unicode="[" horiz-adv-x="331" 
d="M23 -183l164 892h265l-20 -112h-150l-123 -668h150l-21 -112h-265z" />
    <glyph glyph-name="backslash" unicode="\" horiz-adv-x="357" 
d="M125 717l328 -881l-101 -39l-329 887z" />
    <glyph glyph-name="bracketright" unicode="]" horiz-adv-x="331" 
d="M404 709l-165 -892h-265l21 112h150l124 668h-150l20 112h265z" />
    <glyph glyph-name="asciicircum" unicode="^" horiz-adv-x="515" 
d="M83 412l200 295h71l198 -295h-131l-103 158l-105 -158h-130z" />
    <glyph glyph-name="underscore" unicode="_" horiz-adv-x="332" 
d="M60 -183v103h332v-103h-332z" />
    <glyph glyph-name="grave" unicode="`" horiz-adv-x="349" 
d="M410 598l-134 154l80 67l116 -167z" />
    <glyph glyph-name="a" unicode="a" horiz-adv-x="571" 
d="M389 0l13 63c-22 -30 -81 -69 -159 -69c-122 0 -195 86 -195 207c0 208 156 331 302 331c70 0 110 -18 129 -35l4 23h104l-97 -520h-101zM279 99c60 0 112 41 138 83l41 203c-16 23 -51 42 -106 42c-99 0 -190 -83 -190 -209c0 -81 48 -119 117 -119z" />
    <glyph glyph-name="b" unicode="b" horiz-adv-x="574" 
d="M36 74l124 656h108l-48 -257c44 38 96 59 162 59c114 0 192 -73 192 -192c0 -227 -153 -349 -323 -349c-88 0 -173 34 -215 83zM338 427c-57 0 -109 -37 -141 -81l-41 -209c23 -27 70 -41 115 -41c100 0 190 87 190 214c0 76 -46 117 -123 117z" />
    <glyph glyph-name="c" unicode="c" horiz-adv-x="515" 
d="M434 170l73 -60c-56 -88 -151 -119 -236 -119c-131 0 -223 88 -223 221c0 185 132 320 298 320c109 0 176 -56 195 -121l-84 -52c-24 47 -63 68 -119 68c-98 0 -176 -83 -176 -201c0 -85 55 -130 130 -130c63 0 106 30 142 74z" />
    <glyph glyph-name="d" unicode="d" horiz-adv-x="580" 
d="M399 0l13 63c-22 -30 -86 -69 -152 -69c-133 0 -212 86 -212 218c0 197 153 320 302 320c70 0 116 -18 135 -35l43 233h107l-135 -730h-101zM289 99c60 0 112 41 138 83l37 203c-16 23 -57 42 -112 42c-107 0 -190 -83 -190 -209c0 -81 58 -119 127 -119z" />
    <glyph glyph-name="e" unicode="e" horiz-adv-x="533" 
d="M435 159l64 -63c-53 -76 -146 -105 -231 -105c-131 0 -220 88 -220 221c0 185 147 320 307 320c116 0 184 -48 184 -143c0 -113 -115 -182 -276 -182c-32 0 -66 2 -101 8c5 -78 55 -119 127 -119c63 0 111 22 146 63zM347 427c-71 0 -140 -48 -170 -121
c29 -4 56 -5 80 -5c115 0 168 38 168 76c0 29 -23 50 -78 50z" />
    <glyph glyph-name="f" unicode="f" horiz-adv-x="321" 
d="M48 420l18 100h81l3 17c27 149 116 201 206 201c54 0 99 -23 118 -61l-71 -70c-9 15 -26 26 -54 26c-49 0 -80 -29 -92 -99l-3 -14h139l-19 -100h-138l-71 -420h-108l71 420h-80z" />
    <glyph glyph-name="g" unicode="g" horiz-adv-x="577" 
d="M593 520l-88 -478c-32 -174 -133 -251 -274 -251c-107 0 -182 53 -198 135l97 41c13 -38 53 -71 112 -71c89 0 136 44 153 133l5 24c-26 -31 -71 -62 -144 -62c-129 0 -209 95 -209 213c0 209 153 325 309 325c68 0 99 -17 123 -41l6 32h108zM291 96c61 0 110 42 131 83
l36 196c-15 27 -48 49 -105 49c-108 0 -192 -88 -192 -202c0 -77 46 -126 130 -126z" />
    <glyph glyph-name="h" unicode="h" horiz-adv-x="554" 
d="M23 0l134 730h108l-47 -260c38 35 100 61 161 61c107 0 169 -53 169 -158c0 -25 -3 -58 -9 -88l-58 -285h-108l57 278c3 18 6 37 6 61c1 60 -30 86 -89 86c-57 0 -121 -34 -154 -86l-63 -339h-107z" />
    <glyph glyph-name="i" unicode="i" horiz-adv-x="225" 
d="M32 0l96 520h108l-96 -520h-108zM145 669c0 33 26 61 61 61s64 -28 64 -61c0 -34 -29 -59 -64 -59s-61 25 -61 59z" />
    <glyph glyph-name="j" unicode="j" horiz-adv-x="231" 
d="M244 520l-96 -521c-24 -130 -90 -208 -201 -208c-69 0 -121 30 -137 102l98 41c8 -19 19 -38 50 -38c42 0 70 35 83 106l95 518h108zM151 669c0 33 26 61 62 61c34 0 63 -28 63 -61c0 -34 -29 -59 -63 -59c-36 0 -62 25 -62 59z" />
    <glyph glyph-name="k" unicode="k" horiz-adv-x="506" 
d="M32 0l134 730h108l-77 -415l238 205h149l-272 -236l178 -284h-133l-137 225l-46 -35l-35 -190h-107z" />
    <glyph glyph-name="l" unicode="l" horiz-adv-x="223" 
d="M32 0l135 730h108l-135 -730h-108z" />
    <glyph glyph-name="m" unicode="m" horiz-adv-x="817" 
d="M806 345l-68 -345h-108l62 313c2 15 4 30 4 46c1 38 -18 67 -66 67c-54 0 -95 -32 -126 -81l-65 -345h-108l64 338c10 51 -12 88 -61 88c-62 0 -109 -46 -132 -86l-63 -340h-107l96 520h107l-10 -52c35 38 89 63 146 63c62 0 104 -24 125 -70c47 47 94 70 167 70
c86 0 146 -42 148 -133c0 -16 -2 -34 -5 -53z" />
    <glyph glyph-name="n" unicode="n" horiz-adv-x="563" 
d="M32 0l95 520h108l-8 -50c38 35 100 61 161 61c107 0 169 -53 169 -158c0 -25 -4 -58 -9 -88l-57 -285h-108l56 278c3 18 6 37 6 61c1 60 -30 87 -101 87c-59 0 -109 -35 -142 -87l-63 -339h-107z" />
    <glyph glyph-name="o" unicode="o" horiz-adv-x="589" 
d="M48 206c0 193 146 326 313 326c142 0 228 -94 228 -216c0 -193 -135 -325 -307 -325c-148 0 -234 93 -234 215zM162 229c0 -81 50 -132 134 -132c87 0 179 78 179 204c0 77 -50 125 -127 125c-86 0 -186 -78 -186 -197z" />
    <glyph glyph-name="p" unicode="p" horiz-adv-x="572" 
d="M-12 -200l132 720h107l-9 -47c39 41 98 59 147 59c149 0 207 -101 207 -217c0 -193 -135 -324 -314 -324c-50 0 -101 15 -121 43l-43 -234h-106zM334 427c-63 0 -112 -41 -141 -86l-33 -184c17 -41 57 -61 106 -61c109 0 193 78 193 200c0 74 -39 131 -125 131z" />
    <glyph glyph-name="q" unicode="q" horiz-adv-x="578" 
d="M353 -200l45 241c-26 -26 -75 -50 -135 -50c-144 0 -215 92 -215 224c0 197 149 314 305 314c64 0 108 -11 128 -33l5 24h108l-133 -720h-108zM293 96c51 0 101 29 128 70l39 212c-20 34 -65 46 -113 46c-96 0 -185 -82 -185 -189c0 -99 48 -139 131 -139z" />
    <glyph glyph-name="r" unicode="r" horiz-adv-x="344" 
d="M32 0l96 520h107l-6 -35c18 27 62 46 98 46c49 0 73 -17 89 -46l-77 -83c-7 15 -20 23 -45 23c-33 0 -69 -24 -90 -73l-65 -352h-107z" />
    <glyph glyph-name="s" unicode="s" horiz-adv-x="450" 
d="M312 148c0 88 -224 62 -224 224c0 105 93 160 192 160c112 0 169 -44 198 -87l-73 -74c-26 34 -70 55 -115 55c-50 0 -88 -16 -88 -51c0 -74 224 -51 224 -220c0 -120 -112 -164 -200 -164c-110 0 -191 54 -222 126l86 61c23 -50 72 -81 143 -81c40 0 79 16 79 51z" />
    <glyph glyph-name="t" unicode="t" horiz-adv-x="376" 
d="M42 420l18 100h94l21 107h107l-21 -107h152l-19 -100h-153l-45 -207c-4 -21 -7 -45 -7 -60c-1 -38 18 -54 46 -54c35 0 62 18 83 41l54 -68c-36 -49 -101 -78 -168 -78c-74 0 -129 41 -129 112c0 18 3 47 8 75l52 239h-93z" />
    <glyph glyph-name="u" unicode="u" horiz-adv-x="550" 
d="M568 520l-98 -520h-108l10 55c-37 -36 -89 -64 -155 -64c-106 0 -168 55 -168 147c0 25 4 55 10 86l62 296h108l-60 -285c-3 -17 -6 -38 -6 -57c1 -51 20 -82 85 -82c61 0 110 33 148 91l64 333h108z" />
    <glyph glyph-name="v" unicode="v" horiz-adv-x="493" 
d="M577 520l-315 -520h-80l-134 520h114l86 -347l206 347h123z" />
    <glyph glyph-name="w" unicode="w" horiz-adv-x="704" 
d="M788 520l-256 -520h-86l-57 338l-184 -338h-85l-68 520h105l43 -334l179 334h83l57 -335l161 335h108z" />
    <glyph glyph-name="x" unicode="x" horiz-adv-x="527" 
d="M592 520l-236 -253l149 -267h-128l-101 184l-170 -184h-133l247 268l-142 252h127l95 -167l156 167h136z" />
    <glyph glyph-name="y" unicode="y" horiz-adv-x="504" 
d="M0 -192l57 95c6 -4 13 -6 21 -6c26 0 55 28 92 92l26 47l-151 484h120l105 -351l196 351h122l-288 -505c-98 -172 -156 -224 -233 -224c-29 0 -51 6 -67 17z" />
    <glyph glyph-name="z" unicode="z" horiz-adv-x="479" 
d="M88 420l17 100h421v-62l-350 -358h272l-18 -100h-430v68l349 352h-261z" />
    <glyph glyph-name="braceleft" unicode="{" horiz-adv-x="328" 
d="M84 -38l30 165c11 63 -11 85 -63 85l19 101c51 0 81 12 93 79l31 165c20 108 70 152 178 152h74l-19 -101h-52c-47 0 -66 -24 -77 -79l-30 -166c-9 -48 -33 -87 -74 -103c36 -13 46 -49 36 -106l-31 -162c-11 -56 1 -74 49 -74h52l-19 -101h-85c-91 0 -131 42 -112 145z
" />
    <glyph glyph-name="bar" unicode="|" horiz-adv-x="317" 
d="M159 0v700h118v-700h-118z" />
    <glyph glyph-name="braceright" unicode="}" horiz-adv-x="328" 
d="M259 127l-30 -165c-19 -103 -74 -145 -165 -145h-86l19 101h52c48 0 66 18 76 74l31 172c10 57 35 93 75 106c-35 16 -45 55 -36 103l29 156c11 55 1 79 -46 79h-54l18 101h75c109 0 142 -44 122 -152l-30 -165c-13 -67 13 -79 63 -79l-18 -101c-51 0 -82 -22 -95 -85z
" />
    <glyph glyph-name="asciitilde" unicode="~" horiz-adv-x="570" 
d="M144 280l-58 77c45 44 95 89 171 84c77 -5 131 -66 195 -66c35 0 74 22 102 59l50 -80c-42 -48 -99 -77 -146 -77c-94 0 -140 67 -211 67c-36 0 -72 -26 -103 -64z" />
    <glyph glyph-name="uni00A0" unicode="&#xa0;" horiz-adv-x="236" 
 />
    <glyph glyph-name="exclamdown" unicode="&#xa1;" horiz-adv-x="294" 
d="M259 303l-89 -485h-112l89 485h112zM308 456c0 -48 -40 -84 -88 -84c-42 0 -67 32 -67 64c0 49 39 84 88 84c45 0 67 -30 67 -64z" />
    <glyph glyph-name="cent" unicode="&#xa2;" horiz-adv-x="511" 
d="M460 171l74 -60c-56 -84 -114 -102 -194 -116l-36 -195h-114l36 202c-92 30 -151 97 -151 210c0 170 103 288 250 316l31 172h114l-32 -176c72 -14 117 -67 130 -113l-84 -53c-19 36 -42 58 -77 65l-60 -326c44 7 84 34 113 74zM190 225c0 -50 21 -100 70 -119l57 315
c-77 -20 -127 -100 -127 -196z" />
    <glyph glyph-name="sterling" unicode="&#xa3;" horiz-adv-x="565" 
d="M109 260l18 96h54c-5 28 -13 61 -13 100c0 169 108 251 258 251c78 0 147 -30 186 -89l-71 -82c-33 35 -73 58 -132 58c-83 0 -124 -61 -124 -125c0 -37 11 -73 17 -113h160l-18 -96h-141c0 -7 -1 -13 -3 -21c-7 -39 -25 -77 -45 -98c53 -2 103 -41 159 -41
c46 0 76 19 107 50l47 -78c-36 -36 -86 -73 -163 -73c-89 0 -138 45 -212 45c-37 0 -76 -13 -124 -54l-37 79c29 31 59 54 106 68c25 28 42 60 49 98c2 10 2 17 3 25h-81z" />
    <glyph glyph-name="currency" unicode="&#xa4;" horiz-adv-x="630" 
d="M135 347c0 47 12 91 37 130l-86 87l74 73l88 -87c33 20 78 35 127 35c51 0 92 -13 127 -35l93 91l74 -73l-91 -92c23 -37 38 -85 38 -129c0 -45 -14 -91 -38 -128l87 -88l-73 -74l-89 89c-34 -23 -78 -36 -128 -36c-52 0 -93 12 -129 36l-93 -93l-72 73l91 93
c-23 37 -37 83 -37 128zM249 347c0 -73 52 -131 126 -131c75 0 127 58 127 131c0 76 -53 133 -127 133c-75 0 -126 -58 -126 -133z" />
    <glyph glyph-name="yen" unicode="&#xa5;" horiz-adv-x="637" 
d="M160 302l18 99h90l-145 299h130l132 -279l239 279h149l-257 -299h91l-18 -99h-158l-16 -85h158l-18 -99h-158l-22 -118h-115l22 118h-157l18 99h157l16 85h-156z" />
    <glyph glyph-name="brokenbar" unicode="&#xa6;" horiz-adv-x="317" 
d="M277 403h-118v297h118v-297zM159 297h118v-297h-118v297z" />
    <glyph glyph-name="section" unicode="&#xa7;" horiz-adv-x="482" 
d="M85 229c0 88 45 170 133 201c-20 19 -36 56 -36 87c0 124 97 183 189 183c87 0 127 -47 148 -86l-84 -68c-15 25 -35 42 -69 42c-43 0 -71 -31 -71 -67c0 -38 21 -60 49 -73c92 -9 147 -71 147 -158c0 -100 -51 -172 -135 -205c23 -25 36 -57 36 -98
c0 -74 -54 -170 -191 -170c-73 0 -119 37 -144 84l78 77c21 -30 41 -49 81 -49c43 0 68 27 68 64c0 34 -23 62 -53 74c-93 9 -146 69 -146 162zM197 242c0 -47 31 -81 78 -81c55 0 104 41 104 114c0 46 -29 80 -79 80s-103 -36 -103 -113z" />
    <glyph glyph-name="dieresis" unicode="&#xa8;" horiz-adv-x="449" 
d="M387 669c0 33 26 61 62 61c34 0 63 -28 63 -61c0 -34 -29 -59 -63 -59c-36 0 -62 25 -62 59zM178 669c0 33 27 61 62 61s63 -28 63 -61c0 -34 -28 -59 -63 -59s-62 25 -62 59z" />
    <glyph glyph-name="copyright" unicode="&#xa9;" horiz-adv-x="966" 
d="M112 232c0 236 185 425 431 425s431 -177 431 -425c0 -244 -185 -426 -431 -426s-431 172 -431 426zM217 232c0 -183 142 -327 326 -327c189 0 326 142 326 327c0 192 -133 326 -326 326c-184 0 -326 -146 -326 -326zM689 157l62 -71c-39 -57 -120 -94 -191 -94
c-149 0 -254 96 -254 244c0 136 104 243 241 243c73 0 147 -28 194 -85l-71 -68c-30 31 -69 50 -114 50c-79 0 -130 -57 -130 -137c0 -90 60 -146 140 -146c38 0 81 15 123 64z" />
    <glyph glyph-name="ordfeminine" unicode="&#xaa;" horiz-adv-x="432" 
d="M197 533l-22 74c42 26 92 41 160 41c96 0 146 -52 130 -140l-39 -209h-95l6 36c-22 -23 -55 -40 -108 -40c-58 0 -112 30 -112 99c0 83 72 116 169 116c31 0 66 -4 82 -8c7 38 -4 58 -59 58c-34 0 -72 -9 -112 -27zM271 379c29 0 62 14 80 36l4 19c-12 4 -32 10 -66 10
c-39 0 -70 -12 -70 -36c0 -20 17 -29 52 -29z" />
    <glyph glyph-name="guillemotleft" unicode="&#xab;" horiz-adv-x="525" 
d="M219 38l-135 218l1 6l193 212l66 -71l-138 -152l92 -149zM419 38l-135 218l1 6l194 212l65 -71l-138 -152l92 -149z" />
    <glyph glyph-name="logicalnot" unicode="&#xac;" horiz-adv-x="545" 
d="M95 310v99h475v-219h-96v120h-379z" />
    <glyph glyph-name="uni00AD" unicode="&#xad;" horiz-adv-x="416" 
d="M113 227l20 101h278l-20 -101h-278z" />
    <glyph glyph-name="registered" unicode="&#xae;" horiz-adv-x="577" 
d="M98 485c0 134 112 243 251 243c137 0 250 -109 250 -243c0 -137 -113 -246 -250 -246c-139 0 -251 109 -251 246zM142 484c0 -115 93 -201 206 -201c114 0 207 97 207 201c0 113 -98 201 -207 201c-115 0 -206 -94 -206 -201zM314 341h-83v290h110c99 0 129 -45 129 -96
c0 -41 -22 -71 -51 -84l66 -110h-94l-46 81h-31v-81zM381 527c0 21 -12 30 -37 30h-30v-59h32c20 0 35 11 35 29z" />
    <glyph glyph-name="macron" unicode="&#xaf;" horiz-adv-x="428" 
d="M276 625l18 95h266l-17 -95h-267z" />
    <glyph glyph-name="degree" unicode="&#xb0;" horiz-adv-x="410" 
d="M98 551c0 91 75 162 167 162s167 -69 167 -161c0 -89 -75 -162 -167 -162s-167 71 -167 161zM206 551c0 -34 28 -56 59 -56s59 22 59 56c0 35 -28 57 -59 57s-59 -22 -59 -57z" />
    <glyph glyph-name="plusminus" unicode="&#xb1;" horiz-adv-x="552" 
d="M111 382v98h175v183h99v-183h177v-98h-177v-109h-99v109h-175zM111 139v99h451v-99h-451z" />
    <glyph glyph-name="twosuperior" unicode="&#xb2;" horiz-adv-x="400" 
d="M210 567l-67 47c28 64 97 110 184 110c94 0 139 -42 139 -115c0 -82 -71 -140 -141 -182l-55 -33h171l-17 -94h-328l15 81l93 54c84 48 157 99 157 154c0 27 -16 41 -48 41c-46 0 -75 -22 -103 -63z" />
    <glyph glyph-name="threesuperior" unicode="&#xb3;" horiz-adv-x="408" 
d="M208 579l-59 57c38 59 108 89 181 89c95 0 145 -35 145 -101c0 -41 -26 -83 -80 -102c26 -9 56 -28 56 -77c0 -103 -93 -150 -184 -150c-84 0 -146 30 -167 104l78 46c17 -39 45 -56 94 -56c50 0 78 16 78 48c0 26 -29 34 -65 34h-45l15 81h37c49 0 76 18 76 49
c0 19 -16 30 -48 30c-51 0 -81 -17 -112 -52z" />
    <glyph glyph-name="acute" unicode="&#xb4;" horiz-adv-x="425" 
d="M549 755l-149 -157l-64 54l140 167z" />
    <glyph glyph-name="mu" unicode="&#xb5;" horiz-adv-x="554" 
d="M599 520l-96 -520h-108l8 44c-33 -29 -87 -53 -135 -53c-54 0 -84 19 -103 39l-43 -229h-109l133 719h108l-53 -285c-17 -95 8 -138 87 -138c48 0 103 27 136 59l67 364h108z" />
    <glyph glyph-name="mu" unicode="&#x3bc;" horiz-adv-x="554" 
d="M599 520l-96 -520h-108l8 44c-33 -29 -87 -53 -135 -53c-54 0 -84 19 -103 39l-43 -229h-109l133 719h108l-53 -285c-17 -95 8 -138 87 -138c48 0 103 27 136 59l67 364h108z" />
    <glyph glyph-name="paragraph" unicode="&#xb6;" horiz-adv-x="446" 
d="M92 470c0 143 87 230 225 230h164v-101h-86v-577c0 -116 -30 -213 -168 -213c-48 0 -101 20 -133 55l50 87c26 -20 51 -29 79 -29c43 0 56 33 56 100v222c-107 14 -187 95 -187 226z" />
    <glyph glyph-name="periodcentered" unicode="&#xb7;" horiz-adv-x="236" 
d="M99 301c0 29 28 61 70 61c38 0 67 -32 67 -61c0 -34 -29 -64 -67 -64c-42 0 -70 30 -70 64z" />
    <glyph glyph-name="cedilla" unicode="&#xb8;" horiz-adv-x="426" 
d="M151 -168l44 59c15 -14 40 -23 71 -23c33 0 42 9 42 24s-15 20 -44 20h-12l16 88h60l-6 -32c56 -4 84 -30 84 -71c0 -58 -50 -104 -146 -104c-36 0 -78 9 -109 39z" />
    <glyph glyph-name="onesuperior" unicode="&#xb9;" horiz-adv-x="299" 
d="M130 653l166 68h73l-77 -421h-100l56 300l-98 -39z" />
    <glyph glyph-name="ordmasculine" unicode="&#xba;" horiz-adv-x="439" 
d="M128 441c0 121 92 207 211 207c91 0 147 -57 147 -144c0 -119 -93 -209 -212 -209c-91 0 -146 60 -146 146zM230 458c0 -40 26 -66 62 -66c51 0 92 39 92 94c0 40 -27 64 -63 64c-49 0 -91 -36 -91 -92z" />
    <glyph glyph-name="guillemotright" unicode="&#xbb;" horiz-adv-x="525" 
d="M392 474l135 -218l-1 -6l-193 -212l-66 71l138 152l-92 149zM192 474l135 -218l-1 -6l-194 -212l-65 71l138 152l-92 149z" />
    <glyph glyph-name="onequarter" unicode="&#xbc;" horiz-adv-x="842" 
d="M162 48l549 672l83 -66l-547 -676zM146 653l166 68h73l-77 -421h-100l56 300l-98 -39zM651 0l14 76h-233l13 73l295 271h83l-47 -253h73l-17 -91h-73l-14 -76h-94zM569 167h113l22 119z" />
    <glyph glyph-name="onehalf" unicode="&#xbd;" horiz-adv-x="891" 
d="M162 48l549 672l83 -66l-547 -676zM146 653l166 68h73l-77 -421h-100l56 300l-98 -39zM634 267l-67 47c28 64 97 110 184 110c94 0 139 -42 139 -115c0 -82 -71 -140 -141 -182l-55 -33h171l-17 -94h-328l15 81l93 54c84 48 157 99 157 154c0 27 -16 41 -48 41
c-46 0 -75 -22 -103 -63z" />
    <glyph glyph-name="threequarters" unicode="&#xbe;" horiz-adv-x="896" 
d="M216 48l549 672l83 -66l-547 -676zM704 0l14 76h-233l13 73l295 271h83l-47 -253h73l-17 -91h-73l-14 -76h-94zM622 167h113l22 119zM208 579l-59 57c38 59 108 89 181 89c95 0 145 -35 145 -101c0 -41 -26 -83 -80 -102c26 -9 56 -28 56 -77c0 -103 -93 -150 -184 -150
c-84 0 -146 30 -167 104l78 46c17 -39 45 -56 94 -56c50 0 78 16 78 48c0 26 -29 34 -65 34h-45l15 81h37c49 0 76 18 76 49c0 19 -16 30 -48 30c-51 0 -81 -17 -112 -52z" />
    <glyph glyph-name="questiondown" unicode="&#xbf;" horiz-adv-x="579" 
d="M156 4c0 -42 32 -78 114 -78c93 0 149 48 180 115l101 -33c-37 -116 -132 -198 -294 -198c-152 0 -224 71 -224 175c0 209 260 188 278 285c3 15 3 27 3 34l104 1v-20c0 -183 -262 -153 -262 -281zM474 456c0 -48 -40 -84 -88 -84c-42 0 -67 32 -67 64c0 49 39 84 88 84
c45 0 67 -30 67 -64z" />
    <glyph glyph-name="Agrave" unicode="&#xc0;" horiz-adv-x="669" 
d="M-1 0l421 700h87l163 -700h-118l-36 155h-297l-91 -155h-129zM432 519l-152 -260h212zM528 745l-212 104l61 100l199 -128z" />
    <glyph glyph-name="Aacute" unicode="&#xc1;" horiz-adv-x="669" 
d="M-1 0l421 700h87l163 -700h-118l-36 155h-297l-91 -155h-129zM432 519l-152 -260h212zM687 853l-224 -108l-36 72l219 132z" />
    <glyph glyph-name="Acircumflex" unicode="&#xc2;" horiz-adv-x="669" 
d="M-1 0l421 700h87l163 -700h-118l-36 155h-297l-91 -155h-129zM432 519l-152 -260h212zM501 928l158 -110l-47 -69l-122 79l-143 -79l-37 72l187 107h4z" />
    <glyph glyph-name="Atilde" unicode="&#xc3;" horiz-adv-x="669" 
d="M-1 0l421 700h87l163 -700h-118l-36 155h-297l-91 -155h-129zM432 519l-152 -260h212zM337 779l-25 72c34 34 75 56 124 56c54 0 80 -36 131 -36c22 0 49 4 78 31l21 -76c-23 -28 -64 -56 -114 -56c-57 0 -93 36 -147 36c-20 0 -42 -8 -68 -27z" />
    <glyph glyph-name="Adieresis" unicode="&#xc4;" horiz-adv-x="669" 
d="M-1 0l421 700h87l163 -700h-118l-36 155h-297l-91 -155h-129zM432 519l-152 -260h212zM307 828c0 34 28 62 62 62s62 -28 62 -62s-28 -62 -62 -62s-62 28 -62 62zM537 828c0 34 28 62 62 62s62 -28 62 -62s-28 -62 -62 -62s-62 28 -62 62z" />
    <glyph glyph-name="Aring" unicode="&#xc5;" horiz-adv-x="669" 
d="M-1 0l421 700h87l163 -700h-118l-36 155h-297l-91 -155h-129zM432 519l-152 -260h212zM356 823c0 83 74 124 146 124c71 0 123 -30 123 -94c0 -82 -64 -126 -150 -126c-71 0 -119 32 -119 96zM439 830c0 -23 16 -37 45 -37c40 0 57 26 57 52c0 23 -17 35 -44 35
c-35 0 -58 -19 -58 -50z" />
    <glyph glyph-name="AE" unicode="&#xc6;" horiz-adv-x="1076" 
d="M530 0l29 155h-279l-138 -155h-142l623 700h530l-21 -114h-379l-32 -176h354l-21 -110h-354l-34 -186h388l-20 -114h-504zM369 259h209l56 301z" />
    <glyph glyph-name="Ccedilla" unicode="&#xc7;" horiz-adv-x="657" 
d="M249 -161l47 54c15 -14 39 -25 71 -25s41 9 41 24s-16 20 -43 20h-12l15 81c-181 11 -281 129 -281 304c0 240 177 411 408 411c131 0 213 -51 246 -121l-82 -69c-36 41 -82 74 -173 74c-187 0 -276 -149 -276 -288c0 -118 76 -196 194 -196c108 0 172 47 216 92l67 -84
c-49 -59 -138 -115 -260 -123l-4 -25c63 -3 90 -33 90 -79c0 -47 -40 -96 -142 -96c-50 0 -91 14 -122 46z" />
    <glyph glyph-name="Egrave" unicode="&#xc8;" horiz-adv-x="613" 
d="M66 0l130 700h494l-21 -114h-379l-33 -176h355l-21 -110h-354l-35 -186h389l-21 -114h-504zM518 745l-212 104l61 100l199 -128z" />
    <glyph glyph-name="Eacute" unicode="&#xc9;" horiz-adv-x="613" 
d="M66 0l130 700h494l-21 -114h-379l-33 -176h355l-21 -110h-354l-35 -186h389l-21 -114h-504zM652 853l-224 -108l-36 72l219 132z" />
    <glyph glyph-name="Ecircumflex" unicode="&#xca;" horiz-adv-x="613" 
d="M66 0l130 700h494l-21 -114h-379l-33 -176h355l-21 -110h-354l-35 -186h389l-21 -114h-504zM488 928l158 -110l-47 -69l-122 79l-143 -79l-37 72l187 107h4z" />
    <glyph glyph-name="Edieresis" unicode="&#xcb;" horiz-adv-x="613" 
d="M66 0l130 700h494l-21 -114h-379l-33 -176h355l-21 -110h-354l-35 -186h389l-21 -114h-504zM290 828c0 34 28 62 62 62s62 -28 62 -62s-28 -62 -62 -62s-62 28 -62 62zM520 828c0 34 28 62 62 62s62 -28 62 -62s-28 -62 -62 -62s-62 28 -62 62z" />
    <glyph glyph-name="Igrave" unicode="&#xcc;" horiz-adv-x="248" 
d="M66 0l129 700h116l-130 -700h-115zM308 745l-212 104l61 100l199 -128z" />
    <glyph glyph-name="Iacute" unicode="&#xcd;" horiz-adv-x="248" 
d="M66 0l129 700h116l-130 -700h-115zM471 853l-224 -108l-36 72l219 132z" />
    <glyph glyph-name="Icircumflex" unicode="&#xce;" horiz-adv-x="248" 
d="M66 0l129 700h116l-130 -700h-115zM291 928l158 -110l-47 -69l-122 79l-143 -79l-37 72l187 107h4z" />
    <glyph glyph-name="Idieresis" unicode="&#xcf;" horiz-adv-x="248" 
d="M66 0l129 700h116l-130 -700h-115zM97 828c0 34 28 62 62 62s62 -28 62 -62s-28 -62 -62 -62s-62 28 -62 62zM327 828c0 34 28 62 62 62s62 -28 62 -62s-28 -62 -62 -62s-62 28 -62 62z" />
    <glyph glyph-name="Eth" unicode="&#xd0;" horiz-adv-x="739" 
d="M69 298l19 101h111l56 301h207c234 0 319 -128 319 -281c0 -268 -154 -419 -460 -419h-196l55 298h-111zM439 586h-90l-35 -187h166l-19 -101h-166l-34 -184h90c219 0 308 121 308 288c0 116 -60 184 -220 184z" />
    <glyph glyph-name="Ntilde" unicode="&#xd1;" horiz-adv-x="701" 
d="M635 0h-90l-277 486l-89 -486h-113l130 700h89l276 -490l91 490h112zM354 779l-25 72c34 34 75 56 124 56c54 0 80 -36 131 -36c22 0 49 4 78 31l21 -76c-23 -28 -64 -56 -114 -56c-57 0 -93 36 -147 36c-20 0 -42 -8 -68 -27z" />
    <glyph glyph-name="Ograve" unicode="&#xd2;" horiz-adv-x="743" 
d="M89 290c0 230 163 418 400 418c176 0 294 -112 294 -297c0 -224 -151 -419 -398 -419c-180 0 -296 111 -296 298zM211 307c0 -129 72 -199 183 -199c175 0 267 148 267 285c0 130 -70 199 -180 199c-178 0 -270 -151 -270 -285zM568 745l-212 104l61 100l199 -128z" />
    <glyph glyph-name="Oacute" unicode="&#xd3;" horiz-adv-x="743" 
d="M89 290c0 230 163 418 400 418c176 0 294 -112 294 -297c0 -224 -151 -419 -398 -419c-180 0 -296 111 -296 298zM211 307c0 -129 72 -199 183 -199c175 0 267 148 267 285c0 130 -70 199 -180 199c-178 0 -270 -151 -270 -285zM715 853l-224 -108l-36 72l219 132z" />
    <glyph glyph-name="Ocircumflex" unicode="&#xd4;" horiz-adv-x="743" 
d="M89 290c0 230 163 418 400 418c176 0 294 -112 294 -297c0 -224 -151 -419 -398 -419c-180 0 -296 111 -296 298zM211 307c0 -129 72 -199 183 -199c175 0 267 148 267 285c0 130 -70 199 -180 199c-178 0 -270 -151 -270 -285zM538 928l158 -110l-47 -69l-122 79
l-143 -79l-37 72l187 107h4z" />
    <glyph glyph-name="Otilde" unicode="&#xd5;" horiz-adv-x="743" 
d="M89 290c0 230 163 418 400 418c176 0 294 -112 294 -297c0 -224 -151 -419 -398 -419c-180 0 -296 111 -296 298zM211 307c0 -129 72 -199 183 -199c175 0 267 148 267 285c0 130 -70 199 -180 199c-178 0 -270 -151 -270 -285zM374 779l-25 72c34 34 75 56 124 56
c54 0 80 -36 131 -36c22 0 49 4 78 31l21 -76c-23 -28 -64 -56 -114 -56c-57 0 -93 36 -147 36c-20 0 -42 -8 -68 -27z" />
    <glyph glyph-name="Odieresis" unicode="&#xd6;" horiz-adv-x="743" 
d="M89 290c0 230 163 418 400 418c176 0 294 -112 294 -297c0 -224 -151 -419 -398 -419c-180 0 -296 111 -296 298zM211 307c0 -129 72 -199 183 -199c175 0 267 148 267 285c0 130 -70 199 -180 199c-178 0 -270 -151 -270 -285zM345 828c0 34 28 62 62 62s62 -28 62 -62
s-28 -62 -62 -62s-62 28 -62 62zM575 828c0 34 28 62 62 62s62 -28 62 -62s-28 -62 -62 -62s-62 28 -62 62z" />
    <glyph glyph-name="multiply" unicode="&#xd7;" horiz-adv-x="599" 
d="M153 488l72 72l129 -129l130 129l72 -72l-129 -130l129 -129l-72 -72l-130 130l-129 -130l-72 72l130 129z" />
    <glyph glyph-name="Oslash" unicode="&#xd8;" horiz-adv-x="743" 
d="M78 47l60 62c-31 45 -49 112 -49 180c0 228 165 419 400 419c76 0 131 -18 177 -49l58 60l66 -66l-58 -60c32 -47 51 -114 51 -183c0 -218 -151 -418 -398 -418c-79 0 -133 18 -180 48l-60 -63zM661 392c0 38 -6 78 -20 105l-348 -365c28 -16 62 -24 98 -24
c177 0 270 149 270 284zM210 306c0 -37 7 -76 19 -102l352 365c-29 17 -65 23 -100 23c-177 0 -271 -148 -271 -286z" />
    <glyph glyph-name="Ugrave" unicode="&#xd9;" horiz-adv-x="690" 
d="M758 700l-74 -402c-32 -171 -125 -305 -333 -305c-155 0 -273 104 -235 311l73 396h115l-70 -381c-25 -139 25 -213 138 -213c130 0 180 102 200 209l71 385h115zM543 745l-212 104l61 100l199 -128z" />
    <glyph glyph-name="Uacute" unicode="&#xda;" horiz-adv-x="690" 
d="M758 700l-74 -402c-32 -171 -125 -305 -333 -305c-155 0 -273 104 -235 311l73 396h115l-70 -381c-25 -139 25 -213 138 -213c130 0 180 102 200 209l71 385h115zM690 853l-224 -108l-36 72l219 132z" />
    <glyph glyph-name="Ucircumflex" unicode="&#xdb;" horiz-adv-x="690" 
d="M758 700l-74 -402c-32 -171 -125 -305 -333 -305c-155 0 -273 104 -235 311l73 396h115l-70 -381c-25 -139 25 -213 138 -213c130 0 180 102 200 209l71 385h115zM512 928l158 -110l-47 -69l-122 79l-143 -79l-37 72l187 107h4z" />
    <glyph glyph-name="Udieresis" unicode="&#xdc;" horiz-adv-x="690" 
d="M758 700l-74 -402c-32 -171 -125 -305 -333 -305c-155 0 -273 104 -235 311l73 396h115l-70 -381c-25 -139 25 -213 138 -213c130 0 180 102 200 209l71 385h115zM318 828c0 34 28 62 62 62s62 -28 62 -62s-28 -62 -62 -62s-62 28 -62 62zM548 828c0 34 28 62 62 62
s62 -28 62 -62s-28 -62 -62 -62s-62 28 -62 62z" />
    <glyph glyph-name="Yacute" unicode="&#xdd;" horiz-adv-x="637" 
d="M773 700l-342 -397l-56 -303h-115l56 303l-193 397h129l133 -280l238 280h150zM668 853l-224 -108l-36 72l219 132z" />
    <glyph glyph-name="Thorn" unicode="&#xde;" horiz-adv-x="625" 
d="M181 0h-115l130 700h115l-20 -107h135c188 0 239 -96 239 -198c0 -152 -113 -262 -325 -262h-134zM408 480h-138l-43 -233h132c130 -1 183 57 183 138c0 55 -36 95 -134 95z" />
    <glyph glyph-name="germandbls" unicode="&#xdf;" horiz-adv-x="533" 
d="M389 738c126 0 187 -63 187 -174c0 -86 -44 -154 -115 -187c61 -23 87 -72 87 -141c0 -149 -88 -246 -242 -246c-42 0 -85 11 -108 25l44 99c21 -11 39 -17 70 -17c69 0 123 41 123 129c0 52 -34 84 -106 84h-48l20 107h24c99 0 138 68 138 129c0 55 -34 86 -85 86
c-58 0 -108 -31 -135 -176l-84 -456h-109l86 461c35 187 99 277 253 277z" />
    <glyph glyph-name="agrave" unicode="&#xe0;" horiz-adv-x="571" 
d="M389 0l13 63c-22 -30 -81 -69 -159 -69c-122 0 -195 86 -195 207c0 208 156 331 302 331c70 0 110 -18 129 -35l4 23h104l-97 -520h-101zM279 99c60 0 112 41 138 83l41 203c-16 23 -51 42 -106 42c-99 0 -190 -83 -190 -209c0 -81 48 -119 117 -119zM390 598l-134 154
l80 67l116 -167z" />
    <glyph glyph-name="aacute" unicode="&#xe1;" horiz-adv-x="571" 
d="M389 0l13 63c-22 -30 -81 -69 -159 -69c-122 0 -195 86 -195 207c0 208 156 331 302 331c70 0 110 -18 129 -35l4 23h104l-97 -520h-101zM279 99c60 0 112 41 138 83l41 203c-16 23 -51 42 -106 42c-99 0 -190 -83 -190 -209c0 -81 48 -119 117 -119zM569 755l-149 -157
l-64 54l140 167z" />
    <glyph glyph-name="acircumflex" unicode="&#xe2;" horiz-adv-x="571" 
d="M389 0l13 63c-22 -30 -81 -69 -159 -69c-122 0 -195 86 -195 207c0 208 156 331 302 331c70 0 110 -18 129 -35l4 23h104l-97 -520h-101zM279 99c60 0 112 41 138 83l41 203c-16 23 -51 42 -106 42c-99 0 -190 -83 -190 -209c0 -81 48 -119 117 -119zM417 790l133 -135
l-63 -66l-84 88l-111 -85l-51 68l172 130h4z" />
    <glyph glyph-name="atilde" unicode="&#xe3;" horiz-adv-x="571" 
d="M389 0l13 63c-22 -30 -81 -69 -159 -69c-122 0 -195 86 -195 207c0 208 156 331 302 331c70 0 110 -18 129 -35l4 23h104l-97 -520h-101zM279 99c60 0 112 41 138 83l41 203c-16 23 -51 42 -106 42c-99 0 -190 -83 -190 -209c0 -81 48 -119 117 -119zM262 612l-41 56
c30 37 82 68 120 68c57 0 78 -44 118 -44c27 0 46 11 69 30l35 -60c-28 -31 -70 -64 -119 -64c-57 0 -77 43 -117 43c-21 0 -44 -13 -65 -29z" />
    <glyph glyph-name="adieresis" unicode="&#xe4;" horiz-adv-x="571" 
d="M389 0l13 63c-22 -30 -81 -69 -159 -69c-122 0 -195 86 -195 207c0 208 156 331 302 331c70 0 110 -18 129 -35l4 23h104l-97 -520h-101zM279 99c60 0 112 41 138 83l41 203c-16 23 -51 42 -106 42c-99 0 -190 -83 -190 -209c0 -81 48 -119 117 -119zM441 669
c0 33 26 61 62 61c34 0 63 -28 63 -61c0 -34 -29 -59 -63 -59c-36 0 -62 25 -62 59zM232 669c0 33 27 61 62 61s63 -28 63 -61c0 -34 -28 -59 -63 -59s-62 25 -62 59z" />
    <glyph glyph-name="aring" unicode="&#xe5;" horiz-adv-x="571" 
d="M389 0l13 63c-22 -30 -81 -69 -159 -69c-122 0 -195 86 -195 207c0 208 156 331 302 331c70 0 110 -18 129 -35l4 23h104l-97 -520h-101zM279 99c60 0 112 41 138 83l41 203c-16 23 -51 42 -106 42c-99 0 -190 -83 -190 -209c0 -81 48 -119 117 -119zM286 683
c0 79 59 135 135 135c65 0 103 -44 103 -99c0 -79 -60 -133 -135 -133c-65 0 -103 42 -103 97zM360 693c0 -22 13 -37 37 -37c30 0 53 21 53 56c0 22 -14 36 -37 36c-31 0 -53 -23 -53 -55z" />
    <glyph glyph-name="ae" unicode="&#xe6;" horiz-adv-x="856" 
d="M752 159l63 -63c-53 -76 -145 -105 -231 -105c-84 0 -150 36 -187 96c-63 -67 -138 -93 -219 -93c-119 0 -164 66 -164 141c0 123 120 188 263 188c37 0 80 -6 101 -14c4 20 5 36 4 51c-4 43 -30 66 -89 66c-55 0 -97 -17 -153 -55l-50 80c57 49 139 81 234 81
c75 0 126 -27 151 -75c55 47 124 75 196 75c116 0 184 -48 184 -143c0 -117 -119 -188 -289 -188c-27 0 -56 2 -86 6c7 -73 55 -110 125 -110c63 0 112 21 147 62zM203 93c73 0 126 44 150 81l7 40c-18 7 -53 14 -88 14c-78 0 -144 -27 -144 -80c-1 -39 25 -55 75 -55z
M664 426c-74 0 -145 -49 -173 -126c18 -1 36 -2 52 -2c134 0 199 38 199 79c0 29 -24 49 -78 49z" />
    <glyph glyph-name="ccedilla" unicode="&#xe7;" horiz-adv-x="515" 
d="M131 -168l44 59c15 -14 40 -23 71 -23c33 0 42 9 42 24s-15 20 -44 20h-12l14 80c-118 10 -198 95 -198 220c0 185 132 320 298 320c109 0 176 -56 195 -121l-84 -52c-24 47 -63 68 -119 68c-98 0 -176 -83 -176 -201c0 -85 55 -130 130 -130c63 0 106 30 142 74l73 -60
c-49 -76 -126 -110 -201 -117l-4 -25c56 -4 84 -30 84 -71c0 -58 -50 -104 -146 -104c-36 0 -78 9 -109 39z" />
    <glyph glyph-name="egrave" unicode="&#xe8;" horiz-adv-x="533" 
d="M435 159l64 -63c-53 -76 -146 -105 -231 -105c-131 0 -220 88 -220 221c0 185 147 320 307 320c116 0 184 -48 184 -143c0 -113 -115 -182 -276 -182c-32 0 -66 2 -101 8c5 -78 55 -119 127 -119c63 0 111 22 146 63zM347 427c-71 0 -140 -48 -170 -121
c29 -4 56 -5 80 -5c115 0 168 38 168 76c0 29 -23 50 -78 50zM414 598l-134 154l80 67l116 -167z" />
    <glyph glyph-name="eacute" unicode="&#xe9;" horiz-adv-x="533" 
d="M435 159l64 -63c-53 -76 -146 -105 -231 -105c-131 0 -220 88 -220 221c0 185 147 320 307 320c116 0 184 -48 184 -143c0 -113 -115 -182 -276 -182c-32 0 -66 2 -101 8c5 -78 55 -119 127 -119c63 0 111 22 146 63zM347 427c-71 0 -140 -48 -170 -121
c29 -4 56 -5 80 -5c115 0 168 38 168 76c0 29 -23 50 -78 50zM550 755l-149 -157l-64 54l140 167z" />
    <glyph glyph-name="ecircumflex" unicode="&#xea;" horiz-adv-x="533" 
d="M435 159l64 -63c-53 -76 -146 -105 -231 -105c-131 0 -220 88 -220 221c0 185 147 320 307 320c116 0 184 -48 184 -143c0 -113 -115 -182 -276 -182c-32 0 -66 2 -101 8c5 -78 55 -119 127 -119c63 0 111 22 146 63zM347 427c-71 0 -140 -48 -170 -121
c29 -4 56 -5 80 -5c115 0 168 38 168 76c0 29 -23 50 -78 50zM398 790l133 -135l-63 -66l-84 88l-111 -85l-51 68l172 130h4z" />
    <glyph glyph-name="edieresis" unicode="&#xeb;" horiz-adv-x="533" 
d="M435 159l64 -63c-53 -76 -146 -105 -231 -105c-131 0 -220 88 -220 221c0 185 147 320 307 320c116 0 184 -48 184 -143c0 -113 -115 -182 -276 -182c-32 0 -66 2 -101 8c5 -78 55 -119 127 -119c63 0 111 22 146 63zM347 427c-71 0 -140 -48 -170 -121
c29 -4 56 -5 80 -5c115 0 168 38 168 76c0 29 -23 50 -78 50zM422 669c0 33 26 61 62 61c34 0 63 -28 63 -61c0 -34 -29 -59 -63 -59c-36 0 -62 25 -62 59zM213 669c0 33 27 61 62 61s63 -28 63 -61c0 -34 -28 -59 -63 -59s-62 25 -62 59z" />
    <glyph glyph-name="igrave" unicode="&#xec;" horiz-adv-x="240" 
d="M66 0l96 520h109l-96 -520h-109zM231 598l-134 154l80 67l116 -167z" />
    <glyph glyph-name="iacute" unicode="&#xed;" horiz-adv-x="240" 
d="M66 0l96 520h109l-96 -520h-109zM379 755l-149 -157l-64 54l140 167z" />
    <glyph glyph-name="icircumflex" unicode="&#xee;" horiz-adv-x="240" 
d="M66 0l96 520h109l-96 -520h-109zM260 790l133 -135l-63 -66l-84 88l-111 -85l-51 68l172 130h4z" />
    <glyph glyph-name="idieresis" unicode="&#xef;" horiz-adv-x="240" 
d="M66 0l96 520h109l-96 -520h-109zM258 669c0 33 26 61 62 61c34 0 63 -28 63 -61c0 -34 -29 -59 -63 -59c-36 0 -62 25 -62 59zM89 669c0 33 27 61 62 61s63 -28 63 -61c0 -34 -28 -59 -63 -59s-62 25 -62 59z" />
    <glyph glyph-name="eth" unicode="&#xf0;" horiz-adv-x="584" 
d="M383 783l69 -32l-31 -50c122 -61 166 -167 166 -288c0 -289 -157 -422 -321 -422c-151 0 -232 103 -232 219c0 207 161 312 313 312c51 0 100 -16 128 -46c-13 64 -51 110 -106 138l-38 -63l-72 32l36 58c-23 5 -48 8 -74 10l42 95c31 -4 60 -10 86 -18zM148 226
c0 -78 51 -129 129 -129c116 0 195 114 195 234c0 9 0 22 -1 31c-20 37 -70 60 -126 60c-99 0 -197 -74 -197 -196z" />
    <glyph glyph-name="ntilde" unicode="&#xf1;" horiz-adv-x="563" 
d="M32 0l95 520h108l-8 -50c38 35 100 61 161 61c107 0 169 -53 169 -158c0 -25 -4 -58 -9 -88l-57 -285h-108l56 278c3 18 6 37 6 61c1 60 -30 87 -101 87c-59 0 -109 -35 -142 -87l-63 -339h-107zM258 612l-41 56c30 37 82 68 120 68c57 0 78 -44 118 -44
c27 0 46 11 69 30l35 -60c-28 -31 -70 -64 -119 -64c-57 0 -77 43 -117 43c-21 0 -44 -13 -65 -29z" />
    <glyph glyph-name="ograve" unicode="&#xf2;" horiz-adv-x="589" 
d="M48 206c0 193 146 326 313 326c142 0 228 -94 228 -216c0 -193 -135 -325 -307 -325c-148 0 -234 93 -234 215zM162 229c0 -81 50 -132 134 -132c87 0 179 78 179 204c0 77 -50 125 -127 125c-86 0 -186 -78 -186 -197zM419 598l-134 154l80 67l116 -167z" />
    <glyph glyph-name="oacute" unicode="&#xf3;" horiz-adv-x="589" 
d="M48 206c0 193 146 326 313 326c142 0 228 -94 228 -216c0 -193 -135 -325 -307 -325c-148 0 -234 93 -234 215zM162 229c0 -81 50 -132 134 -132c87 0 179 78 179 204c0 77 -50 125 -127 125c-86 0 -186 -78 -186 -197zM569 755l-149 -157l-64 54l140 167z" />
    <glyph glyph-name="ocircumflex" unicode="&#xf4;" horiz-adv-x="589" 
d="M48 206c0 193 146 326 313 326c142 0 228 -94 228 -216c0 -193 -135 -325 -307 -325c-148 0 -234 93 -234 215zM162 229c0 -81 50 -132 134 -132c87 0 179 78 179 204c0 77 -50 125 -127 125c-86 0 -186 -78 -186 -197zM419 790l133 -135l-63 -66l-84 88l-111 -85l-51 68
l172 130h4z" />
    <glyph glyph-name="otilde" unicode="&#xf5;" horiz-adv-x="589" 
d="M48 206c0 193 146 326 313 326c142 0 228 -94 228 -216c0 -193 -135 -325 -307 -325c-148 0 -234 93 -234 215zM162 229c0 -81 50 -132 134 -132c87 0 179 78 179 204c0 77 -50 125 -127 125c-86 0 -186 -78 -186 -197zM267 612l-41 56c30 37 82 68 120 68
c57 0 78 -44 118 -44c27 0 46 11 69 30l35 -60c-28 -31 -70 -64 -119 -64c-57 0 -77 43 -117 43c-21 0 -44 -13 -65 -29z" />
    <glyph glyph-name="odieresis" unicode="&#xf6;" horiz-adv-x="589" 
d="M48 206c0 193 146 326 313 326c142 0 228 -94 228 -216c0 -193 -135 -325 -307 -325c-148 0 -234 93 -234 215zM162 229c0 -81 50 -132 134 -132c87 0 179 78 179 204c0 77 -50 125 -127 125c-86 0 -186 -78 -186 -197zM438 669c0 33 26 61 62 61c34 0 63 -28 63 -61
c0 -34 -29 -59 -63 -59c-36 0 -62 25 -62 59zM229 669c0 33 27 61 62 61s63 -28 63 -61c0 -34 -28 -59 -63 -59s-62 25 -62 59z" />
    <glyph glyph-name="divide" unicode="&#xf7;" horiz-adv-x="566" 
d="M277 552c0 28 26 59 67 59c38 0 64 -31 64 -59c0 -31 -26 -60 -64 -60c-41 0 -67 29 -67 60zM277 167c0 29 26 59 67 59c38 0 64 -30 64 -59c0 -32 -26 -61 -64 -61c-41 0 -67 29 -67 61zM104 309v101h478v-101h-478z" />
    <glyph glyph-name="oslash" unicode="&#xf8;" horiz-adv-x="584" 
d="M70 211c0 181 141 321 312 321c53 0 91 -13 124 -31l63 65l66 -66l-61 -63c24 -34 36 -80 36 -129c0 -184 -136 -317 -307 -317c-58 0 -95 12 -127 30l-64 -67l-66 70l59 61c-23 35 -35 81 -35 126zM184 230c0 -18 2 -40 7 -54l233 240c-16 6 -35 10 -54 10
c-99 0 -186 -79 -186 -196zM496 291c0 20 -1 42 -7 57l-232 -242c16 -6 40 -9 60 -9c94 0 179 84 179 194z" />
    <glyph glyph-name="ugrave" unicode="&#xf9;" horiz-adv-x="550" 
d="M568 520l-98 -520h-108l10 55c-37 -36 -89 -64 -155 -64c-106 0 -168 55 -168 147c0 25 4 55 10 86l62 296h108l-60 -285c-3 -17 -6 -38 -6 -57c1 -51 20 -82 85 -82c61 0 110 33 148 91l64 333h108zM419 598l-134 154l80 67l116 -167z" />
    <glyph glyph-name="uacute" unicode="&#xfa;" horiz-adv-x="550" 
d="M568 520l-98 -520h-108l10 55c-37 -36 -89 -64 -155 -64c-106 0 -168 55 -168 147c0 25 4 55 10 86l62 296h108l-60 -285c-3 -17 -6 -38 -6 -57c1 -51 20 -82 85 -82c61 0 110 33 148 91l64 333h108zM531 755l-149 -157l-64 54l140 167z" />
    <glyph glyph-name="ucircumflex" unicode="&#xfb;" horiz-adv-x="550" 
d="M568 520l-98 -520h-108l10 55c-37 -36 -89 -64 -155 -64c-106 0 -168 55 -168 147c0 25 4 55 10 86l62 296h108l-60 -285c-3 -17 -6 -38 -6 -57c1 -51 20 -82 85 -82c61 0 110 33 148 91l64 333h108zM391 790l133 -135l-63 -66l-84 88l-111 -85l-51 68l172 130h4z" />
    <glyph glyph-name="udieresis" unicode="&#xfc;" horiz-adv-x="550" 
d="M568 520l-98 -520h-108l10 55c-37 -36 -89 -64 -155 -64c-106 0 -168 55 -168 147c0 25 4 55 10 86l62 296h108l-60 -285c-3 -17 -6 -38 -6 -57c1 -51 20 -82 85 -82c61 0 110 33 148 91l64 333h108zM413 669c0 33 26 61 62 61c34 0 63 -28 63 -61c0 -34 -29 -59 -63 -59
c-36 0 -62 25 -62 59zM204 669c0 33 27 61 62 61s63 -28 63 -61c0 -34 -28 -59 -63 -59s-62 25 -62 59z" />
    <glyph glyph-name="yacute" unicode="&#xfd;" horiz-adv-x="504" 
d="M0 -192l57 95c6 -4 13 -6 21 -6c26 0 55 28 92 92l26 47l-151 484h120l105 -351l196 351h122l-288 -505c-98 -172 -156 -224 -233 -224c-29 0 -51 6 -67 17zM526 755l-149 -157l-64 54l140 167z" />
    <glyph glyph-name="thorn" unicode="&#xfe;" horiz-adv-x="560" 
d="M-10 -200l171 930h106l-47 -257c38 41 97 59 146 59c139 0 198 -92 198 -194c0 -222 -148 -347 -296 -347c-51 0 -105 15 -129 43l-44 -234h-105zM336 426c-63 0 -114 -40 -141 -85l-33 -180c16 -42 56 -64 105 -64c88 0 183 74 183 207c0 73 -31 122 -114 122z" />
    <glyph glyph-name="ydieresis" unicode="&#xff;" horiz-adv-x="504" 
d="M0 -192l57 95c6 -4 13 -6 21 -6c26 0 55 28 92 92l26 47l-151 484h120l105 -351l196 351h122l-288 -505c-98 -172 -156 -224 -233 -224c-29 0 -51 6 -67 17zM371 669c0 33 26 61 62 61c34 0 63 -28 63 -61c0 -34 -29 -59 -63 -59c-36 0 -62 25 -62 59zM162 669
c0 33 27 61 62 61s63 -28 63 -61c0 -34 -28 -59 -63 -59s-62 25 -62 59z" />
    <glyph glyph-name="Amacron" unicode="&#x100;" horiz-adv-x="669" 
d="M-1 0l421 700h87l163 -700h-118l-36 155h-297l-91 -155h-129zM432 519l-152 -260h212zM332 780l17 95h292l-17 -95h-292z" />
    <glyph glyph-name="amacron" unicode="&#x101;" horiz-adv-x="571" 
d="M389 0l13 63c-22 -30 -81 -69 -159 -69c-122 0 -195 86 -195 207c0 208 156 331 302 331c70 0 110 -18 129 -35l4 23h104l-97 -520h-101zM279 99c60 0 112 41 138 83l41 203c-16 23 -51 42 -106 42c-99 0 -190 -83 -190 -209c0 -81 48 -119 117 -119zM258 625l18 95h266
l-17 -95h-267z" />
    <glyph glyph-name="Abreve" unicode="&#x102;" horiz-adv-x="669" 
d="M-1 0l421 700h87l163 -700h-118l-36 155h-297l-91 -155h-129zM432 519l-152 -260h212zM296 869l56 55c18 -26 58 -61 130 -61c62 0 110 30 141 61l47 -60c-36 -48 -100 -103 -194 -103c-102 0 -159 60 -180 108z" />
    <glyph glyph-name="abreve" unicode="&#x103;" horiz-adv-x="571" 
d="M389 0l13 63c-22 -30 -81 -69 -159 -69c-122 0 -195 86 -195 207c0 208 156 331 302 331c70 0 110 -18 129 -35l4 23h104l-97 -520h-101zM279 99c60 0 112 41 138 83l41 203c-16 23 -51 42 -106 42c-99 0 -190 -83 -190 -209c0 -81 48 -119 117 -119zM243 717l51 55
c21 -32 56 -52 103 -52c48 0 92 26 118 53l40 -57c-36 -53 -87 -93 -163 -93c-75 0 -127 43 -149 94z" />
    <glyph glyph-name="Aogonek" unicode="&#x104;" horiz-adv-x="669" 
d="M617 -97l18 -77c-21 -14 -62 -26 -99 -26c-60 -1 -116 20 -116 84c0 66 58 106 130 124l-34 147h-297l-91 -155h-129l421 700h87l163 -700h-22c-55 -2 -113 -39 -113 -77c0 -22 16 -30 36 -30c17 0 28 2 46 10zM432 519l-152 -260h212z" />
    <glyph glyph-name="aogonek" unicode="&#x105;" horiz-adv-x="571" 
d="M453 -96l19 -73c-19 -16 -58 -31 -101 -31c-57 0 -108 25 -108 81c0 65 59 107 127 127l12 55c-22 -30 -81 -69 -159 -69c-122 0 -195 86 -195 207c0 208 156 331 302 331c70 0 110 -18 129 -35l4 23h104l-97 -520c-51 0 -108 -36 -108 -75c0 -19 12 -30 30 -30
c14 0 24 1 41 9zM279 99c60 0 112 41 138 83l41 203c-16 23 -51 42 -106 42c-99 0 -190 -83 -190 -209c0 -81 48 -119 117 -119z" />
    <glyph glyph-name="Cacute" unicode="&#x106;" horiz-adv-x="657" 
d="M620 200l67 -84c-52 -63 -151 -124 -288 -124c-201 0 -312 121 -312 305c0 240 177 411 408 411c131 0 213 -51 246 -121l-82 -69c-36 41 -82 74 -173 74c-187 0 -276 -149 -276 -288c0 -118 76 -196 194 -196c108 0 172 47 216 92zM699 853l-224 -108l-36 72l219 132z
" />
    <glyph glyph-name="cacute" unicode="&#x107;" horiz-adv-x="515" 
d="M434 170l73 -60c-56 -88 -151 -119 -236 -119c-131 0 -223 88 -223 221c0 185 132 320 298 320c109 0 176 -56 195 -121l-84 -52c-24 47 -63 68 -119 68c-98 0 -176 -83 -176 -201c0 -85 55 -130 130 -130c63 0 106 30 142 74zM538 755l-149 -157l-64 54l140 167z" />
    <glyph glyph-name="Ccircumflex" unicode="&#x108;" horiz-adv-x="657" 
d="M620 200l67 -84c-52 -63 -151 -124 -288 -124c-201 0 -312 121 -312 305c0 240 177 411 408 411c131 0 213 -51 246 -121l-82 -69c-36 41 -82 74 -173 74c-187 0 -276 -149 -276 -288c0 -118 76 -196 194 -196c108 0 172 47 216 92zM526 928l158 -110l-47 -69l-122 79
l-143 -79l-37 72l187 107h4z" />
    <glyph glyph-name="ccircumflex" unicode="&#x109;" horiz-adv-x="515" 
d="M434 170l73 -60c-56 -88 -151 -119 -236 -119c-131 0 -223 88 -223 221c0 185 132 320 298 320c109 0 176 -56 195 -121l-84 -52c-24 47 -63 68 -119 68c-98 0 -176 -83 -176 -201c0 -85 55 -130 130 -130c63 0 106 30 142 74zM399 790l133 -135l-63 -66l-84 88l-111 -85
l-51 68l172 130h4z" />
    <glyph glyph-name="Cdotaccent" unicode="&#x10a;" horiz-adv-x="657" 
d="M620 200l67 -84c-52 -63 -151 -124 -288 -124c-201 0 -312 121 -312 305c0 240 177 411 408 411c131 0 213 -51 246 -121l-82 -69c-36 41 -82 74 -173 74c-187 0 -276 -149 -276 -288c0 -118 76 -196 194 -196c108 0 172 47 216 92zM453 826c0 34 27 61 61 61
s61 -27 61 -61s-27 -61 -61 -61s-61 27 -61 61z" />
    <glyph glyph-name="cdotaccent" unicode="&#x10b;" horiz-adv-x="515" 
d="M434 170l73 -60c-56 -88 -151 -119 -236 -119c-131 0 -223 88 -223 221c0 185 132 320 298 320c109 0 176 -56 195 -121l-84 -52c-24 47 -63 68 -119 68c-98 0 -176 -83 -176 -201c0 -85 55 -130 130 -130c63 0 106 30 142 74zM305 669c0 33 26 61 61 61s64 -28 64 -61
c0 -34 -29 -59 -64 -59s-61 25 -61 59z" />
    <glyph glyph-name="Ccaron" unicode="&#x10c;" horiz-adv-x="657" 
d="M620 200l67 -84c-52 -63 -151 -124 -288 -124c-201 0 -312 121 -312 305c0 240 177 411 408 411c131 0 213 -51 246 -121l-82 -69c-36 41 -82 74 -173 74c-187 0 -276 -149 -276 -288c0 -118 76 -196 194 -196c108 0 172 47 216 92zM494 750l-158 110l47 69l122 -79
l143 79l37 -72l-187 -107h-4z" />
    <glyph glyph-name="ccaron" unicode="&#x10d;" horiz-adv-x="515" 
d="M434 170l73 -60c-56 -88 -151 -119 -236 -119c-131 0 -223 88 -223 221c0 185 132 320 298 320c109 0 176 -56 195 -121l-84 -52c-24 47 -63 68 -119 68c-98 0 -176 -83 -176 -201c0 -85 55 -130 130 -130c63 0 106 30 142 74zM377 608l-127 135l63 66l78 -88l111 85
l51 -68l-172 -130h-4z" />
    <glyph glyph-name="Dcaron" unicode="&#x10e;" horiz-adv-x="680" 
d="M66 0l130 700h208c243 0 319 -134 319 -282c0 -266 -158 -418 -461 -418h-196zM381 586h-91l-88 -472h90c216 0 309 116 309 288c0 119 -60 184 -220 184zM424 750l-158 110l47 69l122 -79l143 79l37 -72l-187 -107h-4z" />
    <glyph glyph-name="dcaron" unicode="&#x10f;" horiz-adv-x="580" 
d="M399 0l13 63c-22 -30 -86 -69 -152 -69c-133 0 -212 86 -212 218c0 197 153 320 302 320c70 0 116 -18 135 -35l43 233h107l-135 -730h-101zM289 99c60 0 112 41 138 83l37 203c-16 23 -57 42 -112 42c-107 0 -190 -83 -190 -209c0 -81 58 -119 127 -119zM722 731h113
c3 -8 4 -23 4 -35c0 -95 -76 -165 -138 -200l-41 47c45 35 71 85 71 132c0 22 -4 45 -9 56z" />
    <glyph glyph-name="Dcroat" unicode="&#x110;" horiz-adv-x="739" 
d="M69 298l19 101h111l56 301h207c234 0 319 -128 319 -281c0 -268 -154 -419 -460 -419h-196l55 298h-111zM439 586h-90l-35 -187h166l-19 -101h-166l-34 -184h90c219 0 308 121 308 288c0 116 -60 184 -220 184z" />
    <glyph glyph-name="dcroat" unicode="&#x111;" horiz-adv-x="551" 
d="M605 566l-105 -566h-101l13 63c-22 -30 -86 -69 -152 -69c-133 0 -212 86 -212 218c0 197 153 320 302 320c70 0 116 -18 135 -35l13 69h-106l18 101h106l12 63h107l-11 -63h49l-18 -101h-50zM289 99c60 0 112 41 138 83l37 203c-16 23 -57 42 -112 42
c-107 0 -190 -83 -190 -209c0 -81 58 -119 127 -119z" />
    <glyph glyph-name="Emacron" unicode="&#x112;" horiz-adv-x="613" 
d="M66 0l130 700h494l-21 -114h-379l-33 -176h355l-21 -110h-354l-35 -186h389l-21 -114h-504zM308 780l17 95h292l-17 -95h-292z" />
    <glyph glyph-name="emacron" unicode="&#x113;" horiz-adv-x="533" 
d="M435 159l64 -63c-53 -76 -146 -105 -231 -105c-131 0 -220 88 -220 221c0 185 147 320 307 320c116 0 184 -48 184 -143c0 -113 -115 -182 -276 -182c-32 0 -66 2 -101 8c5 -78 55 -119 127 -119c63 0 111 22 146 63zM347 427c-71 0 -140 -48 -170 -121
c29 -4 56 -5 80 -5c115 0 168 38 168 76c0 29 -23 50 -78 50zM259 625l18 95h266l-17 -95h-267z" />
    <glyph glyph-name="Edotaccent" unicode="&#x116;" horiz-adv-x="613" 
d="M66 0l130 700h494l-21 -114h-379l-33 -176h355l-21 -110h-354l-35 -186h389l-21 -114h-504zM406 826c0 34 27 61 61 61s61 -27 61 -61s-27 -61 -61 -61s-61 27 -61 61z" />
    <glyph glyph-name="edotaccent" unicode="&#x117;" horiz-adv-x="533" 
d="M435 159l64 -63c-53 -76 -146 -105 -231 -105c-131 0 -220 88 -220 221c0 185 147 320 307 320c116 0 184 -48 184 -143c0 -113 -115 -182 -276 -182c-32 0 -66 2 -101 8c5 -78 55 -119 127 -119c63 0 111 22 146 63zM347 427c-71 0 -140 -48 -170 -121
c29 -4 56 -5 80 -5c115 0 168 38 168 76c0 29 -23 50 -78 50zM309 669c0 33 26 61 61 61s64 -28 64 -61c0 -34 -29 -59 -64 -59s-61 25 -61 59z" />
    <glyph glyph-name="Eogonek" unicode="&#x118;" horiz-adv-x="613" 
d="M66 0l130 700h494l-21 -114h-379l-33 -176h355l-21 -110h-354l-35 -186h389l-21 -114h-5c-56 0 -117 -38 -117 -77c0 -22 17 -30 36 -30c17 0 28 2 45 10l19 -78c-20 -13 -63 -25 -104 -25c-60 -1 -112 23 -112 84c0 53 48 92 111 116h-377z" />
    <glyph glyph-name="eogonek" unicode="&#x119;" horiz-adv-x="533" 
d="M281 -8c0 0 -8 -1 -13 -1c-131 0 -220 88 -220 221c0 185 147 320 307 320c116 0 184 -48 184 -143c0 -113 -115 -182 -276 -182c-32 0 -66 2 -101 8c5 -78 55 -119 127 -119c63 0 111 22 146 63l64 -63c-30 -43 -74 -69 -123 -91c-10 -7 -68 -45 -68 -80
c0 -19 12 -30 30 -30c14 0 24 1 41 9l19 -73c-19 -16 -58 -31 -101 -31c-57 0 -108 25 -108 81c0 51 39 83 92 111zM347 427c-71 0 -140 -48 -170 -121c29 -4 56 -5 80 -5c115 0 168 38 168 76c0 29 -23 50 -78 50z" />
    <glyph glyph-name="Ecaron" unicode="&#x11a;" horiz-adv-x="613" 
d="M66 0l130 700h494l-21 -114h-379l-33 -176h355l-21 -110h-354l-35 -186h389l-21 -114h-504zM456 750l-158 110l47 69l122 -79l143 79l37 -72l-187 -107h-4z" />
    <glyph glyph-name="ecaron" unicode="&#x11b;" horiz-adv-x="533" 
d="M435 159l64 -63c-53 -76 -146 -105 -231 -105c-131 0 -220 88 -220 221c0 185 147 320 307 320c116 0 184 -48 184 -143c0 -113 -115 -182 -276 -182c-32 0 -66 2 -101 8c5 -78 55 -119 127 -119c63 0 111 22 146 63zM347 427c-71 0 -140 -48 -170 -121
c29 -4 56 -5 80 -5c115 0 168 38 168 76c0 29 -23 50 -78 50zM376 608l-127 135l63 66l78 -88l111 85l51 -68l-172 -130h-4z" />
    <glyph glyph-name="Gcircumflex" unicode="&#x11c;" horiz-adv-x="679" 
d="M409 264l21 110h287l-49 -278c-61 -55 -142 -104 -268 -104c-195 0 -312 116 -312 301c0 254 180 415 416 415c113 0 200 -43 237 -114l-83 -71c-38 45 -92 69 -170 69c-160 0 -278 -119 -278 -289c0 -123 79 -195 198 -195c51 0 111 13 159 48l19 108h-177zM526 928
l158 -110l-47 -69l-122 79l-143 -79l-37 72l187 107h4z" />
    <glyph glyph-name="gcircumflex" unicode="&#x11d;" horiz-adv-x="577" 
d="M593 520l-88 -478c-32 -174 -133 -251 -274 -251c-107 0 -182 53 -198 135l97 41c13 -38 53 -71 112 -71c89 0 136 44 153 133l5 24c-26 -31 -71 -62 -144 -62c-129 0 -209 95 -209 213c0 209 153 325 309 325c68 0 99 -17 123 -41l6 32h108zM291 96c61 0 110 42 131 83
l36 196c-15 27 -48 49 -105 49c-108 0 -192 -88 -192 -202c0 -77 46 -126 130 -126zM421 790l133 -135l-63 -66l-84 88l-111 -85l-51 68l172 130h4z" />
    <glyph glyph-name="Gbreve" unicode="&#x11e;" horiz-adv-x="679" 
d="M409 264l21 110h287l-49 -278c-61 -55 -142 -104 -268 -104c-195 0 -312 116 -312 301c0 254 180 415 416 415c113 0 200 -43 237 -114l-83 -71c-38 45 -92 69 -170 69c-160 0 -278 -119 -278 -289c0 -123 79 -195 198 -195c51 0 111 13 159 48l19 108h-177zM350 869
l56 55c18 -26 58 -61 130 -61c62 0 110 30 141 61l47 -60c-36 -48 -100 -103 -194 -103c-102 0 -159 60 -180 108z" />
    <glyph glyph-name="gbreve" unicode="&#x11f;" horiz-adv-x="577" 
d="M593 520l-88 -478c-32 -174 -133 -251 -274 -251c-107 0 -182 53 -198 135l97 41c13 -38 53 -71 112 -71c89 0 136 44 153 133l5 24c-26 -31 -71 -62 -144 -62c-129 0 -209 95 -209 213c0 209 153 325 309 325c68 0 99 -17 123 -41l6 32h108zM291 96c61 0 110 42 131 83
l36 196c-15 27 -48 49 -105 49c-108 0 -192 -88 -192 -202c0 -77 46 -126 130 -126zM249 717l51 55c21 -32 56 -52 103 -52c48 0 92 26 118 53l40 -57c-36 -53 -87 -93 -163 -93c-75 0 -127 43 -149 94z" />
    <glyph glyph-name="Gdotaccent" unicode="&#x120;" horiz-adv-x="679" 
d="M409 264l21 110h287l-49 -278c-61 -55 -142 -104 -268 -104c-195 0 -312 116 -312 301c0 254 180 415 416 415c113 0 200 -43 237 -114l-83 -71c-38 45 -92 69 -170 69c-160 0 -278 -119 -278 -289c0 -123 79 -195 198 -195c51 0 111 13 159 48l19 108h-177zM456 826
c0 34 27 61 61 61s61 -27 61 -61s-27 -61 -61 -61s-61 27 -61 61z" />
    <glyph glyph-name="gdotaccent" unicode="&#x121;" horiz-adv-x="577" 
d="M593 520l-88 -478c-32 -174 -133 -251 -274 -251c-107 0 -182 53 -198 135l97 41c13 -38 53 -71 112 -71c89 0 136 44 153 133l5 24c-26 -31 -71 -62 -144 -62c-129 0 -209 95 -209 213c0 209 153 325 309 325c68 0 99 -17 123 -41l6 32h108zM291 96c61 0 110 42 131 83
l36 196c-15 27 -48 49 -105 49c-108 0 -192 -88 -192 -202c0 -77 46 -126 130 -126zM336 669c0 33 26 61 61 61s64 -28 64 -61c0 -34 -29 -59 -64 -59s-61 25 -61 59z" />
    <glyph glyph-name="Gcommaaccent" unicode="&#x122;" horiz-adv-x="679" 
d="M409 264l21 110h287l-49 -278c-61 -55 -142 -104 -268 -104c-195 0 -312 116 -312 301c0 254 180 415 416 415c113 0 200 -43 237 -114l-83 -71c-38 45 -92 69 -170 69c-160 0 -278 -119 -278 -289c0 -123 79 -195 198 -195c51 0 111 13 159 48l19 108h-177zM307 -98
l98 60c16 -16 29 -42 29 -71c0 -80 -70 -142 -118 -169l-49 48c29 25 55 50 55 85c0 16 -6 32 -15 47z" />
    <glyph glyph-name="gcommaaccent" unicode="&#x123;" horiz-adv-x="577" 
d="M463 633l-101 -61c-17 17 -29 42 -29 71c0 80 68 142 117 169l44 -45c-27 -26 -50 -53 -50 -89c0 -15 9 -31 19 -45zM593 520l-88 -478c-32 -174 -133 -251 -274 -251c-107 0 -182 53 -198 135l97 41c13 -38 53 -71 112 -71c89 0 136 44 153 133l5 24
c-26 -31 -71 -62 -144 -62c-129 0 -209 95 -209 213c0 209 153 325 309 325c68 0 99 -17 123 -41l6 32h108zM291 96c61 0 110 42 131 83l36 196c-15 27 -48 49 -105 49c-108 0 -192 -88 -192 -202c0 -77 46 -126 130 -126z" />
    <glyph glyph-name="Hcircumflex" unicode="&#x124;" horiz-adv-x="712" 
d="M529 0l55 297h-347l-56 -297h-115l130 700h115l-54 -289h348l53 289h116l-129 -700h-116zM522 928l158 -110l-47 -69l-122 79l-143 -79l-37 72l187 107h4z" />
    <glyph glyph-name="hcircumflex" unicode="&#x125;" horiz-adv-x="554" 
d="M23 0l134 730h108l-47 -260c38 35 100 61 161 61c107 0 169 -53 169 -158c0 -25 -3 -58 -9 -88l-58 -285h-108l57 278c3 18 6 37 6 61c1 60 -30 86 -89 86c-57 0 -121 -34 -154 -86l-63 -339h-107zM238 918l158 -110l-47 -69l-122 79l-143 -79l-37 72l187 107h4z" />
    <glyph glyph-name="Hbar" unicode="&#x126;" horiz-adv-x="712" 
d="M94 509l18 96h67l17 95h115l-17 -95h348l17 95h115l-17 -95h67l-18 -96h-67l-94 -509h-115l55 297h-348l-56 -297h-115l95 509h-67zM257 411h349l18 98h-349z" />
    <glyph glyph-name="hbar" unicode="&#x127;" horiz-adv-x="583" 
d="M104 566l19 101h52l11 63h108l-11 -63h105l-19 -101h-105l-18 -96c46 40 110 61 162 61c108 0 169 -51 169 -162c0 -23 -3 -48 -8 -76l-59 -293h-108l58 286c3 19 5 35 5 50c0 62 -30 89 -85 89c-67 0 -124 -34 -158 -86l-63 -339h-109l106 566h-52z" />
    <glyph glyph-name="Imacron" unicode="&#x12a;" horiz-adv-x="248" 
d="M66 0l129 700h116l-130 -700h-115zM122 780l17 95h292l-17 -95h-292z" />
    <glyph glyph-name="imacron" unicode="&#x12b;" horiz-adv-x="240" 
d="M66 0l96 520h109l-96 -520h-109zM102 625l18 95h266l-17 -95h-267z" />
    <glyph glyph-name="Iogonek" unicode="&#x12e;" horiz-adv-x="261" 
d="M149 -97l17 -77c-20 -14 -61 -26 -102 -26c-60 -1 -112 23 -112 82c0 68 54 102 121 124l129 694h115l-129 -700h-7c-56 0 -115 -39 -115 -77c0 -22 18 -30 38 -30c17 0 27 2 45 10z" />
    <glyph glyph-name="iogonek" unicode="&#x12f;" horiz-adv-x="240" 
d="M135 -96l19 -73c-19 -16 -58 -31 -102 -31c-57 0 -107 25 -107 81c0 63 56 105 122 125l95 514h109l-96 -520h-4c-50 0 -107 -36 -107 -77c0 -17 11 -28 31 -28c12 0 23 1 40 9zM179 669c0 33 26 61 61 61s64 -28 64 -61c0 -34 -29 -59 -64 -59s-61 25 -61 59z" />
    <glyph glyph-name="Idotaccent" unicode="&#x130;" horiz-adv-x="248" 
d="M66 0l129 700h116l-130 -700h-115zM217 826c0 34 27 61 61 61s61 -27 61 -61s-27 -61 -61 -61s-61 27 -61 61z" />
    <glyph glyph-name="dotlessi" unicode="&#x131;" horiz-adv-x="240" 
d="M66 0l96 520h109l-96 -520h-109z" />
    <glyph glyph-name="Jcircumflex" unicode="&#x134;" horiz-adv-x="462" 
d="M527 700l-89 -483c-23 -123 -78 -225 -236 -225c-99 0 -164 56 -184 132l90 63c17 -44 49 -82 101 -82c63 0 100 32 119 135l83 460h116zM499 928l158 -110l-47 -69l-122 79l-143 -79l-37 72l187 107h4z" />
    <glyph glyph-name="jcircumflex" unicode="&#x135;" horiz-adv-x="231" 
d="M244 520l-96 -521c-24 -130 -90 -208 -201 -208c-69 0 -121 30 -137 102l98 41c8 -19 19 -38 50 -38c42 0 70 35 83 106l95 518h108zM222 790l133 -135l-63 -66l-84 88l-111 -85l-51 68l172 130h4z" />
    <glyph glyph-name="Kcommaaccent" unicode="&#x136;" horiz-adv-x="646" 
d="M66 0l130 700h115l-57 -307l339 307h166l-356 -319l249 -381h-142l-199 308l-87 -74l-43 -234h-115zM224 -98l98 60c16 -16 29 -42 29 -71c0 -80 -70 -142 -118 -169l-49 48c29 25 55 50 55 85c0 16 -6 32 -15 47z" />
    <glyph glyph-name="kcommaaccent" unicode="&#x137;" horiz-adv-x="506" 
d="M32 0l134 730h108l-77 -415l238 205h149l-272 -236l178 -284h-133l-137 225l-46 -35l-35 -190h-107zM160 -96l99 58c15 -17 29 -42 29 -72c0 -79 -70 -141 -118 -168l-47 45c29 25 53 53 53 88c0 16 -7 35 -16 49z" />
    <glyph glyph-name="Lacute" unicode="&#x139;" horiz-adv-x="568" 
d="M66 0l129 700h116l-109 -586h377l-20 -114h-493zM620 853l-224 -108l-36 72l219 132z" />
    <glyph glyph-name="lacute" unicode="&#x13a;" horiz-adv-x="223" 
d="M32 0l135 730h108l-135 -730h-108zM465 866l-224 -108l-36 72l219 132z" />
    <glyph glyph-name="Lcommaaccent" unicode="&#x13b;" horiz-adv-x="568" 
d="M66 0l129 700h116l-109 -586h377l-20 -114h-493zM231 -98l98 60c16 -16 29 -42 29 -71c0 -80 -70 -142 -118 -169l-49 48c29 25 55 50 55 85c0 16 -6 32 -15 47z" />
    <glyph glyph-name="lcommaaccent" unicode="&#x13c;" horiz-adv-x="223" 
d="M32 0l135 730h108l-135 -730h-108zM12 -96l99 58c15 -17 29 -42 29 -72c0 -79 -70 -141 -118 -168l-47 45c29 25 53 53 53 88c0 16 -7 35 -16 49z" />
    <glyph glyph-name="Lcaron" unicode="&#x13d;" horiz-adv-x="568" 
d="M66 0l129 700h116l-109 -586h377l-20 -114h-493zM487 701h113c3 -8 4 -23 4 -35c0 -95 -76 -165 -138 -200l-41 47c45 35 71 85 71 132c0 22 -4 45 -9 56z" />
    <glyph glyph-name="lcaron" unicode="&#x13e;" horiz-adv-x="223" 
d="M32 0l135 730h108l-135 -730h-108zM348 731h113c3 -8 4 -23 4 -35c0 -95 -76 -165 -138 -200l-41 47c45 35 71 85 71 132c0 22 -4 45 -9 56z" />
    <glyph glyph-name="Ldot" unicode="&#x13f;" horiz-adv-x="568" 
d="M66 0l129 700h116l-109 -586h377l-20 -114h-493zM409 389c0 29 28 61 70 61c38 0 67 -32 67 -61c0 -34 -29 -64 -67 -64c-42 0 -70 30 -70 64z" />
    <glyph glyph-name="ldot" unicode="&#x140;" horiz-adv-x="304" 
d="M32 0l135 730h108l-135 -730h-108zM260 352c0 29 28 61 70 61c38 0 67 -32 67 -61c0 -34 -29 -64 -67 -64c-42 0 -70 30 -70 64z" />
    <glyph glyph-name="Lslash" unicode="&#x141;" horiz-adv-x="579" 
d="M24 124l23 133l88 59l71 384h115l-55 -296l209 140l-23 -132l-209 -141l-30 -157h377l-21 -114h-492l34 183z" />
    <glyph glyph-name="lslash" unicode="&#x142;" horiz-adv-x="296" 
d="M29 162l26 137l106 70l65 361h108l-50 -278l109 74l-25 -136l-110 -74l-58 -316h-108l43 233z" />
    <glyph glyph-name="Nacute" unicode="&#x143;" horiz-adv-x="701" 
d="M635 0h-90l-277 486l-89 -486h-113l130 700h89l276 -490l91 490h112zM696 853l-224 -108l-36 72l219 132z" />
    <glyph glyph-name="nacute" unicode="&#x144;" horiz-adv-x="563" 
d="M32 0l95 520h108l-8 -50c38 35 100 61 161 61c107 0 169 -53 169 -158c0 -25 -4 -58 -9 -88l-57 -285h-108l56 278c3 18 6 37 6 61c1 60 -30 87 -101 87c-59 0 -109 -35 -142 -87l-63 -339h-107zM545 755l-149 -157l-64 54l140 167z" />
    <glyph glyph-name="Ncommaaccent" unicode="&#x145;" horiz-adv-x="701" 
d="M635 0h-90l-277 486l-89 -486h-113l130 700h89l276 -490l91 490h112zM282 -98l98 60c16 -16 29 -42 29 -71c0 -80 -70 -142 -118 -169l-49 48c29 25 55 50 55 85c0 16 -6 32 -15 47z" />
    <glyph glyph-name="ncommaaccent" unicode="&#x146;" horiz-adv-x="563" 
d="M32 0l95 520h108l-8 -50c38 35 100 61 161 61c107 0 169 -53 169 -158c0 -25 -4 -58 -9 -88l-57 -285h-108l56 278c3 18 6 37 6 61c1 60 -30 87 -101 87c-59 0 -109 -35 -142 -87l-63 -339h-107zM194 -96l99 58c15 -17 29 -42 29 -72c0 -79 -70 -141 -118 -168l-47 45
c29 25 53 53 53 88c0 16 -7 35 -16 49z" />
    <glyph glyph-name="Ncaron" unicode="&#x147;" horiz-adv-x="701" 
d="M635 0h-90l-277 486l-89 -486h-113l130 700h89l276 -490l91 490h112zM489 750l-158 110l47 69l122 -79l143 79l37 -72l-187 -107h-4z" />
    <glyph glyph-name="ncaron" unicode="&#x148;" horiz-adv-x="563" 
d="M32 0l95 520h108l-8 -50c38 35 100 61 161 61c107 0 169 -53 169 -158c0 -25 -4 -58 -9 -88l-57 -285h-108l56 278c3 18 6 37 6 61c1 60 -30 87 -101 87c-59 0 -109 -35 -142 -87l-63 -339h-107zM382 608l-127 135l63 66l78 -88l111 85l51 -68l-172 -130h-4z" />
    <glyph glyph-name="Omacron" unicode="&#x14c;" horiz-adv-x="743" 
d="M89 290c0 230 163 418 400 418c176 0 294 -112 294 -297c0 -224 -151 -419 -398 -419c-180 0 -296 111 -296 298zM211 307c0 -129 72 -199 183 -199c175 0 267 148 267 285c0 130 -70 199 -180 199c-178 0 -270 -151 -270 -285zM369 780l17 95h292l-17 -95h-292z" />
    <glyph glyph-name="omacron" unicode="&#x14d;" horiz-adv-x="589" 
d="M48 206c0 193 146 326 313 326c142 0 228 -94 228 -216c0 -193 -135 -325 -307 -325c-148 0 -234 93 -234 215zM162 229c0 -81 50 -132 134 -132c87 0 179 78 179 204c0 77 -50 125 -127 125c-86 0 -186 -78 -186 -197zM277 625l18 95h266l-17 -95h-267z" />
    <glyph glyph-name="Ohungarumlaut" unicode="&#x150;" horiz-adv-x="743" 
d="M89 290c0 230 163 418 400 418c176 0 294 -112 294 -297c0 -224 -151 -419 -398 -419c-180 0 -296 111 -296 298zM211 307c0 -129 72 -199 183 -199c175 0 267 148 267 285c0 130 -70 199 -180 199c-178 0 -270 -151 -270 -285zM783 845l-194 -106l-38 53l173 129z
M586 858l-170 -119l-43 49l151 133z" />
    <glyph glyph-name="ohungarumlaut" unicode="&#x151;" horiz-adv-x="589" 
d="M48 206c0 193 146 326 313 326c142 0 228 -94 228 -216c0 -193 -135 -325 -307 -325c-148 0 -234 93 -234 215zM162 229c0 -81 50 -132 134 -132c87 0 179 78 179 204c0 77 -50 125 -127 125c-86 0 -186 -78 -186 -197zM647 755l-161 -157l-49 45l149 170zM493 766
l-152 -168l-50 46l140 175z" />
    <glyph glyph-name="OE" unicode="&#x152;" horiz-adv-x="1099" 
d="M553 0l8 42c-59 -38 -123 -50 -183 -50c-179 0 -289 127 -289 298c0 230 162 418 408 418c81 0 140 -31 176 -60l9 52h494l-21 -114h-379l-32 -176h354l-20 -110h-354l-35 -186h388l-21 -114h-503zM391 108c76 0 147 28 199 90l56 298c-27 56 -78 96 -165 96
c-169 0 -270 -138 -270 -285c0 -129 72 -199 180 -199z" />
    <glyph glyph-name="oe" unicode="&#x153;" horiz-adv-x="898" 
d="M797 159l64 -63c-53 -76 -146 -105 -231 -105c-68 0 -125 24 -164 65c-51 -44 -114 -65 -186 -65c-148 0 -235 93 -235 215c0 193 147 326 313 326c74 0 132 -26 170 -69c54 44 120 69 189 69c116 0 184 -48 184 -143c0 -113 -115 -182 -276 -182c-32 0 -66 2 -101 8
c5 -78 55 -119 127 -119c63 0 111 22 146 63zM294 97c43 0 89 16 123 52c-4 20 -7 41 -7 63c0 61 16 117 43 164c-22 31 -61 50 -108 50c-86 0 -186 -78 -186 -197c0 -81 50 -132 135 -132zM709 427c-71 0 -140 -48 -170 -121c29 -4 56 -5 80 -5c115 0 168 38 168 76
c0 29 -23 50 -78 50z" />
    <glyph glyph-name="Racute" unicode="&#x154;" horiz-adv-x="649" 
d="M181 0h-115l130 700h261c175 0 227 -89 227 -191c0 -117 -73 -201 -189 -229l148 -280h-133l-131 257h-150zM433 586h-143l-40 -215h149c99 0 162 51 162 131c0 50 -32 84 -128 84zM630 853l-224 -108l-36 72l219 132z" />
    <glyph glyph-name="racute" unicode="&#x155;" horiz-adv-x="344" 
d="M32 0l96 520h107l-6 -35c18 27 62 46 98 46c49 0 73 -17 89 -46l-77 -83c-7 15 -20 23 -45 23c-33 0 -69 -24 -90 -73l-65 -352h-107zM446 755l-149 -157l-64 54l140 167z" />
    <glyph glyph-name="Rcommaaccent" unicode="&#x156;" horiz-adv-x="649" 
d="M181 0h-115l130 700h261c175 0 227 -89 227 -191c0 -117 -73 -201 -189 -229l148 -280h-133l-131 257h-150zM433 586h-143l-40 -215h149c99 0 162 51 162 131c0 50 -32 84 -128 84zM252 -98l98 60c16 -16 29 -42 29 -71c0 -80 -70 -142 -118 -169l-49 48
c29 25 55 50 55 85c0 16 -6 32 -15 47z" />
    <glyph glyph-name="rcommaaccent" unicode="&#x157;" horiz-adv-x="344" 
d="M32 0l96 520h107l-6 -35c18 27 62 46 98 46c49 0 73 -17 89 -46l-77 -83c-7 15 -20 23 -45 23c-33 0 -69 -24 -90 -73l-65 -352h-107zM19 -96l99 58c15 -17 29 -42 29 -72c0 -79 -70 -141 -118 -168l-47 45c29 25 53 53 53 88c0 16 -7 35 -16 49z" />
    <glyph glyph-name="Rcaron" unicode="&#x158;" horiz-adv-x="649" 
d="M181 0h-115l130 700h261c175 0 227 -89 227 -191c0 -117 -73 -201 -189 -229l148 -280h-133l-131 257h-150zM433 586h-143l-40 -215h149c99 0 162 51 162 131c0 50 -32 84 -128 84zM434 750l-158 110l47 69l122 -79l143 79l37 -72l-187 -107h-4z" />
    <glyph glyph-name="rcaron" unicode="&#x159;" horiz-adv-x="344" 
d="M32 0l96 520h107l-6 -35c18 27 62 46 98 46c49 0 73 -17 89 -46l-77 -83c-7 15 -20 23 -45 23c-33 0 -69 -24 -90 -73l-65 -352h-107zM287 608l-127 135l63 66l78 -88l111 85l51 -68l-172 -130h-4z" />
    <glyph glyph-name="Sacute" unicode="&#x15a;" horiz-adv-x="599" 
d="M488 202c0 134 -356 67 -356 288c0 141 127 218 286 218c123 0 200 -43 249 -103l-73 -80c-45 39 -93 70 -186 70c-64 0 -154 -16 -154 -88c0 -131 357 -68 357 -291c0 -130 -101 -224 -281 -224c-118 0 -221 39 -282 130l79 80c51 -64 125 -97 218 -97
c88 0 143 38 143 97zM650 853l-224 -108l-36 72l219 132z" />
    <glyph glyph-name="sacute" unicode="&#x15b;" horiz-adv-x="450" 
d="M312 148c0 88 -224 62 -224 224c0 105 93 160 192 160c112 0 169 -44 198 -87l-73 -74c-26 34 -70 55 -115 55c-50 0 -88 -16 -88 -51c0 -74 224 -51 224 -220c0 -120 -112 -164 -200 -164c-110 0 -191 54 -222 126l86 61c23 -50 72 -81 143 -81c40 0 79 16 79 51z
M504 755l-149 -157l-64 54l140 167z" />
    <glyph glyph-name="Scircumflex" unicode="&#x15c;" horiz-adv-x="599" 
d="M488 202c0 134 -356 67 -356 288c0 141 127 218 286 218c123 0 200 -43 249 -103l-73 -80c-45 39 -93 70 -186 70c-64 0 -154 -16 -154 -88c0 -131 357 -68 357 -291c0 -130 -101 -224 -281 -224c-118 0 -221 39 -282 130l79 80c51 -64 125 -97 218 -97
c88 0 143 38 143 97zM473 928l158 -110l-47 -69l-122 79l-143 -79l-37 72l187 107h4z" />
    <glyph glyph-name="scircumflex" unicode="&#x15d;" horiz-adv-x="450" 
d="M312 148c0 88 -224 62 -224 224c0 105 93 160 192 160c112 0 169 -44 198 -87l-73 -74c-26 34 -70 55 -115 55c-50 0 -88 -16 -88 -51c0 -74 224 -51 224 -220c0 -120 -112 -164 -200 -164c-110 0 -191 54 -222 126l86 61c23 -50 72 -81 143 -81c40 0 79 16 79 51z
M350 790l133 -135l-63 -66l-84 88l-111 -85l-51 68l172 130h4z" />
    <glyph glyph-name="Scedilla" unicode="&#x15e;" horiz-adv-x="599" 
d="M174 -161l47 54c15 -14 39 -25 71 -25s41 9 41 24s-16 20 -43 20h-12l15 81c-102 7 -191 47 -245 129l79 80c51 -64 125 -97 218 -97c88 0 143 38 143 97c0 134 -356 67 -356 288c0 141 127 218 286 218c123 0 200 -43 249 -103l-73 -80c-45 39 -93 70 -186 70
c-64 0 -154 -16 -154 -88c0 -131 357 -68 357 -291c0 -125 -93 -216 -259 -223l-4 -25c63 -3 90 -33 90 -79c0 -47 -40 -96 -142 -96c-50 0 -91 14 -122 46z" />
    <glyph glyph-name="scedilla" unicode="&#x15f;" horiz-adv-x="450" 
d="M68 -168l44 59c15 -14 40 -23 71 -23c33 0 42 9 42 24s-15 20 -44 20h-12l15 82c-89 12 -153 60 -180 123l86 61c23 -50 72 -81 143 -81c40 0 79 16 79 51c0 88 -224 62 -224 224c0 105 93 160 192 160c112 0 169 -44 198 -87l-73 -74c-26 34 -70 55 -115 55
c-50 0 -88 -16 -88 -51c0 -74 224 -51 224 -220c0 -112 -98 -157 -183 -163l-4 -24c56 -4 84 -30 84 -71c0 -58 -50 -104 -146 -104c-36 0 -78 9 -109 39z" />
    <glyph glyph-name="Scaron" unicode="&#x160;" horiz-adv-x="599" 
d="M488 202c0 134 -356 67 -356 288c0 141 127 218 286 218c123 0 200 -43 249 -103l-73 -80c-45 39 -93 70 -186 70c-64 0 -154 -16 -154 -88c0 -131 357 -68 357 -291c0 -130 -101 -224 -281 -224c-118 0 -221 39 -282 130l79 80c51 -64 125 -97 218 -97
c88 0 143 38 143 97zM438 750l-158 110l47 69l122 -79l143 79l37 -72l-187 -107h-4z" />
    <glyph glyph-name="scaron" unicode="&#x161;" horiz-adv-x="450" 
d="M312 148c0 88 -224 62 -224 224c0 105 93 160 192 160c112 0 169 -44 198 -87l-73 -74c-26 34 -70 55 -115 55c-50 0 -88 -16 -88 -51c0 -74 224 -51 224 -220c0 -120 -112 -164 -200 -164c-110 0 -191 54 -222 126l86 61c23 -50 72 -81 143 -81c40 0 79 16 79 51z
M321 608l-127 135l63 66l78 -88l111 85l51 -68l-172 -130h-4z" />
    <glyph glyph-name="Tcedilla" unicode="&#x162;" horiz-adv-x="563" 
d="M130 -161l47 54c15 -14 39 -25 71 -25s41 9 41 24s-16 20 -43 20h-12l17 88h-27l108 586h-223l21 114h562l-21 -114h-224l-108 -586h-29l-6 -32c63 -3 90 -33 90 -79c0 -47 -40 -96 -142 -96c-50 0 -91 14 -122 46z" />
    <glyph glyph-name="tcedilla" unicode="&#x163;" horiz-adv-x="376" 
d="M56 -168l44 59c15 -14 40 -23 71 -23c33 0 42 9 42 24s-15 20 -44 20h-12l15 85c-57 9 -97 48 -97 109c0 18 3 47 8 75l52 239h-93l18 100h94l21 107h107l-21 -107h152l-19 -100h-153l-45 -207c-4 -21 -7 -45 -7 -60c-1 -38 18 -54 46 -54c35 0 62 18 83 41l54 -68
c-31 -42 -84 -69 -140 -76l-5 -28c56 -4 84 -30 84 -71c0 -58 -50 -104 -146 -104c-36 0 -78 9 -109 39z" />
    <glyph glyph-name="Tcaron" unicode="&#x164;" horiz-adv-x="563" 
d="M109 586l21 114h562l-21 -114h-224l-108 -586h-115l108 586h-223zM411 750l-158 110l47 69l122 -79l143 79l37 -72l-187 -107h-4z" />
    <glyph glyph-name="tcaron" unicode="&#x165;" horiz-adv-x="392" 
d="M42 419l18 101h94l19 107h108c-31 -179 -92 -435 -92 -472c0 -36 12 -55 51 -55c31 0 56 17 78 40l54 -67c-35 -49 -94 -79 -162 -79c-83 0 -135 41 -135 115c0 52 37 196 59 310h-92zM366 711h113c3 -8 4 -23 4 -35c0 -95 -77 -165 -138 -200l-40 47c44 35 71 84 71 132
c0 22 -4 45 -10 56z" />
    <glyph glyph-name="Umacron" unicode="&#x16a;" horiz-adv-x="690" 
d="M758 700l-74 -402c-32 -171 -125 -305 -333 -305c-155 0 -273 104 -235 311l73 396h115l-70 -381c-25 -139 25 -213 138 -213c130 0 180 102 200 209l71 385h115zM343 780l17 95h292l-17 -95h-292z" />
    <glyph glyph-name="umacron" unicode="&#x16b;" horiz-adv-x="550" 
d="M568 520l-98 -520h-108l10 55c-37 -36 -89 -64 -155 -64c-106 0 -168 55 -168 147c0 25 4 55 10 86l62 296h108l-60 -285c-3 -17 -6 -38 -6 -57c1 -51 20 -82 85 -82c61 0 110 33 148 91l64 333h108zM256 625l18 95h266l-17 -95h-267z" />
    <glyph glyph-name="Ubreve" unicode="&#x16c;" horiz-adv-x="690" 
d="M758 700l-74 -402c-32 -171 -125 -305 -333 -305c-155 0 -273 104 -235 311l73 396h115l-70 -381c-25 -139 25 -213 138 -213c130 0 180 102 200 209l71 385h115zM315 869l56 55c18 -26 58 -61 130 -61c62 0 110 30 141 61l47 -60c-36 -48 -100 -103 -194 -103
c-102 0 -159 60 -180 108z" />
    <glyph glyph-name="ubreve" unicode="&#x16d;" horiz-adv-x="550" 
d="M568 520l-98 -520h-108l10 55c-37 -36 -89 -64 -155 -64c-106 0 -168 55 -168 147c0 25 4 55 10 86l62 296h108l-60 -285c-3 -17 -6 -38 -6 -57c1 -51 20 -82 85 -82c61 0 110 33 148 91l64 333h108zM220 717l51 55c21 -32 56 -52 103 -52c48 0 92 26 118 53l40 -57
c-36 -53 -87 -93 -163 -93c-75 0 -127 43 -149 94z" />
    <glyph glyph-name="Uring" unicode="&#x16e;" horiz-adv-x="690" 
d="M758 700l-74 -402c-32 -171 -125 -305 -333 -305c-155 0 -273 104 -235 311l73 396h115l-70 -381c-25 -139 25 -213 138 -213c130 0 180 102 200 209l71 385h115zM363 823c0 83 74 124 146 124c71 0 123 -30 123 -94c0 -82 -64 -126 -150 -126c-71 0 -119 32 -119 96z
M446 830c0 -23 16 -37 45 -37c40 0 57 26 57 52c0 23 -17 35 -44 35c-35 0 -58 -19 -58 -50z" />
    <glyph glyph-name="uring" unicode="&#x16f;" horiz-adv-x="550" 
d="M568 520l-98 -520h-108l10 55c-37 -36 -89 -64 -155 -64c-106 0 -168 55 -168 147c0 25 4 55 10 86l62 296h108l-60 -285c-3 -17 -6 -38 -6 -57c1 -51 20 -82 85 -82c61 0 110 33 148 91l64 333h108zM258 683c0 79 59 135 135 135c65 0 103 -44 103 -99
c0 -79 -60 -133 -135 -133c-65 0 -103 42 -103 97zM332 693c0 -22 13 -37 37 -37c30 0 53 21 53 56c0 22 -14 36 -37 36c-31 0 -53 -23 -53 -55z" />
    <glyph glyph-name="Uhungarumlaut" unicode="&#x170;" horiz-adv-x="690" 
d="M758 700l-74 -402c-32 -171 -125 -305 -333 -305c-155 0 -273 104 -235 311l73 396h115l-70 -381c-25 -139 25 -213 138 -213c130 0 180 102 200 209l71 385h115zM751 845l-194 -106l-38 53l173 129zM554 858l-170 -119l-43 49l151 133z" />
    <glyph glyph-name="uhungarumlaut" unicode="&#x171;" horiz-adv-x="550" 
d="M568 520l-98 -520h-108l10 55c-37 -36 -89 -64 -155 -64c-106 0 -168 55 -168 147c0 25 4 55 10 86l62 296h108l-60 -285c-3 -17 -6 -38 -6 -57c1 -51 20 -82 85 -82c61 0 110 33 148 91l64 333h108zM621 755l-161 -157l-49 45l149 170zM467 766l-152 -168l-50 46
l140 175z" />
    <glyph glyph-name="Uogonek" unicode="&#x172;" horiz-adv-x="690" 
d="M344 -7c-148 0 -266 104 -228 311l73 396h115l-70 -381c-25 -139 25 -213 138 -213c130 0 180 102 200 209l71 385h115l-74 -402c-28 -152 -105 -274 -268 -300c-26 -15 -46 -49 -46 -75c0 -22 16 -30 36 -30c17 0 28 2 46 10l18 -77c-21 -14 -62 -26 -99 -26
c-60 -1 -116 20 -116 84c0 47 38 81 89 109z" />
    <glyph glyph-name="uogonek" unicode="&#x173;" horiz-adv-x="550" 
d="M429 -96l19 -73c-19 -16 -58 -31 -101 -31c-57 0 -108 25 -108 81c0 64 58 106 124 126l9 48c-37 -36 -89 -64 -155 -64c-106 0 -168 55 -168 147c0 25 4 55 10 86l62 296h108l-60 -285c-3 -17 -6 -38 -6 -57c1 -51 20 -82 85 -82c61 0 110 33 148 91l64 333h108
l-98 -520h-4c-51 0 -108 -36 -108 -75c0 -19 12 -30 30 -30c14 0 24 1 41 9z" />
    <glyph glyph-name="Ydieresis" unicode="&#x178;" horiz-adv-x="637" 
d="M773 700l-342 -397l-56 -303h-115l56 303l-193 397h129l133 -280l238 280h150zM279 828c0 34 28 62 62 62s62 -28 62 -62s-28 -62 -62 -62s-62 28 -62 62zM509 828c0 34 28 62 62 62s62 -28 62 -62s-28 -62 -62 -62s-62 28 -62 62z" />
    <glyph glyph-name="Zacute" unicode="&#x179;" horiz-adv-x="601" 
d="M136 586l21 114h545l-15 -81l-477 -505h393l-21 -114h-571l16 81l477 505h-368zM633 853l-224 -108l-36 72l219 132z" />
    <glyph glyph-name="zacute" unicode="&#x17a;" horiz-adv-x="479" 
d="M88 420l17 100h421v-62l-350 -358h272l-18 -100h-430v68l349 352h-261zM504 755l-149 -157l-64 54l140 167z" />
    <glyph glyph-name="Zdotaccent" unicode="&#x17b;" horiz-adv-x="601" 
d="M136 586l21 114h545l-15 -81l-477 -505h393l-21 -114h-571l16 81l477 505h-368zM392 826c0 34 27 61 61 61s61 -27 61 -61s-27 -61 -61 -61s-61 27 -61 61z" />
    <glyph glyph-name="zdotaccent" unicode="&#x17c;" horiz-adv-x="479" 
d="M88 420l17 100h421v-62l-350 -358h272l-18 -100h-430v68l349 352h-261zM264 669c0 33 26 61 61 61s64 -28 64 -61c0 -34 -29 -59 -64 -59s-61 25 -61 59z" />
    <glyph glyph-name="Zcaron" unicode="&#x17d;" horiz-adv-x="601" 
d="M136 586l21 114h545l-15 -81l-477 -505h393l-21 -114h-571l16 81l477 505h-368zM439 750l-158 110l47 69l122 -79l143 79l37 -72l-187 -107h-4z" />
    <glyph glyph-name="zcaron" unicode="&#x17e;" horiz-adv-x="479" 
d="M88 420l17 100h421v-62l-350 -358h272l-18 -100h-430v68l349 352h-261zM351 608l-127 135l63 66l78 -88l111 85l51 -68l-172 -130h-4z" />
    <glyph glyph-name="uni018F" unicode="&#x18f;" horiz-adv-x="723" 
d="M78 253c0 71 21 124 39 161h527c3 105 -52 181 -191 181c-61 0 -152 -30 -216 -99l-68 82c66 78 171 130 297 130c204 0 299 -119 299 -289c0 -251 -159 -427 -404 -427c-164 0 -283 106 -283 261zM628 301h-431c-1 -10 -2 -20 -2 -30c0 -108 71 -166 178 -166
c121 0 224 78 255 196z" />
    <glyph glyph-name="florin" unicode="&#x192;" horiz-adv-x="555" 
d="M335 481l-5 -24h144v-105h-162l-61 -342c-20 -111 -56 -218 -184 -218c-48 0 -92 18 -121 48l38 88c21 -20 47 -30 73 -30c42 0 65 29 76 89l66 365h-134v105h153l7 42c18 114 68 210 204 210c63 0 100 -17 127 -40l-41 -90c-22 15 -45 24 -78 24
c-60 0 -84 -36 -102 -122z" />
    <glyph glyph-name="uni01DD" unicode="&#x1dd;" horiz-adv-x="512" 
d="M132 367l-55 73c51 61 134 92 219 92c131 0 219 -88 219 -221c0 -185 -140 -320 -306 -320c-106 0 -184 51 -184 148c0 106 94 188 257 188c40 0 78 -7 119 -21c-3 79 -53 120 -126 120c-63 0 -103 -21 -143 -59zM217 97c70 0 135 42 166 109c-37 14 -72 19 -104 19
c-87 0 -140 -33 -140 -72c0 -35 24 -56 78 -56z" />
    <glyph glyph-name="Scommaaccent" unicode="&#x218;" horiz-adv-x="599" 
d="M488 202c0 134 -356 67 -356 288c0 141 127 218 286 218c123 0 200 -43 249 -103l-73 -80c-45 39 -93 70 -186 70c-64 0 -154 -16 -154 -88c0 -131 357 -68 357 -291c0 -130 -101 -224 -281 -224c-118 0 -221 39 -282 130l79 80c51 -64 125 -97 218 -97
c88 0 143 38 143 97zM249 -98l98 60c16 -16 29 -42 29 -71c0 -80 -70 -142 -118 -169l-49 48c29 25 55 50 55 85c0 16 -6 32 -15 47z" />
    <glyph glyph-name="scommaaccent" unicode="&#x219;" horiz-adv-x="450" 
d="M312 148c0 88 -224 62 -224 224c0 105 93 160 192 160c112 0 169 -44 198 -87l-73 -74c-26 34 -70 55 -115 55c-50 0 -88 -16 -88 -51c0 -74 224 -51 224 -220c0 -120 -112 -164 -200 -164c-110 0 -191 54 -222 126l86 61c23 -50 72 -81 143 -81c40 0 79 16 79 51z
M143 -96l99 58c15 -17 29 -42 29 -72c0 -79 -70 -141 -118 -168l-47 45c29 25 53 53 53 88c0 16 -7 35 -16 49z" />
    <glyph glyph-name="Tcommaaccent" unicode="&#x21a;" horiz-adv-x="563" 
d="M109 586l21 114h562l-21 -114h-224l-108 -586h-115l108 586h-223zM203 -98l98 60c16 -16 29 -42 29 -71c0 -80 -70 -142 -118 -169l-49 48c29 25 55 50 55 85c0 16 -6 32 -15 47z" />
    <glyph glyph-name="tcommaaccent" unicode="&#x21b;" horiz-adv-x="376" 
d="M42 420l18 100h94l21 107h107l-21 -107h152l-19 -100h-153l-45 -207c-4 -21 -7 -45 -7 -60c-1 -38 18 -54 46 -54c35 0 62 18 83 41l54 -68c-36 -49 -101 -78 -168 -78c-74 0 -129 41 -129 112c0 18 3 47 8 75l52 239h-93zM139 -96l99 58c15 -17 29 -42 29 -72
c0 -79 -70 -141 -118 -168l-47 45c29 25 53 53 53 88c0 16 -7 35 -16 49z" />
    <glyph glyph-name="uni0237" unicode="&#x237;" horiz-adv-x="231" 
d="M244 520l-96 -521c-24 -130 -90 -208 -201 -208c-69 0 -121 30 -137 102l98 41c8 -19 19 -38 50 -38c42 0 70 35 83 106l95 518h108z" />
    <glyph glyph-name="uni0259" unicode="&#x259;" horiz-adv-x="512" 
d="M132 367l-55 73c51 61 134 92 219 92c131 0 219 -88 219 -221c0 -185 -140 -320 -306 -320c-106 0 -184 51 -184 148c0 106 94 188 257 188c40 0 78 -7 119 -21c-3 79 -53 120 -126 120c-63 0 -103 -21 -143 -59zM217 97c70 0 135 42 166 109c-37 14 -72 19 -104 19
c-87 0 -140 -33 -140 -72c0 -35 24 -56 78 -56z" />
    <glyph glyph-name="afii57929" unicode="&#x2bc;" horiz-adv-x="188" 
d="M183 679l98 58c18 -20 27 -49 27 -77c0 -87 -74 -152 -136 -188l-41 49c37 30 65 64 65 104c0 17 -5 40 -13 54z" />
    <glyph glyph-name="circumflex" unicode="&#x2c6;" horiz-adv-x="438" 
d="M434 790l133 -135l-63 -66l-84 88l-111 -85l-51 68l172 130h4z" />
    <glyph glyph-name="caron" unicode="&#x2c7;" horiz-adv-x="435" 
d="M396 608l-127 135l63 66l78 -88l111 85l51 -68l-172 -130h-4z" />
    <glyph glyph-name="breve" unicode="&#x2d8;" horiz-adv-x="439" 
d="M271 717l51 55c21 -32 56 -52 103 -52c48 0 92 26 118 53l40 -57c-36 -53 -87 -93 -163 -93c-75 0 -127 43 -149 94z" />
    <glyph glyph-name="dotaccent" unicode="&#x2d9;" horiz-adv-x="237" 
d="M145 669c0 33 26 61 61 61s64 -28 64 -61c0 -34 -29 -59 -64 -59s-61 25 -61 59z" />
    <glyph glyph-name="ring" unicode="&#x2da;" horiz-adv-x="408" 
d="M302 683c0 79 59 135 135 135c65 0 103 -44 103 -99c0 -79 -60 -133 -135 -133c-65 0 -103 42 -103 97zM376 693c0 -22 13 -37 37 -37c30 0 53 21 53 56c0 22 -14 36 -37 36c-31 0 -53 -23 -53 -55z" />
    <glyph glyph-name="ogonek" unicode="&#x2db;" horiz-adv-x="365" 
d="M314 -96l19 -73c-19 -16 -58 -31 -101 -31c-57 0 -108 25 -108 81c0 98 135 143 231 142l-4 -23c-51 0 -108 -36 -108 -75c0 -19 12 -30 30 -30c14 0 24 1 41 9z" />
    <glyph glyph-name="tilde" unicode="&#x2dc;" horiz-adv-x="443" 
d="M272 612l-41 56c30 37 82 68 120 68c57 0 78 -44 118 -44c27 0 46 11 69 30l35 -60c-28 -31 -70 -64 -119 -64c-57 0 -77 43 -117 43c-21 0 -44 -13 -65 -29z" />
    <glyph glyph-name="hungarumlaut" unicode="&#x2dd;" horiz-adv-x="510" 
d="M650 755l-161 -157l-49 45l149 170zM496 766l-152 -168l-50 46l140 175z" />
    <glyph glyph-name="gravecomb" unicode="&#x300;" horiz-adv-x="0" 
d="M-164 598l-134 154l80 67l116 -167z" />
    <glyph glyph-name="acutecomb" unicode="&#x301;" horiz-adv-x="0" 
d="M-13 755l-149 -157l-64 54l140 167z" />
    <glyph glyph-name="uni0394" unicode="&#x394;" horiz-adv-x="726" 
d="M78 0l303 707h78l309 -707h-690zM420 509l-173 -406h350z" />
    <glyph glyph-name="uni0394" unicode="&#x2206;" horiz-adv-x="726" 
d="M78 0l303 707h78l309 -707h-690zM420 509l-173 -406h350z" />
    <glyph glyph-name="uni03A9" unicode="&#x3a9;" horiz-adv-x="821" 
d="M119 0v117h124c-49 20 -121 119 -121 259c0 203 150 334 349 334c202 0 348 -131 348 -334c0 -148 -77 -233 -129 -259h132v-117h-312v117c96 29 184 126 184 249c0 116 -87 227 -223 227c-141 0 -224 -103 -224 -229c0 -123 88 -224 183 -247v-117h-311z" />
    <glyph glyph-name="uni03A9" unicode="&#x2126;" horiz-adv-x="821" 
d="M119 0v117h124c-49 20 -121 119 -121 259c0 203 150 334 349 334c202 0 348 -131 348 -334c0 -148 -77 -233 -129 -259h132v-117h-312v117c96 29 184 126 184 249c0 116 -87 227 -223 227c-141 0 -224 -103 -224 -229c0 -123 88 -224 183 -247v-117h-311z" />
    <glyph glyph-name="pi" unicode="&#x3c0;" horiz-adv-x="667" 
d="M102 414v106h583v-106h-94v-257c0 -45 13 -61 41 -61c20 0 39 10 56 22l26 -86c-30 -24 -74 -42 -120 -42c-74 0 -116 44 -116 151v273h-162v-63c0 -292 -64 -360 -224 -360l-9 109c72 1 117 26 119 232l1 82h-101z" />
    <glyph glyph-name="afii10023" unicode="&#x401;" horiz-adv-x="613" 
d="M66 0l130 700h494l-21 -114h-379l-33 -176h355l-21 -110h-354l-35 -186h389l-21 -114h-504zM279 828c0 34 28 62 62 62s62 -28 62 -62s-28 -62 -62 -62s-62 28 -62 62zM509 828c0 34 28 62 62 62s62 -28 62 -62s-28 -62 -62 -62s-62 28 -62 62z" />
    <glyph glyph-name="afii10051" unicode="&#x402;" horiz-adv-x="716" 
d="M609 234c0 63 -32 99 -90 99c-51 0 -102 -26 -133 -66l-50 -267h-115l109 587h-221l21 113h558l-21 -113h-222l-36 -190c32 26 88 49 152 49c124 0 170 -84 170 -196c0 -145 -81 -259 -217 -259c-64 0 -100 24 -123 57l72 81c14 -14 28 -25 56 -25c54 0 90 52 90 130z
" />
    <glyph glyph-name="afii10052" unicode="&#x403;" horiz-adv-x="551" 
d="M66 0l129 700h485l-21 -114h-369l-109 -586h-115zM636 853l-224 -108l-36 72l219 132z" />
    <glyph glyph-name="afii10053" unicode="&#x404;" horiz-adv-x="653" 
d="M536 413l-21 -113h-305c-8 -134 74 -195 188 -195c93 0 155 35 202 88l82 -65c-53 -73 -141 -136 -297 -136c-186 0 -297 115 -297 305c0 246 176 411 412 411c92 0 200 -36 234 -125l-91 -62c-34 51 -90 74 -161 74c-111 0 -210 -68 -254 -182h308z" />
    <glyph glyph-name="afii10054" unicode="&#x405;" horiz-adv-x="599" 
d="M488 202c0 134 -356 67 -356 288c0 141 127 218 286 218c123 0 200 -43 249 -103l-73 -80c-45 39 -93 70 -186 70c-64 0 -154 -16 -154 -88c0 -131 357 -68 357 -291c0 -130 -101 -224 -281 -224c-118 0 -221 39 -282 130l79 80c51 -64 125 -97 218 -97
c88 0 143 38 143 97z" />
    <glyph glyph-name="afii10055" unicode="&#x406;" horiz-adv-x="248" 
d="M66 0l129 700h116l-130 -700h-115z" />
    <glyph glyph-name="afii10056" unicode="&#x407;" horiz-adv-x="261" 
d="M73 0l129 700h115l-129 -700h-115zM135 805c0 32 27 59 59 59s59 -27 59 -59s-27 -59 -59 -59s-59 27 -59 59zM305 805c0 32 27 59 59 59s59 -27 59 -59s-27 -59 -59 -59s-59 27 -59 59z" />
    <glyph glyph-name="afii10057" unicode="&#x408;" horiz-adv-x="462" 
d="M527 700l-89 -483c-23 -123 -78 -225 -236 -225c-99 0 -164 56 -184 132l90 63c17 -44 49 -82 101 -82c63 0 100 32 119 135l83 460h116z" />
    <glyph glyph-name="afii10058" unicode="&#x409;" horiz-adv-x="994" 
d="M593 586h-234l-17 -94c-69 -383 -151 -497 -289 -497c-26 0 -41 3 -53 4l22 117c89 -9 141 36 214 429l28 155h465l-46 -250h112c159 0 225 -72 225 -189c0 -194 -138 -261 -320 -261h-216zM772 336h-110l-42 -222h105c112 0 173 41 173 130c0 67 -44 92 -126 92z" />
    <glyph glyph-name="afii10059" unicode="&#x40a;" horiz-adv-x="995" 
d="M685 432h112c150 0 221 -63 221 -181c0 -175 -123 -251 -311 -251h-217l59 318h-309l-59 -318h-115l130 700h115l-50 -268h309l49 268h115zM775 318h-111l-38 -204h105c112 0 165 44 165 122c0 60 -40 82 -121 82z" />
    <glyph glyph-name="afii10060" unicode="&#x40b;" horiz-adv-x="698" 
d="M109 586l21 114h558l-21 -114h-222l-35 -185c36 23 81 45 137 45c100 0 166 -51 166 -155c0 -23 -5 -71 -9 -91l-37 -200h-115l34 195c3 18 6 45 6 58c0 52 -27 80 -84 80c-40 0 -89 -23 -121 -59l-51 -274h-115l109 586h-221z" />
    <glyph glyph-name="afii10061" unicode="&#x40c;" horiz-adv-x="646" 
d="M66 0l130 700h115l-57 -307l339 307h166l-356 -319l249 -381h-142l-199 308l-87 -74l-43 -234h-115zM635 853l-224 -108l-36 72l219 132z" />
    <glyph glyph-name="afii10062" unicode="&#x40e;" horiz-adv-x="672" 
d="M187 14l45 103c9 -5 21 -7 30 -7c31 0 60 41 84 81l-217 509h127l161 -393l248 393h136l-345 -538c-66 -104 -116 -165 -203 -165c-19 0 -48 5 -66 17zM315 908h106c6 -41 37 -59 77 -59c41 0 75 18 89 59h108c-16 -87 -83 -158 -204 -158c-114 0 -177 67 -176 158z" />
    <glyph glyph-name="afii10145" unicode="&#x40f;" horiz-adv-x="696" 
d="M66 0l130 700h115l-109 -587h334l108 587h115l-129 -700h-226l-27 -144h-111l27 144h-227z" />
    <glyph glyph-name="afii10017" unicode="&#x410;" horiz-adv-x="669" 
d="M-1 0l421 700h87l163 -700h-118l-36 155h-297l-91 -155h-129zM432 519l-152 -260h212z" />
    <glyph glyph-name="afii10018" unicode="&#x411;" horiz-adv-x="629" 
d="M682 700l-21 -114h-371l-30 -159h173c144 0 213 -61 213 -178c0 -174 -110 -249 -315 -249h-265l130 700h486zM400 313h-161l-37 -199h155c111 0 167 39 167 122c0 53 -40 77 -124 77z" />
    <glyph glyph-name="afii10019" unicode="&#x412;" horiz-adv-x="641" 
d="M66 0l130 700h282c150 0 203 -66 203 -166c0 -72 -38 -137 -112 -169c47 -21 77 -63 77 -132c0 -165 -130 -233 -298 -233h-282zM399 302h-162l-35 -188h154c124 0 168 41 168 108c0 55 -37 80 -125 80zM442 586h-152l-33 -174h165c78 0 134 32 134 104
c0 46 -30 70 -114 70z" />
    <glyph glyph-name="afii10020" unicode="&#x413;" horiz-adv-x="551" 
d="M66 0l129 700h485l-21 -114h-369l-109 -586h-115z" />
    <glyph glyph-name="afii10021" unicode="&#x414;" horiz-adv-x="706" 
d="M-23 -123l44 236h71c56 69 106 174 164 485l19 102h470l-109 -587h81l-43 -236h-112l23 123h-474l-23 -123h-111zM369 587l-9 -44c-41 -217 -87 -357 -139 -430h301l87 474h-240z" />
    <glyph glyph-name="afii10022" unicode="&#x415;" horiz-adv-x="613" 
d="M66 0l130 700h494l-21 -114h-379l-33 -176h355l-21 -110h-354l-35 -186h389l-21 -114h-504z" />
    <glyph glyph-name="afii10024" unicode="&#x416;" horiz-adv-x="901" 
d="M347 396l-213 304h138l197 -281l53 281h114l-52 -281l291 281h153l-334 -318l207 -382h-135l-167 312l-40 -36l-52 -276h-115l53 284l-26 32l-277 -316h-142z" />
    <glyph glyph-name="afii10025" unicode="&#x417;" horiz-adv-x="617" 
d="M320 -10c-137 0 -239 53 -282 152l96 63c37 -67 98 -102 198 -102c99 0 174 46 174 119c0 56 -49 78 -139 78h-111l20 114h106c109 0 157 49 157 103c0 59 -63 80 -133 80c-88 0 -146 -37 -196 -90l-81 67c69 89 159 136 294 136c143 0 234 -63 234 -176
c0 -80 -40 -136 -121 -170c62 -23 88 -74 88 -131c0 -154 -125 -243 -304 -243z" />
    <glyph glyph-name="afii10026" unicode="&#x418;" horiz-adv-x="710" 
d="M162 0h-96l129 700h116l-88 -476l452 476h97l-129 -700h-115l87 475z" />
    <glyph glyph-name="afii10027" unicode="&#x419;" horiz-adv-x="710" 
d="M162 0h-96l129 700h116l-88 -476l452 476h97l-129 -700h-115l87 475zM324 908h106c6 -41 37 -59 77 -59c41 0 75 18 89 59h108c-16 -87 -83 -158 -204 -158c-114 0 -177 67 -176 158z" />
    <glyph glyph-name="afii10028" unicode="&#x41a;" horiz-adv-x="646" 
d="M66 0l130 700h115l-57 -307l339 307h166l-356 -319l249 -381h-142l-199 308l-87 -74l-43 -234h-115z" />
    <glyph glyph-name="afii10029" unicode="&#x41b;" horiz-adv-x="682" 
d="M501 0l108 587h-250l-17 -95c-69 -384 -151 -497 -289 -497c-22 0 -41 3 -53 4l22 117c6 -1 12 -1 21 -1c74 0 125 63 193 430l28 155h481l-129 -700h-115z" />
    <glyph glyph-name="afii10030" unicode="&#x41c;" horiz-adv-x="802" 
d="M66 0l129 700h92l177 -322l287 322h113l-129 -700h-115l90 485l-254 -278h-29l-156 279l-90 -486h-115z" />
    <glyph glyph-name="afii10031" unicode="&#x41d;" horiz-adv-x="712" 
d="M529 0l55 297h-347l-56 -297h-115l130 700h115l-54 -289h348l53 289h116l-129 -700h-116z" />
    <glyph glyph-name="afii10032" unicode="&#x41e;" horiz-adv-x="743" 
d="M89 290c0 230 163 418 400 418c176 0 294 -112 294 -297c0 -224 -151 -419 -398 -419c-180 0 -296 111 -296 298zM211 307c0 -129 72 -199 183 -199c175 0 267 148 267 285c0 130 -70 199 -180 199c-178 0 -270 -151 -270 -285z" />
    <glyph glyph-name="afii10033" unicode="&#x41f;" horiz-adv-x="709" 
d="M527 0l109 586h-346l-109 -586h-115l130 700h575l-129 -700h-115z" />
    <glyph glyph-name="afii10034" unicode="&#x420;" horiz-adv-x="644" 
d="M181 0h-115l130 700h269c187 0 239 -96 239 -198c0 -149 -104 -262 -325 -262h-153zM447 587h-157l-43 -234h151c129 0 183 58 183 139c0 55 -36 95 -134 95z" />
    <glyph glyph-name="afii10035" unicode="&#x421;" horiz-adv-x="657" 
d="M620 200l67 -84c-52 -63 -151 -124 -288 -124c-201 0 -312 121 -312 305c0 240 177 411 408 411c131 0 213 -51 246 -121l-82 -69c-36 41 -82 74 -173 74c-187 0 -276 -149 -276 -288c0 -118 76 -196 194 -196c108 0 172 47 216 92z" />
    <glyph glyph-name="afii10036" unicode="&#x422;" horiz-adv-x="563" 
d="M109 586l21 114h562l-21 -114h-224l-108 -586h-115l108 586h-223z" />
    <glyph glyph-name="afii10037" unicode="&#x423;" horiz-adv-x="672" 
d="M187 14l45 103c9 -5 21 -7 30 -7c31 0 60 41 84 81l-217 509h127l161 -393l248 393h136l-345 -538c-66 -104 -116 -165 -203 -165c-19 0 -48 5 -66 17z" />
    <glyph glyph-name="afii10038" unicode="&#x424;" horiz-adv-x="833" 
d="M357 -15l15 83h-3c-162 0 -283 88 -283 255c0 229 183 329 395 329l11 63h114l-11 -63c192 0 286 -109 286 -250c0 -227 -178 -334 -390 -334h-5l-15 -83h-114zM576 539h-2c-50 -268 -67 -358 -67 -358h5c141 0 247 75 247 208c0 99 -61 150 -183 150zM208 331
c0 -94 61 -150 181 -150h4l67 358c-140 0 -252 -68 -252 -208z" />
    <glyph glyph-name="afii10039" unicode="&#x425;" horiz-adv-x="648" 
d="M763 700l-305 -347l184 -353h-132l-133 257l-225 -257h-145l317 360l-178 340h130l128 -247l211 247h148z" />
    <glyph glyph-name="afii10040" unicode="&#x426;" horiz-adv-x="710" 
d="M66 0l129 700h116l-109 -586h323l108 586h116l-109 -586h81l-44 -237h-111l23 123h-523z" />
    <glyph glyph-name="afii10041" unicode="&#x427;" horiz-adv-x="661" 
d="M725 700l-129 -700h-115l52 281c-42 -22 -115 -44 -186 -44c-126 0 -225 51 -225 177c0 18 2 37 6 58l42 228h115l-30 -159c-5 -27 -13 -66 -13 -96c0 -64 50 -95 128 -95c63 0 132 17 184 49l56 301h115z" />
    <glyph glyph-name="afii10042" unicode="&#x428;" horiz-adv-x="879" 
d="M66 0l130 700h115l-109 -586h201l108 586h115l-108 -586h200l108 586h115l-129 -700h-746z" />
    <glyph glyph-name="afii10043" unicode="&#x429;" horiz-adv-x="902" 
d="M66 0l130 700h115l-109 -586h201l108 586h115l-108 -586h200l108 586h115l-108 -586h81l-44 -237h-111l23 123h-716z" />
    <glyph glyph-name="afii10044" unicode="&#x42a;" horiz-adv-x="712" 
d="M108 587l21 113h268l-46 -247h149c172 0 237 -78 237 -189c0 -179 -108 -264 -329 -264h-255l108 587h-153zM477 340h-146l-42 -226h143c121 0 183 40 183 136c0 64 -49 90 -138 90z" />
    <glyph glyph-name="afii10045" unicode="&#x42b;" horiz-adv-x="822" 
d="M641 0l129 700h115l-129 -700h-115zM369 340h-125l-42 -226h119c122 0 182 40 182 136c0 60 -43 90 -134 90zM311 700l-46 -247h124c160 0 237 -69 237 -196c0 -193 -149 -257 -330 -257h-230l130 700h115z" />
    <glyph glyph-name="afii10046" unicode="&#x42c;" horiz-adv-x="628" 
d="M397 340h-153l-42 -226h147c116 0 182 37 182 136c0 63 -47 90 -134 90zM311 700l-46 -247h151c160 0 238 -67 238 -195c0 -188 -138 -258 -329 -258h-259l130 700h115z" />
    <glyph glyph-name="afii10047" unicode="&#x42d;" horiz-adv-x="666" 
d="M250 301l21 113h318c2 110 -63 181 -187 181c-93 0 -161 -36 -219 -93l-67 77c72 81 171 129 300 129c191 0 293 -110 293 -283c0 -244 -151 -433 -405 -433c-110 0 -220 35 -272 139l87 69c55 -76 119 -95 195 -95c152 0 234 98 259 196h-323z" />
    <glyph glyph-name="afii10048" unicode="&#x42e;" horiz-adv-x="947" 
d="M66 0l130 700h115l-54 -291h77c47 164 173 299 371 299c184 0 283 -120 283 -290c0 -232 -152 -426 -381 -426c-197 0 -301 141 -290 312h-80l-56 -304h-115zM439 302c0 -117 67 -197 178 -197c154 0 249 142 249 296c0 116 -63 194 -167 194c-168 0 -260 -151 -260 -293
z" />
    <glyph glyph-name="afii10049" unicode="&#x42f;" horiz-adv-x="656" 
d="M475 0l46 246h-138l-232 -246h-148l255 267c-77 29 -126 84 -126 179c0 166 133 254 316 254h271l-129 -700h-115zM366 359h175l42 228h-164c-120 0 -164 -61 -164 -131c0 -53 39 -93 111 -97z" />
    <glyph glyph-name="afii10065" unicode="&#x430;" horiz-adv-x="571" 
d="M389 0l13 63c-22 -30 -81 -69 -159 -69c-122 0 -195 86 -195 207c0 208 156 331 302 331c70 0 110 -18 129 -35l4 23h104l-97 -520h-101zM279 99c60 0 112 41 138 83l41 203c-16 23 -51 42 -106 42c-99 0 -190 -83 -190 -209c0 -81 48 -119 117 -119z" />
    <glyph glyph-name="afii10066" unicode="&#x431;" horiz-adv-x="579" 
d="M603 743v-98c-89 -27 -197 -5 -294 -46c-66 -28 -116 -109 -133 -182c41 64 123 106 210 106c129 0 197 -78 197 -199c0 -210 -142 -334 -297 -334c-146 0 -232 108 -232 244c0 206 68 389 216 457c113 52 234 32 333 52zM175 294c-8 -26 -10 -35 -10 -56
c0 -84 54 -142 131 -142c92 0 172 88 172 204c0 62 -29 117 -109 117c-73 0 -153 -57 -184 -123z" />
    <glyph glyph-name="afii10067" unicode="&#x432;" horiz-adv-x="535" 
d="M538 393c0 -53 -32 -92 -80 -121c41 -20 62 -54 62 -92c0 -113 -103 -191 -247 -191c-147 0 -225 90 -225 223c0 185 146 322 307 322c115 0 183 -47 183 -141zM406 179c0 23 -18 40 -52 48c-62 -18 -130 -29 -190 -36c10 -63 50 -96 117 -96c70 0 127 35 125 84z
M366 428c-90 0 -165 -53 -193 -133c117 13 251 46 251 92c0 28 -23 41 -58 41z" />
    <glyph glyph-name="afii10068" unicode="&#x433;" horiz-adv-x="472" 
d="M143 142c0 -24 23 -45 70 -45c93 0 161 35 195 82l56 -74c-44 -63 -134 -114 -238 -114c-132 0 -196 67 -196 147c0 215 333 149 333 244c0 25 -23 46 -71 46c-56 0 -115 -20 -161 -65l-62 72c41 58 132 99 232 99c94 0 176 -38 176 -139c0 -220 -334 -149 -334 -253z
" />
    <glyph glyph-name="afii10069" unicode="&#x434;" horiz-adv-x="571" 
d="M39 201c0 193 142 330 303 330c60 0 103 -13 126 -39c-14 90 -106 136 -242 123l11 96c187 10 345 -58 345 -294c0 -245 -120 -428 -319 -428c-126 0 -224 74 -224 212zM152 214c0 -84 61 -118 114 -118c113 0 201 112 202 265c-14 38 -69 64 -128 64
c-93 0 -188 -81 -188 -211z" />
    <glyph glyph-name="afii10070" unicode="&#x435;" horiz-adv-x="533" 
d="M435 159l64 -63c-53 -76 -146 -105 -231 -105c-131 0 -220 88 -220 221c0 185 147 320 307 320c116 0 184 -48 184 -143c0 -113 -115 -182 -276 -182c-32 0 -66 2 -101 8c5 -78 55 -119 127 -119c63 0 111 22 146 63zM347 427c-71 0 -140 -48 -170 -121
c29 -4 56 -5 80 -5c115 0 168 38 168 76c0 29 -23 50 -78 50z" />
    <glyph glyph-name="afii10072" unicode="&#x436;" horiz-adv-x="722" 
d="M232 291l-151 229h125l134 -203l38 203h107l-37 -204l212 204h131l-247 -239l155 -281h-119l-120 217l-36 -30l-34 -187h-108l35 186l-20 27l-194 -213h-129z" />
    <glyph glyph-name="afii10073" unicode="&#x437;" horiz-adv-x="482" 
d="M223 -10c-117 0 -184 53 -213 130l84 54c19 -50 69 -81 138 -81c59 0 118 26 119 75c1 34 -20 47 -79 47h-101l18 99h105c39 0 80 25 80 66c0 38 -36 50 -86 50c-71 0 -116 -30 -153 -68l-60 70c50 55 126 101 240 101c115 0 172 -50 172 -124c0 -56 -29 -105 -78 -133
c35 -14 56 -48 56 -94c0 -113 -108 -192 -242 -192z" />
    <glyph glyph-name="afii10074" unicode="&#x438;" horiz-adv-x="550" 
d="M568 520l-98 -520h-108l10 55c-37 -36 -89 -64 -155 -64c-106 0 -168 55 -168 147c0 25 4 55 10 86l62 296h108l-60 -285c-3 -17 -6 -38 -6 -57c1 -51 20 -82 85 -82c61 0 110 33 148 91l64 333h108z" />
    <glyph glyph-name="afii10075" unicode="&#x439;" horiz-adv-x="550" 
d="M568 520l-98 -520h-108l10 55c-37 -36 -89 -64 -155 -64c-106 0 -168 55 -168 147c0 25 4 55 10 86l62 296h108l-60 -285c-3 -17 -6 -38 -6 -57c1 -51 20 -82 85 -82c61 0 110 33 148 91l64 333h108zM210 741h95c-6 -40 12 -68 57 -68c46 0 71 27 80 68h98
c-13 -81 -66 -156 -191 -156c-88 0 -157 52 -139 156z" />
    <glyph glyph-name="afii10076" unicode="&#x43a;" horiz-adv-x="509" 
d="M22 0l100 520h107l-41 -213l250 213h146l-283 -241l192 -279h-128l-152 217l-47 -40l-37 -177h-107z" />
    <glyph glyph-name="afii10077" unicode="&#x43b;" horiz-adv-x="560" 
d="M369 0l79 414h-166l-18 -82c-63 -286 -171 -342 -278 -336l11 108c42 -3 123 18 173 287l24 129h382l-99 -520h-108z" />
    <glyph glyph-name="afii10078" unicode="&#x43c;" horiz-adv-x="646" 
d="M32 0l99 520h91l128 -235l215 235h97l-99 -520h-107l63 324l-189 -205l-127 213l-64 -332h-107z" />
    <glyph glyph-name="afii10079" unicode="&#x43d;" horiz-adv-x="566" 
d="M378 0l39 211h-238l-39 -211h-108l96 520h108l-38 -204h239l37 204h108l-96 -520h-108z" />
    <glyph glyph-name="afii10080" unicode="&#x43e;" horiz-adv-x="589" 
d="M48 206c0 193 146 326 313 326c142 0 228 -94 228 -216c0 -193 -135 -325 -307 -325c-148 0 -234 93 -234 215zM162 229c0 -81 50 -132 134 -132c87 0 179 78 179 204c0 77 -50 125 -127 125c-86 0 -186 -78 -186 -197z" />
    <glyph glyph-name="afii10081" unicode="&#x43f;" horiz-adv-x="563" 
d="M32 0l95 520h108l-8 -50c38 35 100 61 161 61c107 0 169 -53 169 -158c0 -25 -4 -58 -9 -88l-57 -285h-108l56 278c3 18 6 37 6 61c1 60 -30 87 -101 87c-59 0 -109 -35 -142 -87l-63 -339h-107z" />
    <glyph glyph-name="afii10082" unicode="&#x440;" horiz-adv-x="572" 
d="M-12 -200l132 720h107l-9 -47c39 41 98 59 147 59c149 0 207 -101 207 -217c0 -193 -135 -324 -314 -324c-50 0 -101 15 -121 43l-43 -234h-106zM334 427c-63 0 -112 -41 -141 -86l-33 -184c17 -41 57 -61 106 -61c109 0 193 78 193 200c0 74 -39 131 -125 131z" />
    <glyph glyph-name="afii10083" unicode="&#x441;" horiz-adv-x="515" 
d="M434 170l73 -60c-56 -88 -151 -119 -236 -119c-131 0 -223 88 -223 221c0 185 132 320 298 320c109 0 176 -56 195 -121l-84 -52c-24 47 -63 68 -119 68c-98 0 -176 -83 -176 -201c0 -85 55 -130 130 -130c63 0 106 30 142 74z" />
    <glyph glyph-name="afii10084" unicode="&#x442;" horiz-adv-x="817" 
d="M806 345l-68 -345h-108l62 313c2 15 4 30 4 46c1 38 -18 67 -66 67c-54 0 -95 -32 -126 -81l-65 -345h-108l64 338c10 51 -12 88 -61 88c-62 0 -109 -46 -132 -86l-63 -340h-107l96 520h107l-10 -52c35 38 89 63 146 63c62 0 104 -24 125 -70c47 47 94 70 167 70
c86 0 146 -42 148 -133c0 -16 -2 -34 -5 -53z" />
    <glyph glyph-name="afii10085" unicode="&#x443;" horiz-adv-x="504" 
d="M0 -192l57 95c6 -4 13 -6 21 -6c26 0 55 28 92 92l26 47l-151 484h120l105 -351l196 351h122l-288 -505c-98 -172 -156 -224 -233 -224c-29 0 -51 6 -67 17z" />
    <glyph glyph-name="afii10086" unicode="&#x444;" horiz-adv-x="708" 
d="M239 -200l35 190c-140 0 -226 96 -226 223c0 181 142 316 314 316h12l37 201h108l-37 -201c160 0 226 -96 226 -214c0 -202 -151 -325 -320 -325h-6l-35 -190h-108zM162 222c0 -73 40 -126 132 -126l60 327h-7c-109 0 -185 -84 -185 -201zM461 423l-60 -327h6
c106 0 188 82 188 208c0 61 -30 119 -134 119z" />
    <glyph glyph-name="afii10087" unicode="&#x445;" horiz-adv-x="527" 
d="M592 520l-236 -253l149 -267h-128l-101 184l-170 -184h-133l247 268l-142 252h127l95 -167l156 167h136z" />
    <glyph glyph-name="afii10088" unicode="&#x446;" horiz-adv-x="560" 
d="M570 520l-80 -414h75l-42 -225h-101l23 119h-83l10 55c-37 -36 -89 -64 -155 -64c-106 0 -168 55 -168 147c0 25 4 55 10 86l64 296h108l-62 -285c-3 -17 -6 -38 -6 -57c1 -51 20 -82 85 -82c61 0 110 33 148 91l66 333h108z" />
    <glyph glyph-name="afii10089" unicode="&#x447;" horiz-adv-x="526" 
d="M542 520l-100 -520h-108l38 204c-37 -30 -90 -48 -155 -48c-88 0 -153 43 -153 141c0 20 2 43 7 66l34 157h108l-27 -118c-4 -22 -9 -48 -9 -75c1 -46 34 -65 78 -65c63 0 108 23 139 59l40 199h108z" />
    <glyph glyph-name="afii10090" unicode="&#x448;" horiz-adv-x="776" 
d="M53 175l68 345h108l-61 -313c-3 -15 -5 -30 -5 -46c0 -38 11 -66 53 -66c51 0 89 31 119 80l67 345h108l-66 -338c-10 -51 0 -87 48 -87c62 0 102 45 125 85l67 340h108l-100 -520h-108l9 48c-33 -35 -81 -59 -138 -59c-62 0 -91 24 -112 70c-46 -47 -90 -70 -160 -70
c-76 0 -133 42 -134 133c0 16 1 34 4 53z" />
    <glyph glyph-name="afii10091" unicode="&#x449;" horiz-adv-x="782" 
d="M53 175l68 345h108l-61 -313c-3 -15 -5 -30 -5 -46c0 -38 11 -66 53 -66c51 0 89 31 119 80l67 345h108l-66 -338c-10 -51 0 -87 48 -87c62 0 102 45 125 85l67 340h108l-80 -414h65l-42 -225h-100l22 119h-73l9 48c-33 -35 -81 -59 -138 -59c-62 0 -91 24 -112 70
c-46 -47 -90 -70 -160 -70c-76 0 -133 42 -134 133c0 16 1 34 4 53z" />
    <glyph glyph-name="afii10092" unicode="&#x44a;" horiz-adv-x="544" 
d="M42 420l18 100h229l-27 -149h81c147 0 201 -61 201 -144c0 -137 -88 -227 -288 -227h-176l83 420h-121zM330 265h-88l-35 -165h89c83 0 133 43 133 97c0 45 -15 68 -99 68z" />
    <glyph glyph-name="afii10093" unicode="&#x44b;" horiz-adv-x="672" 
d="M32 0l96 520h108l-28 -151h72c144 0 193 -55 193 -145c0 -134 -91 -224 -260 -224h-181zM262 269h-73l-31 -169h76c79 0 126 42 126 104c0 37 -21 65 -98 65zM485 0l96 520h107l-96 -520h-107z" />
    <glyph glyph-name="afii10094" unicode="&#x44c;" horiz-adv-x="491" 
d="M32 0l96 520h108l-28 -151h89c145 0 194 -55 194 -145c0 -134 -92 -224 -260 -224h-199zM279 269h-90l-31 -169h94c78 0 125 42 125 104c0 37 -21 65 -98 65z" />
    <glyph glyph-name="afii10095" unicode="&#x44d;" horiz-adv-x="522" 
d="M163 216l19 99h229c-1 79 -50 112 -128 112c-49 0 -113 -21 -159 -77l-69 68c69 80 158 114 242 114c160 0 225 -99 225 -216c0 -201 -135 -327 -312 -327c-92 0 -170 36 -208 118l84 57c29 -48 70 -70 124 -70c95 0 161 49 185 122h-232z" />
    <glyph glyph-name="afii10096" unicode="&#x44e;" horiz-adv-x="773" 
d="M32 0l96 520h108l-38 -202h74c41 131 157 214 281 214c149 0 220 -97 220 -209c0 -221 -143 -332 -295 -332c-136 0 -226 83 -225 224h-74l-39 -215h-108zM365 220c0 -73 49 -124 125 -124c86 0 169 77 169 203c0 78 -42 128 -120 128c-89 0 -174 -85 -174 -207z" />
    <glyph glyph-name="afii10097" unicode="&#x44f;" horiz-adv-x="518" 
d="M330 520h204l-99 -520h-107l33 171h-87l-159 -171h-131l177 190c-56 22 -87 74 -87 133c0 103 75 197 256 197zM188 335c0 -35 23 -64 81 -64h109l30 149h-105c-71 0 -115 -39 -115 -85z" />
    <glyph glyph-name="afii10071" unicode="&#x451;" horiz-adv-x="533" 
d="M435 159l64 -63c-53 -76 -146 -105 -231 -105c-131 0 -220 88 -220 221c0 185 147 320 307 320c116 0 184 -48 184 -143c0 -113 -115 -182 -276 -182c-32 0 -66 2 -101 8c5 -78 55 -119 127 -119c63 0 111 22 146 63zM347 427c-71 0 -140 -48 -170 -121
c29 -4 56 -5 80 -5c115 0 168 38 168 76c0 29 -23 50 -78 50zM422 669c0 33 26 61 62 61c34 0 63 -28 63 -61c0 -34 -29 -59 -63 -59c-36 0 -62 25 -62 59zM213 669c0 33 27 61 62 61s63 -28 63 -61c0 -34 -28 -59 -63 -59s-62 25 -62 59z" />
    <glyph glyph-name="afii10099" unicode="&#x452;" horiz-adv-x="563" 
d="M19 520l20 103h122l20 107h107l-19 -107h199l-19 -103h-200l-29 -156c45 38 98 57 154 57c128 0 175 -74 175 -166c0 -200 -128 -375 -293 -462l-49 79c142 80 226 215 226 346c0 52 -13 98 -99 98c-48 0 -108 -39 -138 -86l-42 -230h-108l96 520h-123z" />
    <glyph glyph-name="afii10100" unicode="&#x453;" horiz-adv-x="472" 
d="M143 142c0 -24 23 -45 70 -45c93 0 161 35 195 82l56 -74c-44 -63 -134 -114 -238 -114c-132 0 -196 67 -196 147c0 215 333 149 333 244c0 25 -23 46 -71 46c-56 0 -115 -20 -161 -65l-62 72c41 58 132 99 232 99c94 0 176 -38 176 -139c0 -220 -334 -149 -334 -253z
M518 755l-149 -157l-64 54l140 167z" />
    <glyph glyph-name="afii10101" unicode="&#x454;" horiz-adv-x="514" 
d="M381 315l-17 -99h-214c0 -85 59 -120 135 -120c60 0 102 25 138 67l73 -55c-57 -88 -151 -117 -237 -117c-139 0 -219 99 -219 213c0 201 138 328 322 328c82 0 156 -31 187 -106l-88 -56c-23 38 -66 57 -111 57c-86 0 -148 -40 -179 -112h210z" />
    <glyph glyph-name="afii10102" unicode="&#x455;" horiz-adv-x="450" 
d="M312 148c0 88 -224 62 -224 224c0 105 93 160 192 160c112 0 169 -44 198 -87l-73 -74c-26 34 -70 55 -115 55c-50 0 -88 -16 -88 -51c0 -74 224 -51 224 -220c0 -120 -112 -164 -200 -164c-110 0 -191 54 -222 126l86 61c23 -50 72 -81 143 -81c40 0 79 16 79 51z" />
    <glyph glyph-name="afii10103" unicode="&#x456;" horiz-adv-x="225" 
d="M32 0l96 520h108l-96 -520h-108zM145 669c0 33 26 61 61 61s64 -28 64 -61c0 -34 -29 -59 -64 -59s-61 25 -61 59z" />
    <glyph glyph-name="afii10104" unicode="&#x457;" horiz-adv-x="240" 
d="M66 0l96 520h109l-96 -520h-109zM258 669c0 33 26 61 62 61c34 0 63 -28 63 -61c0 -34 -29 -59 -63 -59c-36 0 -62 25 -62 59zM89 669c0 33 27 61 62 61s63 -28 63 -61c0 -34 -28 -59 -63 -59s-62 25 -62 59z" />
    <glyph glyph-name="afii10105" unicode="&#x458;" horiz-adv-x="231" 
d="M244 520l-96 -521c-24 -130 -90 -208 -201 -208c-69 0 -121 30 -137 102l98 41c8 -19 19 -38 50 -38c42 0 70 35 83 106l95 518h108zM151 669c0 33 26 61 62 61c34 0 63 -28 63 -61c0 -34 -29 -59 -63 -59c-36 0 -62 25 -62 59z" />
    <glyph glyph-name="afii10106" unicode="&#x459;" horiz-adv-x="789" 
d="M367 0l76 414h-163l-19 -81c-70 -273 -162 -338 -277 -337l11 103c31 -1 110 30 164 254l41 167h371l-30 -157h61c141 0 179 -64 179 -132c0 -136 -87 -231 -253 -231h-161zM576 263h-52l-31 -163h59c80 0 114 48 114 97c0 43 -14 66 -90 66z" />
    <glyph glyph-name="afii10107" unicode="&#x45a;" horiz-adv-x="793" 
d="M26 0l96 520h108l-35 -184h238l34 184h108l-34 -184h59c155 0 182 -56 182 -131c0 -115 -89 -205 -250 -205h-161l45 236h-237l-45 -236h-108zM575 237h-51l-28 -137h50c79 0 121 34 121 82c0 36 -16 55 -92 55z" />
    <glyph glyph-name="afii10108" unicode="&#x45b;" horiz-adv-x="579" 
d="M26 520l18 103h122l21 107h107l-20 -107h199l-18 -103h-200l-29 -163c43 41 97 58 156 58c107 0 168 -49 168 -158c0 -26 -4 -52 -9 -80l-32 -177h-108l32 169c3 18 5 37 5 55c1 52 -24 85 -95 85c-52 0 -111 -30 -142 -84l-41 -225h-108l96 520h-122z" />
    <glyph glyph-name="afii10109" unicode="&#x45c;" horiz-adv-x="509" 
d="M22 0l100 520h107l-41 -213l250 213h146l-283 -241l192 -279h-128l-152 217l-47 -40l-37 -177h-107zM528 755l-149 -157l-64 54l140 167z" />
    <glyph glyph-name="afii10110" unicode="&#x45e;" horiz-adv-x="504" 
d="M0 -192l57 95c6 -4 13 -6 21 -6c26 0 55 28 92 92l26 47l-151 484h120l105 -351l196 351h122l-288 -505c-98 -172 -156 -224 -233 -224c-29 0 -51 6 -67 17zM185 741h95c-6 -40 12 -68 57 -68c46 0 71 27 80 68h98c-13 -81 -66 -156 -191 -156c-88 0 -157 52 -139 156z
" />
    <glyph glyph-name="afii10193" unicode="&#x45f;" horiz-adv-x="550" 
d="M201 -48h100l-20 -107h-101zM568 520l-98 -520h-108l10 55c-37 -36 -89 -64 -155 -64c-106 0 -168 55 -168 147c0 25 4 55 10 86l62 296h108l-60 -285c-3 -17 -6 -38 -6 -57c1 -51 20 -82 85 -82c61 0 110 33 148 91l64 333h108z" />
    <glyph glyph-name="afii10146" unicode="&#x462;" horiz-adv-x="681" 
d="M93 502l21 113h120l15 85h115l-15 -85h215l-21 -113h-215l-15 -75h152c160 0 240 -54 240 -176c0 -187 -124 -251 -327 -251h-258l93 502h-120zM442 313h-149l-37 -199h147c120 0 179 30 179 121c0 59 -49 78 -140 78z" />
    <glyph glyph-name="afii10194" unicode="&#x463;" horiz-adv-x="791" 
d="M327 0l63 338c2 11 2 25 2 35c-1 35 -18 52 -64 52c-62 0 -109 -45 -132 -85l-62 -340h-108l96 520h108l-10 -52c34 38 89 63 151 63c91 0 134 -49 134 -119c0 -18 -2 -31 -3 -43h91c144 0 194 -55 194 -145c0 -134 -92 -224 -260 -224h-200zM574 269h-90l-31 -169h96
c78 0 124 42 124 104c0 37 -22 65 -99 65z" />
    <glyph glyph-name="afii10147" unicode="&#x472;" horiz-adv-x="743" 
d="M89 290c0 235 163 418 406 418c193 0 288 -137 288 -297c0 -261 -183 -419 -402 -419c-169 0 -292 108 -292 298zM391 108c150 0 229 99 257 187h-438c2 -114 79 -187 181 -187zM481 592c-136 0 -221 -87 -255 -183h436c0 87 -56 183 -181 183z" />
    <glyph glyph-name="afii10195" unicode="&#x473;" horiz-adv-x="791" 
d="M327 0l63 338c2 11 2 25 2 35c-1 35 -18 52 -64 52c-62 0 -109 -45 -132 -85l-62 -340h-108l96 520h108l-10 -52c34 38 89 63 151 63c91 0 134 -49 134 -119c0 -18 -2 -31 -3 -43h91c144 0 194 -55 194 -145c0 -134 -92 -224 -260 -224h-200zM574 269h-90l-31 -169h96
c78 0 124 42 124 104c0 37 -22 65 -99 65z" />
    <glyph glyph-name="afii10148" unicode="&#x474;" horiz-adv-x="731" 
d="M708 514l-317 -514h-81l-187 700h120l134 -517l234 384c53 86 109 141 187 141c28 0 57 -8 80 -28l-53 -99c-9 6 -21 10 -33 10c-24 -1 -52 -23 -84 -77z" />
    <glyph glyph-name="afii10196" unicode="&#x475;" horiz-adv-x="539" 
d="M457 331l-200 -331h-80l-134 520h115l87 -347l141 237c49 82 104 117 161 116c34 -1 60 -12 79 -37l-62 -86c-7 8 -15 11 -25 11c-20 0 -46 -24 -82 -83z" />
    <glyph glyph-name="afii10050" unicode="&#x490;" horiz-adv-x="553" 
d="M66 0l130 700h376l23 121h108l-44 -234h-369l-109 -587h-115z" />
    <glyph glyph-name="afii10098" unicode="&#x491;" horiz-adv-x="423" 
d="M22 0l96 520h271l19 100h101l-39 -206h-265l-75 -414h-108z" />
    <glyph glyph-name="uni1E9E" unicode="&#x1e9e;" horiz-adv-x="623" 
d="M436 708c133 0 213 -66 224 -160l-158 -154c91 -19 132 -83 130 -157c-5 -181 -130 -247 -266 -247c-48 0 -89 13 -114 27l47 106c21 -12 48 -19 78 -19c88 0 136 48 136 119c0 53 -41 80 -114 80h-42l17 91l157 155c-19 25 -46 46 -109 46c-104 0 -148 -76 -165 -166
l-72 -429h-115l76 448c33 176 118 260 290 260z" />
    <glyph glyph-name="uni2010" unicode="&#x2010;" horiz-adv-x="416" 
d="M129 227v101h278v-101h-278z" />
    <glyph glyph-name="uni2011" unicode="&#x2011;" horiz-adv-x="416" 
d="M129 227v101h278v-101h-278z" />
    <glyph glyph-name="figuredash" unicode="&#x2012;" horiz-adv-x="607" 
d="M145 311v99h437v-99h-437z" />
    <glyph glyph-name="endash" unicode="&#x2013;" horiz-adv-x="607" 
d="M145 227v99h437v-99h-437z" />
    <glyph glyph-name="emdash" unicode="&#x2014;" horiz-adv-x="796" 
d="M145 227v99h626v-99h-626z" />
    <glyph glyph-name="quoteleft" unicode="&#x2018;" horiz-adv-x="235" 
d="M272 529l-98 -58c-18 20 -27 49 -27 77c0 87 74 152 136 188l41 -49c-37 -30 -65 -64 -65 -104c0 -17 5 -40 13 -54z" />
    <glyph glyph-name="quoteright" unicode="&#x2019;" horiz-adv-x="235" 
d="M183 679l98 58c18 -20 27 -49 27 -77c0 -87 -74 -152 -136 -188l-41 49c37 30 65 64 65 104c0 17 -5 40 -13 54z" />
    <glyph glyph-name="quotesinglbase" unicode="&#x201a;" horiz-adv-x="235" 
d="M73 73l98 58c18 -20 27 -49 27 -77c0 -87 -74 -152 -136 -188l-41 49c37 30 65 64 65 104c0 17 -5 40 -13 54z" />
    <glyph glyph-name="quotedblleft" unicode="&#x201c;" horiz-adv-x="403" 
d="M272 529l-98 -58c-18 20 -27 49 -27 77c0 87 74 152 136 188l41 -49c-37 -30 -65 -64 -65 -104c0 -17 5 -40 13 -54zM441 529l-98 -58c-18 20 -27 49 -27 77c0 87 74 152 136 188l41 -49c-37 -30 -65 -64 -65 -104c0 -17 5 -40 13 -54z" />
    <glyph glyph-name="quotedblright" unicode="&#x201d;" horiz-adv-x="403" 
d="M353 677l98 58c18 -20 27 -49 27 -77c0 -87 -74 -152 -136 -188l-41 49c37 30 65 64 65 104c0 17 -5 40 -13 54zM184 677l98 58c18 -20 27 -49 27 -77c0 -87 -74 -152 -136 -188l-41 49c37 30 65 64 65 104c0 17 -5 40 -13 54z" />
    <glyph glyph-name="quotedblbase" unicode="&#x201e;" horiz-adv-x="403" 
d="M241 73l98 58c18 -20 27 -49 27 -77c0 -87 -74 -152 -136 -188l-41 49c37 30 65 64 65 104c0 17 -5 40 -13 54zM72 73l98 58c18 -20 27 -49 27 -77c0 -87 -74 -152 -136 -188l-41 49c37 30 65 64 65 104c0 17 -5 40 -13 54z" />
    <glyph glyph-name="dagger" unicode="&#x2020;" horiz-adv-x="458" 
d="M93 386v106h139v208h114v-208h139v-106h-139v-478h-114v478h-139z" />
    <glyph glyph-name="daggerdbl" unicode="&#x2021;" horiz-adv-x="458" 
d="M93 386v106h139v208h114v-208h139v-106h-139v-137h139v-106h-139v-235h-114v235h-139v106h139v137h-139z" />
    <glyph glyph-name="bullet" unicode="&#x2022;" horiz-adv-x="302" 
d="M111 361c0 45 40 80 88 80c46 0 86 -35 86 -80c0 -44 -40 -81 -86 -81c-48 0 -88 37 -88 81z" />
    <glyph glyph-name="ellipsis" unicode="&#x2026;" horiz-adv-x="795" 
d="M664 62c0 30 28 62 70 62c38 0 67 -32 67 -62c0 -33 -29 -64 -67 -64c-42 0 -70 31 -70 64zM389 62c0 30 28 62 70 62c39 0 67 -32 67 -62c0 -33 -28 -64 -67 -64c-42 0 -70 31 -70 64zM114 62c0 30 28 62 70 62c38 0 68 -32 68 -62c0 -33 -30 -64 -68 -64
c-42 0 -70 31 -70 64z" />
    <glyph glyph-name="perthousand" unicode="&#x2030;" horiz-adv-x="1332" 
d="M97 525c0 105 83 178 192 178s191 -73 191 -178c0 -104 -82 -177 -191 -177s-192 73 -192 177zM210 525c0 -50 38 -82 79 -82c43 0 78 32 78 82c0 49 -36 81 -78 81s-79 -32 -79 -81zM217 34l515 689l82 -58l-515 -688zM547 174c0 105 83 177 192 177
c108 0 191 -72 191 -177c0 -104 -83 -178 -191 -178c-109 0 -192 74 -192 178zM660 174c0 -49 38 -81 79 -81c42 0 78 32 78 81c0 50 -37 82 -78 82c-42 0 -79 -32 -79 -82zM972 174c0 105 83 177 192 177s191 -72 191 -177c0 -104 -82 -178 -191 -178s-192 74 -192 178z
M1085 174c0 -49 38 -81 79 -81c43 0 78 32 78 81c0 50 -36 82 -78 82s-79 -32 -79 -82z" />
    <glyph glyph-name="guilsinglleft" unicode="&#x2039;" horiz-adv-x="325" 
d="M228 38l-145 218l1 6l206 212l62 -69l-146 -153l103 -153z" />
    <glyph glyph-name="guilsinglright" unicode="&#x203a;" horiz-adv-x="325" 
d="M183 474l145 -218l-1 -6l-206 -212l-62 69l146 153l-103 153z" />
    <glyph glyph-name="fraction" unicode="&#x2044;" horiz-adv-x="332" 
d="M-90 48l549 672l83 -66l-547 -676z" />
    <glyph glyph-name="uni2070" unicode="&#x2070;" horiz-adv-x="459" 
d="M129 467c0 142 87 257 223 257c110 0 165 -71 165 -171c0 -149 -92 -257 -224 -257c-108 0 -164 71 -164 171zM232 483c0 -56 24 -90 71 -90c64 0 112 55 112 149c0 54 -22 85 -71 85c-70 0 -112 -59 -112 -144z" />
    <glyph glyph-name="uni2074" unicode="&#x2074;" horiz-adv-x="430" 
d="M300 300l14 76h-233l13 73l295 271h83l-47 -253h73l-17 -91h-73l-14 -76h-94zM218 467h113l22 119z" />
    <glyph glyph-name="uni2075" unicode="&#x2075;" horiz-adv-x="395" 
d="M144 471l67 249h264l-17 -94h-185l-17 -57c12 3 28 5 52 5c83 0 131 -46 131 -114c0 -100 -70 -165 -185 -165c-77 0 -134 25 -159 81l77 57c17 -33 48 -44 89 -44c48 0 76 20 76 56c0 29 -28 45 -77 45c-43 0 -81 -9 -116 -19z" />
    <glyph glyph-name="uni2076" unicode="&#x2076;" horiz-adv-x="446" 
d="M128 458c0 170 105 267 243 267c73 0 114 -20 143 -43l-49 -73c-28 15 -64 25 -106 25c-64 0 -110 -39 -121 -95c31 27 70 46 123 46c90 0 138 -48 138 -116c0 -98 -70 -174 -198 -174c-106 0 -173 58 -173 163zM235 457c-3 -36 21 -68 74 -68c52 0 88 24 88 63
c0 31 -30 45 -71 45c-47 0 -75 -18 -91 -40z" />
    <glyph glyph-name="uni2077" unicode="&#x2077;" horiz-adv-x="367" 
d="M134 622l18 98h329l-15 -75l-246 -345h-116l236 322h-206z" />
    <glyph glyph-name="uni2078" unicode="&#x2078;" horiz-adv-x="460" 
d="M323 556h19c36 0 66 15 66 44c0 23 -21 34 -62 34c-48 0 -74 -15 -74 -44c0 -23 20 -34 51 -34zM326 475h-16c-51 0 -80 -20 -80 -50c0 -25 27 -39 74 -39c57 0 90 14 90 50c0 26 -27 39 -68 39zM291 295c-99 0 -166 40 -166 112c0 45 26 92 83 113c-27 17 -36 40 -36 66
c0 94 87 139 187 139c93 0 152 -41 152 -108c0 -45 -26 -82 -68 -99c34 -14 52 -43 52 -76c0 -93 -78 -147 -204 -147z" />
    <glyph glyph-name="uni2079" unicode="&#x2079;" horiz-adv-x="446" 
d="M504 562c0 -172 -92 -267 -240 -267c-59 0 -112 19 -141 45l51 71c25 -14 54 -25 99 -25c65 0 112 39 122 95c-30 -27 -70 -46 -123 -46c-83 0 -137 48 -137 125c0 94 85 165 198 165c107 0 171 -58 171 -163zM398 563c4 36 -21 68 -74 68c-51 0 -87 -24 -87 -63
c0 -31 30 -45 70 -45c47 0 76 18 91 40z" />
    <glyph glyph-name="uni207A" unicode="&#x207a;" horiz-adv-x="437" 
d="M143 468v94h114v113h101v-113h115v-94h-115v-113h-101v113h-114z" />
    <glyph glyph-name="uni207B" unicode="&#x207b;" horiz-adv-x="421" 
d="M143 469v94h315v-94h-315z" />
    <glyph glyph-name="uni207C" unicode="&#x207c;" horiz-adv-x="409" 
d="M143 541v88h303v-88h-303zM143 402v88h303v-88h-303z" />
    <glyph glyph-name="uni207D" unicode="&#x207d;" horiz-adv-x="262" 
d="M293 249l-70 -57c-69 68 -101 152 -101 233c0 124 69 231 204 325l50 -67c-83 -66 -152 -150 -152 -247c0 -74 25 -130 69 -187z" />
    <glyph glyph-name="uni207E" unicode="&#x207e;" horiz-adv-x="261" 
d="M142 693l70 57c69 -68 101 -152 101 -233c0 -124 -69 -231 -204 -325l-50 67c83 66 152 150 152 247c0 74 -25 130 -69 187z" />
    <glyph glyph-name="uni2080" unicode="&#x2080;" horiz-adv-x="459" 
d="M56 67c0 142 87 257 223 257c110 0 165 -71 165 -171c0 -149 -92 -257 -224 -257c-108 0 -164 71 -164 171zM159 83c0 -56 24 -90 71 -90c64 0 112 55 112 149c0 54 -22 85 -71 85c-70 0 -112 -59 -112 -144z" />
    <glyph glyph-name="uni2081" unicode="&#x2081;" horiz-adv-x="299" 
d="M56 253l166 68h73l-77 -421h-100l56 300l-98 -39z" />
    <glyph glyph-name="uni2082" unicode="&#x2082;" horiz-adv-x="400" 
d="M137 167l-67 47c28 64 97 110 184 110c94 0 139 -42 139 -115c0 -82 -71 -140 -141 -182l-55 -33h171l-17 -94h-328l15 81l93 54c84 48 157 99 157 154c0 27 -16 41 -48 41c-46 0 -75 -22 -103 -63z" />
    <glyph glyph-name="uni2083" unicode="&#x2083;" horiz-adv-x="408" 
d="M134 179l-59 57c38 59 108 89 181 89c95 0 145 -35 145 -101c0 -41 -26 -83 -80 -102c26 -9 56 -28 56 -77c0 -103 -93 -150 -184 -150c-84 0 -146 30 -167 104l78 46c17 -39 45 -56 94 -56c50 0 78 16 78 48c0 26 -29 34 -65 34h-45l15 81h37c49 0 76 18 76 49
c0 19 -16 30 -48 30c-51 0 -81 -17 -112 -52z" />
    <glyph glyph-name="uni2084" unicode="&#x2084;" horiz-adv-x="430" 
d="M226 -100l14 76h-233l13 73l295 271h83l-47 -253h73l-17 -91h-73l-14 -76h-94zM144 67h113l22 119z" />
    <glyph glyph-name="uni2085" unicode="&#x2085;" horiz-adv-x="395" 
d="M70 71l67 249h264l-17 -94h-185l-17 -57c12 3 28 5 52 5c83 0 131 -46 131 -114c0 -100 -70 -165 -185 -165c-77 0 -134 25 -159 81l77 57c17 -33 48 -44 89 -44c48 0 76 20 76 56c0 29 -28 45 -77 45c-43 0 -81 -9 -116 -19z" />
    <glyph glyph-name="uni2086" unicode="&#x2086;" horiz-adv-x="446" 
d="M54 58c0 170 105 267 243 267c73 0 114 -20 143 -43l-49 -73c-28 15 -64 25 -106 25c-64 0 -110 -39 -121 -95c31 27 70 46 123 46c90 0 138 -48 138 -116c0 -98 -70 -174 -198 -174c-106 0 -173 58 -173 163zM161 57c-3 -36 21 -68 74 -68c52 0 88 24 88 63
c0 31 -30 45 -71 45c-47 0 -75 -18 -91 -40z" />
    <glyph glyph-name="uni2087" unicode="&#x2087;" horiz-adv-x="367" 
d="M61 222l18 98h329l-15 -75l-246 -345h-116l236 322h-206z" />
    <glyph glyph-name="uni2088" unicode="&#x2088;" horiz-adv-x="460" 
d="M249 156h19c36 0 66 15 66 44c0 23 -21 34 -62 34c-48 0 -74 -15 -74 -44c0 -23 20 -34 51 -34zM252 75h-16c-51 0 -80 -20 -80 -50c0 -25 27 -39 74 -39c57 0 90 14 90 50c0 26 -27 39 -68 39zM217 -105c-99 0 -166 40 -166 112c0 45 26 92 83 113c-27 17 -36 40 -36 66
c0 94 87 139 187 139c93 0 152 -41 152 -108c0 -45 -26 -82 -68 -99c34 -14 52 -43 52 -76c0 -93 -78 -147 -204 -147z" />
    <glyph glyph-name="uni2089" unicode="&#x2089;" horiz-adv-x="446" 
d="M431 162c0 -172 -92 -267 -240 -267c-59 0 -112 19 -141 45l51 71c25 -14 54 -25 99 -25c65 0 112 39 122 95c-30 -27 -70 -46 -123 -46c-83 0 -137 48 -137 125c0 94 85 165 198 165c107 0 171 -58 171 -163zM325 163c4 36 -21 68 -74 68c-51 0 -87 -24 -87 -63
c0 -31 30 -45 70 -45c47 0 76 18 91 40z" />
    <glyph glyph-name="uni208A" unicode="&#x208a;" horiz-adv-x="437" 
d="M73 68v94h114v113h101v-113h115v-94h-115v-113h-101v113h-114z" />
    <glyph glyph-name="uni208B" unicode="&#x208b;" horiz-adv-x="421" 
d="M73 69v94h315v-94h-315z" />
    <glyph glyph-name="uni208C" unicode="&#x208c;" horiz-adv-x="409" 
d="M73 141v88h303v-88h-303zM73 2v88h303v-88h-303z" />
    <glyph glyph-name="uni208D" unicode="&#x208d;" horiz-adv-x="262" 
d="M219 -151l-70 -57c-69 68 -101 152 -101 233c0 124 69 231 204 325l50 -67c-83 -66 -152 -150 -152 -247c0 -74 25 -130 69 -187z" />
    <glyph glyph-name="uni208E" unicode="&#x208e;" horiz-adv-x="261" 
d="M68 293l70 57c69 -68 101 -152 101 -233c0 -124 -69 -231 -204 -325l-50 67c83 66 152 150 152 247c0 74 -25 130 -69 187z" />
    <glyph glyph-name="Euro" unicode="&#x20ac;" horiz-adv-x="627" 
d="M90 386l50 98h60c69 141 187 224 352 224c61 0 128 -15 164 -44l-53 -89c-29 16 -71 29 -124 29c-89 0 -170 -39 -217 -120h299l-49 -98h-288c-4 -13 -7 -29 -8 -39c-1 -9 -2 -20 -2 -27h263l-44 -98h-215c18 -93 92 -127 177 -127c33 0 87 11 123 32l15 -95
c-36 -25 -90 -40 -160 -40c-156 0 -259 83 -276 230h-95l48 98c45 0 50 1 50 1c1 3 0 11 2 24c2 16 5 29 8 41h-80z" />
    <glyph glyph-name="uni20B4" unicode="&#x20b4;" horiz-adv-x="579" 
d="M122 397l17 95h309c15 16 25 32 25 55c0 29 -24 49 -74 49c-64 0 -109 -20 -152 -44l-35 89c53 43 126 68 202 68c125 0 182 -47 182 -130c0 -33 -15 -65 -35 -87h61l-17 -95h-121c-44 -33 -98 -55 -133 -74h240l-17 -95h-313c-16 -18 -33 -34 -33 -63
c0 -42 41 -61 97 -61c72 0 134 30 169 62l43 -85c-49 -52 -129 -90 -226 -90c-123 0 -201 49 -201 143c0 30 14 67 33 94h-53l17 95h114c70 38 110 53 146 74h-245z" />
    <glyph glyph-name="uni20BD" unicode="&#x20bd;" horiz-adv-x="584" 
d="M80 295l20 106h98l55 299c16 0 77 1 105 1s57 1 74 1c159 0 219 -74 219 -175c0 -154 -120 -232 -294 -232h-68l-12 -65h160l-20 -106h-160l-22 -124h-112l23 124h-98l20 106h98l12 65h-98zM419 595h-74l-36 -194h66c106 0 158 39 158 117c0 53 -38 77 -114 77z" />
    <glyph glyph-name="afii61352" unicode="&#x2116;" horiz-adv-x="1085" 
d="M622 0h-88l-261 483l-90 -483h-110l129 700h89l261 -486l89 486h110zM758 452c0 123 81 209 201 209c101 0 157 -64 157 -145c0 -133 -91 -210 -201 -210c-94 0 -157 57 -157 146zM861 469c0 -41 25 -66 65 -66c49 0 89 37 89 95c0 40 -27 66 -66 66
c-50 0 -88 -41 -88 -95zM724 154l19 102h306l-19 -102h-306z" />
    <glyph glyph-name="trademark" unicode="&#x2122;" horiz-adv-x="831" 
d="M429 353v347h92l115 -132l110 132h92v-347h-114v170l-89 -108h-3l-89 108v-170h-114zM71 600v100h330v-100h-95v-247h-114v247h-121z" />
    <glyph glyph-name="partialdiff" unicode="&#x2202;" horiz-adv-x="592" 
d="M85 234c0 176 110 286 261 286c69 0 129 -31 157 -81c-5 120 -110 178 -245 167l17 105c214 0 339 -96 339 -323c0 -220 -97 -399 -285 -399c-148 0 -244 107 -244 245zM206 237c0 -99 65 -141 126 -141c85 0 144 84 153 193c-17 74 -70 125 -132 125
c-79 0 -147 -70 -147 -177z" />
    <glyph glyph-name="product" unicode="&#x220f;" horiz-adv-x="882" 
d="M718 -200v784h-434v-784h-124v900h682v-900h-124z" />
    <glyph glyph-name="summation" unicode="&#x2211;" horiz-adv-x="640" 
d="M383 250l-283 364v86h560v-116h-387l253 -334l-261 -334h395v-116h-560v86z" />
    <glyph glyph-name="minus" unicode="&#x2212;" horiz-adv-x="566" 
d="M104 309v101h478v-101h-478z" />
    <glyph glyph-name="uni2215" unicode="&#x2215;" horiz-adv-x="332" 
d="M-90 48l549 672l83 -66l-547 -676z" />
    <glyph glyph-name="radical" unicode="&#x221a;" horiz-adv-x="605" 
d="M61 367v104h178l134 -277l108 506h294v-97h-207l-140 -608h-75l-191 372h-101z" />
    <glyph glyph-name="infinity" unicode="&#x221e;" horiz-adv-x="701" 
d="M570 179c-71 0 -119 36 -159 79c-34 -39 -73 -70 -135 -76c-93 -11 -185 57 -185 160c0 85 66 163 170 163c64 0 109 -36 148 -78c34 38 76 70 141 75c100 12 180 -54 180 -164c0 -75 -52 -159 -160 -159zM562 406c-37 0 -62 -26 -87 -61c29 -37 58 -67 92 -67
c35 0 53 33 53 61c0 37 -19 67 -58 67zM262 278c34 0 59 29 83 62c-28 37 -54 66 -82 66c-38 0 -62 -29 -62 -64c0 -42 34 -64 61 -64z" />
    <glyph glyph-name="integral" unicode="&#x222b;" horiz-adv-x="343" 
d="M148 537c0 149 89 201 181 201c56 0 107 -23 134 -61l-64 -72c-12 15 -31 27 -64 27c-46 0 -74 -28 -74 -98v-541c0 -149 -89 -201 -181 -201c-56 0 -107 23 -134 61l64 73c13 -16 31 -28 64 -28c46 0 74 29 74 99v540z" />
    <glyph glyph-name="approxequal" unicode="&#x2248;" horiz-adv-x="576" 
d="M145 375l-46 76c44 48 97 70 137 70c80 0 137 -58 213 -58c36 0 71 17 104 48l44 -73c-47 -45 -98 -67 -142 -67c-87 0 -143 55 -208 55c-36 0 -71 -23 -102 -51zM145 191l-46 76c44 48 97 70 137 70c80 0 140 -59 213 -59c36 0 71 18 104 49l44 -73
c-47 -46 -98 -68 -142 -68c-87 0 -143 56 -208 56c-36 0 -71 -23 -102 -51z" />
    <glyph glyph-name="notequal" unicode="&#x2260;" horiz-adv-x="566" 
d="M111 402v99h224l81 216l101 -33l-68 -183h127v-99h-165l-32 -86h197v-99h-232l-89 -237l-100 38l76 199h-120v99h154l32 86h-186z" />
    <glyph glyph-name="lessequal" unicode="&#x2264;" horiz-adv-x="498" 
d="M102 245v116l400 -249v-119zM502 184l-400 253v47l400 249v-123l-243 -150l243 -153v-123z" />
    <glyph glyph-name="greaterequal" unicode="&#x2265;" horiz-adv-x="498" 
d="M502 361v-116l-400 -252v119zM502 437l-400 -253v123l243 153l-243 150v123l400 -249v-47z" />
    <glyph glyph-name="lozenge" unicode="&#x25ca;" horiz-adv-x="485" 
d="M254 -3l-167 255l168 268h96l167 -257l-168 -266h-96zM205 253l97 -150l98 160l-98 146z" />
    <glyph glyph-name="uniF350" unicode="&#xf350;" horiz-adv-x="575" 
d="M-2 0l352 560h83l145 -560h-115l-28 109h-245l-68 -109h-124zM363 384l-114 -176h161z" />
    <glyph glyph-name="uniF351" unicode="&#xf351;" horiz-adv-x="537" 
d="M578 560l-20 -109h-308l-19 -101h148c115 0 172 -57 172 -145c0 -145 -101 -205 -270 -205h-226l104 560h419zM336 241h-125l-25 -132h121c86 0 125 25 125 75c0 43 -28 57 -96 57z" />
    <glyph glyph-name="uniF352" unicode="&#xf352;" horiz-adv-x="546" 
d="M55 0l104 560h246c128 0 173 -50 173 -130c0 -62 -31 -109 -87 -136c37 -16 61 -55 61 -103c0 -138 -105 -191 -257 -191h-240zM334 233h-125l-23 -124h119c97 0 131 24 131 74c0 34 -31 50 -102 50zM368 451h-118l-21 -112h128c62 0 99 23 99 64c0 32 -23 48 -88 48z
" />
    <glyph glyph-name="uniF353" unicode="&#xf353;" horiz-adv-x="472" 
d="M55 0l104 560h417l-20 -109h-306l-84 -451h-111z" />
    <glyph glyph-name="uniF354" unicode="&#xf354;" horiz-adv-x="602" 
d="M-19 -105l39 214h62c51 76 94 192 129 380l13 71h407l-83 -451h67l-39 -214h-109l19 105h-379l-19 -105h-107zM313 451l-7 -38c-24 -133 -65 -247 -104 -304h235l63 342h-187z" />
    <glyph glyph-name="uniF355" unicode="&#xf355;" horiz-adv-x="522" 
d="M55 0l104 560h425l-20 -109h-314l-21 -114h293l-19 -106h-294l-23 -122h322l-20 -109h-433z" />
    <glyph glyph-name="uniF356" unicode="&#xf356;" horiz-adv-x="773" 
d="M276 318l-182 242h132l168 -217l38 217h111l-39 -214l227 214h147l-273 -259l170 -301h-127l-132 236l-35 -27l-37 -209h-111l37 209l-26 28l-207 -237h-138z" />
    <glyph glyph-name="uniF357" unicode="&#xf357;" horiz-adv-x="526" 
d="M273 -8c-127 0 -206 36 -249 121l93 61c34 -51 86 -73 168 -73c96 0 137 41 137 79c0 33 -37 51 -117 51h-91l20 109h86c74 0 123 26 123 67c0 34 -37 52 -102 52s-121 -25 -161 -64l-75 70c63 69 146 103 248 103c136 0 206 -56 206 -146c0 -55 -30 -102 -92 -131
c42 -19 69 -55 69 -106c0 -119 -105 -193 -263 -193z" />
    <glyph glyph-name="uniF358" unicode="&#xf358;" horiz-adv-x="606" 
d="M146 0h-91l104 560h111l-65 -351l356 351h94l-104 -560h-111l64 352z" />
    <glyph glyph-name="uniF359" unicode="&#xf359;" horiz-adv-x="606" 
d="M146 0h-91l104 560h111l-65 -351l356 351h94l-104 -560h-111l64 352zM278 761h97c-5 -44 14 -68 59 -68c49 0 70 30 77 68h99c-14 -94 -76 -156 -186 -156c-92 0 -162 53 -146 156z" />
    <glyph glyph-name="uniF35A" unicode="&#xf35a;" horiz-adv-x="559" 
d="M55 0l104 560h111l-42 -226l264 226h160l-300 -259l208 -301h-134l-161 233l-65 -50l-34 -183h-111z" />
    <glyph glyph-name="uniF35B" unicode="&#xf35b;" horiz-adv-x="583" 
d="M417 0l84 451h-184l-12 -65c-51 -275 -136 -389 -257 -389c-16 0 -35 1 -48 3l21 112c74 -10 130 44 181 319l24 129h406l-104 -560h-111z" />
    <glyph glyph-name="uniF35C" unicode="&#xf35c;" horiz-adv-x="684" 
d="M55 0l104 560h88l144 -249l235 249h107l-103 -560h-111l67 363l-198 -207h-29l-125 208l-68 -364h-111z" />
    <glyph glyph-name="uniF35D" unicode="&#xf35d;" horiz-adv-x="606" 
d="M440 0l42 228h-274l-42 -228h-111l104 560h111l-41 -222h274l40 222h112l-104 -560h-111z" />
    <glyph glyph-name="uniF35E" unicode="&#xf35e;" horiz-adv-x="632" 
d="M72 240c0 174 139 326 339 326c152 0 252 -100 252 -245c0 -173 -137 -327 -338 -327c-152 0 -253 100 -253 246zM190 251c0 -89 64 -144 146 -144c109 0 209 80 209 202c0 90 -65 144 -145 144c-105 0 -210 -78 -210 -202z" />
    <glyph glyph-name="uniF35F" unicode="&#xf35f;" horiz-adv-x="604" 
d="M438 0l84 451h-272l-84 -451h-111l104 560h494l-104 -560h-111z" />
    <glyph glyph-name="uniF360" unicode="&#xf360;" horiz-adv-x="552" 
d="M166 0h-111l104 560h233c162 0 206 -78 206 -167c0 -123 -92 -213 -276 -213h-123zM376 451h-126l-31 -162h121c99 0 141 38 141 95c0 39 -29 67 -105 67z" />
    <glyph glyph-name="uniF361" unicode="&#xf361;" horiz-adv-x="560" 
d="M522 181l63 -83c-48 -56 -131 -104 -251 -104c-164 0 -263 92 -263 245c0 188 133 327 350 327c102 0 178 -40 207 -101l-82 -69c-27 34 -70 57 -139 57c-126 0 -217 -81 -217 -202c0 -96 64 -144 158 -144c66 0 126 26 174 74z" />
    <glyph glyph-name="uniF362" unicode="&#xf362;" horiz-adv-x="489" 
d="M87 451l20 109h482l-20 -109h-185l-84 -451h-111l84 451h-186z" />
    <glyph glyph-name="uniF363" unicode="&#xf363;" horiz-adv-x="579" 
d="M162 17l48 98c3 -3 15 -5 22 -5c22 0 36 15 55 40l4 5l-187 405h124l133 -293l193 293h129l-281 -429c-56 -84 -103 -131 -171 -131c-32 0 -52 7 -69 17z" />
    <glyph glyph-name="uniF364" unicode="&#xf364;" horiz-adv-x="719" 
d="M300 -12l13 65h-2c-130 0 -242 65 -242 204c0 168 135 266 330 266l9 49h112l-10 -49c136 0 245 -69 245 -203c0 -161 -123 -267 -328 -267h-3l-13 -65h-111zM491 413h-1l-46 -250h3c111 0 191 48 191 142c0 66 -49 108 -147 108zM186 271c0 -66 47 -108 146 -108l47 250
c-114 0 -193 -47 -193 -142z" />
    <glyph glyph-name="uniF365" unicode="&#xf365;" horiz-adv-x="560" 
d="M655 560l-258 -282l157 -278h-130l-105 194l-174 -194h-142l261 289l-149 271h130l104 -186l164 186h142z" />
    <glyph glyph-name="uniF366" unicode="&#xf366;" horiz-adv-x="604" 
d="M55 0l104 560h111l-84 -451h252l84 451h111l-84 -451h67l-39 -214h-109l19 105h-432z" />
    <glyph glyph-name="uniF367" unicode="&#xf367;" horiz-adv-x="567" 
d="M617 560l-104 -560h-112l40 214c-34 -16 -96 -32 -140 -32c-124 0 -203 44 -203 150c0 28 8 59 39 228h112l-21 -115c-6 -35 -10 -60 -10 -81c0 -54 41 -72 107 -72c39 0 94 11 137 35l42 233h113z" />
    <glyph glyph-name="uniF368" unicode="&#xf368;" horiz-adv-x="750" 
d="M55 0l104 560h111l-84 -451h153l84 451h111l-84 -451h153l84 451h111l-104 -560h-639z" />
    <glyph glyph-name="uniF369" unicode="&#xf369;" horiz-adv-x="769" 
d="M55 0l104 560h111l-84 -451h153l84 451h111l-84 -451h153l84 451h111l-84 -451h68l-39 -214h-108l19 105h-599z" />
    <glyph glyph-name="uniF36A" unicode="&#xf36a;" horiz-adv-x="605" 
d="M84 451l20 109h238l-35 -189h115c138 0 205 -55 205 -162c0 -142 -98 -209 -281 -209h-219l84 451h-127zM400 261h-113l-28 -152h111c95 0 138 29 138 88c0 47 -36 64 -108 64z" />
    <glyph glyph-name="uniF36B" unicode="&#xf36b;" horiz-adv-x="705" 
d="M540 0l103 560h111l-103 -560h-111zM307 261h-92l-29 -152h90c95 0 140 24 140 91c0 41 -37 61 -109 61zM270 560l-35 -189h94c150 0 205 -64 205 -158c0 -162 -119 -213 -280 -213h-199l104 560h111z" />
    <glyph glyph-name="uniF36C" unicode="&#xf36c;" horiz-adv-x="536" 
d="M331 261h-116l-29 -152h114c91 0 139 32 139 91c0 41 -37 61 -108 61zM270 560l-35 -189h117c138 0 206 -58 206 -156c0 -155 -117 -215 -281 -215h-222l104 560h111z" />
    <glyph glyph-name="uniF36D" unicode="&#xf36d;" horiz-adv-x="568" 
d="M208 231l21 109h252c-4 64 -50 117 -146 117c-54 0 -127 -19 -181 -73l-64 77c47 58 142 105 253 105c170 0 258 -94 258 -250c0 -184 -132 -322 -339 -322c-95 0 -189 27 -240 117l88 67c41 -51 77 -75 162 -75c117 0 177 62 198 128h-262z" />
    <glyph glyph-name="uniF36E" unicode="&#xf36e;" horiz-adv-x="818" 
d="M55 0l104 560h111l-42 -225h63c47 149 180 231 311 231c152 0 248 -101 248 -234c0 -209 -136 -338 -326 -338c-154 0 -247 104 -247 241h-67l-44 -235h-111zM393 247c0 -87 56 -144 138 -144c136 0 201 92 201 208c0 89 -51 146 -144 146c-101 0 -195 -86 -195 -210z
" />
    <glyph glyph-name="uniF36F" unicode="&#xf36f;" horiz-adv-x="561" 
d="M396 0l35 188h-98l-187 -188h-145l210 209c-63 24 -105 69 -105 146c0 130 111 205 260 205h245l-104 -560h-111zM314 297h137l29 154h-129c-94 0 -128 -37 -128 -87c0 -37 33 -66 91 -67z" />
    <glyph glyph-name="uniF371" unicode="&#xf371;" horiz-adv-x="522" 
d="M55 0l104 560h425l-20 -109h-314l-21 -114h293l-19 -106h-294l-23 -122h322l-20 -109h-433zM223 697c0 33 26 59 59 59s59 -26 59 -59s-26 -59 -59 -59s-59 26 -59 59zM431 697c0 33 26 59 59 59s59 -26 59 -59s-26 -59 -59 -59s-59 26 -59 59z" />
    <glyph glyph-name="uniF372" unicode="&#xf372;" horiz-adv-x="614" 
d="M508 182c0 49 -28 73 -72 73c-42 0 -81 -19 -104 -46l-38 -209h-112l84 451h-182l20 109h478l-20 -109h-185l-22 -119c25 18 70 32 122 32c88 0 149 -55 149 -160c0 -141 -76 -211 -186 -211c-38 0 -79 11 -105 52l65 74c12 -12 24 -17 46 -17c38 0 62 32 62 80z" />
    <glyph glyph-name="uniF373" unicode="&#xf373;" horiz-adv-x="472" 
d="M55 0l104 560h417l-20 -109h-306l-84 -451h-111zM538 769l-149 -157l-64 54l140 167z" />
    <glyph glyph-name="uniF374" unicode="&#xf374;" horiz-adv-x="557" 
d="M454 340l-20 -109h-245c-1 -78 61 -128 151 -128c71 0 120 27 160 73l84 -59c-49 -70 -130 -123 -250 -123c-164 0 -263 93 -263 250c0 172 127 322 342 322c83 0 171 -30 203 -103l-82 -62c-30 36 -64 56 -134 56c-85 0 -164 -44 -194 -117h248z" />
    <glyph glyph-name="uniF375" unicode="&#xf375;" horiz-adv-x="512" 
d="M406 162c0 98 -302 47 -302 228c0 126 123 176 244 176c95 0 172 -32 212 -87l-67 -76c-35 31 -88 54 -152 54c-80 0 -119 -19 -119 -56c0 -82 301 -46 301 -224c0 -125 -104 -183 -243 -183c-110 0 -192 41 -241 105l72 81c51 -53 114 -77 186 -77c76 0 109 24 109 59z
" />
    <glyph glyph-name="uniF376" unicode="&#xf376;" horiz-adv-x="231" 
d="M60 0l103 560h112l-104 -560h-111z" />
    <glyph glyph-name="uniF377" unicode="&#xf377;" horiz-adv-x="231" 
d="M60 0l103 560h112l-104 -560h-111zM103 644c0 30 24 55 54 55s55 -25 55 -55s-25 -54 -55 -54s-54 24 -54 54zM250 644c0 30 24 55 54 55s55 -25 55 -55s-25 -54 -55 -54s-54 24 -54 54z" />
    <glyph glyph-name="uniF378" unicode="&#xf378;" horiz-adv-x="394" 
d="M446 560l-71 -383c-22 -116 -80 -183 -197 -183c-94 0 -146 51 -167 106l89 62c15 -33 46 -59 86 -59c43 0 68 21 82 97l66 360h112z" />
    <glyph glyph-name="uniF379" unicode="&#xf379;" horiz-adv-x="849" 
d="M654 257h-88l-27 -148h83c87 0 131 24 131 92c0 41 -34 56 -99 56zM622 560l-36 -194h89c139 0 196 -58 196 -156c0 -131 -92 -210 -267 -210h-196l83 451h-174l-12 -65c-60 -318 -153 -391 -265 -389c-18 0 -30 1 -40 2l21 113c68 -8 127 27 181 319l24 129h396z" />
    <glyph glyph-name="uniF37A" unicode="&#xf37a;" horiz-adv-x="845" 
d="M585 353h89c131 0 191 -55 191 -147c0 -144 -97 -206 -253 -206h-204l45 243h-242l-45 -243h-111l104 560h111l-38 -207h242l38 207h111zM652 243h-88l-24 -134h83c89 0 126 25 126 77c0 46 -33 57 -97 57z" />
    <glyph glyph-name="uniF37B" unicode="&#xf37b;" horiz-adv-x="596" 
d="M84 451l20 109h478l-20 -109h-185l-22 -116c28 15 64 29 115 29c80 0 136 -38 137 -130c0 -18 -2 -39 -6 -61l-32 -173h-111c24 132 33 180 33 200c0 36 -20 54 -65 54c-32 0 -68 -14 -93 -38l-39 -216h-112l84 451h-182z" />
    <glyph glyph-name="uniF37C" unicode="&#xf37c;" horiz-adv-x="559" 
d="M55 0l104 560h111l-42 -226l264 226h160l-300 -259l208 -301h-134l-161 233l-65 -50l-34 -183h-111zM532 769l-149 -157l-64 54l140 167z" />
    <glyph glyph-name="uniF37E" unicode="&#xf37e;" horiz-adv-x="579" 
d="M162 17l48 98c3 -3 15 -5 22 -5c22 0 36 15 55 40l4 5l-187 405h124l133 -293l193 293h129l-281 -429c-56 -84 -103 -131 -171 -131c-32 0 -52 7 -69 17zM277 761h97c-5 -44 14 -68 59 -68c49 0 70 30 77 68h99c-14 -94 -76 -156 -186 -156c-92 0 -162 53 -146 156z" />
    <glyph glyph-name="uniF37F" unicode="&#xf37f;" horiz-adv-x="597" 
d="M55 0l104 560h111l-84 -451h265l84 451h111l-104 -560h-190l-20 -111h-109l21 111h-189z" />
    <glyph glyph-name="uniF381" unicode="&#xf381;" horiz-adv-x="579" 
d="M72 392l20 109h98l11 59h112l-12 -59h179l-20 -109h-179l-9 -50h117c124 0 211 -37 211 -146c0 -140 -97 -196 -271 -196h-231l72 392h-98zM368 232h-116l-23 -123h114c92 0 138 15 138 69c0 43 -41 54 -113 54z" />
    <glyph glyph-name="uniF389" unicode="&#xf389;" horiz-adv-x="632" 
d="M72 235c0 187 141 331 338 331c153 0 253 -100 253 -240c0 -183 -137 -332 -338 -332c-152 0 -253 100 -253 241zM336 107c111 0 170 60 193 120h-339c8 -76 69 -120 146 -120zM394 453c-95 0 -161 -58 -188 -117h337c-7 56 -45 117 -149 117z" />
    <glyph glyph-name="uniF38A" unicode="&#xf38a;" horiz-adv-x="621" 
d="M597 399l-259 -399h-77l-164 560h114l113 -388l174 277c50 80 97 118 164 118c26 0 62 -8 82 -26l-53 -96c-8 4 -20 7 -29 7c-19 -1 -41 -14 -65 -53z" />
    <glyph glyph-name="uniF393" unicode="&#xf393;" horiz-adv-x="473" 
d="M55 0l104 560h312l17 93h105l-37 -202h-306l-84 -451h-111z" />
    <glyph glyph-name="uniF3CF" unicode="&#xf3cf;" horiz-adv-x="918" 
d="M527 0h-84l-215 359l-66 -359h-106l104 560h84l213 -358l67 358h107zM632 363c0 82 59 167 174 167c87 0 135 -49 135 -127c0 -76 -55 -166 -177 -166c-84 0 -132 49 -132 126zM731 375c0 -28 19 -45 48 -45c41 0 65 29 65 62c0 26 -21 44 -48 44c-36 0 -65 -25 -65 -61z
M600 104l18 98h270l-18 -98h-270z" />
    <glyph glyph-name="uniF3D0" unicode="&#xf3d0;" horiz-adv-x="476" 
d="M285 761h97c-5 -44 14 -68 59 -68c49 0 70 30 77 68h99c-14 -94 -76 -156 -186 -156c-92 0 -162 53 -146 156z" />
    <glyph glyph-name="uniF3E4" unicode="&#xf3e4;" horiz-adv-x="0" 
d="M-33 769l-149 -157l-64 54l140 167z" />
    <glyph glyph-name="uniF400" unicode="&#xf400;" horiz-adv-x="0" 
d="M-13 755l-149 -157l-64 54l140 167z" />
    <glyph glyph-name="uniF401" unicode="&#xf401;" horiz-adv-x="0" 
d="M-19 849l-228 -104l-34 76l223 128z" />
    <glyph glyph-name="uniF406" unicode="&#xf406;" horiz-adv-x="534" 
d="M334 869l56 55c18 -26 58 -61 130 -61c62 0 110 30 141 61l47 -60c-36 -48 -100 -103 -194 -103c-102 0 -159 60 -180 108z" />
    <glyph glyph-name="uniF407" unicode="&#xf407;" horiz-adv-x="495" 
d="M211 -161l47 54c15 -14 39 -25 71 -25s41 9 41 24s-16 20 -43 20h-12l17 88h59l-6 -32c63 -3 90 -33 90 -79c0 -47 -40 -96 -142 -96c-50 0 -91 14 -122 46z" />
    <glyph glyph-name="uniF408" unicode="&#xf408;" horiz-adv-x="504" 
d="M504 928l158 -110l-47 -69l-122 79l-143 -79l-37 72l187 107h4z" />
    <glyph glyph-name="uniF409" unicode="&#xf409;" horiz-adv-x="427" 
d="M279 -98l98 60c16 -16 29 -42 29 -71c0 -80 -70 -142 -118 -169l-49 48c29 25 55 50 55 85c0 16 -6 32 -15 47z" />
    <glyph glyph-name="uniF40A" unicode="&#xf40a;" horiz-adv-x="188" 
d="M183 679l98 58c18 -20 27 -49 27 -77c0 -87 -74 -152 -136 -188l-42 50c38 29 66 61 66 104c0 15 -6 37 -13 53z" />
    <glyph glyph-name="uniF40B" unicode="&#xf40b;" horiz-adv-x="427" 
d="M456 826c0 34 27 61 61 61s61 -27 61 -61s-27 -61 -61 -61s-61 27 -61 61z" />
    <glyph glyph-name="uniF40C" unicode="&#xf40c;" horiz-adv-x="496" 
d="M385 823c0 83 74 124 146 124c71 0 123 -30 123 -94c0 -82 -64 -126 -150 -126c-71 0 -119 32 -119 96zM468 830c0 -23 16 -37 45 -37c40 0 57 26 57 52c0 23 -17 35 -44 35c-35 0 -58 -19 -58 -50z" />
    <glyph glyph-name="uniF40D" unicode="&#xf40d;" horiz-adv-x="529" 
d="M358 779l-25 72c34 34 75 56 124 56c54 0 80 -36 131 -36c22 0 49 4 78 31l21 -76c-23 -28 -64 -56 -114 -56c-57 0 -93 36 -147 36c-20 0 -42 -8 -68 -27z" />
    <glyph glyph-name="uniF40E" unicode="&#xf40e;" horiz-adv-x="439" 
d="M403 -97l18 -77c-21 -14 -62 -26 -99 -26c-60 -1 -116 20 -116 84c0 97 129 138 237 138l-4 -22c-57 0 -118 -38 -118 -77c0 -22 16 -30 36 -30c17 0 28 2 46 10z" />
    <glyph glyph-name="uniF410" unicode="&#xf410;" horiz-adv-x="0" 
d="M-148 745l-212 104l61 100l199 -128z" />
    <glyph glyph-name="uniF416" unicode="&#xf416;" horiz-adv-x="379" 
d="M230 -98l98 60c16 -16 29 -42 29 -71c0 -80 -70 -142 -118 -169l-49 48c29 25 55 50 55 85c0 16 -6 32 -15 47z" />
    <glyph glyph-name="uniF418" unicode="&#xf418;" horiz-adv-x="188" 
d="M153 519l98 58c18 -20 27 -49 27 -77c0 -87 -74 -152 -136 -188l-42 50c38 29 66 61 66 104c0 15 -6 37 -13 53z" />
    <glyph glyph-name="uniF447" unicode="&#xf447;" horiz-adv-x="482" 
d="M121 -166l44 59c15 -14 38 -25 70 -25s41 9 41 24s-16 20 -43 20h-12l16 88h-26l84 451h-186l20 109h482l-20 -109h-185l-84 -451h-25l-6 -32c56 -4 83 -30 83 -71c0 -58 -49 -104 -148 -104c-57 0 -86 23 -105 41z" />
    <glyph glyph-name="uniF44E" unicode="&#xf44e;" horiz-adv-x="617" 
d="M63 209c0 49 8 96 25 131h444c-5 73 -53 117 -149 117c-77 0 -136 -33 -175 -76l-68 79c66 80 166 106 261 106c160 0 248 -89 248 -226c0 -214 -143 -346 -341 -346c-179 0 -245 112 -245 215zM519 231h-343c-2 -88 56 -128 144 -128c97 0 169 48 199 128z" />
    <glyph glyph-name="uniF452" unicode="&#xf452;" horiz-adv-x="718" 
d="M55 0l104 560h420l-19 -109h-310l-25 -133h290l-20 -109h-290l-39 -209h-111zM547 0l103 560h112l-104 -560h-111z" />
    <glyph glyph-name="uniF453" unicode="&#xf453;" horiz-adv-x="978" 
d="M55 0l104 560h420l-19 -109h-310l-25 -133h290l-20 -109h-290l-39 -209h-111zM546 0l104 560h111l-84 -451h313l-20 -109h-424z" />
    <glyph glyph-name="zero.tab" unicode="&#xf4e0;" 
d="M98 263c0 249 132 444 327 444c146 0 213 -112 213 -266c0 -259 -133 -448 -327 -448c-141 0 -213 99 -213 270zM217 273c0 -104 37 -165 112 -165c110 0 190 121 190 319c0 104 -37 165 -112 165c-109 0 -190 -123 -190 -319z" />
    <glyph glyph-name="one.tab" unicode="&#xf4e1;" 
d="M77 0l21 112h229l82 440l-214 -93l-22 107l301 136h72l-109 -590h136l-21 -112h-475z" />
    <glyph glyph-name="two.tab" unicode="&#xf4e2;" 
d="M233 476l-99 44c55 123 146 187 285 187c150 0 221 -74 221 -189c0 -130 -73 -215 -300 -360l-85 -46h330l-21 -112h-516l16 89l172 115c120 86 280 183 280 297c0 55 -38 90 -105 90c-88 0 -137 -43 -178 -115z" />
    <glyph glyph-name="three.tab" unicode="&#xf4e3;" horiz-adv-x="589" 
d="M235 500l-91 52c46 97 146 157 271 157c144 0 221 -60 221 -171c0 -73 -46 -142 -139 -169c67 -19 97 -72 97 -139c0 -144 -114 -238 -284 -238c-117 0 -229 50 -246 175l105 42c16 -64 72 -101 151 -101c99 0 153 44 153 111s-63 84 -147 84h-65l20 110h69
c107 0 163 44 163 102c0 56 -40 80 -109 80c-82 0 -131 -35 -169 -95z" />
    <glyph glyph-name="four.tab" unicode="&#xf4e4;" 
d="M391 0l25 133h-358l15 78l463 489h95l-84 -460h84l-20 -107h-84l-25 -133h-111zM239 240h197l47 258z" />
    <glyph glyph-name="five.tab" unicode="&#xf4e5;" 
d="M123 317l102 383h434l-21 -113h-334l-43 -155c29 14 65 25 122 25c142 0 212 -77 212 -202c0 -158 -123 -263 -289 -263c-116 0 -219 47 -240 172l109 39c17 -69 73 -95 144 -95c95 0 156 58 156 138c0 64 -46 102 -125 102c-56 0 -98 -15 -133 -41z" />
    <glyph glyph-name="six.tab" unicode="&#xf4e6;" 
d="M92 253c0 272 142 456 366 456c102 0 156 -37 193 -91l-74 -81c-31 30 -64 55 -130 55c-107 0 -198 -74 -224 -221c52 63 119 107 202 107c125 0 197 -81 197 -201c0 -179 -133 -286 -282 -286c-163 0 -248 84 -248 262zM220 255c-3 -73 17 -148 129 -148
c92 0 151 65 151 153c0 64 -37 105 -108 105c-83 0 -152 -65 -172 -110z" />
    <glyph glyph-name="seven.tab" unicode="&#xf4e7;" 
d="M156 587l20 113h517l-14 -76l-428 -624h-133l406 587h-368z" />
    <glyph glyph-name="eight.tab" unicode="&#xf4e8;" 
d="M367 411h28c79 0 131 44 131 106c0 52 -32 81 -112 81c-91 0 -144 -43 -144 -101c0 -53 29 -86 97 -86zM374 308h-23c-95 0 -155 -46 -155 -116c0 -68 66 -91 130 -91c102 0 168 44 168 118c0 56 -44 89 -120 89zM319 -8c-148 0 -244 61 -244 184c0 87 51 158 143 190
c-43 26 -66 70 -66 121c0 148 119 221 284 221c149 0 212 -65 212 -167c0 -76 -49 -149 -132 -179c66 -21 97 -74 97 -132c0 -158 -126 -238 -294 -238z" />
    <glyph glyph-name="nine.tab" unicode="&#xf4e9;" 
d="M649 454c0 -306 -149 -463 -355 -463c-99 0 -161 43 -196 91l77 82c30 -33 65 -56 128 -56c109 0 187 79 210 207c-42 -53 -109 -89 -192 -89c-120 0 -196 77 -196 202c0 169 133 281 297 281c147 0 227 -92 227 -255zM522 432c12 73 -12 161 -121 161
c-87 0 -155 -63 -155 -155c0 -65 39 -103 108 -103c73 0 147 52 168 97z" />
    <glyph glyph-name="dollar.tab" unicode="&#xf4ec;" 
d="M482 202c0 134 -357 67 -357 288c0 133 111 203 240 215l14 78h109l-14 -78c84 -9 151 -45 191 -97l-77 -84c-47 49 -106 71 -186 71c-79 0 -155 -19 -155 -89c0 -127 357 -72 357 -290c0 -138 -112 -222 -261 -222l-16 -86h-110l17 91c-89 17 -160 68 -194 124l79 79
c45 -63 126 -97 219 -97c89 0 144 38 144 97z" />
    <glyph glyph-name="Euro.tab" unicode="&#xf4ed;" 
d="M87 386l50 98h60c69 141 187 224 352 224c61 0 128 -15 164 -44l-53 -89c-29 16 -71 29 -124 29c-89 0 -170 -39 -217 -120h299l-49 -98h-288c-4 -13 -7 -29 -8 -39c-1 -9 -2 -20 -2 -27h263l-44 -98h-215c18 -93 92 -127 177 -127c33 0 87 11 123 32l15 -95
c-36 -25 -90 -40 -160 -40c-156 0 -259 83 -276 230h-95l48 98c45 0 50 1 50 1c1 3 0 11 2 24c2 16 5 29 8 41h-80z" />
    <glyph glyph-name="cent.tab" unicode="&#xf4ee;" 
d="M489 171l74 -60c-56 -84 -114 -102 -194 -116l-36 -195h-114l36 202c-92 30 -151 97 -151 210c0 170 103 288 250 316l31 172h114l-32 -176c72 -14 117 -67 130 -113l-84 -53c-19 36 -42 58 -77 65l-60 -326c44 7 84 34 113 74zM219 225c0 -50 21 -100 70 -119l57 315
c-77 -20 -127 -100 -127 -196z" />
    <glyph glyph-name="sterling.tab" unicode="&#xf4ef;" 
d="M131 260l18 96h54c-5 28 -13 61 -13 100c0 169 108 251 258 251c78 0 147 -30 186 -89l-71 -82c-33 35 -73 58 -132 58c-83 0 -124 -61 -124 -125c0 -37 11 -73 17 -113h160l-18 -96h-141c0 -7 -1 -13 -3 -21c-7 -39 -25 -77 -45 -98c53 -2 103 -41 159 -41
c46 0 76 19 107 50l47 -78c-36 -36 -86 -73 -163 -73c-89 0 -138 45 -212 45c-37 0 -76 -13 -124 -54l-37 79c29 31 59 54 106 68c25 28 42 60 49 98c2 10 2 17 3 25h-81z" />
    <glyph glyph-name="yen.tab" unicode="&#xf4fa;" 
d="M146 302l18 99h90l-118 299h128l109 -291l213 291h143l-227 -299h91l-18 -99h-158l-16 -85h158l-18 -99h-158l-22 -118h-115l22 118h-157l18 99h157l16 85h-156z" />
    <glyph glyph-name="florin.tab" unicode="&#xf4fb;" 
d="M450 481l-5 -24h144v-105h-162l-61 -342c-20 -111 -56 -218 -184 -218c-48 0 -92 18 -121 48l38 88c21 -20 47 -30 73 -30c42 0 65 29 76 89l66 365h-134v105h153l7 42c18 114 68 210 204 210c63 0 100 -17 127 -40l-41 -90c-22 15 -45 24 -78 24
c-60 0 -84 -36 -102 -122z" />
    <glyph glyph-name="uni20B4.tab" unicode="&#xf4fc;" 
d="M132 397l17 95h309c15 16 25 32 25 55c0 29 -24 49 -74 49c-64 0 -109 -20 -152 -44l-35 89c53 43 126 68 202 68c125 0 182 -47 182 -130c0 -33 -15 -65 -35 -87h61l-17 -95h-121c-44 -33 -98 -55 -133 -74h240l-17 -95h-313c-16 -18 -33 -34 -33 -63
c0 -42 41 -61 97 -61c72 0 134 30 169 62l43 -85c-49 -52 -129 -90 -226 -90c-123 0 -201 49 -201 143c0 30 14 67 33 94h-53l17 95h114c70 38 110 53 146 74h-245z" />
    <glyph glyph-name="uni20BD.tab" unicode="&#xf4fd;" 
d="M90 295l20 106h98l55 299c16 0 77 1 105 1s57 1 74 1c159 0 219 -74 219 -175c0 -154 -120 -232 -294 -232h-68l-12 -65h160l-20 -106h-160l-22 -124h-112l23 124h-98l20 106h98l12 65h-98zM429 595h-74l-36 -194h66c106 0 158 39 158 117c0 53 -38 77 -114 77z" />
    <glyph glyph-name="uniF66D" unicode="&#xf66d;" horiz-adv-x="575" 
d="M-2 0l352 560h83l145 -560h-115l-28 109h-245l-68 -109h-124zM363 384l-114 -176h161zM268 717l51 55c21 -32 56 -52 103 -52c48 0 92 26 118 53l40 -57c-30 -49 -87 -93 -167 -93c-63 0 -118 32 -145 94z" />
    <glyph glyph-name="uniF66E" unicode="&#xf66e;" horiz-adv-x="575" 
d="M-2 0l352 560h83l145 -560h-115l-28 109h-245l-68 -109h-124zM363 384l-114 -176h161zM271 638l18 96h267l-18 -96h-267z" />
    <glyph glyph-name="uniF66F" unicode="&#xf66f;" horiz-adv-x="575" 
d="M535 -96l20 -73c-19 -16 -59 -31 -102 -31c-57 0 -107 25 -107 81c0 66 55 106 115 125l-26 103h-245l-68 -109h-124l352 560h83l145 -560h-31c-37 0 -82 -34 -82 -73c0 -19 11 -32 29 -32c15 0 24 1 41 9zM363 384l-114 -176h161z" />
    <glyph glyph-name="uniF671" unicode="&#xf671;" horiz-adv-x="560" 
d="M522 181l63 -83c-48 -56 -131 -104 -251 -104c-164 0 -263 92 -263 245c0 188 133 327 350 327c102 0 178 -40 207 -101l-82 -69c-27 34 -70 57 -139 57c-126 0 -217 -81 -217 -202c0 -96 64 -144 158 -144c66 0 126 26 174 74zM573 769l-149 -157l-64 54l140 167z" />
    <glyph glyph-name="uniF672" unicode="&#xf672;" horiz-adv-x="560" 
d="M522 181l63 -83c-48 -56 -131 -104 -251 -104c-164 0 -263 92 -263 245c0 188 133 327 350 327c102 0 178 -40 207 -101l-82 -69c-27 34 -70 57 -139 57c-126 0 -217 -81 -217 -202c0 -96 64 -144 158 -144c66 0 126 26 174 74zM411 609l-133 138l61 62l85 -87l115 85
l48 -68l-172 -130h-4z" />
    <glyph glyph-name="uniF673" unicode="&#xf673;" horiz-adv-x="560" 
d="M522 181l63 -83c-48 -56 -131 -104 -251 -104c-164 0 -263 92 -263 245c0 188 133 327 350 327c102 0 178 -40 207 -101l-82 -69c-27 34 -70 57 -139 57c-126 0 -217 -81 -217 -202c0 -96 64 -144 158 -144c66 0 126 26 174 74zM444 804l133 -138l-61 -62l-85 87
l-115 -85l-48 68l172 130h4z" />
    <glyph glyph-name="uniF674" unicode="&#xf674;" horiz-adv-x="560" 
d="M522 181l63 -83c-48 -56 -131 -104 -251 -104c-164 0 -263 92 -263 245c0 188 133 327 350 327c102 0 178 -40 207 -101l-82 -69c-27 34 -70 57 -139 57c-126 0 -217 -81 -217 -202c0 -96 64 -144 158 -144c66 0 126 26 174 74zM367 696c0 34 27 61 61 61s61 -27 61 -61
s-27 -61 -61 -61s-61 27 -61 61z" />
    <glyph glyph-name="uniF675" unicode="&#xf675;" horiz-adv-x="580" 
d="M55 0l104 560h177c205 0 278 -103 278 -228c0 -218 -141 -332 -393 -332h-166zM314 451h-64l-64 -342h65c176 0 245 94 245 206c0 83 -50 136 -182 136zM364 609l-133 138l61 62l85 -87l115 85l48 -68l-172 -130h-4z" />
    <glyph glyph-name="uniF676" unicode="&#xf676;" horiz-adv-x="632" 
d="M57 231l18 97h92l43 232h178c204 0 277 -100 277 -229c0 -214 -141 -331 -391 -331h-168l43 231h-92zM366 451h-65l-23 -123h135l-18 -97h-135l-23 -122h65c179 0 245 95 245 206c0 83 -49 136 -181 136z" />
    <glyph glyph-name="uniF678" unicode="&#xf678;" horiz-adv-x="522" 
d="M55 0l104 560h425l-20 -109h-314l-21 -114h293l-19 -106h-294l-23 -122h322l-20 -109h-433zM380 609l-133 138l61 62l85 -87l115 85l48 -68l-172 -130h-4z" />
    <glyph glyph-name="uniF679" unicode="&#xf679;" horiz-adv-x="522" 
d="M55 0l104 560h425l-20 -109h-314l-21 -114h293l-19 -106h-294l-23 -122h322l-20 -109h-433zM336 696c0 34 27 61 61 61s61 -27 61 -61s-27 -61 -61 -61s-61 27 -61 61z" />
    <glyph glyph-name="uniF67A" unicode="&#xf67a;" horiz-adv-x="522" 
d="M55 0l104 560h425l-20 -109h-314l-21 -114h293l-19 -106h-294l-23 -122h322l-20 -109h-433zM257 638l18 96h267l-18 -96h-267z" />
    <glyph glyph-name="uniF67C" unicode="&#xf67c;" horiz-adv-x="522" 
d="M55 0l104 560h425l-20 -109h-314l-21 -114h293l-19 -106h-294l-23 -122h322l-20 -109h-10c-35 -3 -76 -36 -76 -73c0 -19 11 -32 29 -32c15 0 24 1 41 9l20 -73c-19 -16 -59 -31 -102 -31c-57 0 -107 25 -107 81c0 59 46 96 100 119h-328z" />
    <glyph glyph-name="uniF67D" unicode="&#xf67d;" horiz-adv-x="580" 
d="M338 204l20 106h253l-40 -228c-46 -44 -122 -88 -234 -88c-165 0 -266 94 -266 248c0 184 132 324 351 324c96 0 174 -38 204 -97l-83 -69c-32 32 -75 53 -137 53c-127 0 -217 -80 -217 -205c0 -91 64 -141 161 -141c39 0 86 8 122 31l12 66h-146zM284 717l51 55
c21 -32 56 -52 103 -52c48 0 92 26 118 53l40 -57c-30 -49 -87 -93 -167 -93c-63 0 -118 32 -145 94z" />
    <glyph glyph-name="uniF67E" unicode="&#xf67e;" horiz-adv-x="580" 
d="M338 204l20 106h253l-40 -228c-46 -44 -122 -88 -234 -88c-165 0 -266 94 -266 248c0 184 132 324 351 324c96 0 174 -38 204 -97l-83 -69c-32 32 -75 53 -137 53c-127 0 -217 -80 -217 -205c0 -91 64 -141 161 -141c39 0 86 8 122 31l12 66h-146zM457 804l133 -138
l-61 -62l-85 87l-115 -85l-48 68l172 130h4z" />
    <glyph glyph-name="uniF67F" unicode="&#xf67f;" horiz-adv-x="580" 
d="M338 204l20 106h253l-40 -228c-46 -44 -122 -88 -234 -88c-165 0 -266 94 -266 248c0 184 132 324 351 324c96 0 174 -38 204 -97l-83 -69c-32 32 -75 53 -137 53c-127 0 -217 -80 -217 -205c0 -91 64 -141 161 -141c39 0 86 8 122 31l12 66h-146zM241 -98l98 60
c16 -16 29 -42 29 -71c0 -80 -70 -142 -118 -169l-49 48c29 25 55 50 55 85c0 16 -6 32 -15 47z" />
    <glyph glyph-name="uniF680" unicode="&#xf680;" horiz-adv-x="580" 
d="M338 204l20 106h253l-40 -228c-46 -44 -122 -88 -234 -88c-165 0 -266 94 -266 248c0 184 132 324 351 324c96 0 174 -38 204 -97l-83 -69c-32 32 -75 53 -137 53c-127 0 -217 -80 -217 -205c0 -91 64 -141 161 -141c39 0 86 8 122 31l12 66h-146zM377 696
c0 34 27 61 61 61s61 -27 61 -61s-27 -61 -61 -61s-61 27 -61 61z" />
    <glyph glyph-name="uniF681" unicode="&#xf681;" horiz-adv-x="605" 
d="M74 403l17 91h55l13 66h111l-13 -66h274l12 66h112l-13 -66h54l-17 -91h-54l-74 -403h-111l42 228h-274l-42 -228h-111l74 403h-55zM229 337h274l11 66h-274z" />
    <glyph glyph-name="uniF682" unicode="&#xf682;" horiz-adv-x="606" 
d="M440 0l42 228h-274l-42 -228h-111l104 560h111l-41 -222h274l40 222h112l-104 -560h-111zM451 804l133 -138l-61 -62l-85 87l-115 -85l-48 68l172 130h4z" />
    <glyph glyph-name="uniF685" unicode="&#xf685;" horiz-adv-x="231" 
d="M60 0l103 560h112l-104 -560h-111zM99 638l18 96h267l-18 -96h-267z" />
    <glyph glyph-name="uniF686" unicode="&#xf686;" horiz-adv-x="231" 
d="M60 0l103 560h112l-104 -560h-9c-35 -3 -76 -36 -76 -73c0 -19 12 -32 30 -32c14 0 24 1 41 9l20 -73c-19 -16 -59 -31 -102 -31c-57 0 -107 25 -107 81c0 59 45 96 99 119h-7z" />
    <glyph glyph-name="uniF688" unicode="&#xf688;" horiz-adv-x="394" 
d="M446 560l-71 -383c-22 -116 -80 -183 -197 -183c-94 0 -146 51 -167 106l89 62c15 -33 46 -59 86 -59c43 0 68 21 82 97l66 360h112zM422 804l133 -138l-61 -62l-85 87l-115 -85l-48 68l172 130h4z" />
    <glyph glyph-name="uniF689" unicode="&#xf689;" horiz-adv-x="559" 
d="M55 0l104 560h111l-42 -226l264 226h160l-300 -259l208 -301h-134l-161 233l-65 -50l-34 -183h-111zM184 -98l98 60c16 -16 29 -42 29 -71c0 -80 -70 -142 -118 -169l-49 48c29 25 55 50 55 85c0 16 -6 32 -15 47z" />
    <glyph glyph-name="uniF68A" unicode="&#xf68a;" horiz-adv-x="487" 
d="M55 0l104 560h111l-84 -451h313l-20 -109h-424zM466 769l-149 -157l-64 54l140 167z" />
    <glyph glyph-name="uniF68B" unicode="&#xf68b;" horiz-adv-x="487" 
d="M55 0l104 560h111l-84 -451h313l-20 -109h-424zM419 560h110c3 -8 4 -23 4 -35c0 -95 -76 -164 -138 -200l-40 48c39 31 71 76 71 125c0 28 -3 46 -7 62z" />
    <glyph glyph-name="uniF68C" unicode="&#xf68c;" horiz-adv-x="487" 
d="M55 0l104 560h111l-84 -451h313l-20 -109h-424zM187 -98l98 60c16 -16 29 -42 29 -71c0 -80 -70 -142 -118 -169l-49 48c29 25 55 50 55 85c0 16 -6 32 -15 47z" />
    <glyph glyph-name="uniF68D" unicode="&#xf68d;" horiz-adv-x="487" 
d="M55 0l104 560h111l-84 -451h313l-20 -109h-424zM341 309c0 35 32 73 81 73c46 0 80 -38 80 -73c0 -39 -34 -75 -80 -75c-49 0 -81 36 -81 75z" />
    <glyph glyph-name="uniF68E" unicode="&#xf68e;" horiz-adv-x="598" 
d="M542 0h-86l-226 366l-67 -366h-108l104 560h85l226 -365l68 365h108zM561 769l-149 -157l-64 54l140 167z" />
    <glyph glyph-name="uniF68F" unicode="&#xf68f;" horiz-adv-x="598" 
d="M542 0h-86l-226 366l-67 -366h-108l104 560h85l226 -365l68 365h108zM410 609l-133 138l61 62l85 -87l115 85l48 -68l-172 -130h-4z" />
    <glyph glyph-name="uniF690" unicode="&#xf690;" horiz-adv-x="598" 
d="M542 0h-86l-226 366l-67 -366h-108l104 560h85l226 -365l68 365h108zM219 -98l98 60c16 -16 29 -42 29 -71c0 -80 -70 -142 -118 -169l-49 48c29 25 55 50 55 85c0 16 -6 32 -15 47z" />
    <glyph glyph-name="uniF692" unicode="&#xf692;" horiz-adv-x="632" 
d="M72 240c0 174 139 326 339 326c152 0 252 -100 252 -245c0 -173 -137 -327 -338 -327c-152 0 -253 100 -253 246zM190 251c0 -89 64 -144 146 -144c109 0 209 80 209 202c0 90 -65 144 -145 144c-105 0 -210 -78 -210 -202zM660 769l-161 -158l-49 45l149 170zM506 779
l-152 -168l-51 46l141 176z" />
    <glyph glyph-name="uniF693" unicode="&#xf693;" horiz-adv-x="632" 
d="M72 240c0 174 139 326 339 326c152 0 252 -100 252 -245c0 -173 -137 -327 -338 -327c-152 0 -253 100 -253 246zM190 251c0 -89 64 -144 146 -144c109 0 209 80 209 202c0 90 -65 144 -145 144c-105 0 -210 -78 -210 -202zM300 638l18 96h267l-18 -96h-267z" />
    <glyph glyph-name="uniF695" unicode="&#xf695;" horiz-adv-x="554" 
d="M166 0h-111l104 560h225c150 0 195 -69 195 -151c0 -95 -52 -163 -152 -192l125 -217h-128l-110 195h-112zM361 451h-111l-28 -147h116c77 0 125 33 125 89c0 34 -25 58 -102 58zM516 769l-149 -157l-64 54l140 167z" />
    <glyph glyph-name="uniF696" unicode="&#xf696;" horiz-adv-x="554" 
d="M166 0h-111l104 560h225c150 0 195 -69 195 -151c0 -95 -52 -163 -152 -192l125 -217h-128l-110 195h-112zM361 451h-111l-28 -147h116c77 0 125 33 125 89c0 34 -25 58 -102 58zM367 609l-133 138l61 62l85 -87l115 85l48 -68l-172 -130h-4z" />
    <glyph glyph-name="uniF697" unicode="&#xf697;" horiz-adv-x="554" 
d="M166 0h-111l104 560h225c150 0 195 -69 195 -151c0 -95 -52 -163 -152 -192l125 -217h-128l-110 195h-112zM361 451h-111l-28 -147h116c77 0 125 33 125 89c0 34 -25 58 -102 58zM187 -98l98 60c16 -16 29 -42 29 -71c0 -80 -70 -142 -118 -169l-49 48c29 25 55 50 55 85
c0 16 -6 32 -15 47z" />
    <glyph glyph-name="uniF698" unicode="&#xf698;" horiz-adv-x="512" 
d="M406 162c0 98 -302 47 -302 228c0 126 123 176 244 176c95 0 172 -32 212 -87l-67 -76c-35 31 -88 54 -152 54c-80 0 -119 -19 -119 -56c0 -82 301 -46 301 -224c0 -125 -104 -183 -243 -183c-110 0 -192 41 -241 105l72 81c51 -53 114 -77 186 -77c76 0 109 24 109 59z
M519 769l-149 -157l-64 54l140 167z" />
    <glyph glyph-name="uniF699" unicode="&#xf699;" horiz-adv-x="512" 
d="M136 -168l44 59c15 -14 40 -23 71 -23c33 0 42 9 42 24s-15 20 -44 20h-12l15 83c-96 6 -168 45 -213 104l72 81c51 -53 114 -77 186 -77c76 0 109 24 109 59c0 98 -302 47 -302 228c0 126 123 176 244 176c95 0 172 -32 212 -87l-67 -76c-35 31 -88 54 -152 54
c-80 0 -119 -19 -119 -56c0 -82 301 -46 301 -224c0 -115 -89 -174 -211 -182l-5 -27c56 -4 84 -30 84 -71c0 -58 -50 -104 -146 -104c-36 0 -78 9 -109 39z" />
    <glyph glyph-name="uniF69A" unicode="&#xf69a;" horiz-adv-x="512" 
d="M406 162c0 98 -302 47 -302 228c0 126 123 176 244 176c95 0 172 -32 212 -87l-67 -76c-35 31 -88 54 -152 54c-80 0 -119 -19 -119 -56c0 -82 301 -46 301 -224c0 -125 -104 -183 -243 -183c-110 0 -192 41 -241 105l72 81c51 -53 114 -77 186 -77c76 0 109 24 109 59z
M404 804l133 -138l-61 -62l-85 87l-115 -85l-48 68l172 130h4z" />
    <glyph glyph-name="uniF69B" unicode="&#xf69b;" horiz-adv-x="512" 
d="M406 162c0 98 -302 47 -302 228c0 126 123 176 244 176c95 0 172 -32 212 -87l-67 -76c-35 31 -88 54 -152 54c-80 0 -119 -19 -119 -56c0 -82 301 -46 301 -224c0 -125 -104 -183 -243 -183c-110 0 -192 41 -241 105l72 81c51 -53 114 -77 186 -77c76 0 109 24 109 59z
M184 -98l98 60c16 -16 29 -42 29 -71c0 -80 -70 -142 -118 -169l-49 48c29 25 55 50 55 85c0 16 -6 32 -15 47z" />
    <glyph glyph-name="uniF69D" unicode="&#xf69d;" horiz-adv-x="489" 
d="M87 451l20 109h482l-20 -109h-185l-84 -451h-111l84 451h-186zM355 609l-133 138l61 62l85 -87l115 85l48 -68l-172 -130h-4z" />
    <glyph glyph-name="uniF69E" unicode="&#xf69e;" horiz-adv-x="489" 
d="M87 451l20 109h482l-20 -109h-185l-84 -451h-111l84 451h-186zM168 -98l98 60c16 -16 29 -42 29 -71c0 -80 -70 -142 -118 -169l-49 48c29 25 55 50 55 85c0 16 -6 32 -15 47z" />
    <glyph glyph-name="uniF69F" unicode="&#xf69f;" horiz-adv-x="587" 
d="M640 560l-59 -320c-28 -153 -114 -245 -282 -245c-133 0 -235 83 -205 249l58 316h112l-56 -302c-18 -100 24 -154 111 -154c89 0 139 67 154 151l56 305h111zM274 717l51 55c21 -32 56 -52 103 -52c48 0 92 26 118 53l40 -57c-30 -49 -87 -93 -167 -93
c-63 0 -118 32 -145 94z" />
    <glyph glyph-name="uniF6A0" unicode="&#xf6a0;" horiz-adv-x="587" 
d="M640 560l-59 -320c-28 -153 -114 -245 -282 -245c-133 0 -235 83 -205 249l58 316h112l-56 -302c-18 -100 24 -154 111 -154c89 0 139 67 154 151l56 305h111zM637 769l-161 -158l-49 45l149 170zM483 779l-152 -168l-51 46l141 176z" />
    <glyph glyph-name="uniF6A1" unicode="&#xf6a1;" horiz-adv-x="587" 
d="M640 560l-59 -320c-28 -153 -114 -245 -282 -245c-133 0 -235 83 -205 249l58 316h112l-56 -302c-18 -100 24 -154 111 -154c89 0 139 67 154 151l56 305h111zM279 638l18 96h267l-18 -96h-267z" />
    <glyph glyph-name="uniF6A2" unicode="&#xf6a2;" horiz-adv-x="587" 
d="M640 560l-59 -320c-22 -126 -83 -199 -180 -230c-49 -29 -75 -56 -75 -85c0 -19 11 -30 28 -30c15 0 25 1 42 9l20 -73c-19 -16 -59 -31 -102 -31c-58 0 -107 25 -107 81c0 53 39 87 92 114c-133 0 -235 83 -205 249l58 316h112l-56 -302c-17 -97 24 -154 111 -154
c89 0 139 67 154 151l56 305h111z" />
    <glyph glyph-name="uniF6A3" unicode="&#xf6a3;" horiz-adv-x="587" 
d="M640 560l-59 -320c-28 -153 -114 -245 -282 -245c-133 0 -235 83 -205 249l58 316h112l-56 -302c-18 -100 24 -154 111 -154c89 0 139 67 154 151l56 305h111zM308 703c0 79 59 135 135 135c65 0 103 -44 103 -99c0 -79 -60 -133 -135 -133c-65 0 -103 42 -103 97z
M382 713c0 -22 13 -37 37 -37c30 0 53 21 53 56c0 22 -14 36 -37 36c-31 0 -53 -23 -53 -55z" />
    <glyph glyph-name="uniF6AB" unicode="&#xf6ab;" horiz-adv-x="512" 
d="M106 451l20 109h466l-14 -78l-380 -373h318l-20 -109h-487l15 78l378 373h-296zM516 769l-149 -157l-64 54l140 167z" />
    <glyph glyph-name="uniF6AC" unicode="&#xf6ac;" horiz-adv-x="512" 
d="M106 451l20 109h466l-14 -78l-380 -373h318l-20 -109h-487l15 78l378 373h-296zM320 696c0 34 27 61 61 61s61 -27 61 -61s-27 -61 -61 -61s-61 27 -61 61z" />
    <glyph glyph-name="uniF6AD" unicode="&#xf6ad;" horiz-adv-x="231" 
d="M60 0l103 560h112l-104 -560h-111zM179 696c0 34 27 61 61 61s61 -27 61 -61s-27 -61 -61 -61s-61 27 -61 61z" />
    <glyph glyph-name="uniF6BA" unicode="&#xf6ba;" horiz-adv-x="416" 
d="M129 309v101h278v-101h-278z" />
    <glyph glyph-name="uniF6BB" unicode="&#xf6bb;" horiz-adv-x="607" 
d="M145 311v99h437v-99h-437z" />
    <glyph glyph-name="uniF6BC" unicode="&#xf6bc;" horiz-adv-x="796" 
d="M155 311v99h626v-99h-626z" />
    <glyph glyph-name="uniF6C3" unicode="&#xf6c3;" horiz-adv-x="348" 
d="M199 -96l99 58c15 -17 29 -42 29 -72c0 -79 -70 -141 -118 -168l-47 45c29 25 53 53 53 88c0 16 -7 35 -16 49z" />
    <glyph glyph-name="uniF6C9" unicode="&#xf6c9;" horiz-adv-x="543" 
d="M706 853l-224 -108l-36 72l219 132z" />
    <glyph glyph-name="uniF6CA" unicode="&#xf6ca;" horiz-adv-x="503" 
d="M472 750l-158 110l47 69l122 -79l143 79l37 -72l-187 -107h-4z" />
    <glyph glyph-name="uniF6CB" unicode="&#xf6cb;" horiz-adv-x="487" 
d="M282 828c0 34 28 62 62 62s62 -28 62 -62s-28 -62 -62 -62s-62 28 -62 62zM512 828c0 34 28 62 62 62s62 -28 62 -62s-28 -62 -62 -62s-62 28 -62 62z" />
    <glyph glyph-name="uniF6CE" unicode="&#xf6ce;" horiz-adv-x="447" 
d="M559 745l-212 104l61 100l199 -128z" />
    <glyph glyph-name="uniF6CF" unicode="&#xf6cf;" horiz-adv-x="611" 
d="M767 845l-194 -106l-38 53l173 129zM570 858l-170 -119l-43 49l151 133z" />
    <glyph glyph-name="uniF6D0" unicode="&#xf6d0;" horiz-adv-x="501" 
d="M353 780l17 95h292l-17 -95h-292z" />
    <glyph glyph-name="uniF6D1" unicode="&#xf6d1;" horiz-adv-x="545" 
d="M333 908h106c6 -41 37 -59 77 -59c41 0 75 18 89 59h108c-16 -87 -83 -158 -204 -158c-114 0 -177 67 -176 158z" />
    <glyph glyph-name="uniF6D4" unicode="&#xf6d4;" horiz-adv-x="457" 
d="M202 741h95c-6 -40 12 -68 57 -68c46 0 71 27 80 68h98c-13 -81 -66 -156 -191 -156c-88 0 -157 52 -139 156z" />
    <glyph glyph-name="uniF6F4" unicode="&#xf6f4;" horiz-adv-x="471" 
d="M300 717l51 55c21 -32 56 -52 103 -52c48 0 92 26 118 53l40 -57c-30 -49 -87 -93 -167 -93c-63 0 -118 32 -145 94z" />
    <glyph glyph-name="uniF6F5" unicode="&#xf6f5;" horiz-adv-x="460" 
d="M421 609l-133 138l61 62l85 -87l115 85l48 -68l-172 -130h-4z" />
    <glyph glyph-name="uniF6F6" unicode="&#xf6f6;" horiz-adv-x="457" 
d="M454 804l133 -138l-61 -62l-85 87l-115 -85l-48 68l172 130h4z" />
    <glyph glyph-name="uniF6F7" unicode="&#xf6f7;" horiz-adv-x="376" 
d="M377 696c0 34 27 61 61 61s61 -27 61 -61s-27 -61 -61 -61s-61 27 -61 61z" />
    <glyph glyph-name="uniF6F8" unicode="&#xf6f8;" horiz-adv-x="510" 
d="M653 769l-161 -158l-49 45l149 170zM499 779l-152 -168l-51 46l141 176z" />
    <glyph glyph-name="uniF6F9" unicode="&#xf6f9;" horiz-adv-x="497" 
d="M17 91l24 130l73 47l54 292h111l-39 -212l172 111l-23 -130l-172 -111l-21 -109h313l-20 -109h-424l25 138z" />
    <glyph glyph-name="uniF6FA" unicode="&#xf6fa;" horiz-adv-x="923" 
d="M456 0l5 28c-36 -21 -87 -34 -146 -34c-142 0 -243 100 -243 241c0 176 136 331 339 331c62 0 107 -14 142 -39l7 33h426l-20 -109h-315l-21 -114h293l-20 -106h-293l-23 -122h322l-20 -109h-433zM336 107c57 0 112 20 151 58l40 223c-25 42 -73 65 -127 65
c-105 0 -210 -78 -210 -202c0 -89 64 -144 146 -144z" />
    <glyph glyph-name="uniF6FB" unicode="&#xf6fb;" horiz-adv-x="373" 
d="M358 -96l20 -73c-19 -16 -59 -31 -102 -31c-57 0 -107 25 -107 81c0 99 126 139 205 142l-4 -23c-37 0 -82 -34 -82 -73c0 -19 11 -32 29 -32c15 0 24 1 41 9z" />
    <glyph glyph-name="uniF6FC" unicode="&#xf6fc;" horiz-adv-x="441" 
d="M337 703c0 79 59 135 135 135c65 0 103 -44 103 -99c0 -79 -60 -133 -135 -133c-65 0 -103 42 -103 97zM411 713c0 -22 13 -37 37 -37c30 0 53 21 53 56c0 22 -14 36 -37 36c-31 0 -53 -23 -53 -55z" />
    <glyph glyph-name="uniF6FD" unicode="&#xf6fd;" horiz-adv-x="512" 
d="M406 162c0 98 -302 47 -302 228c0 126 123 176 244 176c95 0 172 -32 212 -87l-67 -76c-35 31 -88 54 -152 54c-80 0 -119 -19 -119 -56c0 -82 301 -46 301 -224c0 -125 -104 -183 -243 -183c-110 0 -192 41 -241 105l72 81c51 -53 114 -77 186 -77c76 0 109 24 109 59z
M367 609l-133 138l61 62l85 -87l115 85l48 -68l-172 -130h-4z" />
    <glyph glyph-name="uniF6FE" unicode="&#xf6fe;" horiz-adv-x="481" 
d="M314 632l-41 56c30 37 82 68 120 68c57 0 78 -44 118 -44c27 0 46 11 69 30l35 -60c-28 -31 -70 -64 -119 -64c-57 0 -77 43 -117 43c-21 0 -44 -13 -65 -29z" />
    <glyph glyph-name="uniF6FF" unicode="&#xf6ff;" horiz-adv-x="512" 
d="M106 451l20 109h466l-14 -78l-380 -373h318l-20 -109h-487l15 78l378 373h-296zM367 609l-133 138l61 62l85 -87l115 85l48 -68l-172 -130h-4z" />
    <glyph glyph-name="uniF760" unicode="&#xf760;" horiz-adv-x="381" 
d="M451 612l-134 154l80 67l116 -167z" />
    <glyph glyph-name="uniF761" unicode="&#xf761;" horiz-adv-x="575" 
d="M-2 0l352 560h83l145 -560h-115l-28 109h-245l-68 -109h-124zM363 384l-114 -176h161z" />
    <glyph glyph-name="uniF762" unicode="&#xf762;" horiz-adv-x="546" 
d="M55 0l104 560h246c128 0 173 -50 173 -130c0 -62 -31 -109 -87 -136c37 -16 61 -55 61 -103c0 -138 -105 -191 -257 -191h-240zM334 233h-125l-23 -124h119c97 0 131 24 131 74c0 34 -31 50 -102 50zM368 451h-118l-21 -112h128c62 0 99 23 99 64c0 32 -23 48 -88 48z
" />
    <glyph glyph-name="uniF763" unicode="&#xf763;" horiz-adv-x="560" 
d="M522 181l63 -83c-48 -56 -131 -104 -251 -104c-164 0 -263 92 -263 245c0 188 133 327 350 327c102 0 178 -40 207 -101l-82 -69c-27 34 -70 57 -139 57c-126 0 -217 -81 -217 -202c0 -96 64 -144 158 -144c66 0 126 26 174 74z" />
    <glyph glyph-name="uniF764" unicode="&#xf764;" horiz-adv-x="580" 
d="M55 0l104 560h177c205 0 278 -103 278 -228c0 -218 -141 -332 -393 -332h-166zM314 451h-64l-64 -342h65c176 0 245 94 245 206c0 83 -50 136 -182 136z" />
    <glyph glyph-name="uniF765" unicode="&#xf765;" horiz-adv-x="522" 
d="M55 0l104 560h425l-20 -109h-314l-21 -114h293l-19 -106h-294l-23 -122h322l-20 -109h-433z" />
    <glyph glyph-name="uniF766" unicode="&#xf766;" horiz-adv-x="499" 
d="M55 0l104 560h420l-19 -109h-310l-25 -133h290l-20 -109h-290l-39 -209h-111z" />
    <glyph glyph-name="uniF767" unicode="&#xf767;" horiz-adv-x="580" 
d="M338 204l20 106h253l-40 -228c-46 -44 -122 -88 -234 -88c-165 0 -266 94 -266 248c0 184 132 324 351 324c96 0 174 -38 204 -97l-83 -69c-32 32 -75 53 -137 53c-127 0 -217 -80 -217 -205c0 -91 64 -141 161 -141c39 0 86 8 122 31l12 66h-146z" />
    <glyph glyph-name="uniF768" unicode="&#xf768;" horiz-adv-x="606" 
d="M440 0l42 228h-274l-42 -228h-111l104 560h111l-41 -222h274l40 222h112l-104 -560h-111z" />
    <glyph glyph-name="uniF769" unicode="&#xf769;" horiz-adv-x="231" 
d="M60 0l103 560h112l-104 -560h-111z" />
    <glyph glyph-name="uniF76A" unicode="&#xf76a;" horiz-adv-x="394" 
d="M446 560l-71 -383c-22 -116 -80 -183 -197 -183c-94 0 -146 51 -167 106l89 62c15 -33 46 -59 86 -59c43 0 68 21 82 97l66 360h112z" />
    <glyph glyph-name="uniF76B" unicode="&#xf76b;" horiz-adv-x="559" 
d="M55 0l104 560h111l-42 -226l264 226h160l-300 -259l208 -301h-134l-161 233l-65 -50l-34 -183h-111z" />
    <glyph glyph-name="uniF76C" unicode="&#xf76c;" horiz-adv-x="487" 
d="M55 0l104 560h111l-84 -451h313l-20 -109h-424z" />
    <glyph glyph-name="uniF76D" unicode="&#xf76d;" horiz-adv-x="684" 
d="M55 0l104 560h88l144 -249l235 249h107l-103 -560h-111l67 363l-198 -207h-29l-125 208l-68 -364h-111z" />
    <glyph glyph-name="uniF76E" unicode="&#xf76e;" horiz-adv-x="598" 
d="M542 0h-86l-226 366l-67 -366h-108l104 560h85l226 -365l68 365h108z" />
    <glyph glyph-name="uniF76F" unicode="&#xf76f;" horiz-adv-x="632" 
d="M72 240c0 174 139 326 339 326c152 0 252 -100 252 -245c0 -173 -137 -327 -338 -327c-152 0 -253 100 -253 246zM190 251c0 -89 64 -144 146 -144c109 0 209 80 209 202c0 90 -65 144 -145 144c-105 0 -210 -78 -210 -202z" />
    <glyph glyph-name="uniF770" unicode="&#xf770;" horiz-adv-x="552" 
d="M166 0h-111l104 560h233c162 0 206 -78 206 -167c0 -123 -92 -213 -276 -213h-123zM376 451h-126l-31 -162h121c99 0 141 38 141 95c0 39 -29 67 -105 67z" />
    <glyph glyph-name="uniF771" unicode="&#xf771;" horiz-adv-x="632" 
d="M72 239c0 175 141 327 339 327c152 0 252 -100 252 -240c0 -90 -34 -178 -116 -250l37 -57l-91 -61l-40 61c-42 -19 -90 -25 -127 -25c-160 0 -254 99 -254 245zM190 249c0 -88 59 -142 146 -142c23 0 47 4 69 12l-35 49l83 60l37 -56c37 35 55 88 55 139
c0 79 -56 142 -145 142c-114 0 -210 -80 -210 -204z" />
    <glyph glyph-name="uniF772" unicode="&#xf772;" horiz-adv-x="554" 
d="M166 0h-111l104 560h225c150 0 195 -69 195 -151c0 -95 -52 -163 -152 -192l125 -217h-128l-110 195h-112zM361 451h-111l-28 -147h116c77 0 125 33 125 89c0 34 -25 58 -102 58z" />
    <glyph glyph-name="uniF773" unicode="&#xf773;" horiz-adv-x="512" 
d="M406 162c0 98 -302 47 -302 228c0 126 123 176 244 176c95 0 172 -32 212 -87l-67 -76c-35 31 -88 54 -152 54c-80 0 -119 -19 -119 -56c0 -82 301 -46 301 -224c0 -125 -104 -183 -243 -183c-110 0 -192 41 -241 105l72 81c51 -53 114 -77 186 -77c76 0 109 24 109 59z
" />
    <glyph glyph-name="uniF774" unicode="&#xf774;" horiz-adv-x="489" 
d="M87 451l20 109h482l-20 -109h-185l-84 -451h-111l84 451h-186z" />
    <glyph glyph-name="uniF775" unicode="&#xf775;" horiz-adv-x="587" 
d="M640 560l-59 -320c-28 -153 -114 -245 -282 -245c-133 0 -235 83 -205 249l58 316h112l-56 -302c-18 -100 24 -154 111 -154c89 0 139 67 154 151l56 305h111z" />
    <glyph glyph-name="uniF776" unicode="&#xf776;" horiz-adv-x="587" 
d="M696 560l-358 -560h-77l-164 560h114l113 -386l244 386h128z" />
    <glyph glyph-name="uniF777" unicode="&#xf777;" horiz-adv-x="782" 
d="M885 560l-270 -560h-93l-63 347l-191 -347h-92l-72 560h109l47 -359l188 359h91l62 -355l165 355h119z" />
    <glyph glyph-name="uniF778" unicode="&#xf778;" horiz-adv-x="560" 
d="M655 560l-258 -282l157 -278h-130l-105 194l-174 -194h-142l261 289l-149 271h130l104 -186l164 186h142z" />
    <glyph glyph-name="uniF779" unicode="&#xf779;" horiz-adv-x="554" 
d="M663 560l-288 -319l-44 -241h-112l45 241l-167 319h128l109 -205l186 205h143z" />
    <glyph glyph-name="uniF77A" unicode="&#xf77a;" horiz-adv-x="512" 
d="M106 451l20 109h466l-14 -78l-380 -373h318l-20 -109h-487l15 78l378 373h-296z" />
    <glyph glyph-name="uniF7A1" unicode="&#xf7a1;" horiz-adv-x="250" 
d="M71 0l74 403h109l-74 -403h-109zM160 504c0 32 26 58 58 58s58 -26 58 -58s-26 -58 -58 -58s-58 26 -58 58z" />
    <glyph glyph-name="uniF7A8" unicode="&#xf7a8;" horiz-adv-x="467" 
d="M268 697c0 33 26 59 59 59s59 -26 59 -59s-26 -59 -59 -59s-59 26 -59 59zM476 697c0 33 26 59 59 59s59 -26 59 -59s-26 -59 -59 -59s-59 26 -59 59z" />
    <glyph glyph-name="uniF7AF" unicode="&#xf7af;" horiz-adv-x="428" 
d="M279 638l18 96h267l-18 -96h-267z" />
    <glyph glyph-name="uniF7B4" unicode="&#xf7b4;" horiz-adv-x="450" 
d="M592 769l-149 -157l-64 54l140 167z" />
    <glyph glyph-name="uniF7B8" unicode="&#xf7b8;" horiz-adv-x="444" 
d="M170 -168l44 59c15 -14 40 -23 71 -23c33 0 42 9 42 24s-15 20 -44 20h-12l16 88h60l-6 -32c56 -4 84 -30 84 -71c0 -58 -50 -104 -146 -104c-36 0 -78 9 -109 39z" />
    <glyph glyph-name="uniF7BF" unicode="&#xf7bf;" horiz-adv-x="400" 
d="M155 150c0 -26 19 -43 56 -43c33 0 72 13 107 65l86 -47c-37 -78 -109 -131 -207 -131c-105 0 -162 55 -162 133c0 90 68 137 129 175c35 24 66 40 66 87v14l99 1c1 -12 1 -20 1 -36c0 -60 -52 -95 -109 -133c-38 -25 -66 -49 -66 -85zM365 511c0 -28 -25 -66 -71 -66
c-35 0 -55 26 -55 51c0 39 34 66 71 66c35 0 55 -24 55 -51z" />
    <glyph glyph-name="uniF7E0" unicode="&#xf7e0;" horiz-adv-x="575" 
d="M-2 0l352 560h83l145 -560h-115l-28 109h-245l-68 -109h-124zM363 384l-114 -176h161zM429 612l-134 154l80 67l116 -167z" />
    <glyph glyph-name="uniF7E1" unicode="&#xf7e1;" horiz-adv-x="575" 
d="M-2 0l352 560h83l145 -560h-115l-28 109h-245l-68 -109h-124zM363 384l-114 -176h161zM557 769l-149 -157l-64 54l140 167z" />
    <glyph glyph-name="uniF7E2" unicode="&#xf7e2;" horiz-adv-x="575" 
d="M-2 0l352 560h83l145 -560h-115l-28 109h-245l-68 -109h-124zM363 384l-114 -176h161zM435 804l133 -138l-61 -62l-85 87l-115 -85l-48 68l172 130h4z" />
    <glyph glyph-name="uniF7E3" unicode="&#xf7e3;" horiz-adv-x="575" 
d="M-2 0l352 560h83l145 -560h-115l-28 109h-245l-68 -109h-124zM363 384l-114 -176h161zM286 632l-41 56c30 37 82 68 120 68c57 0 78 -44 118 -44c27 0 46 11 69 30l35 -60c-28 -31 -70 -64 -119 -64c-57 0 -77 43 -117 43c-21 0 -44 -13 -65 -29z" />
    <glyph glyph-name="uniF7E4" unicode="&#xf7e4;" horiz-adv-x="575" 
d="M-2 0l352 560h83l145 -560h-115l-28 109h-245l-68 -109h-124zM363 384l-114 -176h161zM252 697c0 33 26 59 59 59s59 -26 59 -59s-26 -59 -59 -59s-59 26 -59 59zM460 697c0 33 26 59 59 59s59 -26 59 -59s-26 -59 -59 -59s-59 26 -59 59z" />
    <glyph glyph-name="uniF7E5" unicode="&#xf7e5;" horiz-adv-x="575" 
d="M-2 0l352 560h83l145 -560h-115l-28 109h-245l-68 -109h-124zM363 384l-114 -176h161zM303 703c0 79 59 135 135 135c65 0 103 -44 103 -99c0 -79 -60 -133 -135 -133c-65 0 -103 42 -103 97zM377 713c0 -22 13 -37 37 -37c30 0 53 21 53 56c0 22 -14 36 -37 36
c-31 0 -53 -23 -53 -55z" />
    <glyph glyph-name="uniF7E6" unicode="&#xf7e6;" horiz-adv-x="923" 
d="M455 0l20 109h-235l-108 -109h-132l526 560h459l-20 -109h-315l-21 -114h294l-20 -106h-294l-23 -122h323l-20 -109h-434zM326 208h167l41 219z" />
    <glyph glyph-name="uniF7E7" unicode="&#xf7e7;" horiz-adv-x="560" 
d="M178 -168l44 59c15 -14 40 -23 71 -23c33 0 42 9 42 24s-15 20 -44 20h-12l15 84c-140 14 -223 103 -223 243c0 188 133 327 350 327c102 0 178 -40 207 -101l-82 -69c-27 34 -70 57 -139 57c-126 0 -217 -81 -217 -202c0 -96 64 -144 158 -144c66 0 126 26 174 74
l63 -83c-46 -53 -122 -98 -231 -103l-5 -27c56 -4 84 -30 84 -71c0 -58 -50 -104 -146 -104c-36 0 -78 9 -109 39z" />
    <glyph glyph-name="uniF7E8" unicode="&#xf7e8;" horiz-adv-x="522" 
d="M55 0l104 560h425l-20 -109h-314l-21 -114h293l-19 -106h-294l-23 -122h322l-20 -109h-433zM429 612l-134 154l80 67l116 -167z" />
    <glyph glyph-name="uniF7E9" unicode="&#xf7e9;" horiz-adv-x="522" 
d="M55 0l104 560h425l-20 -109h-314l-21 -114h293l-19 -106h-294l-23 -122h322l-20 -109h-433zM538 769l-149 -157l-64 54l140 167z" />
    <glyph glyph-name="uniF7EA" unicode="&#xf7ea;" horiz-adv-x="522" 
d="M55 0l104 560h425l-20 -109h-314l-21 -114h293l-19 -106h-294l-23 -122h322l-20 -109h-433zM421 804l133 -138l-61 -62l-85 87l-115 -85l-48 68l172 130h4z" />
    <glyph glyph-name="uniF7EB" unicode="&#xf7eb;" horiz-adv-x="522" 
d="M55 0l104 560h425l-20 -109h-314l-21 -114h293l-19 -106h-294l-23 -122h322l-20 -109h-433zM227 697c0 33 26 59 59 59s59 -26 59 -59s-26 -59 -59 -59s-59 26 -59 59zM435 697c0 33 26 59 59 59s59 -26 59 -59s-26 -59 -59 -59s-59 26 -59 59z" />
    <glyph glyph-name="uniF7EC" unicode="&#xf7ec;" horiz-adv-x="231" 
d="M60 0l103 560h112l-104 -560h-111zM261 612l-134 154l80 67l116 -167z" />
    <glyph glyph-name="uniF7ED" unicode="&#xf7ed;" horiz-adv-x="231" 
d="M60 0l103 560h112l-104 -560h-111zM386 769l-149 -157l-64 54l140 167z" />
    <glyph glyph-name="uniF7EE" unicode="&#xf7ee;" horiz-adv-x="231" 
d="M60 0l103 560h112l-104 -560h-111zM263 804l133 -138l-61 -62l-85 87l-115 -85l-48 68l172 130h4z" />
    <glyph glyph-name="uniF7EF" unicode="&#xf7ef;" horiz-adv-x="231" 
d="M60 0l103 560h112l-104 -560h-111zM80 697c0 33 26 59 59 59s59 -26 59 -59s-26 -59 -59 -59s-59 26 -59 59zM288 697c0 33 26 59 59 59s59 -26 59 -59s-26 -59 -59 -59s-59 26 -59 59z" />
    <glyph glyph-name="uniF7F0" unicode="&#xf7f0;" horiz-adv-x="632" 
d="M57 231l18 97h92l43 232h178c204 0 277 -100 277 -229c0 -214 -141 -331 -391 -331h-168l43 231h-92zM366 451h-65l-23 -123h135l-18 -97h-135l-23 -122h65c179 0 245 95 245 206c0 83 -49 136 -181 136z" />
    <glyph glyph-name="uniF7F1" unicode="&#xf7f1;" horiz-adv-x="598" 
d="M542 0h-86l-226 366l-67 -366h-108l104 560h85l226 -365l68 365h108zM291 632l-41 56c30 37 82 68 120 68c57 0 78 -44 118 -44c27 0 46 11 69 30l35 -60c-28 -31 -70 -64 -119 -64c-57 0 -77 43 -117 43c-21 0 -44 -13 -65 -29z" />
    <glyph glyph-name="uniF7F2" unicode="&#xf7f2;" horiz-adv-x="632" 
d="M72 240c0 174 139 326 339 326c152 0 252 -100 252 -245c0 -173 -137 -327 -338 -327c-152 0 -253 100 -253 246zM190 251c0 -89 64 -144 146 -144c109 0 209 80 209 202c0 90 -65 144 -145 144c-105 0 -210 -78 -210 -202zM444 612l-134 154l80 67l116 -167z" />
    <glyph glyph-name="uniF7F3" unicode="&#xf7f3;" horiz-adv-x="632" 
d="M72 240c0 174 139 326 339 326c152 0 252 -100 252 -245c0 -173 -137 -327 -338 -327c-152 0 -253 100 -253 246zM190 251c0 -89 64 -144 146 -144c109 0 209 80 209 202c0 90 -65 144 -145 144c-105 0 -210 -78 -210 -202zM592 769l-149 -157l-64 54l140 167z" />
    <glyph glyph-name="uniF7F4" unicode="&#xf7f4;" horiz-adv-x="632" 
d="M72 240c0 174 139 326 339 326c152 0 252 -100 252 -245c0 -173 -137 -327 -338 -327c-152 0 -253 100 -253 246zM190 251c0 -89 64 -144 146 -144c109 0 209 80 209 202c0 90 -65 144 -145 144c-105 0 -210 -78 -210 -202zM463 804l133 -138l-61 -62l-85 87l-115 -85
l-48 68l172 130h4z" />
    <glyph glyph-name="uniF7F5" unicode="&#xf7f5;" horiz-adv-x="632" 
d="M72 240c0 174 139 326 339 326c152 0 252 -100 252 -245c0 -173 -137 -327 -338 -327c-152 0 -253 100 -253 246zM190 251c0 -89 64 -144 146 -144c109 0 209 80 209 202c0 90 -65 144 -145 144c-105 0 -210 -78 -210 -202zM314 632l-41 56c30 37 82 68 120 68
c57 0 78 -44 118 -44c27 0 46 11 69 30l35 -60c-28 -31 -70 -64 -119 -64c-57 0 -77 43 -117 43c-21 0 -44 -13 -65 -29z" />
    <glyph glyph-name="uniF7F6" unicode="&#xf7f6;" horiz-adv-x="632" 
d="M72 240c0 174 139 326 339 326c152 0 252 -100 252 -245c0 -173 -137 -327 -338 -327c-152 0 -253 100 -253 246zM190 251c0 -89 64 -144 146 -144c109 0 209 80 209 202c0 90 -65 144 -145 144c-105 0 -210 -78 -210 -202zM280 697c0 33 26 59 59 59s59 -26 59 -59
s-26 -59 -59 -59s-59 26 -59 59zM488 697c0 33 26 59 59 59s59 -26 59 -59s-26 -59 -59 -59s-59 26 -59 59z" />
    <glyph glyph-name="uniF7F8" unicode="&#xf7f8;" horiz-adv-x="632" 
d="M62 44l52 52c-25 36 -42 86 -42 139c0 196 150 331 341 331c58 0 102 -16 140 -38l52 53l65 -64l-50 -51c26 -37 43 -86 43 -141c0 -179 -137 -331 -348 -331c-52 0 -94 15 -132 38l-56 -55zM545 308c0 26 -4 52 -14 71l-260 -260c19 -8 42 -12 65 -12
c110 0 209 80 209 201zM190 250c0 -24 5 -49 12 -67l262 258c-19 8 -40 12 -63 12c-106 0 -211 -78 -211 -203z" />
    <glyph glyph-name="uniF7F9" unicode="&#xf7f9;" horiz-adv-x="587" 
d="M640 560l-59 -320c-28 -153 -114 -245 -282 -245c-133 0 -235 83 -205 249l58 316h112l-56 -302c-18 -100 24 -154 111 -154c89 0 139 67 154 151l56 305h111zM425 612l-134 154l80 67l116 -167z" />
    <glyph glyph-name="uniF7FA" unicode="&#xf7fa;" horiz-adv-x="587" 
d="M640 560l-59 -320c-28 -153 -114 -245 -282 -245c-133 0 -235 83 -205 249l58 316h112l-56 -302c-18 -100 24 -154 111 -154c89 0 139 67 154 151l56 305h111zM563 769l-149 -157l-64 54l140 167z" />
    <glyph glyph-name="uniF7FB" unicode="&#xf7fb;" horiz-adv-x="587" 
d="M640 560l-59 -320c-28 -153 -114 -245 -282 -245c-133 0 -235 83 -205 249l58 316h112l-56 -302c-18 -100 24 -154 111 -154c89 0 139 67 154 151l56 305h111zM442 804l133 -138l-61 -62l-85 87l-115 -85l-48 68l172 130h4z" />
    <glyph glyph-name="uniF7FC" unicode="&#xf7fc;" horiz-adv-x="587" 
d="M640 560l-59 -320c-28 -153 -114 -245 -282 -245c-133 0 -235 83 -205 249l58 316h112l-56 -302c-18 -100 24 -154 111 -154c89 0 139 67 154 151l56 305h111zM258 697c0 33 26 59 59 59s59 -26 59 -59s-26 -59 -59 -59s-59 26 -59 59zM466 697c0 33 26 59 59 59
s59 -26 59 -59s-26 -59 -59 -59s-59 26 -59 59z" />
    <glyph glyph-name="uniF7FD" unicode="&#xf7fd;" horiz-adv-x="554" 
d="M663 560l-288 -319l-44 -241h-112l45 241l-167 319h128l109 -205l186 205h143zM538 769l-149 -157l-64 54l140 167z" />
    <glyph glyph-name="uniF7FE" unicode="&#xf7fe;" horiz-adv-x="533" 
d="M166 0h-111l104 560h111l-15 -82h103c162 0 206 -82 206 -164c0 -128 -91 -215 -276 -215h-104zM342 369h-107l-31 -161h102c99 0 140 38 140 94c0 39 -28 67 -104 67z" />
    <glyph glyph-name="uniF7FF" unicode="&#xf7ff;" horiz-adv-x="554" 
d="M663 560l-288 -319l-44 -241h-112l45 241l-167 319h128l109 -205l186 205h143zM230 697c0 33 26 59 59 59s59 -26 59 -59s-26 -59 -59 -59s-59 26 -59 59zM438 697c0 33 26 59 59 59s59 -26 59 -59s-26 -59 -59 -59s-59 26 -59 59z" />
    <glyph glyph-name="uniFE56" unicode="&#xfe56;" horiz-adv-x="400" 
d="M336 410c0 26 -19 43 -56 43c-33 0 -72 -13 -107 -65l-86 47c37 78 109 131 206 131c111 0 163 -55 163 -133c0 -90 -68 -137 -129 -175c-35 -24 -66 -40 -66 -87v-14l-99 -1c-1 12 -1 20 -1 36c0 60 52 95 109 133c38 25 66 49 66 85zM126 49c0 28 25 66 71 66
c35 0 55 -26 55 -51c0 -39 -34 -66 -71 -66c-35 0 -55 24 -55 51z" />
    <glyph glyph-name="uniFE57" unicode="&#xfe57;" horiz-adv-x="250" 
d="M101 157l74 403h108l-74 -403h-108zM72 49c0 28 25 66 71 66c35 0 55 -26 55 -51c0 -39 -34 -66 -71 -66c-35 0 -55 24 -55 51z" />
    <glyph glyph-name="uniFEFF" unicode="&#xfeff;" horiz-adv-x="0" 
 />
    <glyph glyph-name="nbspace" horiz-adv-x="236" 
 />
    <glyph glyph-name="caron.l" horiz-adv-x="199" 
d="M194 711h113c3 -8 4 -23 4 -35c0 -95 -76 -165 -138 -200l-41 47c45 35 71 85 71 132c0 22 -4 45 -9 56z" />
    <glyph glyph-name="caron.lsmall" horiz-adv-x="199" 
d="M169 560h110c3 -8 4 -23 4 -35c0 -95 -76 -164 -138 -200l-40 48c39 31 71 76 71 125c0 28 -3 46 -7 62z" />
    <glyph glyph-name="uniF35A.ss01" horiz-adv-x="559" 
d="M55 0l104 560h111l-41 -222h56l221 222h146l-275 -270l184 -290h-134l-143 228h-76l-42 -228h-111z" />
    <glyph glyph-name="afii10024.ss01" horiz-adv-x="909" 
d="M565 286l-53 -286h-115l53 286h-48l-251 -286h-151l312 356l-180 344h129l157 -300h53l55 300h115l-55 -300h40l258 300h143l-304 -350l186 -350h-135l-153 286h-56z" />
    <glyph glyph-name="afii10061.ss01" horiz-adv-x="646" 
d="M66 0l130 700h115l-55 -300h53l292 300h158l-353 -354l246 -346h-146l-201 286h-70l-54 -286h-115zM649 853l-224 -108l-36 72l219 132z" />
    <glyph glyph-name="afii10028.ss01" horiz-adv-x="646" 
d="M66 0l130 700h115l-55 -300h53l292 300h158l-353 -354l246 -346h-146l-201 286h-70l-54 -286h-115z" />
    <glyph glyph-name="uniF356.ss01" horiz-adv-x="792" 
d="M494 228l-42 -228h-111l42 228h-36l-213 -228h-135l264 293l-150 267h124l125 -222h42l41 222h111l-41 -222h28l207 222h137l-255 -272l162 -288h-125l-129 228h-46z" />
    <glyph glyph-name="afii10072.ss01" horiz-adv-x="731" 
d="M457 207l-38 -207h-108l38 207h-39l-182 -207h-132l235 265l-132 255h119l110 -212h40l39 212h108l-39 -212h34l189 212h125l-225 -253l135 -267h-120l-105 207h-52z" />
    <glyph glyph-name="K.ss01" horiz-adv-x="646" 
d="M66 0l130 700h115l-55 -300h53l292 300h158l-353 -354l246 -346h-146l-201 286h-70l-54 -286h-115z" />
    <glyph glyph-name="Kcommaaccent.ss01" horiz-adv-x="646" 
d="M66 0l130 700h115l-55 -300h53l292 300h158l-353 -354l246 -346h-146l-201 286h-70l-54 -286h-115zM246 -96l99 58c15 -17 29 -42 29 -72c0 -79 -70 -141 -118 -168l-47 45c29 25 53 53 53 88c0 16 -7 35 -16 49z" />
    <glyph glyph-name="kcommaaccent.ss01" horiz-adv-x="502" 
d="M50 0l135 730h109l-76 -412h28l208 202h140l-261 -245l176 -275h-128l-135 212l-48 1l-39 -213h-109zM180 -96l99 58c15 -17 29 -42 29 -72c0 -79 -70 -141 -118 -168l-47 45c29 25 53 53 53 88c0 16 -7 35 -16 49z" />
    </font>
</defs>
</svg>
